<svg width="150" height="180" viewBox="0 0 150 180" fill="none" xmlns="http://www.w3.org/2000/svg">
<path fill-rule="evenodd" clip-rule="evenodd" d="M72.0097 101.582C73.6611 100.712 76.3388 100.712 77.9902 101.582L144.023 136.391L149.97 133.256V140.197C150.119 140.853 149.717 141.538 148.761 142.041L77.9902 179.348C76.3388 180.218 73.6611 180.218 72.0097 179.348L1.23866 142.041C0.138611 141.461 -0.228724 140.642 0.136647 139.901V133.144L6.13637 136.307L72.0097 101.582Z" fill="#A1C1FF"/>
<path d="M72.0099 94.7332C73.6612 93.8624 76.339 93.8624 77.9903 94.7332L148.761 132.039C150.413 132.91 150.413 134.321 148.761 135.192L77.9903 172.498C76.339 173.369 73.6612 173.369 72.0099 172.498L1.23866 135.192C-0.412883 134.321 -0.412888 132.91 1.23865 132.039L72.0099 94.7332Z" fill="#DFECFE"/>
<path d="M34.896 115.322V132.075C34.896 137.66 38.8624 143.244 46.7954 147.466C62.6612 155.911 88.2228 155.911 103.942 147.466C111.875 143.244 115.694 137.66 115.694 132.075V115.322H34.896Z" fill="url(#paint0_linear_461_21567)"/>
<path d="M93.8054 105.379C104.089 110.963 104.236 119.953 93.9523 125.401C83.6689 130.849 66.9216 130.985 56.6382 125.401C46.3548 119.817 46.2079 110.827 56.4913 105.379C66.7747 99.9309 83.522 99.7947 93.8054 105.379Z" fill="url(#paint1_linear_461_21567)"/>
<path d="M123.209 115.509C123.249 101.292 101.84 89.7062 75.3903 89.6313C48.9407 89.5563 27.4663 101.021 27.426 115.238C27.3857 129.455 48.7947 141.041 75.2443 141.116C101.694 141.191 123.168 129.727 123.209 115.509Z" stroke="#F1935C" stroke-width="0.5" stroke-miterlimit="10"/>
<path d="M103.795 100.067C87.9289 91.6227 62.3673 91.6227 46.6484 100.067C30.9295 108.512 31.0763 122.269 46.7953 130.713C62.6611 139.158 88.2227 139.158 103.942 130.713C119.661 122.269 119.514 108.512 103.795 100.067ZM93.952 125.401C83.6686 130.986 66.9214 130.986 56.638 125.401C46.3546 119.817 46.2077 110.827 56.4911 105.379C66.7745 99.9311 83.5217 99.7949 93.8051 105.379C104.235 110.964 104.235 119.953 93.952 125.401Z" fill="#28565D"/>
<path d="M75.1481 94.3465C85.8722 94.3465 95.8618 96.5258 103.354 100.612C110.846 104.562 114.96 109.874 114.96 115.458C114.96 121.042 110.993 126.218 103.648 130.168C96.1556 134.254 86.166 136.433 75.4419 136.433C64.7178 136.433 54.7282 134.254 47.236 130.168C39.7438 126.218 35.6304 120.906 35.6304 115.322C35.6304 109.738 39.5969 104.562 46.9422 100.612C54.4344 96.5258 64.424 94.3465 75.1481 94.3465ZM75.1481 93.6655C64.8647 93.6655 54.4344 95.8448 46.6484 100.067C30.9295 108.512 31.0763 122.268 46.7953 130.713C54.7282 134.935 65.0116 137.114 75.4419 137.114C85.8722 137.114 96.1556 134.935 103.942 130.713C119.661 122.268 119.661 108.512 103.795 100.067C95.8618 95.8448 85.4315 93.6655 75.1481 93.6655Z" fill="url(#paint2_linear_461_21567)"/>
<path d="M52.0826 102.11C52.326 102.11 52.5233 101.927 52.5233 101.702C52.5233 101.476 52.326 101.293 52.0826 101.293C51.8392 101.293 51.6418 101.476 51.6418 101.702C51.6418 101.927 51.8392 102.11 52.0826 102.11Z" fill="white"/>
<path d="M87.9282 104.562C88.1716 104.562 88.369 104.379 88.369 104.153C88.369 103.928 88.1716 103.745 87.9282 103.745C87.6848 103.745 87.4875 103.928 87.4875 104.153C87.4875 104.379 87.6848 104.562 87.9282 104.562Z" fill="white"/>
<path d="M95.8606 100.611C96.104 100.611 96.3014 100.428 96.3014 100.203C96.3014 99.9769 96.104 99.7939 95.8606 99.7939C95.6172 99.7939 95.4199 99.9769 95.4199 100.203C95.4199 100.428 95.6172 100.611 95.8606 100.611Z" fill="white"/>
<path d="M63.6875 115.322C63.9309 115.322 64.1282 115.139 64.1282 114.913C64.1282 114.687 63.9309 114.504 63.6875 114.504C63.4441 114.504 63.2468 114.687 63.2468 114.913C63.2468 115.139 63.4441 115.322 63.6875 115.322Z" fill="white"/>
<path d="M89.1036 88.762C89.347 88.762 89.5443 88.5791 89.5443 88.3534C89.5443 88.1278 89.347 87.9448 89.1036 87.9448C88.8602 87.9448 88.6628 88.1278 88.6628 88.3534C88.6628 88.5791 88.8602 88.762 89.1036 88.762Z" fill="white"/>
<path d="M56.1961 89.1702C56.4395 89.1702 56.6368 88.9873 56.6368 88.7616C56.6368 88.536 56.4395 88.353 56.1961 88.353C55.9527 88.353 55.7554 88.536 55.7554 88.7616C55.7554 88.9873 55.9527 89.1702 56.1961 89.1702Z" fill="white"/>
<path d="M68.2422 81.2708C68.4856 81.2708 68.683 81.0879 68.683 80.8622C68.683 80.6366 68.4856 80.4536 68.2422 80.4536C67.9988 80.4536 67.8015 80.6366 67.8015 80.8622C67.8015 81.0879 67.9988 81.2708 68.2422 81.2708Z" fill="white"/>
<path opacity="0.4" d="M50.3209 98.9771H50.7616C50.9085 98.9771 51.0554 99.1133 51.0554 99.2495V113.278C51.0554 113.415 50.9085 113.551 50.7616 113.551H50.3209C50.174 113.551 50.0271 113.415 50.0271 113.278V99.1133C50.0271 98.9771 50.174 98.9771 50.3209 98.9771Z" fill="url(#paint3_linear_461_21567)"/>
<path opacity="0.4" d="M99.8273 94.0742H100.268C100.415 94.0742 100.562 94.2104 100.562 94.3466V108.376C100.562 108.512 100.415 108.648 100.268 108.648H99.8273C99.6803 108.648 99.5334 108.512 99.5334 108.376V94.3466C99.5334 94.2104 99.6803 94.0742 99.8273 94.0742Z" fill="url(#paint4_linear_461_21567)"/>
<path opacity="0.4" d="M65.1588 103.472H65.5995C65.7464 103.472 65.8933 103.608 65.8933 103.744V117.773C65.8933 117.909 65.7464 118.045 65.5995 118.045H65.1588C65.0119 118.045 64.865 117.909 64.865 117.773V103.744C64.865 103.608 65.0119 103.472 65.1588 103.472Z" fill="url(#paint5_linear_461_21567)"/>
<path opacity="0.4" d="M65.1588 84.4038H65.5995C65.7464 84.4038 65.8933 84.54 65.8933 84.6762V98.7052C65.8933 98.8414 65.7464 98.9776 65.5995 98.9776H65.1588C65.0119 98.9776 64.865 98.8414 64.865 98.7052V84.6762C64.865 84.54 65.0119 84.4038 65.1588 84.4038Z" fill="url(#paint6_linear_461_21567)"/>
<path d="M46.2079 142.972L47.2363 142.428C47.3832 142.291 47.5301 142.019 47.5301 141.747C47.5301 141.066 46.9425 140.248 46.3548 139.84C46.061 139.704 45.7672 139.704 45.4734 139.704L44.4451 140.248L46.2079 142.972Z" fill="url(#paint7_linear_461_21567)"/>
<path d="M46.2626 142.891C46.6848 142.666 46.6672 141.902 46.2232 141.185C45.7792 140.467 45.077 140.067 44.6547 140.292C44.2324 140.516 44.2501 141.28 44.6941 141.998C45.1381 142.716 45.8403 143.115 46.2626 142.891Z" fill="#2185F8"/>
<path d="M45.9694 142.418C46.2509 142.268 46.2501 141.777 45.9675 141.32C45.685 140.863 45.2277 140.614 44.9462 140.764C44.6647 140.914 44.6656 141.405 44.9481 141.862C45.2307 142.319 45.6879 142.568 45.9694 142.418Z" fill="#F1935C"/>
<path d="M51.0556 145.425L52.0839 144.88C52.2308 144.744 52.3777 144.471 52.3777 144.199C52.3777 143.518 51.7901 142.701 51.2025 142.292C50.9087 142.156 50.6149 142.156 50.3211 142.156L49.2927 142.701L51.0556 145.425Z" fill="url(#paint8_linear_461_21567)"/>
<path d="M50.995 145.529C51.4172 145.305 51.3996 144.541 50.9556 143.823C50.5116 143.106 49.8094 142.706 49.3871 142.93C48.9649 143.155 48.9825 143.919 49.4265 144.636C49.8705 145.354 50.5727 145.754 50.995 145.529Z" fill="#2185F8"/>
<path d="M50.7016 145.057C50.9831 144.908 50.9823 144.416 50.6997 143.959C50.4172 143.502 49.9599 143.254 49.6784 143.403C49.3969 143.553 49.3977 144.045 49.6803 144.501C49.9628 144.958 50.4201 145.207 50.7016 145.057Z" fill="#FFE200"/>
<path d="M35.2939 96.9214V113.674C35.2939 119.259 39.2604 124.843 47.1933 129.065C63.0591 137.51 88.6207 137.51 104.34 129.065C112.273 124.843 116.092 119.259 116.092 113.674V96.9214H35.2939Z" fill="url(#paint9_linear_461_21567)"/>
<path d="M94.2033 86.9782C104.487 92.5625 104.634 101.552 94.3502 107C84.0668 112.448 67.3196 112.584 57.0362 107C46.7528 101.416 46.6058 92.4263 56.8892 86.9782C67.1727 81.53 83.9199 81.3938 94.2033 86.9782Z" fill="url(#paint10_linear_461_21567)"/>
<path d="M104.193 81.6665C88.3268 73.2219 62.7652 73.2219 47.0463 81.6665C31.3274 90.1111 31.4743 103.868 47.1932 112.312C63.059 120.757 88.6207 120.757 104.34 112.312C120.058 103.868 119.912 90.1111 104.193 81.6665ZM94.35 107C84.0666 112.585 67.3193 112.585 57.0359 107C46.7525 101.416 46.6056 92.4265 56.889 86.9784C67.1724 81.5303 83.9197 81.3941 94.2031 86.9784C104.633 92.5627 104.633 101.552 94.35 107Z" fill="#E9E8E8"/>
<path d="M75.546 75.9462C86.2702 75.9462 96.2597 78.1254 103.752 82.2115C111.244 86.1614 115.358 91.4733 115.358 97.0577C115.358 102.642 111.391 107.818 104.046 111.768C96.5536 115.854 86.564 118.033 75.8398 118.033C65.1157 118.033 55.1261 115.854 47.6339 111.768C40.1417 107.818 36.0284 102.506 36.0284 96.9215C36.0284 91.3371 39.9948 86.1614 47.3401 82.2115C54.8323 78.1254 64.8219 75.9462 75.546 75.9462ZM75.546 75.2651C65.2626 75.2651 54.8323 77.4444 47.0463 81.6667C31.3274 90.1113 31.4743 103.868 47.1932 112.312C55.1261 116.535 65.4095 118.714 75.8398 118.714C86.2702 118.714 96.5536 116.535 104.34 112.312C120.058 103.868 120.058 90.1113 104.193 81.6667C96.2598 77.4444 85.8294 75.2651 75.546 75.2651Z" fill="url(#paint11_linear_461_21567)"/>
<path d="M46.6061 124.571L47.6345 124.026C47.7814 123.89 47.9283 123.618 47.9283 123.345C47.9283 122.664 47.3407 121.847 46.753 121.438C46.4592 121.302 46.1654 121.302 45.8716 121.302L44.8433 121.847L46.6061 124.571Z" fill="url(#paint12_linear_461_21567)"/>
<path d="M46.6608 124.49C47.083 124.266 47.0654 123.502 46.6214 122.784C46.1774 122.067 45.4751 121.667 45.0529 121.891C44.6306 122.116 44.6483 122.88 45.0923 123.597C45.5363 124.315 46.2385 124.715 46.6608 124.49Z" fill="#2185F8"/>
<path d="M46.3676 124.018C46.6491 123.868 46.6483 123.376 46.3657 122.92C46.0832 122.463 45.6259 122.214 45.3444 122.364C45.0629 122.513 45.0638 123.005 45.3463 123.462C45.6289 123.919 46.0861 124.167 46.3676 124.018Z" fill="#F1935C"/>
<path d="M51.4538 127.022L52.4821 126.477C52.629 126.341 52.7759 126.069 52.7759 125.796C52.7759 125.115 52.1883 124.298 51.6007 123.89C51.3069 123.753 51.0131 123.753 50.7193 123.753L49.6909 124.298L51.4538 127.022Z" fill="url(#paint13_linear_461_21567)"/>
<path d="M51.3929 127.128C51.8152 126.903 51.7976 126.139 51.3536 125.421C50.9096 124.704 50.2073 124.304 49.7851 124.528C49.3628 124.753 49.3804 125.517 49.8244 126.235C50.2685 126.952 50.9707 127.352 51.3929 127.128Z" fill="#2185F8"/>
<path d="M51.0998 126.655C51.3813 126.506 51.3805 126.014 51.0979 125.557C50.8154 125.101 50.3581 124.852 50.0766 125.001C49.7951 125.151 49.7959 125.643 50.0785 126.099C50.361 126.556 50.8183 126.805 51.0998 126.655Z" fill="#FFE200"/>
<path d="M35.2939 78.106V94.859C35.2939 100.443 39.2604 106.028 47.1933 110.25C63.0591 118.695 88.6207 118.695 104.34 110.25C112.273 106.028 116.092 100.443 116.092 94.859V78.106H35.2939Z" fill="url(#paint14_linear_461_21567)"/>
<path d="M94.2033 68.1627C104.487 73.7471 104.634 82.7365 94.3502 88.1846C84.0668 93.6328 67.3196 93.769 57.0362 88.1846C46.7528 82.6003 46.6058 73.6109 56.8892 68.1627C67.1727 62.7146 83.9199 62.5784 94.2033 68.1627Z" fill="url(#paint15_linear_461_21567)"/>
<path d="M104.193 62.8506C88.3268 54.4059 62.7652 54.4059 47.0463 62.8506C31.3274 71.2952 31.4743 85.0517 47.1932 93.4963C63.059 101.941 88.6207 101.941 104.34 93.4963C120.058 85.0517 119.912 71.2952 104.193 62.8506ZM94.35 88.1844C84.0666 93.7687 67.3193 93.7687 57.0359 88.1844C46.7525 82.6001 46.6056 73.6106 56.889 68.1625C67.1724 62.7143 83.9197 62.5781 94.2031 68.1625C104.633 73.7468 104.633 82.7363 94.35 88.1844Z" fill="#FF9634"/>
<path d="M75.546 57.1302C86.2702 57.1302 96.2597 59.3095 103.752 63.3956C111.244 67.3455 115.358 72.6574 115.358 78.2418C115.358 83.8261 111.391 89.0018 104.046 92.9517C96.5536 97.0378 86.564 99.2171 75.8398 99.2171C65.1157 99.2171 55.1261 97.0378 47.6339 92.9517C40.1417 89.0018 36.0284 83.6899 36.0284 78.1056C36.0284 72.5212 39.9948 67.3455 47.3401 63.3956C54.8323 59.3095 64.8219 57.1302 75.546 57.1302ZM75.546 56.4492C65.2626 56.4492 54.8323 58.6285 47.0463 62.8508C31.3274 71.2954 31.4743 85.0519 47.1932 93.4966C55.1261 97.7189 65.4095 99.8981 75.8398 99.8981C86.2702 99.8981 96.5536 97.7189 104.34 93.4966C120.058 85.0519 120.058 71.2954 104.193 62.8508C96.2598 58.6285 85.8294 56.4492 75.546 56.4492Z" fill="url(#paint16_linear_461_21567)"/>
<path d="M46.6061 105.755L47.6345 105.21C47.7814 105.074 47.9283 104.802 47.9283 104.529C47.9283 103.848 47.3407 103.031 46.753 102.623C46.4592 102.486 46.1654 102.486 45.8716 102.486L44.8433 103.031L46.6061 105.755Z" fill="url(#paint17_linear_461_21567)"/>
<path d="M46.6608 105.675C47.083 105.45 47.0654 104.686 46.6214 103.968C46.1774 103.251 45.4751 102.851 45.0529 103.075C44.6306 103.3 44.6483 104.064 45.0923 104.782C45.5363 105.499 46.2385 105.899 46.6608 105.675Z" fill="#2185F8"/>
<path d="M46.3676 105.202C46.6491 105.053 46.6483 104.561 46.3657 104.104C46.0832 103.648 45.6259 103.399 45.3444 103.548C45.0629 103.698 45.0638 104.19 45.3463 104.646C45.6289 105.103 46.0861 105.352 46.3676 105.202Z" fill="#F1935C"/>
<path d="M51.4538 108.207L52.4821 107.663C52.629 107.526 52.7759 107.254 52.7759 106.982C52.7759 106.301 52.1883 105.483 51.6007 105.075C51.3069 104.938 51.0131 104.938 50.7193 104.938L49.6909 105.483L51.4538 108.207Z" fill="url(#paint18_linear_461_21567)"/>
<path d="M51.3929 108.312C51.8152 108.087 51.7976 107.323 51.3536 106.606C50.9096 105.888 50.2073 105.488 49.7851 105.713C49.3628 105.937 49.3804 106.701 49.8244 107.419C50.2685 108.136 50.9707 108.536 51.3929 108.312Z" fill="#2185F8"/>
<path d="M51.0998 107.839C51.3813 107.69 51.3805 107.198 51.0979 106.741C50.8154 106.285 50.3581 106.036 50.0766 106.186C49.7951 106.335 49.7959 106.827 50.0785 107.284C50.361 107.74 50.8183 107.989 51.0998 107.839Z" fill="#FFE200"/>
<path d="M53.81 26.3149C51.9146 22.8114 51.0854 19.3079 51.1841 16.0416C51.2631 12.9761 52.1713 10.1842 53.6915 7.84855C55.0933 5.65887 57.0281 3.87063 59.3578 2.55682C61.5098 1.3525 63.9975 0.531369 66.7221 0.18467C71.6381 -0.43574 76.6924 0.549616 81.0754 2.50208C85.2412 4.38156 89.1306 7.28289 92.0526 10.9871C95.0931 14.8373 96.791 19.1801 97.0279 23.3405C97.3044 28.0301 95.7249 32.7744 91.796 36.2597C89.565 38.2304 86.8207 39.5989 83.7407 40.3288C80.4239 41.0952 76.7714 41.0952 73.0794 40.3288C65.1821 38.6683 57.8179 33.6685 53.81 26.3149Z" fill="url(#paint19_radial_461_21567)"/>
<path style="mix-blend-mode:multiply" fill-rule="evenodd" clip-rule="evenodd" d="M83.3857 39.1801C80.2268 39.8735 76.7718 39.8552 73.2772 39.0888C65.8143 37.4648 58.8646 32.7388 55.0344 25.8048C51.4609 19.3087 51.7965 12.9404 54.7383 8.25083C56.0413 6.15239 57.8577 4.41889 60.069 3.14158C62.1025 1.9555 64.4717 1.15262 67.0778 0.805916C71.8162 0.149011 76.6928 1.07963 80.9376 2.97735C84.9849 4.76559 88.7362 7.57568 91.5594 11.1704C94.5012 14.9111 96.1201 19.108 96.3176 23.1224C96.515 27.6113 94.9553 32.1366 91.1251 35.4211C88.9928 37.2641 86.3472 38.5414 83.3857 39.1801ZM57.1272 24.9471C61.5497 22.8669 65.5181 20.9875 69.0916 19.3087C71.474 18.6396 73.7313 18.0132 75.8636 17.4292C75.7978 17.3319 75.7385 17.2285 75.6859 17.119C73.501 17.5691 71.1844 18.0497 68.7363 18.5606C64.5704 18.889 60.0097 19.2357 55.0542 19.6372C55.1726 20.1846 55.324 20.732 55.5083 21.2794C56.1401 21.1882 56.7916 21.4254 57.0877 21.8998C57.4234 22.4838 57.1272 23.1954 56.377 23.4874C56.5942 23.98 56.8508 24.4545 57.1272 24.9471ZM55.0147 19.4729C59.8518 18.5971 64.2545 17.7942 68.2624 17.0643C70.829 17.0035 73.2706 16.9366 75.5872 16.8636C75.5477 16.7541 75.5082 16.6446 75.4884 16.5169C73.1456 16.4196 70.6908 16.3222 68.1242 16.2249C63.9584 15.568 59.5162 14.8746 54.758 14.1447C54.6988 14.6556 54.6593 15.1848 54.6593 15.714C55.3108 15.7505 55.8834 16.1154 56.0019 16.6264C56.1401 17.192 55.6267 17.7394 54.837 17.8307C54.8107 17.8307 54.7778 17.8307 54.7383 17.8307C54.8173 18.3781 54.8962 18.9255 55.0147 19.4729ZM60.4441 4.67435C60.1019 4.91765 59.7794 5.17311 59.4767 5.44074C63.0436 7.33846 66.5184 9.18753 69.9011 10.9879C71.8623 12.3869 73.8168 13.7798 75.7649 15.1666C75.8043 15.0753 75.8636 15.0023 75.9425 14.9476C74.0998 13.4878 72.2506 12.028 70.3947 10.5682C67.8939 8.09877 65.4128 5.65363 62.9515 3.23281C62.5961 3.39096 62.2473 3.56735 61.9051 3.76199C62.2802 4.05394 62.3789 4.47363 62.0828 4.72909C61.7669 5.0393 61.0759 5.0393 60.5231 4.72909C60.4967 4.71693 60.4704 4.69868 60.4441 4.67435ZM64.7284 2.53941C64.1492 2.72189 63.5964 2.93477 63.0699 3.17807C65.8735 5.41641 68.6704 7.64867 71.4608 9.87484C73.0008 11.5049 74.5539 13.1411 76.1202 14.7834C76.2255 14.7104 76.3374 14.6496 76.4559 14.6009C75.0738 12.8735 73.705 11.1704 72.3493 9.49165C70.7435 6.85187 69.1772 4.29724 67.6504 1.82777C67.216 1.90076 66.7883 1.98591 66.3671 2.08323C66.604 2.39343 66.5645 2.72189 66.2289 2.88611C65.834 3.08683 65.1825 2.9591 64.7876 2.59416C64.7613 2.56983 64.7415 2.55158 64.7284 2.53941ZM73.7116 1.84602C73.6984 1.80952 73.6852 1.77911 73.6721 1.75478C73.1719 1.69395 72.6652 1.64529 72.1518 1.6088C73.2969 3.98095 74.4947 6.44434 75.7451 8.99897C76.2453 10.7385 76.752 12.539 77.2653 14.4002C77.3838 14.388 77.5023 14.388 77.6207 14.4002C77.2522 12.5511 76.8902 10.775 76.5348 9.07196C76.4756 6.64507 76.3966 4.36415 76.3374 2.22921C76.0083 2.15622 75.6727 2.08323 75.3305 2.01024C75.4095 2.3022 75.1923 2.52117 74.7974 2.50292C74.3631 2.50292 73.8695 2.21096 73.7116 1.84602ZM85.4588 6.46259C85.4719 6.45043 85.4851 6.43218 85.4983 6.40785C85.1561 6.16455 84.8073 5.93342 84.4519 5.71445C83.7214 7.41145 82.9119 9.23619 82.0629 11.2251C81.1548 12.393 80.1939 13.6277 79.1804 14.9294C79.2726 14.9902 79.3713 15.0571 79.4766 15.1301C80.5954 13.9136 81.6615 12.7579 82.675 11.6631C84.4519 10.3858 86.0906 9.19969 87.6108 8.0866C87.3476 7.85547 87.0711 7.62434 86.7816 7.39321C86.6236 7.55743 86.288 7.55743 85.9524 7.35671C85.5575 7.11949 85.3403 6.71805 85.4588 6.46259ZM90.8882 11.5536C89.1508 12.466 87.2752 13.4513 85.2614 14.4914C83.6424 14.9415 81.9445 15.4099 80.1676 15.8965C80.2202 15.9816 80.2729 16.0729 80.3255 16.1702C82.1682 15.7931 83.932 15.4281 85.6167 15.0753C88.2031 14.9476 90.6315 14.8199 92.9217 14.7104C92.7638 14.4184 92.5993 14.1265 92.4281 13.8345C92.1715 13.8893 91.7964 13.725 91.5594 13.4331C91.2633 13.0864 91.2436 12.6849 91.5002 12.5572C91.5265 12.545 91.5529 12.5329 91.5792 12.5207C91.3554 12.2044 91.1251 11.882 90.8882 11.5536ZM92.981 14.8016C90.8684 15.2578 88.598 15.7505 86.1695 16.2797C84.34 16.3162 82.4249 16.3587 80.4243 16.4074C80.4637 16.5169 80.4966 16.6264 80.523 16.7358C82.5631 16.821 84.5243 16.9001 86.4065 16.9731C89.2232 17.4718 91.9082 17.9402 94.4617 18.3781C94.3564 18.0497 94.2445 17.7151 94.1261 17.3745C93.8102 17.3563 93.4548 17.119 93.2574 16.7906C93.0402 16.3891 93.1192 16.0242 93.4548 15.9512C93.4811 15.9512 93.5074 15.9512 93.5338 15.9512C93.3627 15.5619 93.1784 15.1787 92.981 14.8016ZM94.4617 27.7755C94.5802 27.4105 94.6855 27.0456 94.7776 26.6806C91.9214 25.1965 88.9994 23.6759 86.0116 22.1188C84.1294 20.7685 82.2406 19.4182 80.3453 18.0679C80.2926 18.1409 80.24 18.2139 80.1873 18.2869C82.03 19.7467 83.8662 21.1943 85.6957 22.6297C88.236 25.1357 90.8026 27.6599 93.3956 30.2024C93.5667 29.8861 93.7246 29.5698 93.8694 29.2535C93.514 28.9798 93.2771 28.4871 93.3561 28.0857C93.4351 27.6295 93.8694 27.447 94.3235 27.6842C94.3762 27.7086 94.4222 27.739 94.4617 27.7755ZM87.7095 8.1596C86.4657 9.52815 85.1429 11.0062 83.7214 12.5937C82.4446 13.4574 81.1021 14.3698 79.6938 15.3308C79.7991 15.4281 79.8978 15.5376 79.9899 15.6592C81.5562 14.8685 83.0435 14.1143 84.4519 13.3966C86.7224 12.7032 88.8349 12.0645 90.8092 11.4624C90.5328 11.1096 90.2498 10.769 89.9602 10.4405C89.7431 10.55 89.3877 10.4588 89.0915 10.2215C88.7362 9.92959 88.6177 9.5099 88.8151 9.30918C88.8283 9.29701 88.848 9.28484 88.8744 9.27268C88.4927 8.89557 88.1044 8.52454 87.7095 8.1596ZM79.7135 18.6701C81.1745 20.4948 82.6552 22.3439 84.1557 24.2173C86.1169 27.3315 88.1504 30.5612 90.2564 33.9066C90.6644 33.566 91.0527 33.2071 91.4212 32.83C91.0856 32.4468 90.9672 31.8994 91.1646 31.5162C91.3818 31.0783 91.9346 31.0235 92.3689 31.3885C92.4216 31.4371 92.4742 31.4858 92.5269 31.5344C92.8164 31.133 93.0797 30.7255 93.3166 30.3119C90.5262 28.0735 87.7227 25.8352 84.906 23.5968C83.2607 21.8694 81.6352 20.1542 80.0294 18.4511C79.9241 18.5362 79.8188 18.6092 79.7135 18.6701ZM89.0126 34.8372C89.4074 34.5817 89.7826 34.308 90.1379 33.9978C87.7029 30.8836 85.3206 27.8424 82.9909 24.8742C81.7931 22.794 80.6283 20.7624 79.4963 18.7795C79.391 18.8282 79.2791 18.8647 79.1607 18.889C80.161 20.9206 81.1811 23.0129 82.2209 25.1661C83.4252 28.6878 84.6888 32.4286 86.0511 36.3882C86.4986 36.2057 86.9395 36.005 87.3739 35.7861C87.1764 35.2934 87.2752 34.7642 87.6108 34.4905C88.0254 34.162 88.6374 34.3263 89.0126 34.8372ZM84.3334 36.9721C84.8731 36.8262 85.393 36.6558 85.8931 36.4612C84.1162 32.6293 82.4183 28.9798 80.7796 25.4946C80.1347 23.2197 79.5095 21.0301 78.904 18.9255C78.7856 18.9438 78.6671 18.9438 78.5486 18.9438C78.983 21.0605 79.4305 23.2684 79.8912 25.5676C80.1281 29.2718 80.365 33.2679 80.6414 37.629C81.1679 37.5804 81.6944 37.5135 82.2209 37.4283C82.1617 36.8809 82.4183 36.3517 82.8922 36.1875C83.445 35.9868 84.0768 36.3335 84.3334 36.9721ZM78.5092 37.6838C79.1673 37.696 79.8188 37.6777 80.4637 37.629C79.674 33.2862 78.9435 29.2718 78.2722 25.5128C78.2722 23.2015 78.2722 21.0057 78.2722 18.9255C78.1143 18.9012 77.9629 18.8708 77.8181 18.8343C77.5812 20.878 77.3311 23.0373 77.0679 25.3121C76.0807 28.8521 74.9949 32.7752 73.8103 37.0999C74.5737 37.2702 75.3305 37.404 76.0807 37.5013C76.1992 36.9174 76.6336 36.4795 77.2061 36.4612C77.8576 36.4247 78.4499 36.9721 78.5092 37.6838ZM72.0531 36.6254C72.5796 36.7836 73.0995 36.9296 73.6128 37.0634C74.2644 32.5745 74.8567 28.5054 75.4095 24.7829C76.1597 22.648 76.8705 20.6408 77.5417 18.7431C77.4233 18.7066 77.3048 18.6579 77.1864 18.5971C76.3769 20.4218 75.5082 22.356 74.5803 24.4362C72.5072 27.5383 70.2367 31.0053 67.6701 34.8737C68.3019 35.2021 68.9337 35.4759 69.5655 35.7496C69.8616 35.2204 70.4737 34.9102 71.066 35.0379C71.7767 35.2021 72.2111 35.9138 72.0531 36.6254ZM65.6958 33.7424V33.7606C66.2881 34.1256 66.887 34.4662 67.4924 34.7825C69.526 30.6221 71.3621 26.8996 73.0008 23.5421C74.4026 21.7356 75.7056 20.0386 76.9297 18.4511C76.8112 18.3781 76.6994 18.3051 76.5941 18.2321C75.2318 19.7102 73.7708 21.2977 72.2111 22.9764C69.1903 25.3668 65.8143 28.0309 62.0235 31.0235C62.4974 31.4371 62.9778 31.8325 63.4648 32.2096C63.9386 31.7716 64.6494 31.6439 65.222 31.9359C65.8735 32.3008 66.0907 33.1037 65.6958 33.7424ZM61.8853 30.8775C65.222 27.5018 68.2032 24.491 70.8883 21.7721C72.8429 20.44 74.6592 19.1992 76.3769 18.0314C76.2584 17.9219 76.1466 17.8003 76.0413 17.6665C74.1459 18.6275 72.1321 19.6493 69.9998 20.732C66.1696 22.0458 61.9248 23.4874 57.2062 25.1114C57.6011 25.7926 58.0288 26.4556 58.4895 27.1003C59.1015 26.8084 59.8518 26.8631 60.3059 27.3011C60.8587 27.7937 60.7995 28.5966 60.1874 29.0893C60.1743 29.1015 60.1611 29.1136 60.1479 29.1258C60.7008 29.734 61.2799 30.3179 61.8853 30.8775ZM95.1725 22.6845C92.4479 21.9181 89.5983 21.1213 86.6236 20.2941C84.6361 19.406 82.6092 18.4997 80.5427 17.5752C80.5164 17.6725 80.4835 17.7699 80.444 17.8672C82.4841 18.9255 84.4914 19.9656 86.4657 20.9875C89.2824 22.873 92.0596 24.7343 94.7973 26.5712C94.8895 26.2062 94.9619 25.8352 95.0145 25.4581C94.6591 25.2756 94.363 24.8742 94.3235 24.491C94.284 24.0348 94.5999 23.7611 95.0343 23.8705C95.0737 23.8827 95.1198 23.901 95.1725 23.9253C95.1856 23.5117 95.1856 23.0981 95.1725 22.6845ZM95.0737 21.2977C94.7184 21.2064 94.3827 20.878 94.2643 20.513C94.1063 20.0751 94.3038 19.7467 94.6986 19.7649C94.7381 19.7649 94.7776 19.771 94.8171 19.7831C94.7249 19.3452 94.6131 18.9134 94.4814 18.4876C92.0333 18.3963 89.4272 18.3051 86.6631 18.2139C84.702 17.8124 82.6684 17.3988 80.5625 16.9731C80.5756 17.0947 80.5756 17.2164 80.5625 17.338C82.6816 17.9341 84.7349 18.5119 86.7224 19.0715C89.6312 20.2758 92.4479 21.4437 95.1725 22.575C95.1593 22.1492 95.1264 21.7234 95.0737 21.2977ZM80.8783 3.78023C80.6809 5.76919 80.4637 7.88588 80.2071 10.1486C79.7069 11.5597 79.1738 13.0499 78.6079 14.6192C78.7132 14.6678 78.8185 14.7165 78.9238 14.7651C79.595 13.2567 80.24 11.8273 80.8586 10.477C82.1024 8.74351 83.2673 7.13774 84.3532 5.64146C84.0768 5.47115 83.8003 5.30085 83.5239 5.13054C83.4252 5.3495 83.1093 5.42249 82.754 5.27651C82.3393 5.11229 82.0235 4.72909 82.0432 4.43714C82.0564 4.40064 82.0629 4.37023 82.0629 4.3459C81.6812 4.15126 81.2864 3.96271 80.8783 3.78023ZM79.595 3.25106C79.5753 3.50652 79.2989 3.63425 78.9238 3.56126C78.4894 3.47003 78.0748 3.12333 78.0156 2.79488C78.0156 2.75838 78.0156 2.72797 78.0156 2.70364C77.5023 2.53333 76.9758 2.38735 76.4361 2.2657C76.91 4.49188 77.4035 6.84579 77.9169 9.32742C77.9169 10.9454 77.9103 12.6484 77.8971 14.4367C78.0419 14.4488 78.1867 14.4793 78.3315 14.5279C78.5289 12.8127 78.7198 11.1704 78.904 9.60113C79.5753 7.50269 80.1873 5.55022 80.7796 3.72549C80.3848 3.55518 79.9899 3.39704 79.595 3.25106ZM67.7688 1.80952C69.6773 4.206 71.6319 6.65115 73.6326 9.14495C74.6197 10.8845 75.6332 12.6667 76.673 14.4914C76.7783 14.4549 76.8902 14.4306 77.0087 14.4184C76.1136 12.5815 75.2384 10.7872 74.3828 9.03547C73.5668 6.44434 72.7836 3.96879 72.0334 1.6088C71.6517 1.58447 71.27 1.57231 70.8883 1.57231C71.0265 1.88251 70.8883 2.13797 70.5329 2.22921C70.0985 2.3022 69.526 2.08323 69.2496 1.71828C69.2364 1.69395 69.2233 1.66962 69.2101 1.64529C68.7363 1.68179 68.2558 1.73653 67.7688 1.80952ZM56.4954 8.99897C60.7797 10.2763 64.8468 11.4806 68.7165 12.6302C71.0331 13.6642 73.2969 14.6739 75.5082 15.6592C75.5477 15.5498 75.5872 15.4464 75.6266 15.349C73.4944 14.242 71.316 13.1168 69.0916 11.9733C65.8932 9.84443 62.6553 7.69124 59.378 5.51373C59.0357 5.81785 58.7067 6.13414 58.3908 6.46259C58.9041 6.69981 59.1805 7.15599 58.9831 7.52094C58.7857 7.94063 58.0749 8.10485 57.4234 7.88589C57.3707 7.87372 57.3181 7.85547 57.2654 7.83114C56.989 8.19609 56.7324 8.58536 56.4954 8.99897ZM55.7649 10.4405C56.377 10.5865 56.8113 11.0244 56.7521 11.4806C56.6929 11.9915 56.0611 12.3382 55.3108 12.2652C55.245 12.2531 55.1858 12.2409 55.1332 12.2288C54.9884 12.8005 54.8699 13.3905 54.7778 13.9987C59.5556 14.2907 63.9979 14.5462 68.1045 14.8016C70.6448 15.3126 73.0995 15.7991 75.4687 16.2614C75.4555 16.1398 75.4555 16.0181 75.4687 15.8965C73.1522 15.2396 70.7501 14.5644 68.2624 13.871C64.4717 12.3382 60.5296 10.7507 56.4362 9.10845C56.1795 9.52814 55.9624 9.96608 55.7649 10.4405Z" fill="url(#paint20_radial_461_21567)"/>
<path d="M112.941 49.2496C112.941 44.9604 109.184 40.7811 101.815 37.5917C87.0756 31.1029 63.3774 31.1029 48.7829 37.5917C41.4133 40.7811 37.8008 45.0704 37.9453 49.2496L49.5054 80.9239C49.5054 83.8934 52.1064 86.7529 57.1639 89.0625C67.279 93.5717 83.752 93.5717 93.8671 89.0625C98.9246 86.8629 101.381 83.8934 101.381 80.9239L112.941 49.2496Z" fill="url(#paint21_linear_461_21567)"/>
<defs>
<linearGradient id="paint0_linear_461_21567" x1="34.8557" y1="134.513" x2="115.665" y2="134.513" gradientUnits="userSpaceOnUse">
<stop offset="0.3375" stop-color="#008A00"/>
<stop offset="0.5932" stop-color="#A3F5A3"/>
</linearGradient>
<linearGradient id="paint1_linear_461_21567" x1="48.8635" y1="115.4" x2="101.658" y2="115.4" gradientUnits="userSpaceOnUse">
<stop stop-color="#103DB5"/>
<stop offset="0.6426" stop-color="#6BABFD"/>
</linearGradient>
<linearGradient id="paint2_linear_461_21567" x1="115.665" y1="115.4" x2="34.8557" y2="115.4" gradientUnits="userSpaceOnUse">
<stop stop-color="white"/>
<stop offset="1" stop-color="#C9D9F4"/>
</linearGradient>
<linearGradient id="paint3_linear_461_21567" x1="50.5051" y1="100.471" x2="50.5051" y2="112.242" gradientUnits="userSpaceOnUse">
<stop offset="0.2578" stop-color="white"/>
<stop offset="1" stop-color="white" stop-opacity="0"/>
</linearGradient>
<linearGradient id="paint4_linear_461_21567" x1="100.014" y1="95.6157" x2="100.014" y2="107.386" gradientUnits="userSpaceOnUse">
<stop offset="0.2578" stop-color="white"/>
<stop offset="1" stop-color="white" stop-opacity="0"/>
</linearGradient>
<linearGradient id="paint5_linear_461_21567" x1="65.3502" y1="105.053" x2="65.3502" y2="116.823" gradientUnits="userSpaceOnUse">
<stop offset="0.2578" stop-color="white"/>
<stop offset="1" stop-color="white" stop-opacity="0"/>
</linearGradient>
<linearGradient id="paint6_linear_461_21567" x1="65.3502" y1="85.9776" x2="65.3502" y2="97.7482" gradientUnits="userSpaceOnUse">
<stop offset="0.2578" stop-color="white"/>
<stop offset="1" stop-color="white" stop-opacity="0"/>
</linearGradient>
<linearGradient id="paint7_linear_461_21567" x1="47.1813" y1="142.423" x2="45.7287" y2="139.709" gradientUnits="userSpaceOnUse">
<stop stop-color="#103DB5"/>
<stop offset="0.6426" stop-color="#6BABFD"/>
</linearGradient>
<linearGradient id="paint8_linear_461_21567" x1="51.9996" y1="144.98" x2="50.547" y2="142.267" gradientUnits="userSpaceOnUse">
<stop stop-color="#103DB5"/>
<stop offset="0.6426" stop-color="#6BABFD"/>
</linearGradient>
<linearGradient id="paint9_linear_461_21567" x1="35.2537" y1="116.112" x2="116.063" y2="116.112" gradientUnits="userSpaceOnUse">
<stop offset="0.3375" stop-color="white"/>
<stop offset="0.5932" stop-color="#F6F2F2"/>
</linearGradient>
<linearGradient id="paint10_linear_461_21567" x1="49.2615" y1="96.9988" x2="102.056" y2="96.9988" gradientUnits="userSpaceOnUse">
<stop stop-color="#103DB5"/>
<stop offset="0.6426" stop-color="#6BABFD"/>
</linearGradient>
<linearGradient id="paint11_linear_461_21567" x1="116.063" y1="96.9993" x2="35.2536" y2="96.9993" gradientUnits="userSpaceOnUse">
<stop stop-color="white"/>
<stop offset="1" stop-color="#C9D9F4"/>
</linearGradient>
<linearGradient id="paint12_linear_461_21567" x1="47.5795" y1="124.021" x2="46.1269" y2="121.308" gradientUnits="userSpaceOnUse">
<stop stop-color="#103DB5"/>
<stop offset="0.6426" stop-color="#6BABFD"/>
</linearGradient>
<linearGradient id="paint13_linear_461_21567" x1="52.3978" y1="126.578" x2="50.9452" y2="123.864" gradientUnits="userSpaceOnUse">
<stop stop-color="#103DB5"/>
<stop offset="0.6426" stop-color="#6BABFD"/>
</linearGradient>
<linearGradient id="paint14_linear_461_21567" x1="35.2537" y1="97.2968" x2="116.063" y2="97.2968" gradientUnits="userSpaceOnUse">
<stop offset="0.3375" stop-color="#FF9634"/>
<stop offset="0.5932" stop-color="#FFC997"/>
</linearGradient>
<linearGradient id="paint15_linear_461_21567" x1="49.2615" y1="78.1834" x2="102.056" y2="78.1834" gradientUnits="userSpaceOnUse">
<stop stop-color="#DA6420"/>
<stop offset="1" stop-color="#FFE4D4"/>
</linearGradient>
<linearGradient id="paint16_linear_461_21567" x1="116.063" y1="78.1833" x2="35.2536" y2="78.1833" gradientUnits="userSpaceOnUse">
<stop stop-color="#DA6420"/>
<stop offset="1" stop-color="#FFE4D4"/>
</linearGradient>
<linearGradient id="paint17_linear_461_21567" x1="47.5795" y1="105.205" x2="46.1269" y2="102.492" gradientUnits="userSpaceOnUse">
<stop stop-color="#103DB5"/>
<stop offset="0.6426" stop-color="#6BABFD"/>
</linearGradient>
<linearGradient id="paint18_linear_461_21567" x1="52.3978" y1="107.763" x2="50.9452" y2="105.049" gradientUnits="userSpaceOnUse">
<stop stop-color="#103DB5"/>
<stop offset="0.6426" stop-color="#6BABFD"/>
</linearGradient>
<radialGradient id="paint19_radial_461_21567" cx="0" cy="0" r="1" gradientUnits="userSpaceOnUse" gradientTransform="translate(82.7433 8.80745) scale(41.154 38.0358)">
<stop offset="0.269" stop-color="white"/>
<stop offset="1" stop-color="#D8E2EB"/>
</radialGradient>
<radialGradient id="paint20_radial_461_21567" cx="0" cy="0" r="1" gradientUnits="userSpaceOnUse" gradientTransform="translate(84.8706 11.4981) scale(24.716 22.8433)">
<stop offset="0.038" stop-color="#008DFF"/>
<stop offset="1" stop-color="#003FB4"/>
</radialGradient>
<linearGradient id="paint21_linear_461_21567" x1="75.3369" y1="92.4336" x2="75.3369" y2="32.7329" gradientUnits="userSpaceOnUse">
<stop stop-color="#F1935C"/>
<stop offset="1" stop-color="#FFE4D4" stop-opacity="0"/>
</linearGradient>
</defs>
</svg>
