<svg width="20" height="20" viewBox="0 0 20 20" fill="none" xmlns="http://www.w3.org/2000/svg">
<rect width="20" height="20" rx="5" fill="#28565D"/>
<path opacity="0.5" d="M6.57129 9.35714V6.03571H13.4284V9.35715C13.4284 10.6703 13.4284 11.3269 12.9981 11.7349C12.5677 12.1429 11.875 12.1429 10.4897 12.1429H10.3213H9.67843H9.51006C8.12471 12.1429 7.43204 12.1429 7.00166 11.7349C6.57129 11.3269 6.57129 10.6703 6.57129 9.35714Z" fill="white"/>
<path d="M11.5137 8.72729C11.6392 8.60176 11.6392 8.39824 11.5137 8.27272C11.3882 8.14719 11.1847 8.14719 11.0591 8.27272L10.505 8.82681C10.475 8.85684 10.4507 8.88117 10.4293 8.90188C10.4079 8.88117 10.3835 8.85684 10.3535 8.82682L10.092 8.5653C10.0299 8.50312 9.96269 8.43589 9.89834 8.38679C9.82293 8.32926 9.71504 8.26733 9.57213 8.26733C9.42921 8.26733 9.32132 8.32926 9.24592 8.38679C9.18155 8.4359 9.11437 8.50314 9.05223 8.56532L8.4877 9.12986C8.36217 9.25539 8.36217 9.4589 8.4877 9.58443C8.61322 9.70995 8.81674 9.70995 8.94227 9.58443L9.49637 9.03033C9.52639 9.00031 9.55074 8.97598 9.57213 8.95527C9.59351 8.97598 9.61786 9.00031 9.64789 9.03033L9.90938 9.29183C9.97151 9.35401 10.0387 9.42125 10.1031 9.47036C10.1785 9.52789 10.2864 9.58981 10.4293 9.58981C10.5722 9.58981 10.6801 9.52789 10.7555 9.47036C10.8198 9.42125 10.887 9.35401 10.9492 9.29183L11.5137 8.72729Z" fill="#28565D"/>
<path d="M5.71498 5.39286C5.53746 5.39286 5.39355 5.53677 5.39355 5.71429C5.39355 5.89181 5.53746 6.03571 5.71498 6.03571H6.57213H13.4293H14.2864C14.4639 6.03571 14.6078 5.89181 14.6078 5.71429C14.6078 5.53677 14.4639 5.39286 14.2864 5.39286H5.71498Z" fill="white"/>
<path d="M9.6785 12.1429V13.6585L8.99904 13.9982C8.84026 14.0776 8.7759 14.2707 8.85529 14.4295C8.93468 14.5882 9.12776 14.6526 9.28654 14.5732L9.99993 14.2165L10.7133 14.5732C10.8721 14.6526 11.0652 14.5882 11.1446 14.4295C11.224 14.2707 11.1596 14.0776 11.0008 13.9982L10.3214 13.6585V12.1429H9.6785Z" fill="white"/>
</svg>
