<svg width="20" height="20" viewBox="0 0 20 20" fill="none" xmlns="http://www.w3.org/2000/svg">
<rect width="20" height="20" rx="5" fill="#28565D"/>
<path opacity="0.5" d="M8.57607 7.73482L8.85299 8.23101C9.10289 8.67879 9.00257 9.26621 8.60898 9.6598C8.60898 9.65981 8.60898 9.65981 8.60898 9.65981C8.60886 9.65993 8.13166 10.1373 8.99716 11.0028C9.86202 11.8677 10.3394 11.3918 10.3402 11.391C10.3402 11.391 10.3402 11.391 10.3402 11.391C10.7338 10.9974 11.3212 10.8971 11.769 11.147L12.2652 11.4239C12.9413 11.8013 13.0212 12.7495 12.4269 13.3439C12.0697 13.701 11.6322 13.9789 11.1486 13.9972C10.3345 14.0281 8.95184 13.822 7.56491 12.4351C6.17798 11.0482 5.97193 9.66554 6.0028 8.85139C6.02113 8.36776 6.29901 7.93027 6.65614 7.57314C7.25047 6.97881 8.19872 7.05866 8.57607 7.73482Z" fill="white"/>
<path d="M9.95131 6.26873C9.97956 6.09427 10.1445 5.97592 10.3189 6.00417C10.3297 6.00623 10.3645 6.01273 10.3827 6.01678C10.4191 6.02489 10.4699 6.03737 10.5332 6.05582C10.6598 6.0927 10.8367 6.15346 11.0491 6.2508C11.4741 6.44568 12.0398 6.7866 12.6268 7.37361C13.2139 7.96063 13.5548 8.52632 13.7497 8.9514C13.847 9.16372 13.9078 9.34062 13.9446 9.46725C13.9631 9.53057 13.9756 9.58135 13.9837 9.61776C13.9877 9.63597 13.9907 9.65058 13.9928 9.66138L13.9952 9.67469C14.0235 9.84915 13.9062 10.0209 13.7317 10.0491C13.5578 10.0773 13.3939 9.95953 13.3649 9.78589C13.364 9.78123 13.3616 9.7687 13.359 9.75688C13.3537 9.73325 13.3446 9.69578 13.3302 9.64622C13.3013 9.54709 13.2511 9.39975 13.1679 9.21812C13.0015 8.85532 12.7025 8.35433 12.1743 7.82617C11.6461 7.29801 11.1451 6.99891 10.7823 6.83258C10.6007 6.74931 10.4534 6.69916 10.3542 6.67029C10.3047 6.65586 10.2424 6.64156 10.2188 6.63629C10.0451 6.60736 9.92315 6.4427 9.95131 6.26873Z" fill="white"/>
<path fill-rule="evenodd" clip-rule="evenodd" d="M10.0478 7.74052C10.0964 7.57059 10.2735 7.47219 10.4435 7.52074L10.3555 7.82843C10.4435 7.52074 10.4435 7.52074 10.4435 7.52074L10.4441 7.52092L10.4447 7.52111L10.4461 7.52152L10.4494 7.52251L10.4579 7.52514C10.4643 7.5272 10.4724 7.52988 10.4819 7.53328C10.5011 7.54008 10.5264 7.54975 10.5575 7.56306C10.6197 7.5897 10.7046 7.63084 10.8089 7.69258C11.0178 7.81618 11.3029 8.02149 11.6378 8.35641C11.9727 8.69134 12.178 8.97644 12.3016 9.18528C12.3634 9.2896 12.4045 9.37454 12.4311 9.4367C12.4444 9.46776 12.4541 9.49309 12.4609 9.51225C12.4643 9.52183 12.467 9.52987 12.469 9.5363L12.4717 9.54474L12.4727 9.54805L12.4731 9.54947L12.4733 9.55012C12.4733 9.55012 12.4734 9.55074 12.1658 9.63865L12.4734 9.55074C12.522 9.72067 12.4236 9.89779 12.2537 9.94634C12.0852 9.99448 11.9096 9.89816 11.8593 9.73088L11.8578 9.72628C11.8555 9.71987 11.8508 9.70724 11.8429 9.68881C11.8271 9.65197 11.7985 9.59171 11.7508 9.51125C11.6557 9.3505 11.4839 9.10762 11.1852 8.80897C10.8866 8.51032 10.6437 8.3385 10.4829 8.24336C10.4025 8.19574 10.3422 8.16711 10.3054 8.15132C10.2869 8.14342 10.2743 8.13871 10.2679 8.13644L10.2633 8.13486C10.096 8.08457 9.99971 7.90901 10.0478 7.74052Z" fill="white"/>
</svg>
