<svg width="1920" height="398" viewBox="0 0 1920 398" fill="none" xmlns="http://www.w3.org/2000/svg">
<mask id="mask0_500_1816" style="mask-type:alpha" maskUnits="userSpaceOnUse" x="0" y="0" width="1920" height="398">
<path d="M1920 0H0V398H1920V0Z" fill="url(#paint0_linear_500_1816)"/>
</mask>
<g mask="url(#mask0_500_1816)">
<path d="M942.758 -646.75L-727.806 317.75" stroke="#F1935C" stroke-opacity="0.7"/>
<path d="M1001.64 -612.75L-668.918 351.75" stroke="#F1935C" stroke-opacity="0.7"/>
<path d="M1060.54 -578.75L-610.027 385.75" stroke="#F1935C" stroke-opacity="0.7"/>
<path d="M1119.43 -544.75L-551.138 419.75" stroke="#F1935C" stroke-opacity="0.7"/>
<path d="M1178.31 -510.75L-492.252 453.75" stroke="#F1935C" stroke-opacity="0.7"/>
<path d="M1237.21 -476.75L-433.357 487.75" stroke="#F1935C" stroke-opacity="0.7"/>
<path d="M1296.09 -442.75L-374.468 521.75" stroke="#F1935C" stroke-opacity="0.7"/>
<path d="M1354.98 -408.75L-315.58 555.75" stroke="#F1935C" stroke-opacity="0.7"/>
<path d="M1413.88 -374.75L-256.689 589.75" stroke="#F1935C" stroke-opacity="0.7"/>
<path d="M1472.77 -340.75L-197.799 623.75" stroke="#F1935C" stroke-opacity="0.7"/>
<path d="M1531.66 -306.75L-138.906 657.75" stroke="#F1935C" stroke-opacity="0.7"/>
<path d="M1590.55 -272.75L-80.0153 691.75" stroke="#F1935C" stroke-opacity="0.7"/>
<path d="M1649.43 -238.75L-21.1305 725.75" stroke="#F1935C" stroke-opacity="0.7"/>
<path d="M1708.33 -204.75L37.764 759.75" stroke="#F1935C" stroke-opacity="0.7"/>
<path d="M1767.22 -170.75L96.6512 793.75" stroke="#F1935C" stroke-opacity="0.7"/>
<path d="M1826.11 -136.75L155.543 827.75" stroke="#F1935C" stroke-opacity="0.7"/>
<path d="M1884.99 -102.75L214.428 861.75" stroke="#F1935C" stroke-opacity="0.7"/>
<path d="M1943.89 -68.75L273.323 895.75" stroke="#F1935C" stroke-opacity="0.7"/>
<path d="M2002.77 -34.748L332.209 929.752" stroke="#F1935C" stroke-opacity="0.7"/>
<path d="M2061.66 -0.748047L391.102 963.752" stroke="#F1935C" stroke-opacity="0.7"/>
<path d="M2120.55 33.252L449.993 997.752" stroke="#F1935C" stroke-opacity="0.7"/>
<path d="M2179.45 67.252L508.881 1031.75" stroke="#F1935C" stroke-opacity="0.7"/>
<path d="M2238.34 101.252L567.772 1065.75" stroke="#F1935C" stroke-opacity="0.7"/>
<path d="M2297.23 135.252L626.662 1099.75" stroke="#F1935C" stroke-opacity="0.7"/>
<path d="M2356.12 169.252L685.555 1133.75" stroke="#F1935C" stroke-opacity="0.7"/>
<path d="M2415 203.252L744.44 1167.75" stroke="#F1935C" stroke-opacity="0.7"/>
<path d="M2473.89 237.252L803.33 1201.75" stroke="#F1935C" stroke-opacity="0.7"/>
<path d="M2532.79 271.252L862.221 1235.75" stroke="#F1935C" stroke-opacity="0.7"/>
<path d="M2591.68 305.252L921.114 1269.75" stroke="#F1935C" stroke-opacity="0.7"/>
<path d="M2650.55 339.252L979.993 1303.75" stroke="#F1935C" stroke-opacity="0.7"/>
<path d="M-786.258 351.998L946.658 1352.5" stroke="#F1935C" stroke-opacity="0.7"/>
<path d="M-726.5 317.498L1006.42 1318" stroke="#F1935C" stroke-opacity="0.7"/>
<path d="M-666.746 282.998L1066.17 1283.5" stroke="#F1935C" stroke-opacity="0.7"/>
<path d="M-606.992 248.498L1125.92 1249" stroke="#F1935C" stroke-opacity="0.7"/>
<path d="M-547.234 213.998L1185.68 1214.5" stroke="#F1935C" stroke-opacity="0.7"/>
<path d="M-487.48 179.498L1245.44 1180" stroke="#F1935C" stroke-opacity="0.7"/>
<path d="M-427.727 144.998L1305.19 1145.5" stroke="#F1935C" stroke-opacity="0.7"/>
<path d="M-367.969 110.498L1364.95 1111" stroke="#F1935C" stroke-opacity="0.7"/>
<path d="M-308.211 75.998L1424.71 1076.5" stroke="#F1935C" stroke-opacity="0.7"/>
<path d="M-248.457 41.498L1484.46 1042" stroke="#F1935C" stroke-opacity="0.7"/>
<path d="M-188.703 6.99805L1544.21 1007.5" stroke="#F1935C" stroke-opacity="0.7"/>
<path d="M-128.945 -27.502L1603.97 972.998" stroke="#F1935C" stroke-opacity="0.7"/>
<path d="M-69.1875 -62.002L1663.73 938.498" stroke="#F1935C" stroke-opacity="0.7"/>
<path d="M-9.43359 -96.502L1723.48 903.998" stroke="#F1935C" stroke-opacity="0.7"/>
<path d="M50.3203 -131.002L1783.24 869.498" stroke="#F1935C" stroke-opacity="0.7"/>
<path d="M110.078 -165.502L1842.99 834.998" stroke="#F1935C" stroke-opacity="0.7"/>
<path d="M169.836 -200.002L1902.75 800.498" stroke="#F1935C" stroke-opacity="0.7"/>
<path d="M229.59 -234.502L1962.51 765.998" stroke="#F1935C" stroke-opacity="0.7"/>
<path d="M289.344 -269.002L2022.26 731.498" stroke="#F1935C" stroke-opacity="0.7"/>
<path d="M349.101 -303.502L2082.02 696.998" stroke="#F1935C" stroke-opacity="0.7"/>
<path d="M408.855 -338.002L2141.77 662.498" stroke="#F1935C" stroke-opacity="0.7"/>
<path d="M468.613 -372.502L2201.53 627.998" stroke="#F1935C" stroke-opacity="0.7"/>
<path d="M528.367 -407.002L2261.28 593.498" stroke="#F1935C" stroke-opacity="0.7"/>
<path d="M588.125 -441.502L2321.04 558.998" stroke="#F1935C" stroke-opacity="0.7"/>
<path d="M647.879 -476.002L2380.79 524.498" stroke="#F1935C" stroke-opacity="0.7"/>
<path d="M707.633 -510.502L2440.55 489.998" stroke="#F1935C" stroke-opacity="0.7"/>
<path d="M767.391 -545.002L2500.31 455.498" stroke="#F1935C" stroke-opacity="0.7"/>
<path d="M827.145 -579.502L2560.06 420.998" stroke="#F1935C" stroke-opacity="0.7"/>
<path d="M886.902 -614.002L2619.82 386.498" stroke="#F1935C" stroke-opacity="0.7"/>
<path d="M946.656 -648.502L2679.57 351.998" stroke="#F1935C" stroke-opacity="0.7"/>
</g>
<defs>
<linearGradient id="paint0_linear_500_1816" x1="960" y1="0" x2="960" y2="398" gradientUnits="userSpaceOnUse">
<stop stop-color="#C4C4C4" stop-opacity="0"/>
<stop offset="0.526042" stop-color="#C4C4C4"/>
<stop offset="1" stop-color="#C4C4C4" stop-opacity="0"/>
</linearGradient>
</defs>
</svg>
