<svg width="20" height="20" viewBox="0 0 20 20" fill="none" xmlns="http://www.w3.org/2000/svg">
<rect width="20" height="20" rx="5" fill="#28565D"/>
<path opacity="0.2" d="M6.73103 8.834C6.625 8.93364 6.625 9.09401 6.625 9.41474V11.4559C6.625 11.7766 6.625 11.937 6.73103 12.0366C6.83705 12.1363 7.0077 12.1363 7.34899 12.1363C7.69029 12.1363 7.86094 12.1363 7.96696 12.0366C8.07299 11.937 8.07299 11.7766 8.07299 11.4559V9.41474C8.07299 9.09401 8.07299 8.93364 7.96696 8.834C7.86094 8.73436 7.69029 8.73436 7.34899 8.73436C7.0077 8.73436 6.83705 8.73436 6.73103 8.834Z" fill="white"/>
<path d="M11.7984 6.45256C11.6924 6.5522 11.6924 6.71257 11.6924 7.0333V11.4558C11.6924 11.7765 11.6924 11.9369 11.7984 12.0365C11.9044 12.1362 12.0751 12.1362 12.4164 12.1362C12.7577 12.1362 12.9283 12.1362 13.0343 12.0365C13.1404 11.9369 13.1404 11.7765 13.1404 11.4558V7.0333C13.1404 6.71257 13.1404 6.5522 13.0343 6.45256C12.9283 6.35292 12.7577 6.35292 12.4164 6.35292C12.0751 6.35292 11.9044 6.35292 11.7984 6.45256Z" fill="white"/>
<path opacity="0.6" d="M9.15918 8.05387C9.15918 7.73314 9.15918 7.57277 9.26521 7.47313C9.37123 7.37349 9.54188 7.37349 9.88317 7.37349C10.2245 7.37349 10.3951 7.37349 10.5011 7.47313C10.6072 7.57277 10.6072 7.73314 10.6072 8.05387V11.4558C10.6072 11.7765 10.6072 11.9369 10.5011 12.0365C10.3951 12.1362 10.2245 12.1362 9.88317 12.1362C9.54188 12.1362 9.37123 12.1362 9.26521 12.0365C9.15918 11.9369 9.15918 11.7765 9.15918 11.4558V8.05387Z" fill="white"/>
<path d="M6.62501 12.9014C6.47507 12.9014 6.35352 13.0156 6.35352 13.1565C6.35352 13.2975 6.47507 13.4117 6.62501 13.4117H13.141C13.2909 13.4117 13.4125 13.2975 13.4125 13.1565C13.4125 13.0156 13.2909 12.9014 13.141 12.9014H6.62501Z" fill="white"/>
</svg>
