<svg width="106" height="130" viewBox="0 0 106 130" fill="none" xmlns="http://www.w3.org/2000/svg">
<path d="M106.002 97.8113H0.046875V101.311C0.046875 103.644 1.74486 105.978 5.02765 107.781L41.1383 127.295C47.8171 130.901 58.571 130.901 65.1366 127.295L101.021 107.781C104.304 105.978 106.002 103.644 106.002 101.311V97.8113Z" fill="url(#paint0_linear_214_3988)"/>
<path d="M100.903 91.2358C107.582 94.8417 107.582 100.675 101.016 104.281L65.1322 123.795C58.5667 127.401 47.8127 127.401 41.134 123.795L5.02331 104.281C-1.65546 100.675 -1.65545 94.8417 4.91012 91.2358L40.7943 71.7215C47.3599 68.1156 58.1139 68.1156 64.7926 71.7215L100.903 91.2358Z" fill="#B2D7FF"/>
<path d="M91.7325 92.5085C97.1661 95.372 97.1661 100.145 91.8458 103.008L62.7535 118.81C57.4331 121.674 48.7168 121.674 43.2832 118.81L14.0777 103.008C8.64415 100.145 8.64415 95.372 13.9645 92.5085L43.17 76.7062C48.4904 73.8427 57.2067 73.8427 62.6403 76.7062L91.7325 92.5085Z" stroke="#F1935C" stroke-miterlimit="10"/>
<path d="M88.3356 69.9194H17.5859V95.797C17.5859 97.3879 18.7179 98.9787 20.9819 100.145L45.0934 113.19C49.5082 115.629 56.753 115.629 61.1677 113.19L85.166 100.145C87.3168 98.9787 88.4488 97.3879 88.4488 95.797V69.9194H88.3356Z" fill="url(#paint1_linear_214_3988)"/>
<path d="M84.9366 65.5711C89.3514 68.0104 89.3514 71.8284 85.0499 74.2677L61.0516 87.3125C56.6368 89.7518 49.5052 89.7518 44.9772 87.3125L20.8658 74.2677C16.451 71.8284 16.451 68.0104 20.8658 65.5711L44.864 52.5262C49.2788 50.087 56.4104 50.087 60.8252 52.5262L84.9366 65.5711Z" fill="#BCD0F1"/>
<path d="M52.9051 50.8296V51.3599C55.8483 51.3599 58.5651 51.9962 60.6027 53.0568L84.7142 66.1016C86.6386 67.1622 87.7706 68.5409 87.7706 70.0257C87.7706 71.5105 86.7518 72.8892 84.7142 73.8437L60.7159 86.8886C58.6783 88.0552 55.9615 88.5854 53.0183 88.5854C50.0751 88.5854 47.3583 87.9491 45.3207 86.8886L21.2093 73.8437C19.2849 72.7831 18.1529 71.4044 18.1529 69.9196C18.1529 68.4348 19.1717 67.0561 21.2093 65.9956L45.2076 52.9507C47.2452 51.7841 49.9619 51.2538 52.9051 51.2538V50.8296ZM52.9051 50.8296C49.9619 50.8296 47.1319 51.4659 44.868 52.6325L20.8697 65.6774C16.4549 68.1167 16.4549 71.9347 20.8697 74.374L45.0944 87.3128C47.3584 88.4794 50.1883 89.1157 53.1315 89.1157C56.0747 89.1157 58.9047 88.4794 61.1687 87.3128L85.167 74.2679C89.5818 71.8286 89.5817 68.0106 85.0538 65.5713L60.9423 52.5265C58.6783 51.3599 55.7351 50.8296 52.9051 50.8296Z" fill="url(#paint2_linear_214_3988)"/>
<path d="M41.5798 96.2204C42.1458 96.5385 42.4854 97.1749 42.4854 97.8112V102.69C42.4854 103.22 42.0326 103.538 41.4666 103.22L23.2415 93.3568C22.6755 93.0387 22.3359 92.4023 22.3359 91.766V86.8874C22.3359 86.3572 22.7887 86.039 23.3547 86.3572L41.5798 96.2204Z" fill="#F1935C"/>
<path d="M42.4855 102.689L24.2604 92.8261C23.6944 92.5079 23.3548 91.8716 23.3548 91.2352V86.3567C22.902 86.1446 22.4492 86.3567 22.4492 86.887V91.7655C22.4492 92.2958 22.902 93.0382 23.3548 93.3564L41.5799 103.22C42.1459 103.538 42.5987 103.326 42.4855 102.689Z" fill="#1964BA"/>
<path d="M23.917 84.4482L24.7094 84.0239C24.8226 83.9179 24.9358 83.7058 24.9358 83.4937C24.9358 82.9634 24.483 82.3271 24.0302 82.0089C23.8038 81.9028 23.5774 81.9028 23.351 81.9028L22.5586 82.3271L23.917 84.4482Z" fill="url(#paint3_linear_214_3988)"/>
<path d="M23.957 84.4036C24.2824 84.2287 24.2688 83.6339 23.9267 83.075C23.5845 82.5162 23.0434 82.2049 22.718 82.3797C22.3927 82.5545 22.4063 83.1493 22.7484 83.7082C23.0905 84.2671 23.6316 84.5784 23.957 84.4036Z" fill="#2185F8"/>
<path d="M23.7283 84.0362C23.9453 83.9196 23.9447 83.5367 23.727 83.181C23.5092 82.8253 23.1568 82.6315 22.9398 82.7481C22.7228 82.8647 22.7234 83.2476 22.9411 83.6033C23.1589 83.959 23.5113 84.1528 23.7283 84.0362Z" fill="#F1935C"/>
<path d="M27.6592 86.3571L28.4516 85.9329C28.5648 85.8268 28.678 85.6147 28.678 85.4026C28.678 84.8723 28.2252 84.236 27.7724 83.9178C27.546 83.8118 27.3196 83.8118 27.0932 83.8118L26.3008 84.236L27.6592 86.3571Z" fill="url(#paint4_linear_214_3988)"/>
<path d="M27.707 86.4048C28.0324 86.2299 28.0188 85.6352 27.6766 85.0763C27.3345 84.5174 26.7934 84.2061 26.468 84.3809C26.1427 84.5558 26.1563 85.1506 26.4984 85.7094C26.8405 86.2683 27.3816 86.5796 27.707 86.4048Z" fill="#2185F8"/>
<path d="M27.4745 86.0371C27.6915 85.9205 27.6909 85.5376 27.4731 85.182C27.2554 84.8263 26.9029 84.6324 26.6859 84.7491C26.4689 84.8657 26.4695 85.2486 26.6872 85.6042C26.905 85.9599 27.2575 86.1537 27.4745 86.0371Z" fill="#FFE200"/>
<path d="M42.6023 97.812C42.6023 97.2818 42.1495 96.5394 41.6967 96.2212L23.4716 86.358C23.2452 86.252 23.0188 86.252 22.9056 86.252L16.906 88.0549C16.6796 88.161 16.5664 88.3731 16.5664 88.6912V94.3122C16.5664 94.9485 17.0192 95.797 17.6984 96.1151L37.8479 107.463C38.3007 107.675 38.7535 107.463 38.8667 107.251C39.7723 106.19 42.4891 103.115 42.4891 103.115C42.4891 103.115 42.7155 103.009 42.7155 102.585L42.6023 97.812Z" fill="url(#paint5_linear_214_3988)"/>
<path d="M27.5469 61.9653L67.6195 83.8128L67.7327 109.584L79.3922 116.16" stroke="#28565D" stroke-width="0.25" stroke-miterlimit="10" stroke-linejoin="round"/>
<path d="M30.1523 60.5857L70.1118 82.4332L70.225 108.205L81.8845 114.78" stroke="#28565D" stroke-width="0.25" stroke-miterlimit="10" stroke-linejoin="round"/>
<path d="M32.6367 59.207L72.7093 81.0545L72.8225 106.826L84.3689 113.402" stroke="#28565D" stroke-width="0.25" stroke-miterlimit="10" stroke-linejoin="round"/>
<path d="M35.1328 57.8286L75.2055 79.6761L75.3186 105.448L86.9782 112.023" stroke="#28565D" stroke-width="0.25" stroke-miterlimit="10" stroke-linejoin="round"/>
<path d="M37.7305 56.4497L77.6899 78.2972L77.9163 104.175L89.4626 110.644" stroke="#28565D" stroke-width="0.25" stroke-miterlimit="10" stroke-linejoin="round"/>
<path d="M40.2227 55.0713L80.2953 76.9188L80.4085 102.796L91.9548 109.266" stroke="#28565D" stroke-width="0.25" stroke-miterlimit="10" stroke-linejoin="round"/>
<path d="M5.69922 11.0716C5.69922 11.92 6.03881 12.5564 6.49161 12.7685L7.73681 13.4048C7.73681 13.4048 20.1888 4.70823 20.1888 3.22345C20.1888 3.22345 20.1887 2.69317 20.0755 2.375C20.3019 2.26894 20.6415 2.16289 20.6415 2.16289C20.4151 2.05683 19.7359 1.63261 19.3963 1.52655C18.9435 1.4205 18.1512 1.63261 17.9248 1.73867C17.9248 1.4205 17.8116 1.10233 17.6984 0.890219L18.2643 0.784163L17.1324 0.147829C16.6796 -0.0642826 16.1136 -0.0642832 15.5476 0.253884C15.208 0.465996 14.9816 0.678108 14.7552 0.890219C14.7552 0.890219 14.1892 0.572052 13.8496 0.35994C13.51 0.147829 13.1704 0.147829 12.8308 0.147829C12.7176 0.147829 12.6044 0.147829 12.4912 0.147829C12.378 0.147829 12.378 0.147829 12.2648 0.147829C11.9252 0.253885 11.5856 0.35994 11.246 0.572052C9.88759 1.31444 8.64241 2.79922 7.96321 4.60217C7.51041 5.66273 7.1708 7.04145 7.284 7.78384C5.92561 9.05651 5.69922 9.90496 5.69922 11.0716Z" fill="url(#paint6_linear_214_3988)"/>
<path d="M7.05859 11.8136C7.05859 13.2983 8.07739 14.0407 9.32258 13.4044C9.32258 13.4044 9.43579 13.4044 9.43579 13.2983L19.2841 7.88949C19.2841 7.88949 19.3973 7.88949 19.3973 7.78343C20.6425 7.1471 21.5481 5.34415 21.5481 3.85937C21.5481 2.37459 20.5293 1.6322 19.2841 2.26853C19.2841 2.26853 19.2842 2.26853 19.171 2.26853C19.0578 0.677694 18.0389 0.0413591 16.6805 0.783749C16.341 0.995861 16.0014 1.31403 15.6618 1.6322C14.9826 0.677694 13.7374 0.465583 12.379 1.20797C10.2282 2.37459 8.41699 5.55626 8.53019 8.31371C7.62459 9.26821 7.05859 10.6469 7.05859 11.8136Z" fill="#F3F8FE"/>
<path d="M19.2839 7.78343C20.5291 7.1471 21.4347 5.34415 21.4347 3.85937C21.4347 2.37459 20.4159 1.6322 19.1707 2.26853C19.1707 2.26853 19.1707 2.26853 19.0575 2.26853C18.9443 0.677694 17.9255 0.0413591 16.5671 0.783749C16.2275 0.995861 15.8879 1.31403 15.5483 1.6322C14.8691 0.677694 13.6239 0.465583 12.2656 1.20797L12.1523 1.31403L17.3595 8.84399L19.0575 7.88949C19.1707 7.88949 19.2839 7.88949 19.2839 7.78343Z" fill="url(#paint7_linear_214_3988)"/>
<path d="M98.8685 15.2072C98.8685 15.7375 98.6421 16.0557 98.4157 16.1617L97.7365 16.586C97.7365 16.586 90.3785 11.4953 90.3785 10.5408C90.3785 10.5408 90.3785 10.2226 90.4917 10.0105C90.3785 10.0105 90.1521 9.90444 90.1521 9.90444C90.2653 9.79839 90.7181 9.58627 90.8313 9.48022C91.0577 9.37416 91.6237 9.48022 91.7369 9.58628C91.7369 9.37416 91.7369 9.26811 91.8501 9.056L91.5105 8.94994L92.1897 8.52572C92.4161 8.41966 92.7557 8.41966 93.2085 8.63177C93.4349 8.73783 93.5481 8.84388 93.6613 9.056C93.6613 9.056 94.0009 8.84389 94.2273 8.73783C94.4537 8.63177 94.6801 8.63177 94.9065 8.63177C95.0197 8.63177 95.0197 8.63177 95.1329 8.63177H95.2461C95.4725 8.63177 95.6989 8.73783 95.8121 8.84388C96.6045 9.26811 97.3969 10.2226 97.7365 11.1771C97.9629 11.8134 98.1893 12.5558 98.0761 13.0861C98.6421 14.0406 98.8685 14.4648 98.8685 15.2072Z" fill="url(#paint8_linear_214_3988)"/>
<path d="M98.0758 15.6304C98.0758 16.4789 97.5098 16.9031 96.7175 16.5849C96.7175 16.5849 96.7174 16.5849 96.6042 16.5849L90.8311 13.4033C90.8311 13.4033 90.8311 13.4033 90.7179 13.4033C90.0387 12.979 89.4727 11.9185 89.4727 11.07C89.4727 10.2216 90.0387 9.79736 90.8311 10.1155C90.8311 9.16102 91.5102 8.7368 92.3026 9.16102C92.529 9.26708 92.7554 9.47919 92.8686 9.58525C93.3214 9.05497 94.0006 8.84285 94.793 9.37313C96.0382 10.1155 97.1702 12.0245 97.057 13.6154C97.7362 14.1456 98.0758 14.888 98.0758 15.6304Z" fill="#F3F8FE"/>
<path d="M90.8311 13.2983C90.1519 12.8741 89.5859 11.8135 89.5859 10.965C89.5859 10.1166 90.1519 9.69238 90.9443 10.0105C90.9443 9.05604 91.6235 8.63182 92.4159 9.05604C92.6423 9.1621 92.8687 9.37421 92.9819 9.48027C93.4347 8.94999 94.1139 8.73788 94.9063 9.26816C94.9063 9.26816 94.9063 9.26815 95.0195 9.37421L91.9631 13.8286L90.8311 13.2983Z" fill="url(#paint9_linear_214_3988)"/>
<path d="M82.1648 39.8877H22.3557V69.4952C22.3557 70.8289 23.3127 72.1626 25.2265 73.1406L45.6095 84.0767C49.3416 86.1217 55.466 86.1217 59.1981 84.0767L79.4854 73.1406C81.3036 72.1626 82.2605 70.8289 82.2605 69.4952V39.8877H82.1648Z" fill="url(#paint10_linear_214_3988)"/>
<path d="M79.2944 36.3302C83.0265 38.3752 83.0265 41.576 79.3901 43.6209L59.1029 54.557C55.3708 56.602 49.342 56.602 45.5143 54.557L25.1313 43.6209C21.3993 41.576 21.3993 38.3752 25.1313 36.3302L45.4186 25.3941C49.1507 23.3491 55.1794 23.3491 58.9115 25.3941L79.2944 36.3302Z" fill="#D0E0FF"/>
<path d="M52.2129 23.8833V24.3279C54.701 24.3279 56.9976 24.8613 58.7201 25.7504L79.1031 36.6865C80.7299 37.5757 81.6868 38.7315 81.6868 39.9763C81.6868 41.221 80.8256 42.3769 79.1031 43.1771L58.8158 54.1132C57.0933 55.0912 54.7966 55.5358 52.3086 55.5358C49.8205 55.5358 47.5238 55.0023 45.8013 54.1132L25.4184 43.1771C23.7916 42.288 22.8346 41.1321 22.8346 39.8874C22.8346 38.6426 23.6959 37.4868 25.4184 36.5976L45.7057 25.6615C47.4282 24.6835 49.7248 24.2389 52.2129 24.2389V23.8833ZM52.2129 23.8833C49.7248 23.8833 47.3325 24.4168 45.4186 25.3948L25.1313 36.3309C21.3993 38.3759 21.3993 41.5767 25.1313 43.6216L45.5143 54.5578C47.4282 55.5358 49.8205 56.0693 52.3086 56.0693C54.7966 56.0693 57.189 55.5358 59.1029 54.5578L79.3901 43.6216C83.1222 41.5767 83.1222 38.3759 79.2944 36.3309L58.9115 25.3948C57.0933 24.4168 54.6053 23.8833 52.2129 23.8833Z" fill="url(#paint11_linear_214_3988)"/>
<path d="M52.2115 27.8844C54.1254 27.8844 55.8479 28.24 57.1876 29.0402L72.5944 37.309C73.9342 38.0203 74.604 38.9094 74.604 39.8874C74.604 40.8654 73.9342 41.7545 72.5944 42.4658L57.2833 50.7346C55.9436 51.4459 54.2211 51.8905 52.3072 51.8905C50.3933 51.8905 48.6708 51.5348 47.3311 50.7346L31.9242 42.4658C30.5845 41.7545 29.9147 40.8654 29.9147 39.8874C29.9147 38.9094 30.5845 38.0203 31.9242 37.309L47.2354 29.0402C48.5751 28.3289 50.2976 27.8844 52.2115 27.8844ZM52.2115 27.7065C50.3933 27.7065 48.4794 28.0622 47.1397 28.8624L31.8286 37.1312C28.9577 38.6426 29.0534 41.1322 31.8286 42.6437L47.2354 50.9124C48.6708 51.7126 50.489 52.0683 52.4029 52.0683C54.2211 52.0683 56.135 51.7126 57.5704 50.9124L72.8815 42.6437C75.6567 41.1322 75.6567 38.6426 72.8815 37.1312L57.4747 28.8624C55.9436 28.1511 54.0297 27.7065 52.2115 27.7065Z" fill="#F1935C"/>
<path d="M44.2775 58.6467C45.713 59.4469 46.8613 61.3141 46.8613 62.8256L46.7656 79.2742C46.7656 80.7857 45.6173 81.408 44.1818 80.6968L27.2439 71.6278C25.8085 70.8276 24.6602 68.9604 24.6602 67.449L24.7558 51.0003C24.7558 49.4888 25.9042 48.8665 27.3396 49.5777L44.2775 58.6467Z" fill="#F3F8FE"/>
<mask id="mask0_214_3988" style="mask-type:luminance" maskUnits="userSpaceOnUse" x="24" y="49" width="23" height="32">
<path d="M44.2854 58.6457C45.7208 59.446 46.8691 61.3131 46.8691 62.8246L46.7734 79.2732C46.7734 80.7847 45.6251 81.4071 44.1897 80.6958L27.2517 71.6268C25.8163 70.8266 24.668 68.9595 24.668 67.448L24.7636 50.9994C24.7636 49.4879 25.912 48.8655 27.3474 49.5768L44.2854 58.6457Z" fill="white"/>
</mask>
<g mask="url(#mask0_214_3988)">
<path d="M44.2854 58.6457C45.7208 59.446 46.8691 61.3131 46.8691 62.8246L46.7734 79.2732C46.7734 80.7847 45.6251 81.4071 44.1897 80.6958L27.2517 71.6268C25.8163 70.8266 24.668 68.9595 24.668 67.448L24.7636 50.9994C24.7636 49.4879 25.912 48.8655 27.3474 49.5768L44.2854 58.6457Z" fill="#F3F8FE"/>
</g>
<path d="M46.7598 79.2746L46.8555 62.8259C46.8555 61.4033 45.8985 59.714 44.5588 58.9138L25.1328 69.4054C25.6113 70.2945 26.3768 71.1836 27.2381 71.6282L44.176 80.6971C45.6114 81.4084 46.7598 80.7861 46.7598 79.2746Z" fill="url(#paint12_linear_214_3988)"/>
<path d="M32.7964 52.5122L28.6816 54.735C28.2988 54.9128 28.0117 55.4463 28.0117 55.8019V64.5153C28.0117 64.8709 28.2988 65.0487 28.6816 64.8709L42.2702 57.5802L32.7964 52.5122Z" fill="#1964BA"/>
<path d="M33.273 52.7783L29.1581 55.0011C28.7753 55.1789 28.4883 55.7124 28.4883 56.068V64.7814C28.4883 65.137 28.7753 65.3148 29.1581 65.137L42.7468 57.8463L33.273 52.7783Z" fill="#C9D9F4"/>
<path d="M31.4552 54.8259C31.6467 54.737 31.7425 54.8259 31.7425 55.0037C31.7425 55.1815 31.6467 55.3594 31.4552 55.4483C31.2637 55.5372 31.168 55.4483 31.168 55.2705C31.2637 55.1815 31.3595 54.9148 31.4552 54.8259Z" fill="#34656D"/>
<path opacity="0.8" d="M29.9258 57.8469C29.8301 57.9358 29.7344 58.0247 29.7344 58.1136V63.6261C29.7344 63.7151 29.8301 63.804 29.9258 63.7151L37.3899 59.714C37.4856 59.6251 37.5813 59.5362 37.5813 59.4473V55.1796L36.2416 54.4683L29.9258 57.8469Z" fill="#34656D"/>
<path d="M29.6466 55.8025C29.8381 55.7135 29.9339 55.8025 29.9339 55.9803C29.9339 56.1581 29.8381 56.3359 29.6466 56.4248C29.4551 56.5138 29.3594 56.4248 29.3594 56.247C29.4551 56.1581 29.5509 55.8914 29.6466 55.8025Z" fill="#34656D"/>
<path d="M30.5958 55.3571C30.7873 55.2682 30.8831 55.3572 30.8831 55.535C30.8831 55.7128 30.7873 55.8906 30.5958 55.9795C30.4043 56.0684 30.3086 55.9795 30.3086 55.8017C30.3086 55.6239 30.4043 55.4461 30.5958 55.3571Z" fill="#34656D"/>
<path d="M33.947 57.9893L30.8848 59.5897H30.7891C30.7891 59.5897 30.7891 59.5008 30.8848 59.5008L33.947 57.9004H34.0427L33.947 57.9893Z" fill="#6491FB"/>
<path d="M35.7635 57.0113L34.4238 57.7226H34.3281C34.3281 57.7226 34.3281 57.6336 34.4238 57.6336L35.7635 56.9224H35.8592C35.7635 57.0113 35.7635 57.0113 35.7635 57.0113Z" fill="#FF9999"/>
<path d="M33.9452 58.3941L32.3184 59.2832H32.2227C32.2227 59.2832 32.2227 59.1943 32.3184 59.1943L33.9452 58.3052H34.0409C34.0409 58.3941 33.9452 58.3941 33.9452 58.3941Z" fill="#FF9999"/>
<path d="M31.9374 59.4614L30.8848 60.0838H30.7891C30.7891 60.0838 30.7891 59.9949 30.8848 59.9949L31.9374 59.3726H32.0331C32.0331 59.4615 32.0331 59.4614 31.9374 59.4614Z" fill="#FF9999"/>
<path d="M35.7635 57.5054L34.4238 58.2167H34.3281C34.3281 58.2167 34.3281 58.1278 34.4238 58.1278L35.7635 57.4165H35.8592C35.7635 57.4165 35.7635 57.4165 35.7635 57.5054Z" fill="#A69CFB"/>
<path d="M32.8885 57.7218L30.9746 58.7887H30.8789C30.8789 58.7887 30.8789 58.6998 30.9746 58.6998L32.8885 57.6328H32.9842C32.8885 57.6328 32.8885 57.7218 32.8885 57.7218Z" fill="#6491FB"/>
<path d="M34.039 57.0982L33.1777 57.5428H33.082C33.082 57.5428 33.082 57.4538 33.1777 57.4538L34.039 57.0093H34.1347C34.039 57.0093 34.039 57.0982 34.039 57.0982Z" fill="#A69CFB"/>
<path d="M36.4256 55.854L34.416 56.921H34.3203C34.3203 56.921 34.3203 56.8321 34.416 56.8321L36.4256 55.7651H36.5213C36.4256 55.7651 36.4256 55.7651 36.4256 55.854Z" fill="#94F2B5"/>
<path d="M34.418 59.8758L36.3319 58.8088L36.4276 58.7199C36.4276 58.7199 36.4276 58.631 36.3319 58.7199L34.418 59.7868C34.418 59.7868 34.418 59.7869 34.418 59.8758Z" fill="#6491FB"/>
<path d="M33.2691 60.4976L34.1303 60.053L34.226 59.9641C34.226 59.9641 34.226 59.8752 34.1303 59.9641L33.2691 60.4086C33.2691 60.4086 33.1734 60.4087 33.2691 60.4976Z" fill="#94F2B5"/>
<path d="M30.8789 61.8319L32.8885 60.7649L32.9842 60.676C32.9842 60.676 32.9842 60.5871 32.8885 60.676L30.8789 61.7429C30.8789 61.654 30.8789 61.743 30.8789 61.8319Z" fill="#FF9999"/>
<path d="M32.1288 58.4912L30.8848 59.2025H30.7891C30.7891 59.2025 30.7891 59.1136 30.8848 59.1136L32.1288 58.4023H32.2245C32.2245 58.4913 32.2245 58.4912 32.1288 58.4912Z" fill="#A69CFB"/>
<path d="M34.8006 57.0694L32.4082 58.4031H32.3125C32.3125 58.4031 32.3125 58.3141 32.4082 58.3141L34.8006 56.9805H34.8962C34.8962 57.0694 34.8963 57.0694 34.8006 57.0694Z" fill="#94F2B5"/>
<path d="M36.6268 56.1798L35.0957 56.9799H35C35 56.9799 35 56.891 35.0957 56.891L36.6268 56.0908H36.7225C36.7225 56.0908 36.6268 56.0909 36.6268 56.1798Z" fill="#6491FB"/>
<path d="M35.3847 59.6703L36.6288 58.959H36.7245C36.7245 58.959 36.7245 59.0479 36.6288 59.0479L35.3847 59.7592H35.2891C35.2891 59.7592 35.2891 59.6703 35.3847 59.6703Z" fill="#94F2B5"/>
<path d="M32.6973 61.092L35.0896 59.7583H35.1853C35.1853 59.7583 35.1853 59.8472 35.0896 59.8472L32.6973 61.1809H32.6016C32.6016 61.1809 32.6016 61.1809 32.6973 61.092Z" fill="#FFC99C"/>
<path d="M30.8848 62.0707L32.4159 61.2705H32.5116C32.5116 61.2705 32.5116 61.3595 32.4159 61.3595L30.8848 62.1596H30.7891C30.8848 62.1596 30.8848 62.0707 30.8848 62.0707Z" fill="#A69CFB"/>
<path d="M33.947 59.7149L30.8848 61.3153H30.7891C30.7891 61.3153 30.7891 61.2264 30.8848 61.2264L33.947 59.626H34.0427L33.947 59.7149Z" fill="#FFC99C"/>
<path d="M35.7635 58.7379L34.4238 59.4492H34.3281C34.3281 59.4492 34.3281 59.3602 34.4238 59.3602L35.7635 58.6489H35.8592C35.7635 58.6489 35.7635 58.7379 35.7635 58.7379Z" fill="#FF9999"/>
<path d="M32.1288 60.2202L30.8848 60.9316H30.7891C30.7891 60.9316 30.7891 60.8426 30.8848 60.8426L32.1288 60.1313H32.2245C32.2245 60.2203 32.2245 60.2202 32.1288 60.2202Z" fill="#94F2B5"/>
<path d="M34.8006 58.7964L32.4082 60.1301H32.3125C32.3125 60.1301 32.3125 60.0412 32.4082 60.0412L34.8006 58.7075H34.8962C34.8962 58.7964 34.8963 58.7964 34.8006 58.7964Z" fill="#6491FB"/>
<path d="M36.6268 57.8184L35.0957 58.6186H35C35 58.6186 35 58.5297 35.0957 58.5297L36.6268 57.7295H36.7225C36.7225 57.8184 36.6268 57.8184 36.6268 57.8184Z" fill="#94F2B5"/>
<path d="M31.9374 59.9561L30.8848 60.4895H30.7891C30.7891 60.4895 30.7891 60.4006 30.8848 60.4006L31.9374 59.8672H32.0331C31.9374 59.8672 31.9374 59.9561 31.9374 59.9561Z" fill="#A69CFB"/>
<path d="M34.1404 58.7984L32.1308 59.8654H32.0352C32.0352 59.8654 32.0351 59.7764 32.1308 59.7764L34.1404 58.7095H34.2361C34.2361 58.7095 34.1404 58.7095 34.1404 58.7984Z" fill="#FF9999"/>
<path d="M36.3357 57.5542L34.3262 58.6212H34.2305C34.2305 58.6212 34.2305 58.5323 34.3262 58.5323L36.3357 57.4653H36.4314C36.4314 57.4653 36.4314 57.5542 36.3357 57.5542Z" fill="#FFC99C"/>
<mask id="mask1_214_3988" style="mask-type:luminance" maskUnits="userSpaceOnUse" x="24" y="49" width="23" height="32">
<path d="M44.2854 58.6457C45.7208 59.446 46.8691 61.3131 46.8691 62.8246L46.7734 79.2732C46.7734 80.7847 45.6251 81.4071 44.1897 80.6958L27.2517 71.6268C25.8163 70.8266 24.668 68.9595 24.668 67.448L24.7636 50.9994C24.7636 49.4879 25.912 48.8655 27.3474 49.5768L44.2854 58.6457Z" fill="white"/>
</mask>
<g mask="url(#mask1_214_3988)">
<path d="M26.1014 49.6667C26.3885 49.6667 26.6756 49.7556 27.0584 49.9335L43.9963 59.0024C45.2403 59.7137 46.3887 61.403 46.3887 62.8256L46.293 79.2742C46.293 79.541 46.1973 80.519 45.336 80.519C45.0489 80.519 44.7618 80.4301 44.3791 80.2523L27.4411 71.1833C26.1971 70.472 25.0488 68.7827 25.0488 67.3601L25.1445 50.9115C25.1445 50.6447 25.2402 49.6667 26.1014 49.6667ZM26.1014 49.2222C25.2402 49.2222 24.666 49.8445 24.666 50.9115L24.5703 67.3601C24.5703 68.8716 25.7186 70.7388 27.154 71.539L44.092 80.6079C44.4748 80.8747 44.9533 80.9636 45.2403 80.9636C46.1016 80.9636 46.6758 80.3412 46.6758 79.2742L46.7714 62.8256C46.7714 61.3141 45.6231 59.447 44.1877 58.6468L27.2497 49.5778C26.867 49.3111 26.4842 49.2222 26.1014 49.2222Z" fill="url(#paint13_linear_214_3988)"/>
</g>
<path d="M48.6771 60.0687L45.7106 61.6691L42.3613 59.8909L41.6914 60.2465L45.0407 62.0247V63.4473C45.0407 63.5362 45.0407 63.7141 45.0407 63.803C45.0407 63.8919 44.945 63.9808 44.945 64.0697C44.945 64.1586 44.8493 64.1586 44.8493 64.2475C44.7536 64.3364 44.6579 64.4254 44.5622 64.5143L45.2321 64.1586C45.3278 64.0697 45.4235 63.9808 45.5192 63.8919C45.5192 63.8919 45.5192 63.803 45.6149 63.803V63.7141V63.6251V63.5362V63.4473V63.3584V63.2695V63.1806V62.4693L48.5814 60.8689L48.6771 60.0687Z" fill="#28565D"/>
<path d="M28.4877 49.2197L24.7556 51.1757L21.4062 49.3975L25.0427 47.3525L28.4877 49.2197Z" fill="#509AA6"/>
<path d="M48.6751 60.0668L45.0388 62.0229L41.5938 60.2447L45.3258 58.1997L48.6751 60.0668Z" fill="#509AA6"/>
<path d="M41.9798 56.4218L38.2477 58.3778L34.8984 56.5996L38.5348 54.6436L41.9798 56.4218Z" fill="#509AA6"/>
<path d="M45.3314 58.2006L41.5993 60.2455L38.25 58.3784L41.9821 56.4224L45.3314 58.2006Z" fill="#EBC3AA"/>
<path d="M38.5365 54.6435L34.9001 56.5996L31.5508 54.8213L35.1872 52.7764L38.5365 54.6435Z" fill="#EBC3AA"/>
<path d="M35.1928 52.7773L31.5563 54.8222L28.207 52.9551L31.8434 50.999L35.1928 52.7773Z" fill="#509AA6"/>
<path d="M31.8392 50.998L28.2028 52.954L24.7578 51.1758L28.4899 49.2197L31.8392 50.998Z" fill="#EBC3AA"/>
<path d="M28.2028 52.9584V54.381C28.2028 55.359 27.4373 55.8036 26.4803 55.2701C25.5234 54.7366 24.7578 53.5808 24.7578 52.6028V51.1802L28.2028 52.9584Z" fill="#F1935C"/>
<path d="M24.7653 51.1796V52.6022C24.7653 53.5802 23.9997 54.0248 23.0428 53.4913C22.0859 52.9578 21.3203 51.802 21.3203 50.824V49.4014L24.7653 51.1796Z" fill="#28565D"/>
<path d="M38.2575 58.4691V59.8917C38.2575 60.8698 37.492 61.3143 36.535 60.7809C35.5781 60.2474 34.8125 59.0915 34.8125 58.1135V56.6909L38.2575 58.4691Z" fill="#28565D"/>
<path d="M34.8981 56.6015V58.024C34.8981 59.0021 34.1326 59.4466 33.1756 58.9132C32.2187 58.3797 31.4531 57.2238 31.4531 56.2458V54.8232L34.8981 56.6015Z" fill="#F1935C"/>
<path d="M31.5505 54.8232V56.2457C31.5505 57.2238 30.7849 57.6683 29.828 57.1348C28.871 56.6014 28.1055 55.4455 28.1055 54.4675V53.0449L31.5505 54.8232Z" fill="#28565D"/>
<path d="M41.6091 60.2475V61.6701C41.6091 62.6481 40.8435 63.0926 39.8866 62.5592C38.9296 62.0257 38.1641 60.8699 38.1641 59.8918V58.4692L41.6091 60.2475Z" fill="#F1935C"/>
<path d="M45.0466 62.0251V63.4476C45.0466 64.4257 44.281 64.8702 43.3241 64.3368C42.3671 63.8033 41.6016 62.6474 41.6016 61.6694V60.2468L45.0466 62.0251Z" fill="#28565D"/>
<path d="M47.979 7.87787C47.8979 7.87124 47.8329 7.90199 47.7638 7.92189L47.7438 7.903L46.5938 8.19829L47.347 8.9143V27.3008C47.347 27.9179 47.8105 28.6633 48.3825 28.9718L70.4748 40.8944L70.8648 41.78L72.0282 41.4785V41.4598C72.2576 41.3784 72.4183 41.1653 72.4183 40.819V22.0871C72.4183 21.47 71.9481 20.7184 71.3759 20.4099L48.3825 8.00974C48.2396 7.93275 48.103 7.88812 47.979 7.87787Z" fill="#A1C1FF"/>
<path d="M47.2157 8.31085L70.2133 20.7132C70.7856 21.0217 71.2493 21.7721 71.2493 22.3892V41.1205C71.2493 41.7376 70.7856 41.9877 70.2133 41.6791L47.2157 29.277C46.6435 28.9684 46.1797 28.218 46.1797 27.6009V8.86967C46.1797 8.25255 46.6435 8.00229 47.2157 8.31085Z" fill="url(#paint14_linear_214_3988)"/>
<path d="M55.441 24.0739L61.8716 20.7604C60.338 18.3189 58.1681 16.1434 55.7727 14.9095C52.8487 13.4037 50.2738 13.6102 48.7678 15.158C47.8669 16.0772 47.3438 17.4662 47.3438 19.2506C47.3438 22.1665 48.7389 25.4595 50.8781 28.1362C52.2558 29.8635 53.9473 31.3336 55.7727 32.2735C57.5047 33.1656 59.1148 33.4563 60.4577 33.2197C62.5181 32.8641 63.9711 31.2493 64.2012 28.678L55.441 24.0739Z" fill="url(#paint15_linear_214_3988)"/>
<path d="M60.181 20.9551L61.871 20.7607L55.4404 24.0742L53.9805 24.3094L60.181 20.9551Z" fill="#0D434B"/>
<path d="M53.9875 24.3075L60.1882 20.9531C58.7096 18.4813 56.6171 16.2788 54.3071 15.0299C51.4877 13.5052 49.0049 13.7142 47.5529 15.2811C46.6841 16.2118 46.1797 17.6181 46.1797 19.4244C46.1797 22.3763 47.5249 25.7101 49.5877 28.42C50.9159 30.1686 52.5472 31.6569 54.3071 32.6085C55.9773 33.5115 57.53 33.8057 58.8247 33.5663C60.8115 33.2063 62.2127 31.5717 62.4343 28.9686L53.9875 24.3075Z" fill="url(#paint16_linear_214_3988)"/>
<path d="M54.1503 14.9473L54.1367 24.1499C55.3662 23.5006 57.537 22.3542 60.1894 20.9526C58.7062 18.4734 56.6535 16.2808 54.3317 15.0289C54.2708 14.9959 54.211 14.9786 54.1503 14.9473Z" fill="#DEEFFF"/>
<path d="M48.0356 14.8594C47.8686 14.9894 47.7051 15.1223 47.5583 15.2803C46.6871 16.2108 46.1795 17.6199 46.1797 19.4262C46.1797 22.3781 47.5342 25.7117 49.6027 28.4216C50.8412 30.0478 52.3436 31.4255 53.9673 32.3791L53.9875 24.307C53.4605 23.4547 48.9576 16.3203 48.0356 14.8594Z" fill="#F58838"/>
<path d="M54.1266 24.395L54.1133 32.4732C54.1856 32.5144 54.2553 32.5656 54.3283 32.605C56.003 33.5082 57.5628 33.8057 58.8611 33.5663C60.8526 33.2065 62.2086 31.5696 62.4322 28.9681L54.1266 24.395Z" fill="#A1C1FF"/>
<path d="M50.4313 13.9988C49.5595 14.0422 48.7848 14.3038 48.1445 14.7651C48.8065 15.81 50.4403 18.3938 51.0836 19.4137C51.0961 19.4334 53.2948 22.926 53.9888 24.0433L54.0091 14.8783C52.7172 14.2364 51.4994 13.9457 50.4313 13.9988Z" fill="url(#paint17_linear_214_3988)"/>
<path d="M66.56 35.0332L66.5375 35.0414C66.5366 35.042 66.5385 35.0451 66.5375 35.0457L65.7266 35.4139L66.4346 36.138V36.0284C66.4346 36.2345 66.5882 36.4825 66.7796 36.585L68.2133 37.3509L68.0476 37.443L68.6613 38.3135L69.4991 37.9326L69.5081 37.9284L69.5036 37.9242C69.562 37.8886 69.5977 37.8223 69.5977 37.7234V36.9499C69.5977 36.7438 69.444 36.4916 69.2527 36.389L66.7796 35.0666C66.698 35.023 66.6326 35.0268 66.5734 35.0457L66.56 35.0332Z" fill="url(#paint18_linear_214_3988)"/>
<path d="M65.9441 35.4466L68.4153 36.7713C68.6067 36.8738 68.7618 37.124 68.7618 37.3301V38.105C68.7618 38.311 68.6067 38.3948 68.4153 38.2923L65.9441 36.9676C65.7528 36.8651 65.5977 36.6149 65.5977 36.4088V35.6339C65.5977 35.4279 65.7528 35.3441 65.9441 35.4466Z" fill="url(#paint19_linear_214_3988)"/>
<path d="M66.56 30.8978L66.5375 30.9062C66.5366 30.9068 66.5385 30.9098 66.5375 30.9104L65.7266 31.2787L66.4346 32.0027V34.0923C66.4346 34.2983 66.5882 34.5462 66.7796 34.6489L68.2133 35.4147L68.0476 35.5068L68.6613 36.3772L69.4991 35.9965L69.5081 35.9922L69.5036 35.988C69.562 35.9524 69.5977 35.8859 69.5977 35.7872V32.8146C69.5977 32.6086 69.444 32.3563 69.2527 32.2538L66.7796 30.9313C66.698 30.8877 66.6326 30.8915 66.5734 30.9104L66.56 30.8978Z" fill="url(#paint20_linear_214_3988)"/>
<path d="M65.9441 31.3094L68.4153 32.634C68.6067 32.7366 68.7618 32.9868 68.7618 33.1929V36.1667C68.7618 36.3727 68.6067 36.4567 68.4153 36.3542L65.9441 35.0295C65.7528 34.927 65.5977 34.6768 65.5977 34.4707V31.4967C65.5977 31.2907 65.7528 31.2068 65.9441 31.3094Z" fill="url(#paint21_linear_214_3988)"/>
<path d="M66.56 20.7602L66.5375 20.7686C66.5366 20.769 66.5385 20.7723 66.5375 20.7729L65.7266 21.1411L66.4346 21.865V29.9423C66.4346 30.1483 66.5882 30.3962 66.7796 30.4989L68.2133 31.2648L68.0476 31.3568L68.6613 32.2272L69.4991 31.8465L69.5081 31.8423L69.5036 31.8381C69.562 31.8025 69.5977 31.736 69.5977 31.6373V22.6771C69.5977 22.4708 69.444 22.2188 69.2527 22.1162L66.7796 20.7938C66.698 20.7499 66.6326 20.7538 66.5734 20.7729L66.56 20.7602Z" fill="url(#paint22_linear_214_3988)"/>
<path d="M65.9441 21.1737L68.4153 22.4982C68.6067 22.6009 68.7618 22.851 68.7618 23.057V32.0186C68.7618 32.2246 68.6067 32.3087 68.4153 32.2059L65.9441 30.8815C65.7528 30.7789 65.5977 30.5287 65.5977 30.3226V21.3611C65.5977 21.155 65.7528 21.071 65.9441 21.1737Z" fill="url(#paint23_linear_214_3988)"/>
<path d="M32.2251 16.7421C32.144 16.7355 32.079 16.7663 32.0099 16.7862L31.9897 16.7673L30.8398 17.0625L31.5931 17.7786V36.1651C31.5931 36.7822 32.0564 37.5276 32.6286 37.8361L54.7207 49.7586L55.1109 50.6443L56.2743 50.3428V50.3241C56.5035 50.2427 56.6644 50.0296 56.6644 49.6833V30.9514C56.6644 30.3343 56.1942 29.5827 55.622 29.2741L32.6286 16.874C32.4855 16.797 32.3491 16.7524 32.2251 16.7421Z" fill="#A1C1FF"/>
<path d="M31.4618 17.1751L54.4594 29.5773C55.0315 29.8858 55.4954 30.6362 55.4954 31.2533V49.9846C55.4954 50.6017 55.0315 50.8518 54.4594 50.5432L31.4618 38.1411C30.8895 37.8325 30.4258 37.0821 30.4258 36.465V17.7338C30.4258 17.1167 30.8895 16.8666 31.4618 17.1751Z" fill="url(#paint24_linear_214_3988)"/>
<path d="M52.1048 29.8472L53.4881 30.603V50.0289L52.1687 50.5214L52.1048 49.2731L50.7852 30.3397L52.1048 29.8472Z" fill="url(#paint25_linear_214_3988)"/>
<path d="M50.7852 30.3398L52.1687 31.0957V50.5216L50.7852 49.7658V30.3398Z" fill="url(#paint26_linear_214_3988)"/>
<path d="M48.7374 32.9551L50.1207 33.7109V48.2343L48.8013 48.727L48.7374 47.4785L47.418 33.4476L48.7374 32.9551Z" fill="url(#paint27_linear_214_3988)"/>
<path d="M47.418 33.4478L48.8013 34.2036V48.7272L47.418 47.9712V33.4478Z" fill="url(#paint28_linear_214_3988)"/>
<path d="M45.3351 30.6011L46.7184 31.3569V46.3758L45.399 46.8685L45.3351 45.62L44.0156 31.0936L45.3351 30.6011Z" fill="url(#paint29_linear_214_3988)"/>
<path d="M44.0156 31.0938L45.399 31.8496V46.8687L44.0156 46.1127V31.0938Z" fill="url(#paint30_linear_214_3988)"/>
<path d="M42.1632 34.3105L43.5467 35.0664V44.6585L42.2271 45.151L42.1632 43.9027L40.8438 34.803L42.1632 34.3105Z" fill="url(#paint31_linear_214_3988)"/>
<path d="M40.8438 34.8032L42.2271 35.5592V45.1512L40.8438 44.3954V34.8032Z" fill="url(#paint32_linear_214_3988)"/>
<path d="M35.8077 34.8047L37.191 35.5605V41.2512L35.8716 41.7437L35.8077 40.4954L34.4883 35.2972L35.8077 34.8047Z" fill="url(#paint33_linear_214_3988)"/>
<path d="M34.4883 35.2979L35.8716 36.0537V41.7444L34.4883 40.9885V35.2979Z" fill="url(#paint34_linear_214_3988)"/>
<path d="M32.6593 35.5591L34.0426 36.3149V39.5424L32.7232 40.0349L32.6593 38.7864L31.3398 36.0516L32.6593 35.5591Z" fill="url(#paint35_linear_214_3988)"/>
<path d="M31.3398 36.0518L32.7232 36.8076V40.035L31.3398 39.2792V36.0518Z" fill="url(#paint36_linear_214_3988)"/>
<path d="M38.9952 31.3755L40.3788 32.1313V42.9643L39.0591 43.4568L38.9952 42.2085L37.6758 31.868L38.9952 31.3755Z" fill="url(#paint37_linear_214_3988)"/>
<path d="M37.6758 31.8682L39.0591 32.624V43.457L37.6758 42.7012V31.8682Z" fill="url(#paint38_linear_214_3988)"/>
<path d="M30.8711 34.7005C31.0667 34.7005 32.3666 34.7025 32.495 34.5425C32.6119 34.3969 32.6517 33.8618 32.9009 33.7843C33.0718 33.731 33.3694 33.9907 33.5775 33.9423C33.6767 33.9189 34.8935 32.815 35.1337 32.6467C35.353 32.4929 36.158 32.6737 36.3175 32.4254C36.4944 32.1502 37.0475 30.3988 37.5691 30.2768C38.3077 30.1043 39.5578 30.1885 40.4107 30.0557C40.4675 30.0468 40.5321 29.9943 40.5799 30.0241C40.9991 30.285 41.4271 31.2247 42.1022 31.2247C42.1939 31.2247 42.2393 31.0633 42.2714 31.0036C42.6275 30.3381 42.4586 29.7988 43.2525 29.6132C43.968 29.4462 44.7626 29.6309 45.485 29.5185C45.6888 29.4868 46.549 29.2528 46.7029 29.3605C47.0455 29.6006 46.9736 30.5296 47.65 30.5296C47.9691 30.5296 47.9775 29.4655 48.1912 29.2657C48.3115 29.1535 49.0615 29.5766 49.3415 29.5185C49.8507 29.4128 49.9006 28.978 50.3902 28.8866C50.9041 28.7905 53.8145 29.8456 53.8145 29.8456" stroke="#28565D" stroke-width="0.5" stroke-miterlimit="10" stroke-linecap="round" stroke-linejoin="round"/>
<path d="M33.154 20.3311L36.9888 22.3604C37.5938 22.6805 38.0843 23.4589 38.0843 24.0988V24.101C38.0843 24.741 37.5938 25.0001 36.9888 24.6799L33.154 22.6506C32.549 22.3305 32.0586 21.5523 32.0586 20.9124V20.91C32.0586 20.2701 32.549 20.0109 33.154 20.3311Z" fill="url(#paint39_linear_214_3988)"/>
<path d="M32.7629 23.1018L35.228 24.5135C35.617 24.7361 35.9323 25.2776 35.9323 25.7228V25.7245C35.9323 26.1695 35.617 26.3498 35.228 26.1271L32.7629 24.7154C32.3739 24.4926 32.0586 23.9513 32.0586 23.5061V23.5045C32.0586 23.0594 32.3739 22.8791 32.7629 23.1018Z" fill="url(#paint40_linear_214_3988)"/>
<path d="M32.6064 25.491L34.5237 26.5498C34.8263 26.7168 35.0715 27.1229 35.0715 27.4568V27.458C35.0715 27.7918 34.8263 27.9271 34.5237 27.76L32.6064 26.7012C32.3038 26.5341 32.0586 26.1282 32.0586 25.7943V25.793C32.0586 25.4592 32.3038 25.324 32.6064 25.491Z" fill="url(#paint41_linear_214_3988)"/>
<defs>
<linearGradient id="paint0_linear_214_3988" x1="-0.0274971" y1="113.899" x2="105.969" y2="113.899" gradientUnits="userSpaceOnUse">
<stop stop-color="#A1C1FF"/>
<stop offset="1" stop-color="white"/>
</linearGradient>
<linearGradient id="paint1_linear_214_3988" x1="17.6119" y1="92.5174" x2="88.3163" y2="92.5174" gradientUnits="userSpaceOnUse">
<stop offset="0.3375" stop-color="#97B5E1"/>
<stop offset="0.5932" stop-color="#E8F1FF"/>
</linearGradient>
<linearGradient id="paint2_linear_214_3988" x1="88.0459" y1="72.9539" x2="17.964" y2="66.1637" gradientUnits="userSpaceOnUse">
<stop stop-color="white"/>
<stop offset="1" stop-color="#C9D9F4"/>
</linearGradient>
<linearGradient id="paint3_linear_214_3988" x1="24.6931" y1="84.0219" x2="23.5555" y2="81.9189" gradientUnits="userSpaceOnUse">
<stop stop-color="#103DB5"/>
<stop offset="0.6426" stop-color="#6BABFD"/>
</linearGradient>
<linearGradient id="paint4_linear_214_3988" x1="28.4126" y1="86.0132" x2="27.275" y2="83.9102" gradientUnits="userSpaceOnUse">
<stop stop-color="#103DB5"/>
<stop offset="0.6426" stop-color="#6BABFD"/>
</linearGradient>
<linearGradient id="paint5_linear_214_3988" x1="32.2525" y1="92.1624" x2="27.3514" y2="99.5018" gradientUnits="userSpaceOnUse">
<stop stop-color="#F1935C" stop-opacity="0.6"/>
<stop offset="1" stop-color="#FFE4D4" stop-opacity="0"/>
</linearGradient>
<linearGradient id="paint6_linear_214_3988" x1="3.14623" y1="11.5157" x2="15.0517" y2="1.78247" gradientUnits="userSpaceOnUse">
<stop stop-color="#A1C1FF"/>
<stop offset="1" stop-color="#B2D7FF"/>
</linearGradient>
<linearGradient id="paint7_linear_214_3988" x1="22.187" y1="7.06586" x2="10.7863" y2="0.177143" gradientUnits="userSpaceOnUse">
<stop stop-color="white"/>
<stop offset="1" stop-color="#C9D9F4"/>
</linearGradient>
<linearGradient id="paint8_linear_214_3988" x1="100.353" y1="15.4701" x2="93.3138" y2="9.71532" gradientUnits="userSpaceOnUse">
<stop stop-color="#A1C1FF"/>
<stop offset="1" stop-color="#B2D7FF"/>
</linearGradient>
<linearGradient id="paint9_linear_214_3988" x1="89.0953" y1="12.8395" x2="95.8359" y2="8.7665" gradientUnits="userSpaceOnUse">
<stop stop-color="white"/>
<stop offset="1" stop-color="#C9D9F4"/>
</linearGradient>
<linearGradient id="paint10_linear_214_3988" x1="22.3776" y1="62.7784" x2="82.1483" y2="62.7784" gradientUnits="userSpaceOnUse">
<stop offset="0.3375" stop-color="#97B5E1"/>
<stop offset="0.5932" stop-color="#E8F1FF"/>
</linearGradient>
<linearGradient id="paint11_linear_214_3988" x1="81.9195" y1="42.4651" x2="22.6843" y2="36.6777" gradientUnits="userSpaceOnUse">
<stop stop-color="white"/>
<stop offset="1" stop-color="#C9D9F4"/>
</linearGradient>
<linearGradient id="paint12_linear_214_3988" x1="44.2993" y1="57.9383" x2="34.1397" y2="81.4801" gradientUnits="userSpaceOnUse">
<stop stop-color="#97B5E1"/>
<stop offset="1" stop-color="#E8F1FF"/>
</linearGradient>
<linearGradient id="paint13_linear_214_3988" x1="45.6793" y1="59.7782" x2="26.5604" y2="71.6585" gradientUnits="userSpaceOnUse">
<stop stop-color="white"/>
<stop offset="1" stop-color="white" stop-opacity="0.2"/>
</linearGradient>
<linearGradient id="paint14_linear_214_3988" x1="101.733" y1="40.0425" x2="18.798" y2="4.0477" gradientUnits="userSpaceOnUse">
<stop offset="0.227083" stop-color="#A1C1FF"/>
<stop offset="0.396132" stop-color="#CFE0FF"/>
</linearGradient>
<linearGradient id="paint15_linear_214_3988" x1="64.9297" y1="21.9535" x2="44.1931" y2="24.4006" gradientUnits="userSpaceOnUse">
<stop stop-color="#A1C1FF"/>
<stop offset="0.782261" stop-color="#CFE0FF"/>
</linearGradient>
<linearGradient id="paint16_linear_214_3988" x1="49.4112" y1="25.3696" x2="65.5978" y2="21.4453" gradientUnits="userSpaceOnUse">
<stop offset="0.13125" stop-color="#074E58"/>
<stop offset="0.864583" stop-color="#67BAC8"/>
</linearGradient>
<linearGradient id="paint17_linear_214_3988" x1="51.0768" y1="13.9927" x2="51.0768" y2="24.0433" gradientUnits="userSpaceOnUse">
<stop stop-color="#509AA6"/>
<stop offset="1" stop-color="#28565D"/>
</linearGradient>
<linearGradient id="paint18_linear_214_3988" x1="69.7379" y1="38.1741" x2="69.7181" y2="35.2869" gradientUnits="userSpaceOnUse">
<stop stop-color="#F1935C"/>
<stop offset="1" stop-color="#FFCD7D"/>
</linearGradient>
<linearGradient id="paint19_linear_214_3988" x1="67.3828" y1="29.6306" x2="67.3597" y2="37.4348" gradientUnits="userSpaceOnUse">
<stop stop-color="#F8C6A8"/>
<stop offset="1" stop-color="#CC6F2B"/>
</linearGradient>
<linearGradient id="paint20_linear_214_3988" x1="69.7379" y1="36.1443" x2="69.6825" y2="31.3227" gradientUnits="userSpaceOnUse">
<stop stop-color="#F1935C"/>
<stop offset="1" stop-color="#FFCD7D"/>
</linearGradient>
<linearGradient id="paint21_linear_214_3988" x1="67.3828" y1="27.6925" x2="67.3597" y2="35.4967" gradientUnits="userSpaceOnUse">
<stop stop-color="#F8C6A8"/>
<stop offset="1" stop-color="#CC6F2B"/>
</linearGradient>
<linearGradient id="paint22_linear_214_3988" x1="69.7379" y1="31.7398" x2="69.4952" y2="21.6547" gradientUnits="userSpaceOnUse">
<stop stop-color="#F1935C"/>
<stop offset="1" stop-color="#FFCD7D"/>
</linearGradient>
<linearGradient id="paint23_linear_214_3988" x1="67.3828" y1="23.5444" x2="67.3597" y2="31.3486" gradientUnits="userSpaceOnUse">
<stop stop-color="#F8C6A8"/>
<stop offset="1" stop-color="#CC6F2B"/>
</linearGradient>
<linearGradient id="paint24_linear_214_3988" x1="88.9751" y1="52.9575" x2="29.5195" y2="15.2548" gradientUnits="userSpaceOnUse">
<stop offset="0.227083" stop-color="#A1C1FF"/>
<stop offset="0.620833" stop-color="#CFE0FF"/>
</linearGradient>
<linearGradient id="paint25_linear_214_3988" x1="53.5861" y1="49.6427" x2="52.4599" y2="31.5209" gradientUnits="userSpaceOnUse">
<stop stop-color="#F1935C"/>
<stop offset="1" stop-color="#FFCD7D"/>
</linearGradient>
<linearGradient id="paint26_linear_214_3988" x1="49.8012" y1="37.5918" x2="51.8023" y2="50.8409" gradientUnits="userSpaceOnUse">
<stop stop-color="#F1935C"/>
<stop offset="1" stop-color="#D9641F"/>
</linearGradient>
<linearGradient id="paint27_linear_214_3988" x1="50.2187" y1="48.0567" x2="49.5621" y2="34.2097" gradientUnits="userSpaceOnUse">
<stop stop-color="#F1935C"/>
<stop offset="1" stop-color="#FFCD7D"/>
</linearGradient>
<linearGradient id="paint28_linear_214_3988" x1="46.4341" y1="35.7973" x2="48.4351" y2="49.0464" gradientUnits="userSpaceOnUse">
<stop stop-color="#F1935C"/>
<stop offset="1" stop-color="#D9641F"/>
</linearGradient>
<linearGradient id="paint29_linear_214_3988" x1="46.8163" y1="46.1771" x2="46.118" y2="31.8972" gradientUnits="userSpaceOnUse">
<stop stop-color="#F1935C"/>
<stop offset="1" stop-color="#FFCD7D"/>
</linearGradient>
<linearGradient id="paint30_linear_214_3988" x1="43.0317" y1="33.9387" x2="45.0327" y2="47.1879" gradientUnits="userSpaceOnUse">
<stop stop-color="#F1935C"/>
<stop offset="1" stop-color="#D9641F"/>
</linearGradient>
<linearGradient id="paint31_linear_214_3988" x1="43.6447" y1="44.6903" x2="43.3342" y2="35.1616" gradientUnits="userSpaceOnUse">
<stop stop-color="#F1935C"/>
<stop offset="1" stop-color="#FFCD7D"/>
</linearGradient>
<linearGradient id="paint32_linear_214_3988" x1="39.8598" y1="32.2214" x2="41.8608" y2="45.4705" gradientUnits="userSpaceOnUse">
<stop stop-color="#F1935C"/>
<stop offset="1" stop-color="#D9641F"/>
</linearGradient>
<linearGradient id="paint33_linear_214_3988" x1="37.289" y1="41.4488" x2="37.1617" y2="35.3456" gradientUnits="userSpaceOnUse">
<stop stop-color="#F1935C"/>
<stop offset="1" stop-color="#FFCD7D"/>
</linearGradient>
<linearGradient id="paint34_linear_214_3988" x1="33.5044" y1="28.8145" x2="35.5054" y2="42.0637" gradientUnits="userSpaceOnUse">
<stop stop-color="#F1935C"/>
<stop offset="1" stop-color="#D9641F"/>
</linearGradient>
<linearGradient id="paint35_linear_214_3988" x1="34.1405" y1="39.8446" x2="34.0876" y2="35.907" gradientUnits="userSpaceOnUse">
<stop stop-color="#F1935C"/>
<stop offset="1" stop-color="#FFCD7D"/>
</linearGradient>
<linearGradient id="paint36_linear_214_3988" x1="30.3559" y1="27.1051" x2="32.357" y2="40.3542" gradientUnits="userSpaceOnUse">
<stop stop-color="#F1935C"/>
<stop offset="1" stop-color="#D9641F"/>
</linearGradient>
<linearGradient id="paint37_linear_214_3988" x1="40.4767" y1="42.9433" x2="40.0911" y2="32.3267" gradientUnits="userSpaceOnUse">
<stop stop-color="#F1935C"/>
<stop offset="1" stop-color="#FFCD7D"/>
</linearGradient>
<linearGradient id="paint38_linear_214_3988" x1="36.6919" y1="30.5272" x2="38.6929" y2="43.7763" gradientUnits="userSpaceOnUse">
<stop stop-color="#F1935C"/>
<stop offset="1" stop-color="#D9641F"/>
</linearGradient>
<linearGradient id="paint39_linear_214_3988" x1="32.0586" y1="21.3562" x2="38.7721" y2="21.3562" gradientUnits="userSpaceOnUse">
<stop stop-color="#F1935C"/>
<stop offset="1" stop-color="#D9641F"/>
</linearGradient>
<linearGradient id="paint40_linear_214_3988" x1="32.0587" y1="23.8149" x2="36.3746" y2="23.8149" gradientUnits="userSpaceOnUse">
<stop stop-color="#F1935C"/>
<stop offset="1" stop-color="#D9641F"/>
</linearGradient>
<linearGradient id="paint41_linear_214_3988" x1="32.0587" y1="26.0259" x2="35.4155" y2="26.0259" gradientUnits="userSpaceOnUse">
<stop stop-color="#F1935C"/>
<stop offset="1" stop-color="#D9641F"/>
</linearGradient>
</defs>
</svg>
