<svg width="302" height="320" viewBox="0 0 302 320" fill="none" xmlns="http://www.w3.org/2000/svg">
<g filter="url(#filter0_f_260_46725)">
<ellipse cx="81.9411" cy="46.1798" rx="81.9411" ry="46.1798" transform="matrix(-0.879433 0.476023 0.524366 0.851493 198.51 111.733)" fill="#F1935C"/>
</g>
<path d="M160.451 136.165C156.931 134.288 151.225 134.288 147.706 136.165L44.3537 191.275C42.5941 192.214 41.7143 193.443 41.714 194.673C41.7138 195.903 42.5937 197.133 44.3537 198.072L123.066 240.043C126.585 241.92 132.292 241.92 135.811 240.043L239.163 184.933C240.923 183.995 241.803 182.765 241.803 181.535C241.803 180.305 240.923 179.075 239.163 178.137L160.451 136.165Z" fill="#D4E4FE"/>
<path d="M160.454 128.316C156.935 126.439 151.228 126.439 147.709 128.316V136.168C151.228 134.292 156.935 134.292 160.454 136.168V128.316Z" fill="#D4E4FE"/>
<path d="M160.445 128.314L239.158 170.286V178.139L160.445 136.167V128.314Z" fill="#D4E4FE"/>
<path d="M44.357 183.425L147.709 128.314V136.167L44.357 191.277V183.425Z" fill="#D4E4FE"/>
<path d="M239.163 170.291C240.923 171.229 241.803 172.46 241.803 173.69L241.803 181.541C241.803 180.312 240.923 179.082 239.163 178.144V170.291Z" fill="#D4E4FE"/>
<path d="M241.803 173.686C241.803 174.916 240.923 176.146 239.163 177.084V184.936C240.923 183.998 241.803 182.769 241.803 181.539V173.686Z" fill="#A1C1FF"/>
<path d="M41.7178 186.826C41.718 185.596 42.5979 184.367 44.3574 183.428V191.281C42.5979 192.219 41.718 193.449 41.7178 194.679V186.826Z" fill="#D4E4FE"/>
<path d="M44.3574 190.22C42.5979 189.281 41.718 188.052 41.7178 186.822V194.674C41.7176 195.904 42.5975 197.134 44.3574 198.072V190.22Z" fill="#A1C1FF"/>
<path d="M239.158 177.087L135.806 232.197V240.05L239.158 184.939V177.087Z" fill="#A1C1FF"/>
<path d="M123.071 232.196L44.3585 190.224V198.077L123.071 240.048V232.196Z" fill="#A1C1FF"/>
<path d="M135.806 232.196C132.286 234.072 126.58 234.072 123.06 232.196V240.048C126.58 241.925 132.286 241.925 135.806 240.048V232.196Z" fill="#A1C1FF"/>
<rect width="131.571" height="103.647" rx="7.86205" transform="matrix(-0.882391 0.470517 0.882391 0.470517 154.097 124.706)" fill="#DEEFFF"/>
<path d="M160.466 118.895C156.946 117.018 151.24 117.018 147.721 118.895L44.3688 174.005C42.6093 174.944 41.7294 176.173 41.7292 177.403C41.729 178.633 42.6088 179.863 44.3688 180.801L123.081 222.773C126.601 224.65 132.307 224.65 135.826 222.773L239.178 167.663C240.938 166.725 241.818 165.495 241.818 164.265C241.818 163.035 240.938 161.805 239.178 160.867L160.466 118.895Z" fill="#D4E4FE"/>
<path d="M160.469 111.045C156.95 109.169 151.243 109.169 147.724 111.045V118.898C151.243 117.021 156.95 117.021 160.469 118.898V111.045Z" fill="#D4E4FE"/>
<path d="M160.455 111.044L239.167 153.016V160.869L160.455 118.897V111.044Z" fill="#D4E4FE"/>
<path d="M44.3624 166.155L147.714 111.044V118.897L44.3624 174.007V166.155Z" fill="#D4E4FE"/>
<path d="M239.178 153.018C240.938 153.957 241.818 155.187 241.818 156.417L241.818 164.269C241.818 163.039 240.938 161.809 239.178 160.871V153.018Z" fill="#D4E4FE"/>
<path d="M241.818 156.416C241.818 157.646 240.938 158.876 239.178 159.814V167.666C240.938 166.728 241.818 165.499 241.818 164.269V156.416Z" fill="#A1C1FF"/>
<path d="M41.7329 169.553C41.7332 168.324 42.613 167.094 44.3726 166.156V174.009C42.613 174.947 41.7332 176.176 41.7329 177.406V169.553Z" fill="#D4E4FE"/>
<path d="M44.3726 172.95C42.613 172.011 41.7332 170.782 41.7329 169.552V177.404C41.7327 178.634 42.6126 179.864 44.3726 180.802V172.95Z" fill="#A1C1FF"/>
<path d="M239.167 159.816L135.816 214.927V222.779L239.167 167.669V159.816Z" fill="#A1C1FF"/>
<path d="M123.086 214.921L44.3737 172.949V180.802L123.086 222.773V214.921Z" fill="#A1C1FF"/>
<path d="M135.821 214.926C132.301 216.802 126.595 216.802 123.076 214.926V222.778C126.595 224.655 132.301 224.655 135.821 222.778V214.926Z" fill="#A1C1FF"/>
<rect width="131.571" height="103.647" rx="7.86205" transform="matrix(-0.882391 0.470517 0.882391 0.470517 154.097 107.649)" fill="#DEEFFF"/>
<path opacity="0.8" d="M136.1 159.58V200.58C136.1 201.28 135.8 201.78 135.4 201.98C135.1 202.18 134.7 202.18 134.3 201.88L79.9 170.48C78.9 169.98 78 168.38 78 167.08V125.98C78 125.28 78.3 124.78 78.7 124.58L78.8 124.48C79.1333 124.347 79.5 124.413 79.9 124.68L80.2 124.88L134.3 156.08C135.3 156.68 136.1 158.18 136.1 159.58Z" fill="#93BDF7"/>
<path d="M137.1 159.08V200.08C137.1 200.88 136.8 201.48 136.4 201.58V201.68L135.4 201.98C135.8 201.78 136.1 201.28 136.1 200.58V159.58C136.1 158.18 135.3 156.68 134.3 156.08L80.1998 124.88L79.8998 124.68C79.4998 124.413 79.1331 124.347 78.7998 124.48L79.7998 124.08C80.1331 123.947 80.4998 123.98 80.8998 124.18L135.3 155.68C136.3 156.18 137.1 157.78 137.1 159.08Z" fill="url(#paint0_linear_260_46725)"/>
<path d="M102.2 143.98C102.066 143.98 101.933 143.947 101.8 143.88L82.1998 132.58C81.7998 132.28 81.5998 131.78 81.8998 131.38C82.0998 130.98 82.5998 130.88 83.0998 131.08L102.6 142.38C103 142.58 103.2 143.18 102.9 143.58C102.8 143.78 102.5 143.98 102.2 143.98Z" fill="white"/>
<path d="M102.2 146.78C102.067 146.78 101.933 146.713 101.8 146.58L97.4 144.08C97 143.88 96.8 143.28 97.1 142.88C97.3 142.48 97.8 142.38 98.2 142.58L102.6 145.08C103 145.38 103.2 145.88 102.9 146.28C102.8 146.58 102.5 146.78 102.2 146.78Z" fill="white"/>
<path d="M94.5998 142.38C94.4664 142.38 94.3331 142.347 94.1998 142.28L82.1998 135.28C81.7998 135.08 81.5998 134.58 81.8998 134.18C82.0998 133.68 82.5998 133.58 83.0998 133.78L95.0998 140.78C95.4998 140.98 95.5998 141.48 95.3998 141.98C95.1998 142.18 94.8998 142.38 94.5998 142.38Z" fill="white"/>
<path d="M111.7 169.08C111.7 174.98 108.1 177.68 103.7 175.18V170.38C106.1 171.78 108.1 170.28 108.1 167.08C108.1 165.58 107.7 164.08 107.1 162.78L109.9 161.38C111 163.78 111.7 166.58 111.7 169.08Z" fill="#074E58"/>
<path d="M109.9 161.38L107.1 162.78C106.3 160.98 105.1 159.48 103.7 158.68C101.9 157.58 100.3 158.18 99.6003 159.88C98.4003 158.48 97.2003 157.08 96.3003 156.18C97.5003 152.98 100.3 151.88 103.7 153.88C106.2 155.28 108.4 158.08 109.9 161.38Z" fill="#265DCB"/>
<path d="M103.7 170.38V175.18C99.3002 172.58 95.7002 165.78 95.7002 159.88C95.7002 158.48 95.9002 157.247 96.3002 156.18C97.2002 157.08 98.4002 158.48 99.6002 159.88C99.4002 160.48 99.3002 161.18 99.3002 161.98C99.3002 165.18 101.3 168.98 103.7 170.38Z" fill="#DA6420"/>
<path d="M130.4 163.48C130.334 163.48 130.3 163.48 130.3 163.48L114.1 154.18L107.4 159.18C107.4 159.28 107.2 159.28 107.2 159.18C107.1 159.08 107.2 158.98 107.2 158.98L114 153.78C114.067 153.78 114.134 153.78 114.2 153.78L130.5 163.18C130.5 163.28 130.6 163.38 130.5 163.38C130.5 163.447 130.467 163.48 130.4 163.48Z" fill="white"/>
<path d="M94.0001 163.38C94.0001 163.38 94.0001 163.347 94.0001 163.28L81.8001 156.28C81.7001 156.18 81.6001 156.08 81.7001 156.08C81.7001 155.98 81.8001 155.98 81.9001 155.98L94.0001 162.98L97.4001 160.38C97.5001 160.38 97.6001 160.38 97.6001 160.48C97.7001 160.48 97.7001 160.58 97.6001 160.68L94.1001 163.28C94.1001 163.347 94.0668 163.38 94.0001 163.38Z" fill="white"/>
<path d="M119.9 187.98C119.9 187.98 119.867 187.947 119.8 187.88L109 181.68C108.934 181.613 108.9 181.58 108.9 181.58L104.9 173.88C104.8 173.78 104.8 173.68 104.9 173.68C105 173.58 105.1 173.68 105.1 173.68L109.2 181.38L120 187.68C120.1 187.68 120.1 187.78 120.1 187.88C120.033 187.947 119.967 187.98 119.9 187.98Z" fill="white"/>
<path d="M117.8 185.78C117.733 185.78 117.7 185.747 117.7 185.68L110.7 181.68C110.6 181.58 110.5 181.48 110.6 181.38C110.7 181.28 110.8 181.18 110.9 181.28L117.9 185.28C118 185.38 118.1 185.48 118 185.68C117.933 185.747 117.867 185.78 117.8 185.78Z" fill="white"/>
<path d="M117.8 184.68C117.733 184.68 117.7 184.647 117.7 184.58L110.7 180.58C110.6 180.48 110.5 180.38 110.6 180.28C110.7 180.18 110.8 180.08 110.9 180.18L117.9 184.18C118 184.28 118.1 184.38 118 184.48C117.933 184.613 117.867 184.68 117.8 184.68Z" fill="white"/>
<path d="M117.8 183.58C117.733 183.58 117.7 183.58 117.7 183.58L110.7 179.58C110.6 179.48 110.5 179.38 110.6 179.18C110.7 179.08 110.8 179.08 110.9 179.18L117.9 183.18C118 183.18 118.1 183.38 118 183.48C117.933 183.547 117.867 183.58 117.8 183.58Z" fill="white"/>
<path d="M117.8 182.48C117.733 182.48 117.7 182.48 117.7 182.48L110.7 178.48C110.6 178.38 110.5 178.18 110.6 178.08C110.7 177.98 110.8 177.98 110.9 177.98L117.9 182.08C118 182.08 118.1 182.28 118 182.38C117.933 182.447 117.867 182.48 117.8 182.48Z" fill="white"/>
<path d="M93.1 161.48C93.0333 161.48 92.9667 161.48 92.9 161.48L84.1 156.38C84 156.28 84 156.18 84 155.98C84.1 155.88 84.2 155.88 84.4 155.88L93.2 160.98C93.3 161.08 93.3 161.28 93.3 161.38C93.2333 161.447 93.1666 161.48 93.1 161.48Z" fill="white"/>
<path d="M93.1 160.38C93.0333 160.38 92.9667 160.38 92.9 160.38L84.1 155.28C84 155.18 84 154.98 84 154.88C84.1 154.78 84.2 154.78 84.4 154.78L93.2 159.88C93.3 159.98 93.3 160.18 93.3 160.28C93.2333 160.347 93.1666 160.38 93.1 160.38Z" fill="white"/>
<path d="M93.1 159.38C93.0333 159.38 92.9667 159.347 92.9 159.28L84.1 154.18C84 154.18 84 153.98 84 153.88C84.1 153.78 84.2 153.68 84.4 153.78L93.2 158.88C93.3 158.98 93.3 159.08 93.3 159.18C93.2333 159.313 93.1666 159.38 93.1 159.38Z" fill="white"/>
<path d="M93.1 158.28C93.0333 158.28 92.9667 158.247 92.9 158.18L84.1 153.08C84 153.08 84 152.88 84 152.78C84.1 152.68 84.2 152.58 84.4 152.68L93.2 157.78C93.3 157.88 93.3 157.98 93.3 158.08C93.2333 158.213 93.1666 158.28 93.1 158.28Z" fill="white"/>
<path d="M128.5 161.48C128.5 161.48 128.467 161.48 128.4 161.48L116.1 154.38C116 154.28 116 154.18 116.1 154.08C116.1 153.88 116.3 153.88 116.4 153.98L128.7 161.08C128.8 161.08 128.8 161.28 128.8 161.38C128.733 161.447 128.633 161.48 128.5 161.48Z" fill="white"/>
<path d="M128.5 160.38C128.5 160.38 128.467 160.38 128.4 160.38L116.1 153.28C116 153.18 116 153.08 116.1 152.98C116.1 152.78 116.3 152.78 116.4 152.88L128.7 159.88C128.8 159.98 128.8 160.18 128.8 160.28C128.733 160.347 128.633 160.38 128.5 160.38Z" fill="white"/>
<path d="M128.5 159.38C128.5 159.38 128.467 159.38 128.4 159.38L116.1 152.28C116 152.18 116 151.98 116.1 151.88C116.1 151.78 116.3 151.78 116.4 151.78L128.7 158.88C128.8 158.98 128.8 159.08 128.8 159.28C128.733 159.347 128.633 159.38 128.5 159.38Z" fill="white"/>
<path d="M128.5 158.28C128.5 158.28 128.467 158.247 128.4 158.18L116.1 151.08C116 151.08 116 150.88 116.1 150.78C116.1 150.68 116.3 150.68 116.4 150.68L128.7 157.78C128.8 157.88 128.8 157.98 128.8 158.08C128.733 158.213 128.633 158.28 128.5 158.28Z" fill="white"/>
<path d="M158.063 124.756L161.407 54.563L225.682 92.323V160.386L219.586 164.322L158.063 124.756Z" fill="url(#paint1_linear_260_46725)"/>
<path d="M155.311 126.532V58.4691L219.585 96.2292V164.322L155.311 126.532Z" fill="url(#paint2_linear_260_46725)"/>
<path d="M158.477 63.9734V124.727L216.449 158.817V155.651L161.525 123.366V65.7489L158.477 63.9734Z" fill="#5454AE"/>
<path d="M161.525 65.7488V123.365L216.449 155.651V98.0343L161.525 65.7488Z" fill="url(#paint3_linear_260_46725)"/>
<path d="M161.407 54.5629L155.311 58.4691L219.585 96.2291L225.682 92.3229L161.407 54.5629Z" fill="url(#paint4_linear_260_46725)"/>
<path d="M161.525 123.366L158.477 124.727L216.449 158.817V155.651L161.525 123.366Z" fill="url(#paint5_linear_260_46725)"/>
<path d="M212.75 103.805L212.691 142.038L163.36 170.388L163.42 132.184L212.75 103.805Z" fill="url(#paint6_linear_260_46725)"/>
<path d="M163.42 132.184L163.36 170.388L114 141.713L114.059 103.479L163.42 132.184Z" fill="url(#paint7_linear_260_46725)"/>
<path d="M212.751 103.805L163.42 132.184L114.06 103.479L163.39 75.1296L212.751 103.805Z" fill="url(#paint8_linear_260_46725)"/>
<path d="M117.758 103.509L140.574 116.766L163.36 103.657L186.206 116.944L209.022 103.805L163.36 77.2603L117.758 103.509Z" fill="url(#paint9_linear_260_46725)"/>
<path d="M140.574 116.766L163.42 130.024L186.206 116.944L163.36 103.657L140.574 116.766Z" fill="#5454AE"/>
<path d="M163.36 77.2603V103.657L186.206 116.944L209.022 103.805L163.36 77.2603Z" fill="url(#paint10_linear_260_46725)"/>
<path d="M147.676 138.458L147.647 146.596L145.368 147.898L145.398 139.76L147.676 138.458Z" fill="#5454AE"/>
<path d="M145.398 139.76L145.368 147.898L123.618 135.41L123.647 127.301L145.398 139.76Z" fill="#9A9ADB"/>
<path d="M147.677 138.458L145.398 139.76L123.647 127.301L125.926 125.999L147.677 138.458Z" fill="#B1B1E5"/>
<path d="M154.808 97.6792V25L200.854 52.0772V124.727L198.871 125.999L154.808 97.6792Z" fill="#7C7CD6"/>
<path d="M152.855 98.9221V26.2725L198.871 53.32V125.999L152.855 98.9221Z" fill="#EEEEFF"/>
<path d="M196.682 122.152V54.5926L155.045 30.09V97.6793L196.682 122.152Z" fill="white"/>
<path d="M157.62 42.0453L194.107 63.4703V64.802L157.62 43.377V42.0453Z" fill="#EEEEFF"/>
<path d="M157.62 87.5291L194.107 108.984V110.315L157.62 88.8607V87.5291Z" fill="#EEEEFF"/>
<path d="M176.381 76.4023V59.1498L157.797 48.2598V65.4826L176.381 76.4023Z" fill="#F9BB41"/>
<path d="M192.065 70.9572L180.494 64.0917C180.05 63.8254 179.695 63.2631 179.695 62.8193C179.695 62.405 180.05 62.257 180.494 62.5233L192.065 69.3888C192.479 69.6255 192.834 70.1878 192.834 70.6317C192.834 71.0756 192.479 71.1939 192.065 70.9572Z" fill="#F9BB41"/>
<path d="M192.065 74.9228L180.494 68.0574C180.05 67.791 179.695 67.2288 179.695 66.7849C179.695 66.3706 180.05 66.2226 180.494 66.4594L192.065 73.3544C192.479 73.5912 192.834 74.1534 192.834 74.5973C192.834 75.0412 192.479 75.1596 192.065 74.9228Z" fill="#C6C6ED"/>
<path d="M192.065 78.8881L180.494 72.0226C180.05 71.7563 179.695 71.194 179.695 70.7501C179.695 70.3358 180.05 70.1879 180.494 70.4246L192.065 77.3197C192.479 77.5564 192.834 78.1187 192.834 78.5626C192.834 78.9769 192.479 79.1248 192.065 78.8881Z" fill="#C6C6ED"/>
<path d="M192.065 82.8535L180.494 75.9881C180.05 75.7217 179.695 75.1595 179.695 74.7156C179.695 74.3013 180.05 74.1533 180.494 74.3901L192.065 81.2851C192.479 81.5219 192.834 82.0841 192.834 82.528C192.834 82.9423 192.479 83.0903 192.065 82.8535Z" fill="#C6C6ED"/>
<path d="M170.137 80.486L158.596 73.6206C158.152 73.3838 157.797 72.8216 157.797 72.3777C157.797 71.9338 158.152 71.8154 158.596 72.0522L170.137 78.9176C170.581 79.184 170.936 79.7462 170.936 80.1901C170.936 80.6044 170.581 80.7524 170.137 80.486Z" fill="#F9BB41"/>
<path d="M170.137 84.4516L158.596 77.5861C158.152 77.3493 157.797 76.7871 157.797 76.3432C157.797 75.8993 158.152 75.7809 158.596 76.0177L170.137 82.8831C170.581 83.1495 170.936 83.7117 170.936 84.1556C170.936 84.5699 170.581 84.7179 170.137 84.4516Z" fill="#C6C6ED"/>
<path d="M170.137 88.4169L158.596 81.5514C158.152 81.3147 157.797 80.7525 157.797 80.3086C157.797 79.8647 158.152 79.7167 158.596 79.983L170.137 86.8485C170.581 87.1148 170.936 87.6771 170.936 88.121C170.936 88.5353 170.581 88.6832 170.137 88.4169Z" fill="#C6C6ED"/>
<path d="M170.137 92.3822L158.596 85.5167C158.152 85.28 157.797 84.6881 157.797 84.2738C157.797 83.8299 158.152 83.682 158.596 83.9483L170.137 90.8138C170.581 91.0801 170.936 91.6424 170.936 92.0863C170.936 92.5006 170.581 92.6485 170.137 92.3822Z" fill="#C6C6ED"/>
<path d="M190.171 92.3821L178.6 85.5167C178.186 85.2799 177.831 84.6881 177.831 84.2738C177.831 83.8299 178.186 83.6819 178.6 83.9483L190.171 90.8137C190.585 91.0801 190.941 91.6423 190.941 92.0862C190.941 92.5005 190.585 92.6485 190.171 92.3821Z" fill="#F9BB41"/>
<path d="M190.171 96.3475L178.6 89.4821C178.186 89.2453 177.831 88.6535 177.831 88.2392C177.831 87.7953 178.186 87.6473 178.6 87.9136L190.171 94.7791C190.585 95.0454 190.941 95.6077 190.941 96.022C190.941 96.4659 190.585 96.6138 190.171 96.3475Z" fill="#C6C6ED"/>
<path d="M190.171 100.313L178.6 93.4476C178.186 93.1812 177.831 92.619 177.831 92.2047C177.831 91.7608 178.186 91.6128 178.6 91.8792L190.171 98.7446C190.585 99.011 190.941 99.5732 190.941 99.9875C190.941 100.431 190.585 100.579 190.171 100.313Z" fill="#C6C6ED"/>
<path d="M190.171 104.278L178.6 97.4128C178.186 97.1465 177.831 96.5842 177.831 96.1699C177.831 95.7261 178.186 95.5781 178.6 95.8444L190.171 102.71C190.585 102.976 190.941 103.538 190.941 103.953C190.941 104.397 190.585 104.545 190.171 104.278Z" fill="#C6C6ED"/>
<path d="M179.429 107.208L167.888 100.343C167.444 100.106 167.089 99.5437 167.089 99.0998C167.089 98.6559 167.444 98.508 167.888 98.7743L179.429 105.64C179.873 105.906 180.228 106.468 180.228 106.912C180.228 107.327 179.873 107.475 179.429 107.208Z" fill="#C6C6ED"/>
<path d="M185.91 55.5691L165.817 43.6433C165.077 43.1994 164.456 42.2229 164.456 41.483C164.456 40.7136 165.077 40.4769 165.817 40.9208L185.91 52.8466C186.65 53.2905 187.271 54.267 187.271 55.0068C187.271 55.7762 186.65 56.013 185.91 55.5691Z" fill="#F9BB41"/>
<path d="M154.808 25L152.855 26.2725L198.871 53.3201L200.854 52.0772L154.808 25Z" fill="#B1B1E5"/>
<path d="M141.313 109.812V37.1331L187.359 64.2102V136.86L185.406 138.132L141.313 109.812Z" fill="#7C7CD6"/>
<path d="M139.36 111.055V38.4055L185.406 65.4531V138.132L139.36 111.055Z" fill="#EEEEFF"/>
<path d="M183.217 134.285V66.7254L141.55 42.2228V109.812L183.217 134.285Z" fill="white"/>
<path d="M144.155 54.1784L180.613 75.6034V76.9351L144.155 55.4805V54.1784Z" fill="#EEEEFF"/>
<path d="M144.155 99.662L180.613 121.117V122.448L144.155 100.994V99.662Z" fill="#EEEEFF"/>
<path d="M162.887 88.5353V71.2829L144.332 60.3928V77.6157L162.887 88.5353Z" fill="#F9BB41"/>
<path d="M178.571 83.0903L167.029 76.2248C166.586 75.9585 166.23 75.3962 166.23 74.9524C166.23 74.5381 166.586 74.3901 167.029 74.6268L178.571 81.5219C179.014 81.7586 179.37 82.3209 179.37 82.7648C179.37 83.2087 179.014 83.327 178.571 83.0903Z" fill="#F07554"/>
<path d="M178.571 87.0555L167.029 80.19C166.586 79.9237 166.23 79.3615 166.23 78.9176C166.23 78.5033 166.586 78.3553 167.029 78.592L178.571 85.4871C179.014 85.7239 179.37 86.2861 179.37 86.73C179.37 87.1443 179.014 87.2923 178.571 87.0555Z" fill="#C6C6ED"/>
<path d="M178.571 91.021L167.029 84.1259C166.586 83.8892 166.23 83.3269 166.23 82.883C166.23 82.4687 166.586 82.3208 167.029 82.5575L178.571 89.423C179.014 89.6893 179.37 90.2516 179.37 90.6954C179.37 91.1097 179.014 91.2577 178.571 91.021Z" fill="#C6C6ED"/>
<path d="M178.571 94.9865L167.029 88.0914C166.586 87.8547 166.23 87.2924 166.23 86.8485C166.23 86.4342 166.586 86.2863 167.029 86.523L178.571 93.3885C179.014 93.6548 179.37 94.2171 179.37 94.661C179.37 95.0753 179.014 95.2232 178.571 94.9865Z" fill="#C6C6ED"/>
<path d="M156.672 92.619L145.101 85.7535C144.687 85.5168 144.332 84.9545 144.332 84.5106C144.332 84.0668 144.687 83.9188 145.101 84.1851L156.672 91.0506C157.116 91.3169 157.471 91.8792 157.471 92.3231C157.471 92.7374 157.116 92.8853 156.672 92.619Z" fill="#F9BB41"/>
<path d="M156.672 96.5843L145.101 89.7188C144.687 89.4821 144.332 88.9198 144.332 88.4759C144.332 88.032 144.687 87.8841 145.101 88.1504L156.672 95.0159C157.116 95.2822 157.471 95.8445 157.471 96.2883C157.471 96.7026 157.116 96.8506 156.672 96.5843Z" fill="#C6C6ED"/>
<path d="M156.672 100.55L145.101 93.6843C144.687 93.4475 144.332 92.8557 144.332 92.4414C144.332 91.9975 144.687 91.8495 145.101 92.1159L156.672 98.9813C157.116 99.2477 157.471 99.8099 157.471 100.254C157.471 100.668 157.116 100.816 156.672 100.55Z" fill="#C6C6ED"/>
<path d="M156.672 104.515L145.101 97.6497C144.687 97.3834 144.332 96.8211 144.332 96.4068C144.332 95.9629 144.687 95.815 145.101 96.0813L156.672 102.947C157.116 103.213 157.471 103.775 157.471 104.19C157.471 104.634 157.116 104.782 156.672 104.515Z" fill="#C6C6ED"/>
<path d="M176.676 104.515L165.135 97.6497C164.692 97.3834 164.336 96.8211 164.336 96.4068C164.336 95.9629 164.692 95.815 165.135 96.0813L176.676 102.947C177.12 103.213 177.476 103.775 177.476 104.19C177.476 104.634 177.12 104.782 176.676 104.515Z" fill="#F9BB41"/>
<path d="M176.676 108.481L165.135 101.615C164.692 101.349 164.336 100.787 164.336 100.372C164.336 99.9283 164.692 99.7804 165.135 100.047L176.676 106.912C177.12 107.179 177.476 107.741 177.476 108.155C177.476 108.599 177.12 108.747 176.676 108.481Z" fill="#C6C6ED"/>
<path d="M176.676 112.446L165.135 105.58C164.692 105.314 164.336 104.752 164.336 104.338C164.336 103.894 164.692 103.746 165.135 104.012L176.676 110.878C177.12 111.144 177.476 111.706 177.476 112.12C177.476 112.564 177.12 112.712 176.676 112.446Z" fill="#C6C6ED"/>
<path d="M176.676 116.411L165.135 109.546C164.692 109.28 164.336 108.717 164.336 108.303C164.336 107.859 164.692 107.711 165.135 107.977L176.676 114.843C177.12 115.109 177.476 115.672 177.476 116.086C177.476 116.53 177.12 116.678 176.676 116.411Z" fill="#C6C6ED"/>
<path d="M165.965 119.341L154.394 112.476C153.98 112.239 153.625 111.647 153.625 111.233C153.625 110.789 153.98 110.641 154.394 110.907L165.965 117.773C166.379 118.039 166.734 118.601 166.734 119.016C166.734 119.459 166.379 119.607 165.965 119.341Z" fill="#C6C6ED"/>
<path d="M141.313 37.1331L139.36 38.4055L185.406 65.4531L187.359 64.2102L141.313 37.1331Z" fill="#B1B1E5"/>
<path d="M183.217 66.7254L141.55 42.2228V50.3312L183.217 74.8338V66.7254Z" fill="#F07554"/>
<path d="M127.849 139.109V66.4294L173.895 93.5066V166.156L171.912 167.429L127.849 139.109Z" fill="#7C7CD6"/>
<path d="M125.896 140.352V67.7019L171.912 94.7495V167.429L125.896 140.352Z" fill="#EEEEFF"/>
<path d="M169.723 163.582V96.022L128.086 71.5194V139.109L169.723 163.582Z" fill="white"/>
<path d="M130.66 83.4748L167.148 104.9V106.231L130.66 84.8065V83.4748Z" fill="#EEEEFF"/>
<path d="M130.66 128.958L167.148 150.413V151.745L130.66 130.29V128.958Z" fill="#EEEEFF"/>
<path d="M149.422 117.832V100.609L130.838 89.6892V106.942L149.422 117.832Z" fill="#F9BB41"/>
<path d="M165.106 112.387L153.535 105.521C153.121 105.255 152.766 104.693 152.766 104.249C152.766 103.834 153.121 103.686 153.535 103.953L165.106 110.818C165.52 111.055 165.876 111.617 165.876 112.061C165.876 112.505 165.52 112.623 165.106 112.387Z" fill="#F9BB41"/>
<path d="M165.106 116.352L153.535 109.487C153.121 109.22 152.766 108.658 152.766 108.214C152.766 107.8 153.121 107.652 153.535 107.918L165.106 114.784C165.52 115.02 165.876 115.583 165.876 116.027C165.876 116.47 165.52 116.589 165.106 116.352Z" fill="#C6C6ED"/>
<path d="M165.106 120.317L153.535 113.452C153.121 113.186 152.766 112.623 152.766 112.179C152.766 111.765 153.121 111.617 153.535 111.854L165.106 118.749C165.52 118.986 165.876 119.548 165.876 119.992C165.876 120.436 165.52 120.554 165.106 120.317Z" fill="#C6C6ED"/>
<path d="M165.106 124.283L153.535 117.417C153.121 117.151 152.766 116.589 152.766 116.145C152.766 115.731 153.121 115.583 153.535 115.819L165.106 122.715C165.52 122.951 165.876 123.514 165.876 123.957C165.876 124.372 165.52 124.52 165.106 124.283Z" fill="#C6C6ED"/>
<path d="M143.208 121.915L131.637 115.05C131.193 114.813 130.838 114.251 130.838 113.807C130.838 113.363 131.193 113.245 131.637 113.482L143.208 120.347C143.622 120.613 143.977 121.176 143.977 121.62C143.977 122.034 143.622 122.182 143.208 121.915Z" fill="#F9BB41"/>
<path d="M143.208 125.881L131.637 119.015C131.193 118.778 130.838 118.216 130.838 117.772C130.838 117.328 131.193 117.21 131.637 117.447L143.208 124.312C143.622 124.579 143.977 125.141 143.977 125.585C143.977 125.999 143.622 126.147 143.208 125.881Z" fill="#C6C6ED"/>
<path d="M143.208 129.846L131.637 122.981C131.193 122.744 130.838 122.182 130.838 121.738C130.838 121.294 131.193 121.176 131.637 121.412L143.208 128.278C143.622 128.544 143.977 129.106 143.977 129.55C143.977 129.965 143.622 130.112 143.208 129.846Z" fill="#C6C6ED"/>
<path d="M143.208 133.812L131.637 126.946C131.193 126.709 130.838 126.147 130.838 125.703C130.838 125.259 131.193 125.111 131.637 125.378L143.208 132.243C143.622 132.509 143.977 133.072 143.977 133.516C143.977 133.93 143.622 134.078 143.208 133.812Z" fill="#C6C6ED"/>
<path d="M163.212 133.812L151.642 126.946C151.227 126.709 150.872 126.147 150.872 125.703C150.872 125.259 151.227 125.111 151.642 125.378L163.212 132.243C163.626 132.51 163.982 133.072 163.982 133.516C163.982 133.93 163.626 134.078 163.212 133.812Z" fill="#F9BB41"/>
<path d="M163.212 137.777L151.642 130.912C151.227 130.675 150.872 130.083 150.872 129.669C150.872 129.225 151.227 129.077 151.642 129.343L163.212 136.209C163.626 136.475 163.982 137.037 163.982 137.481C163.982 137.896 163.626 138.043 163.212 137.777Z" fill="#C6C6ED"/>
<path d="M163.212 141.743L151.642 134.877C151.227 134.64 150.872 134.049 150.872 133.634C150.872 133.19 151.227 133.042 151.642 133.309L163.212 140.174C163.626 140.441 163.982 141.003 163.982 141.417C163.982 141.861 163.626 142.009 163.212 141.743Z" fill="#C6C6ED"/>
<path d="M163.212 145.708L151.642 138.842C151.227 138.576 150.872 138.014 150.872 137.6C150.872 137.156 151.227 137.008 151.642 137.274L163.212 144.139C163.626 144.406 163.982 144.968 163.982 145.382C163.982 145.826 163.626 145.974 163.212 145.708Z" fill="#C6C6ED"/>
<path d="M152.47 148.638L140.929 141.772C140.485 141.535 140.13 140.973 140.13 140.529C140.13 140.085 140.485 139.967 140.929 140.204L152.47 147.069C152.914 147.336 153.269 147.898 153.269 148.342C153.269 148.756 152.914 148.904 152.47 148.638Z" fill="#C6C6ED"/>
<path d="M158.951 96.9985L138.857 85.0727C138.118 84.6289 137.496 83.6523 137.496 82.9125C137.496 82.1431 138.118 81.9063 138.857 82.3502L158.951 94.276C159.69 94.7199 160.312 95.6965 160.312 96.4659C160.312 97.2057 159.69 97.4424 158.951 96.9985Z" fill="#F9BB41"/>
<path d="M127.849 66.4296L125.896 67.702L171.912 94.7496L173.895 93.5067L127.849 66.4296Z" fill="#B1B1E5"/>
<path d="M126.961 136.653C126.921 136.692 126.882 136.722 126.842 136.741C126.803 136.761 126.763 136.791 126.724 136.83C126.685 136.85 126.645 136.87 126.606 136.889C126.566 136.929 126.537 136.958 126.517 136.978C126.497 136.998 126.477 137.017 126.458 137.037C126.398 137.096 126.349 137.156 126.31 137.215C126.29 137.235 126.27 137.254 126.251 137.274C126.211 137.313 126.181 137.353 126.162 137.392C126.142 137.412 126.132 137.442 126.132 137.481C126.112 137.521 126.093 137.55 126.073 137.57C126.053 137.609 126.043 137.639 126.043 137.659C126.024 137.698 126.014 137.738 126.014 137.777C125.994 137.797 125.984 137.826 125.984 137.866C125.984 137.905 125.974 137.935 125.955 137.955C125.955 137.994 125.955 138.034 125.955 138.073V135.765C125.955 135.745 125.955 135.735 125.955 135.735C125.974 135.715 125.984 135.686 125.984 135.646C125.984 135.607 125.984 135.577 125.984 135.558C125.984 135.538 125.984 135.528 125.984 135.528C125.984 135.508 125.994 135.489 126.014 135.469C126.014 135.429 126.024 135.39 126.043 135.35C126.043 135.35 126.043 135.341 126.043 135.321C126.063 135.301 126.073 135.281 126.073 135.262C126.093 135.222 126.112 135.193 126.132 135.173C126.132 135.153 126.132 135.143 126.132 135.143C126.152 135.124 126.162 135.104 126.162 135.084C126.201 135.045 126.231 135.005 126.251 134.966C126.251 134.946 126.26 134.936 126.28 134.936C126.28 134.916 126.29 134.907 126.31 134.907C126.349 134.847 126.398 134.788 126.458 134.729C126.477 134.729 126.487 134.719 126.487 134.699C126.487 134.699 126.497 134.69 126.517 134.67C126.556 134.65 126.586 134.621 126.606 134.581C126.645 134.561 126.685 134.542 126.724 134.522C126.763 134.482 126.803 134.453 126.842 134.433C126.862 134.413 126.892 134.394 126.931 134.374C126.951 134.374 126.961 134.364 126.961 134.344L129.091 133.072V135.38L126.961 136.653Z" fill="#5454AE"/>
<path d="M123.203 135.705C123.203 136.534 123.735 137.363 124.83 137.984L131.311 141.683C131.429 141.762 131.558 141.831 131.696 141.89C131.755 141.91 131.804 141.93 131.844 141.949C131.942 141.989 132.041 142.028 132.14 142.068C132.317 142.147 132.505 142.216 132.702 142.275C132.781 142.295 132.85 142.305 132.909 142.305C133.027 142.344 133.136 142.374 133.235 142.393C133.313 142.413 133.392 142.433 133.471 142.453C133.57 142.472 133.669 142.492 133.767 142.512C133.846 142.512 133.925 142.522 134.004 142.541C134.103 142.541 134.201 142.551 134.3 142.571C134.379 142.571 134.458 142.581 134.537 142.601C134.635 142.601 134.734 142.601 134.833 142.601C134.911 142.601 134.99 142.601 135.069 142.601C135.168 142.601 135.267 142.601 135.365 142.601C135.444 142.601 135.523 142.601 135.602 142.601C135.74 142.601 135.868 142.591 135.987 142.571C136.046 142.571 136.105 142.571 136.164 142.571C136.381 142.531 136.598 142.502 136.815 142.482C136.874 142.462 136.934 142.443 136.993 142.423C137.111 142.403 137.22 142.383 137.318 142.364C137.377 142.344 137.447 142.324 137.525 142.305C137.624 142.285 137.723 142.255 137.821 142.216C137.861 142.196 137.91 142.186 137.969 142.186C138.107 142.127 138.255 142.068 138.413 142.009C138.453 141.989 138.502 141.969 138.561 141.949C138.739 141.871 138.906 141.782 139.064 141.683L141.55 140.204L141.52 142.512L139.064 143.991C138.906 144.09 138.739 144.179 138.561 144.258C138.502 144.277 138.443 144.297 138.384 144.317C138.246 144.376 138.107 144.435 137.969 144.494C137.93 144.494 137.89 144.504 137.851 144.524C137.831 144.524 137.811 144.524 137.792 144.524C137.713 144.563 137.624 144.593 137.525 144.613C137.447 144.633 137.377 144.652 137.318 144.672C137.2 144.692 137.091 144.711 136.993 144.731C136.934 144.751 136.874 144.771 136.815 144.79C136.815 144.79 136.805 144.79 136.786 144.79C136.588 144.83 136.381 144.859 136.164 144.879C136.144 144.879 136.135 144.879 136.135 144.879C136.075 144.879 136.026 144.879 135.987 144.879C135.848 144.899 135.72 144.909 135.602 144.909C135.582 144.909 135.553 144.909 135.513 144.909C135.474 144.909 135.424 144.909 135.365 144.909C135.267 144.909 135.168 144.909 135.069 144.909C135.03 144.909 134.99 144.909 134.951 144.909C134.911 144.909 134.862 144.909 134.803 144.909C134.724 144.909 134.635 144.909 134.537 144.909C134.497 144.909 134.458 144.899 134.418 144.879C134.359 144.879 134.31 144.879 134.27 144.879C134.191 144.859 134.103 144.85 134.004 144.85C133.964 144.85 133.925 144.84 133.886 144.82C133.846 144.82 133.807 144.82 133.767 144.82C133.669 144.8 133.57 144.78 133.471 144.761C133.432 144.761 133.382 144.751 133.323 144.731C133.304 144.731 133.274 144.721 133.235 144.702C133.116 144.682 133.008 144.662 132.909 144.642C132.85 144.623 132.8 144.603 132.761 144.583C132.741 144.583 132.722 144.583 132.702 144.583C132.505 144.524 132.307 144.455 132.11 144.376C132.11 144.376 132.1 144.376 132.08 144.376C132.001 144.337 131.923 144.297 131.844 144.258C131.804 144.238 131.755 144.218 131.696 144.199C131.558 144.139 131.42 144.07 131.281 143.991L124.83 140.292C123.735 139.671 123.203 138.842 123.203 138.043V135.705Z" fill="url(#paint11_linear_260_46725)"/>
<path d="M141.55 140.204L139.064 141.683C136.934 142.926 133.471 142.926 131.311 141.683L124.83 137.984C122.67 136.741 122.67 134.729 124.801 133.486L127.257 132.007L129.092 133.072L126.961 134.344C125.629 135.143 125.629 136.386 126.991 137.185L132.672 140.44C134.034 141.21 136.224 141.21 137.585 140.44L139.715 139.168L141.55 140.204Z" fill="#B1B1E5"/>
<g filter="url(#filter1_i_260_46725)">
<path d="M239.168 45.3618C240.927 46.3003 241.807 47.5303 241.807 48.7603L241.807 175.187C241.807 173.958 240.927 172.728 239.168 171.79V45.3618Z" fill="#FFE4D4" fill-opacity="0.1"/>
</g>
<path d="M241.557 48.7603V48.7603C241.557 47.7429 240.882 46.6715 239.418 45.7906V171.641C240.397 172.185 241.118 172.831 241.557 173.533V48.7603Z" stroke="white" stroke-width="0.5"/>
<g filter="url(#filter2_i_260_46725)">
<path d="M241.807 48.7596C241.807 49.9893 240.927 51.219 239.168 52.1572V178.585C240.927 177.647 241.807 176.417 241.807 175.188V48.7596Z" fill="#FFE4D4" fill-opacity="0.1"/>
</g>
<path d="M239.418 178.156C240.882 177.276 241.557 176.205 241.557 175.188V50.4143C241.118 51.1158 240.397 51.7621 239.418 52.3058V178.156Z" stroke="#FFE4D4" stroke-width="0.5"/>
<g filter="url(#filter3_i_260_46725)">
<path d="M44.3618 65.2956C42.6023 64.3574 41.7224 63.1277 41.7222 61.898V188.325C41.722 189.555 42.6018 190.785 44.3618 191.724V65.2956Z" fill="#FFE4D4" fill-opacity="0.1"/>
</g>
<path d="M44.1118 65.4442C43.1325 64.9005 42.411 64.2542 41.9722 63.5527V188.325C41.972 189.343 42.6473 190.414 44.1118 191.295V65.4442Z" stroke="white" stroke-width="0.5"/>
<g filter="url(#filter4_i_260_46725)">
<path d="M239.157 52.1573L135.805 107.268V233.696L239.157 178.585V52.1573Z" fill="#FFE4D4" fill-opacity="0.1"/>
</g>
<path d="M238.907 178.435V52.574L136.055 107.418V233.279L238.907 178.435Z" stroke="#FFE4D4" stroke-width="0.5"/>
<g filter="url(#filter5_i_260_46725)">
<path d="M123.076 107.269L44.3634 65.2974V191.725L123.076 233.697V107.269Z" fill="#FFE4D4" fill-opacity="0.1"/>
</g>
<path d="M122.826 233.281V107.419L44.6134 65.7141V191.575L122.826 233.281Z" stroke="#FFE4D4" stroke-width="0.5"/>
<g filter="url(#filter6_i_260_46725)">
<path d="M135.81 107.269C132.291 109.146 126.584 109.146 123.065 107.269V233.697C126.584 235.574 132.291 235.574 135.81 233.697V107.269Z" fill="#FFE4D4" fill-opacity="0.1"/>
</g>
<path d="M135.56 233.546V107.675C133.81 108.513 131.618 108.927 129.437 108.927C127.257 108.927 125.065 108.513 123.315 107.675V233.546C125.013 234.414 127.218 234.855 129.437 234.855C131.656 234.855 133.862 234.414 135.56 233.546Z" stroke="#FFE4D4" stroke-width="0.5"/>
<g filter="url(#filter7_i_260_46725)">
<rect width="131.571" height="103.647" rx="7.86205" transform="matrix(-0.882391 0.470517 0.882391 0.470517 154.097 0)" fill="#FFE4D4" fill-opacity="0.1"/>
</g>
<rect x="1.49012e-08" y="0.235259" width="131.071" height="103.147" rx="7.61205" transform="matrix(-0.882391 0.470517 0.882391 0.470517 153.89 0.124565)" stroke="#FFE4D4" stroke-width="0.5"/>
<defs>
<filter id="filter0_f_260_46725" x="0.130302" y="60.1833" width="301.067" height="259.755" filterUnits="userSpaceOnUse" color-interpolation-filters="sRGB">
<feFlood flood-opacity="0" result="BackgroundImageFix"/>
<feBlend mode="normal" in="SourceGraphic" in2="BackgroundImageFix" result="shape"/>
<feGaussianBlur stdDeviation="37.2456" result="effect1_foregroundBlur_260_46725"/>
</filter>
<filter id="filter1_i_260_46725" x="239.167" y="45.3618" width="2.63965" height="129.826" filterUnits="userSpaceOnUse" color-interpolation-filters="sRGB">
<feFlood flood-opacity="0" result="BackgroundImageFix"/>
<feBlend mode="normal" in="SourceGraphic" in2="BackgroundImageFix" result="shape"/>
<feColorMatrix in="SourceAlpha" type="matrix" values="0 0 0 0 0 0 0 0 0 0 0 0 0 0 0 0 0 0 127 0" result="hardAlpha"/>
<feOffset/>
<feGaussianBlur stdDeviation="9.0843"/>
<feComposite in2="hardAlpha" operator="arithmetic" k2="-1" k3="1"/>
<feColorMatrix type="matrix" values="0 0 0 0 1 0 0 0 0 1 0 0 0 0 1 0 0 0 1 0"/>
<feBlend mode="normal" in2="shape" result="effect1_innerShadow_260_46725"/>
</filter>
<filter id="filter2_i_260_46725" x="239.167" y="48.7596" width="2.63965" height="129.826" filterUnits="userSpaceOnUse" color-interpolation-filters="sRGB">
<feFlood flood-opacity="0" result="BackgroundImageFix"/>
<feBlend mode="normal" in="SourceGraphic" in2="BackgroundImageFix" result="shape"/>
<feColorMatrix in="SourceAlpha" type="matrix" values="0 0 0 0 0 0 0 0 0 0 0 0 0 0 0 0 0 0 127 0" result="hardAlpha"/>
<feOffset/>
<feGaussianBlur stdDeviation="9.0843"/>
<feComposite in2="hardAlpha" operator="arithmetic" k2="-1" k3="1"/>
<feColorMatrix type="matrix" values="0 0 0 0 1 0 0 0 0 1 0 0 0 0 1 0 0 0 1 0"/>
<feBlend mode="normal" in2="shape" result="effect1_innerShadow_260_46725"/>
</filter>
<filter id="filter3_i_260_46725" x="41.7222" y="61.898" width="2.63965" height="129.826" filterUnits="userSpaceOnUse" color-interpolation-filters="sRGB">
<feFlood flood-opacity="0" result="BackgroundImageFix"/>
<feBlend mode="normal" in="SourceGraphic" in2="BackgroundImageFix" result="shape"/>
<feColorMatrix in="SourceAlpha" type="matrix" values="0 0 0 0 0 0 0 0 0 0 0 0 0 0 0 0 0 0 127 0" result="hardAlpha"/>
<feOffset/>
<feGaussianBlur stdDeviation="9.0843"/>
<feComposite in2="hardAlpha" operator="arithmetic" k2="-1" k3="1"/>
<feColorMatrix type="matrix" values="0 0 0 0 1 0 0 0 0 1 0 0 0 0 1 0 0 0 1 0"/>
<feBlend mode="normal" in2="shape" result="effect1_innerShadow_260_46725"/>
</filter>
<filter id="filter4_i_260_46725" x="135.805" y="52.1573" width="103.352" height="181.538" filterUnits="userSpaceOnUse" color-interpolation-filters="sRGB">
<feFlood flood-opacity="0" result="BackgroundImageFix"/>
<feBlend mode="normal" in="SourceGraphic" in2="BackgroundImageFix" result="shape"/>
<feColorMatrix in="SourceAlpha" type="matrix" values="0 0 0 0 0 0 0 0 0 0 0 0 0 0 0 0 0 0 127 0" result="hardAlpha"/>
<feOffset/>
<feGaussianBlur stdDeviation="9.0843"/>
<feComposite in2="hardAlpha" operator="arithmetic" k2="-1" k3="1"/>
<feColorMatrix type="matrix" values="0 0 0 0 1 0 0 0 0 1 0 0 0 0 1 0 0 0 1 0"/>
<feBlend mode="normal" in2="shape" result="effect1_innerShadow_260_46725"/>
</filter>
<filter id="filter5_i_260_46725" x="44.3633" y="65.2974" width="78.7124" height="168.4" filterUnits="userSpaceOnUse" color-interpolation-filters="sRGB">
<feFlood flood-opacity="0" result="BackgroundImageFix"/>
<feBlend mode="normal" in="SourceGraphic" in2="BackgroundImageFix" result="shape"/>
<feColorMatrix in="SourceAlpha" type="matrix" values="0 0 0 0 0 0 0 0 0 0 0 0 0 0 0 0 0 0 127 0" result="hardAlpha"/>
<feOffset/>
<feGaussianBlur stdDeviation="9.0843"/>
<feComposite in2="hardAlpha" operator="arithmetic" k2="-1" k3="1"/>
<feColorMatrix type="matrix" values="0 0 0 0 1 0 0 0 0 1 0 0 0 0 1 0 0 0 1 0"/>
<feBlend mode="normal" in2="shape" result="effect1_innerShadow_260_46725"/>
</filter>
<filter id="filter6_i_260_46725" x="123.065" y="107.269" width="12.7451" height="127.836" filterUnits="userSpaceOnUse" color-interpolation-filters="sRGB">
<feFlood flood-opacity="0" result="BackgroundImageFix"/>
<feBlend mode="normal" in="SourceGraphic" in2="BackgroundImageFix" result="shape"/>
<feColorMatrix in="SourceAlpha" type="matrix" values="0 0 0 0 0 0 0 0 0 0 0 0 0 0 0 0 0 0 127 0" result="hardAlpha"/>
<feOffset/>
<feGaussianBlur stdDeviation="9.0843"/>
<feComposite in2="hardAlpha" operator="arithmetic" k2="-1" k3="1"/>
<feColorMatrix type="matrix" values="0 0 0 0 1 0 0 0 0 1 0 0 0 0 1 0 0 0 1 0"/>
<feBlend mode="normal" in2="shape" result="effect1_innerShadow_260_46725"/>
</filter>
<filter id="filter7_i_260_46725" x="42.064" y="2.16693" width="199.427" height="106.34" filterUnits="userSpaceOnUse" color-interpolation-filters="sRGB">
<feFlood flood-opacity="0" result="BackgroundImageFix"/>
<feBlend mode="normal" in="SourceGraphic" in2="BackgroundImageFix" result="shape"/>
<feColorMatrix in="SourceAlpha" type="matrix" values="0 0 0 0 0 0 0 0 0 0 0 0 0 0 0 0 0 0 127 0" result="hardAlpha"/>
<feOffset/>
<feGaussianBlur stdDeviation="9.0843"/>
<feComposite in2="hardAlpha" operator="arithmetic" k2="-1" k3="1"/>
<feColorMatrix type="matrix" values="0 0 0 0 1 0 0 0 0 1 0 0 0 0 1 0 0 0 1 0"/>
<feBlend mode="normal" in2="shape" result="effect1_innerShadow_260_46725"/>
</filter>
<linearGradient id="paint0_linear_260_46725" x1="97.4199" y1="150.271" x2="166.22" y2="168.707" gradientUnits="userSpaceOnUse">
<stop stop-color="#7BA6FB"/>
<stop offset="1" stop-color="white"/>
</linearGradient>
<linearGradient id="paint1_linear_260_46725" x1="179.659" y1="91.5404" x2="261.21" y2="109.547" gradientUnits="userSpaceOnUse">
<stop stop-color="#7BA6FB"/>
<stop offset="1" stop-color="white"/>
</linearGradient>
<linearGradient id="paint2_linear_260_46725" x1="135.734" y1="96.2621" x2="218.178" y2="58.5503" gradientUnits="userSpaceOnUse">
<stop stop-color="#7BA6FB"/>
<stop offset="1" stop-color="white"/>
</linearGradient>
<linearGradient id="paint3_linear_260_46725" x1="191.5" y1="70.0001" x2="268.55" y2="85.2143" gradientUnits="userSpaceOnUse">
<stop stop-color="#7BA6FB"/>
<stop offset="1" stop-color="white"/>
</linearGradient>
<linearGradient id="paint4_linear_260_46725" x1="133.877" y1="69.4391" x2="242.625" y2="110.421" gradientUnits="userSpaceOnUse">
<stop stop-color="#7BA6FB"/>
<stop offset="1" stop-color="white"/>
</linearGradient>
<linearGradient id="paint5_linear_260_46725" x1="140.82" y1="136.023" x2="231.11" y2="168.967" gradientUnits="userSpaceOnUse">
<stop stop-color="#7BA6FB"/>
<stop offset="1" stop-color="white"/>
</linearGradient>
<linearGradient id="paint6_linear_260_46725" x1="179.135" y1="126.236" x2="237.481" y2="141.748" gradientUnits="userSpaceOnUse">
<stop stop-color="#7BA6FB"/>
<stop offset="1" stop-color="white"/>
</linearGradient>
<linearGradient id="paint7_linear_260_46725" x1="129.784" y1="126.02" x2="188.198" y2="141.484" gradientUnits="userSpaceOnUse">
<stop stop-color="#7BA6FB"/>
<stop offset="1" stop-color="white"/>
</linearGradient>
<linearGradient id="paint8_linear_260_46725" x1="84" y1="95.5" x2="235.59" y2="154.008" gradientUnits="userSpaceOnUse">
<stop stop-color="#7BA6FB"/>
<stop offset="1" stop-color="white"/>
</linearGradient>
<linearGradient id="paint9_linear_260_46725" x1="146.906" y1="90.6295" x2="193.842" y2="173.713" gradientUnits="userSpaceOnUse">
<stop stop-color="#7BA6FB"/>
<stop offset="1" stop-color="white"/>
</linearGradient>
<linearGradient id="paint10_linear_260_46725" x1="177.944" y1="90.6295" x2="232.342" y2="138.807" gradientUnits="userSpaceOnUse">
<stop stop-color="#7BA6FB"/>
<stop offset="1" stop-color="white"/>
</linearGradient>
<linearGradient id="paint11_linear_260_46725" x1="120" y1="129.5" x2="141.569" y2="147.999" gradientUnits="userSpaceOnUse">
<stop stop-color="#7BA6FB"/>
<stop offset="1" stop-color="white"/>
</linearGradient>
</defs>
</svg>
