<svg width="20" height="20" viewBox="0 0 20 20" fill="none" xmlns="http://www.w3.org/2000/svg">
<rect width="20" height="20" rx="5" fill="#28565D"/>
<path opacity="0.5" d="M6.57227 9.00333C6.57227 7.18685 8.01135 5.71429 9.78655 5.71429C11.5618 5.71429 13.0008 7.18685 13.0008 9.00333C13.0008 9.9772 12.5868 10.8525 11.93 11.4543C11.7111 11.6549 11.5489 11.8035 11.434 11.9113C11.3765 11.9652 11.3326 12.0074 11.3001 12.0397C11.284 12.0558 11.2716 12.0685 11.2624 12.0784L11.2519 12.09L11.2483 12.0942C11.147 12.2222 11.125 12.2552 11.112 12.2851C11.0989 12.3151 11.0895 12.3538 11.0639 12.5165C11.0538 12.5807 11.0528 12.6907 11.0528 12.99V13.0029C11.0528 13.1782 11.0528 13.3295 11.0418 13.4536C11.0302 13.5848 11.0044 13.7147 10.9353 13.8372C10.8584 13.9736 10.7477 14.0868 10.6145 14.1655C10.4948 14.2363 10.3678 14.2626 10.2395 14.2745C10.1183 14.2857 9.97046 14.2857 9.79911 14.2857H9.77399C9.60264 14.2857 9.45485 14.2857 9.33357 14.2745C9.20532 14.2626 9.07832 14.2363 8.95863 14.1655C8.82537 14.0868 8.7147 13.9736 8.63776 13.8372C8.56866 13.7147 8.54292 13.5848 8.5313 13.4536C8.52031 13.3295 8.52031 13.1782 8.52032 13.0029V13.0029L8.52032 12.99C8.52032 12.6907 8.51929 12.5807 8.50919 12.5165C8.48362 12.3538 8.47421 12.3151 8.46115 12.2851C8.44808 12.2552 8.42614 12.2222 8.32478 12.0942L8.32118 12.09L8.3107 12.0784C8.30149 12.0685 8.28913 12.0558 8.27296 12.0397C8.24053 12.0074 8.1966 11.9652 8.13913 11.9113C8.02419 11.8035 7.86201 11.6549 7.64309 11.4543C6.98628 10.8525 6.57227 9.9772 6.57227 9.00333Z" fill="white"/>
<path d="M10.4652 13.2892H9.10655C9.10782 13.3308 9.10974 13.3671 9.11264 13.3997C9.12059 13.4895 9.134 13.5221 9.14319 13.5384C9.16884 13.5838 9.20573 13.6216 9.25015 13.6478C9.26607 13.6572 9.29791 13.671 9.38563 13.6791C9.47737 13.6876 9.59842 13.6879 9.78586 13.6879C9.97331 13.6879 10.0944 13.6876 10.1861 13.6791C10.2738 13.671 10.3057 13.6572 10.3216 13.6478C10.366 13.6216 10.4029 13.5838 10.4285 13.5384C10.4377 13.5221 10.4511 13.4895 10.4591 13.3997C10.462 13.3671 10.4639 13.3308 10.4652 13.2892Z" fill="#28565D"/>
<path d="M10.2618 8.36152C10.3931 8.4575 10.4235 8.64424 10.3297 8.77862L9.82487 9.50184H10.4259C10.5353 9.50184 10.6356 9.56443 10.6857 9.66402C10.7358 9.76361 10.7273 9.88349 10.6637 9.97463L9.82878 11.1706C9.73498 11.305 9.55248 11.3361 9.42116 11.2402C9.28984 11.1442 9.25942 10.9574 9.35322 10.8231L9.85807 10.0998H9.25705C9.1476 10.0998 9.04732 10.0372 8.99723 9.93766C8.94715 9.83807 8.95565 9.71819 9.01927 9.62705L9.85415 8.43104C9.94795 8.29666 10.1305 8.26554 10.2618 8.36152Z" fill="#28565D"/>
</svg>
