<svg width="150" height="180" viewBox="0 0 150 180" fill="none" xmlns="http://www.w3.org/2000/svg">
<path fill-rule="evenodd" clip-rule="evenodd" d="M72.0097 93.7279C73.6611 92.7704 76.3388 92.7704 77.9902 93.7279L144.023 132.023L149.97 128.574V136.211C150.119 136.932 149.717 137.685 148.761 138.239L77.9902 179.282C76.3388 180.239 73.6611 180.239 72.0097 179.282L1.23866 138.239C0.138611 137.601 -0.228724 136.699 0.136647 135.885V128.451L6.13637 131.93L72.0097 93.7279Z" fill="#A1C1FF"/>
<path d="M72.0099 86.1941C73.6612 85.2361 76.339 85.2361 77.9903 86.1941L148.761 127.236C150.413 128.194 150.413 129.747 148.761 130.705L77.9903 171.747C76.339 172.705 73.6612 172.705 72.0099 171.747L1.23866 130.705C-0.412883 129.747 -0.412888 128.194 1.23865 127.236L72.0099 86.1941Z" fill="#DFECFE"/>
<path d="M116.117 124.472C121.76 127.89 121.76 133.24 116.262 136.658L85.5887 154.937C79.946 158.355 70.8309 158.355 65.0435 154.937L34.2257 136.658C28.583 133.24 28.583 127.89 34.2257 124.472L64.8988 106.194C70.5415 102.776 79.6566 102.776 85.2993 106.194L116.117 124.472Z" fill="#BCD0F1"/>
<path d="M120.459 112.435H30.031V130.565C30.031 132.794 31.4779 135.023 34.3715 136.657L65.1893 154.936C70.832 158.354 80.0919 158.354 85.7346 154.936L116.408 136.657C119.157 135.023 120.604 132.794 120.604 130.565V112.435H120.459Z" fill="url(#paint0_linear_461_19643)"/>
<path d="M116.117 106.342C121.76 109.76 121.76 115.11 116.262 118.528L85.5887 136.806C79.946 140.224 70.8309 140.224 65.0435 136.806L34.2257 118.528C28.583 115.11 28.583 109.76 34.2257 106.342L64.8988 88.0635C70.5415 84.6455 79.6566 84.6455 85.2993 88.0635L116.117 106.342Z" fill="#FFE4D4"/>
<path d="M75.0267 85.5371V86.2801C78.7885 86.2801 82.261 87.1718 84.8653 88.6579L115.683 106.937C118.143 108.423 119.59 110.354 119.59 112.435C119.59 114.515 118.287 116.447 115.683 117.785L85.1547 136.212C82.5503 137.847 79.0779 138.59 75.3161 138.59C71.5543 138.59 68.0819 137.698 65.4775 136.212L34.6597 117.933C32.2001 116.447 30.7533 114.515 30.7533 112.435C30.7533 110.354 32.0554 108.423 34.6597 106.937L65.3329 88.6579C67.9372 87.0232 71.4096 86.2801 75.1714 86.2801V85.5371M75.0267 85.5371C71.2649 85.5371 67.6478 86.4288 64.7541 88.0634L34.2257 106.342C28.583 109.76 28.583 115.11 34.2257 118.528L65.0435 136.806C67.9372 138.441 71.5543 139.333 75.3161 139.333C79.0779 139.333 82.695 138.441 85.5887 136.806L116.262 118.528C121.905 115.11 121.905 109.76 116.117 106.342L85.2993 88.0634C82.5503 86.4288 78.7885 85.5371 75.0267 85.5371Z" fill="url(#paint1_linear_461_19643)"/>
<g opacity="0.5">
<path d="M75.1766 92.3734C78.0703 92.3734 80.6747 92.9678 82.7003 94.3053L105.994 108.126C108.02 109.315 109.033 110.801 109.033 112.435C109.033 114.07 108.02 115.556 105.994 116.745L82.845 130.565C80.8194 131.754 78.215 132.497 75.3213 132.497C72.4276 132.497 69.8234 131.903 67.7978 130.565L44.5035 116.745C42.478 115.556 41.4652 114.07 41.4652 112.435C41.4652 110.801 42.478 109.315 44.5035 108.126L67.6531 94.3053C69.6787 93.1164 72.283 92.3734 75.1766 92.3734ZM75.1766 92.0762C72.4276 92.0762 69.534 92.6706 67.5084 94.0081L44.3588 107.828C40.0183 110.355 40.163 114.516 44.3588 117.042L67.6531 130.863C69.8233 132.2 72.5723 132.794 75.466 132.794C78.215 132.794 81.1087 132.2 83.279 130.863L106.429 117.042C110.624 114.516 110.624 110.355 106.429 107.828L83.1343 94.0081C80.6747 92.6706 77.9257 92.0762 75.1766 92.0762Z" fill="url(#paint2_linear_461_19643)"/>
</g>
<path d="M88.6348 140.671C87.9114 141.116 87.4773 142.008 87.4773 142.9V147.061C87.4773 147.804 88.0561 148.25 88.7795 147.804L112.074 133.983C112.797 133.538 113.231 132.646 113.231 131.754V127.593C113.231 126.85 112.652 126.404 111.929 126.85L88.6348 140.671Z" fill="#509AA6"/>
<path d="M87.6168 146.912L110.911 133.091C111.634 132.646 112.069 131.754 112.069 130.862V126.701C112.647 126.404 113.226 126.701 113.226 127.444V131.605C113.226 132.348 112.647 133.389 112.069 133.834L88.7743 147.655C88.0509 148.101 87.4721 147.803 87.6168 146.912C87.4721 146.912 87.4721 146.912 87.6168 146.912Z" fill="#F1935C"/>
<path d="M39.4335 134.279L40.4463 133.685C40.5909 133.536 40.7357 133.239 40.7357 132.942C40.7357 132.199 40.1569 131.307 39.5782 130.861C39.2888 130.713 38.9994 130.713 38.7101 130.713L37.6973 131.307L39.4335 134.279Z" fill="url(#paint3_linear_461_19643)"/>
<path d="M39.3061 134.265C39.7219 134.02 39.7046 133.187 39.2673 132.404C38.83 131.621 38.1384 131.184 37.7225 131.429C37.3066 131.674 37.324 132.508 37.7613 133.291C38.1986 134.074 38.8902 134.51 39.3061 134.265Z" fill="#D9641F"/>
<path d="M39.0158 133.749C39.2931 133.585 39.2922 133.049 39.0139 132.551C38.7357 132.052 38.2853 131.781 38.0081 131.944C37.7308 132.107 37.7317 132.644 38.01 133.142C38.2882 133.64 38.7386 133.912 39.0158 133.749Z" fill="#509AA6"/>
<path d="M44.2135 137.102L45.2263 136.508C45.371 136.359 45.5156 136.062 45.5156 135.765C45.5156 135.022 44.9369 134.13 44.3582 133.684C44.0688 133.536 43.7794 133.536 43.4901 133.536L42.4773 134.13L44.2135 137.102Z" fill="url(#paint4_linear_461_19643)"/>
<path d="M44.0985 137.071C44.5144 136.826 44.497 135.993 44.0597 135.21C43.6224 134.427 42.9308 133.991 42.5149 134.236C42.0991 134.481 42.1165 135.314 42.5538 136.097C42.991 136.88 43.6826 137.316 44.0985 137.071Z" fill="#D9641F"/>
<path d="M43.8081 136.553C44.0853 136.39 44.0845 135.854 43.8062 135.355C43.528 134.857 43.0776 134.585 42.8003 134.749C42.5231 134.912 42.5239 135.448 42.8022 135.947C43.0805 136.445 43.5308 136.717 43.8081 136.553Z" fill="#EBC3AA"/>
<path d="M119.065 90.9956H30.29V108.699C30.29 110.876 31.7127 113.053 34.5581 114.649L64.7187 132.498C70.2671 135.835 79.3722 135.835 84.9206 132.498L115.081 114.649C117.784 113.053 119.207 110.876 119.207 108.699V90.9956H119.065Z" fill="url(#paint5_linear_461_19643)"/>
<path d="M102.854 86.9315C106.695 89.2533 106.837 93.0262 102.854 95.2029L81.7983 107.683C77.9571 110.004 71.5551 110.004 67.7139 107.683L46.516 95.2029C42.6748 92.8811 42.5326 89.2533 46.516 86.9315L67.5716 74.4518C71.4128 72.13 77.8148 72.13 81.656 74.4518L102.854 86.9315Z" fill="url(#paint6_linear_461_19643)"/>
<path d="M122.343 84.0298C128.887 87.9478 129.029 94.1877 122.485 98.1057L86.7759 119.292C80.2317 123.21 69.5616 123.21 62.8751 119.292L27.0237 98.1057C20.4794 94.1877 20.3372 87.9478 27.0237 84.0298L62.7328 62.8433C69.2771 58.9253 79.9471 58.9253 86.6337 62.8433L122.343 84.0298Z" stroke="#28565D" stroke-width="0.5" stroke-miterlimit="10"/>
<path d="M102.854 89.8333C106.695 92.1551 106.837 95.9281 102.854 98.1048L81.7983 110.584C77.9571 112.906 71.5551 112.906 67.7139 110.584L46.516 98.1048C42.6748 95.783 42.5326 92.1551 46.516 89.8333L67.5716 77.3537C71.4128 75.0319 77.8148 75.0319 81.656 77.3537L102.854 89.8333Z" fill="#9DF0FC"/>
<path d="M114.944 85.1909L84.6407 67.3421C79.0922 64.0045 69.9871 64.0045 64.581 67.3421L34.4203 85.1909C28.8719 88.5285 28.8719 93.7526 34.4203 97.0902L64.7233 114.794C70.2717 118.132 79.3768 118.132 84.9252 114.794L115.086 96.9451C120.492 93.7526 120.492 88.3834 114.944 85.1909ZM102.851 95.2037L81.7953 107.683C77.9541 110.005 71.5521 110.005 67.7109 107.683L46.5131 95.2037C42.6718 92.8819 42.5296 89.2541 46.5131 86.9323L67.5686 74.4526C71.4098 72.1308 77.8118 72.1308 81.6531 74.4526L102.851 86.9323C106.692 89.2541 106.692 92.8819 102.851 95.2037Z" fill="#A6C4FE"/>
<path d="M74.5401 64.8745V65.6001C78.2391 65.6001 81.6535 66.4708 84.2143 67.9219L114.517 85.7708C116.936 87.2219 118.358 89.1083 118.358 91.1399C118.358 93.1715 117.078 95.058 114.517 96.364L84.3566 114.213C81.7957 115.809 78.3813 116.535 74.6824 116.535C70.9834 116.535 67.569 115.664 65.0082 114.213L34.8476 96.364C32.429 94.9128 31.0064 93.0264 31.0064 90.9948C31.0064 88.9632 32.2868 87.0768 34.8476 85.6256L65.0082 67.7768C67.569 66.1805 70.9834 65.455 74.6824 65.455V64.8745M74.5401 64.8745C70.8412 64.8745 67.2845 65.7452 64.4391 67.3414L34.2785 85.1903C28.7301 88.5279 28.7301 93.7519 34.2785 97.0895L64.7237 114.793C67.569 116.39 71.1257 117.26 74.8247 117.26C78.5236 117.26 82.0803 116.39 84.9256 114.793L115.086 96.9444C120.635 93.6068 120.635 88.3828 114.944 85.0452L84.6411 67.3414C81.7958 65.6001 78.2391 64.8745 74.5401 64.8745Z" fill="url(#paint7_linear_461_19643)"/>
<path d="M48.7884 75.9049C49.0241 75.9049 49.2152 75.71 49.2152 75.4695C49.2152 75.2291 49.0241 75.0342 48.7884 75.0342C48.5527 75.0342 48.3616 75.2291 48.3616 75.4695C48.3616 75.71 48.5527 75.9049 48.7884 75.9049Z" fill="#DA6420"/>
<path d="M88.7615 78.9512C88.9972 78.9512 89.1883 78.7563 89.1883 78.5159C89.1883 78.2755 88.9972 78.0806 88.7615 78.0806C88.5258 78.0806 88.3347 78.2755 88.3347 78.5159C88.3347 78.7563 88.5258 78.9512 88.7615 78.9512Z" fill="#DA6420"/>
<path d="M97.5874 73.8726C97.8232 73.8726 98.0142 73.6777 98.0142 73.4373C98.0142 73.1969 97.8232 73.002 97.5874 73.002C97.3517 73.002 97.1606 73.1969 97.1606 73.4373C97.1606 73.6777 97.3517 73.8726 97.5874 73.8726Z" fill="#DA6420"/>
<path d="M61.7283 92.0113C61.964 92.0113 62.1551 91.8164 62.1551 91.576C62.1551 91.3355 61.964 91.1406 61.7283 91.1406C61.4926 91.1406 61.3015 91.3355 61.3015 91.576C61.3015 91.8164 61.4926 92.0113 61.7283 92.0113Z" fill="#DA6420"/>
<path d="M90.0445 59.5064C90.2802 59.5064 90.4713 59.3115 90.4713 59.0711C90.4713 58.8307 90.2802 58.6357 90.0445 58.6357C89.8088 58.6357 89.6177 58.8307 89.6177 59.0711C89.6177 59.3115 89.8088 59.5064 90.0445 59.5064Z" fill="white"/>
<path d="M53.482 59.941C53.7177 59.941 53.9088 59.7461 53.9088 59.5057C53.9088 59.2652 53.7177 59.0703 53.482 59.0703C53.2463 59.0703 53.0552 59.2652 53.0552 59.5057C53.0552 59.7461 53.2463 59.941 53.482 59.941Z" fill="white"/>
<path d="M66.8536 50.3643C67.0893 50.3643 67.2804 50.1694 67.2804 49.929C67.2804 49.6885 67.0893 49.4937 66.8536 49.4937C66.6178 49.4937 66.4268 49.6885 66.4268 49.929C66.4268 50.1694 66.6178 50.3643 66.8536 50.3643Z" fill="#DA6420"/>
<path opacity="0.4" d="M46.7958 71.9863H47.3648C47.5071 71.9863 47.6494 72.1314 47.6494 72.2765V89.545C47.6494 89.6901 47.5071 89.8352 47.3648 89.8352H46.7958C46.6535 89.8352 46.5112 89.6901 46.5112 89.545V72.2765C46.6535 72.1314 46.6535 71.9863 46.7958 71.9863Z" fill="url(#paint8_linear_461_19643)"/>
<path opacity="0.4" d="M101.997 66.0361H102.566C102.708 66.0361 102.851 66.1812 102.851 66.3264V83.5948C102.851 83.7399 102.708 83.885 102.566 83.885H101.997C101.855 83.885 101.712 83.7399 101.712 83.5948V66.3264C101.712 66.1812 101.855 66.0361 101.997 66.0361Z" fill="url(#paint9_linear_461_19643)"/>
<path opacity="0.4" d="M63.4486 77.645H64.0177C64.1599 77.645 64.3022 77.7901 64.3022 77.9352V95.2037C64.3022 95.3488 64.1599 95.4939 64.0177 95.4939H63.4486C63.3063 95.4939 63.1641 95.3488 63.1641 95.2037V77.9352C63.1641 77.7901 63.3063 77.645 63.4486 77.645Z" fill="url(#paint10_linear_461_19643)"/>
<path opacity="0.4" d="M63.4486 54.2822H64.0177C64.1599 54.2822 64.3022 54.4274 64.3022 54.5725V71.8409C64.3022 71.986 64.1599 72.1311 64.0177 72.1311H63.4486C63.3063 72.1311 63.1641 71.986 63.1641 71.8409V54.5725C63.1641 54.4274 63.3063 54.2822 63.4486 54.2822Z" fill="url(#paint11_linear_461_19643)"/>
<path d="M46.8543 94.1814L69.0813 107.221L99.6279 88.2769L77.4016 75.2383L46.8543 94.1814Z" fill="#222229"/>
<path d="M48.0215 92.3716L48.0377 94.6002L69.2271 107.03L69.2116 104.801L48.0215 92.3716Z" fill="#EBE9EB"/>
<path d="M66.9542 103.634L46.2197 91.4534L46.2109 90.2847L66.3147 102.078L68.4379 103.323L68.4467 104.493L68.4438 104.491L68.4622 107.999L66.3353 106.751L46.2351 94.9604L46.2263 93.7917L66.9646 105.974L66.9542 103.634Z" fill="#333333"/>
<path d="M68.441 103.325L68.4653 108.001L99.6462 89.4462L99.622 84.7705L68.441 103.325Z" fill="#333333"/>
<path d="M46.2136 90.2853L68.4406 103.324L99.6216 84.7696L77.3946 71.731L46.2136 90.2853Z" fill="#4C3E52"/>
<path d="M64.6382 103.085L62.8602 102.042C62.8602 102.042 60.4324 103.301 61.0594 105.192L61.8336 104.494L62.4532 105.82C62.4532 105.82 63.1892 103.146 64.6382 103.085Z" fill="#F1935C"/>
<path d="M52.9771 88.2222L55.7383 85.9515L54.4283 85.333L50.0989 87.681L52.9926 89.2566L52.9771 88.2222Z" fill="#F9F7FC"/>
<path d="M52.9745 87.833L52.9959 89.6255L70.1458 99.7029L70.1244 97.9103L52.9745 87.833Z" fill="#D4CED8"/>
<path d="M70.135 97.9105L70.1563 99.7023L93.7625 85.6968L93.7411 83.9043L70.135 97.9105Z" fill="#EBE9EB"/>
<path d="M52.9754 87.8326L70.1253 97.9099L93.7314 83.9045L76.5823 73.8271L52.9754 87.8326Z" fill="#F1F1F1"/>
<path d="M54.1773 87.3775L73.0323 96.0519L95.7671 83.9388L77.7834 73.3721L54.1773 87.3775Z" fill="#F1F1F1"/>
<path d="M52.9753 85.8955L52.9959 87.6873L70.1458 97.7646L70.1244 95.9721L52.9753 85.8955Z" fill="#D4CED8"/>
<path d="M70.135 95.9717L70.1563 97.7643L93.7625 83.7581L93.7411 81.9663L70.135 95.9717Z" fill="#EBE9EB"/>
<path d="M74.8157 94.2155L93.7561 83.3988L93.7392 82.6504L74.8157 94.2155Z" fill="#D4CED8"/>
<path d="M52.9762 85.8954L70.1253 95.9719L93.7314 81.9665L76.5823 71.8892L52.9762 85.8954Z" fill="#F1F1F1"/>
<path d="M52.9955 89.2551L66.3157 96.5033L52.9808 88.2207L52.9955 89.2551Z" fill="#F9F7FC"/>
<path d="M50.9417 83.5267L53.7029 81.2552L52.3922 80.6367L48.0628 82.9855L50.9572 84.5603L50.9417 83.5267Z" fill="#F9F7FC"/>
<path d="M50.9464 83.1392L50.9678 84.9317L68.1169 95.0083L68.0956 93.2165L50.9464 83.1392Z" fill="#D4CED8"/>
<path d="M68.1057 93.2166L68.127 95.0084L91.7332 81.003L91.7118 79.2104L68.1057 93.2166Z" fill="#EBE9EB"/>
<path d="M50.9471 83.1387L68.0963 93.2161L91.7024 79.2099L74.5532 69.1333L50.9471 83.1387Z" fill="#F1F1F1"/>
<path d="M52.1477 82.6832L71.0035 91.3576L93.7375 79.2445L75.7546 68.6777L52.1477 82.6832Z" fill="#F1F1F1"/>
<path d="M50.9464 81.2007L50.9678 82.9932L68.1169 93.0698L68.0963 91.278L50.9464 81.2007Z" fill="#D4CED8"/>
<path d="M68.1064 91.2767L68.127 93.0685L91.7332 79.063L91.7125 77.2705L68.1064 91.2767Z" fill="#EBE9EB"/>
<path d="M72.7874 89.5212L91.7271 78.7044L91.7109 77.9561L72.7874 89.5212Z" fill="#D4CED8"/>
<path d="M50.9464 81.2003L68.0963 91.2776L91.7024 77.2714L74.5525 67.1948L50.9464 81.2003Z" fill="#F1F1F1"/>
<path d="M50.9672 84.56L64.2866 91.8089L50.9517 83.5264L50.9672 84.56Z" fill="#F9F7FC"/>
<path d="M92.3945 80.7366L89.6333 78.4652L90.944 77.8467L95.2734 80.1954L92.3798 81.7703L92.3945 80.7366Z" fill="#F9F7FC"/>
<path d="M92.4055 80.3491L92.3842 82.1409L75.2343 92.2182L75.2556 90.4265L92.4055 80.3491Z" fill="#D4CED8"/>
<path d="M75.2527 90.4261L75.2313 92.2179L51.6252 78.2117L51.6466 76.4199L75.2527 90.4261Z" fill="#EBE9EB"/>
<path d="M92.4055 80.3487L75.2556 90.426L51.6495 76.4199L68.7987 66.3433L92.4055 80.3487Z" fill="#F1F1F1"/>
<path d="M91.2026 79.8931L72.3469 88.5675L49.6128 76.4545L67.5965 65.8877L91.2026 79.8931Z" fill="#F1F1F1"/>
<path d="M92.4055 78.4106L92.3842 80.2032L75.235 90.2798L75.2564 88.488L92.4055 78.4106Z" fill="#D4CED8"/>
<path d="M75.2527 88.4867L75.2313 90.2784L51.6252 76.2722L51.6458 74.4805L75.2527 88.4867Z" fill="#EBE9EB"/>
<path d="M70.5654 86.7311L51.6258 75.9144L51.642 75.166L70.5654 86.7311Z" fill="#D4CED8"/>
<path d="M92.4055 78.4102L75.2564 88.4876L51.6495 74.4814L68.7994 64.4048L92.4055 78.4102Z" fill="#F1F1F1"/>
<path d="M92.3908 81.77L79.0706 89.0189L92.4055 80.7363L92.3908 81.77Z" fill="#F9F7FC"/>
<path d="M56.578 24.8999C56.6965 24.999 56.7305 25.1535 56.8014 25.2853C56.9238 25.5122 57.0714 25.7262 57.1861 25.9581C57.3434 26.2761 57.5396 26.7656 57.4872 27.1362C57.4095 27.6881 56.8334 27.7059 56.4449 27.5048C55.7678 27.154 54.2661 25.6737 55.2064 24.9366C55.6037 24.6244 56.2127 24.7265 56.578 24.8999Z" fill="#F3A984"/>
<path d="M51.8055 24.3634C51.8016 24.3485 51.7987 24.3337 51.7968 24.3188C51.7773 24.1682 51.8822 24.0255 51.9065 23.8809C51.9357 23.7025 51.96 23.5807 52.1523 23.5301C52.434 23.4568 52.5457 23.5192 52.5651 23.1923C52.5758 23.0129 52.5826 22.8148 52.8089 22.8286C53.046 22.8425 53.2383 23.0446 53.417 23.1814C53.7405 23.4291 54.029 23.7134 54.3981 23.8967C54.6031 23.9978 54.9849 24.1553 55.2131 24.0979C55.5055 24.0245 55.2899 23.6877 55.2034 23.5192C55.0995 23.3161 54.5584 22.3719 55.0528 22.3184C55.1626 22.5462 55.3783 22.7365 55.558 22.9069C55.7882 23.1259 56.0825 23.2616 56.3079 23.4776C56.5488 23.7085 56.6663 24.0265 56.7304 24.3505C56.778 24.5933 56.8985 24.9837 56.8111 25.2205C56.7372 25.4196 56.5158 25.4166 56.3807 25.5563C56.2341 25.7089 56.2234 25.9061 56.1457 26.0914C55.9815 26.4828 55.4249 26.5759 55.0655 26.5472C54.5487 26.5055 54.1125 26.3639 53.6414 26.1429C53.3364 26.0002 53.0372 25.8447 52.7468 25.6733C52.5331 25.5474 52.2689 25.4246 52.1979 25.16C52.1756 25.0768 52.1882 25.0243 52.1377 24.9401C52.0794 24.844 51.9697 24.7934 51.9143 24.6963C51.8628 24.6042 51.8327 24.4684 51.8055 24.3634Z" fill="#FFC7AD"/>
<path d="M85.035 41.2008L85.7762 40.7609L86.3794 40.4121L85.6382 40.851L85.035 41.2008Z" fill="#F1F1F1"/>
<path d="M89.1414 44.7544L89.8826 44.3145L89.8777 45.2419L89.1356 45.6808L89.1414 44.7544Z" fill="#F1F1F1"/>
<path d="M84.5887 37.4692L85.3309 37.0303L86.2129 37.5554L85.4717 37.9953L84.5887 37.4692Z" fill="#F1F1F1"/>
<path d="M90.1665 42.2554L89.4244 42.6953C89.1524 42.8568 88.7764 42.8341 88.3617 42.5903L89.1028 42.1504C89.5186 42.3941 89.8945 42.4159 90.1665 42.2554Z" fill="#F1F1F1"/>
<mask id="mask0_461_19643" style="mask-type:luminance" maskUnits="userSpaceOnUse" x="88" y="42" width="3" height="1">
<path d="M90.1604 42.2564L89.4183 42.6963C89.1463 42.8578 88.7703 42.835 88.3556 42.5913L89.0967 42.1514C89.5125 42.3951 89.8884 42.4169 90.1604 42.2564Z" fill="white"/>
</mask>
<g mask="url(#mask0_461_19643)">
<path d="M88.3677 42.5908L89.1089 42.1509C89.3566 42.2965 89.5907 42.3629 89.7966 42.3589L89.0555 42.7989C88.8486 42.8038 88.6144 42.7374 88.3677 42.5908Z" fill="#F1F1F1"/>
<path d="M89.0443 42.7993L89.7854 42.3594C89.9244 42.3564 90.0506 42.3217 90.1604 42.2563L89.4183 42.6963C89.3085 42.7617 89.1832 42.7963 89.0443 42.7993Z" fill="#F1F1F1"/>
</g>
<path d="M87.3052 38.9477L88.0464 38.5078C87.7754 38.6683 87.6073 39.0111 87.6063 39.4976C87.6034 40.4736 88.2727 41.6596 89.0994 42.1471L88.3582 42.587C87.5306 42.0995 86.8623 40.9135 86.8652 39.9376C86.8662 39.4511 87.0342 39.1082 87.3052 38.9477Z" fill="#F1F1F1"/>
<mask id="mask1_461_19643" style="mask-type:luminance" maskUnits="userSpaceOnUse" x="86" y="38" width="4" height="5">
<path d="M87.3052 38.9477L88.0464 38.5078C87.7754 38.6683 87.6073 39.0111 87.6063 39.4976C87.6034 40.4736 88.2727 41.6596 89.0994 42.1471L88.3582 42.587C87.5306 42.0995 86.8623 40.9135 86.8652 39.9376C86.8662 39.4511 87.0342 39.1082 87.3052 38.9477Z" fill="white"/>
</mask>
<g mask="url(#mask1_461_19643)">
<path d="M87.3086 38.9477L88.0498 38.5078C87.7788 38.6683 87.6107 39.0111 87.6098 39.4976C87.6078 40.0664 87.8342 40.7054 88.1868 41.2375L87.4446 41.6774C87.092 41.1464 86.8657 40.5063 86.8676 39.9376C86.8696 39.4511 87.0376 39.1082 87.3086 38.9477Z" fill="#F1F1F1"/>
<path d="M87.4412 41.6782L88.1833 41.2383C88.4359 41.6188 88.7536 41.9447 89.0994 42.1478L88.3582 42.5878C88.0114 42.3847 87.6938 42.0597 87.4412 41.6782Z" fill="#F1F1F1"/>
</g>
<path d="M91.0114 44.1391L91.7535 43.6992L92.3188 44.7039L91.5777 45.1438L91.0114 44.1391Z" fill="#F1F1F1"/>
<path d="M86.356 35.6762L87.0971 35.2373L87.7305 36.3698L86.9893 36.8097L86.356 35.6762Z" fill="#E0DDE1"/>
<path d="M85.1335 36.3728L85.8746 35.9329L87.0889 35.2373L86.3477 35.6762L85.1335 36.3728Z" fill="#F1F1F1"/>
<path d="M91.2818 43.5464L92.0229 43.1074C91.9569 43.3333 91.8666 43.5305 91.7539 43.6999L91.0127 44.1399C91.1244 43.9694 91.2157 43.7723 91.2818 43.5464Z" fill="#F1F1F1"/>
<mask id="mask2_461_19643" style="mask-type:luminance" maskUnits="userSpaceOnUse" x="91" y="43" width="2" height="2">
<path d="M91.2881 43.5454L92.0293 43.1064C91.9632 43.3324 91.8729 43.5295 91.7602 43.699L91.0191 44.1389C91.1308 43.9685 91.2221 43.7713 91.2881 43.5454Z" fill="white"/>
</mask>
<g mask="url(#mask2_461_19643)">
<path d="M91.2881 43.5454L92.0293 43.1064C91.9632 43.3324 91.8729 43.5295 91.7602 43.699L91.0191 44.1389C91.1308 43.9685 91.2221 43.7713 91.2881 43.5454Z" fill="#E0DDE1"/>
</g>
<path d="M86.9825 36.8083L87.7236 36.3684C87.9101 36.3654 88.1083 36.3912 88.3162 36.4477L87.574 36.8876C87.3671 36.8311 87.169 36.8053 86.9825 36.8083Z" fill="#F1F1F1"/>
<mask id="mask3_461_19643" style="mask-type:luminance" maskUnits="userSpaceOnUse" x="86" y="36" width="3" height="1">
<path d="M86.9949 36.8083L87.7361 36.3684C87.9226 36.3654 88.1207 36.3912 88.3286 36.4477L87.5865 36.8876C87.3796 36.8311 87.1814 36.8053 86.9949 36.8083Z" fill="white"/>
</mask>
<g mask="url(#mask3_461_19643)">
<path d="M86.9949 36.8083L87.7361 36.3684C87.9226 36.3654 88.1207 36.3912 88.3286 36.4477L87.5865 36.8876C87.3796 36.8311 87.1814 36.8053 86.9949 36.8083Z" fill="#F1F1F1"/>
</g>
<path d="M91.0504 40.7099L91.7916 40.27C91.8906 40.5455 91.9693 40.8239 92.0286 41.1003L91.2874 41.5402C91.2281 41.2638 91.1485 40.9854 91.0504 40.7099Z" fill="#F1F1F1"/>
<mask id="mask4_461_19643" style="mask-type:luminance" maskUnits="userSpaceOnUse" x="91" y="40" width="2" height="2">
<path d="M91.0633 40.7099L91.8045 40.27C91.9036 40.5455 91.9822 40.8239 92.0415 41.1003L91.3003 41.5402C91.2411 41.2638 91.1614 40.9854 91.0633 40.7099Z" fill="white"/>
</mask>
<g mask="url(#mask4_461_19643)">
<path d="M91.0633 40.7099L91.8045 40.27C91.9036 40.5455 91.9822 40.8239 92.0415 41.1003L91.3003 41.5402C91.2411 41.2638 91.1614 40.9854 91.0633 40.7099Z" fill="#E0DDE1"/>
</g>
<path d="M89.2642 37.9302L90.0053 37.4902C90.2113 37.6884 90.4084 37.9044 90.592 38.1372L89.8509 38.5772C89.6663 38.3443 89.4701 38.1283 89.2642 37.9302Z" fill="#F1F1F1"/>
<mask id="mask5_461_19643" style="mask-type:luminance" maskUnits="userSpaceOnUse" x="89" y="37" width="2" height="2">
<path d="M89.2578 37.9326L89.999 37.4927C90.2049 37.6908 90.4021 37.9068 90.5857 38.1397L89.8445 38.5796C89.66 38.3468 89.4637 38.1308 89.2578 37.9326Z" fill="white"/>
</mask>
<g mask="url(#mask5_461_19643)">
<path d="M89.2578 37.9326L89.999 37.4927C90.2049 37.6908 90.4021 37.9068 90.5857 38.1397L89.8445 38.5796C89.66 38.3468 89.4637 38.1308 89.2578 37.9326Z" fill="#F1F1F1"/>
</g>
<path d="M92.127 42.0322L92.8682 41.5923L92.8623 43.5987L92.1212 44.0376L92.127 42.0322Z" fill="#E0DDE1"/>
<path d="M91.2897 41.5395L92.0318 41.0996L92.8682 41.592L92.127 42.032L91.2897 41.5395Z" fill="#F1F1F1"/>
<path d="M87.5765 35.854L88.3186 35.4141L90.0186 36.4326L89.2774 36.8716L87.5765 35.854Z" fill="#F1F1F1"/>
<path d="M89.2774 36.8725L90.0186 36.4336L90.0088 37.4898L89.2677 37.9287L89.2774 36.8725Z" fill="#E0DDE1"/>
<path d="M89.8637 38.5759L90.6049 38.1359L91.2275 37.7832L90.4854 38.2231L89.8637 38.5759Z" fill="#F1F1F1"/>
<path d="M92.1218 42.0338L91.2855 41.5414C91.2262 41.265 91.1475 40.9875 91.0484 40.7111L91.673 40.3574L90.486 38.2241L89.8643 38.5769C89.6798 38.345 89.4835 38.128 89.2776 37.9299L89.2873 36.8737L87.5864 35.8561L87.5767 36.8895C87.3688 36.833 87.1716 36.8073 86.9842 36.8103L86.3508 35.6768L85.1366 36.3723L85.7427 37.4563C85.633 37.6108 85.5416 37.7912 85.4727 37.9963L84.5897 37.4711L84.5751 39.4716L85.4066 39.967C85.462 40.2603 85.5407 40.5575 85.6417 40.8518L85.0385 41.2015L86.2323 43.3308L86.8025 43.0009C87.0007 43.2575 87.2144 43.4963 87.4397 43.7123L87.4349 44.6754L89.1348 45.682L89.1397 44.7556C89.3699 44.818 89.5894 44.8438 89.7944 44.8339L90.3675 45.8524L91.5759 45.145L91.0106 44.1403C91.1232 43.9709 91.2136 43.7727 91.2796 43.5468L92.116 44.0392L92.1218 42.0338ZM88.3548 42.5897C87.5272 42.1022 86.8589 40.9162 86.8618 39.9402C86.8647 38.9643 87.5379 38.569 88.3645 39.0554C89.1921 39.5429 89.8604 40.7289 89.8575 41.7049C89.8546 42.6808 89.1814 43.0772 88.3548 42.5897Z" fill="#D4CED8"/>
<path d="M90.4888 38.2231L91.2309 37.7832L92.418 39.9164L91.6758 40.3564L90.4888 38.2231Z" fill="#F1F1F1"/>
<path d="M92.6204 45.5744L93.3625 45.1355L93.6821 44.9502L92.941 45.3891L92.6204 45.5744Z" fill="#E0DDE1"/>
<path d="M94.7791 47.4599L95.5203 47.02L95.5183 47.5125L94.7772 47.9514L94.7791 47.4599Z" fill="#E0DDE1"/>
<path d="M92.3739 43.5962L93.115 43.1562L93.5833 43.4347L92.8411 43.8746L92.3739 43.5962Z" fill="#E0DDE1"/>
<path d="M95.6804 45.9276L94.9383 46.3675C94.7936 46.4527 94.5944 46.4418 94.3739 46.312L95.1151 45.8721C95.3356 46.0009 95.5357 46.0128 95.6804 45.9276Z" fill="#F1F1F1"/>
<mask id="mask6_461_19643" style="mask-type:luminance" maskUnits="userSpaceOnUse" x="94" y="45" width="2" height="2">
<path d="M95.6741 45.9246L94.9319 46.3645C94.7872 46.4498 94.5881 46.4389 94.3676 46.3091L95.1087 45.8691C95.3292 45.9979 95.5293 46.0098 95.6741 45.9246Z" fill="white"/>
</mask>
<g mask="url(#mask6_461_19643)">
<path d="M94.3767 46.3091L95.1179 45.8691C95.249 45.9464 95.3744 45.9821 95.4832 45.9801L94.742 46.42C94.6332 46.422 94.5088 46.3863 94.3767 46.3091Z" fill="#F1F1F1"/>
<path d="M94.7338 46.4197L95.4749 45.9798C95.5488 45.9778 95.6158 45.96 95.6741 45.9253L94.9319 46.3652C94.8746 46.3989 94.8076 46.4177 94.7338 46.4197Z" fill="#F1F1F1"/>
</g>
<path d="M93.8184 44.3804L94.5606 43.9404C94.4168 44.0256 94.3275 44.207 94.3275 44.4656C94.3265 44.9828 94.681 45.6119 95.1191 45.8705L94.378 46.3105C93.9389 46.0519 93.5843 45.4227 93.5863 44.9055C93.5853 44.6469 93.6747 44.4656 93.8184 44.3804Z" fill="#F1F1F1"/>
<mask id="mask7_461_19643" style="mask-type:luminance" maskUnits="userSpaceOnUse" x="93" y="43" width="3" height="4">
<path d="M93.8126 44.3804L94.5547 43.9404C94.411 44.0256 94.3216 44.207 94.3216 44.4656C94.3206 44.9828 94.6752 45.6119 95.1133 45.8705L94.3721 46.3105C93.933 46.0519 93.5785 45.4227 93.5804 44.9055C93.5795 44.6469 93.6688 44.4656 93.8126 44.3804Z" fill="white"/>
</mask>
<g mask="url(#mask7_461_19643)">
<path d="M93.8107 44.3804L94.5529 43.9404C94.4091 44.0256 94.3197 44.207 94.3197 44.4656C94.3188 44.7668 94.4392 45.1056 94.6257 45.388L93.8836 45.8279C93.6961 45.5465 93.5766 45.2067 93.5776 44.9055C93.5776 44.6469 93.667 44.4656 93.8107 44.3804Z" fill="#F1F1F1"/>
<path d="M93.8854 45.8286L94.6276 45.3887C94.7616 45.5908 94.9307 45.7632 95.1133 45.8712L94.3721 46.3111C94.1885 46.2031 94.0195 46.0307 93.8854 45.8286Z" fill="#F1F1F1"/>
</g>
<path d="M95.7863 47.1333L96.5275 46.6943L96.8276 47.2274L96.0865 47.6673L95.7863 47.1333Z" fill="#F1F1F1"/>
<path d="M93.307 42.644L94.0491 42.2041L94.3853 42.8055L93.6431 43.2454L93.307 42.644Z" fill="#F1F1F1"/>
<path d="M92.6661 43.0126L93.4082 42.5737L94.0522 42.2041L93.3101 42.644L92.6661 43.0126Z" fill="#E0DDE1"/>
<path d="M95.9263 46.8179L96.6675 46.3779C96.6335 46.4978 96.5849 46.6028 96.5247 46.693L95.7835 47.1329C95.8428 47.0428 95.8913 46.9377 95.9263 46.8179Z" fill="#E0DDE1"/>
<mask id="mask8_461_19643" style="mask-type:luminance" maskUnits="userSpaceOnUse" x="95" y="46" width="2" height="2">
<path d="M95.9324 46.8169L96.6736 46.377C96.6396 46.4968 96.591 46.6019 96.5308 46.692L95.7896 47.132C95.8489 47.0418 95.8974 46.9368 95.9324 46.8169Z" fill="white"/>
</mask>
<g mask="url(#mask8_461_19643)">
<path d="M95.9324 46.8169L96.6736 46.377C96.6396 46.4968 96.591 46.6019 96.5308 46.692L95.7896 47.132C95.8489 47.0418 95.8974 46.9368 95.9324 46.8169Z" fill="#E0DDE1"/>
</g>
<path d="M93.6506 43.2453L94.3918 42.8054C94.4909 42.8034 94.5968 42.8182 94.7065 42.847L93.9654 43.2869C93.8556 43.2572 93.7497 43.2433 93.6506 43.2453Z" fill="#E0DDE1"/>
<mask id="mask9_461_19643" style="mask-type:luminance" maskUnits="userSpaceOnUse" x="93" y="42" width="2" height="2">
<path d="M93.6624 43.2448L94.4035 42.8049C94.5026 42.8029 94.6085 42.8177 94.7183 42.8465L93.9771 43.2864C93.8673 43.2567 93.7614 43.2428 93.6624 43.2448Z" fill="white"/>
</mask>
<g mask="url(#mask9_461_19643)">
<path d="M93.6624 43.2448L94.4035 42.8049C94.5026 42.8029 94.6085 42.8177 94.7183 42.8465L93.9771 43.2864C93.8673 43.2567 93.7614 43.2428 93.6624 43.2448Z" fill="#E0DDE1"/>
</g>
<path d="M95.8071 45.3159L96.5483 44.876C96.6007 45.0226 96.6425 45.1702 96.6736 45.3159L95.9324 45.7558C95.9013 45.6092 95.8595 45.4625 95.8071 45.3159Z" fill="#F1F1F1"/>
<mask id="mask10_461_19643" style="mask-type:luminance" maskUnits="userSpaceOnUse" x="95" y="44" width="2" height="2">
<path d="M95.8132 45.3159L96.5544 44.876C96.6068 45.0226 96.6486 45.1702 96.6797 45.3159L95.9385 45.7558C95.9074 45.6092 95.8657 45.4625 95.8132 45.3159Z" fill="white"/>
</mask>
<g mask="url(#mask10_461_19643)">
<path d="M95.8132 45.3159L96.5544 44.876C96.6068 45.0226 96.6486 45.1702 96.6797 45.3159L95.9385 45.7558C95.9074 45.6092 95.8657 45.4625 95.8132 45.3159Z" fill="#F1F1F1"/>
</g>
<path d="M94.863 43.8403L95.6042 43.4004C95.714 43.5054 95.8179 43.6203 95.915 43.7432L95.1739 44.1831C95.0767 44.0603 94.9718 43.9443 94.863 43.8403Z" fill="#E0DDE1"/>
<mask id="mask11_461_19643" style="mask-type:luminance" maskUnits="userSpaceOnUse" x="94" y="43" width="2" height="2">
<path d="M94.8567 43.8423L95.5979 43.4023C95.7076 43.5074 95.8116 43.6223 95.9087 43.7452L95.1675 44.1851C95.0704 44.0622 94.9655 43.9463 94.8567 43.8423Z" fill="white"/>
</mask>
<g mask="url(#mask11_461_19643)">
<path d="M94.8567 43.8423L95.5979 43.4023C95.7076 43.5074 95.8116 43.6223 95.9087 43.7452L95.1675 44.1851C95.0704 44.0622 94.9655 43.9463 94.8567 43.8423Z" fill="#E0DDE1"/>
</g>
<path d="M96.3702 46.018L97.1113 45.5781L97.1084 46.6423L96.3672 47.0822L96.3702 46.018Z" fill="#F1F1F1"/>
<path d="M95.9262 45.7554L96.6674 45.3154L97.1113 45.577L96.3702 46.0169L95.9262 45.7554Z" fill="#E0DDE1"/>
<path d="M93.9568 42.7397L94.6989 42.2998L95.6003 42.8398L94.8592 43.2787L93.9568 42.7397Z" fill="#E0DDE1"/>
<path d="M94.8592 43.2778L95.6003 42.8389L95.5955 43.3997L94.8543 43.8396L94.8592 43.2778Z" fill="#F1F1F1"/>
<path d="M95.1825 44.1838L95.9246 43.7439L96.2539 43.5566L95.5127 43.9966L95.1825 44.1838Z" fill="#E0DDE1"/>
<path d="M96.3589 46.0163L95.915 45.7547C95.8839 45.6081 95.8421 45.4614 95.7896 45.3148L96.1209 45.1265L95.4914 43.995L95.1612 44.1823C95.064 44.0594 94.9591 43.9445 94.8503 43.8395L94.8552 43.2787L93.9528 42.7387L93.9479 43.2866C93.8381 43.2569 93.7323 43.243 93.6332 43.245L93.2971 42.6436L92.653 43.0131L92.9746 43.5888C92.9163 43.67 92.8677 43.7652 92.8318 43.8741L92.3636 43.5957L92.3558 44.6569L92.7968 44.9195C92.8259 45.075 92.8687 45.2326 92.9221 45.3891L92.6025 45.5744L93.2359 46.7039L93.538 46.5285C93.6429 46.6643 93.7565 46.7911 93.876 46.906L93.8731 47.4173L94.7755 47.9514L94.7775 47.4599C94.8999 47.4926 95.0164 47.5065 95.1252 47.5015L95.4293 48.0415L96.0704 47.667L95.7702 47.1329C95.8295 47.0428 95.8781 46.9387 95.913 46.8189L96.3569 47.0804L96.3589 46.0163ZM94.3598 46.3106C93.9207 46.052 93.5661 45.4228 93.5681 44.9056C93.5691 44.3874 93.9265 44.1773 94.3656 44.4359C94.8047 44.6945 95.1602 45.3237 95.1582 45.8419C95.1563 46.3591 94.7988 46.5692 94.3598 46.3106Z" fill="#E0DDE1"/>
<path d="M95.5054 43.9966L96.2465 43.5566L96.877 44.6882L96.1358 45.1281L95.5054 43.9966Z" fill="#E0DDE1"/>
<path d="M91.4799 39.6447L92.222 39.2048L92.6582 38.9521L91.917 39.3911L91.4799 39.6447Z" fill="#F1935C"/>
<path d="M94.4327 42.2182L95.1748 41.7783L95.1709 42.4511L94.4298 42.89L94.4327 42.2182Z" fill="#F1935C"/>
<path d="M91.1236 36.9424L91.8657 36.5034L92.5039 36.8839L91.7627 37.3228L91.1236 36.9424Z" fill="#F1935C"/>
<path d="M95.3721 40.2872L94.6299 40.7272C94.4327 40.8441 94.1608 40.8282 93.8606 40.6509L94.6018 40.2109C94.9029 40.3873 95.1749 40.4032 95.3721 40.2872Z" fill="#F1935C"/>
<mask id="mask12_461_19643" style="mask-type:luminance" maskUnits="userSpaceOnUse" x="93" y="40" width="3" height="1">
<path d="M95.3721 40.2882L94.6299 40.7281C94.4327 40.845 94.1608 40.8292 93.8606 40.6518L94.6018 40.2119C94.9029 40.3883 95.1749 40.4041 95.3721 40.2882Z" fill="white"/>
</mask>
<g mask="url(#mask12_461_19643)">
<path d="M93.8611 40.6509L94.6023 40.2109C94.782 40.317 94.951 40.3645 95.1006 40.3615L94.3594 40.8015C94.2098 40.8054 94.0398 40.7569 93.8611 40.6509Z" fill="#F1935C"/>
<path d="M94.3599 40.8023L95.1011 40.3624C95.2021 40.3604 95.2934 40.3347 95.3721 40.2881L94.6299 40.728C94.5522 40.7746 94.4609 40.7993 94.3599 40.8023Z" fill="#F1935C"/>
</g>
<path d="M93.0974 38.0156L93.8385 37.5757C93.6423 37.6916 93.5209 37.9403 93.5199 38.292C93.518 38.9985 94.0017 39.8575 94.6011 40.2103L93.8599 40.6502C93.2606 40.2975 92.7758 39.4384 92.7778 38.732C92.7797 38.3802 92.9011 38.1315 93.0974 38.0156Z" fill="#F1935C"/>
<mask id="mask13_461_19643" style="mask-type:luminance" maskUnits="userSpaceOnUse" x="92" y="37" width="3" height="4">
<path d="M93.0974 38.0161L93.8385 37.5762C93.6423 37.6921 93.5209 37.9408 93.5199 38.2925C93.518 38.999 94.0017 39.858 94.6011 40.2108L93.8599 40.6507C93.2606 40.2979 92.7758 39.4389 92.7778 38.7325C92.7797 38.3807 92.9011 38.132 93.0974 38.0161Z" fill="white"/>
</mask>
<g mask="url(#mask13_461_19643)">
<path d="M93.0948 38.0161L93.836 37.5762C93.6398 37.6921 93.5183 37.9408 93.5174 38.2925C93.5164 38.7037 93.6796 39.1664 93.9351 39.5519L93.1939 39.9918C92.9384 39.6073 92.7752 39.1436 92.7762 38.7325C92.7772 38.3807 92.8986 38.132 93.0948 38.0161Z" fill="#F1935C"/>
<path d="M93.1964 39.9927L93.9376 39.5527C94.1212 39.8292 94.3514 40.064 94.6011 40.2116L93.8599 40.6516C93.6103 40.5049 93.38 40.2691 93.1964 39.9927Z" fill="#F1935C"/>
</g>
<path d="M95.794 41.772L96.5351 41.332L96.9451 42.0603L96.2029 42.4992L95.794 41.772Z" fill="#F5791E"/>
<path d="M92.42 35.644L93.1611 35.2041L93.6206 36.0255L92.8785 36.4644L92.42 35.644Z" fill="#F1935C"/>
<path d="M91.5377 36.1484L92.2789 35.7084L93.158 35.2041L92.4168 35.644L91.5377 36.1484Z" fill="#F1935C"/>
<path d="M95.9756 41.3432L96.7168 40.9033C96.6692 41.0668 96.6031 41.2105 96.5225 41.3323L95.7804 41.7723C95.8629 41.6504 95.928 41.5067 95.9756 41.3432Z" fill="#F1935C"/>
<mask id="mask14_461_19643" style="mask-type:luminance" maskUnits="userSpaceOnUse" x="95" y="40" width="2" height="2">
<path d="M95.9629 41.3423L96.7041 40.9023C96.6565 41.0658 96.5905 41.2095 96.5098 41.3314L95.7677 41.7713C95.8502 41.6494 95.9153 41.5058 95.9629 41.3423Z" fill="white"/>
</mask>
<g mask="url(#mask14_461_19643)">
<path d="M95.9629 41.3423L96.7041 40.9023C96.6565 41.0658 96.5905 41.2095 96.5098 41.3314L95.7677 41.7713C95.8502 41.6494 95.9153 41.5058 95.9629 41.3423Z" fill="#F1935C"/>
</g>
<path d="M92.8632 36.4655L93.6053 36.0255C93.7403 36.0236 93.8841 36.0424 94.0337 36.083L93.2925 36.5229C93.142 36.4823 92.9982 36.4635 92.8632 36.4655Z" fill="#F1935C"/>
<mask id="mask15_461_19643" style="mask-type:luminance" maskUnits="userSpaceOnUse" x="92" y="36" width="3" height="1">
<path d="M92.8571 36.4674L93.5992 36.0275C93.7342 36.0255 93.878 36.0443 94.0276 36.085L93.2864 36.5249C93.1359 36.4843 92.9921 36.4654 92.8571 36.4674Z" fill="white"/>
</mask>
<g mask="url(#mask15_461_19643)">
<path d="M92.8571 36.4674L93.5992 36.0275C93.7342 36.0255 93.878 36.0443 94.0276 36.085L93.2864 36.5249C93.1359 36.4843 92.9921 36.4654 92.8571 36.4674Z" fill="#F5791E"/>
</g>
<path d="M95.8027 39.2886L96.5449 38.8486C96.6158 39.0488 96.6741 39.2499 96.7168 39.4501L95.9746 39.89C95.9319 39.6898 95.8736 39.4887 95.8027 39.2886Z" fill="#F1935C"/>
<mask id="mask16_461_19643" style="mask-type:luminance" maskUnits="userSpaceOnUse" x="95" y="38" width="2" height="2">
<path d="M95.79 39.2886L96.5322 38.8486C96.6031 39.0488 96.6614 39.2499 96.7041 39.4501L95.962 39.89C95.9192 39.6898 95.8609 39.4887 95.79 39.2886Z" fill="white"/>
</mask>
<g mask="url(#mask16_461_19643)">
<path d="M95.79 39.2886L96.5322 38.8486C96.6031 39.0488 96.6614 39.2499 96.7041 39.4501L95.962 39.89C95.9192 39.6898 95.8609 39.4887 95.79 39.2886Z" fill="#F5791E"/>
</g>
<path d="M94.5375 37.2773L95.2796 36.8374C95.4292 36.9811 95.571 37.1376 95.7051 37.3051L94.9639 37.745C94.8299 37.5775 94.688 37.42 94.5375 37.2773Z" fill="#F1935C"/>
<mask id="mask17_461_19643" style="mask-type:luminance" maskUnits="userSpaceOnUse" x="94" y="36" width="2" height="2">
<path d="M94.5314 37.2778L95.2735 36.8379C95.4231 36.9816 95.5649 37.1381 95.699 37.3056L94.9578 37.7455C94.8238 37.578 94.6819 37.4205 94.5314 37.2778Z" fill="white"/>
</mask>
<g mask="url(#mask17_461_19643)">
<path d="M94.5314 37.2778L95.2735 36.8379C95.4231 36.9816 95.5649 37.1381 95.699 37.3056L94.9578 37.7455C94.8238 37.578 94.6819 37.4205 94.5314 37.2778Z" fill="#F1935C"/>
</g>
<path d="M96.5923 40.248L97.3335 39.8081L97.3296 41.2616L96.5884 41.7006L96.5923 40.248Z" fill="#F1935C"/>
<path d="M95.9862 39.8901L96.7283 39.4502L97.3335 39.8069L96.5923 40.2468L95.9862 39.8901Z" fill="#F1935C"/>
<path d="M93.3006 35.7729L94.0427 35.333L95.2734 36.0692L94.5323 36.5091L93.3006 35.7729Z" fill="#F1935C"/>
<path d="M94.5323 36.5093L95.2734 36.0693L95.2666 36.8352L94.5245 37.2752L94.5323 36.5093Z" fill="#F5791E"/>
<path d="M94.9573 37.7444L95.6994 37.3054L96.1492 37.0498L95.408 37.4897L94.9573 37.7444Z" fill="#F1935C"/>
<path d="M96.5811 40.2464L95.9749 39.8897C95.9322 39.6906 95.8749 39.4884 95.803 39.2883L96.2556 39.0327L95.396 37.487L94.9452 37.7426C94.8122 37.5742 94.6694 37.4176 94.5198 37.274L94.5275 36.5081L93.2958 35.7719L93.289 36.5209C93.1394 36.4803 92.9947 36.4615 92.8597 36.4635L92.4012 35.6421L91.5221 36.1464L91.9611 36.9321C91.8815 37.0431 91.8154 37.1739 91.7649 37.3225L91.1257 36.942L91.1151 38.3906L91.7173 38.7483C91.7581 38.9613 91.8154 39.1763 91.8883 39.3894L91.4521 39.643L92.3167 41.1847L92.7295 40.9459C92.8733 41.1312 93.0277 41.3046 93.1909 41.4612L93.187 42.1597L94.4187 42.8879L94.4226 42.2162C94.5897 42.2627 94.7481 42.2806 94.8967 42.2726L95.3115 43.0108L96.1867 42.4985L95.7768 41.7713C95.8584 41.6494 95.9244 41.5048 95.972 41.3423L96.5781 41.6989L96.5811 40.2464ZM93.8534 40.6487C93.2541 40.296 92.7693 39.4369 92.7713 38.7305C92.7732 38.024 93.2609 37.7367 93.8602 38.0894C94.4586 38.4421 94.9433 39.3012 94.9414 40.0076C94.9394 40.7151 94.4518 41.0014 93.8534 40.6487Z" fill="#FAB380"/>
<path d="M95.4111 37.4897L96.1523 37.0498L97.0129 38.5955L96.2708 39.0344L95.4111 37.4897Z" fill="#F1935C"/>
<path d="M84.6915 29.7254C84.1757 29.983 83.8221 30.4556 83.5774 30.9738C83.5142 31.1066 83.4588 31.2463 83.4414 31.392C83.4239 31.5386 83.4482 31.6952 83.5336 31.8141C83.6551 31.9835 83.8756 32.0489 84.0815 32.0538C84.3418 32.0598 84.6235 31.9914 84.8528 31.8656C85.0723 31.7447 85.2666 31.499 85.4541 31.3276C85.5765 31.2156 85.7057 31.1007 85.863 31.0521C86.0029 31.0085 86.1622 31.0174 86.2817 30.9322C86.406 30.8431 86.4507 30.6716 86.4303 30.5181C86.4109 30.3645 86.338 30.2248 86.2661 30.089C86.1204 29.8136 85.967 29.5292 85.7193 29.3459C85.6076 29.2637 85.4512 29.2062 85.3365 29.2835C85.2821 29.3202 85.2481 29.3806 85.2054 29.4311C85.0908 29.5649 84.915 29.6214 84.7566 29.6927C84.7343 29.7046 84.7129 29.7155 84.6915 29.7254Z" fill="#F3A984"/>
<path d="M93.4513 27.9829C93.8049 27.8739 94.007 27.4904 93.9001 27.1298L93.1046 24.4328C92.9987 24.0721 92.6218 23.866 92.2682 23.974C91.9146 24.083 91.7125 24.4665 91.8184 24.8271L92.614 27.5241C92.7218 27.8848 93.0977 28.0909 93.4513 27.9829Z" fill="#333333"/>
<path d="M85.8947 24.4745C85.611 24.2328 85.5732 23.7988 85.8102 23.5104L87.581 21.3505C87.818 21.0611 88.2435 21.0225 88.5262 21.2643C88.8098 21.506 88.8477 21.94 88.6107 22.2283L86.8398 24.3883C86.6028 24.6776 86.1773 24.7163 85.8947 24.4745Z" fill="#333333"/>
<path d="M88.8109 16.6314L86.3921 18.0523C87.0759 17.65 88.0211 17.7114 89.0615 18.3297L91.4802 16.9079C90.4399 16.2896 89.4947 16.2292 88.8109 16.6314Z" fill="#F1935C"/>
<mask id="mask18_461_19643" style="mask-type:luminance" maskUnits="userSpaceOnUse" x="86" y="16" width="6" height="3">
<path d="M88.7986 16.6319L86.3799 18.0527C87.0637 17.6505 88.0089 17.7119 89.0493 18.3302L91.468 16.9084C90.4277 16.2901 89.4825 16.2296 88.7986 16.6319Z" fill="white"/>
</mask>
<g mask="url(#mask18_461_19643)">
<path d="M89.0493 18.3304L91.468 16.9086C91.2669 16.7897 91.0697 16.6906 90.8774 16.6123L88.4587 18.0331C88.651 18.1124 88.8482 18.2105 89.0493 18.3304Z" fill="#F1935C"/>
<path d="M88.4509 18.0351L90.8696 16.6142C90.0643 16.2863 89.3426 16.3091 88.7909 16.6331L86.3721 18.0539C86.9238 17.7299 87.6466 17.7071 88.4509 18.0351Z" fill="#F1935C"/>
</g>
<path d="M91.6771 27.402L94.0959 25.9811C94.771 25.5838 95.1916 24.7367 95.1994 23.5298C95.2149 21.1013 93.5519 18.1358 91.4838 16.9072L89.065 18.329C91.1331 19.5577 92.7961 22.5222 92.7806 24.9507C92.7728 26.1575 92.3522 27.0056 91.6771 27.402Z" fill="#F1935C"/>
<mask id="mask19_461_19643" style="mask-type:luminance" maskUnits="userSpaceOnUse" x="89" y="16" width="7" height="12">
<path d="M91.6893 27.401L94.1081 25.9801C94.7832 25.5828 95.2038 24.7357 95.2116 23.5289C95.2271 21.1004 93.5641 18.1349 91.496 16.9062L89.0772 18.3281C91.1453 19.5567 92.8083 22.5212 92.7928 24.9497C92.785 26.1565 92.3644 27.0046 91.6893 27.401Z" fill="white"/>
</mask>
<g mask="url(#mask19_461_19643)">
<path d="M91.6893 27.4014L94.108 25.9806C94.7831 25.5832 95.2037 24.7361 95.2115 23.5293C95.2144 23.1557 95.1765 22.7683 95.1037 22.377L92.6849 23.7978C92.7578 24.1892 92.7947 24.5756 92.7928 24.9501C92.785 26.1569 92.3644 27.0051 91.6893 27.4014Z" fill="#F1935C"/>
<path d="M92.6884 23.7984L95.1072 22.3775C94.7089 20.2284 93.2489 17.9466 91.4995 16.9072L89.0807 18.329C90.8302 19.3674 92.2902 21.6493 92.6884 23.7984Z" fill="#F1935C"/>
</g>
<path d="M89.0595 18.3276C86.9914 17.099 85.3022 18.0719 85.2866 20.5014C85.2711 22.9299 86.9341 25.8954 89.0022 27.124C91.0703 28.3527 92.7595 27.3787 92.775 24.9502C92.7906 22.5207 91.1276 19.5562 89.0595 18.3276Z" fill="#F1893E"/>
<path d="M85.6532 20.727C85.6396 22.9108 87.1346 25.5781 88.9948 26.6828C90.0614 27.3169 91.0172 27.2991 91.6389 26.7551C91.6554 26.7413 91.6709 26.7264 91.6865 26.7125C92.1207 26.3043 92.381 25.6266 92.3869 24.7289C92.4014 22.5452 90.9055 19.8779 89.0453 18.7741C88.1856 18.2629 87.3978 18.1757 86.7994 18.4452C86.7421 18.4709 86.6858 18.4997 86.6323 18.5324C86.034 18.89 85.661 19.649 85.6532 20.727Z" fill="#E0DDE1"/>
<path d="M86.0515 20.468C86.0369 22.6517 87.5328 25.319 89.393 26.4238C90.2527 26.934 91.0405 27.0222 91.6389 26.7517C91.6554 26.7379 91.671 26.723 91.6865 26.7091C92.1207 26.3009 92.381 25.6232 92.3869 24.7255C92.4014 22.5417 90.9055 19.8745 89.0453 18.7707C88.1856 18.2594 87.3978 18.1722 86.7994 18.4417C86.3361 18.844 86.0573 19.5376 86.0515 20.468Z" fill="#F1F1F1"/>
<path d="M87.076 15.1134C88.0746 14.5883 89.3092 14.8776 89.8338 15.7604C89.8483 15.7852 89.8619 15.81 89.8755 15.8348C89.9183 15.8952 89.9484 15.9616 89.9649 16.0349C90.0154 16.2499 89.9513 16.5154 89.757 16.8038C89.2645 17.536 88.1193 18.1384 87.1984 18.1493C86.838 18.1543 86.5651 18.0661 86.397 17.9145C86.3378 17.861 86.2921 17.8005 86.2591 17.7322C86.2435 17.7094 86.229 17.6866 86.2154 17.6628C85.6918 16.78 86.0765 15.6386 87.076 15.1134Z" fill="#C9CBD6"/>
<path d="M87.5452 17.3289C86.9604 17.2378 86.4601 16.8385 86.295 16.3114C86.2581 16.1944 86.2289 16.0755 86.2056 15.9566C86.3912 15.6158 86.6865 15.3176 87.076 15.1125C88.0746 14.5873 89.3092 14.8766 89.8338 15.7595C89.8483 15.7842 89.8619 15.809 89.8755 15.8338C89.9183 15.8942 89.9484 15.9606 89.9649 16.0339C90.0154 16.2489 89.9513 16.5145 89.757 16.8028C89.7036 16.8821 89.6424 16.9593 89.5754 17.0347C88.9906 17.3913 88.1941 17.4369 87.5452 17.3289Z" fill="#C9CBD6"/>
<path d="M86.2106 15.9551C86.2339 16.075 86.264 16.1929 86.2999 16.3098C86.4651 16.8369 86.9654 17.2362 87.5501 17.3274C88.198 17.4344 88.9955 17.3898 89.5803 17.0331C89.0247 17.6563 88.0242 18.1369 87.2033 18.1468C86.8429 18.1517 86.57 18.0635 86.4019 17.9119C86.3427 17.8584 86.297 17.798 86.264 17.7296C86.2485 17.7068 86.2339 17.6841 86.2203 17.6603C85.9007 17.1223 85.9201 16.4881 86.2106 15.9551Z" fill="#A0A6C0"/>
<path d="M89.7013 15.9908C89.7353 16.1078 89.7479 16.2425 89.676 16.3426C89.6119 16.4328 89.4915 16.4754 89.3769 16.4853C89.1058 16.5071 88.8377 16.3723 88.6639 16.1741C88.49 15.976 88.4006 15.7223 88.3588 15.4687C88.2802 14.9911 88.7707 15.0872 89.0621 15.2398C89.3671 15.3973 89.609 15.6708 89.7013 15.9908Z" fill="#E4E6F0"/>
<path d="M91.7328 18.574C91.795 18.4779 91.8707 18.4016 91.9591 18.3461C92.3234 18.031 92.7955 17.8408 93.3103 17.8428C94.4565 17.8477 95.3823 18.7979 95.3784 19.9681C95.3745 20.8836 94.8014 21.6614 94.0029 21.9537C93.9029 22.0112 93.7882 22.0419 93.6629 22.0458C93.4619 22.0518 93.2326 21.9874 92.9898 21.8427C92.1942 21.3701 91.5511 20.2247 91.555 19.2854C91.555 18.9892 91.6191 18.7494 91.7328 18.574Z" fill="#C9CBD6"/>
<path d="M91.744 18.574C91.8062 18.4779 91.882 18.4016 91.9704 18.3461C92.3346 18.031 92.8067 17.8408 93.3216 17.8428C93.4488 17.8438 93.5732 17.8557 93.6946 17.8795C93.172 18.0994 92.7941 18.6523 92.7387 19.2448C92.6756 20.194 92.934 21.1878 93.4313 22.0211C93.2953 21.9903 93.1496 21.9319 93 21.8427C92.2045 21.3701 91.5614 20.2247 91.5653 19.2854C91.5663 18.9892 91.6304 18.7494 91.744 18.574Z" fill="#A0A6C0"/>
<path d="M94.3617 21.3264C94.2442 21.3799 94.1063 21.4146 93.9897 21.3601C93.8848 21.3106 93.8207 21.1966 93.7925 21.0817C93.7264 20.8132 93.8246 20.5199 94.0043 20.3118C94.184 20.1037 94.4346 19.971 94.694 19.8867C95.1806 19.7282 95.1583 20.2385 95.0466 20.5565C94.929 20.8914 94.6813 21.1808 94.3617 21.3264Z" fill="#E4E6F0"/>
<path d="M94.4837 19.2147L94.6382 19.1265L93.3307 16.7891C93.1432 16.4552 92.8916 16.1828 92.6216 16.0232L89.6938 14.2962C89.4121 14.1298 89.1324 14.106 88.9255 14.2289L87.6063 15.0166L87.6967 15.1711L89.0158 14.3834C89.1654 14.2943 89.381 14.318 89.6054 14.4508L92.5332 16.1778C92.7731 16.3195 93.0082 16.5741 93.1772 16.8773L94.4837 19.2147Z" fill="#8A94BF"/>
<path d="M94.2508 18.3664C94.242 18.3704 94.2333 18.3744 94.2245 18.3793C94.2003 18.3912 94.1769 18.4051 94.1546 18.4209C94.0953 18.4744 94.0565 18.5686 94.0487 18.6994C94.0293 19.0323 94.2168 19.4742 94.4684 19.6862C94.5674 19.7694 94.6617 19.8051 94.7404 19.7972C94.7656 19.7912 94.7899 19.7833 94.8152 19.7744C94.8249 19.7704 94.8336 19.7665 94.8433 19.7625C95.1755 19.6159 95.3125 19.1839 95.1483 18.7984C94.9861 18.413 94.583 18.2198 94.2508 18.3664Z" fill="#A0A6C0"/>
<path d="M94.0474 18.6983C94.0552 18.5675 94.094 18.4734 94.1533 18.4199C94.1756 18.405 94.198 18.3911 94.2232 18.3783C94.232 18.3743 94.2407 18.3693 94.2495 18.3654C94.4088 18.295 94.5846 18.3029 94.7429 18.3733C94.3961 18.5447 94.2873 19.053 94.3757 19.3611C94.435 19.5088 94.5146 19.6475 94.6118 19.7743C94.5661 19.7555 94.5176 19.7258 94.468 19.6841C94.2164 19.4731 94.028 19.0312 94.0474 18.6983Z" fill="#8A94BF"/>
<path d="M86.747 15.5782C86.7518 15.5851 86.7557 15.593 86.7606 15.6C86.7742 15.6208 86.7887 15.6396 86.8053 15.6574C86.8597 15.703 86.949 15.7248 87.0675 15.7129C87.3696 15.6832 87.7475 15.4484 87.9126 15.1878C87.9777 15.0857 88.0001 14.9946 87.9845 14.9242C87.9767 14.9024 87.967 14.8806 87.9564 14.8598C87.9525 14.8519 87.9476 14.844 87.9427 14.836C87.7747 14.5546 87.3716 14.4932 87.0413 14.6983C86.7101 14.9034 86.5789 15.2968 86.747 15.5782Z" fill="#A0A6C0"/>
<path d="M86.8667 14.8467C86.9259 15.0339 87.0337 15.1984 87.1804 15.2935C87.3436 15.4323 87.6078 15.4263 87.8225 15.3074C87.6331 15.5165 87.3242 15.6889 87.0687 15.7146C86.9502 15.7265 86.8618 15.7047 86.8064 15.6591C86.7899 15.6413 86.7754 15.6225 86.7618 15.6017C86.7569 15.5947 86.752 15.5868 86.7482 15.5799C86.6151 15.356 86.6714 15.0617 86.8667 14.8467Z" fill="#8A94BF"/>
<path d="M89.1388 22.4666L89.2534 22.3992L88.8581 22.3447L88.7434 22.4121L89.1388 22.4666Z" fill="#333333"/>
<path d="M89.4349 22.5054L89.5496 22.4381L89.2659 22.3994L89.1513 22.4668L89.4349 22.5054Z" fill="#333333"/>
<path d="M89.4349 22.5049L89.5496 22.4375L87.5553 19.0439L87.4407 19.1113L89.4349 22.5049Z" fill="#333333"/>
<path d="M89.6571 22.8804L89.7717 22.8131L89.4881 22.7744L89.3735 22.8418L89.6571 22.8804Z" fill="#333333"/>
<path d="M89.8666 23.2395L89.9812 23.1722L89.7695 22.8125L89.6548 22.8799L89.8666 23.2395Z" fill="#333333"/>
<path d="M90.7366 22.6846L89.4243 22.5052L89.1406 22.4666L88.7453 22.4121L88.8424 22.7698L89.3601 22.8401L89.6438 22.8788L90.8328 23.0413L90.7366 22.6846Z" fill="#333333"/>
<path d="M87.4442 19.1113L87.2577 19.2342L89.1548 22.4662L89.4385 22.5049L87.4442 19.1113Z" fill="#333333"/>
<path d="M89.6781 23.3631L89.7928 23.2957L89.9812 23.1709L89.8666 23.2383L89.6781 23.3631Z" fill="#333333"/>
<path d="M89.8579 23.2391L89.6461 22.8795L89.3625 22.8408L89.6695 23.364L89.8579 23.2391Z" fill="#333333"/>
<path d="M90.8412 23.0408L90.9558 22.9734L90.8596 22.6167L90.745 22.6841L90.8412 23.0408Z" fill="#333333"/>
<path d="M90.7364 22.6842L90.8511 22.6168L89.5387 22.4375L89.4241 22.5049L90.7364 22.6842Z" fill="#333333"/>
<path d="M89.4023 19.6452L89.4593 19.6115L89.4631 19.123L89.4052 19.1567L89.4023 19.6452Z" fill="#333333"/>
<path d="M89.4048 19.1572L89.4631 19.1235L89.2999 19.0264L89.2426 19.0601L89.4048 19.1572Z" fill="#333333"/>
<path d="M89.2392 19.0596L89.2362 19.549L89.3985 19.6451L89.4014 19.1567L89.2392 19.0596Z" fill="#333333"/>
<path d="M89.3533 25.9079L89.4102 25.8742L89.4141 25.3857L89.3562 25.4194L89.3533 25.9079Z" fill="#333333"/>
<path d="M89.3558 25.4194L89.4141 25.3857L89.2509 25.2886L89.1936 25.3233L89.3558 25.4194Z" fill="#333333"/>
<path d="M89.1952 25.3237L89.1923 25.8122L89.3545 25.9083L89.3584 25.4198L89.1952 25.3237Z" fill="#333333"/>
<path d="M86.8399 21.1184L86.8965 21.0847L86.8975 20.8965L86.8409 20.9302L86.8399 21.1184Z" fill="#333333"/>
<path d="M86.8401 20.9293L86.8975 20.8957L86.4817 20.6479L86.4234 20.6816L86.8401 20.9293Z" fill="#333333"/>
<path d="M86.419 20.6826L86.418 20.8719L86.8347 21.1186L86.8357 20.9303L86.419 20.6826Z" fill="#333333"/>
<path d="M92.1686 24.2874L92.2251 24.2537L92.2261 24.0645L92.1695 24.0981L92.1686 24.2874Z" fill="#333333"/>
<path d="M92.1688 24.0968L92.2261 24.0631L91.8103 23.8164L91.752 23.8501L92.1688 24.0968Z" fill="#333333"/>
<path d="M91.749 23.8516L91.7471 24.0398L92.1638 24.2875L92.1648 24.0983L91.749 23.8516Z" fill="#333333"/>
<path d="M89.2719 22.4473L89.2381 22.4672C89.2661 22.4503 89.3058 22.4533 89.3492 22.479L89.3831 22.4592C89.3396 22.4325 89.3009 22.4305 89.2719 22.4473Z" fill="#333333"/>
<path d="M89.3387 22.4803C89.2523 22.4288 89.1823 22.4694 89.1813 22.5715C89.1804 22.6726 89.2503 22.7964 89.3368 22.8479C89.4232 22.8995 89.4941 22.8588 89.4941 22.7578C89.4941 22.6547 89.4252 22.5309 89.3387 22.4803Z" fill="#2E2E35"/>
<path d="M89.3645 22.4593L89.3307 22.4791C89.2872 22.4534 89.2485 22.4504 89.2196 22.4672L89.2534 22.4474C89.265 22.4405 89.2795 22.4365 89.294 22.4365C89.3162 22.4375 89.3394 22.4444 89.3645 22.4593Z" fill="#CC6F2B"/>
<mask id="mask20_461_19643" style="mask-type:luminance" maskUnits="userSpaceOnUse" x="89" y="22" width="1" height="1">
<path d="M89.3706 22.4593L89.3368 22.4791C89.2933 22.4534 89.2546 22.4504 89.2257 22.4672L89.2595 22.4474C89.2711 22.4405 89.2856 22.4365 89.3001 22.4365C89.3223 22.4375 89.3455 22.4444 89.3706 22.4593Z" fill="white"/>
</mask>
<g mask="url(#mask20_461_19643)">
<path d="M89.3368 22.4789L89.3706 22.4591C89.3368 22.4383 89.3049 22.4324 89.2798 22.4393L89.2459 22.4591C89.2711 22.4522 89.303 22.4581 89.3368 22.4789Z" fill="#333333"/>
</g>
<mask id="mask21_461_19643" style="mask-type:luminance" maskUnits="userSpaceOnUse" x="89" y="22" width="1" height="1">
<path d="M89.3706 22.4593L89.3368 22.4791C89.2933 22.4534 89.2546 22.4504 89.2257 22.4672L89.2595 22.4474C89.2711 22.4405 89.2856 22.4365 89.3001 22.4365C89.3223 22.4375 89.3455 22.4444 89.3706 22.4593Z" fill="white"/>
</mask>
<g mask="url(#mask21_461_19643)">
<path d="M89.2512 22.4591L89.2844 22.4395C89.2778 22.4414 89.2711 22.4444 89.2654 22.4473L89.2322 22.4669C89.2379 22.463 89.2445 22.4611 89.2512 22.4591Z" fill="#333333"/>
</g>
<path d="M89.4504 22.8583L89.4844 22.8385C89.5126 22.8216 89.53 22.7859 89.531 22.7364C89.532 22.6353 89.462 22.5115 89.3756 22.46L89.3416 22.4798C89.428 22.5313 89.497 22.6552 89.497 22.7562C89.496 22.8067 89.4785 22.8414 89.4504 22.8583Z" fill="#333333"/>
<path d="M89.5246 22.7364C89.5246 22.7869 89.5072 22.8226 89.478 22.8385L89.444 22.8583C89.4722 22.8414 89.4897 22.8067 89.4897 22.7562C89.4907 22.6542 89.4207 22.5313 89.3343 22.4798L89.3683 22.46C89.4557 22.5115 89.5256 22.6353 89.5246 22.7364Z" fill="#CC6F2B"/>
<mask id="mask22_461_19643" style="mask-type:luminance" maskUnits="userSpaceOnUse" x="89" y="22" width="1" height="1">
<path d="M89.531 22.7364C89.531 22.7869 89.5135 22.8226 89.4844 22.8385L89.4504 22.8583C89.4785 22.8414 89.496 22.8067 89.496 22.7562C89.497 22.6542 89.4271 22.5313 89.3406 22.4798L89.3746 22.46C89.462 22.5115 89.532 22.6353 89.531 22.7364Z" fill="white"/>
</mask>
<g mask="url(#mask22_461_19643)">
<path d="M89.4513 22.8594L89.4849 22.8396C89.5128 22.8227 89.53 22.787 89.531 22.7375C89.531 22.689 89.5157 22.6364 89.4907 22.5879L89.4571 22.6077C89.482 22.6563 89.4974 22.7088 89.4974 22.7573C89.4965 22.8078 89.4792 22.8425 89.4513 22.8594Z" fill="#333333"/>
</g>
<mask id="mask23_461_19643" style="mask-type:luminance" maskUnits="userSpaceOnUse" x="89" y="22" width="1" height="1">
<path d="M89.531 22.7364C89.531 22.7869 89.5135 22.8226 89.4844 22.8385L89.4504 22.8583C89.4785 22.8414 89.496 22.8067 89.496 22.7562C89.497 22.6542 89.4271 22.5313 89.3406 22.4798L89.3746 22.46C89.462 22.5115 89.532 22.6353 89.531 22.7364Z" fill="white"/>
</mask>
<g mask="url(#mask23_461_19643)">
<path d="M89.4662 22.6086L89.5 22.5887C89.472 22.5352 89.4314 22.4887 89.386 22.4619L89.3522 22.4817C89.3976 22.5085 89.4382 22.5551 89.4662 22.6086Z" fill="#333333"/>
</g>
<path d="M71.6137 0.52157L72.5259 0.160913C73.4613 -0.208662 74.6367 0.0539042 75.8267 1.0358L74.9145 1.39646C73.7246 0.414562 72.5492 0.151005 71.6137 0.52157Z" fill="#F1935C"/>
<path d="M72.5259 0.160513L71.6138 0.52117C72.5492 0.151596 73.7246 0.414162 74.9145 1.39606L75.8267 1.0354C74.9777 0.334896 74.1365 0 73.3846 0C73.0815 0 72.793 0.0544955 72.5259 0.160513Z" fill="#CC6F2B"/>
<mask id="mask24_461_19643" style="mask-type:luminance" maskUnits="userSpaceOnUse" x="71" y="0" width="5" height="2">
<path d="M72.5259 0.160513L71.6138 0.52117C72.5492 0.151596 73.7246 0.414162 74.9145 1.39606L75.8267 1.0354C74.9777 0.334896 74.1365 0 73.3846 0C73.0815 0 72.793 0.0544955 72.5259 0.160513Z" fill="white"/>
</mask>
<g mask="url(#mask24_461_19643)">
<path d="M71.6137 0.52157L72.5259 0.160913C73.4613 -0.208662 74.6367 0.0539042 75.8267 1.0358L74.9145 1.39646C73.7246 0.414562 72.5492 0.151005 71.6137 0.52157Z" fill="#D9641F"/>
</g>
<path d="M77.3833 12.9507L76.4712 13.3114C77.395 12.9468 78.0846 11.9648 78.3226 10.4499C78.8035 7.40115 77.2765 3.34772 74.9111 1.39581L75.8233 1.03516C78.1886 2.98706 79.7156 7.04049 79.2348 10.0892C78.9968 11.6042 78.3071 12.5861 77.3833 12.9507Z" fill="#F1935C"/>
<path d="M74.9111 1.39581C77.2765 3.34772 78.8035 7.40115 78.3226 10.4499C78.0837 11.9639 77.394 12.9458 76.4712 13.3114L77.3833 12.9507C78.3071 12.5861 78.9958 11.6042 79.2348 10.0892C79.7156 7.04049 78.1886 2.98706 75.8233 1.03516L74.9111 1.39581Z" fill="#CC6F2B"/>
<mask id="mask25_461_19643" style="mask-type:luminance" maskUnits="userSpaceOnUse" x="74" y="1" width="6" height="13">
<path d="M74.9175 1.39679C77.2828 3.3487 78.8098 7.40213 78.329 10.4509C78.09 11.9648 77.4003 12.9467 76.4775 13.3123L77.3897 12.9517C78.3134 12.5871 79.0021 11.6052 79.2411 10.0902C79.7219 7.04147 78.1949 2.98804 75.8296 1.03613L74.9175 1.39679Z" fill="white"/>
</mask>
<g mask="url(#mask25_461_19643)">
<path d="M74.9175 1.39679L75.8296 1.03613C78.1949 2.98804 79.7219 7.04147 79.2411 10.0902C79.0021 11.6042 78.3125 12.5861 77.3897 12.9517L76.4775 13.3123C77.4013 12.9477 78.091 11.9658 78.329 10.4509C78.8098 7.40213 77.2828 3.3487 74.9175 1.39679Z" fill="#D9641F"/>
</g>
<path d="M74.9046 1.39768C77.2699 3.34959 78.7969 7.40302 78.3161 10.4518C77.8352 13.5005 75.5282 14.3893 73.1638 12.4374C70.7985 10.4854 69.2715 6.43202 69.7523 3.38327C70.2331 0.334533 72.5392 -0.554229 74.9046 1.39768Z" fill="#F1935C"/>
<path d="M74.7437 2.46521C76.6505 4.03862 77.8822 7.30733 77.4946 9.76653C77.107 12.2247 75.2468 12.9421 73.34 11.3677C71.4332 9.79329 70.2014 6.52557 70.589 4.06637C70.9756 1.60914 72.8359 0.891792 74.7437 2.46521Z" fill="#E9ECF5"/>
<path d="M74.5566 3.63928C75.9612 4.79853 76.8675 7.20522 76.5819 9.01544C76.2964 10.8257 74.9267 11.3538 73.523 10.1945C72.1184 9.03526 71.2121 6.62857 71.4977 4.81835C71.7823 3.00812 73.1529 2.48002 74.5566 3.63928Z" fill="#F1935C"/>
<path d="M74.3723 4.73125C75.3088 5.50408 75.9139 7.10921 75.7235 8.31701C75.5331 9.52482 74.62 9.87656 73.6836 9.10372C72.7472 8.33088 72.142 6.72576 72.3324 5.51796C72.5218 4.31015 73.4359 3.95841 74.3723 4.73125Z" fill="#E9ECF5"/>
<path d="M74.2316 5.70517C74.7503 6.1332 75.0864 7.02296 74.9805 7.69275C74.8746 8.36155 74.3685 8.55674 73.8498 8.12871C73.3301 7.70068 72.995 6.80993 73.1009 6.14113C73.2058 5.47134 73.7119 5.27615 74.2316 5.70517Z" fill="#F1935C"/>
<path d="M75.6643 12.6915L75.5254 12.7737C75.5351 12.7678 75.5487 12.7687 75.5642 12.7777L75.7031 12.6954C75.6944 12.6905 75.6866 12.6875 75.6788 12.6875C75.673 12.6885 75.6682 12.6895 75.6643 12.6915Z" fill="#CC6F2B"/>
<mask id="mask26_461_19643" style="mask-type:luminance" maskUnits="userSpaceOnUse" x="75" y="12" width="1" height="1">
<path d="M75.6396 12.6905L75.5007 12.7727C75.5104 12.7668 75.524 12.7678 75.5396 12.7767L75.6785 12.6945C75.6697 12.6895 75.662 12.6865 75.6542 12.6865C75.6484 12.6875 75.6435 12.6885 75.6396 12.6905Z" fill="white"/>
</mask>
<g mask="url(#mask26_461_19643)">
<path d="M75.5396 12.7774L75.6785 12.6952C75.6639 12.6863 75.6503 12.6853 75.6396 12.6912L75.5007 12.7735C75.5104 12.7675 75.524 12.7685 75.5396 12.7774Z" fill="#7F89A6"/>
</g>
<path d="M69.5293 6.49957C68.4889 6.07054 67.4583 5.50677 66.5831 5.48596C65.7079 5.46516 65.8157 5.97939 66.2285 6.42129L69.5293 6.49957Z" fill="#E8680B"/>
<path d="M73.5815 6.52593L71.3357 6.35254C71.3532 6.35254 71.3716 6.36146 71.3872 6.37731L73.5815 6.53386V6.52593Z" fill="#28282F"/>
<path d="M73.5815 6.53252L71.3872 6.37598C71.395 6.38489 71.4027 6.3948 71.4095 6.40768L73.5815 6.54243V6.53252Z" fill="#35353F"/>
<path d="M73.5815 6.60882V6.54442L71.4095 6.40967C71.4367 6.46119 71.4445 6.53352 71.4319 6.59693L73.5815 6.60882Z" fill="#35353F"/>
<path d="M73.5815 6.60857L71.4319 6.59668C71.426 6.62442 71.4173 6.65018 71.4037 6.67198C71.3823 6.70765 71.3551 6.72449 71.3289 6.72449L73.5815 6.65217V6.60857Z" fill="#28282F"/>
<path d="M71.4006 6.40892C71.4404 6.48323 71.4375 6.60015 71.3947 6.67149C71.352 6.74283 71.285 6.74085 71.2451 6.66654C71.2053 6.59321 71.2082 6.47531 71.251 6.40397C71.2947 6.33362 71.3617 6.3356 71.4006 6.40892Z" fill="#23232A"/>
<path d="M70.6007 6.25195L72.0684 6.28267C72.1083 6.28366 72.1471 6.31041 72.1753 6.36491L70.7075 6.33419C70.6784 6.28069 70.6395 6.25294 70.6007 6.25195Z" fill="#FFC400"/>
<path d="M70.7075 6.3337L72.1753 6.36442C72.1462 6.31091 72.1073 6.28317 72.0684 6.28218L70.6007 6.25146C70.6395 6.25246 70.6784 6.2802 70.7075 6.3337Z" fill="#CC6F2B"/>
<mask id="mask27_461_19643" style="mask-type:luminance" maskUnits="userSpaceOnUse" x="70" y="6" width="3" height="1">
<path d="M70.7261 6.3337L72.1938 6.36442C72.1647 6.31091 72.1258 6.28317 72.087 6.28218L70.6192 6.25146C70.6581 6.25246 70.6969 6.2802 70.7261 6.3337Z" fill="white"/>
</mask>
<g mask="url(#mask27_461_19643)">
<path d="M70.6205 6.25146L72.0883 6.28218C72.1145 6.28218 72.1398 6.29506 72.1631 6.31884L70.6953 6.28813C70.672 6.26435 70.6458 6.25246 70.6205 6.25146Z" fill="#FFC400"/>
</g>
<mask id="mask28_461_19643" style="mask-type:luminance" maskUnits="userSpaceOnUse" x="70" y="6" width="3" height="1">
<path d="M70.7261 6.3337L72.1938 6.36442C72.1647 6.31091 72.1258 6.28317 72.087 6.28218L70.6192 6.25146C70.6581 6.25246 70.6969 6.2802 70.7261 6.3337Z" fill="white"/>
</mask>
<g mask="url(#mask28_461_19643)">
<path d="M70.6931 6.28809L72.1608 6.3188C72.1725 6.33069 72.1832 6.34654 72.1938 6.36438L70.7261 6.33366C70.7164 6.31583 70.7047 6.29998 70.6931 6.28809Z" fill="#FFC400"/>
</g>
<path d="M72.0839 6.82343L70.6161 6.79272C70.6549 6.79371 70.6948 6.76795 70.7258 6.71643C70.788 6.61338 70.7919 6.44197 70.7346 6.33496L72.2024 6.36568C72.2597 6.47268 72.2558 6.6441 72.1936 6.74714C72.1625 6.79866 72.1227 6.82442 72.0839 6.82343Z" fill="#FFC400"/>
<path d="M70.7195 6.71643C70.6884 6.76795 70.6486 6.79371 70.6097 6.79272L72.0775 6.82343C72.1164 6.82442 72.1562 6.79866 72.1873 6.74714C72.2494 6.6441 72.2533 6.47268 72.196 6.36568L70.7282 6.33496C70.7856 6.44296 70.7817 6.61338 70.7195 6.71643Z" fill="#CC6F2B"/>
<mask id="mask29_461_19643" style="mask-type:luminance" maskUnits="userSpaceOnUse" x="70" y="6" width="3" height="1">
<path d="M70.7258 6.71643C70.6948 6.76795 70.6549 6.79371 70.6161 6.79272L72.0839 6.82343C72.1227 6.82442 72.1625 6.79866 72.1936 6.74714C72.2558 6.6441 72.2597 6.47268 72.2024 6.36568L70.7346 6.33496C70.7919 6.44296 70.788 6.61338 70.7258 6.71643Z" fill="white"/>
</mask>
<g mask="url(#mask29_461_19643)">
<path d="M70.7348 6.33496L72.2025 6.36568C72.2424 6.43999 72.2521 6.546 72.2346 6.63815L70.7668 6.60744C70.7853 6.51529 70.7746 6.41026 70.7348 6.33496Z" fill="#FFC400"/>
</g>
<mask id="mask30_461_19643" style="mask-type:luminance" maskUnits="userSpaceOnUse" x="70" y="6" width="3" height="1">
<path d="M70.7258 6.71643C70.6948 6.76795 70.6549 6.79371 70.6161 6.79272L72.0839 6.82343C72.1227 6.82442 72.1625 6.79866 72.1936 6.74714C72.2558 6.6441 72.2597 6.47268 72.2024 6.36568L70.7346 6.33496C70.7919 6.44296 70.788 6.61338 70.7258 6.71643Z" fill="white"/>
</mask>
<g mask="url(#mask30_461_19643)">
<path d="M70.769 6.6084L72.2368 6.63911C72.229 6.67874 72.2155 6.7164 72.196 6.7481C72.1649 6.79962 72.1261 6.82439 72.0863 6.82439L70.6185 6.79368C70.6573 6.79467 70.6972 6.76891 70.7283 6.71739C70.7477 6.68667 70.7613 6.64902 70.769 6.6084Z" fill="#FFA200"/>
</g>
<path d="M70.7097 6.3347C70.767 6.44171 70.7631 6.61312 70.7009 6.71616C70.6388 6.8202 70.5416 6.81723 70.4843 6.71022C70.427 6.60321 70.4309 6.4318 70.4931 6.32876C70.5552 6.22571 70.6524 6.22769 70.7097 6.3347Z" fill="#FF9900"/>
<path d="M69.5354 6.49333C68.4766 6.87182 67.4217 7.38704 66.5455 7.36525C65.6703 7.34444 65.8014 6.83615 66.2346 6.41406L69.5354 6.49333Z" fill="#D9641F"/>
<path d="M66.2348 6.39676L70.5827 6.30957C70.6128 6.31056 70.6429 6.33137 70.6643 6.37199L66.2348 6.39676Z" fill="#F1893E"/>
<path d="M66.2409 6.39577L70.6704 6.37199C70.6481 6.33038 70.6189 6.30957 70.5888 6.30957L66.2409 6.39577Z" fill="#CC6F2B"/>
<mask id="mask31_461_19643" style="mask-type:luminance" maskUnits="userSpaceOnUse" x="66" y="6" width="5" height="1">
<path d="M66.2223 6.39577L70.6519 6.37199C70.6295 6.33038 70.6004 6.30957 70.5703 6.30957L66.2223 6.39577Z" fill="white"/>
</mask>
<g mask="url(#mask31_461_19643)">
<path d="M66.2281 6.39579L70.576 6.30859C70.5954 6.30859 70.6158 6.3185 70.6333 6.33634L66.2281 6.39579Z" fill="#F1893E"/>
</g>
<mask id="mask32_461_19643" style="mask-type:luminance" maskUnits="userSpaceOnUse" x="66" y="6" width="5" height="1">
<path d="M66.2223 6.39577L70.6519 6.37199C70.6295 6.33038 70.6004 6.30957 70.5703 6.30957L66.2223 6.39577Z" fill="white"/>
</mask>
<g mask="url(#mask32_461_19643)">
<path d="M66.2223 6.39539L70.6266 6.33594C70.6353 6.34485 70.6441 6.35674 70.6519 6.37062L66.2223 6.39539Z" fill="#F1935C"/>
</g>
<path d="M70.5738 6.7228L66.2346 6.39683L70.6641 6.37305C70.7078 6.45528 70.7049 6.58607 70.6573 6.66534C70.634 6.70398 70.6039 6.7228 70.5738 6.7228Z" fill="#F1935C"/>
<path d="M66.2346 6.39782L70.5738 6.7238C70.6039 6.72479 70.634 6.70497 70.6573 6.66534C70.7049 6.58607 70.7078 6.45528 70.6641 6.37305L66.2346 6.39782Z" fill="#CC6F2B"/>
<mask id="mask33_461_19643" style="mask-type:luminance" maskUnits="userSpaceOnUse" x="66" y="6" width="5" height="1">
<path d="M66.2283 6.39928L70.5674 6.72526C70.5975 6.72625 70.6277 6.70644 70.651 6.6668C70.6986 6.58754 70.7015 6.45675 70.6578 6.37451L66.2283 6.39928Z" fill="white"/>
</mask>
<g mask="url(#mask33_461_19643)">
<path d="M66.2276 6.39878L70.6571 6.375C70.6882 6.43247 70.696 6.51272 70.6814 6.58406L66.2276 6.39878Z" fill="#F1935C"/>
</g>
<mask id="mask34_461_19643" style="mask-type:luminance" maskUnits="userSpaceOnUse" x="66" y="6" width="5" height="1">
<path d="M66.2283 6.39928L70.5674 6.72526C70.5975 6.72625 70.6277 6.70644 70.651 6.6668C70.6986 6.58754 70.7015 6.45675 70.6578 6.37451L66.2283 6.39928Z" fill="white"/>
</mask>
<g mask="url(#mask34_461_19643)">
<path d="M66.2283 6.39941L70.6821 6.5837C70.6763 6.61442 70.6656 6.64315 70.651 6.66693C70.6277 6.70657 70.5976 6.72539 70.5675 6.72539L66.2283 6.39941Z" fill="#F1893E"/>
</g>
<path d="M69.5293 6.38488C68.9465 5.96675 68.5258 5.41685 67.6506 5.39604C66.7754 5.37524 66.313 5.96576 66.2373 6.39677L69.5293 6.38488Z" fill="#F1935C"/>
<path d="M69.5229 6.56721C68.9217 6.9566 68.4952 7.40742 67.619 7.38661C66.7438 7.36581 66.296 6.84365 66.2397 6.40967L69.5229 6.56721Z" fill="#F1893E"/>
<path d="M70.8059 8.86621C69.6985 9.05149 68.5309 9.11689 67.7723 9.56375C67.0136 10.0106 67.3682 10.3921 67.9461 10.5506L70.8059 8.86621Z" fill="#E8680B"/>
<path d="M73.9517 6.91504L72.2789 7.78399C72.2945 7.77507 72.3139 7.77309 72.3353 7.77804L73.9517 6.92495V6.91504Z" fill="#28282F"/>
<path d="M73.9517 6.92578L72.3353 7.77887C72.3469 7.78185 72.3586 7.7868 72.3702 7.79374L73.9507 6.94163V6.92578H73.9517Z" fill="#35353F"/>
<path d="M73.9517 6.94141L72.3712 7.79351C72.4208 7.82323 72.4645 7.88169 72.4858 7.94213L73.9517 7.04247V6.94141Z" fill="#35353F"/>
<path d="M73.9517 7.04248L72.4858 7.94214C72.4946 7.96889 72.5004 7.99565 72.5004 8.02042C72.5004 8.06203 72.4858 8.09076 72.4625 8.10463L73.9517 7.11283V7.04248Z" fill="#28282F"/>
<path d="M72.3669 7.7942C72.4388 7.83582 72.4961 7.93787 72.4961 8.02209C72.4961 8.10631 72.4378 8.13901 72.3659 8.09739C72.295 8.05578 72.2367 7.95372 72.2377 7.8695C72.2377 7.78627 72.295 7.75259 72.3669 7.7942Z" fill="#23232A"/>
<path d="M71.6103 8.08226L72.8799 7.33023C72.9139 7.31041 72.9615 7.31239 73.0139 7.3441L71.7443 8.09613C71.6919 8.06542 71.6452 8.06244 71.6103 8.08226Z" fill="#FFC400"/>
<path d="M72.875 7.33124L71.6054 8.08327C71.6394 8.06345 71.687 8.06544 71.7385 8.09714L73.0081 7.34511C72.9779 7.32728 72.9488 7.31836 72.9236 7.31836C72.9061 7.31836 72.8896 7.32232 72.875 7.33124Z" fill="#CC6F2B"/>
<mask id="mask35_461_19643" style="mask-type:luminance" maskUnits="userSpaceOnUse" x="71" y="7" width="3" height="2">
<path d="M72.8869 7.33222L71.6173 8.08425C71.6513 8.06443 71.6989 8.06641 71.7504 8.09812L73.02 7.34609C72.9899 7.32825 72.9608 7.31934 72.9355 7.31934C72.918 7.31934 72.9015 7.3233 72.8869 7.33222Z" fill="white"/>
</mask>
<g mask="url(#mask35_461_19643)">
<path d="M71.6122 8.08437L72.8818 7.33233C72.9041 7.31945 72.9323 7.31549 72.9644 7.32342L71.6948 8.07545C71.6637 8.06851 71.6355 8.07148 71.6122 8.08437Z" fill="#FFC400"/>
</g>
<mask id="mask36_461_19643" style="mask-type:luminance" maskUnits="userSpaceOnUse" x="71" y="7" width="3" height="2">
<path d="M72.8869 7.33222L71.6173 8.08425C71.6513 8.06443 71.6989 8.06641 71.7504 8.09812L73.02 7.34609C72.9899 7.32825 72.9608 7.31934 72.9355 7.31934C72.918 7.31934 72.9015 7.3233 72.8869 7.33222Z" fill="white"/>
</mask>
<g mask="url(#mask36_461_19643)">
<path d="M71.6989 8.07625L72.9685 7.32422C72.985 7.32818 73.0025 7.33512 73.02 7.34602L71.7504 8.09805C71.7329 8.08715 71.7154 8.08021 71.6989 8.07625Z" fill="#FFC400"/>
</g>
<path d="M73.157 7.79655L71.8874 8.54858C71.9214 8.52877 71.9418 8.48616 71.9418 8.42572C71.9418 8.30484 71.8583 8.15622 71.7553 8.09578L73.0249 7.34375C73.1288 7.40518 73.2124 7.55281 73.2114 7.67369C73.2114 7.73413 73.19 7.77674 73.157 7.79655Z" fill="#FFC400"/>
<path d="M71.7492 8.09676C71.8531 8.15819 71.9367 8.30582 71.9357 8.4267C71.9357 8.48714 71.9143 8.52974 71.8813 8.54956L73.1509 7.79753C73.1849 7.77771 73.2053 7.73511 73.2053 7.67467C73.2053 7.55379 73.1218 7.40517 73.0188 7.34473L71.7492 8.09676Z" fill="#CC6F2B"/>
<mask id="mask37_461_19643" style="mask-type:luminance" maskUnits="userSpaceOnUse" x="71" y="7" width="3" height="2">
<path d="M71.7553 8.0948C71.8592 8.15623 71.9428 8.30387 71.9418 8.42475C71.9418 8.48519 71.9204 8.52779 71.8874 8.54761L73.157 7.79558C73.191 7.77576 73.2114 7.73316 73.2114 7.67272C73.2114 7.55184 73.1279 7.40321 73.0249 7.34277L71.7553 8.0948Z" fill="white"/>
</mask>
<g mask="url(#mask37_461_19643)">
<path d="M71.7449 8.0948L73.0146 7.34277C73.0864 7.38538 73.1496 7.47059 73.1807 7.55877L71.9111 8.3108C71.88 8.22163 71.8168 8.13741 71.7449 8.0948Z" fill="#FFC400"/>
</g>
<mask id="mask38_461_19643" style="mask-type:luminance" maskUnits="userSpaceOnUse" x="71" y="7" width="3" height="2">
<path d="M71.7553 8.0948C71.8592 8.15623 71.9428 8.30387 71.9418 8.42475C71.9418 8.48519 71.9204 8.52779 71.8874 8.54761L73.157 7.79558C73.191 7.77576 73.2114 7.73316 73.2114 7.67272C73.2114 7.55184 73.1279 7.40321 73.0249 7.34277L71.7553 8.0948Z" fill="white"/>
</mask>
<g mask="url(#mask38_461_19643)">
<path d="M71.9205 8.31062L73.1901 7.55859C73.2037 7.59724 73.2114 7.63588 73.2114 7.67353C73.2114 7.73397 73.1901 7.77657 73.157 7.79639L71.8874 8.54842C71.9214 8.5286 71.9418 8.486 71.9418 8.42556C71.9418 8.38791 71.9341 8.34926 71.9205 8.31062Z" fill="#FFA200"/>
</g>
<path d="M71.7544 8.09673C71.8583 8.15816 71.9419 8.30579 71.9409 8.42667C71.9409 8.54854 71.8564 8.59709 71.7525 8.53665C71.6485 8.47522 71.565 8.32759 71.565 8.20572C71.566 8.08484 71.6505 8.0353 71.7544 8.09673Z" fill="#FF9900"/>
<path d="M70.8372 8.85156C70.1261 9.73636 69.4869 10.7361 68.7283 11.183C67.9696 11.6298 67.8229 11.1255 67.9774 10.536L70.8372 8.85156Z" fill="#D9641F"/>
<path d="M67.9544 10.5276L71.6234 8.14666C71.6496 8.13081 71.6855 8.13378 71.7253 8.15657L67.9544 10.5276Z" fill="#F1893E"/>
<path d="M71.6107 8.14676L67.9417 10.5277L71.7126 8.15766C71.6893 8.14379 71.668 8.13785 71.6485 8.13785C71.6349 8.13686 71.6223 8.14082 71.6107 8.14676Z" fill="#CC6F2B"/>
<mask id="mask39_461_19643" style="mask-type:luminance" maskUnits="userSpaceOnUse" x="67" y="8" width="5" height="3">
<path d="M71.5921 8.14774L67.9232 10.5287L71.6941 8.15864C71.6708 8.14477 71.6494 8.13882 71.63 8.13882C71.6164 8.13783 71.6038 8.14179 71.5921 8.14774Z" fill="white"/>
</mask>
<g mask="url(#mask39_461_19643)">
<path d="M67.931 10.5276L71.6 8.1467C71.6174 8.1368 71.6388 8.13382 71.6631 8.13977L67.931 10.5276Z" fill="#F1893E"/>
</g>
<mask id="mask40_461_19643" style="mask-type:luminance" maskUnits="userSpaceOnUse" x="67" y="8" width="5" height="3">
<path d="M71.5921 8.14774L67.9232 10.5287L71.6941 8.15864C71.6708 8.14477 71.6494 8.13882 71.63 8.13882C71.6164 8.13783 71.6038 8.14179 71.5921 8.14774Z" fill="white"/>
</mask>
<g mask="url(#mask40_461_19643)">
<path d="M67.9232 10.528L71.6552 8.14111C71.6679 8.14409 71.6815 8.15003 71.6941 8.15796L67.9232 10.528Z" fill="#F1893E"/>
</g>
<path d="M71.824 8.50302L67.952 10.5273L71.7229 8.15723C71.8026 8.20379 71.8667 8.31675 71.8667 8.40989C71.8657 8.45546 71.8492 8.48816 71.824 8.50302Z" fill="#F1935C"/>
<path d="M67.9579 10.5273L71.8308 8.50304C71.857 8.48817 71.8726 8.45548 71.8726 8.40891C71.8726 8.31577 71.8085 8.20282 71.7288 8.15625L67.9579 10.5273Z" fill="#CC6F2B"/>
<mask id="mask41_461_19643" style="mask-type:luminance" maskUnits="userSpaceOnUse" x="67" y="8" width="5" height="3">
<path d="M67.9642 10.5292L71.8371 8.50499C71.8634 8.49013 71.8789 8.45743 71.8789 8.41086C71.8789 8.31772 71.8148 8.20477 71.7351 8.1582L67.9642 10.5292Z" fill="white"/>
</mask>
<g mask="url(#mask41_461_19643)">
<path d="M67.9685 10.5287L71.7395 8.15869C71.7948 8.19139 71.8424 8.25579 71.8667 8.32416L67.9685 10.5287Z" fill="#F1935C"/>
</g>
<mask id="mask42_461_19643" style="mask-type:luminance" maskUnits="userSpaceOnUse" x="67" y="8" width="5" height="3">
<path d="M67.9642 10.5292L71.8371 8.50499C71.8634 8.49013 71.8789 8.45743 71.8789 8.41086C71.8789 8.31772 71.8148 8.20477 71.7351 8.1582L67.9642 10.5292Z" fill="white"/>
</mask>
<g mask="url(#mask42_461_19643)">
<path d="M67.9645 10.5268L71.8626 8.32129C71.8733 8.35101 71.8792 8.38074 71.8792 8.40848C71.8792 8.45406 71.8626 8.48676 71.8374 8.50261L67.9645 10.5268Z" fill="#F1893E"/>
</g>
<path d="M70.7502 8.77184C70.0392 8.72428 69.4 8.47757 68.6414 8.92443C67.8827 9.37128 67.7894 10.1203 67.9439 10.5286L70.7502 8.77184Z" fill="#F1935C"/>
<path d="M70.8369 8.93164C70.5212 9.5836 70.3872 10.1949 69.6285 10.6408C68.8699 11.0877 68.2219 10.8786 67.9529 10.5378L70.8369 8.93164Z" fill="#F1893E"/>
<path d="M89.3495 48.8965C92.4172 51.5955 96.1065 53.4651 99.2558 56.065C102.405 58.6649 105.108 62.3617 104.997 66.4934C103.502 65.2697 101.99 64.0342 100.258 63.1949C98.5272 62.3557 96.5291 61.9376 94.6747 62.432C92.0374 63.1345 90.1956 65.4728 88.0615 67.2018C85.1512 69.5599 81.4726 70.8708 77.7599 71.0501C75.0206 71.1829 72.0433 70.6033 70.1831 68.5473C67.9742 66.105 67.9771 62.322 68.7756 59.0999C69.5741 55.8778 71.0321 52.8033 71.307 49.4919C71.7772 43.8483 68.7707 38.5018 68.2928 32.8601C68.1442 31.1074 68.3171 29.1535 69.5449 27.9159C70.5513 26.9023 72.0938 26.5942 73.4907 26.8241C75.618 27.1738 77.3898 28.0844 78.198 30.0769C79.1335 32.3835 79.9922 34.7129 81.0384 36.972C83.0919 41.4029 85.6787 45.6664 89.3495 48.8965Z" fill="#F1935C"/>
<path d="M55.9317 37.9556C55.7374 37.8645 55.5694 37.7238 55.3819 37.6178C55.1293 37.4771 54.8476 37.4028 54.5689 37.3314C53.7723 37.1253 52.9768 36.9202 52.1812 36.7141C52.0501 36.6805 51.882 36.6606 51.8091 36.7756C51.7771 36.8261 51.7751 36.8905 51.7849 36.95C51.8159 37.1342 51.9568 37.2819 52.1161 37.373C52.2764 37.4632 52.4561 37.5078 52.6319 37.5623C52.9233 37.6544 53.205 37.7783 53.4702 37.9319C53.4945 37.9457 53.5188 37.9616 53.5285 37.9873C53.547 38.0359 53.5003 38.0835 53.4576 38.1132C53.2653 38.2479 53.0486 38.3411 52.8252 38.4065C52.7086 38.4401 52.5901 38.4659 52.4716 38.4877C52.3628 38.5065 52.2647 38.5571 52.1569 38.567C51.5711 38.6215 50.9708 38.5699 50.4016 38.7225C50.2122 38.7741 49.9334 38.994 50.2209 39.1466C50.4579 39.2724 50.7397 39.2625 51.0068 39.2586C51.3322 39.2536 51.6586 39.2625 51.983 39.2843C52.0598 39.2903 52.1384 39.3022 52.2142 39.3012C52.2502 39.3002 52.3143 39.2764 52.3473 39.2972C52.5348 39.4141 52.0228 39.5895 51.9626 39.6162C51.7227 39.7242 51.4818 39.8312 51.2418 39.9392C50.9718 40.0601 50.6775 40.2048 50.5599 40.4802C50.5211 40.5704 50.4987 40.6497 50.5735 40.7111C50.6289 40.7577 50.7416 40.7795 50.8115 40.7805C50.9689 40.7824 51.1146 40.7042 51.2555 40.6318C51.5993 40.4565 51.9578 40.3108 52.3249 40.1939C52.4959 40.1404 52.6902 40.0681 52.868 40.0463C53.1011 40.0175 52.9729 40.2137 52.8524 40.287C52.5863 40.4465 52.3084 40.6011 52.0821 40.8201C51.9888 40.9112 51.8567 41.043 51.8053 41.1659C51.7421 41.3175 51.8985 41.4066 52.0306 41.3948C52.1618 41.3829 52.2793 41.3115 52.392 41.2432C52.6649 41.0757 52.9379 40.9093 53.2109 40.7418C53.3235 40.6725 53.4556 40.5555 53.5829 40.5218C53.6771 40.4961 53.7743 40.5268 53.7315 40.6427C53.6742 40.7993 53.5382 40.9112 53.443 41.047C53.376 41.1421 53.3294 41.2501 53.3051 41.364C53.2944 41.4166 53.2925 41.4829 53.3381 41.5117C53.374 41.5345 53.4197 41.5206 53.4595 41.5057C53.6742 41.4225 53.8947 41.3115 54.0511 41.1352C54.2191 40.9469 54.4581 40.7894 54.6582 40.6378C55.0711 40.3267 55.5228 40.0532 56.0279 39.9333C56.3309 39.861 56.6467 39.8451 56.9458 39.754C57.0177 39.7322 57.0915 39.7034 57.1382 39.643C57.1916 39.5736 57.1965 39.4785 57.1926 39.3903C57.1809 39.101 57.1051 38.8157 56.9779 38.5581C56.8846 38.3698 56.7001 37.9883 56.4582 38.0161C56.2688 38.0379 56.1104 38.0389 55.9317 37.9556Z" fill="#FFBFA2"/>
<path d="M64.7533 40.2803C65.2585 40.2297 64.5464 39.449 65.0137 39.2102C65.4848 38.9684 65.8141 38.58 66.1375 38.0906C66.2842 37.8686 66.4261 37.5932 66.3717 37.3098C66.3221 37.0512 66.1259 36.8828 65.9374 36.7579C64.8058 36.0089 63.576 36.097 62.3637 36.43C61.5439 36.6559 56.615 37.4525 56.1294 37.8191C55.768 38.0925 55.7855 38.7851 55.8661 39.1854C55.9331 39.5173 56.0808 39.9414 56.3751 40.1207C56.6442 40.2842 63.6032 40.3962 64.7533 40.2803Z" fill="#E0DDE1"/>
<path d="M66.7777 37.5978C67.2362 36.7823 70.1708 31.0544 70.7954 30.3589C71.4073 29.6762 69.5471 31.0415 68.8332 30.5065C68.3164 30.1201 67.5674 30.0101 67.0002 30.3252C65.6995 31.0495 64.8777 32.7398 64.5338 34.1022C64.5183 34.1626 64.4988 34.2221 64.4784 34.2815C64.1248 35.3466 63.5974 36.3692 63.1253 37.3818C62.898 37.8683 62.5862 38.2864 62.7328 38.8274C62.8805 39.3713 63.2409 39.8667 63.746 40.1085C64.4668 40.4533 65.2089 40.3176 65.5761 39.628C65.9443 38.9354 66.3921 38.2814 66.7777 37.5978Z" fill="#E0DDE1"/>
<path d="M59.63 34.2465C59.7096 34.3327 59.7942 34.415 59.8845 34.4942C60.4489 34.9847 61.2066 35.2839 61.938 35.1571C62.6685 35.0313 63.331 34.415 63.3932 33.661C63.4398 33.0883 63.1561 32.5413 62.822 32.0786C62.2353 31.2672 61.6369 30.5092 60.9987 29.7413C60.2915 28.8902 59.5911 28.0331 58.8704 27.1939C58.4536 26.7074 57.9359 25.887 57.3424 25.6036C56.915 25.3995 56.337 25.7622 56.0397 26.0386C55.794 26.2675 55.5132 26.6182 55.52 26.9858C55.5249 27.2207 55.7551 27.5357 55.8571 27.7349C56.1291 28.268 56.4157 28.7931 56.7042 29.3172C57.2996 30.3992 57.9087 31.4732 58.5323 32.5384C58.8801 33.1338 59.1666 33.7442 59.63 34.2465Z" fill="#F1F1F1"/>
<path d="M65.4022 32.5621C66.0783 31.924 70.5583 27.3524 71.3588 26.8788C72.1427 26.4151 69.9677 27.1502 69.4432 26.421C69.0634 25.8949 68.3805 25.561 67.7471 25.6898C66.2939 25.9841 65.0146 27.3464 64.2861 28.5413C64.253 28.5949 64.2171 28.6454 64.1812 28.6959C63.5323 29.6045 62.7289 30.4199 61.981 31.2413C61.573 31.6902 61.1621 32.136 60.7492 32.5789C60.5783 32.7622 61.6769 35.2016 62.1597 35.1025C62.8475 34.9608 64.867 33.0654 65.4022 32.5621Z" fill="#F1F1F1"/>
<path d="M78.9107 33.3791C78.6106 32.9045 78.0336 32.7173 77.4838 32.9451C76.9612 33.1621 76.0685 30.0024 75.8072 30.5117C75.0922 31.9048 75.4973 37.2304 75.8072 38.7444C76.0889 40.1216 76.3774 41.5068 76.7543 42.8612C76.7951 43.0089 76.8281 43.1743 76.898 43.3121C77.5625 44.6071 78.8437 44.5218 79.5606 43.8719C79.8753 43.5865 80.0667 43.323 80.1075 42.9068C80.1493 42.4788 80.0696 42.0091 80.0424 41.5821C79.9822 40.6527 79.9093 39.7243 79.8239 38.7969C79.7296 37.7754 79.6228 36.7548 79.4761 35.7392C79.3731 35.0288 79.2838 34.2699 79.0225 33.5971C78.9904 33.5198 78.9535 33.4465 78.9107 33.3791Z" fill="#E0DDE1"/>
<path d="M77.9684 29.5422C77.5585 29.1637 76.9533 29.134 76.4792 29.4996C76.0285 29.8464 75.8041 30.4201 75.6808 30.9819C75.3427 32.5157 75.6468 34.1634 76.3297 35.5446C76.9504 36.8009 77.5808 38.0632 78.288 39.272C78.3647 39.4038 78.4385 39.5554 78.5405 39.6693C79.5109 40.7454 80.7261 40.3243 81.2546 39.5088C81.4858 39.1502 81.6043 38.845 81.5382 38.4328C81.4693 38.0087 81.274 37.5757 81.14 37.1705C80.8466 36.2887 80.5406 35.4108 80.2239 34.5379C79.8742 33.5758 79.5129 32.6177 79.1136 31.6764C78.8339 31.0165 78.5551 30.3071 78.1326 29.7265C78.082 29.6581 78.0267 29.5967 77.9684 29.5422Z" fill="#F1F1F1"/>
<path d="M83.9004 30.3102C83.2816 30.3894 82.9202 31.0582 82.5657 31.5606C81.7341 32.7377 78.9783 35.7458 78.3323 38.3645C78.1769 38.9937 79.1541 39.9013 79.7943 40.1916C80.2314 40.3897 80.6423 40.1024 81.0639 39.7596C81.5875 39.3335 85.4041 32.0649 85.4487 31.7359C85.5449 31.0275 84.3792 30.2477 83.9004 30.3102Z" fill="#F1F1F1"/>
<path d="M86.5652 46.9751C86.7789 46.9791 86.9907 46.9266 87.2044 46.9147C87.4919 46.8988 87.7775 46.9583 88.0592 47.0167C88.8635 47.1842 89.6678 47.3507 90.4731 47.5181C90.6052 47.5458 90.7655 47.6023 90.782 47.7381C90.7888 47.7985 90.7636 47.857 90.7296 47.9065C90.6227 48.0591 90.4333 48.1294 90.2507 48.1413C90.0681 48.1522 89.8864 48.1116 89.7057 48.0839C89.4036 48.0373 89.0976 48.0244 88.7936 48.0462C88.7664 48.0482 88.7372 48.0512 88.7168 48.07C88.6799 48.1057 88.7013 48.1691 88.7266 48.2146C88.8422 48.4207 88.9976 48.6021 89.1715 48.7586C89.2618 48.8408 89.358 48.9161 89.4561 48.9875C89.5454 49.0529 89.6125 49.142 89.7057 49.1985C90.2108 49.5067 90.7723 49.7266 91.2211 50.116C91.3707 50.2458 91.528 50.5678 91.2036 50.5787C90.9365 50.5876 90.6878 50.4539 90.4479 50.332C90.1564 50.1834 89.8592 50.0467 89.5571 49.9228C89.4852 49.8941 89.4104 49.8703 89.3415 49.8346C89.3094 49.8178 89.2628 49.7682 89.2239 49.7722C89.0054 49.795 89.392 50.1784 89.4347 50.23C89.6057 50.4331 89.7757 50.6362 89.9466 50.8403C90.139 51.0692 90.342 51.3288 90.3313 51.63C90.3284 51.7281 90.3148 51.8093 90.2206 51.8321C90.1506 51.849 90.0399 51.8202 89.9758 51.7895C89.8339 51.7211 89.7358 51.5864 89.6397 51.4596C89.4046 51.1494 89.1443 50.8591 88.8626 50.5916C88.7314 50.4678 88.5867 50.3162 88.4361 50.2181C88.2389 50.0893 88.27 50.3221 88.3477 50.442C88.5197 50.7046 88.7042 50.9651 88.815 51.2634C88.8606 51.3862 88.9228 51.5636 88.917 51.6974C88.9092 51.8628 88.7305 51.8727 88.6168 51.8034C88.5041 51.734 88.4274 51.6181 88.3555 51.5061C88.1806 51.2346 88.0058 50.9632 87.8309 50.6917C87.7591 50.5797 87.6891 50.4162 87.5891 50.3281C87.5152 50.2627 87.4142 50.2478 87.4035 50.3716C87.388 50.5381 87.4638 50.6986 87.4919 50.8641C87.5114 50.979 87.5075 51.0979 87.4813 51.2109C87.4686 51.2634 87.4414 51.3238 87.389 51.3298C87.3472 51.3347 87.3113 51.302 87.2821 51.2703C87.1238 51.0999 86.9722 50.9027 86.9072 50.6748C86.8363 50.4301 86.6876 50.1824 86.572 49.9585C86.3331 49.4958 86.0417 49.0489 85.6385 48.718C85.3957 48.5188 85.1179 48.3642 84.8876 48.1502C84.8323 48.0987 84.7779 48.0403 84.7623 47.9659C84.7439 47.8797 84.7798 47.7926 84.8206 47.7143C84.9537 47.4586 85.1431 47.2357 85.3685 47.0593C85.5336 46.9305 85.861 46.669 86.0679 46.8017C86.2272 46.8998 86.369 46.9712 86.5652 46.9751Z" fill="#FFBFA2"/>
<path d="M86.5385 47.1569C86.4851 46.5237 85.844 46.1294 85.366 45.7479C84.2451 44.8542 81.4057 41.9283 78.8665 41.1674C78.2564 40.9841 77.3288 41.9452 77.0199 42.5862C76.8091 43.0242 76.9762 43.5206 77.3492 43.909C77.8174 44.3974 84.7618 48.6213 85.0824 48.6797C85.7701 48.8046 86.5803 47.6473 86.5385 47.1569Z" fill="#E0DDE1"/>
<path d="M73.8639 74.208C73.6764 75.9548 73.6726 77.7155 73.6677 79.4732C73.6667 80.0063 73.489 80.5086 73.5395 81.0476C73.5706 81.3914 73.6949 81.7402 73.9436 81.974C74.1952 82.2098 74.5507 82.3059 74.8926 82.303C75.592 82.296 76.2613 81.8918 76.6576 81.3042C77.2405 80.4373 77.1025 79.3375 77.2016 78.3447C77.2725 77.6332 77.323 76.9199 77.3532 76.2055C77.391 75.3019 77.0753 74.8936 76.4313 74.3279C75.9349 73.8919 75.4609 73.1845 74.8926 72.8714C74.6197 72.7208 74.2263 72.8565 74.0058 73.0557C73.761 73.2776 73.6318 73.6125 73.6075 73.9464L73.8639 74.208Z" fill="#333333"/>
<path d="M69.0176 71.7902C68.4823 71.8794 67.9179 72.238 67.4371 72.4679C66.2928 73.0168 65.1757 73.6242 64.0596 74.2316C63.2699 74.6606 61.5087 75.4096 61.908 76.6085C62.0916 77.1604 62.6375 77.525 63.1999 77.6271C64.3199 77.8312 65.2952 77.4903 66.185 76.8463C67.0651 76.2092 68.0617 75.7396 69.1079 75.473C70.0054 75.2442 70.5834 74.7359 70.6135 73.751C70.6427 72.7899 70.1453 71.6029 69.0176 71.7902Z" fill="#333333"/>
<path d="M65.9485 51.1787C66.339 54.1393 65.9699 62.7852 68.7976 62.0163C69.6845 61.7755 71.2222 60.1823 71.3601 58.2135C71.4339 57.1514 71.3786 55.6414 71.4339 54.5782C71.5505 52.3806 73.6429 45.3091 69.2502 43.9527C68.5897 43.7486 67.5717 42.4189 67.0112 42.8906C66.8956 42.9877 66.5333 43.4514 66.2593 44.459C66.103 45.0337 66.0194 45.9106 65.9165 46.6814C65.7406 48.0022 65.7329 49.5429 65.9485 51.1787Z" fill="#333333"/>
<path d="M67.1466 72.6296C67.2525 73.2548 67.6313 73.9415 69.7169 73.8553C70.2832 73.8315 70.6028 72.1491 70.6941 71.6992C71.0885 69.7582 70.7524 67.4556 70.8826 65.4749C71.0905 62.3281 71.4149 60.0948 71.2799 58.6433C71.2245 58.0438 70.4843 58.6839 70.1521 58.1855C69.3478 56.9777 66.4016 57.7198 66.5036 58.3212C66.9436 60.9093 67.1418 72.6029 67.1466 72.6296Z" fill="#333333"/>
<path d="M71.8879 59.7451C71.9054 60.4149 71.9734 61.0847 72.0326 61.7515C72.1288 62.8305 72.2347 63.9075 72.3445 64.9846C72.9594 71.0275 73.0429 74.1189 73.5674 75.3693C74.0007 76.4017 75.3538 76.2818 76.2232 75.9608C76.604 75.8201 76.9615 75.5803 77.1752 75.2296C77.3831 74.8887 77.4384 74.4756 77.4821 74.0763C77.9115 70.2032 77.6317 66.3648 76.6302 62.6066C76.3952 61.7248 76.1037 60.8172 75.586 60.0612C75.4014 59.7917 74.3786 61.6574 74.0959 61.5008C73.7899 61.3314 74.465 60.7855 74.1182 60.8221C73.4654 60.8915 72.8428 61.2244 72.4173 61.7337L71.8879 59.7451Z" fill="#333333"/>
<path d="M76.2507 44.1554C76.2507 44.1554 75.9817 43.8047 75.9758 43.8076C75.0287 44.3338 73.8407 44.2436 72.7081 44.415C70.2631 44.7836 70.0863 45.2324 68.4388 44.1772C68.1649 45.9141 68.6224 47.5222 68.6195 47.9057C68.602 49.8853 70.4049 49.9953 70.505 51.0356C70.7371 53.4473 71.1752 58.2101 71.6007 60.594C71.7668 61.5215 71.9601 62.4716 72.4711 63.2564C73.0665 64.1719 74.07 64.6435 75.1365 64.5117C75.4114 64.478 75.6873 64.3809 75.8874 64.1848C76.3518 63.73 76.8598 63.834 76.7792 63.1821C76.5441 61.2827 76.7092 58.6025 77.0599 56.7219C77.77 52.9192 77.9808 48.7637 76.2507 44.1554Z" fill="#333333"/>
<path d="M76.3445 40.2612L76.3367 40.2701C76.258 40.8983 76.2056 41.5305 76.1832 42.1636C76.2133 41.5275 76.2668 40.8924 76.3445 40.2612Z" fill="#F3A984"/>
<path d="M76.1841 42.1621C76.1653 42.5485 76.1563 42.9349 76.1563 43.3214C76.1633 43.3184 76.1712 43.3144 76.1781 43.3115C76.1682 42.929 76.1712 42.5456 76.1841 42.1621Z" fill="#F3A984"/>
<path d="M76.1889 42.162C76.2191 41.5258 76.2715 40.8917 76.3502 40.2596L76.3424 40.2685C76.4444 39.459 76.5892 38.6555 76.7669 37.8658C77.0836 36.4568 77.4479 35.3303 77.8257 33.9372C78.0365 33.1594 78.496 31.9803 78.5591 31.4255C78.7039 30.1443 77.9773 29.1555 76.3512 28.0319C75.2525 27.273 73.0572 26.2742 70.9104 25.5886C67.905 24.6285 67.4824 25.7471 66.6179 28.1924C65.8126 30.4693 66.0457 34.2225 66.4061 36.6461C66.5965 37.9302 66.714 39.2242 66.7568 40.5212C66.7947 41.6388 66.6703 42.7019 66.4877 43.7968C69.1172 45.6972 72.7046 45.2137 75.7062 44.4715C75.8936 44.4369 76.0714 44.3804 76.2414 44.3071C76.1802 43.5947 76.1637 42.8783 76.1889 42.162Z" fill="#F1F1F1"/>
<path d="M67.9079 27.6991C67.8933 27.7357 67.8739 27.7754 67.8379 27.7883C67.7855 27.8061 67.7359 27.7585 67.7019 27.7139C67.4406 27.3731 67.2435 26.9817 67.124 26.5666C67.0783 26.409 67.0443 26.2446 67.0618 26.0811C67.0793 25.9176 67.1541 25.7541 67.2891 25.6649C67.4222 25.5767 67.5893 25.5708 67.7476 25.5678C67.97 25.5639 68.4227 25.4628 68.6238 25.55C68.855 25.6511 68.6627 25.876 68.5713 26.0959C68.3586 26.6092 68.1954 27.2294 67.9079 27.6991Z" fill="#F1935C"/>
<path d="M74.4074 29.7766C74.2714 28.9919 74.2656 28.1834 74.3899 27.3967C74.4103 27.2689 74.4502 27.1202 74.5687 27.0727C74.6425 27.043 74.727 27.0628 74.8038 27.0846C75.3118 27.2312 75.7975 27.4551 76.2434 27.7445C76.4503 27.8792 77.4304 28.4856 77.3517 28.7967C77.3061 28.978 76.1958 28.977 75.9549 29.0385C75.3983 29.1801 74.8688 29.4298 74.4074 29.7766Z" fill="#F1935C"/>
<path d="M66.6417 42.709C66.598 43.0706 66.5475 43.4323 66.4863 43.7979C69.1158 45.6983 72.7032 45.2148 75.7048 44.4726C75.8922 44.438 76.07 44.3805 76.24 44.3082C76.2031 43.8772 76.1875 43.4452 76.1827 43.0132C73.6726 43.9921 69.2557 44.4786 66.6417 42.709Z" fill="#333333"/>
<path d="M75.0374 43.3837C75.0374 43.778 75.0374 44.213 75.0374 44.6311C75.2628 44.5806 75.4862 44.5281 75.7067 44.4726C75.766 44.4617 75.8184 44.4359 75.8757 44.4201C75.8757 43.9692 75.8757 43.5164 75.8757 43.1211C75.6105 43.2152 75.3327 43.3034 75.0374 43.3837Z" fill="#333333"/>
<path d="M69.1658 43.6953C69.1658 44.053 69.1658 44.4909 69.1658 44.9408C69.4417 44.9972 69.7215 45.0379 70.0042 45.0676C70.0042 44.6505 70.0042 44.2343 70.0042 43.8172C69.7215 43.7875 69.4398 43.7488 69.1658 43.6953Z" fill="#333333"/>
<path d="M70.8547 42.2394C70.5274 42.5218 70.1417 42.8617 69.8202 43.1441C69.3549 42.4 69.3423 42.3365 68.911 41.5895C68.8974 37.1546 69.0839 32.9981 70.1223 28.7515C70.5245 29.0428 70.7265 29.1884 71.1326 29.4807C70.6061 33.5421 70.2787 37.7699 70.8547 42.2394Z" fill="#F1935C"/>
<path d="M69.6844 28.6505C69.6796 28.6683 69.6776 28.6891 69.6786 28.7129C69.6825 28.8377 69.7573 28.9943 69.7991 29.1112C69.8894 29.3648 70.0021 29.6096 70.1371 29.8414C70.2109 29.9682 70.2993 30.099 70.4334 30.1545C70.5839 30.2169 70.7588 30.1714 70.8997 30.0901C71.0609 29.997 71.3572 29.8602 71.3212 29.6541C71.2892 29.4748 71.227 29.2935 71.1687 29.1211C71.0502 28.7684 70.8909 28.3314 70.5713 28.1154C70.2129 27.8727 69.9574 28.2363 69.768 28.5078C69.7281 28.5642 69.6971 28.5989 69.6844 28.6505Z" fill="#FAB380"/>
<path d="M74.2405 26.8539C74.3172 29.33 69.7643 29.3716 69.8294 27.0432C69.9207 23.7982 70.1141 23.4267 71.6129 22.9234C72.0238 22.7856 72.4532 22.6796 72.8874 22.6717C74.4698 22.642 73.8568 23.4614 73.7975 24.0331C73.6208 25.7284 74.2123 25.9622 74.2405 26.8539Z" fill="#F3A984"/>
<path d="M70.5654 28.3803C70.4848 28.6448 70.1419 28.737 69.9156 28.8916C69.8155 28.9589 69.6426 29.0907 69.5124 29.063C69.3813 29.0352 69.3026 28.8569 69.2579 28.7469C68.9364 27.9483 68.7528 27.0774 68.7441 26.2124C68.7412 25.9389 68.7849 25.6328 68.9957 25.4396C69.1851 25.2662 69.5105 25.2295 69.7427 25.3325C69.9913 25.4435 70.0516 25.9439 69.9632 26.1747C69.6455 27.0021 70.0079 27.9562 70.5654 28.3803Z" fill="#EBE9EB"/>
<path d="M70.539 28.3913C70.539 28.3913 70.9344 29.0294 71.4172 29.4663C71.5367 29.5753 71.6338 29.7091 71.7931 29.6556C72.5751 29.4 74.2206 27.99 74.548 27.0983C74.6665 26.7763 74.4372 26.376 74.2575 26.1233C74.2255 26.0787 73.9739 25.73 73.9263 25.6963C73.8942 25.7468 73.7242 26.3859 73.4493 26.7991C72.8169 27.7522 71.662 28.2357 70.539 28.3913Z" fill="#EBE9EB"/>
<path d="M67.8787 18.8753C67.5435 19.4213 67.3473 20.0514 67.3541 20.7202C67.357 21.0076 67.4037 21.2959 67.4979 21.5674C67.5872 21.825 67.7466 22.0678 67.7485 22.3491C67.7514 22.6781 67.5193 23.0467 67.4143 23.3568C67.3191 23.6372 67.2657 23.9513 67.3745 24.2267C67.4367 24.3853 67.5474 24.5171 67.6378 24.6607C68.0642 25.3454 67.6621 26.354 68.4052 26.8465C68.5907 26.9693 68.8102 26.9931 69.0298 27.005C69.3047 27.0199 70.5451 26.6651 71.025 26.4491C71.5554 26.2104 72.0722 25.5951 72.4549 25.1512C72.755 24.8034 73.2572 24.3565 73.4486 23.9404C73.5069 23.8126 73.366 23.7888 73.4943 23.7254C73.572 23.6867 73.6652 23.1834 73.7517 23.1745C73.8537 23.1636 73.9916 23.0487 74.079 22.9892C74.2451 22.8763 74.3248 23.2874 74.3802 23.0913C74.6133 22.259 74.9086 21.4079 74.8736 20.53C74.8416 19.7255 74.8591 19.0349 74.351 18.3502C73.9702 17.836 73.4243 17.4624 72.8337 17.2326C71.9313 16.8828 70.9094 16.864 69.9953 17.181C69.1298 17.4793 68.3605 18.0906 67.8787 18.8753Z" fill="#FFC7AD"/>
<path d="M70.8712 19.6171C71.0936 19.5804 71.318 19.5874 71.522 19.6805C71.8688 19.839 72.0747 20.2225 72.1301 20.6059C72.2515 21.4501 71.9659 22.2933 71.9436 23.1305C71.9397 23.2564 71.9475 23.3881 72.0077 23.4971C72.1728 23.7954 72.4827 23.6329 72.6576 23.4436C72.7703 23.3227 72.8577 23.1801 72.9655 23.0552C73.0733 22.9294 73.2084 22.8184 73.3696 22.7887C73.6261 22.7411 73.8242 22.9472 73.865 23.19C73.9019 23.4109 73.8553 23.6319 73.8038 23.8469C73.731 24.156 73.7436 24.4374 73.7436 24.4374C73.7436 24.4374 75.5047 22.9086 75.5659 20.4633C75.6252 18.117 73.8893 17.6186 73.8893 17.6186C73.8893 17.6186 73.187 16.4039 71.3336 16.494C70.3593 16.5416 69.4054 16.8646 68.5826 17.3887C68.5496 17.4096 68.5165 17.4314 68.4845 17.4531C68.0853 17.7177 67.7064 18.0328 67.448 18.441C66.737 19.5626 67.6947 20.4603 68.8478 20.273C69.3908 20.1848 69.8911 19.9282 70.4098 19.7419C70.5574 19.6894 70.7138 19.6419 70.8712 19.6171Z" fill="#333333"/>
<path d="M73.6024 22.1454C74.2853 22.0988 74.4592 22.9628 73.99 23.6316C73.853 23.8268 73.6112 23.9992 73.4324 24.1547C72.2085 25.2179 71.9006 24.0675 72.2901 23.7059C73.1935 22.8647 72.7437 22.2048 73.6024 22.1454Z" fill="#FFC7AD"/>
<path d="M73.1883 23.7977C73.267 23.7243 74.045 23.2557 73.5147 22.9366C73.368 22.8485 73.2048 22.9792 73.1815 23.1388C73.1698 23.221 73.1951 23.3052 73.1825 23.3875C73.1757 23.436 73.1553 23.4816 73.13 23.5242C73.061 23.6391 72.825 23.7491 72.8706 23.9175C72.9124 24.0652 73.1426 23.8393 73.1883 23.7977Z" fill="#F3A984"/>
<path d="M89.5008 30.3876C89.5027 30.3658 89.5057 30.343 89.5096 30.3192C89.5542 30.02 89.8563 30.0874 89.9399 29.8417C89.9884 29.698 89.8796 29.5989 89.8855 29.4691C89.8932 29.3056 90.0594 29.2521 89.9778 29.0559C89.7912 28.6101 88.9714 28.7438 88.6071 28.7795C88.1098 28.8271 87.627 28.9341 87.1423 29.046C86.9626 29.0876 86.5983 29.2918 86.5575 29.0114C86.5313 28.829 86.71 28.6675 86.8285 28.5625C87.0344 28.3822 87.594 28.1127 87.4366 27.755C87.2996 27.4459 86.9519 27.7877 86.8013 27.9056C86.5828 28.076 86.2826 28.0691 86.0339 28.1672C85.9008 28.2197 85.862 28.2762 85.7862 28.3862C85.6395 28.5982 85.4705 28.7409 85.3617 28.9777C85.216 29.2957 84.9081 29.6504 85.1082 30.0131C85.1694 30.124 85.2529 30.2261 85.2762 30.3519C85.2966 30.4639 85.2656 30.5798 85.284 30.6928C85.3073 30.8394 85.4122 30.9623 85.5366 31.0396C85.7882 31.1961 86.1398 31.2347 86.4273 31.2704C86.7061 31.3051 86.9878 31.3001 87.2666 31.2754C87.898 31.2189 88.5634 31.0871 89.1657 30.883C89.5183 30.7641 89.4717 30.6561 89.5008 30.3876Z" fill="#FFC7AD"/>
<path d="M51.4862 18.9149L60.3948 24.1612V16.5032L51.4862 11.2568V18.9149Z" fill="#F1935C"/>
<path d="M51.4862 11.2569L60.3948 16.5032L55.941 9.89746L51.4862 11.2569Z" fill="#F1935C"/>
<path d="M51.4862 18.9143L60.3948 24.1606L56.0216 17.543L51.4862 18.9143Z" fill="#FAB380"/>
<path d="M51.4862 18.9148L60.3948 24.1612L55.941 17.709L51.4862 18.9148Z" fill="#F1935C"/>
<path d="M60.3948 16.5032L51.4862 11.2568L55.941 17.709L60.3948 16.5032Z" fill="#FAB380"/>
<path d="M54.1284 32.957L54.109 36.9094L52.7675 37.704L52.7869 33.7517L54.1284 32.957Z" fill="#D9641F"/>
<path d="M52.7961 33.7517L52.7767 37.704L51.4265 36.9094L51.4469 32.957L52.7961 33.7517Z" fill="#F1935C"/>
<path d="M54.1284 32.9568L52.7869 33.7514L51.4377 32.9568L52.7782 32.1611L54.1284 32.9568Z" fill="#FF8070"/>
<path d="M55.8306 30.3389L55.8111 37.9137L54.4697 38.7083L54.49 31.1345L55.8306 30.3389Z" fill="#FFB700"/>
<path d="M54.4922 31.1345L54.4718 38.7083L53.1216 37.9137L53.142 30.3389L54.4922 31.1345Z" fill="#FFC400"/>
<path d="M55.8306 30.3386L54.49 31.1342L53.1398 30.3386L54.4803 29.5439L55.8306 30.3386Z" fill="#FFD438"/>
<path d="M110.156 31.1831L83.3681 11.662C78.4336 8.11267 70.5383 8.11267 65.6038 11.662L38.9574 31.1831C36.5606 32.9578 35.2917 35.2648 35.2917 37.7493L43.3604 90.2536C43.3604 92.0283 44.3474 93.9804 46.3212 95.4001L67.7186 107.671C71.5252 110.51 77.8696 110.51 81.6763 107.671L102.792 95.4001C104.766 93.9804 105.611 92.2057 105.611 90.2536L113.821 37.7493C113.821 35.4423 112.693 32.9578 110.156 31.1831Z" fill="url(#paint12_linear_461_19643)"/>
<defs>
<linearGradient id="paint0_linear_461_19643" x1="30.03" y1="134.924" x2="120.4" y2="134.924" gradientUnits="userSpaceOnUse">
<stop offset="0.3375" stop-color="#A1C1FF"/>
<stop offset="0.5932" stop-color="#E8F1FF"/>
</linearGradient>
<linearGradient id="paint1_linear_461_19643" x1="120.052" y1="116.624" x2="30.3377" y2="108.695" gradientUnits="userSpaceOnUse">
<stop stop-color="#FFE4D4"/>
<stop offset="1" stop-color="#F1935C"/>
</linearGradient>
<linearGradient id="paint2_linear_461_19643" x1="109.178" y1="115.61" x2="41.2311" y2="109.605" gradientUnits="userSpaceOnUse">
<stop stop-color="white"/>
<stop offset="1" stop-color="#C9D9F4"/>
</linearGradient>
<linearGradient id="paint3_linear_461_19643" x1="40.3543" y1="133.742" x2="38.6832" y2="130.924" gradientUnits="userSpaceOnUse">
<stop stop-color="#F1935C"/>
<stop offset="0.6426" stop-color="#EBC3AA"/>
</linearGradient>
<linearGradient id="paint4_linear_461_19643" x1="45.1053" y1="136.531" x2="43.4342" y2="133.713" gradientUnits="userSpaceOnUse">
<stop stop-color="#DA6420"/>
<stop offset="0.6426" stop-color="#FFE4D4"/>
</linearGradient>
<linearGradient id="paint5_linear_461_19643" x1="30.2475" y1="113.026" x2="119.107" y2="113.026" gradientUnits="userSpaceOnUse">
<stop offset="0.389" stop-color="#648FE4"/>
<stop offset="0.5932" stop-color="#A1C1FF"/>
</linearGradient>
<linearGradient id="paint6_linear_461_19643" x1="43.6021" y1="91.0724" x2="105.768" y2="91.0724" gradientUnits="userSpaceOnUse">
<stop offset="0.389" stop-color="#648FE4"/>
<stop offset="0.5932" stop-color="#CFDFFF"/>
</linearGradient>
<linearGradient id="paint7_linear_461_19643" x1="118.771" y1="95.1548" x2="30.5656" y2="87.3048" gradientUnits="userSpaceOnUse">
<stop stop-color="white"/>
<stop offset="1" stop-color="#4D9DF9"/>
</linearGradient>
<linearGradient id="paint8_linear_461_19643" x1="47.1164" y1="73.9049" x2="47.1164" y2="88.3124" gradientUnits="userSpaceOnUse">
<stop offset="0.2578" stop-color="#DA5A10"/>
<stop offset="1" stop-color="#FFE4D4"/>
</linearGradient>
<linearGradient id="paint9_linear_461_19643" x1="102.318" y1="67.9547" x2="102.318" y2="82.3622" gradientUnits="userSpaceOnUse">
<stop offset="0.2578" stop-color="#DA5A10"/>
<stop offset="1" stop-color="#FFE4D4"/>
</linearGradient>
<linearGradient id="paint10_linear_461_19643" x1="63.7693" y1="79.5636" x2="63.7693" y2="93.9711" gradientUnits="userSpaceOnUse">
<stop offset="0.2578" stop-color="#DA5A10"/>
<stop offset="1" stop-color="#FFE4D4"/>
</linearGradient>
<linearGradient id="paint11_linear_461_19643" x1="63.7693" y1="56.2008" x2="63.7693" y2="70.6083" gradientUnits="userSpaceOnUse">
<stop offset="0.2578" stop-color="#DA5A10"/>
<stop offset="1" stop-color="#FFE4D4"/>
</linearGradient>
<linearGradient id="paint12_linear_461_19643" x1="74.6269" y1="109.69" x2="74.6269" y2="9.10045" gradientUnits="userSpaceOnUse">
<stop stop-color="#9DF0FC"/>
<stop offset="0.0001" stop-color="#0CFFFC" stop-opacity="0.6"/>
<stop offset="0.663927" stop-color="white" stop-opacity="0"/>
</linearGradient>
</defs>
</svg>
