<svg width="16" height="16" viewBox="0 0 16 16" fill="none" xmlns="http://www.w3.org/2000/svg">
<path d="M12 3V12.5C12 12.9844 11.9089 13.4375 11.7266 13.8594C11.5443 14.2812 11.2943 14.651 10.9766 14.9688C10.6589 15.2865 10.2891 15.5365 9.86719 15.7188C9.44531 15.901 8.98958 15.9948 8.5 16C8.01562 16 7.5625 15.9089 7.14062 15.7266C6.71875 15.5443 6.34896 15.2943 6.03125 14.9766C5.71354 14.6589 5.46354 14.2891 5.28125 13.8672C5.09896 13.4453 5.00521 12.9896 5 12.5V2.5C5 2.15625 5.0651 1.83333 5.19531 1.53125C5.32552 1.22917 5.50521 0.966146 5.73438 0.742188C5.96354 0.518229 6.22917 0.338542 6.53125 0.203125C6.83333 0.0677083 7.15625 0 7.5 0C7.84375 0 8.16667 0.0651042 8.46875 0.195312C8.77083 0.325521 9.03385 0.505208 9.25781 0.734375C9.48177 0.963542 9.66146 1.22917 9.79688 1.53125C9.93229 1.83333 10 2.15625 10 2.5V12.5C10 12.7083 9.96094 12.9036 9.88281 13.0859C9.80469 13.2682 9.69792 13.4271 9.5625 13.5625C9.42708 13.6979 9.26823 13.8047 9.08594 13.8828C8.90365 13.9609 8.70833 14 8.5 14C8.29167 14 8.09635 13.9609 7.91406 13.8828C7.73177 13.8047 7.57292 13.6979 7.4375 13.5625C7.30208 13.4271 7.19531 13.2682 7.11719 13.0859C7.03906 12.9036 7 12.7083 7 12.5V4H8V12.5C8 12.6354 8.04948 12.7526 8.14844 12.8516C8.2474 12.9505 8.36458 13 8.5 13C8.63542 13 8.7526 12.9505 8.85156 12.8516C8.95052 12.7526 9 12.6354 9 12.5V2.5C9 2.29167 8.96094 2.09635 8.88281 1.91406C8.80469 1.73177 8.69792 1.57292 8.5625 1.4375C8.42708 1.30208 8.26823 1.19531 8.08594 1.11719C7.90365 1.03906 7.70833 1 7.5 1C7.29167 1 7.09635 1.03906 6.91406 1.11719C6.73177 1.19531 6.57292 1.30208 6.4375 1.4375C6.30208 1.57292 6.19531 1.73177 6.11719 1.91406C6.03906 2.09635 6 2.29167 6 2.5V12.5C6 12.8438 6.0651 13.1667 6.19531 13.4688C6.32552 13.7708 6.50521 14.0339 6.73438 14.2578C6.96354 14.4818 7.22917 14.6615 7.53125 14.7969C7.83333 14.9323 8.15625 15 8.5 15C8.84375 15 9.16667 14.9349 9.46875 14.8047C9.77083 14.6745 10.0339 14.4948 10.2578 14.2656C10.4818 14.0365 10.6615 13.7708 10.7969 13.4688C10.9323 13.1667 11 12.8438 11 12.5V3H12Z" fill="#858585"/>
</svg>
