<svg width="503" height="152" viewBox="0 0 503 152" fill="none" xmlns="http://www.w3.org/2000/svg">
<g opacity="0.7">
<path d="M83.7618 66.5569H83.2618V67.0569V96.7317V97.2317H83.7618H109.668C107.051 103.461 103.556 108.128 99.2004 111.265C94.689 114.514 89.2177 116.15 82.7599 116.15C74.0552 116.15 66.9027 113.479 61.2623 108.159C55.7775 102.859 53.0007 95.215 53.0007 85.1463V67.0569C53.0007 56.5718 55.7826 48.8702 61.2552 43.8481L61.2557 43.8477C66.9019 38.6535 73.7924 36.0528 81.9583 36.0528C88.5448 36.0528 94.3217 37.788 99.3077 41.2482L99.3139 41.2525L99.3202 41.2566C104.443 44.5873 108.047 49.0423 110.146 54.6311L110.295 55.0273L110.71 54.946L157.402 45.7996L157.941 45.6939L157.785 45.1667C153.606 31.0824 144.838 20.1425 131.51 12.3586C118.323 4.44336 102.131 0.5 82.9603 0.5C59.0934 0.5 39.3401 6.5534 23.738 18.6948L23.7363 18.6961C8.23533 30.8638 0.5 48.0915 0.5 70.3089V81.6911C0.5 96.413 4.19737 109.251 11.6077 120.183L11.6093 120.185C19.007 130.963 28.43 138.884 39.8745 143.937C51.299 148.981 63.7928 151.5 77.3493 151.5C96.1843 151.5 112.103 146.117 125.074 135.331L132.809 151.219L132.946 151.5H133.259H161.714H162.214V151V67.0569V66.5569H161.714H83.7618Z" stroke="url(#paint0_linear_214_5293)"/>
<path d="M170.148 151V151.5H170.648H219.213H219.713V151V77.4884L283.036 151.326L283.186 151.5H283.416H331.363H331.863V151V1V0.5H331.363H282.799H282.299V1V71.9196L220.619 0.672741L220.47 0.5H220.241H170.648H170.148V1V151Z" stroke="url(#paint1_linear_214_5293)"/>
<path d="M451.994 151.135L452.097 151.5H452.475H500.999H501.7L501.472 150.837L449.851 0.837294L449.735 0.5H449.378H393.111H392.757L392.639 0.833913L339.814 150.834L339.579 151.5H340.285H385.196H385.568L385.675 151.143L391.418 131.926H446.59L451.994 151.135ZM436.155 95.6064H402.04L419.435 36.9265L436.155 95.6064Z" stroke="url(#paint2_linear_214_5293)"/>
</g>
<defs>
<linearGradient id="paint0_linear_214_5293" x1="81.3571" y1="1" x2="81.3571" y2="151" gradientUnits="userSpaceOnUse">
<stop stop-color="#F1935C" stop-opacity="0"/>
<stop offset="1" stop-color="#F1935C"/>
</linearGradient>
<linearGradient id="paint1_linear_214_5293" x1="251.006" y1="1" x2="251.006" y2="151" gradientUnits="userSpaceOnUse">
<stop stop-color="#F1935C" stop-opacity="0"/>
<stop offset="1" stop-color="#F1935C"/>
</linearGradient>
<linearGradient id="paint2_linear_214_5293" x1="420.642" y1="1" x2="420.642" y2="151" gradientUnits="userSpaceOnUse">
<stop stop-color="#F1935C" stop-opacity="0"/>
<stop offset="1" stop-color="#F1935C"/>
</linearGradient>
</defs>
</svg>
