<svg width="503" height="124" viewBox="0 0 503 124" fill="none" xmlns="http://www.w3.org/2000/svg">
<g opacity="0.4">
<path d="M83.7618 38.5569H83.2618V39.0569V68.7317V69.2317H83.7618H109.668C107.051 75.4613 103.556 80.1275 99.2004 83.265C94.689 86.5145 89.2177 88.1504 82.7599 88.1504C74.0552 88.1504 66.9027 85.4793 61.2623 80.1586C55.7775 74.859 53.0007 67.215 53.0007 57.1463V39.0569C53.0007 28.5718 55.7826 20.8702 61.2552 15.8481L61.2557 15.8477C66.9019 10.6535 73.7924 8.05285 81.9583 8.05285C88.5448 8.05285 94.3217 9.78799 99.3077 13.2482L99.3139 13.2525L99.3202 13.2566C104.443 16.5873 108.047 21.0423 110.146 26.6311L110.295 27.0273L110.71 26.946L157.402 17.7996L157.941 17.6939L157.785 17.1667C153.606 3.08239 144.838 -7.85751 131.51 -15.6414C118.323 -23.5566 102.131 -27.5 82.9603 -27.5C59.0934 -27.5 39.3401 -21.4466 23.738 -9.30517L23.7363 -9.30387C8.23533 2.86378 0.5 20.0915 0.5 42.3089V53.6911C0.5 68.413 4.19737 81.2505 11.6077 92.183L11.6093 92.1854C19.007 102.963 28.43 110.884 39.8745 115.937C51.299 120.981 63.7928 123.5 77.3493 123.5C96.1843 123.5 112.103 118.117 125.074 107.331L132.809 123.219L132.946 123.5H133.259H161.714H162.214V123V39.0569V38.5569H161.714H83.7618Z" stroke="url(#paint0_linear_214_5285)"/>
<path d="M170.148 123V123.5H170.648H219.213H219.713V123V49.4884L283.036 123.326L283.186 123.5H283.416H331.363H331.863V123V-27V-27.5H331.363H282.799H282.299V-27V43.9196L220.619 -27.3273L220.47 -27.5H220.241H170.648H170.148V-27V123Z" stroke="url(#paint1_linear_214_5285)"/>
<path d="M451.994 123.135L452.097 123.5H452.475H500.999H501.7L501.472 122.837L449.851 -27.1627L449.735 -27.5H449.378H393.111H392.757L392.639 -27.1661L339.814 122.834L339.579 123.5H340.285H385.196H385.568L385.675 123.143L391.418 103.926H446.59L451.994 123.135ZM436.155 67.6064H402.04L419.435 8.92654L436.155 67.6064Z" stroke="url(#paint2_linear_214_5285)"/>
</g>
<defs>
<linearGradient id="paint0_linear_214_5285" x1="81.3571" y1="-27" x2="81.3571" y2="123" gradientUnits="userSpaceOnUse">
<stop stop-color="#F1935C"/>
<stop offset="1" stop-color="#F1935C" stop-opacity="0"/>
</linearGradient>
<linearGradient id="paint1_linear_214_5285" x1="251.006" y1="-27" x2="251.006" y2="123" gradientUnits="userSpaceOnUse">
<stop stop-color="#F1935C"/>
<stop offset="1" stop-color="#F1935C" stop-opacity="0"/>
</linearGradient>
<linearGradient id="paint2_linear_214_5285" x1="420.642" y1="-27" x2="420.642" y2="123" gradientUnits="userSpaceOnUse">
<stop stop-color="#F1935C"/>
<stop offset="1" stop-color="#F1935C" stop-opacity="0"/>
</linearGradient>
</defs>
</svg>
