<svg width="540" height="190" viewBox="0 0 540 190" fill="none" xmlns="http://www.w3.org/2000/svg">
<g filter="url(#filter0_di_214_5301)">
<path d="M100.762 76.0569H178.714V160H150.259L142.243 143.537C129.284 154.512 113.32 160 94.3493 160C80.8562 160 68.4319 157.493 57.0764 152.48C45.7209 147.466 36.3693 139.607 29.0216 128.902C21.6738 118.062 18 105.325 18 90.6911V79.3089C18 57.2222 25.6817 40.1491 41.0451 28.0894C56.542 16.0298 76.1804 10 99.9603 10C119.064 10 135.162 13.9295 148.255 21.7886C161.481 29.5122 170.164 40.3523 174.306 54.3089L127.614 63.4553C125.477 57.7642 121.803 53.2249 116.593 49.8374C111.516 46.3144 105.638 44.5528 98.9583 44.5528C90.6754 44.5528 83.6617 47.1951 77.9172 52.4797C72.3062 57.6287 69.5007 65.4878 69.5007 76.0569V94.1463C69.5007 104.309 72.3062 112.1 77.9172 117.52C83.6617 122.94 90.9426 125.65 99.7599 125.65C112.852 125.65 122.07 119.011 127.414 105.732H100.762V76.0569Z" fill="#F1935C"/>
<path d="M100.762 76.0569H178.714V160H150.259L142.243 143.537C129.284 154.512 113.32 160 94.3493 160C80.8562 160 68.4319 157.493 57.0764 152.48C45.7209 147.466 36.3693 139.607 29.0216 128.902C21.6738 118.062 18 105.325 18 90.6911V79.3089C18 57.2222 25.6817 40.1491 41.0451 28.0894C56.542 16.0298 76.1804 10 99.9603 10C119.064 10 135.162 13.9295 148.255 21.7886C161.481 29.5122 170.164 40.3523 174.306 54.3089L127.614 63.4553C125.477 57.7642 121.803 53.2249 116.593 49.8374C111.516 46.3144 105.638 44.5528 98.9583 44.5528C90.6754 44.5528 83.6617 47.1951 77.9172 52.4797C72.3062 57.6287 69.5007 65.4878 69.5007 76.0569V94.1463C69.5007 104.309 72.3062 112.1 77.9172 117.52C83.6617 122.94 90.9426 125.65 99.7599 125.65C112.852 125.65 122.07 119.011 127.414 105.732H100.762V76.0569Z" fill="url(#paint0_radial_214_5301)"/>
<path d="M100.762 76.0569H178.714V160H150.259L142.243 143.537C129.284 154.512 113.32 160 94.3493 160C80.8562 160 68.4319 157.493 57.0764 152.48C45.7209 147.466 36.3693 139.607 29.0216 128.902C21.6738 118.062 18 105.325 18 90.6911V79.3089C18 57.2222 25.6817 40.1491 41.0451 28.0894C56.542 16.0298 76.1804 10 99.9603 10C119.064 10 135.162 13.9295 148.255 21.7886C161.481 29.5122 170.164 40.3523 174.306 54.3089L127.614 63.4553C125.477 57.7642 121.803 53.2249 116.593 49.8374C111.516 46.3144 105.638 44.5528 98.9583 44.5528C90.6754 44.5528 83.6617 47.1951 77.9172 52.4797C72.3062 57.6287 69.5007 65.4878 69.5007 76.0569V94.1463C69.5007 104.309 72.3062 112.1 77.9172 117.52C83.6617 122.94 90.9426 125.65 99.7599 125.65C112.852 125.65 122.07 119.011 127.414 105.732H100.762V76.0569Z" fill="url(#paint1_radial_214_5301)"/>
</g>
<g filter="url(#filter1_di_214_5301)">
<path d="M187.648 160V10H237.241L299.387 81.7857H299.799V10H348.363V160H300.416L236.83 85.8571H236.213V160H187.648Z" fill="#F1935C"/>
<path d="M187.648 160V10H237.241L299.387 81.7857H299.799V10H348.363V160H300.416L236.83 85.8571H236.213V160H187.648Z" fill="url(#paint2_radial_214_5301)"/>
<path d="M187.648 160V10H237.241L299.387 81.7857H299.799V10H348.363V160H300.416L236.83 85.8571H236.213V160H187.648Z" fill="url(#paint3_radial_214_5301)"/>
</g>
<g filter="url(#filter2_di_214_5301)">
<path d="M469.475 160L463.969 140.426H408.046L402.196 160H357.285L410.111 10H466.378L517.999 160H469.475ZM418.37 105.106H453.817L436.782 45.3191H436.094L418.37 105.106Z" fill="#F1935C"/>
<path d="M469.475 160L463.969 140.426H408.046L402.196 160H357.285L410.111 10H466.378L517.999 160H469.475ZM418.37 105.106H453.817L436.782 45.3191H436.094L418.37 105.106Z" fill="url(#paint4_radial_214_5301)"/>
<path d="M469.475 160L463.969 140.426H408.046L402.196 160H357.285L410.111 10H466.378L517.999 160H469.475ZM418.37 105.106H453.817L436.782 45.3191H436.094L418.37 105.106Z" fill="url(#paint5_radial_214_5301)"/>
</g>
<defs>
<filter id="filter0_di_214_5301" x="0" y="0" width="200.714" height="190" filterUnits="userSpaceOnUse" color-interpolation-filters="sRGB">
<feFlood flood-opacity="0" result="BackgroundImageFix"/>
<feColorMatrix in="SourceAlpha" type="matrix" values="0 0 0 0 0 0 0 0 0 0 0 0 0 0 0 0 0 0 127 0" result="hardAlpha"/>
<feOffset dx="2" dy="10"/>
<feGaussianBlur stdDeviation="10"/>
<feColorMatrix type="matrix" values="0 0 0 0 0.945098 0 0 0 0 0.576471 0 0 0 0 0.360784 0 0 0 0.5 0"/>
<feBlend mode="normal" in2="BackgroundImageFix" result="effect1_dropShadow_214_5301"/>
<feBlend mode="normal" in="SourceGraphic" in2="effect1_dropShadow_214_5301" result="shape"/>
<feColorMatrix in="SourceAlpha" type="matrix" values="0 0 0 0 0 0 0 0 0 0 0 0 0 0 0 0 0 0 127 0" result="hardAlpha"/>
<feOffset dx="-2" dy="-2"/>
<feGaussianBlur stdDeviation="3"/>
<feComposite in2="hardAlpha" operator="arithmetic" k2="-1" k3="1"/>
<feColorMatrix type="matrix" values="0 0 0 0 1 0 0 0 0 0.894118 0 0 0 0 0.831373 0 0 0 0.5 0"/>
<feBlend mode="normal" in2="shape" result="effect2_innerShadow_214_5301"/>
</filter>
<filter id="filter1_di_214_5301" x="169.648" y="0" width="200.714" height="190" filterUnits="userSpaceOnUse" color-interpolation-filters="sRGB">
<feFlood flood-opacity="0" result="BackgroundImageFix"/>
<feColorMatrix in="SourceAlpha" type="matrix" values="0 0 0 0 0 0 0 0 0 0 0 0 0 0 0 0 0 0 127 0" result="hardAlpha"/>
<feOffset dx="2" dy="10"/>
<feGaussianBlur stdDeviation="10"/>
<feColorMatrix type="matrix" values="0 0 0 0 0.945098 0 0 0 0 0.576471 0 0 0 0 0.360784 0 0 0 0.5 0"/>
<feBlend mode="normal" in2="BackgroundImageFix" result="effect1_dropShadow_214_5301"/>
<feBlend mode="normal" in="SourceGraphic" in2="effect1_dropShadow_214_5301" result="shape"/>
<feColorMatrix in="SourceAlpha" type="matrix" values="0 0 0 0 0 0 0 0 0 0 0 0 0 0 0 0 0 0 127 0" result="hardAlpha"/>
<feOffset dx="-2" dy="-2"/>
<feGaussianBlur stdDeviation="3"/>
<feComposite in2="hardAlpha" operator="arithmetic" k2="-1" k3="1"/>
<feColorMatrix type="matrix" values="0 0 0 0 1 0 0 0 0 0.894118 0 0 0 0 0.831373 0 0 0 0.5 0"/>
<feBlend mode="normal" in2="shape" result="effect2_innerShadow_214_5301"/>
</filter>
<filter id="filter2_di_214_5301" x="339.285" y="0" width="200.714" height="190" filterUnits="userSpaceOnUse" color-interpolation-filters="sRGB">
<feFlood flood-opacity="0" result="BackgroundImageFix"/>
<feColorMatrix in="SourceAlpha" type="matrix" values="0 0 0 0 0 0 0 0 0 0 0 0 0 0 0 0 0 0 127 0" result="hardAlpha"/>
<feOffset dx="2" dy="10"/>
<feGaussianBlur stdDeviation="10"/>
<feColorMatrix type="matrix" values="0 0 0 0 0.945098 0 0 0 0 0.576471 0 0 0 0 0.360784 0 0 0 0.5 0"/>
<feBlend mode="normal" in2="BackgroundImageFix" result="effect1_dropShadow_214_5301"/>
<feBlend mode="normal" in="SourceGraphic" in2="effect1_dropShadow_214_5301" result="shape"/>
<feColorMatrix in="SourceAlpha" type="matrix" values="0 0 0 0 0 0 0 0 0 0 0 0 0 0 0 0 0 0 127 0" result="hardAlpha"/>
<feOffset dx="-2" dy="-2"/>
<feGaussianBlur stdDeviation="3"/>
<feComposite in2="hardAlpha" operator="arithmetic" k2="-1" k3="1"/>
<feColorMatrix type="matrix" values="0 0 0 0 1 0 0 0 0 0.894118 0 0 0 0 0.831373 0 0 0 0.5 0"/>
<feBlend mode="normal" in2="shape" result="effect2_innerShadow_214_5301"/>
</filter>
<radialGradient id="paint0_radial_214_5301" cx="0" cy="0" r="1" gradientUnits="userSpaceOnUse" gradientTransform="translate(60.4107 41.25) rotate(49.0989) scale(129.547 131.131)">
<stop stop-color="white" stop-opacity="0.59"/>
<stop offset="0.766011" stop-color="white" stop-opacity="0"/>
<stop offset="1" stop-color="white" stop-opacity="0"/>
</radialGradient>
<radialGradient id="paint1_radial_214_5301" cx="0" cy="0" r="1" gradientUnits="userSpaceOnUse" gradientTransform="translate(156.699 141.25) rotate(-93.9319) scale(128.427 153.269)">
<stop stop-color="#F1935C" stop-opacity="0.3"/>
<stop offset="0.861815" stop-color="#F1935C" stop-opacity="0"/>
</radialGradient>
<radialGradient id="paint2_radial_214_5301" cx="0" cy="0" r="1" gradientUnits="userSpaceOnUse" gradientTransform="translate(230.059 41.25) rotate(49.0989) scale(129.547 131.131)">
<stop stop-color="white" stop-opacity="0.59"/>
<stop offset="0.766011" stop-color="white" stop-opacity="0"/>
<stop offset="1" stop-color="white" stop-opacity="0"/>
</radialGradient>
<radialGradient id="paint3_radial_214_5301" cx="0" cy="0" r="1" gradientUnits="userSpaceOnUse" gradientTransform="translate(326.347 141.25) rotate(-93.9319) scale(128.427 153.269)">
<stop stop-color="#F1935C" stop-opacity="0.3"/>
<stop offset="0.861815" stop-color="#F1935C" stop-opacity="0"/>
</radialGradient>
<radialGradient id="paint4_radial_214_5301" cx="0" cy="0" r="1" gradientUnits="userSpaceOnUse" gradientTransform="translate(399.696 41.25) rotate(49.0989) scale(129.547 131.131)">
<stop stop-color="white" stop-opacity="0.59"/>
<stop offset="0.766011" stop-color="white" stop-opacity="0"/>
<stop offset="1" stop-color="white" stop-opacity="0"/>
</radialGradient>
<radialGradient id="paint5_radial_214_5301" cx="0" cy="0" r="1" gradientUnits="userSpaceOnUse" gradientTransform="translate(495.984 141.25) rotate(-93.9319) scale(128.427 153.269)">
<stop stop-color="#F1935C" stop-opacity="0.3"/>
<stop offset="0.861815" stop-color="#F1935C" stop-opacity="0"/>
</radialGradient>
</defs>
</svg>
