<svg width="178" height="52" viewBox="0 0 178 52" fill="none" xmlns="http://www.w3.org/2000/svg">
<path d="M29.4025 23.0109H57.0965V51.9992H46.9871L44.1394 46.3138C39.5356 50.1041 33.864 51.9992 27.1244 51.9992C22.3307 51.9992 17.9168 51.1335 13.8826 49.4022C9.84831 47.6708 6.52599 44.9568 3.91559 41.2602C1.3052 37.5167 0 33.1182 0 28.0645V24.1339C0 16.5066 2.72905 10.6107 8.18715 6.4461C13.6927 2.28151 20.6696 0.199219 29.1178 0.199219C35.9048 0.199219 41.6239 1.55622 46.2752 4.27022C50.9739 6.93743 54.0589 10.6809 55.5302 15.5006L38.9424 18.6591C38.183 16.6938 36.8778 15.1262 35.0268 13.9564C33.2232 12.7398 31.1349 12.1315 28.7618 12.1315C25.8192 12.1315 23.3274 13.0439 21.2866 14.8689C19.2932 16.647 18.2965 19.361 18.2965 23.0109V29.2577C18.2965 32.7672 19.2932 35.4578 21.2866 37.3295C23.3274 39.2013 25.9141 40.1371 29.0466 40.1371C33.6978 40.1371 36.9727 37.8443 38.8712 33.2585H29.4025V23.0109Z" fill="#28565D"/>
<path d="M60.2734 51.9992V0.199219H77.8922L99.9705 24.9892H100.117V0.199219H117.37V51.9992H100.336L77.746 26.3952H77.5267V51.9992H60.2734Z" fill="#28565D"/>
<path d="M160.397 51.9992L158.44 45.2395H138.573L136.494 51.9992H120.539L139.306 0.199219H159.296L177.636 51.9992H160.397ZM142.241 33.0426H154.834L148.782 12.3961H148.537L142.241 33.0426Z" fill="#28565D"/>
</svg>
