<svg width="20" height="20" viewBox="0 0 20 20" fill="none" xmlns="http://www.w3.org/2000/svg">
<rect width="20" height="20" rx="5" fill="#28565D"/>
<path opacity="0.5" fill-rule="evenodd" clip-rule="evenodd" d="M9.14355 5.71429H8.71498C7.5028 5.71429 6.89671 5.71429 6.52013 6.09086C6.14355 6.46744 6.14355 7.07353 6.14355 8.28572V13.9643H11.715V12.4643V11.8214V8.28572C11.715 7.07353 11.715 6.46744 11.3384 6.09086C10.9618 5.71429 10.3557 5.71429 9.14355 5.71429Z" fill="white"/>
<path d="M6.14355 13.9643H5.71498C5.53746 13.9643 5.39355 14.1082 5.39355 14.2857C5.39355 14.4632 5.53746 14.6071 5.71498 14.6071H12.2507C12.4282 14.6071 12.5721 14.4632 12.5721 14.2857C12.5721 14.1082 12.4282 13.9643 12.2507 13.9643H11.715H6.14355Z" fill="white"/>
<path d="M9.20475 9.30828C9.29609 9.15606 9.24673 8.95862 9.0945 8.86728C8.94228 8.77595 8.74484 8.82531 8.65351 8.97753L8.01065 10.049C7.95107 10.1483 7.94951 10.2719 8.00657 10.3727C8.06362 10.4735 8.17047 10.5358 8.28627 10.5358H9.00428L8.65351 11.1204C8.56217 11.2726 8.61153 11.4701 8.76376 11.5614C8.91598 11.6527 9.11342 11.6034 9.20475 11.4511L9.84761 10.3797C9.90719 10.2804 9.90875 10.1567 9.85169 10.056C9.79464 9.9552 9.68779 9.89291 9.57199 9.89291H8.85398L9.20475 9.30828Z" fill="#28565D"/>
<path d="M11.7148 12.4643H12.3883C12.5489 12.4643 12.6791 12.5945 12.6791 12.7551V12.7857C12.6791 13.3183 13.1109 13.75 13.6434 13.75C14.176 13.75 14.6077 13.3183 14.6077 12.7857V8.11505V8.11504C14.6077 8.0479 14.6077 8.00158 14.6052 7.9564C14.5813 7.5317 14.3901 7.13377 14.0733 6.84984C14.0396 6.81964 14.0035 6.7907 13.951 6.74876L13.4156 6.32045C13.277 6.20955 13.0747 6.23203 12.9639 6.37065C12.853 6.50927 12.8754 6.71154 13.014 6.82243L13.5425 7.24521C13.6044 7.29474 13.6256 7.31186 13.6442 7.32851C13.8343 7.49888 13.949 7.73763 13.9633 7.99245C13.9647 8.01736 13.9648 8.04461 13.9648 8.12392V8.28571H13.6434C13.2884 8.28571 13.0006 8.57353 13.0006 8.92857V9.96523C13.0006 10.2419 13.1776 10.4876 13.4401 10.5751L13.9648 10.75V12.7857C13.9648 12.9632 13.8209 13.1072 13.6434 13.1072C13.4659 13.1072 13.322 12.9632 13.322 12.7857V12.7551C13.322 12.2395 12.904 11.8214 12.3883 11.8214H11.7148V12.4643Z" fill="white"/>
</svg>
