<svg width="106" height="130" viewBox="0 0 106 130" fill="none" xmlns="http://www.w3.org/2000/svg">
<path d="M106.002 97.8113H0.0454102V101.311C0.0454102 103.644 1.74343 105.978 5.02628 107.781L41.1377 127.295C47.8166 130.901 58.5707 130.901 65.1364 127.295L101.021 107.781C104.304 105.978 106.002 103.644 106.002 101.311V97.8113Z" fill="url(#paint0_linear_214_3797)"/>
<path d="M100.905 91.2361C107.584 94.842 107.584 100.675 101.019 104.281L65.1336 123.795C58.5679 127.401 47.8137 127.401 41.1348 123.795L5.02342 104.281C-1.65549 100.675 -1.65548 94.842 4.91022 91.2361L40.7952 71.7218C47.3609 68.1159 58.1151 68.1159 64.794 71.7218L100.905 91.2361Z" fill="#B2D7FF"/>
<path d="M91.7344 92.5091C97.1681 95.3726 97.1681 100.145 91.8477 103.009L62.7548 118.811C57.4343 121.675 48.7178 121.675 43.2841 118.811L14.0781 103.009C8.64437 100.145 8.64436 95.3726 13.9648 92.5091L43.1709 76.7067C48.4914 73.8432 57.2079 73.8432 62.6416 76.7067L91.7344 92.5091Z" stroke="#F1935C" stroke-miterlimit="10"/>
<path d="M88.3424 69.9192H17.5913V95.7969C17.5913 97.3878 18.7233 98.9786 20.9874 100.145L45.0994 113.19C49.5142 115.629 56.7591 115.629 61.174 113.19L85.1728 100.145C87.3236 98.9786 88.4556 97.3878 88.4556 95.7969V69.9192H88.3424Z" fill="url(#paint1_linear_214_3797)"/>
<path d="M84.9444 65.5709C89.3592 68.0102 89.3593 71.8282 85.0576 74.2675L61.0588 87.3125C56.644 89.7517 49.5122 89.7517 44.9842 87.3125L20.8722 74.2675C16.4573 71.8282 16.4573 68.0102 20.8722 65.5709L44.8709 52.526C49.2858 50.0867 56.4175 50.0867 60.8324 52.526L84.9444 65.5709Z" fill="#BCD0F1"/>
<path d="M52.9083 50.8291V51.3594C55.8515 51.3594 58.5684 51.9957 60.606 53.0563L84.718 66.1012C86.6424 67.1618 87.7744 68.5405 87.7744 70.0253C87.7744 71.5101 86.7556 72.8888 84.718 73.8433L60.7192 86.8882C58.6816 88.0548 55.9647 88.5851 53.0215 88.5851C50.0782 88.5851 47.3614 87.9488 45.3237 86.8882L21.2118 73.8433C19.2873 72.7827 18.1553 71.404 18.1553 69.9192C18.1553 68.4344 19.1741 67.0557 21.2118 65.9951L45.2106 52.9502C47.2482 51.7836 49.965 51.2533 52.9083 51.2533V50.8291ZM52.9083 50.8291C49.965 50.8291 47.135 51.4654 44.871 52.6321L20.8722 65.677C16.4573 68.1163 16.4573 71.9343 20.8722 74.3736L45.0974 87.3125C47.3614 88.4791 50.1915 89.1154 53.1347 89.1154C56.0779 89.1154 58.908 88.4791 61.172 87.3125L85.1708 74.2675C89.5857 71.8282 89.5857 68.0102 85.0576 65.5709L60.9456 52.526C58.6816 51.3594 55.7383 50.8291 52.9083 50.8291Z" fill="url(#paint2_linear_214_3797)"/>
<path d="M41.592 96.2214C42.158 96.5395 42.4976 97.1759 42.4976 97.8122V102.691C42.4976 103.221 42.0448 103.539 41.4788 103.221L23.2533 93.3579C22.6872 93.0397 22.3477 92.4034 22.3477 91.767V86.8884C22.3477 86.3581 22.8005 86.04 23.3665 86.3581L41.592 96.2214Z" fill="#F1935C"/>
<path d="M42.4976 102.69L24.2722 92.8271C23.7062 92.5089 23.3665 91.8726 23.3665 91.2362V86.3576C22.9137 86.1455 22.4609 86.3576 22.4609 86.8879V91.7665C22.4609 92.2968 22.9137 93.0392 23.3665 93.3574L41.592 103.221C42.158 103.539 42.6108 103.327 42.4976 102.69Z" fill="#1964BA"/>
<path d="M23.9324 84.4489L24.7248 84.0247C24.838 83.9186 24.9512 83.7065 24.9512 83.4944C24.9512 82.9641 24.4984 82.3278 24.0456 82.0096C23.8192 81.9036 23.5928 81.9036 23.3664 81.9036L22.574 82.3278L23.9324 84.4489Z" fill="url(#paint3_linear_214_3797)"/>
<path d="M23.9719 84.4045C24.2973 84.2297 24.2837 83.6349 23.9416 83.076C23.5995 82.5172 23.0583 82.2058 22.733 82.3807C22.4076 82.5555 22.4212 83.1503 22.7633 83.7092C23.1054 84.2681 23.6466 84.5794 23.9719 84.4045Z" fill="#2185F8"/>
<path d="M23.7481 84.0376C23.9651 83.921 23.9645 83.5382 23.7468 83.1825C23.529 82.8268 23.1766 82.6329 22.9596 82.7496C22.7426 82.8662 22.7432 83.249 22.9609 83.6047C23.1787 83.9604 23.5311 84.1543 23.7481 84.0376Z" fill="#F1935C"/>
<path d="M27.6697 86.3578L28.4621 85.9336C28.5753 85.8276 28.6885 85.6155 28.6885 85.4033C28.6885 84.8731 28.2357 84.2367 27.7829 83.9186C27.5565 83.8125 27.3301 83.8125 27.1037 83.8125L26.3113 84.2367L27.6697 86.3578Z" fill="url(#paint4_linear_214_3797)"/>
<path d="M27.7166 86.4065C28.042 86.2316 28.0283 85.6369 27.6862 85.078C27.3441 84.5191 26.803 84.2078 26.4776 84.3826C26.1522 84.5575 26.1658 85.1523 26.5079 85.7111C26.8501 86.27 27.3912 86.5813 27.7166 86.4065Z" fill="#2185F8"/>
<path d="M27.4928 86.0386C27.7098 85.922 27.7092 85.5391 27.4914 85.1834C27.2737 84.8277 26.9212 84.6339 26.7042 84.7505C26.4872 84.8671 26.4878 85.25 26.7056 85.6057C26.9233 85.9614 27.2758 86.1552 27.4928 86.0386Z" fill="#FFE200"/>
<path d="M42.6084 97.8121C42.6084 97.2818 42.1556 96.5394 41.7028 96.2212L23.4773 86.358C23.2509 86.252 23.0245 86.252 22.9113 86.252L16.9116 88.0549C16.6852 88.161 16.572 88.3731 16.572 88.6912V94.3122C16.572 94.9486 17.0248 95.797 17.704 96.1152L37.854 107.463C38.3068 107.675 38.7596 107.463 38.8728 107.251C39.7784 106.191 42.4952 103.115 42.4952 103.115C42.4952 103.115 42.7216 103.009 42.7216 102.585L42.6084 97.8121Z" fill="url(#paint5_linear_214_3797)"/>
<path d="M27.5493 61.9653L67.6227 83.8129L67.736 109.585L79.3957 116.16" stroke="#28565D" stroke-width="0.25" stroke-miterlimit="10" stroke-linejoin="round"/>
<path d="M30.1541 60.5857L70.1143 82.4333L70.2275 108.205L81.8873 114.78" stroke="#28565D" stroke-width="0.25" stroke-miterlimit="10" stroke-linejoin="round"/>
<path d="M32.6379 59.208L72.7114 81.0556L72.8246 106.827L84.3711 113.403" stroke="#28565D" stroke-width="0.25" stroke-miterlimit="10" stroke-linejoin="round"/>
<path d="M35.137 57.8286L75.2104 79.6762L75.3236 105.448L86.9834 112.023" stroke="#28565D" stroke-width="0.25" stroke-miterlimit="10" stroke-linejoin="round"/>
<path d="M37.7341 56.4509L77.6943 78.2985L77.9208 104.176L89.4673 110.646" stroke="#28565D" stroke-width="0.25" stroke-miterlimit="10" stroke-linejoin="round"/>
<path d="M40.2256 55.0713L80.299 76.9189L80.4122 102.797L91.9588 109.266" stroke="#28565D" stroke-width="0.25" stroke-miterlimit="10" stroke-linejoin="round"/>
<path d="M5.7002 11.0716C5.7002 11.9201 6.0398 12.5564 6.4926 12.7685L7.73783 13.4049C7.73783 13.4049 20.19 4.70825 20.19 3.22346C20.19 3.22346 20.19 2.69318 20.0768 2.37501C20.3032 2.26895 20.6428 2.1629 20.6428 2.1629C20.4164 2.05684 19.7372 1.63262 19.3976 1.52656C18.9448 1.4205 18.1524 1.63262 17.926 1.73867C17.926 1.4205 17.8128 1.10234 17.6996 0.890223L18.2656 0.784166L17.1336 0.14783C16.6808 -0.0642829 16.1148 -0.0642835 15.5487 0.253885C15.2091 0.465998 14.9827 0.678111 14.7563 0.890223C14.7563 0.890223 14.1903 0.572054 13.8507 0.359942C13.5111 0.147829 13.1715 0.14783 12.8319 0.14783C12.7187 0.14783 12.6055 0.14783 12.4923 0.14783C12.3791 0.14783 12.3791 0.14783 12.2659 0.14783C11.9263 0.253886 11.5867 0.359942 11.2471 0.572054C9.88865 1.31445 8.64344 2.79924 7.96423 4.60219C7.51142 5.66275 7.17181 7.04148 7.28501 7.78388C5.92659 9.05655 5.7002 9.905 5.7002 11.0716Z" fill="url(#paint6_linear_214_3797)"/>
<path d="M7.05933 11.8136C7.05933 13.2984 8.07814 14.0408 9.32336 13.4044C9.32336 13.4044 9.43657 13.4044 9.43657 13.2984L19.2851 7.88952C19.2851 7.88952 19.3983 7.88952 19.3983 7.78346C20.6435 7.14713 21.5491 5.34417 21.5491 3.85938C21.5491 2.3746 20.5303 1.6322 19.2851 2.26854C19.2851 2.26854 19.2851 2.26854 19.1719 2.26854C19.0587 0.677695 18.0399 0.0413571 16.6815 0.783751C16.3419 0.995863 16.0023 1.31403 15.6627 1.6322C14.9835 0.677695 13.7382 0.465583 12.3798 1.20798C10.229 2.3746 8.41775 5.55628 8.53095 8.31374C7.62534 9.26825 7.05933 10.647 7.05933 11.8136Z" fill="#F3F8FE"/>
<path d="M19.287 7.78322C20.5322 7.14688 21.4378 5.34393 21.4378 3.85914C21.4378 2.37435 20.419 1.63196 19.1738 2.26829C19.1738 2.26829 19.1738 2.26829 19.0606 2.26829C18.9474 0.677451 17.9286 0.041113 16.5701 0.783507C16.2305 0.995619 15.8909 1.31379 15.5513 1.63196C14.8721 0.677451 13.6269 0.465339 12.2685 1.20773L12.1553 1.31379L17.3626 8.84378L19.0606 7.88927C19.1738 7.88927 19.287 7.88927 19.287 7.78322Z" fill="url(#paint7_linear_214_3797)"/>
<path d="M98.8694 15.2082C98.8694 15.7385 98.643 16.0567 98.4166 16.1627L97.7374 16.587C97.7374 16.587 90.3792 11.4963 90.3792 10.5418C90.3792 10.5418 90.3793 10.2236 90.4925 10.0115C90.3793 10.0115 90.1528 9.90542 90.1528 9.90542C90.266 9.79937 90.7188 9.58726 90.832 9.4812C91.0585 9.37514 91.6244 9.4812 91.7377 9.58726C91.7377 9.37514 91.7377 9.26909 91.8509 9.05698L91.5113 8.95092L92.1905 8.52669C92.4169 8.42064 92.7565 8.42064 93.2093 8.63275C93.4357 8.73881 93.5489 8.84486 93.6621 9.05698C93.6621 9.05698 94.0017 8.84486 94.2281 8.73881C94.4545 8.63275 94.6809 8.63275 94.9073 8.63275C95.0205 8.63275 95.0205 8.63275 95.1337 8.63275H95.2469C95.4733 8.63275 95.6997 8.73881 95.8129 8.84486C96.6053 9.26909 97.3978 10.2236 97.7374 11.1781C97.9638 11.8144 98.1902 12.5568 98.077 13.0871C98.643 14.0416 98.8694 14.4658 98.8694 15.2082Z" fill="url(#paint8_linear_214_3797)"/>
<path d="M98.0767 15.6324C98.0767 16.4809 97.5107 16.9051 96.7183 16.5869C96.7183 16.5869 96.7183 16.5869 96.6051 16.5869L90.8318 13.4052C90.8318 13.4052 90.8318 13.4052 90.7186 13.4052C90.0394 12.981 89.4734 11.9204 89.4734 11.072C89.4734 10.2235 90.0394 9.79931 90.8318 10.1175C90.8318 9.16298 91.511 8.73875 92.3034 9.16298C92.5298 9.26903 92.7562 9.48115 92.8694 9.5872C93.3223 9.05692 94.0015 8.84481 94.7939 9.37509C96.0391 10.1175 97.1711 12.0265 97.0579 13.6173C97.7371 14.1476 98.0767 14.89 98.0767 15.6324Z" fill="#F3F8FE"/>
<path d="M90.8319 13.299C90.1527 12.8748 89.5867 11.8142 89.5867 10.9658C89.5867 10.1173 90.1527 9.69311 90.9451 10.0113C90.9451 9.05678 91.6243 8.63255 92.4167 9.05678C92.6431 9.16283 92.8695 9.37494 92.9827 9.481C93.4355 8.95072 94.1148 8.73861 94.9072 9.26889C94.9072 9.26889 94.9072 9.26889 95.0204 9.37494L91.9639 13.8293L90.8319 13.299Z" fill="url(#paint9_linear_214_3797)"/>
<path d="M82.1655 39.8867H22.3552V69.4944C22.3552 70.8281 23.3122 72.1617 25.2261 73.1398L45.6095 84.0759C49.3417 86.1209 55.4662 86.1209 59.1984 84.0759L79.486 73.1398C81.3043 72.1617 82.2612 70.8281 82.2612 69.4944V39.8867H82.1655Z" fill="url(#paint10_linear_214_3797)"/>
<path d="M79.2961 36.3295C83.0282 38.3745 83.0282 41.5753 79.3918 43.6203L59.1041 54.5564C55.372 56.6014 49.3431 56.6014 45.5152 54.5564L25.1319 43.6203C21.3997 41.5753 21.3997 38.3745 25.1319 36.3295L45.4195 25.3933C49.1517 23.3484 55.1806 23.3484 58.9127 25.3933L79.2961 36.3295Z" fill="#D0E0FF"/>
<path d="M52.2137 23.8813V24.3259C54.7019 24.3259 56.9986 24.8594 58.7211 25.7485L79.1045 36.6847C80.7313 37.5738 81.6883 38.7296 81.6883 39.9744C81.6883 41.2192 80.827 42.375 79.1045 43.1752L58.8168 54.1114C57.0943 55.0894 54.7976 55.534 52.3094 55.534C49.8213 55.534 47.5246 55.0005 45.8021 54.1114L25.4187 43.1752C23.7919 42.2861 22.8349 41.1303 22.8349 39.8855C22.8349 38.6407 23.6962 37.4849 25.4187 36.5957L45.7064 25.6596C47.4289 24.6816 49.7256 24.237 52.2137 24.237V23.8813ZM52.2137 23.8813C49.7256 23.8813 47.3332 24.4148 45.4193 25.3928L25.1316 36.329C21.3995 38.374 21.3995 41.5748 25.1316 43.6198L45.515 54.5559C47.4289 55.534 49.8213 56.0674 52.3094 56.0674C54.7976 56.0674 57.19 55.534 59.1039 54.5559L79.3915 43.6198C83.1237 41.5748 83.1237 38.374 79.2958 36.329L58.9125 25.3928C57.0943 24.4148 54.6062 23.8813 52.2137 23.8813Z" fill="url(#paint11_linear_214_3797)"/>
<path d="M52.2095 27.8836C54.1235 27.8836 55.846 28.2393 57.1857 29.0395L72.5929 37.3083C73.9326 38.0196 74.6025 38.9087 74.6025 39.8867C74.6025 40.8648 73.9326 41.7539 72.5929 42.4652L57.2814 50.734C55.9417 51.4453 54.2192 51.8898 52.3052 51.8898C50.3913 51.8898 48.6687 51.5342 47.329 50.734L31.9219 42.4652C30.5821 41.7539 29.9122 40.8648 29.9122 39.8867C29.9122 38.9087 30.5821 38.0196 31.9219 37.3083L47.2333 29.0395C48.573 28.3282 50.2956 27.8836 52.2095 27.8836ZM52.2095 27.7058C50.3913 27.7058 48.4774 28.0615 47.1376 28.8617L31.8262 37.1305C28.9553 38.642 29.051 41.1315 31.8262 42.643L47.2333 50.9118C48.6687 51.712 50.487 52.0677 52.4009 52.0677C54.2192 52.0677 56.1331 51.712 57.5685 50.9118L72.88 42.643C75.6552 41.1315 75.6552 38.642 72.88 37.1305L57.4728 28.8617C55.9417 28.1504 54.0278 27.7058 52.2095 27.7058Z" fill="#F1935C"/>
<path d="M44.2755 58.6458C45.7109 59.446 46.8593 61.3131 46.8593 62.8246L46.7636 79.2733C46.7636 80.7848 45.6152 81.4072 44.1798 80.6959L27.2415 71.6269C25.8061 70.8267 24.6577 68.9596 24.6577 67.4481L24.7534 50.9994C24.7534 49.4879 25.9018 48.8655 27.3372 49.5768L44.2755 58.6458Z" fill="#F3F8FE"/>
<mask id="mask0_214_3797" style="mask-type:luminance" maskUnits="userSpaceOnUse" x="24" y="49" width="23" height="32">
<path d="M44.2755 58.6448C45.7109 59.445 46.8593 61.3122 46.8593 62.8237L46.7636 79.2724C46.7636 80.7839 45.6152 81.4062 44.1798 80.6949L27.2415 71.6259C25.8061 70.8257 24.6577 68.9586 24.6577 67.4471L24.7534 50.9984C24.7534 49.4869 25.9018 48.8645 27.3372 49.5758L44.2755 58.6448Z" fill="white"/>
</mask>
<g mask="url(#mask0_214_3797)">
<path d="M44.2755 58.6448C45.7109 59.445 46.8593 61.3122 46.8593 62.8237L46.7636 79.2724C46.7636 80.7839 45.6152 81.4062 44.1798 80.6949L27.2415 71.6259C25.8061 70.8257 24.6577 68.9586 24.6577 67.4471L24.7534 50.9984C24.7534 49.4869 25.9018 48.8645 27.3372 49.5758L44.2755 58.6448Z" fill="#F3F8FE"/>
</g>
<path d="M46.7683 79.2737L46.864 62.825C46.864 61.4024 45.907 59.713 44.5672 58.9128L25.1409 69.4044C25.6194 70.2936 26.3849 71.1827 27.2462 71.6272L44.1845 80.6963C45.6199 81.4075 46.7683 80.7852 46.7683 79.2737Z" fill="url(#paint12_linear_214_3797)"/>
<path d="M32.7946 52.5115L28.6796 54.7343C28.2968 54.9121 28.0098 55.4456 28.0098 55.8012V64.5146C28.0098 64.8702 28.2968 65.0481 28.6796 64.8702L42.2685 57.5794L32.7946 52.5115Z" fill="#1964BA"/>
<path d="M33.2777 52.7766L29.1628 54.9994C28.78 55.1772 28.4929 55.7107 28.4929 56.0663V64.7797C28.4929 65.1354 28.78 65.3132 29.1628 65.1354L42.7517 57.8446L33.2777 52.7766Z" fill="#C9D9F4"/>
<path d="M31.4528 54.8259C31.6443 54.737 31.74 54.8259 31.74 55.0037C31.74 55.1815 31.6443 55.3594 31.4528 55.4483C31.2613 55.5372 31.1655 55.4483 31.1655 55.2705C31.2613 55.1815 31.357 54.9148 31.4528 54.8259Z" fill="#34656D"/>
<path opacity="0.8" d="M29.9226 57.8462C29.8269 57.9351 29.7312 58.024 29.7312 58.1129V63.6255C29.7312 63.7144 29.8269 63.8033 29.9226 63.7144L37.3869 59.7133C37.4826 59.6244 37.5783 59.5355 37.5783 59.4466V55.1788L36.2386 54.4675L29.9226 57.8462Z" fill="#34656D"/>
<path d="M29.6334 55.802C29.8249 55.7131 29.9207 55.802 29.9207 55.9798C29.9207 56.1576 29.8249 56.3355 29.6334 56.4244C29.4419 56.5133 29.3462 56.4244 29.3462 56.2465C29.4419 56.1576 29.5377 55.8909 29.6334 55.802Z" fill="#34656D"/>
<path d="M30.5922 55.3562C30.7837 55.2673 30.8794 55.3562 30.8794 55.534C30.8794 55.7118 30.7837 55.8896 30.5922 55.9786C30.4007 56.0675 30.3049 55.9786 30.3049 55.8007C30.3049 55.6229 30.4007 55.4451 30.5922 55.3562Z" fill="#34656D"/>
<path d="M33.9385 57.9879L30.8762 59.5883H30.7805C30.7805 59.5883 30.7805 59.4994 30.8762 59.4994L33.9385 57.8989H34.0342L33.9385 57.9879Z" fill="#6491FB"/>
<path d="M35.7567 57.0098L34.417 57.7211H34.3213C34.3213 57.7211 34.3213 57.6322 34.417 57.6322L35.7567 56.9209H35.8524C35.7567 57.0098 35.7567 57.0098 35.7567 57.0098Z" fill="#FF9999"/>
<path d="M33.9376 58.3951L32.3108 59.2842H32.2151C32.2151 59.2842 32.2151 59.1953 32.3108 59.1953L33.9376 58.3062H34.0333C34.0333 58.3951 33.9376 58.3951 33.9376 58.3951Z" fill="#FF9999"/>
<path d="M31.9289 59.4627L30.8762 60.0851H30.7805C30.7805 60.0851 30.7805 59.9962 30.8762 59.9962L31.9289 59.3738H32.0246C32.0246 59.4627 32.0246 59.4627 31.9289 59.4627Z" fill="#FF9999"/>
<path d="M35.7567 57.5064L34.417 58.2177H34.3213C34.3213 58.2177 34.3213 58.1288 34.417 58.1288L35.7567 57.4175H35.8524C35.7567 57.4175 35.7567 57.4175 35.7567 57.5064Z" fill="#A69CFB"/>
<path d="M32.8807 57.7227L30.9668 58.7896H30.8711C30.8711 58.7896 30.8711 58.7007 30.9668 58.7007L32.8807 57.6338H32.9764C32.8807 57.6338 32.8807 57.7227 32.8807 57.7227Z" fill="#6491FB"/>
<path d="M34.0326 57.0992L33.1714 57.5438H33.0757C33.0757 57.5438 33.0757 57.4548 33.1714 57.4548L34.0326 57.0103H34.1283C34.0326 57.0103 34.0326 57.0992 34.0326 57.0992Z" fill="#A69CFB"/>
<path d="M36.419 55.855L34.4094 56.922H34.3137C34.3137 56.922 34.3137 56.8331 34.4094 56.8331L36.419 55.7661H36.5147C36.419 55.7661 36.419 55.7661 36.419 55.855Z" fill="#94F2B5"/>
<path d="M34.4119 59.8768L36.3258 58.8098L36.4215 58.7209C36.4215 58.7209 36.4215 58.632 36.3258 58.7209L34.4119 59.7878C34.4119 59.7878 34.4119 59.7878 34.4119 59.8768Z" fill="#6491FB"/>
<path d="M33.2615 60.4986L34.1228 60.054L34.2185 59.9651C34.2185 59.9651 34.2185 59.8761 34.1228 59.9651L33.2615 60.4096C33.2615 60.4096 33.1658 60.4096 33.2615 60.4986Z" fill="#94F2B5"/>
<path d="M30.8711 61.8331L32.8807 60.7662L32.9764 60.6772C32.9764 60.6772 32.9764 60.5883 32.8807 60.6772L30.8711 61.7442C30.8711 61.6553 30.8711 61.7442 30.8711 61.8331Z" fill="#FF9999"/>
<path d="M32.1203 58.491L30.8762 59.2023H30.7805C30.7805 59.2023 30.7805 59.1134 30.8762 59.1134L32.1203 58.4021H32.216C32.216 58.491 32.216 58.491 32.1203 58.491Z" fill="#A69CFB"/>
<path d="M34.8013 57.0701L32.4089 58.4038H32.3132C32.3132 58.4038 32.3132 58.3149 32.4089 58.3149L34.8013 56.9812H34.897C34.897 57.0701 34.897 57.0701 34.8013 57.0701Z" fill="#94F2B5"/>
<path d="M36.6202 56.1805L35.0891 56.9807H34.9934C34.9934 56.9807 34.9934 56.8918 35.0891 56.8918L36.6202 56.0916H36.7159C36.7159 56.0916 36.6202 56.0916 36.6202 56.1805Z" fill="#6491FB"/>
<path d="M35.376 59.67L36.62 58.9587H36.7157C36.7157 58.9587 36.7157 59.0476 36.62 59.0476L35.376 59.7589H35.2803C35.2803 59.7589 35.2803 59.67 35.376 59.67Z" fill="#94F2B5"/>
<path d="M32.6958 61.0917L35.0882 59.7581H35.1839C35.1839 59.7581 35.1839 59.847 35.0882 59.847L32.6958 61.1807H32.6001C32.6001 61.1807 32.6001 61.1806 32.6958 61.0917Z" fill="#FFC99C"/>
<path d="M30.8762 62.0695L32.4074 61.2693H32.5031C32.5031 61.2693 32.5031 61.3582 32.4074 61.3582L30.8762 62.1584H30.7805C30.8762 62.1584 30.8762 62.0695 30.8762 62.0695Z" fill="#A69CFB"/>
<path d="M33.9385 59.7146L30.8762 61.315H30.7805C30.7805 61.315 30.7805 61.2261 30.8762 61.2261L33.9385 59.6257H34.0342L33.9385 59.7146Z" fill="#FFC99C"/>
<path d="M35.7567 58.7374L34.417 59.4487H34.3213C34.3213 59.4487 34.3213 59.3597 34.417 59.3597L35.7567 58.6484H35.8524C35.7567 58.6484 35.7567 58.7374 35.7567 58.7374Z" fill="#FF9999"/>
<path d="M32.1203 60.2195L30.8762 60.9308H30.7805C30.7805 60.9308 30.7805 60.8419 30.8762 60.8419L32.1203 60.1306H32.216C32.216 60.2195 32.216 60.2195 32.1203 60.2195Z" fill="#94F2B5"/>
<path d="M34.8013 58.7957L32.4089 60.1294H32.3132C32.3132 60.1294 32.3132 60.0405 32.4089 60.0405L34.8013 58.7068H34.897C34.897 58.7957 34.897 58.7957 34.8013 58.7957Z" fill="#6491FB"/>
<path d="M36.6202 57.8177L35.0891 58.6179H34.9934C34.9934 58.6179 34.9934 58.529 35.0891 58.529L36.6202 57.7288H36.7159C36.7159 57.8177 36.6202 57.8177 36.6202 57.8177Z" fill="#94F2B5"/>
<path d="M31.9289 59.9571L30.8762 60.4905H30.7805C30.7805 60.4905 30.7805 60.4016 30.8762 60.4016L31.9289 59.8682H32.0246C31.9289 59.8682 31.9289 59.9571 31.9289 59.9571Z" fill="#A69CFB"/>
<path d="M34.1314 58.7994L32.1218 59.8663H32.0261C32.0261 59.8663 32.0261 59.7774 32.1218 59.7774L34.1314 58.7104H34.2271C34.2271 58.7104 34.1314 58.7105 34.1314 58.7994Z" fill="#FF9999"/>
<path d="M36.3285 57.5552L34.3188 58.6222H34.2231C34.2231 58.6222 34.2232 58.5333 34.3188 58.5333L36.3285 57.4663H36.4242C36.4242 57.4663 36.4242 57.5552 36.3285 57.5552Z" fill="#FFC99C"/>
<mask id="mask1_214_3797" style="mask-type:luminance" maskUnits="userSpaceOnUse" x="24" y="49" width="23" height="32">
<path d="M44.2755 58.6448C45.7109 59.445 46.8593 61.3122 46.8593 62.8237L46.7636 79.2724C46.7636 80.7839 45.6152 81.4062 44.1798 80.6949L27.2415 71.6259C25.8061 70.8257 24.6577 68.9586 24.6577 67.4471L24.7534 50.9984C24.7534 49.4869 25.9018 48.8645 27.3372 49.5758L44.2755 58.6448Z" fill="white"/>
</mask>
<g mask="url(#mask1_214_3797)">
<path d="M26.0983 49.6665C26.3854 49.6665 26.6725 49.7554 27.0553 49.9332L43.9935 59.0022C45.2376 59.7135 46.3859 61.4029 46.3859 62.8254L46.2902 79.2741C46.2902 79.5409 46.1945 80.5189 45.3333 80.5189C45.0462 80.5189 44.7591 80.43 44.3763 80.2522L27.438 71.1832C26.194 70.4719 25.0456 68.7825 25.0456 67.3599L25.1413 50.9112C25.1413 50.6445 25.237 49.6665 26.0983 49.6665ZM26.0983 49.2219C25.237 49.2219 24.6628 49.8443 24.6628 50.9112L24.5671 67.3599C24.5671 68.8714 25.7155 70.7386 27.1509 71.5388L44.0892 80.6078C44.472 80.8746 44.9505 80.9635 45.2376 80.9635C46.0989 80.9635 46.673 80.3411 46.673 79.2741L46.7687 62.8254C46.7687 61.3139 45.6204 59.4468 44.1849 58.6466L27.2466 49.5776C26.8638 49.3108 26.4811 49.2219 26.0983 49.2219Z" fill="url(#paint13_linear_214_3797)"/>
</g>
<path d="M48.676 60.0677L45.7095 61.6681L42.3601 59.8899L41.6902 60.2455L45.0396 62.0238V63.4464C45.0396 63.5353 45.0396 63.7131 45.0396 63.802C45.0396 63.8909 44.9439 63.9798 44.9439 64.0687C44.9439 64.1577 44.8482 64.1577 44.8482 64.2466C44.7525 64.3355 44.6568 64.4244 44.5611 64.5133L45.231 64.1577C45.3267 64.0688 45.4223 63.9798 45.518 63.8909C45.518 63.8909 45.5181 63.802 45.6137 63.802V63.7131V63.6242V63.5353V63.4464V63.3575V63.2685V63.1796V62.4683L48.5803 60.8679L48.676 60.0677Z" fill="#28565D"/>
<path d="M28.4854 49.2187L24.7532 51.1748L21.4038 49.3965L25.0403 47.3516L28.4854 49.2187Z" fill="#509AA6"/>
<path d="M48.6811 60.0661L45.0447 62.0222L41.5996 60.2439L45.3318 58.199L48.6811 60.0661Z" fill="#509AA6"/>
<path d="M41.977 56.4206L38.2449 58.3766L34.8955 56.5984L38.532 54.6423L41.977 56.4206Z" fill="#509AA6"/>
<path d="M45.3291 58.1989L41.5969 60.2439L38.2476 58.3767L41.9797 56.4207L45.3291 58.1989Z" fill="#EBC3AA"/>
<path d="M38.5366 54.6421L34.9002 56.5981L31.5508 54.8199L35.1873 52.7749L38.5366 54.6421Z" fill="#EBC3AA"/>
<path d="M35.1846 52.7758L31.5481 54.8208L28.1987 52.9536L31.8352 50.9976L35.1846 52.7758Z" fill="#509AA6"/>
<path d="M31.8374 50.9965L28.2009 52.9526L24.7559 51.1743L28.488 49.2183L31.8374 50.9965Z" fill="#EBC3AA"/>
<path d="M28.2009 52.9582V54.3808C28.2009 55.3588 27.4354 55.8034 26.4784 55.2699C25.5214 54.7364 24.7559 53.5806 24.7559 52.6025V51.1799L28.2009 52.9582Z" fill="#F1935C"/>
<path d="M24.7583 51.1798V52.6024C24.7583 53.5805 23.9927 54.025 23.0358 53.4916C22.0788 52.9581 21.3132 51.8022 21.3132 50.8242V49.4016L24.7583 51.1798Z" fill="#28565D"/>
<path d="M38.25 58.4689V59.8915C38.25 60.8695 37.4845 61.3141 36.5275 60.7806C35.5705 60.2472 34.8049 59.0913 34.8049 58.1133V56.6907L38.25 58.4689Z" fill="#28565D"/>
<path d="M34.8977 56.6022V58.0248C34.8977 59.0028 34.1322 59.4474 33.1752 58.9139C32.2182 58.3804 31.4526 57.2246 31.4526 56.2466V54.824L34.8977 56.6022Z" fill="#F1935C"/>
<path d="M31.5457 54.8239V56.2465C31.5457 57.2245 30.7801 57.6691 29.8231 57.1356C28.8662 56.6021 28.1006 55.4463 28.1006 54.4682V53.0457L31.5457 54.8239Z" fill="#28565D"/>
<path d="M41.6021 60.2463V61.6689C41.6021 62.6469 40.8365 63.0914 39.8795 62.558C38.9226 62.0245 38.157 60.8686 38.157 59.8906V58.468L41.6021 60.2463Z" fill="#F1935C"/>
<path d="M45.0447 62.0246V63.4472C45.0447 64.4252 44.2791 64.8698 43.3222 64.3363C42.3652 63.8028 41.5996 62.647 41.5996 61.6689V60.2463L45.0447 62.0246Z" fill="#28565D"/>
<path d="M53.8149 39.913C52.7953 39.3199 51.1056 39.2917 50.0568 39.8566C49.5033 40.1673 49.2411 40.5909 49.2703 41.0146C49.5324 42.9918 51.9796 43.4155 53.4071 42.6246C54.1063 42.2292 54.4559 41.749 54.5433 41.0146C54.6015 40.6192 54.3393 40.2237 53.8149 39.913Z" fill="#28565D"/>
<path d="M55.5337 40.3652C53.4944 41.4951 50.2024 41.4668 48.1922 40.3087C47.2017 39.7156 46.7065 38.9812 46.7356 38.2468C46.7356 38.8117 46.7939 40.5347 48.8914 41.7493C49.3575 42.0317 51.8338 43.3593 54.8345 41.834C56.9903 40.6195 57.0777 38.8682 57.1068 38.2751C57.1068 39.0377 56.5824 39.8003 55.5337 40.3652Z" fill="#5180DD"/>
<path fill-rule="evenodd" clip-rule="evenodd" d="M55.7969 39.8002C53.5828 41.0147 50.0869 40.9582 47.9311 39.7437C45.8044 38.5009 45.8627 36.5237 48.0476 35.3374C50.2617 34.1228 53.7576 34.1511 55.9134 35.3939C58.0401 36.6367 57.9819 38.6139 55.7969 39.8002ZM55.6512 35.5351C53.6411 34.377 50.3491 34.3488 48.3098 35.4786C46.2414 36.5802 46.1831 38.4444 48.1933 39.6025C50.2034 40.7605 53.4954 40.7888 55.5347 39.659C57.6031 38.5574 57.6614 36.6932 55.6512 35.5351Z" fill="url(#paint14_linear_214_3797)"/>
<path fill-rule="evenodd" clip-rule="evenodd" d="M55.853 40.5064C51.3958 42.7378 45.2488 40.5911 46.2975 37.2016C47.1715 34.3488 53.0272 33.6427 55.9696 35.3939C57.9797 36.6367 58.5333 38.9246 55.853 40.5064ZM55.9113 35.3939C53.7555 34.1511 50.2596 34.1229 48.0455 35.3374C45.8605 36.5237 45.8023 38.5009 47.929 39.7437C50.0848 40.9583 53.5807 41.0148 55.7948 39.8002C57.9797 38.6139 58.038 36.6367 55.9113 35.3939Z" fill="url(#paint15_linear_214_3797)"/>
<path d="M55.5616 39.0095C53.4932 40.1111 50.2012 40.0828 48.191 38.9248C47.2005 38.3599 46.7344 37.6255 46.7344 36.8911V37.569C46.7344 38.3034 47.2005 39.0378 48.191 39.6027C50.2012 40.7607 53.4932 40.789 55.5324 39.6592C56.5812 39.0943 57.1056 38.3599 57.1347 37.5973V36.9194C57.1056 37.682 56.5812 38.4446 55.5616 39.0095Z" fill="#5180DD"/>
<path fill-rule="evenodd" clip-rule="evenodd" d="M55.7957 38.4446C53.6108 39.6309 50.0857 39.6026 47.9591 38.3598C45.8032 37.117 45.8615 35.1398 48.0465 33.9535C50.2605 32.7672 53.7565 32.7954 55.9123 34.0382C58.039 35.2811 57.9807 37.23 55.7957 38.4446ZM55.6501 34.1512C53.6691 32.9932 50.3479 32.9649 48.3086 34.0947C46.2402 35.2246 46.182 37.0605 48.1921 38.2186C50.2023 39.3766 53.4943 39.4332 55.5627 38.3033C57.6311 37.1735 57.6602 35.3375 55.6501 34.1512Z" fill="url(#paint16_linear_214_3797)"/>
<path fill-rule="evenodd" clip-rule="evenodd" d="M55.853 39.1506C51.3958 41.382 45.2488 39.2353 46.2975 35.8176C47.1715 32.993 53.0272 32.2587 55.9696 34.0381C57.9797 35.2527 58.5333 37.5688 55.853 39.1506ZM55.9113 34.0381C53.7555 32.7953 50.2596 32.7671 48.0455 33.9534C45.8605 35.1397 45.8023 37.1169 47.9581 38.3597C50.0848 39.6025 53.6098 39.6307 55.7948 38.4444C57.9797 37.2299 58.038 35.2809 55.9113 34.0381Z" fill="url(#paint17_linear_214_3797)"/>
<path d="M55.5619 37.6255C53.4935 38.7553 50.2015 38.7271 48.1913 37.569C47.2008 36.9758 46.7056 36.2415 46.7347 35.5071L46.7056 36.185C46.7056 36.9194 47.2008 37.6537 48.1913 38.2186C50.2015 39.3767 53.4935 39.4332 55.5619 38.3034C56.6107 37.7385 57.1351 36.9758 57.1351 36.2132V35.5353C57.1351 36.2979 56.6107 37.0606 55.5619 37.6255Z" fill="#5180DD"/>
<path fill-rule="evenodd" clip-rule="evenodd" d="M55.7947 37.0604C53.6098 38.275 50.0847 38.2185 47.9581 37.0039C45.8022 35.7611 45.8605 33.7839 48.0746 32.5976C50.2595 31.3831 53.7846 31.4113 55.9113 32.6541C58.038 33.8969 58.0088 35.8741 55.7947 37.0604ZM55.6782 32.7954C53.6681 31.6373 50.3469 31.609 48.3076 32.7106C46.2392 33.8404 46.181 35.7046 48.1911 36.8627C50.2013 38.0208 53.4933 38.049 55.5617 36.9192C57.6301 35.8176 57.6592 33.9534 55.6782 32.7954Z" fill="url(#paint18_linear_214_3797)"/>
<path fill-rule="evenodd" clip-rule="evenodd" d="M55.853 37.7666C51.3958 39.998 45.2488 37.8513 46.2975 34.4619C47.1715 31.6091 53.0563 30.9029 55.9696 32.6542C58.0089 33.8687 58.5333 36.1848 55.853 37.7666ZM55.9113 32.6542C53.7846 31.4114 50.2596 31.3831 48.0746 32.5977C45.8605 33.784 45.8023 35.7612 47.9581 37.004C50.0848 38.2185 53.6098 38.275 55.7948 37.0605C58.0089 35.8741 58.038 33.897 55.9113 32.6542Z" fill="url(#paint19_linear_214_3797)"/>
<path d="M55.5619 36.2695C53.4935 37.3994 50.2015 37.3429 48.1913 36.1848C47.2008 35.6199 46.7056 34.8855 46.7056 34.1511V34.829C46.7347 35.5634 47.2008 36.2978 48.1913 36.8627C50.2015 38.0208 53.4935 38.049 55.5619 36.9192C56.6107 36.3543 57.1351 35.6199 57.1351 34.8573V34.1794C57.1351 34.942 56.6107 35.7046 55.5619 36.2695Z" fill="#5180DD"/>
<path fill-rule="evenodd" clip-rule="evenodd" d="M55.8817 36.3826C55.8817 36.3826 55.8817 36.3732 55.8817 36.3543C55.8817 36.3732 55.872 36.392 55.8526 36.4108C51.4244 38.6422 45.2483 36.4956 46.2971 33.0779C47.171 30.2533 53.0558 29.5189 55.9691 31.2984C58.0084 32.5129 58.5328 34.8008 55.8817 36.3826ZM55.9108 31.2984C53.7842 30.0556 50.2591 30.0273 48.0742 31.2136C45.8601 32.4 45.8309 34.3772 47.9576 35.62C50.0843 36.8628 53.6094 36.891 55.7943 35.7047C58.0084 34.4901 58.0375 32.5412 55.9108 31.2984Z" fill="url(#paint20_linear_214_3797)"/>
<path fill-rule="evenodd" clip-rule="evenodd" d="M55.7949 35.7046C53.6099 36.8909 50.0849 36.8626 47.9582 35.6198C45.8315 34.377 45.8606 32.3998 48.0747 31.2135C50.2596 30.0272 53.7847 30.0555 55.9114 31.2983C58.0381 32.5411 58.0089 34.49 55.7949 35.7046ZM55.6783 31.4112C53.6682 30.2532 50.3762 30.2249 48.3078 31.3548C46.2393 32.4846 46.1811 34.3205 48.1912 35.4786C50.2014 36.6649 53.4934 36.6932 55.5618 35.5633C57.6302 34.4335 57.6885 32.5976 55.6783 31.4112Z" fill="url(#paint21_linear_214_3797)"/>
<path d="M48.1913 34.5185C47.2008 33.9536 46.7056 33.2192 46.7056 32.4849V33.4452C46.7056 34.1796 47.2008 34.914 48.1913 35.4789C50.2015 36.6652 53.4935 36.6935 55.5619 35.5636V34.6033C53.4935 35.7331 50.2015 35.7049 48.1913 34.5185Z" fill="url(#paint22_linear_214_3797)"/>
<path d="M56.9312 34.7444C54.1053 36.2979 49.5606 36.2414 46.793 34.6597C45.6277 33.9818 44.9868 33.1344 44.812 32.287C44.9285 33.0497 45.3947 34.0382 46.9678 34.9704C48.7449 36.0437 52.9692 37.004 56.7855 35.0833C58.5626 34.0665 58.9705 32.9367 59.0579 32.2588C58.9122 33.1909 58.1839 34.0665 56.9312 34.7444Z" fill="#5180DD"/>
<path d="M57.0771 26.7224C54.3387 25.1124 49.794 25.0559 46.939 26.6094C44.1131 28.1629 44.0548 30.705 46.7933 32.315C49.5609 33.8968 54.1056 33.9533 56.9315 32.3998C59.7865 30.8463 59.8447 28.3042 57.0771 26.7224Z" fill="url(#paint23_linear_214_3797)"/>
<path d="M56.9322 32.4C54.1063 33.9535 49.5616 33.897 46.794 32.3153C45.4539 31.5244 44.7838 30.5076 44.7838 29.4907V31.8351C44.7547 32.8519 45.4539 33.8688 46.794 34.6596C49.5616 36.2414 54.1063 36.2979 56.9322 34.7444C58.3888 33.9535 59.1171 32.9084 59.1171 31.8633V29.519C59.1171 30.564 58.3888 31.6091 56.9322 32.4Z" fill="url(#paint24_linear_214_3797)"/>
<path opacity="0.5" d="M54.9223 3.36368C44.6094 0.906318 36.3357 11.3854 41.667 20.2545C44.5802 24.9432 44.8133 25.3387 44.959 29.2648C45.0172 32.6825 52.4169 34.4902 56.8451 32.0611C57.6317 31.6374 58.2143 31.1008 58.5639 30.5641C58.8164 30.1687 58.9426 29.745 58.9426 29.293C59.1174 25.2539 59.4088 24.9432 62.322 20.311C66.5463 13.3061 62.322 5.1149 54.9223 3.36368Z" fill="#A1C1FF"/>
<path d="M56.2622 27.1463C53.9607 25.8188 50.1443 25.7623 47.7554 27.0616C45.3666 28.3609 45.3083 30.5075 47.6389 31.8633C49.9404 33.1908 53.7568 33.2473 56.1456 31.948C58.5345 30.6488 58.5928 28.5021 56.2622 27.1463Z" fill="url(#paint25_radial_214_3797)"/>
<path d="M49.3298 19.0681C47.9897 17.8536 46.3583 16.978 43.0081 17.1192C43.5033 18.7009 44.0277 19.9437 45.63 21.6102C47.2323 23.2485 48.7181 24.0958 50.6991 24.7737C50.6699 24.802 51.9518 21.4972 49.3298 19.0681Z" fill="url(#paint26_linear_214_3797)"/>
<path d="M47.9605 19.9155C46.2417 18.249 44.2024 17.5994 44.2024 17.5994C45.7173 18.4467 46.8243 19.0964 47.844 20.3392C49.825 22.7401 51.0194 25.3104 50.5533 28.5021L51.6312 26.412C51.0486 23.5874 49.825 21.7232 47.9605 19.9155Z" fill="url(#paint27_linear_214_3797)"/>
<path d="M55.5032 13.1368C56.9598 10.7924 58.8534 9.77562 61.1258 9.49316C60.3975 11.6963 60.2227 12.8544 59.3487 14.5491C58.3873 16.4133 55.9402 19.2661 54.6001 19.6615C54.4544 18.3623 53.7844 15.8766 55.5032 13.1368Z" fill="url(#paint28_linear_214_3797)"/>
<path d="M54.0191 23.3613C53.4365 24.1522 53.99 21.4971 54.0774 21.0169C54.2522 20.1413 55.097 16.5259 56.5828 14.2945C58.0977 11.9784 60.0496 10.2554 60.0496 10.2554C56.1167 14.1815 55.2427 18.3901 54.7766 20.9322C54.5144 22.3445 54.2231 23.0788 54.0191 23.3613Z" fill="url(#paint29_linear_214_3797)"/>
<path d="M53.9617 21.4406C54.923 16.0457 50.087 13.3341 51.6893 6.83765C50.4366 9.09729 50.6988 11.7241 51.6019 14.0967C52.5342 16.4694 53.6121 18.9832 53.0586 21.4688C52.4759 23.9827 50.4075 26.1576 50.524 28.6997C50.524 28.8974 50.6697 29.0386 50.8736 29.0386L52.4468 29.1516C52.709 29.1516 52.9129 28.9256 52.8255 28.6714C52.5633 27.6546 52.4468 26.3553 52.7964 25.3385C53.2625 23.9827 53.6995 22.8529 53.9617 21.4406Z" fill="url(#paint30_linear_214_3797)"/>
<path style="mix-blend-mode:multiply" opacity="0.5" d="M53.9602 21.4406C54.9216 16.0457 50.0856 13.3341 51.6878 6.83765C50.4351 9.09729 50.6973 11.7241 51.6005 14.0967C52.5327 16.4694 53.6106 18.9832 53.0571 21.4688C52.5036 23.8697 50.5808 25.9881 50.4934 28.389C50.4934 28.7279 50.7847 29.0386 51.1635 29.0669L52.2414 29.1234C52.591 29.1516 52.8532 28.8126 52.7658 28.4737C52.5327 27.4851 52.4453 26.2988 52.7949 25.3385C53.261 23.9827 53.698 22.8529 53.9602 21.4406Z" fill="url(#paint31_linear_214_3797)"/>
<path d="M53.2607 16.4129C52.7363 14.8594 52.0662 13.2212 52.3284 11.6112C52.4158 11.131 52.5906 10.6791 52.8528 10.2554C51.6001 14.4922 56.1739 17.7969 54.4551 22.5987C53.9598 23.9544 53.2315 24.9148 52.8528 26.2706C52.6197 27.0332 52.9402 28.4173 53.0276 28.8409C53.0567 28.9539 53.0567 29.0669 53.0276 29.1799C52.9111 29.4058 52.6197 29.7448 51.7458 29.7448C50.9009 29.7448 50.4931 29.2364 50.4639 28.8127C50.4348 27.7111 50.7261 26.6943 51.134 25.8469C51.4836 25.056 52.0662 24.2651 52.5615 23.5308C53.0567 22.8246 53.4063 22.0055 53.6394 21.1864C53.7851 20.5367 53.8724 19.8871 53.8724 19.2375C53.8433 18.2771 53.5811 17.345 53.2607 16.4129Z" fill="url(#paint32_linear_214_3797)"/>
<path style="mix-blend-mode:screen" opacity="0.5" d="M53.2607 16.4129C53.5811 17.345 53.8433 18.2771 53.8725 19.2375C53.8725 19.8871 53.7851 20.5367 53.6394 21.1864C53.4064 22.0055 53.0568 22.8246 52.5615 23.5308C52.0662 24.2651 51.4836 25.056 51.134 25.8469C50.8427 26.4401 50.6096 27.1462 50.5222 27.8806C50.5222 28.2478 50.5222 28.4737 50.5222 28.5585C50.5222 28.9257 51.7167 29.1516 51.7167 29.1516C51.7458 27.7393 51.6293 27.2027 52.1245 26.1011C52.5032 25.3102 52.9694 24.5194 53.2898 23.898C53.5229 23.3613 53.7851 22.8529 53.989 22.2315C54.863 19.7741 53.989 17.5992 53.2024 15.5655C52.7946 14.4922 51.8623 12.0066 52.8528 10.2554C52.5906 10.6791 52.4158 11.131 52.3284 11.6112C52.0663 13.2212 52.7363 14.8594 53.2607 16.4129Z" fill="url(#paint33_radial_214_3797)"/>
<path style="mix-blend-mode:screen" opacity="0.5" d="M58.097 5.79298C61.6511 7.91139 63.1078 11.894 61.3307 14.6903C59.5536 17.5149 55.2128 18.0515 51.6586 15.9331C48.1044 13.843 46.6478 9.83209 48.4249 7.03579C50.202 4.21123 54.5136 3.67456 58.097 5.79298Z" fill="url(#paint34_radial_214_3797)"/>
<defs>
<linearGradient id="paint0_linear_214_3797" x1="-0.0289634" y1="113.899" x2="105.97" y2="113.899" gradientUnits="userSpaceOnUse">
<stop stop-color="#A1C1FF"/>
<stop offset="1" stop-color="white"/>
</linearGradient>
<linearGradient id="paint1_linear_214_3797" x1="17.6172" y1="92.5172" x2="88.3231" y2="92.5172" gradientUnits="userSpaceOnUse">
<stop offset="0.3375" stop-color="#97B5E1"/>
<stop offset="0.5932" stop-color="#E8F1FF"/>
</linearGradient>
<linearGradient id="paint2_linear_214_3797" x1="88.0497" y1="72.9535" x2="17.9665" y2="66.163" gradientUnits="userSpaceOnUse">
<stop stop-color="white"/>
<stop offset="1" stop-color="#C9D9F4"/>
</linearGradient>
<linearGradient id="paint3_linear_214_3797" x1="24.7085" y1="84.0226" x2="23.5709" y2="81.9196" gradientUnits="userSpaceOnUse">
<stop stop-color="#103DB5"/>
<stop offset="0.6426" stop-color="#6BABFD"/>
</linearGradient>
<linearGradient id="paint4_linear_214_3797" x1="28.4232" y1="86.0139" x2="27.2856" y2="83.9109" gradientUnits="userSpaceOnUse">
<stop stop-color="#103DB5"/>
<stop offset="0.6426" stop-color="#6BABFD"/>
</linearGradient>
<linearGradient id="paint5_linear_214_3797" x1="32.2584" y1="92.1625" x2="27.3573" y2="99.5019" gradientUnits="userSpaceOnUse">
<stop stop-color="#F1935C" stop-opacity="0.6"/>
<stop offset="1" stop-color="#FFE4D4" stop-opacity="0"/>
</linearGradient>
<linearGradient id="paint6_linear_214_3797" x1="3.14716" y1="11.5158" x2="15.0527" y2="1.78229" gradientUnits="userSpaceOnUse">
<stop stop-color="#A1C1FF"/>
<stop offset="1" stop-color="#B2D7FF"/>
</linearGradient>
<linearGradient id="paint7_linear_214_3797" x1="22.1902" y1="7.06564" x2="10.7893" y2="0.176735" gradientUnits="userSpaceOnUse">
<stop stop-color="white"/>
<stop offset="1" stop-color="#C9D9F4"/>
</linearGradient>
<linearGradient id="paint8_linear_214_3797" x1="100.354" y1="15.4712" x2="93.3146" y2="9.7162" gradientUnits="userSpaceOnUse">
<stop stop-color="#A1C1FF"/>
<stop offset="1" stop-color="#B2D7FF"/>
</linearGradient>
<linearGradient id="paint9_linear_214_3797" x1="89.0961" y1="12.8402" x2="95.8367" y2="8.76714" gradientUnits="userSpaceOnUse">
<stop stop-color="white"/>
<stop offset="1" stop-color="#C9D9F4"/>
</linearGradient>
<linearGradient id="paint10_linear_214_3797" x1="22.3771" y1="62.7775" x2="82.1491" y2="62.7775" gradientUnits="userSpaceOnUse">
<stop offset="0.3375" stop-color="#97B5E1"/>
<stop offset="0.5932" stop-color="#E8F1FF"/>
</linearGradient>
<linearGradient id="paint11_linear_214_3797" x1="81.921" y1="42.4632" x2="22.6845" y2="36.6756" gradientUnits="userSpaceOnUse">
<stop stop-color="white"/>
<stop offset="1" stop-color="#C9D9F4"/>
</linearGradient>
<linearGradient id="paint12_linear_214_3797" x1="44.3077" y1="57.9373" x2="34.1482" y2="81.4793" gradientUnits="userSpaceOnUse">
<stop stop-color="#97B5E1"/>
<stop offset="1" stop-color="#E8F1FF"/>
</linearGradient>
<linearGradient id="paint13_linear_214_3797" x1="45.6765" y1="59.778" x2="26.5575" y2="71.6586" gradientUnits="userSpaceOnUse">
<stop stop-color="white"/>
<stop offset="1" stop-color="white" stop-opacity="0.2"/>
</linearGradient>
<linearGradient id="paint14_linear_214_3797" x1="51.9316" y1="31.337" x2="57.2375" y2="40.8128" gradientUnits="userSpaceOnUse">
<stop stop-color="#5180DD"/>
<stop offset="1" stop-color="#B2D7FF"/>
</linearGradient>
<linearGradient id="paint15_linear_214_3797" x1="46.1717" y1="34.4443" x2="57.6727" y2="34.4443" gradientUnits="userSpaceOnUse">
<stop stop-color="#7BA6FB"/>
<stop offset="0.581" stop-color="#B2D7FF"/>
<stop offset="1" stop-color="#A1C1FF"/>
</linearGradient>
<linearGradient id="paint16_linear_214_3797" x1="51.9324" y1="29.9828" x2="57.2258" y2="39.4488" gradientUnits="userSpaceOnUse">
<stop stop-color="#5180DD"/>
<stop offset="1" stop-color="#B2D7FF"/>
</linearGradient>
<linearGradient id="paint17_linear_214_3797" x1="46.1758" y1="33.0738" x2="57.6768" y2="33.0738" gradientUnits="userSpaceOnUse">
<stop stop-color="#A1C1FF"/>
<stop offset="0.581" stop-color="#7BA6FB"/>
<stop offset="1" stop-color="#84ADFF"/>
</linearGradient>
<linearGradient id="paint18_linear_214_3797" x1="51.9385" y1="28.5972" x2="57.2435" y2="38.0744" gradientUnits="userSpaceOnUse">
<stop stop-color="#5180DD"/>
<stop offset="1" stop-color="#B2D7FF"/>
</linearGradient>
<linearGradient id="paint19_linear_214_3797" x1="46.1798" y1="31.7031" x2="57.6808" y2="31.7031" gradientUnits="userSpaceOnUse">
<stop stop-color="#A1C1FF"/>
<stop offset="0.581" stop-color="#7BA6FB"/>
<stop offset="1" stop-color="#84ADFF"/>
</linearGradient>
<linearGradient id="paint20_linear_214_3797" x1="46.1832" y1="30.3324" x2="57.6842" y2="30.3324" gradientUnits="userSpaceOnUse">
<stop stop-color="#A1C1FF"/>
<stop offset="0.581" stop-color="#5180DD"/>
<stop offset="1" stop-color="#B2D7FF"/>
</linearGradient>
<linearGradient id="paint21_linear_214_3797" x1="51.9441" y1="27.2428" x2="57.2385" y2="36.7072" gradientUnits="userSpaceOnUse">
<stop stop-color="#5180DD"/>
<stop offset="1" stop-color="#B2D7FF"/>
</linearGradient>
<linearGradient id="paint22_linear_214_3797" x1="46.7181" y1="32.4851" x2="55.5738" y2="32.4851" gradientUnits="userSpaceOnUse">
<stop stop-color="#598DED"/>
<stop offset="0.532" stop-color="#5180DD"/>
<stop offset="1" stop-color="#84ADFF"/>
</linearGradient>
<linearGradient id="paint23_linear_214_3797" x1="51.9574" y1="21.462" x2="58.8098" y2="33.7035" gradientUnits="userSpaceOnUse">
<stop stop-color="#D5D5DC"/>
<stop offset="1" stop-color="#DEDEE4"/>
</linearGradient>
<linearGradient id="paint24_linear_214_3797" x1="44.7707" y1="29.4879" x2="59.1148" y2="29.4879" gradientUnits="userSpaceOnUse">
<stop stop-color="#A1C1FF"/>
<stop offset="0.581" stop-color="#7BA6FB"/>
<stop offset="1" stop-color="#598DED"/>
</linearGradient>
<radialGradient id="paint25_radial_214_3797" cx="0" cy="0" r="1" gradientUnits="userSpaceOnUse" gradientTransform="translate(52.0106 29.0108) scale(21.4548 20.8014)">
<stop stop-color="#28565D"/>
<stop offset="1" stop-color="#362107"/>
</radialGradient>
<linearGradient id="paint26_linear_214_3797" x1="50.5796" y1="14.6969" x2="47.862" y2="24.8139" gradientUnits="userSpaceOnUse">
<stop stop-color="#509AA6"/>
<stop offset="1" stop-color="#34656D"/>
</linearGradient>
<linearGradient id="paint27_linear_214_3797" x1="52.8699" y1="12.0632" x2="61.0856" y2="25.6715" gradientUnits="userSpaceOnUse">
<stop stop-color="#4D94A0"/>
<stop offset="1" stop-color="#35666E"/>
</linearGradient>
<linearGradient id="paint28_linear_214_3797" x1="52.6493" y1="10.2383" x2="58.5986" y2="17.8374" gradientUnits="userSpaceOnUse">
<stop stop-color="#4D94A0"/>
<stop offset="1" stop-color="#254456"/>
</linearGradient>
<linearGradient id="paint29_linear_214_3797" x1="75.2161" y1="16.3358" x2="67.7381" y2="32.783" gradientUnits="userSpaceOnUse">
<stop stop-color="#8BCCD6"/>
<stop offset="1" stop-color="#4D94A0"/>
</linearGradient>
<linearGradient id="paint30_linear_214_3797" x1="127.335" y1="10.5336" x2="125.878" y2="34.2915" gradientUnits="userSpaceOnUse">
<stop stop-color="#D6E671"/>
<stop offset="0.0001" stop-color="#4D94A0"/>
<stop offset="1" stop-color="#28565D"/>
</linearGradient>
<linearGradient id="paint31_linear_214_3797" x1="121.697" y1="-10.2156" x2="124.405" y2="1.01595" gradientUnits="userSpaceOnUse">
<stop stop-color="white"/>
<stop offset="1" stop-color="#28565D"/>
</linearGradient>
<linearGradient id="paint32_linear_214_3797" x1="101.808" y1="16.5592" x2="96.9115" y2="39.5537" gradientUnits="userSpaceOnUse">
<stop stop-color="#4D94A0"/>
<stop offset="0.51" stop-color="#509AA6"/>
<stop offset="1" stop-color="#28565D"/>
</linearGradient>
<radialGradient id="paint33_radial_214_3797" cx="0" cy="0" r="1" gradientUnits="userSpaceOnUse" gradientTransform="translate(53.5342 15.8593) scale(12.8656 12.4738)">
<stop stop-color="#8BCCD6"/>
<stop offset="1" stop-color="#4D94A0"/>
</radialGradient>
<radialGradient id="paint34_radial_214_3797" cx="0" cy="0" r="1" gradientUnits="userSpaceOnUse" gradientTransform="translate(57.7911 5.44471) scale(16.1957 15.7025)">
<stop stop-color="#DEDEE4"/>
<stop offset="1"/>
</radialGradient>
</defs>
</svg>
