<svg width="70" height="70" viewBox="0 0 70 70" fill="none" xmlns="http://www.w3.org/2000/svg">
<rect width="70" height="70" rx="20" fill="#34656D"/>
<g opacity="0.5">
<path d="M32.9409 32.1177C35.6699 32.1177 37.8821 29.9055 37.8821 27.1765C37.8821 24.4476 35.6699 22.2354 32.9409 22.2354C30.212 22.2354 27.9998 24.4476 27.9998 27.1765C27.9998 29.9055 30.212 32.1177 32.9409 32.1177Z" fill="white"/>
<path d="M32.9409 45.3971C42.8233 45.3971 42.8233 43.1849 42.8233 40.4559C42.8233 37.727 38.3988 35.5148 32.9409 35.5148C27.4831 35.5148 23.0586 37.727 23.0586 40.4559C23.0586 43.1849 23.0586 45.3971 32.9409 45.3971Z" fill="white"/>
</g>
<path d="M43.1314 40.6811V40.2638H39.4858L42.7656 33.5289L39.2721 40.4766C39.2721 40.5872 41.8035 40.6039 41.873 40.6811C41.9407 40.7583 42.9449 41.5368 43.04 41.5368L43.1314 44.625L43.4973 44.9123V40.6811C43.4973 40.5705 43.4589 40.4641 43.3894 40.3869C43.3217 40.3097 43.2266 40.2638 43.1314 40.2638V40.6811H42.7656V46.523C42.7656 46.7128 42.879 46.8797 43.04 46.9277C43.201 46.9757 43.3711 46.8922 43.4516 46.7274L47.7192 37.9646C47.7814 37.8352 47.7795 37.6767 47.7155 37.5494C47.6497 37.4221 47.5289 37.3428 47.4009 37.3428H43.4991V31.9182C43.4991 31.7284 43.3857 31.5614 43.2247 31.5135C43.0638 31.4655 42.8936 31.5489 42.8132 31.7138L38.5455 40.4766C38.4833 40.606 38.4852 40.7645 38.5492 40.8918C38.6132 41.0191 38.7358 41.0983 38.8638 41.0983H43.1314V40.6811Z" fill="white"/>
</svg>
