<svg width="70" height="70" viewBox="0 0 70 70" fill="none" xmlns="http://www.w3.org/2000/svg">
<rect width="70" height="70" rx="20" fill="#34656D"/>
<path opacity="0.2" d="M23.5562 30.9191C23.1851 31.2678 23.1851 31.8291 23.1851 32.9516V40.0956C23.1851 41.2182 23.1851 41.7795 23.5562 42.1282C23.9272 42.477 24.5245 42.477 25.719 42.477C26.9136 42.477 27.5108 42.477 27.8819 42.1282C28.253 41.7795 28.253 41.2182 28.253 40.0956V32.9516C28.253 31.8291 28.253 31.2678 27.8819 30.9191C27.5108 30.5703 26.9136 30.5703 25.719 30.5703C24.5245 30.5703 23.9272 30.5703 23.5562 30.9191Z" fill="white"/>
<path d="M41.2944 22.5841C40.9233 22.9328 40.9233 23.4941 40.9233 24.6167V40.0953C40.9233 41.2179 40.9233 41.7792 41.2944 42.1279C41.6655 42.4767 42.2628 42.4767 43.4573 42.4767C44.6518 42.4767 45.2491 42.4767 45.6202 42.1279C45.9913 41.7792 45.9913 41.2179 45.9913 40.0953V24.6167C45.9913 23.4941 45.9913 22.9328 45.6202 22.5841C45.2491 22.2354 44.6518 22.2354 43.4573 22.2354C42.2628 22.2354 41.6655 22.2354 41.2944 22.5841Z" fill="white"/>
<path opacity="0.6" d="M32.0547 28.1885C32.0547 27.0659 32.0547 26.5046 32.4258 26.1559C32.7969 25.8071 33.3941 25.8071 34.5887 25.8071C35.7832 25.8071 36.3805 25.8071 36.7516 26.1559C37.1226 26.5046 37.1226 27.0659 37.1226 28.1885V40.0951C37.1226 41.2177 37.1226 41.779 36.7516 42.1277C36.3805 42.4764 35.7832 42.4764 34.5887 42.4764C33.3941 42.4764 32.7969 42.4764 32.4258 42.1277C32.0547 41.779 32.0547 41.2177 32.0547 40.0951V28.1885Z" fill="white"/>
<path d="M23.1856 45.1548C22.6608 45.1548 22.2354 45.5546 22.2354 46.0478C22.2354 46.541 22.6608 46.9408 23.1856 46.9408H45.9914C46.5162 46.9408 46.9417 46.541 46.9417 46.0478C46.9417 45.5546 46.5162 45.1548 45.9914 45.1548H23.1856Z" fill="white"/>
</svg>
