<svg width="70" height="70" viewBox="0 0 70 70" fill="none" xmlns="http://www.w3.org/2000/svg">
<rect width="70" height="70" rx="20" fill="#34656D"/>
<path d="M35.449 47.861C38.3893 47.861 40.7729 42.1629 40.7729 35.1339C40.7729 28.1049 38.3893 22.4067 35.449 22.4067C32.5086 22.4067 30.125 28.1049 30.125 35.1339C30.125 42.1629 32.5086 47.861 35.449 47.861Z" fill="#34656D"/>
<path d="M38.1124 39.3922C44.6995 35.8795 48.8469 31.1195 47.3752 28.7668C45.9036 26.4141 39.3716 27.3559 32.7845 30.8686C26.1975 34.3813 22.0501 39.1413 23.5217 41.494C24.9934 43.8467 31.5254 42.9085 38.1124 39.3922Z" fill="#34656D"/>
<path d="M32.788 39.3922C39.375 42.9085 45.907 43.8467 47.3787 41.494C48.8503 39.1412 44.7029 34.3849 38.1158 30.8686C31.5288 27.3523 24.9968 26.4141 23.5252 28.7668C22.0535 31.1195 26.2009 35.8795 32.788 39.3922Z" fill="#34656D"/>
<path opacity="0.5" d="M30.1254 35.1337H30.9123C30.9123 31.6974 31.5026 28.5847 32.4194 26.3956C32.8759 25.3011 33.415 24.4429 33.958 23.8974C34.2295 23.6247 34.4971 23.4284 34.745 23.3084C34.9968 23.1884 35.2211 23.1338 35.4493 23.1338C35.6775 23.1338 35.9058 23.1847 36.1537 23.3084C36.5904 23.5193 37.0823 23.9629 37.5466 24.6392C38.2431 25.6501 38.8688 27.1483 39.3016 28.9556C39.7384 30.7628 39.9902 32.8755 39.9902 35.1337C39.9902 38.57 39.4 41.6827 38.4832 43.8718C38.0267 44.9663 37.4876 45.8245 36.9446 46.37C36.6731 46.6427 36.4055 46.839 36.1576 46.959C35.9058 47.079 35.6815 47.1336 35.4533 47.1336C35.225 47.1336 34.9968 47.079 34.7489 46.959C34.3121 46.7481 33.8203 46.3045 33.3559 45.6281C32.6595 44.6172 32.0338 43.1191 31.601 41.3118C31.1642 39.5046 30.9123 37.3919 30.9123 35.1337H30.1254H29.3384C29.3384 38.7264 29.9404 41.9773 30.9517 44.3954C31.4593 45.6063 32.0653 46.61 32.7972 47.3518C33.1631 47.7227 33.5645 48.0281 34.0091 48.2463C34.4538 48.4645 34.9457 48.5918 35.4493 48.5881C35.9569 48.5881 36.4488 48.4645 36.8895 48.2463C37.6686 47.8608 38.31 47.2209 38.8727 46.41C39.7108 45.1881 40.3719 43.5518 40.8362 41.6282C41.3006 39.7046 41.5602 37.49 41.5602 35.1337C41.5602 31.541 40.9582 28.2901 39.9469 25.872C39.4393 24.6611 38.8334 23.6574 38.1015 22.9156C37.7355 22.5447 37.3341 22.2393 36.8895 22.0211C36.4448 21.8029 35.953 21.6756 35.4493 21.6793C34.9417 21.6793 34.4498 21.8029 34.0091 22.0211C33.23 22.4065 32.5886 23.0465 32.0259 23.8574C31.1878 25.0792 30.5267 26.7156 30.0624 28.6392C29.5981 30.5628 29.3384 32.7774 29.3384 35.1337H30.1254Z" fill="white"/>
<path opacity="0.5" d="M38.1132 39.3915L38.5067 40.0206C41.4146 38.4679 43.8582 36.6825 45.6053 34.9261C46.4789 34.0461 47.1793 33.177 47.6711 32.3298C48.163 31.4825 48.4542 30.6571 48.4581 29.8498C48.4581 29.3443 48.3322 28.8425 48.0568 28.4025C47.8679 28.1007 47.62 27.8389 47.3288 27.6244C46.892 27.3007 46.3687 27.0862 45.7902 26.9444C45.2118 26.8062 44.5744 26.7407 43.8857 26.7407C42.3433 26.7407 40.5332 27.0571 38.5736 27.6498C36.614 28.2425 34.5049 29.1116 32.3918 30.2389C29.4839 31.7916 27.0404 33.577 25.2932 35.3334C24.4197 36.2134 23.7193 37.0824 23.2274 37.9297C22.7355 38.777 22.4444 39.6024 22.4404 40.4097C22.4404 40.9151 22.5664 41.4169 22.8418 41.8569C23.0307 42.1588 23.2786 42.4206 23.5698 42.6351C24.0065 42.9588 24.5299 43.1733 25.1083 43.3151C25.6867 43.4533 26.3242 43.5187 27.0089 43.5187C28.5514 43.5187 30.3614 43.2024 32.321 42.6097C34.2806 42.0169 36.3897 41.1479 38.5028 40.0206L38.1132 39.3915L37.7197 38.7624C35.6972 39.8424 33.6825 40.6715 31.837 41.2279C29.9955 41.7842 28.3192 42.0642 27.0128 42.0642C26.2376 42.0642 25.5923 41.966 25.124 41.7951C24.8919 41.7115 24.6991 41.6097 24.5495 41.5006C24.4 41.3879 24.2898 41.2715 24.2033 41.1333C24.0813 40.9333 24.0144 40.7042 24.0144 40.4133C24.0105 39.9515 24.2033 39.3297 24.6125 38.6242C25.2264 37.5624 26.3242 36.3297 27.7919 35.097C29.2596 33.8607 31.0933 32.6207 33.1828 31.508C35.2053 30.428 37.22 29.5989 39.0655 29.0425C40.907 28.4862 42.5833 28.2062 43.8897 28.2062C44.6649 28.2062 45.3102 28.3043 45.7784 28.4753C46.0106 28.5589 46.2034 28.6607 46.353 28.7698C46.5025 28.8825 46.6126 28.9989 46.6992 29.1371C46.8212 29.3371 46.8881 29.5662 46.8881 29.8571C46.892 30.3189 46.6992 30.9407 46.29 31.6461C45.6761 32.7079 44.5783 33.9407 43.1106 35.1734C41.6428 36.4097 39.8092 37.6497 37.7197 38.7624L38.1132 39.3915Z" fill="white"/>
<path opacity="0.5" d="M32.7893 39.3915L32.3958 40.0206C34.5088 41.1479 36.618 42.0169 38.5775 42.6097C40.5371 43.1987 42.3472 43.5151 43.8897 43.5187C44.8065 43.5187 45.6329 43.4097 46.349 43.1478C46.7071 43.0169 47.0376 42.8497 47.3288 42.6351C47.62 42.4206 47.8679 42.1588 48.0568 41.8569C48.3322 41.4169 48.4581 40.9151 48.4581 40.4097C48.4542 39.6024 48.163 38.777 47.6711 37.9297C46.9314 36.6606 45.7273 35.3334 44.1651 34.0134C42.6029 32.697 40.6827 31.4025 38.5028 30.2389C36.3897 29.1116 34.2806 28.2425 32.321 27.6498C30.3614 27.0607 28.5514 26.7444 27.0089 26.7407C26.092 26.7407 25.2657 26.8498 24.5495 27.1116C24.1915 27.2425 23.8609 27.4098 23.5698 27.6244C23.2786 27.8389 23.0307 28.1007 22.8418 28.4025C22.5664 28.8425 22.4404 29.3443 22.4404 29.8498C22.4444 30.6571 22.7355 31.4825 23.2274 32.3298C23.9672 33.5988 25.1713 34.9261 26.7334 36.2461C28.2956 37.5624 30.2158 38.857 32.3958 40.0206L32.7893 39.3915L33.1828 38.7624C30.4008 37.2788 28.0634 35.5661 26.4541 33.9443C25.6474 33.1334 25.0257 32.3479 24.6164 31.6425C24.2033 30.9371 24.0144 30.3152 24.0183 29.8534C24.0183 29.5589 24.0852 29.3298 24.2072 29.1334C24.2938 28.9952 24.404 28.8789 24.5535 28.7662C24.7778 28.5989 25.0926 28.4571 25.5097 28.3553C25.9228 28.2534 26.4304 28.1989 27.0128 28.1989C28.3231 28.1989 29.9955 28.4789 31.837 29.0353C33.6825 29.5916 35.6972 30.4207 37.7197 31.5007C40.5017 32.9843 42.8391 34.697 44.4484 36.3188C45.2551 37.1297 45.8768 37.9152 46.286 38.6206C46.6992 39.3261 46.8881 39.9479 46.8842 40.4097C46.8842 40.7042 46.8173 40.9333 46.6953 41.1297C46.6087 41.2679 46.4985 41.3842 46.349 41.4969C46.1247 41.6642 45.8099 41.806 45.3928 41.9079C44.9797 42.0097 44.4721 42.0642 43.8897 42.0642C42.5794 42.0642 40.907 41.7842 39.0655 41.2279C37.22 40.6715 35.2053 39.8424 33.1828 38.7624L32.7893 39.3915Z" fill="white"/>
<path d="M35.4489 24.2247C36.5355 24.2247 37.4164 23.4107 37.4164 22.4065C37.4164 21.4024 36.5355 20.5884 35.4489 20.5884C34.3623 20.5884 33.4814 21.4024 33.4814 22.4065C33.4814 23.4107 34.3623 24.2247 35.4489 24.2247Z" fill="white"/>
<path d="M46.6208 39.5294C47.7074 39.5294 48.5882 38.7154 48.5882 37.7112C48.5882 36.7071 47.7074 35.8931 46.6208 35.8931C45.5342 35.8931 44.6533 36.7071 44.6533 37.7112C44.6533 38.7154 45.5342 39.5294 46.6208 39.5294Z" fill="white"/>
<path d="M24.2028 39.6681C25.2894 39.6681 26.1703 38.854 26.1703 37.8499C26.1703 36.8458 25.2894 36.0317 24.2028 36.0317C23.1162 36.0317 22.2354 36.8458 22.2354 37.8499C22.2354 38.854 23.1162 39.6681 24.2028 39.6681Z" fill="white"/>
</svg>
