<svg width="70" height="70" viewBox="0 0 70 70" fill="none" xmlns="http://www.w3.org/2000/svg">
<rect width="70" height="70" rx="20" fill="#34656D"/>
<path fill-rule="evenodd" clip-rule="evenodd" d="M21.8237 44.7669C21.8237 44.2485 22.2482 43.8281 22.7717 43.8281H48.0522C48.5758 43.8281 49.0002 44.2485 49.0002 44.7669C49.0002 45.2854 48.5758 45.7058 48.0522 45.7058H22.7717C22.2482 45.7058 21.8237 45.2854 21.8237 44.7669Z" fill="white"/>
<path opacity="0.5" d="M25.1468 24.5706C24.0361 25.6705 24.0361 27.4408 24.0361 30.9813V37.2401C24.0361 39.6005 24.0361 40.7806 24.7766 41.5139C25.517 42.2472 26.7088 42.2472 29.0922 42.2472H41.7324C44.1159 42.2472 45.3076 42.2472 46.0481 41.5139C46.7885 40.7806 46.7885 39.6005 46.7885 37.2401V30.9813C46.7885 27.4408 46.7885 25.6705 45.6779 24.5706C44.5672 23.4707 42.7796 23.4707 39.2044 23.4707H31.6203C28.0451 23.4707 26.2575 23.4707 25.1468 24.5706Z" fill="white"/>
<path d="M31.6204 37.5532C31.0968 37.5532 30.6724 37.9735 30.6724 38.492C30.6724 39.0105 31.0968 39.4309 31.6204 39.4309H39.2045C39.7281 39.4309 40.1525 39.0105 40.1525 38.492C40.1525 37.9735 39.7281 37.5532 39.2045 37.5532H31.6204Z" fill="#34656D"/>
</svg>
