<svg width="351" height="432" viewBox="0 0 351 432" fill="none" xmlns="http://www.w3.org/2000/svg">
<g opacity="0.3" filter="url(#filter0_f_294_71609)">
<ellipse cx="108.845" cy="61.8629" rx="108.845" ry="61.8629" transform="matrix(-0.876019 0.482276 0.517936 0.85542 239.188 133.256)" fill="#333333"/>
</g>
<path d="M317.74 233.271H31.125V242.923C31.125 249.357 35.7182 255.792 44.5983 260.764L142.28 314.58C160.347 324.524 189.437 324.524 207.197 314.58L304.267 260.764C313.147 255.792 317.74 249.357 317.74 242.923V233.271Z" fill="url(#paint0_linear_294_71609)"/>
<path d="M303.951 215.139C322.017 225.083 322.017 241.169 304.257 251.114L207.187 304.93C189.427 314.874 160.337 314.874 142.27 304.93L44.5884 251.114C26.5219 241.169 26.5219 225.083 44.2822 215.139L141.352 161.323C159.112 151.379 188.202 151.379 206.269 161.323L303.951 215.139Z" fill="#B2D7FF"/>
<path d="M279.179 218.646C293.877 226.543 293.877 239.705 279.485 247.602L200.788 291.181C186.396 299.078 162.818 299.078 148.12 291.181L69.1169 247.602C54.4187 239.705 54.4187 226.543 68.8107 218.646L147.814 175.067C162.205 167.17 185.784 167.17 200.482 175.067L279.179 218.646Z" stroke="#F1935C" stroke-miterlimit="10"/>
<path d="M269.969 156.35H78.5859V227.714C78.5859 232.101 81.6481 236.488 87.7723 239.706L152.996 275.68C164.938 282.407 184.536 282.407 196.478 275.68L261.395 239.706C267.213 236.488 270.275 232.101 270.275 227.714V156.35H269.969Z" fill="url(#paint1_linear_294_71609)"/>
<path d="M260.804 144.358C272.747 151.085 272.747 161.614 261.11 168.341L196.193 204.316C184.251 211.043 164.96 211.043 152.711 204.316L87.488 168.341C75.5457 161.614 75.5457 151.085 87.488 144.358L152.405 108.383C164.347 101.656 183.639 101.656 195.581 108.383L260.804 144.358Z" fill="#BCD0F1"/>
<path d="M174.107 103.705V105.167C182.069 105.167 189.418 106.922 194.929 109.847L260.153 145.822C265.358 148.747 268.421 152.549 268.421 156.643C268.421 160.738 265.665 164.54 260.153 167.173L195.236 203.147C189.724 206.365 182.375 207.827 174.413 207.827C166.452 207.827 159.103 206.072 153.591 203.147L88.3675 167.173C83.1619 164.248 80.0997 160.446 80.0997 156.351C80.0997 152.256 82.8557 148.454 88.3675 145.529L153.285 109.555C158.796 106.337 166.146 104.875 174.107 104.875V103.705ZM174.107 103.705C166.146 103.705 158.49 105.46 152.366 108.677L87.4489 144.652C75.5066 151.379 75.5066 161.908 87.4489 168.635L152.978 204.317C159.103 207.535 166.758 209.289 174.72 209.289C182.681 209.289 190.336 207.535 196.461 204.317L261.378 168.343C273.32 161.616 273.32 151.086 261.071 144.359L195.848 108.385C189.724 105.167 181.762 103.705 174.107 103.705Z" fill="url(#paint2_linear_294_71609)"/>
<path d="M143.509 228.884C145.04 229.762 145.959 231.517 145.959 233.272V246.726C145.959 248.188 144.734 249.065 143.203 248.188L93.9028 220.988C92.3717 220.11 91.4531 218.355 91.4531 216.6V203.146C91.4531 201.684 92.678 200.807 94.209 201.684L143.509 228.884Z" fill="#F1935C"/>
<path d="M145.965 246.727L96.665 219.526C95.134 218.649 94.2153 216.894 94.2153 215.139V201.685C92.9904 201.1 91.7656 201.685 91.7656 203.147V216.601C91.7656 218.064 92.9904 220.111 94.2153 220.989L143.516 248.189C145.047 249.066 146.271 248.481 145.965 246.727Z" fill="#1964BA"/>
<path d="M95.7523 196.424L97.8956 195.254C98.2018 194.961 98.5079 194.376 98.5079 193.791C98.5079 192.329 97.2832 190.574 96.0585 189.697C95.4461 189.404 94.8337 189.404 94.2214 189.404L92.0781 190.574L95.7523 196.424Z" fill="url(#paint3_linear_294_71609)"/>
<path d="M95.8512 196.304C96.7313 195.822 96.6945 194.181 95.7691 192.64C94.8436 191.099 93.3799 190.24 92.4998 190.723C91.6197 191.205 91.6565 192.845 92.582 194.386C93.5074 195.927 94.9711 196.786 95.8512 196.304Z" fill="#2185F8"/>
<path d="M95.2427 195.296C95.8297 194.975 95.828 193.919 95.239 192.938C94.65 191.957 93.6966 191.422 93.1097 191.744C92.5227 192.066 92.5244 193.121 93.1134 194.102C93.7024 195.083 94.6557 195.618 95.2427 195.296Z" fill="#F1935C"/>
<path d="M105.838 201.689L107.982 200.519C108.288 200.227 108.594 199.642 108.594 199.057C108.594 197.595 107.369 195.84 106.144 194.962C105.532 194.67 104.92 194.67 104.307 194.67L102.164 195.84L105.838 201.689Z" fill="url(#paint4_linear_294_71609)"/>
<path d="M105.953 201.823C106.833 201.341 106.796 199.701 105.871 198.16C104.945 196.618 103.481 195.76 102.601 196.242C101.721 196.724 101.758 198.364 102.684 199.905C103.609 201.447 105.073 202.305 105.953 201.823Z" fill="#2185F8"/>
<path d="M105.352 200.808C105.939 200.486 105.937 199.43 105.348 198.449C104.759 197.469 103.806 196.934 103.219 197.256C102.632 197.577 102.634 198.633 103.223 199.614C103.812 200.595 104.765 201.129 105.352 200.808Z" fill="#FFE200"/>
<path d="M146.265 233.269C146.265 231.806 145.04 229.759 143.815 228.882L94.5149 201.681C93.9025 201.389 93.2901 201.389 92.9839 201.389L76.7546 206.361C76.1422 206.653 75.8359 207.238 75.8359 208.116V223.617C75.8359 225.372 77.0608 227.712 78.8981 228.589L133.404 259.884C134.629 260.469 135.854 259.884 136.16 259.299C138.61 256.374 145.959 247.893 145.959 247.893C145.959 247.893 146.571 247.6 146.571 246.43L146.265 233.269Z" fill="url(#paint5_linear_294_71609)"/>
<path d="M105.539 134.412L213.938 194.662L214.245 265.734L245.784 283.868" stroke="#28565D" stroke-width="0.25" stroke-miterlimit="10" stroke-linejoin="round"/>
<path d="M112.594 130.613L220.687 190.864L220.993 261.936L252.533 280.069" stroke="#28565D" stroke-width="0.25" stroke-miterlimit="10" stroke-linejoin="round"/>
<path d="M119.32 126.805L227.72 187.055L228.026 258.127L259.259 276.261" stroke="#28565D" stroke-width="0.25" stroke-miterlimit="10" stroke-linejoin="round"/>
<path d="M126.062 123.01L234.462 183.26L234.768 254.332L266.308 272.466" stroke="#28565D" stroke-width="0.25" stroke-miterlimit="10" stroke-linejoin="round"/>
<path d="M133.102 119.201L241.195 179.452L241.807 250.816L273.041 268.657" stroke="#28565D" stroke-width="0.25" stroke-miterlimit="10" stroke-linejoin="round"/>
<path d="M139.844 115.402L248.243 175.653L248.549 247.017L279.783 264.858" stroke="#28565D" stroke-width="0.25" stroke-miterlimit="10" stroke-linejoin="round"/>
<path d="M253.28 73.5254H91.4922V155.176C91.4922 158.854 94.0808 162.532 99.258 165.229L154.395 195.388C164.491 201.028 181.058 201.028 191.153 195.388L246.032 165.229C250.95 162.532 253.539 158.854 253.539 155.176V73.5254H253.28Z" fill="url(#paint6_linear_294_71609)"/>
<path d="M245.509 63.7171C255.604 69.3566 255.604 78.1837 245.767 83.8233L190.889 113.983C180.793 119.622 164.485 119.622 154.131 113.983L98.9935 83.8233C88.898 78.1837 88.898 69.3566 98.9935 63.7171L153.872 33.5578C163.968 27.9182 180.276 27.9182 190.371 33.5578L245.509 63.7171Z" fill="#DEE9FF"/>
<path d="M172.251 29.3945V30.6205C178.981 30.6205 185.194 32.0917 189.854 34.5437L244.991 64.7029C249.391 67.1549 251.98 70.3425 251.98 73.7753C251.98 77.208 249.65 80.3956 244.991 82.6024L190.112 112.762C185.453 115.459 179.24 116.685 172.51 116.685C165.78 116.685 159.567 115.214 154.907 112.762L99.7701 82.6024C95.3695 80.1504 92.7808 76.9628 92.7808 73.5301C92.7808 70.0973 95.1106 66.9097 99.7701 64.4578L154.649 34.2985C159.308 31.6013 165.521 30.3753 172.251 30.3753V29.3945ZM172.251 29.3945C165.521 29.3945 159.049 30.8657 153.872 33.5629L98.9935 63.7222C88.898 69.3617 88.898 78.1888 98.9935 83.8284L154.131 113.988C159.308 116.685 165.78 118.156 172.51 118.156C179.24 118.156 185.712 116.685 190.889 113.988L245.767 83.8284C255.863 78.1888 255.863 69.3617 245.509 63.7222L190.371 33.5629C185.453 30.8657 178.723 29.3945 172.251 29.3945Z" fill="url(#paint7_linear_294_71609)"/>
<path d="M172.248 40.424C177.425 40.424 182.084 41.4048 185.709 43.6116L227.385 66.4149C231.009 68.3765 232.821 70.8285 232.821 73.5256C232.821 76.2228 231.009 78.6748 227.385 80.6363L185.967 103.44C182.343 105.401 177.684 106.627 172.507 106.627C167.329 106.627 162.67 105.646 159.046 103.44L117.369 80.6363C113.745 78.6748 111.933 76.2228 111.933 73.5256C111.933 70.8285 113.745 68.3765 117.369 66.4149L158.787 43.6116C162.411 41.65 167.071 40.424 172.248 40.424ZM172.248 39.9336C167.329 39.9336 162.152 40.9144 158.528 43.1212L117.111 65.9245C109.345 70.0929 109.604 76.9584 117.111 81.1268L158.787 103.93C162.67 106.137 167.588 107.118 172.766 107.118C177.684 107.118 182.861 106.137 186.744 103.93L228.162 81.1268C235.669 76.9584 235.669 70.0929 228.162 65.9245L186.485 43.1212C182.343 41.1596 177.166 39.9336 172.248 39.9336Z" fill="#F1935C"/>
<path d="M150.77 125.257C154.652 127.464 157.759 132.613 157.759 136.782L157.5 182.143C157.5 186.311 154.394 188.028 150.511 186.066L104.692 161.056C100.809 158.849 97.7031 153.7 97.7031 149.532L97.9619 104.17C97.9619 100.002 101.068 98.2855 104.951 100.247L150.77 125.257Z" fill="#F3F8FE"/>
<mask id="mask0_294_71609" style="mask-type:luminance" maskUnits="userSpaceOnUse" x="97" y="99" width="61" height="88">
<path d="M150.77 125.255C154.652 127.462 157.759 132.611 157.759 136.78L157.5 182.141C157.5 186.309 154.394 188.026 150.511 186.064L104.692 161.054C100.809 158.847 97.7031 153.698 97.7031 149.53L97.9619 104.168C97.9619 99.9999 101.068 98.2835 104.951 100.245L150.77 125.255Z" fill="white"/>
</mask>
<g mask="url(#mask0_294_71609)">
<path d="M150.77 125.255C154.652 127.462 157.759 132.611 157.759 136.78L157.5 182.141C157.5 186.309 154.394 188.026 150.511 186.064L104.692 161.054C100.809 158.847 97.7031 153.698 97.7031 149.53L97.9619 104.168C97.9619 99.9999 101.068 98.2835 104.951 100.245L150.77 125.255Z" fill="#F3F8FE"/>
</g>
<path d="M157.495 182.146L157.753 136.785C157.753 132.862 155.165 128.203 151.541 125.996L98.9922 154.929C100.286 157.381 102.357 159.833 104.687 161.059L150.505 186.069C154.388 188.031 157.495 186.315 157.495 182.146Z" fill="url(#paint8_linear_294_71609)"/>
<path d="M119.701 108.342L108.57 114.472C107.534 114.962 106.758 116.433 106.758 117.414V141.443C106.758 142.424 107.534 142.915 108.57 142.424L145.328 122.318L119.701 108.342Z" fill="#1964BA"/>
<path d="M120.99 109.072L109.859 115.202C108.823 115.693 108.047 117.164 108.047 118.145V142.174C108.047 143.155 108.823 143.645 109.859 143.155L146.617 123.049L120.99 109.072Z" fill="#C9D9F4"/>
<path d="M116.058 114.719C116.576 114.474 116.835 114.719 116.835 115.21C116.835 115.7 116.576 116.19 116.058 116.436C115.54 116.681 115.281 116.436 115.281 115.945C115.54 115.7 115.799 114.964 116.058 114.719Z" fill="white"/>
<path opacity="0.8" d="M111.932 123.054C111.673 123.299 111.414 123.544 111.414 123.789V138.992C111.414 139.237 111.673 139.482 111.932 139.237L132.123 128.203C132.382 127.958 132.641 127.713 132.641 127.467V115.698L129.017 113.736L111.932 123.054Z" fill="white"/>
<path d="M111.152 117.415C111.67 117.169 111.929 117.415 111.929 117.905C111.929 118.395 111.67 118.886 111.152 119.131C110.634 119.376 110.375 119.131 110.375 118.641C110.634 118.395 110.893 117.66 111.152 117.415Z" fill="white"/>
<path d="M113.746 116.188C114.264 115.943 114.523 116.188 114.523 116.678C114.523 117.169 114.264 117.659 113.746 117.904C113.228 118.15 112.969 117.904 112.969 117.414C112.969 116.924 113.228 116.433 113.746 116.188Z" fill="white"/>
<path d="M122.823 123.445L114.54 127.858H114.281C114.281 127.858 114.281 127.613 114.54 127.613L122.823 123.199H123.082L122.823 123.445Z" fill="#6491FB"/>
<path d="M127.75 120.747L124.126 122.709H123.867C123.867 122.709 123.867 122.464 124.126 122.464L127.75 120.502H128.009C127.75 120.747 127.75 120.747 127.75 120.747Z" fill="#FF9999"/>
<path d="M122.831 124.575L118.431 127.027H118.172C118.172 127.027 118.172 126.782 118.431 126.782L122.831 124.33H123.09C123.09 124.575 122.831 124.575 122.831 124.575Z" fill="#FF9999"/>
<path d="M117.387 127.515L114.54 129.231H114.281C114.281 129.231 114.281 128.986 114.54 128.986L117.387 127.27H117.646C117.646 127.515 117.646 127.515 117.387 127.515Z" fill="#FF9999"/>
<path d="M127.75 122.122L124.126 124.084H123.867C123.867 124.084 123.867 123.839 124.126 123.839L127.75 121.877H128.009C127.75 121.877 127.75 121.877 127.75 122.122Z" fill="#A69CFB"/>
<path d="M119.959 122.718L114.782 125.66H114.523C114.523 125.66 114.523 125.415 114.782 125.415L119.959 122.473H120.218C119.959 122.473 119.959 122.718 119.959 122.718Z" fill="#6491FB"/>
<path d="M123.073 121.001L120.743 122.227H120.484C120.484 122.227 120.484 121.982 120.743 121.982L123.073 120.756H123.332C123.073 120.756 123.073 121.001 123.073 121.001Z" fill="#A69CFB"/>
<path d="M129.546 117.567L124.11 120.51H123.852C123.852 120.51 123.852 120.265 124.11 120.265L129.546 117.322H129.805C129.546 117.322 129.546 117.322 129.546 117.567Z" fill="#94F2B5"/>
<path d="M124.109 128.652L129.286 125.71L129.545 125.464C129.545 125.464 129.545 125.219 129.286 125.464L124.109 128.407C124.109 128.407 124.109 128.407 124.109 128.652Z" fill="#6491FB"/>
<path d="M120.998 130.369L123.327 129.143L123.586 128.898C123.586 128.898 123.586 128.653 123.327 128.898L120.998 130.124C120.998 130.124 120.739 130.124 120.998 130.369Z" fill="#94F2B5"/>
<path d="M114.523 134.045L119.959 131.102L120.218 130.857C120.218 130.857 120.218 130.612 119.959 130.857L114.523 133.799C114.523 133.554 114.523 133.8 114.523 134.045Z" fill="#FF9999"/>
<path d="M117.905 124.829L114.54 126.791H114.281C114.281 126.791 114.281 126.545 114.54 126.545L117.905 124.584H118.164C118.164 124.829 118.164 124.829 117.905 124.829Z" fill="#A69CFB"/>
<path d="M125.152 120.911L118.681 124.589H118.422C118.422 124.589 118.422 124.344 118.681 124.344L125.152 120.666H125.41C125.41 120.911 125.41 120.911 125.152 120.911Z" fill="#94F2B5"/>
<path d="M130.072 118.458L125.931 120.665H125.672C125.672 120.665 125.672 120.42 125.931 120.42L130.072 118.213H130.331C130.331 118.213 130.072 118.213 130.072 118.458Z" fill="#6491FB"/>
<path d="M126.696 128.089L130.061 126.127H130.32C130.32 126.127 130.32 126.372 130.061 126.372L126.696 128.334H126.438C126.438 128.334 126.437 128.089 126.696 128.089Z" fill="#94F2B5"/>
<path d="M119.454 132.01L125.925 128.332H126.184C126.184 128.332 126.184 128.577 125.925 128.577L119.454 132.255H119.195C119.195 132.255 119.195 132.255 119.454 132.01Z" fill="#FFC99C"/>
<path d="M114.54 134.707L118.681 132.5H118.94C118.94 132.5 118.94 132.745 118.681 132.745L114.54 134.952H114.281C114.54 134.952 114.54 134.707 114.54 134.707Z" fill="#A69CFB"/>
<path d="M122.823 128.208L114.54 132.622H114.281C114.281 132.622 114.281 132.376 114.54 132.376L122.823 127.963H123.082L122.823 128.208Z" fill="#FFC99C"/>
<path d="M127.75 125.517L124.126 127.478H123.867C123.867 127.478 123.867 127.233 124.126 127.233L127.75 125.271H128.009C127.75 125.271 127.75 125.517 127.75 125.517Z" fill="#FF9999"/>
<path d="M117.905 129.599L114.54 131.56H114.281C114.281 131.56 114.281 131.315 114.54 131.315L117.905 129.354H118.164C118.164 129.599 118.164 129.599 117.905 129.599Z" fill="#94F2B5"/>
<path d="M125.152 125.675L118.681 129.353H118.422C118.422 129.353 118.422 129.108 118.681 129.108L125.152 125.43H125.41C125.41 125.675 125.41 125.675 125.152 125.675Z" fill="#6491FB"/>
<path d="M130.072 122.978L125.931 125.184H125.672C125.672 125.184 125.672 124.939 125.931 124.939L130.072 122.732H130.331C130.331 122.978 130.072 122.978 130.072 122.978Z" fill="#94F2B5"/>
<path d="M117.387 128.872L114.54 130.343H114.281C114.281 130.343 114.281 130.098 114.54 130.098L117.387 128.627H117.646C117.387 128.627 117.387 128.872 117.387 128.872Z" fill="#A69CFB"/>
<path d="M123.335 125.685L117.899 128.627H117.641C117.641 128.627 117.641 128.382 117.899 128.382L123.335 125.439H123.594C123.594 125.439 123.335 125.44 123.335 125.685Z" fill="#FF9999"/>
<path d="M129.304 122.251L123.868 125.193H123.609C123.609 125.193 123.609 124.948 123.868 124.948L129.304 122.006H129.563C129.563 122.006 129.563 122.251 129.304 122.251Z" fill="#FFC99C"/>
<mask id="mask1_294_71609" style="mask-type:luminance" maskUnits="userSpaceOnUse" x="97" y="99" width="61" height="88">
<path d="M150.77 125.255C154.652 127.462 157.759 132.611 157.759 136.78L157.5 182.141C157.5 186.309 154.394 188.026 150.511 186.064L104.692 161.054C100.809 158.847 97.7031 153.698 97.7031 149.53L97.9619 104.168C97.9619 99.9999 101.068 98.2835 104.951 100.245L150.77 125.255Z" fill="white"/>
</mask>
<g mask="url(#mask1_294_71609)">
<path d="M101.587 100.496C102.364 100.496 103.14 100.741 104.176 101.231L149.994 126.241C153.359 128.203 156.465 132.862 156.465 136.785L156.207 182.146C156.207 182.882 155.948 185.579 153.618 185.579C152.841 185.579 152.065 185.334 151.029 184.843L105.211 159.833C101.846 157.872 98.7396 153.213 98.7396 149.29L98.9985 103.928C98.9985 103.193 99.2574 100.496 101.587 100.496ZM101.587 99.2695C99.2574 99.2695 97.7042 100.986 97.7042 103.928L97.4453 149.29C97.4453 153.458 100.552 158.607 104.435 160.814L150.253 185.824C151.288 186.56 152.583 186.805 153.359 186.805C155.689 186.805 157.242 185.089 157.242 182.146L157.501 136.785C157.501 132.616 154.395 127.467 150.512 125.26L104.693 100.25C103.658 99.5147 102.623 99.2695 101.587 99.2695Z" fill="url(#paint9_linear_294_71609)"/>
</g>
<path d="M162.694 129.186L154.669 133.599L145.609 128.695L143.797 129.676L152.857 134.58V138.503C152.857 138.748 152.857 139.239 152.857 139.484C152.857 139.729 152.598 139.974 152.598 140.22C152.598 140.465 152.339 140.465 152.339 140.71C152.08 140.955 151.822 141.2 151.563 141.446L153.375 140.465C153.634 140.22 153.892 139.974 154.151 139.729C154.151 139.729 154.151 139.484 154.41 139.484V139.239V138.994V138.748V138.503V138.258V138.013V137.768V135.806L162.435 131.392L162.694 129.186Z" fill="#28565D"/>
<path d="M108.093 99.2644L97.9976 104.659L88.9375 99.7548L98.7742 94.1152L108.093 99.2644Z" fill="#509AA6"/>
<path d="M162.695 129.182L152.858 134.577L143.539 129.673L153.635 124.033L162.695 129.182Z" fill="#509AA6"/>
<path d="M144.585 119.123L134.49 124.517L125.43 119.613L135.266 114.219L144.585 119.123Z" fill="#509AA6"/>
<path d="M153.64 124.029L143.544 129.669L134.484 124.52L144.58 119.125L153.64 124.029Z" fill="#EBC3AA"/>
<path d="M135.256 114.223L125.419 119.618L116.359 114.714L126.196 109.074L135.256 114.223Z" fill="#EBC3AA"/>
<path d="M126.186 109.074L116.349 114.713L107.289 109.564L117.126 104.17L126.186 109.074Z" fill="#509AA6"/>
<path d="M117.132 104.168L107.296 109.562L97.9766 104.658L108.072 99.2637L117.132 104.168Z" fill="#EBC3AA"/>
<path d="M107.295 109.578V113.501C107.295 116.198 105.224 117.424 102.636 115.953C100.047 114.482 97.9766 111.294 97.9766 108.597V104.674L107.295 109.578Z" fill="#F1935C"/>
<path d="M97.9899 104.672V108.595C97.9899 111.292 95.9193 112.518 93.3309 111.047C90.7425 109.575 88.6719 106.388 88.6719 103.691V99.7676L97.9899 104.672Z" fill="#28565D"/>
<path d="M134.482 124.773V128.696C134.482 131.393 132.412 132.619 129.823 131.148C127.235 129.677 125.164 126.489 125.164 123.792V119.869L134.482 124.773Z" fill="#28565D"/>
<path d="M125.404 119.621V123.544C125.404 126.241 123.333 127.467 120.745 125.996C118.157 124.525 116.086 121.337 116.086 118.64V114.717L125.404 119.621Z" fill="#F1935C"/>
<path d="M116.349 114.718V118.642C116.349 121.339 114.279 122.565 111.69 121.094C109.102 119.622 107.031 116.435 107.031 113.738V109.814L116.349 114.718Z" fill="#28565D"/>
<path d="M143.56 129.677V133.601C143.56 136.298 141.49 137.524 138.901 136.053C136.313 134.581 134.242 131.394 134.242 128.697V124.773L143.56 129.677Z" fill="#F1935C"/>
<path d="M152.865 134.584V138.507C152.865 141.204 150.794 142.43 148.206 140.959C145.618 139.488 143.547 136.3 143.547 133.603V129.68L152.865 134.584Z" fill="#28565D"/>
<path d="M239.558 108.9C240.032 108.672 240.743 108.672 240.981 108.672C241.455 108.9 241.692 109.356 241.692 110.04V137.169C241.692 138.309 240.744 139.904 239.558 140.588L198.54 163.386C197.355 164.07 196.406 163.614 196.406 162.246V135.117C196.406 133.977 197.355 132.381 198.54 131.697L239.558 108.9Z" fill="#D9641F"/>
<path d="M241.214 109.802C242.4 109.119 243.348 109.575 243.348 110.942V138.071C243.348 139.211 242.4 140.807 241.214 141.491L200.196 164.288C199.011 164.972 198.062 164.516 198.062 163.148V136.02C198.062 134.88 199.011 133.284 200.196 132.6L241.214 109.802Z" fill="#28565D"/>
<path opacity="0.3" d="M239.568 122.347C239.568 124.855 238.145 127.591 236.249 128.73C234.352 129.87 232.93 128.73 232.93 126.223C232.93 123.715 234.352 120.979 236.249 119.839C238.145 118.7 239.568 119.839 239.568 122.347ZM238.382 123.031C238.382 121.435 237.434 120.751 236.249 121.435C235.063 122.119 234.115 123.943 234.115 125.539C234.115 127.135 235.063 127.818 236.249 127.135C237.434 126.223 238.382 124.399 238.382 123.031Z" fill="#4D94A0"/>
<path opacity="0.3" d="M239.568 133.06C239.568 135.568 238.145 138.303 236.249 139.443C234.352 140.583 232.93 139.443 232.93 136.936C232.93 134.428 234.352 131.692 236.249 130.552C238.145 129.412 239.568 130.552 239.568 133.06ZM238.382 133.744C238.382 132.148 237.434 131.464 236.249 132.148C235.063 132.832 234.115 134.656 234.115 136.252C234.115 137.847 235.063 138.531 236.249 137.847C237.434 136.936 238.382 135.34 238.382 133.744Z" fill="#4D94A0"/>
<path opacity="0.8" d="M239.568 133.06C239.568 135.568 237.908 138.303 236.249 139.215C234.352 140.355 232.93 139.215 232.93 136.708C232.93 134.2 234.352 131.464 236.249 130.324V131.92C235.063 132.604 234.115 134.428 234.115 136.024C234.115 137.619 235.063 138.303 236.249 137.619C237.434 136.935 238.382 135.112 238.382 133.744L239.568 133.06Z" fill="white"/>
<path d="M234.115 125.311C234.115 126.907 235.063 127.59 236.249 126.906V128.502C234.352 129.642 232.93 128.502 232.93 125.995C232.93 123.487 234.352 120.751 236.249 119.611V121.207C235.063 122.119 234.115 123.715 234.115 125.311Z" fill="url(#paint10_linear_294_71609)"/>
<path d="M208.023 152.666L210.394 138.988C210.869 136.708 213.003 135.568 213.477 137.392C214.188 140.128 217.033 139.9 218.93 136.708L220.59 133.972C221.064 133.061 222.012 132.833 222.249 133.289L227.703 141.724L208.023 152.666Z" fill="url(#paint11_linear_294_71609)"/>
<path opacity="0.8" d="M229.369 140.815L204.711 154.493L206.608 147.882C207.319 145.83 209.216 144.463 209.927 145.83L210.401 146.742C210.875 147.654 212.061 146.742 212.535 145.602L215.855 134.888C216.566 132.836 218.463 131.696 219.174 133.064L221.545 137.623C222.019 138.535 223.205 137.851 223.679 136.711C224.39 134.66 226.287 133.748 226.998 135.344L229.369 140.815Z" fill="white"/>
<path fill-rule="evenodd" clip-rule="evenodd" d="M237.35 36.1641H107.078V74.5839H107.13C107.234 75.9111 108.185 77.2209 109.982 78.2342L165.307 109.433C169.122 111.584 175.306 111.584 179.121 109.433L234.446 78.2342C236.243 77.2209 237.194 75.9111 237.298 74.5839H237.35V36.1641Z" fill="url(#paint12_linear_294_71609)"/>
<path d="M165.337 1.59461C169.167 -0.531536 175.376 -0.531536 179.206 1.59461L234.545 32.3156C238.375 34.4415 238.375 37.8886 234.545 40.0148L179.206 70.7355C175.376 72.8616 169.167 72.8616 165.337 70.7355L109.997 40.0148C106.168 37.8886 106.168 34.4415 109.997 32.3156L165.337 1.59461Z" fill="url(#paint13_linear_294_71609)"/>
<path d="M165.237 10.7782C169.067 8.65206 175.277 8.65206 179.106 10.7782L219.083 32.971C222.913 35.0971 222.913 38.5439 219.083 40.6701L179.25 62.7832C175.42 64.909 169.21 64.909 165.381 62.7832L125.404 40.5904C121.574 38.4643 121.574 35.0171 125.404 32.8913L165.237 10.7782Z" fill="#D0E0FF"/>
<path fill-rule="evenodd" clip-rule="evenodd" d="M178.801 10.4755C174.972 8.34932 168.762 8.34932 164.933 10.4755L125.099 32.5886C121.995 34.3117 121.406 36.903 123.335 38.9551C123.785 38.4754 124.373 38.0253 125.099 37.6226L164.933 15.5095C168.762 13.3834 174.972 13.3834 178.801 15.5095L218.779 37.7023C219.504 38.105 220.092 38.5551 220.543 39.0348C222.471 36.9827 221.883 34.3913 218.779 32.6682L178.801 10.4755Z" fill="#A1C1FF"/>
<path d="M124.274 62.0985C123.95 61.2545 123.481 60.4914 122.867 59.8083C122.27 59.1157 121.562 58.5415 120.743 58.0857C119.327 57.2975 118.193 57.187 117.34 57.7547C116.487 58.3031 116.061 59.4396 116.061 61.1642C116.061 63.0025 116.505 64.6898 117.392 66.2261C118.295 67.7529 119.532 68.9531 121.101 69.8269C122.176 70.4251 123.08 70.6253 123.813 70.4272C124.564 70.2385 125.11 69.6706 125.451 68.7236L119.899 65.6321V62.0502L129.417 67.3499V71.8699C129.092 72.9021 128.538 73.7212 127.754 74.3268C126.986 74.9415 126.005 75.2388 124.811 75.2184C123.617 75.198 122.27 74.7698 120.769 73.9341C118.995 72.9466 117.408 71.6368 116.01 70.0052C114.628 68.3641 113.545 66.5578 112.761 64.5856C111.993 62.6232 111.609 60.6567 111.609 58.6857C111.609 56.7147 111.993 55.1752 112.761 54.0674C113.545 52.9504 114.628 52.3499 116.01 52.2664C117.392 52.1639 118.969 52.6066 120.743 53.5942C122.892 54.7908 124.7 56.3757 126.167 58.3484C127.651 60.3306 128.632 62.4781 129.11 64.7908L124.274 62.0985ZM147.907 88.9027L143.532 86.4665L136.215 70.0834V82.3925L131.84 79.9563V60.0002L136.215 62.4364L143.532 78.8764V66.5104L147.907 68.9466V88.9027ZM162.259 93.3688L155.556 89.6365L154.481 92.5631L149.902 90.0132L156.4 73.6753L161.466 76.4961L167.965 100.071L163.334 97.4923L162.259 93.3688ZM161.134 88.9895L158.908 80.4443L156.707 86.5252L161.134 88.9895Z" fill="#9FBEDF"/>
<path d="M118.459 61.998L116.766 63.0345L119.383 64.5151L121.385 63.6267L118.459 61.998Z" fill="#DA6420"/>
<path d="M127.729 64.6639L126.035 65.7003C125.419 64.8614 124.188 63.1241 124.188 62.8872C124.188 62.6503 124.906 62.3935 125.265 62.2949L127.729 64.6639Z" fill="#DA6420"/>
<path d="M134.795 82.2965L133.101 83.3267L132.859 81.2539L134.795 82.2965Z" fill="#DA6420"/>
<path d="M130.483 60.084L128.789 60.9723L130.483 62.0088L133.254 61.5646L130.483 60.084Z" fill="#DA6420"/>
<path d="M142.03 66.4453L140.336 67.3337L142.03 68.3701L144.801 67.9259L142.03 66.4453Z" fill="#DA6420"/>
<path d="M155.018 73.8438L153.266 74.6637L155.018 75.6205L157.885 75.2103L155.018 73.8438Z" fill="#DA6420"/>
<path d="M166.51 100.056L164.817 100.945L164.047 98.4277L166.51 100.056Z" fill="#DA6420"/>
<path d="M153.098 92.5076L151.25 93.3959L151.404 90.8789L153.098 92.5076Z" fill="#DA6420"/>
<path d="M146.486 88.8016L144.792 89.6899C144.69 88.9991 144.484 87.5875 144.484 87.469C144.484 87.3506 145.819 88.3079 146.486 88.8016Z" fill="#DA6420"/>
<path d="M122.907 62.0985C122.583 61.2545 122.114 60.4914 121.499 59.8083C120.903 59.1157 120.195 58.5415 119.376 58.0857C117.96 57.2975 116.826 57.187 115.973 57.7547C115.12 58.3031 114.694 59.4396 114.694 61.1642C114.694 63.0025 115.137 64.6898 116.024 66.2261C116.928 67.7529 118.165 68.9531 119.734 69.8269C120.809 70.4251 121.713 70.6253 122.446 70.4272C123.197 70.2385 123.742 69.6706 124.084 68.7236L118.532 65.6321V62.0502L128.049 67.3499V71.8699C127.725 72.9021 127.171 73.7212 126.386 74.3268C125.619 74.9415 124.638 75.2388 123.444 75.2184C122.25 75.198 120.903 74.7698 119.402 73.9341C117.628 72.9466 116.041 71.6368 114.643 70.0052C113.261 68.3641 112.178 66.5578 111.393 64.5856C110.626 62.6232 110.242 60.6567 110.242 58.6857C110.242 56.7147 110.626 55.1752 111.393 54.0674C112.178 52.9504 113.261 52.3499 114.643 52.2664C116.024 52.1639 117.602 52.6066 119.376 53.5942C121.525 54.7908 123.333 56.3757 124.8 58.3484C126.284 60.3306 127.265 62.4781 127.742 64.7908L122.907 62.0985ZM146.54 88.9027L142.165 86.4665L134.848 70.0834V82.3925L130.473 79.9563V60.0002L134.848 62.4364L142.165 78.8764V66.5104L146.54 68.9466V88.9027ZM160.892 93.3688L154.189 89.6365L153.114 92.5631L148.535 90.0132L155.033 73.6753L160.099 76.4961L166.597 100.071L161.967 97.4923L160.892 93.3688ZM159.766 88.9895L157.54 80.4443L155.34 86.5252L159.766 88.9895Z" fill="#DA6420"/>
<path d="M121.196 62.9852C120.872 62.1413 120.403 61.3782 119.789 60.695C119.192 60.0024 118.484 59.4282 117.665 58.9725C116.249 58.1842 115.115 58.0737 114.262 58.6414C113.409 59.1898 112.983 60.3263 112.983 62.0509C112.983 63.8892 113.426 65.5766 114.313 67.1128C115.217 68.6396 116.454 69.8398 118.023 70.7136C119.098 71.3118 120.002 71.512 120.735 71.3139C121.486 71.1252 122.031 70.5573 122.373 69.6103L116.821 66.5188V62.9369L126.338 68.2366V72.7566C126.014 73.7889 125.46 74.6079 124.675 75.2135C123.908 75.8282 122.927 76.1255 121.733 76.1051C120.539 76.0847 119.192 75.6565 117.691 74.8208C115.917 73.8333 114.33 72.5235 112.932 70.8919C111.55 69.2508 110.467 67.4445 109.682 65.4723C108.915 63.5099 108.531 61.5434 108.531 59.5724C108.531 57.6014 108.915 56.0619 109.682 54.9541C110.467 53.8372 111.55 53.2366 112.932 53.1531C114.313 53.0507 115.891 53.4934 117.665 54.4809C119.814 55.6775 121.622 57.2624 123.089 59.2351C124.573 61.2174 125.554 63.3648 126.031 65.6775L121.196 62.9852ZM144.829 89.7894L140.454 87.3532L133.137 70.9701V83.2792L128.762 80.843V60.8869L133.137 63.3231L140.454 79.7631V67.3971L144.829 69.8333V89.7894ZM159.181 94.2555L152.478 90.5232L151.403 93.4498L146.823 90.8999L153.322 74.562L158.388 77.3829L164.887 100.957L160.256 98.379L159.181 94.2555ZM158.055 89.8762L155.829 81.331L153.629 87.4119L158.055 89.8762Z" fill="#F1935C"/>
<path d="M172.508 48.9767L176.203 50.643L184.583 44.8521L189.446 54.4549L188.368 50.643L186.367 35.7994V29.877L172.508 48.9767Z" fill="#B2D7FF"/>
<path d="M189.305 51.6382V54.8955L187.766 49.7768L188.343 48.3809L189.305 51.6382Z" fill="#DA6420"/>
<path d="M146.492 36.8308V33.2773L151.727 35.5385L146.492 36.8308Z" fill="#DA6420"/>
<path d="M167.111 27.3613L146.492 36.6891L172.805 49.1262L182.624 39.2061L189.3 54.9005L186.528 30.0264L172.805 35.6527L167.111 27.3613Z" fill="#DA6420"/>
<path d="M167.111 24.1055L146.492 33.4333L172.805 45.8703L182.624 35.9503L189.3 51.6447L186.374 29.8798L172.805 32.3968L167.111 24.1055Z" fill="#F1935C"/>
<path d="M78.038 380.075H84.563V386H81.638L81.083 385.205C80.103 385.935 78.878 386.3 77.408 386.3C76.288 386.3 75.273 386.12 74.363 385.76C73.463 385.39 72.723 384.81 72.143 384.02C71.573 383.22 71.288 382.26 71.288 381.14V380.36C71.288 378.68 71.898 377.4 73.118 376.52C74.348 375.64 75.983 375.2 78.023 375.2C79.743 375.2 81.158 375.51 82.268 376.13C83.378 376.75 84.058 377.635 84.308 378.785L79.238 379.43C79.168 379.07 79.018 378.795 78.788 378.605C78.568 378.405 78.303 378.305 77.993 378.305C77.223 378.305 76.838 378.87 76.838 380V381.815C76.838 382.885 77.243 383.42 78.053 383.42C78.623 383.42 79.008 383.115 79.208 382.505H78.038V380.075ZM85.7363 386V375.5H91.0163L93.7763 378.845H93.8213V375.5H98.9513V386H93.8813L90.9113 382.52H90.8663V386H85.7363ZM109.208 386L108.923 384.95H105.218L104.918 386H99.4433L103.823 375.455H110.783L115.133 386H109.208ZM106.088 381.98H108.143L107.198 378.41H107.138L106.088 381.98ZM124.728 383H130.878V386H119.208V375.5H130.803V378.5H124.728V379.415H130.113V382.13H124.728V383ZM131.908 386V375.5H137.188L139.948 378.845H139.993V375.5H145.123V386H140.053L137.083 382.52H137.038V386H131.908ZM151.93 383H158.08V386H146.41V375.5H158.005V378.5H151.93V379.415H157.315V382.13H151.93V383ZM166.22 386L165.08 383.51H164.6V386H159.11V375.5H166.175C169.995 375.5 171.905 376.78 171.905 379.34V379.595C171.905 381.085 171.275 382.15 170.015 382.79L172.265 386H166.22ZM164.6 378.335V380.84H165.29C165.65 380.84 165.925 380.735 166.115 380.525C166.315 380.305 166.415 380.025 166.415 379.685V379.43C166.415 378.7 166.04 378.335 165.29 378.335H164.6ZM179.42 380.075H185.945V386H183.02L182.465 385.205C181.485 385.935 180.26 386.3 178.79 386.3C177.67 386.3 176.655 386.12 175.745 385.76C174.845 385.39 174.105 384.81 173.525 384.02C172.955 383.22 172.67 382.26 172.67 381.14V380.36C172.67 378.68 173.28 377.4 174.5 376.52C175.73 375.64 177.365 375.2 179.405 375.2C181.125 375.2 182.54 375.51 183.65 376.13C184.76 376.75 185.44 377.635 185.69 378.785L180.62 379.43C180.55 379.07 180.4 378.795 180.17 378.605C179.95 378.405 179.685 378.305 179.375 378.305C178.605 378.305 178.22 378.87 178.22 380V381.815C178.22 382.885 178.625 383.42 179.435 383.42C180.005 383.42 180.39 383.115 180.59 382.505H179.42V380.075ZM194.596 375.5H200.371L195.721 382.91V386H190.081V382.865L185.356 375.5H191.446L193.081 378.8L194.596 375.5ZM211.377 375.5C213.137 375.5 214.567 375.93 215.667 376.79C216.767 377.64 217.317 378.91 217.317 380.6V380.9C217.317 382.59 216.767 383.865 215.667 384.725C214.567 385.575 213.137 386 211.377 386H204.447V375.5H211.377ZM211.797 381.56V379.94C211.797 379.5 211.707 379.155 211.527 378.905C211.357 378.645 211.107 378.515 210.777 378.515H209.967V382.985H210.777C211.107 382.985 211.357 382.86 211.527 382.61C211.707 382.35 211.797 382 211.797 381.56ZM226.762 386L226.477 384.95H222.772L222.472 386H216.997L221.377 375.455H228.337L232.687 386H226.762ZM223.642 381.98H225.697L224.752 378.41H224.692L223.642 381.98ZM244.688 375.5V379.25H241.013V386H235.433V379.25H231.773V375.5H244.688ZM253.554 386L253.269 384.95H249.564L249.264 386H243.789L248.169 375.455H255.129L259.479 386H253.554ZM250.434 381.98H252.489L251.544 378.41H251.484L250.434 381.98ZM276.724 380.885C276.404 381.955 275.999 382.835 275.509 383.525L276.664 384.35L274.549 386.69L273.064 385.565C271.964 386.075 270.619 386.33 269.029 386.33C267.219 386.33 265.819 386.02 264.829 385.4C263.839 384.77 263.344 383.965 263.344 382.985C263.344 381.725 264.214 380.77 265.954 380.12C265.264 379.47 264.919 378.81 264.919 378.14C264.919 377.23 265.339 376.51 266.179 375.98C267.029 375.44 268.184 375.17 269.644 375.17C271.114 375.17 272.254 375.435 273.064 375.965C273.874 376.495 274.279 377.16 274.279 377.96C274.279 378.58 274.029 379.105 273.529 379.535C273.039 379.955 272.364 380.34 271.504 380.69L272.989 381.74C273.399 381.2 273.694 380.63 273.874 380.03L276.724 380.885ZM269.689 377.525C269.409 377.525 269.189 377.59 269.029 377.72C268.879 377.85 268.804 378.03 268.804 378.26C268.804 378.55 268.989 378.845 269.359 379.145C270.169 378.875 270.574 378.555 270.574 378.185C270.574 377.955 270.484 377.79 270.304 377.69C270.134 377.58 269.929 377.525 269.689 377.525ZM269.239 383.75C269.639 383.75 270.034 383.69 270.424 383.57L268.384 382.025C268.014 382.285 267.829 382.555 267.829 382.835C267.829 383.075 267.934 383.29 268.144 383.48C268.364 383.66 268.729 383.75 269.239 383.75ZM59.8284 406L59.5434 404.95H55.8384L55.5384 406H50.0634L54.4434 395.455H61.4034L65.7534 406H59.8284ZM56.7084 401.98H58.7634L57.8184 398.41H57.7584L56.7084 401.98ZM66.2539 406V395.5H71.5339L74.2939 398.845H74.3389V395.5H79.4689V406H74.3989L71.4289 402.52H71.3839V406H66.2539ZM89.7258 406L89.4408 404.95H85.7358L85.4358 406H79.9608L84.3408 395.455H91.3008L95.6508 406H89.7258ZM86.6058 401.98H88.6608L87.7158 398.41H87.6558L86.6058 401.98ZM101.731 402.13H107.761V406H96.1513V395.5H101.731V402.13ZM115.378 395.5H121.153L116.503 402.91V406H110.863V402.865L106.138 395.5H112.228L113.863 398.8L115.378 395.5ZM134.209 395.5V399.25H130.534V406H124.954V399.25H121.294V395.5H134.209ZM135.235 406V395.5H140.815V406H135.235ZM148.717 406.3C146.607 406.3 144.952 405.865 143.752 404.995C142.552 404.125 141.952 402.84 141.952 401.14V400.36C141.952 398.68 142.562 397.4 143.782 396.52C145.012 395.64 146.647 395.2 148.687 395.2C150.447 395.2 151.872 395.535 152.962 396.205C154.062 396.875 154.732 397.845 154.972 399.115L149.842 399.82C149.662 398.89 149.257 398.425 148.627 398.425C147.897 398.425 147.532 399.025 147.532 400.225V401.395C147.532 401.975 147.632 402.39 147.832 402.64C148.042 402.88 148.292 403 148.582 403C149.222 403 149.642 402.485 149.842 401.455L154.942 402.385C154.582 403.785 153.867 404.79 152.797 405.4C151.737 406 150.377 406.3 148.717 406.3ZM161.931 406.375C159.341 406.375 157.251 405.795 155.661 404.635L157.521 402.235C158.861 403.075 160.336 403.495 161.946 403.495C162.836 403.495 163.281 403.345 163.281 403.045V403.015C163.281 402.965 163.261 402.92 163.221 402.88C163.181 402.83 163.116 402.785 163.026 402.745C162.936 402.705 162.841 402.675 162.741 402.655C162.651 402.625 162.521 402.595 162.351 402.565C162.191 402.535 162.041 402.51 161.901 402.49C161.771 402.47 161.596 402.445 161.376 402.415C161.156 402.385 160.966 402.355 160.806 402.325C160.296 402.245 159.851 402.165 159.471 402.085C159.101 401.995 158.686 401.86 158.226 401.68C157.776 401.5 157.406 401.295 157.116 401.065C156.826 400.825 156.581 400.515 156.381 400.135C156.181 399.745 156.081 399.305 156.081 398.815V398.755C156.081 397.645 156.596 396.755 157.626 396.085C158.666 395.415 160.096 395.08 161.916 395.08C163.136 395.08 164.246 395.23 165.246 395.53C166.246 395.83 167.026 396.2 167.586 396.64L165.921 399.01C165.431 398.72 164.786 398.475 163.986 398.275C163.196 398.065 162.466 397.96 161.796 397.96C160.996 397.96 160.596 398.1 160.596 398.38V398.41C160.596 398.46 160.611 398.505 160.641 398.545C160.681 398.585 160.741 398.62 160.821 398.65C160.911 398.68 160.996 398.71 161.076 398.74C161.166 398.76 161.286 398.785 161.436 398.815C161.596 398.835 161.736 398.855 161.856 398.875C161.976 398.885 162.141 398.905 162.351 398.935C162.571 398.965 162.756 398.99 162.906 399.01C163.286 399.06 163.616 399.115 163.896 399.175C164.176 399.225 164.506 399.3 164.886 399.4C165.266 399.49 165.591 399.595 165.861 399.715C166.141 399.835 166.426 399.99 166.716 400.18C167.016 400.36 167.256 400.565 167.436 400.795C167.616 401.025 167.766 401.305 167.886 401.635C168.006 401.955 168.066 402.305 168.066 402.685V402.745C168.066 403.855 167.526 404.74 166.446 405.4C165.376 406.05 163.871 406.375 161.931 406.375ZM179.186 406.3C177.076 406.3 175.421 405.865 174.221 404.995C173.021 404.125 172.421 402.84 172.421 401.14V400.36C172.421 398.68 173.031 397.4 174.251 396.52C175.481 395.64 177.116 395.2 179.156 395.2C180.916 395.2 182.341 395.535 183.431 396.205C184.531 396.875 185.201 397.845 185.441 399.115L180.311 399.82C180.131 398.89 179.726 398.425 179.096 398.425C178.366 398.425 178.001 399.025 178.001 400.225V401.395C178.001 401.975 178.101 402.39 178.301 402.64C178.511 402.88 178.761 403 179.051 403C179.691 403 180.111 402.485 180.311 401.455L185.411 402.385C185.051 403.785 184.336 404.79 183.266 405.4C182.206 406 180.846 406.3 179.186 406.3ZM194.975 406L194.69 404.95H190.985L190.685 406H185.21L189.59 395.455H196.55L200.9 406H194.975ZM191.855 401.98H193.91L192.965 398.41H192.905L191.855 401.98ZM208.465 395.5C212.285 395.5 214.195 396.82 214.195 399.46V399.715C214.195 400.375 214.085 400.965 213.865 401.485C213.645 401.995 213.35 402.41 212.98 402.73C212.62 403.04 212.185 403.3 211.675 403.51C211.175 403.71 210.665 403.85 210.145 403.93C209.625 404 209.065 404.035 208.465 404.035H206.89V406H201.4V395.5H208.465ZM208.705 399.865V399.67C208.705 398.84 208.34 398.425 207.61 398.425H206.89V401.2H207.61C208.34 401.2 208.705 400.755 208.705 399.865ZM223.056 406L222.771 404.95H219.066L218.766 406H213.291L217.671 395.455H224.631L228.981 406H223.056ZM219.936 401.98H221.991L221.046 398.41H220.986L219.936 401.98ZM240.326 400.705C241.016 400.875 241.561 401.165 241.961 401.575C242.361 401.975 242.561 402.475 242.561 403.075V403.27C242.561 405.09 241.091 406 238.151 406H229.481V395.5H237.851C238.381 395.5 238.886 395.545 239.366 395.635C239.856 395.715 240.326 395.85 240.776 396.04C241.226 396.22 241.586 396.495 241.856 396.865C242.126 397.225 242.261 397.655 242.261 398.155V398.35C242.261 398.92 242.086 399.405 241.736 399.805C241.386 400.195 240.916 400.495 240.326 400.705ZM237.011 398.83C237.011 398.62 236.931 398.45 236.771 398.32C236.611 398.19 236.416 398.125 236.186 398.125H234.926V399.7H236.186C236.426 399.7 236.621 399.64 236.771 399.52C236.931 399.39 237.011 399.21 237.011 398.98V398.83ZM237.161 402.685V402.52C237.161 402.06 236.866 401.83 236.276 401.83H234.926V403.42L236.276 403.405C236.526 403.405 236.736 403.34 236.906 403.21C237.076 403.08 237.161 402.905 237.161 402.685ZM243.575 406V395.5H249.155V406H243.575ZM256.082 402.13H262.112V406H250.502V395.5H256.082V402.13ZM263.277 406V395.5H268.857V406H263.277ZM282.759 395.5V399.25H279.084V406H273.504V399.25H269.844V395.5H282.759ZM292.155 395.5H297.93L293.28 402.91V406H287.64V402.865L282.915 395.5H289.005L290.64 398.8L292.155 395.5ZM97.0154 426.3C94.9054 426.3 93.2504 425.865 92.0504 424.995C90.8504 424.125 90.2504 422.84 90.2504 421.14V420.36C90.2504 418.68 90.8604 417.4 92.0804 416.52C93.3104 415.64 94.9454 415.2 96.9854 415.2C98.7454 415.2 100.17 415.535 101.26 416.205C102.36 416.875 103.03 417.845 103.27 419.115L98.1404 419.82C97.9604 418.89 97.5554 418.425 96.9254 418.425C96.1954 418.425 95.8304 419.025 95.8304 420.225V421.395C95.8304 421.975 95.9304 422.39 96.1304 422.64C96.3404 422.88 96.5904 423 96.8804 423C97.5204 423 97.9404 422.485 98.1404 421.455L103.24 422.385C102.88 423.785 102.165 424.79 101.095 425.4C100.035 426 98.6754 426.3 97.0154 426.3ZM109.779 423H115.929V426H104.259V415.5H115.854V418.5H109.779V419.415H115.164V422.13H109.779V423ZM116.959 426V415.5H122.239L124.999 418.845H125.044V415.5H130.174V426H125.104L122.134 422.52H122.089V426H116.959ZM144.016 415.5V419.25H140.341V426H134.761V419.25H131.101V415.5H144.016ZM152.077 426L150.937 423.51H150.457V426H144.967V415.5H152.032C155.852 415.5 157.762 416.78 157.762 419.34V419.595C157.762 421.085 157.132 422.15 155.872 422.79L158.122 426H152.077ZM150.457 418.335V420.84H151.147C151.507 420.84 151.782 420.735 151.972 420.525C152.172 420.305 152.272 420.025 152.272 419.685V419.43C152.272 418.7 151.897 418.335 151.147 418.335H150.457ZM164.594 423H170.744V426H159.074V415.5H170.669V418.5H164.594V419.415H169.979V422.13H164.594V423ZM175.453 428.85V414.3H181.063V416.97H179.113V426.18H181.063V428.85H175.453ZM188.524 420.075H195.049V426H192.124L191.569 425.205C190.589 425.935 189.364 426.3 187.894 426.3C186.774 426.3 185.759 426.12 184.849 425.76C183.949 425.39 183.209 424.81 182.629 424.02C182.059 423.22 181.774 422.26 181.774 421.14V420.36C181.774 418.68 182.384 417.4 183.604 416.52C184.834 415.64 186.469 415.2 188.509 415.2C190.229 415.2 191.644 415.51 192.754 416.13C193.864 416.75 194.544 417.635 194.794 418.785L189.724 419.43C189.654 419.07 189.504 418.795 189.274 418.605C189.054 418.405 188.789 418.305 188.479 418.305C187.709 418.305 187.324 418.87 187.324 420V421.815C187.324 422.885 187.729 423.42 188.539 423.42C189.109 423.42 189.494 423.115 189.694 422.505H188.524V420.075ZM203.152 415.5C204.912 415.5 206.342 415.93 207.442 416.79C208.542 417.64 209.092 418.91 209.092 420.6V420.9C209.092 422.59 208.542 423.865 207.442 424.725C206.342 425.575 204.912 426 203.152 426H196.222V415.5H203.152ZM203.572 421.56V419.94C203.572 419.5 203.482 419.155 203.302 418.905C203.132 418.645 202.882 418.515 202.552 418.515H201.742V422.985H202.552C202.882 422.985 203.132 422.86 203.302 422.61C203.482 422.35 203.572 422 203.572 421.56ZM218.537 426L218.252 424.95H214.547L214.247 426H208.772L213.152 415.455H220.112L224.462 426H218.537ZM215.417 421.98H217.472L216.527 418.41H216.467L215.417 421.98ZM230.858 426.3C228.748 426.3 227.093 425.865 225.893 424.995C224.693 424.125 224.093 422.84 224.093 421.14V420.36C224.093 418.68 224.703 417.4 225.923 416.52C227.153 415.64 228.788 415.2 230.828 415.2C232.588 415.2 234.013 415.535 235.103 416.205C236.203 416.875 236.873 417.845 237.113 419.115L231.983 419.82C231.803 418.89 231.398 418.425 230.768 418.425C230.038 418.425 229.673 419.025 229.673 420.225V421.395C229.673 421.975 229.773 422.39 229.973 422.64C230.183 422.88 230.433 423 230.723 423C231.363 423 231.783 422.485 231.983 421.455L237.083 422.385C236.723 423.785 236.008 424.79 234.938 425.4C233.878 426 232.518 426.3 230.858 426.3ZM244.657 426.3C242.547 426.3 240.892 425.865 239.692 424.995C238.492 424.125 237.892 422.84 237.892 421.14V420.36C237.892 418.68 238.502 417.4 239.722 416.52C240.952 415.64 242.587 415.2 244.627 415.2C246.387 415.2 247.812 415.535 248.902 416.205C250.002 416.875 250.672 417.845 250.912 419.115L245.782 419.82C245.602 418.89 245.197 418.425 244.567 418.425C243.837 418.425 243.472 419.025 243.472 420.225V421.395C243.472 421.975 243.572 422.39 243.772 422.64C243.982 422.88 244.232 423 244.522 423C245.162 423 245.582 422.485 245.782 421.455L250.882 422.385C250.522 423.785 249.807 424.79 248.737 425.4C247.677 426 246.317 426.3 244.657 426.3ZM257.436 428.85H251.826V426.18H253.776V416.97H251.826V414.3H257.436V428.85Z" fill="#39C0EA"/>
<defs>
<filter id="filter0_f_294_71609" x="0.768974" y="89.6382" width="350.217" height="298.059" filterUnits="userSpaceOnUse" color-interpolation-filters="sRGB">
<feFlood flood-opacity="0" result="BackgroundImageFix"/>
<feBlend mode="normal" in="SourceGraphic" in2="BackgroundImageFix" result="shape"/>
<feGaussianBlur stdDeviation="37.2456" result="effect1_foregroundBlur_294_71609"/>
</filter>
<linearGradient id="paint0_linear_294_71609" x1="30.9238" y1="277.639" x2="317.652" y2="277.639" gradientUnits="userSpaceOnUse">
<stop stop-color="#A1C1FF"/>
<stop offset="1" stop-color="white"/>
</linearGradient>
<linearGradient id="paint1_linear_294_71609" x1="78.6561" y1="218.67" x2="269.916" y2="218.67" gradientUnits="userSpaceOnUse">
<stop offset="0.3375" stop-color="#97B5E1"/>
<stop offset="0.5932" stop-color="#E8F1FF"/>
</linearGradient>
<linearGradient id="paint2_linear_294_71609" x1="269.165" y1="164.719" x2="79.5221" y2="146.695" gradientUnits="userSpaceOnUse">
<stop stop-color="white"/>
<stop offset="1" stop-color="#C9D9F4"/>
</linearGradient>
<linearGradient id="paint3_linear_294_71609" x1="97.8515" y1="195.248" x2="94.6812" y2="189.5" gradientUnits="userSpaceOnUse">
<stop stop-color="#103DB5"/>
<stop offset="0.6426" stop-color="#6BABFD"/>
</linearGradient>
<linearGradient id="paint4_linear_294_71609" x1="107.876" y1="200.741" x2="104.706" y2="194.993" gradientUnits="userSpaceOnUse">
<stop stop-color="#103DB5"/>
<stop offset="0.6426" stop-color="#6BABFD"/>
</linearGradient>
<linearGradient id="paint5_linear_294_71609" x1="118.268" y1="217.688" x2="104.654" y2="237.686" gradientUnits="userSpaceOnUse">
<stop stop-color="#F1935C" stop-opacity="0.6"/>
<stop offset="1" stop-color="#FFE4D4" stop-opacity="0"/>
</linearGradient>
<linearGradient id="paint6_linear_294_71609" x1="91.5515" y1="136.653" x2="253.236" y2="136.653" gradientUnits="userSpaceOnUse">
<stop offset="0.3375" stop-color="#97B5E1"/>
<stop offset="0.5932" stop-color="#E8F1FF"/>
</linearGradient>
<linearGradient id="paint7_linear_294_71609" x1="252.61" y1="80.6388" x2="92.3167" y2="65.2771" gradientUnits="userSpaceOnUse">
<stop stop-color="white"/>
<stop offset="1" stop-color="#C9D9F4"/>
</linearGradient>
<linearGradient id="paint8_linear_294_71609" x1="150.839" y1="123.306" x2="122.451" y2="187.83" gradientUnits="userSpaceOnUse">
<stop stop-color="#97B5E1"/>
<stop offset="1" stop-color="#E8F1FF"/>
</linearGradient>
<linearGradient id="paint9_linear_294_71609" x1="154.547" y1="128.381" x2="102.278" y2="160.239" gradientUnits="userSpaceOnUse">
<stop stop-color="white"/>
<stop offset="1" stop-color="white" stop-opacity="0.2"/>
</linearGradient>
<linearGradient id="paint10_linear_294_71609" x1="230.26" y1="131.541" x2="235.665" y2="123.936" gradientUnits="userSpaceOnUse">
<stop stop-color="#F1935C"/>
<stop offset="1" stop-color="#EBC3AA"/>
</linearGradient>
<linearGradient id="paint11_linear_294_71609" x1="203.517" y1="161.508" x2="220.751" y2="135.557" gradientUnits="userSpaceOnUse">
<stop stop-color="#F1935C"/>
<stop offset="1" stop-color="white"/>
</linearGradient>
<linearGradient id="paint12_linear_294_71609" x1="237.35" y1="76.0678" x2="81.9821" y2="73.3453" gradientUnits="userSpaceOnUse">
<stop stop-color="#A1C1FF"/>
<stop offset="0.997298" stop-color="#CFE0FF"/>
</linearGradient>
<linearGradient id="paint13_linear_294_71609" x1="238.57" y1="36.2407" x2="145.99" y2="91.8311" gradientUnits="userSpaceOnUse">
<stop stop-color="#25535B"/>
<stop offset="0.51163" stop-color="#34656D"/>
</linearGradient>
</defs>
</svg>
