<svg width="150" height="180" viewBox="0 0 150 180" fill="none" xmlns="http://www.w3.org/2000/svg">
<path fill-rule="evenodd" clip-rule="evenodd" d="M72.0097 101.571C73.6611 100.701 76.3388 100.701 77.9902 101.571L144.023 136.385L149.97 133.25V140.192C150.119 140.848 149.717 141.532 148.761 142.036L77.9902 179.347C76.3388 180.218 73.6611 180.218 72.0097 179.347L1.23866 142.036C0.138611 141.456 -0.228724 140.636 0.136647 139.895V133.137L6.13637 136.301L72.0097 101.571Z" fill="#A1C1FF"/>
<path d="M72.0099 94.7215C73.6612 93.8506 76.339 93.8506 77.9903 94.7215L148.761 132.033C150.413 132.904 150.413 134.315 148.761 135.186L77.9903 172.497C76.339 173.368 73.6612 173.368 72.0099 172.497L1.23866 135.186C-0.412883 134.315 -0.412888 132.904 1.23865 132.033L72.0099 94.7215Z" fill="#DFECFE"/>
<path d="M116.124 129.52C121.766 132.627 121.766 137.491 116.268 140.598L85.595 157.215C79.9523 160.322 70.8372 160.322 65.0498 157.215L34.232 140.598C28.5893 137.491 28.5893 132.627 34.232 129.52L64.9052 112.903C70.5479 109.796 79.663 109.796 85.3057 112.903L116.124 129.52Z" fill="#BCD0F1"/>
<path d="M120.469 118.577H30.0413V135.059C30.0413 137.085 31.4881 139.112 34.3818 140.598L65.1996 157.215C70.8423 160.322 80.1021 160.322 85.7448 157.215L116.418 140.598C119.167 139.112 120.614 137.085 120.614 135.059V118.577H120.469Z" fill="url(#paint0_linear_461_21414)"/>
<path d="M116.124 113.038C121.766 116.145 121.766 121.009 116.268 124.116L85.595 140.733C79.9523 143.84 70.8372 143.84 65.0498 140.733L34.232 124.116C28.5893 121.009 28.5893 116.145 34.232 113.038L64.9052 96.4212C70.5479 93.314 79.663 93.314 85.3057 96.4212L116.124 113.038Z" fill="#FFE4D4"/>
<path d="M75.0331 94.125V94.8005C78.7949 94.8005 82.2673 95.6111 84.8716 96.962L115.689 113.579C118.149 114.93 119.596 116.686 119.596 118.578C119.596 120.469 118.294 122.225 115.689 123.441L85.161 140.193C82.5567 141.679 79.0842 142.355 75.3224 142.355C71.5606 142.355 68.0882 141.544 65.4839 140.193L34.6661 123.576C32.2064 122.225 30.7596 120.469 30.7596 118.578C30.7596 116.686 32.0617 114.93 34.6661 113.579L65.3392 96.962C67.9435 95.476 71.4159 94.8005 75.1777 94.8005V94.125M75.0331 94.125C71.2713 94.125 67.6542 94.9356 64.7605 96.4217L34.232 113.039C28.5893 116.146 28.5893 121.009 34.232 124.117L65.0498 140.733C67.9435 142.219 71.5606 143.03 75.3224 143.03C79.0842 143.03 82.7014 142.219 85.595 140.733L116.268 124.117C121.911 121.009 121.911 116.146 116.124 113.039L85.3057 96.4217C82.5567 94.9356 78.7949 94.125 75.0331 94.125Z" fill="url(#paint1_linear_461_21414)"/>
<g opacity="0.5">
<path d="M75.1796 100.34C78.0733 100.34 80.6776 100.88 82.7032 102.096L105.997 114.66C108.023 115.741 109.036 117.092 109.036 118.578C109.036 120.064 108.023 121.415 105.997 122.496L82.8479 135.06C80.8223 136.141 78.218 136.816 75.3243 136.816C72.4306 136.816 69.8263 136.276 67.8007 135.06L44.5065 122.496C42.4809 121.415 41.4681 120.064 41.4681 118.578C41.4681 117.092 42.4809 115.741 44.5065 114.66L67.656 102.096C69.6816 101.016 72.2859 100.34 75.1796 100.34ZM75.1796 100.07C72.4306 100.07 69.5369 100.61 67.5113 101.826L44.3618 114.39C40.0212 116.687 40.1659 120.469 44.3618 122.766L67.656 135.33C69.8263 136.546 72.5753 137.086 75.469 137.086C78.218 137.086 81.1117 136.546 83.2819 135.33L106.431 122.766C110.627 120.469 110.627 116.687 106.431 114.39L83.1372 101.826C80.6776 100.61 77.9286 100.07 75.1796 100.07Z" fill="url(#paint2_linear_461_21414)"/>
</g>
<path d="M88.6346 144.245C87.9111 144.651 87.4771 145.461 87.4771 146.272V150.054C87.4771 150.73 88.0558 151.135 88.7792 150.73L112.073 138.166C112.797 137.761 113.231 136.95 113.231 136.139V132.357C113.231 131.681 112.652 131.276 111.929 131.681L88.6346 144.245Z" fill="#509AA6"/>
<path d="M87.62 149.92L110.914 137.356C111.638 136.95 112.072 136.14 112.072 135.329V131.546C112.65 131.276 113.229 131.546 113.229 132.222V136.005C113.229 136.68 112.65 137.626 112.072 138.031L88.7775 150.595C88.0541 151 87.4753 150.73 87.62 149.92C87.4753 149.92 87.4753 149.92 87.62 149.92Z" fill="#F1935C"/>
<path d="M39.443 138.436L40.4558 137.896C40.6005 137.761 40.7452 137.49 40.7452 137.22C40.7452 136.545 40.1665 135.734 39.5877 135.329C39.2983 135.194 39.009 135.194 38.7196 135.194L37.7068 135.734L39.443 138.436Z" fill="url(#paint3_linear_461_21414)"/>
<path d="M39.3126 138.423C39.7285 138.201 39.7112 137.443 39.2739 136.731C38.8366 136.019 38.1449 135.623 37.7291 135.845C37.3132 136.068 37.3306 136.826 37.7679 137.538C38.2051 138.249 38.8968 138.646 39.3126 138.423Z" fill="#D9641F"/>
<path d="M39.0234 137.954C39.3006 137.806 39.2998 137.318 39.0215 136.865C38.7432 136.412 38.2929 136.165 38.0157 136.314C37.7384 136.462 37.7393 136.95 38.0175 137.403C38.2958 137.856 38.7461 138.103 39.0234 137.954Z" fill="#509AA6"/>
<path d="M44.2132 141.003L45.226 140.462C45.3707 140.327 45.5154 140.057 45.5154 139.787C45.5154 139.111 44.9367 138.301 44.3579 137.895C44.0686 137.76 43.7792 137.76 43.4898 137.76L42.4771 138.301L44.2132 141.003Z" fill="url(#paint4_linear_461_21414)"/>
<path d="M44.0965 140.974C44.5124 140.751 44.4951 139.994 44.0578 139.282C43.6205 138.57 42.9288 138.173 42.513 138.396C42.0971 138.619 42.1145 139.376 42.5518 140.088C42.9891 140.8 43.6807 141.197 44.0965 140.974Z" fill="#D9641F"/>
<path d="M43.8076 140.503C44.0848 140.355 44.084 139.867 43.8057 139.414C43.5275 138.961 43.0771 138.714 42.7998 138.863C42.5226 139.011 42.5234 139.499 42.8017 139.952C43.08 140.405 43.5303 140.652 43.8076 140.503Z" fill="#EBC3AA"/>
<path d="M119.064 99.0864H30.2896V115.181C30.2896 117.16 31.7122 119.138 34.5576 120.589L64.7182 136.816C70.2666 139.85 79.3717 139.85 84.9202 136.816L115.081 120.589C117.784 119.138 119.207 117.16 119.207 115.181V99.0864H119.064Z" fill="url(#paint5_linear_461_21414)"/>
<path d="M102.852 95.3921C106.693 97.5028 106.836 100.933 102.852 102.912L81.7966 114.257C77.9554 116.367 71.5534 116.367 67.7121 114.257L46.5143 102.912C42.6731 100.801 42.5309 97.5028 46.5143 95.3921L67.5699 84.0469C71.4111 81.9362 77.8131 81.9362 81.6543 84.0469L102.852 95.3921Z" fill="url(#paint6_linear_461_21414)"/>
<path d="M122.34 92.754C128.884 96.3159 129.026 101.988 122.482 105.55L86.7728 124.811C80.2285 128.373 69.5584 128.373 62.8719 124.811L27.0206 105.55C20.4763 101.988 20.334 96.3159 27.0206 92.754L62.7296 73.4937C69.2739 69.9318 79.944 69.9318 86.6305 73.4937L122.34 92.754Z" stroke="#28565D" stroke-width="0.5" stroke-miterlimit="10"/>
<path d="M102.852 98.0302C106.693 100.141 106.836 103.571 102.852 105.55L81.7966 116.895C77.9554 119.006 71.5534 119.006 67.7121 116.895L46.5143 105.55C42.6731 103.439 42.5309 100.141 46.5143 98.0302L67.5699 86.6851C71.4111 84.5744 77.8131 84.5744 81.6543 86.6851L102.852 98.0302Z" fill="#9DF0FC"/>
<path d="M114.94 93.809L84.6368 77.5828C79.0883 74.5486 69.9832 74.5486 64.5771 77.5828L34.4164 93.809C28.868 96.8431 28.868 101.592 34.4164 104.626L64.7194 120.721C70.2678 123.755 79.3729 123.755 84.9213 120.721L115.082 104.495C120.488 101.592 120.488 96.7112 114.94 93.809ZM102.847 102.911L81.7914 114.257C77.9502 116.367 71.5482 116.367 67.707 114.257L46.5092 102.911C42.6679 100.801 42.5257 97.5027 46.5092 95.392L67.5647 84.0469C71.4059 81.9361 77.8079 81.9361 81.6491 84.0469L102.847 95.392C106.688 97.5027 106.688 100.801 102.847 102.911Z" fill="#A6C4FE"/>
<path d="M74.5333 75.3398V75.9994C78.2322 75.9994 81.6466 76.791 84.2075 78.1102L114.51 94.3364C116.929 95.6556 118.352 97.3706 118.352 99.2174C118.352 101.064 117.071 102.779 114.51 103.967L84.3497 120.193C81.7889 121.644 78.3745 122.304 74.6756 122.304C70.9766 122.304 67.5622 121.512 65.0014 120.193L34.8407 103.967C32.4222 102.647 30.9995 100.932 30.9995 99.0855C30.9995 97.2386 32.2799 95.5237 34.8407 94.2045L65.0014 77.9783C67.5622 76.5271 70.9766 75.8675 74.6756 75.8675V75.3398M74.5333 75.3398C70.8343 75.3398 67.2777 76.1314 64.4323 77.5825L34.2717 93.8087C28.7232 96.8429 28.7232 101.592 34.2717 104.626L64.7168 120.72C67.5622 122.172 71.1189 122.963 74.8178 122.963C78.5168 122.963 82.0734 122.172 84.9188 120.72L115.079 104.494C120.628 101.46 120.628 96.711 114.937 93.6768L84.6343 77.5825C81.7889 75.9994 78.2322 75.3398 74.5333 75.3398Z" fill="url(#paint7_linear_461_21414)"/>
<path d="M90.0477 70.46C90.2834 70.46 90.4745 70.2828 90.4745 70.0642C90.4745 69.8456 90.2834 69.6685 90.0477 69.6685C89.8119 69.6685 89.6208 69.8456 89.6208 70.0642C89.6208 70.2828 89.8119 70.46 90.0477 70.46Z" fill="white"/>
<path d="M53.4852 70.8555C53.7209 70.8555 53.912 70.6783 53.912 70.4597C53.912 70.2412 53.7209 70.064 53.4852 70.064C53.2494 70.064 53.0583 70.2412 53.0583 70.4597C53.0583 70.6783 53.2494 70.8555 53.4852 70.8555Z" fill="white"/>
<path d="M67.8043 64.8186C66.9267 64.097 65.9642 65.0098 65.1958 65.3414C64.0279 65.8463 63.322 66.29 62.0868 67.0545C61.43 66.4954 60.4255 65.7781 59.4441 64.5071C59.0558 64.0038 58.3641 63.5443 57.3455 63.9512C56.9342 64.1154 56.4066 64.5818 56.4514 65.3414C56.4839 65.8853 56.9176 66.0457 57.4228 66.7159C57.928 67.3861 58.4225 68.1071 59.1331 68.7464C60.2957 69.7926 60.8965 70.0705 61.3486 70.3728C61.9181 70.7542 63.4212 70.122 64.392 69.9448C65.9471 69.6609 67.21 69.9996 68.2393 68.5314C68.9575 67.5069 68.7409 65.589 67.8043 64.8186Z" fill="#D4E4FE"/>
<path d="M57.9089 64.0217C57.3872 63.1749 56.9547 62.3444 56.7139 61.3865C56.6802 61.2522 56.4695 61.2327 56.3975 61.3486C56.1821 61.6937 56.1249 62.0063 56.2093 62.3449C55.3695 62.1033 54.8425 61.6747 54.0275 61.3708C53.694 61.2462 53.0667 61.3296 52.7238 61.4997C52.064 61.8264 52.0699 62.4273 52.5432 62.9793C52.8784 63.3705 53.7477 63.5726 54.2281 63.6733C55.2998 63.8982 55.7082 64.2839 56.6153 64.8598C57.2568 65.1079 57.9142 64.4275 57.9089 64.0217Z" fill="#FFC9B6"/>
<path d="M57.6935 63.6665C57.6935 63.6665 57.8074 64.1341 57.108 64.5539C56.6855 64.8075 56.2417 64.6189 56.2417 64.6189C56.2417 64.6189 56.4471 65.0859 56.6412 65.2745C56.8354 65.463 57.4964 65.6391 58.0499 65.1152C58.6035 64.5913 58.332 64.322 58.2052 64.0983C58.0795 63.8756 57.6935 63.6665 57.6935 63.6665Z" fill="#F4EBEA"/>
<path d="M64.2597 75.7026C64.2597 75.7026 62.5524 79.7004 62.288 81.3181C62.0236 82.9358 61.4925 85.3852 61.1738 87.4233C60.8557 89.4615 60.8592 91.4476 61.0079 93.438C61.067 94.228 61.3809 96.2932 61.2151 97.4146C61.4016 98.1439 63.2641 98.2349 63.4849 97.3876C63.6218 96.8615 65.0511 92.2061 65.1963 90.7417C65.3409 89.2773 64.9638 88.2273 64.9638 88.2273C64.9638 88.2273 67.289 83.6569 68.1046 81.8588C68.9202 80.0606 68.3655 77.8323 68.3655 77.8323L64.2597 75.7026Z" fill="#333333"/>
<path d="M63.4544 97.1915C63.4544 97.1915 63.517 97.6737 63.681 98.1776C63.8451 98.6814 63.6432 99.3841 63.6432 99.3841C63.6432 99.3841 63.5246 99.694 63.0159 99.7855C62.542 99.8711 62.159 99.7666 62.159 99.7666C62.159 99.7666 61.6928 100.283 61.0843 100.679C60.4753 101.074 59.1321 101.382 58.7668 101.331C58.1772 101.248 57.8615 100.826 57.9069 100.554C57.9523 100.282 58.647 99.5287 59.2165 99.2026C59.5871 98.9902 60.4287 98.2734 60.6807 98.0242C61.0985 97.6114 61.4071 97.1558 61.4071 97.1558L63.4544 97.1915Z" fill="#A55C6D"/>
<path d="M72.2188 101.293C72.2188 101.293 72.5339 102.367 72.4944 102.988C72.4549 103.609 72.2938 103.757 72.089 103.967C71.8842 104.176 71.6446 104.086 71.6446 104.086C71.6446 104.086 71.5502 105.367 70.8886 105.884C70.227 106.402 69.0272 106.451 68.476 106.263C67.9254 106.075 68.2872 105.158 68.8266 104.258C69.366 103.359 70.0535 102.391 70.2252 101.578C71.5448 101.412 72.2188 101.293 72.2188 101.293Z" fill="#A55C6D"/>
<path d="M70.3833 77.3585C70.3833 77.3585 71.2195 78.4437 71.8852 80.3529C72.3532 81.6949 72.2777 84.9141 72.2777 84.9141C72.2777 84.9141 72.3981 88.0834 72.175 89.18C71.9525 90.276 71.9714 90.4981 71.9714 90.4981C71.9714 90.4981 72.9298 93.1251 72.7817 96.2327C72.6336 99.3403 72.358 101.569 72.358 101.569C72.358 101.569 72.1691 102.157 71.2998 102.238C70.5078 102.312 69.93 101.808 69.93 101.808C69.93 101.808 68.4777 95.2294 67.94 93.7298C67.4024 92.2301 67.2041 90.5019 67.2041 90.5019L66.1052 83.1148C66.1052 83.1148 63.9299 81.8114 65.0447 78.5244C65.7429 76.4646 70.3833 77.3585 70.3833 77.3585Z" fill="#444444"/>
<path d="M72.8602 68.9599C71.7825 66.9922 68.8801 65.5738 66.5508 65.8826C65.4348 66.6985 64.9184 67.2441 64.5159 68.222C64.1518 69.1067 63.9966 70.1529 64.1134 71.0771C64.4652 73.8542 63.7469 76.5571 63.4861 77.6158C64.3241 79.0682 65.8821 79.7308 67.6921 80.0191C68.6748 80.1756 71.0862 79.6154 71.3458 79.0412C71.671 76.7971 72.2145 74.9578 73.0614 72.8595C73.5147 71.7375 73.4751 70.0835 72.8602 68.9599Z" fill="#F3A771"/>
<path d="M67.2207 64.6617C67.2207 64.6617 67.4438 66.0156 66.9032 66.4847C66.3632 66.9534 66.3591 67.9172 67.4409 68.2412C68.7528 68.6339 69.6787 67.7655 70.4961 67.1679C70.1426 66.4809 69.9703 66.4853 69.9703 64.5566C69.9703 62.9871 67.2207 64.6617 67.2207 64.6617Z" fill="#FFB196"/>
<path d="M70.0174 65.8415C70.0174 65.8415 69.7642 66.6602 69.0861 67.1288C68.2681 67.6944 66.729 67.787 66.729 68.1728C67.1758 68.1728 67.2631 68.1966 67.2631 68.4924C67.2631 69.0467 67.4407 69.174 67.4407 69.174C67.4407 69.174 68.5514 68.8836 69.3517 68.5775C70.3544 68.1939 70.81 66.9208 70.81 66.9208C70.81 66.9208 70.614 65.7901 70.0174 65.8415Z" fill="#D4E4FE"/>
<path d="M66.7293 65.8828C66.7293 65.8828 66.0796 66.5313 65.801 66.8293C65.5225 67.1278 65.6848 67.6777 65.5455 67.9247C65.4062 68.1718 65.3442 68.3392 65.3442 68.3392C65.3442 68.3392 65.9244 68.2314 66.0365 67.9247C66.1486 67.6181 66.7288 68.1718 66.7288 68.1718L67.1389 67.8624C67.1389 67.8624 66.5198 67.4989 66.7288 67.111C66.9377 66.7231 67.2859 66.2117 67.2859 66.2117L66.7293 65.8828Z" fill="#D4E4FE"/>
<path d="M69.6048 61.3234C68.7915 60.4977 66.6487 60.1585 65.8809 61.3683C65.3031 62.2785 65.2789 63.8995 65.4359 64.6439C65.7652 66.2074 67.1633 67.1382 68.7738 65.9371C70.31 64.7907 71.007 62.7471 69.6048 61.3234Z" fill="#FFC9B6"/>
<path d="M71.4044 62.8168C71.5437 62.0248 71.0798 61.4424 70.2984 61.425C70.3793 60.8237 69.9868 60.231 69.3748 59.9406C68.3615 59.4606 67.1629 59.8068 66.126 60.0744C65.8262 59.9465 65.0915 59.5386 64.9758 59.8875C64.8932 60.1378 65.0549 60.3854 65.2065 60.5902C64.9067 60.5382 64.3172 60.3057 64.0575 60.4878C63.4414 60.919 64.5043 61.6872 65.0496 61.9153C65.4397 62.0784 65.91 62.1857 66.3721 62.1922C66.3296 62.2464 66.2907 62.3027 66.2582 62.3618C66.2057 62.4566 66.2346 62.5627 66.3326 62.6218C66.7416 62.8678 67.4869 62.9669 67.9667 62.7215C67.9756 63.117 68.1149 63.5163 68.4542 63.7525C68.6088 63.8598 68.9269 63.9616 69.2049 63.9632C69.2786 64.3208 69.6333 64.9574 69.9756 65.0831C70.3917 64.7038 71.3029 63.3917 71.4044 62.8168Z" fill="#333333"/>
<path d="M68.759 64.1118C68.759 64.1118 69.2288 63.4585 69.6466 63.9558C70.0645 64.4532 69.2076 64.9359 69.2076 64.9359L68.759 64.1118Z" fill="#FFC9B6"/>
<path d="M54.7515 67.4873C50.1099 67.4873 46.3464 69.3245 46.3464 71.5912C46.3464 73.8575 50.1093 75.6951 54.7515 75.6951C59.3931 75.6951 63.1559 73.8575 63.1559 71.5912C63.1559 69.325 59.3931 67.4873 54.7515 67.4873Z" fill="#A1C1FF"/>
<path d="M54.7515 66.4404C50.1099 66.4404 46.3464 68.2776 46.3464 70.5444C46.3464 72.8106 50.1093 74.6483 54.7515 74.6483C59.3931 74.6483 63.1559 72.8106 63.1559 70.5444C63.1559 68.2776 59.3931 66.4404 54.7515 66.4404Z" fill="#5180DD"/>
<path d="M54.7515 65.1904C50.1099 65.1904 46.3464 67.0276 46.3464 69.2943C46.3464 71.5606 50.1093 73.3983 54.7515 73.3983C59.3931 73.3983 63.1559 71.5606 63.1559 69.2943C63.1559 67.0281 59.3931 65.1904 54.7515 65.1904Z" fill="#A1C1FF"/>
<path d="M54.7515 64.1445C50.1099 64.1445 46.3464 65.9817 46.3464 68.2484C46.3464 70.5147 50.1093 72.3524 54.7515 72.3524C59.3931 72.3524 63.1559 70.5147 63.1559 68.2484C63.1559 65.9817 59.3931 64.1445 54.7515 64.1445Z" fill="#5180DD"/>
<path d="M54.7515 63.0811C50.1099 63.0811 46.3464 64.9182 46.3464 67.185C46.3464 69.4512 50.1093 71.2889 54.7515 71.2889C59.3931 71.2889 63.1559 69.4512 63.1559 67.185C63.1559 64.9182 59.3931 63.0811 54.7515 63.0811Z" fill="#A1C1FF"/>
<path d="M54.7515 62.0342C50.1099 62.0342 46.3464 63.8713 46.3464 66.1381C46.3464 68.4043 50.1093 70.242 54.7515 70.242C59.3931 70.242 63.1559 68.4043 63.1559 66.1381C63.1559 63.8713 59.3931 62.0342 54.7515 62.0342Z" fill="#5180DD"/>
<path d="M54.7515 60.7837C50.1099 60.7837 46.3464 62.6208 46.3464 64.8876C46.3464 67.1538 50.1093 68.9915 54.7515 68.9915C59.3931 68.9915 63.1559 67.1538 63.1559 64.8876C63.1559 62.6208 59.3931 60.7837 54.7515 60.7837Z" fill="#A1C1FF"/>
<path d="M54.7515 59.7368C50.1099 59.7368 46.3464 61.574 46.3464 63.8407C46.3464 66.107 50.1093 67.9446 54.7515 67.9446C59.3931 67.9446 63.1559 66.107 63.1559 63.8407C63.1559 61.574 59.3931 59.7368 54.7515 59.7368Z" fill="#5180DD"/>
<path d="M54.7529 58.4526C50.1113 58.4526 46.3479 60.2898 46.3479 62.5566C46.3479 64.8228 50.1108 66.6605 54.7529 66.6605C59.3945 66.6605 63.1574 64.8228 63.1574 62.5566C63.1574 60.2898 59.3945 58.4526 54.7529 58.4526Z" fill="#D4E4FE"/>
<path d="M54.7532 57.9414C50.5542 57.9414 47.1501 59.6036 47.1501 61.6542C47.1501 63.7042 50.5542 65.3669 54.7532 65.3669C58.9521 65.3669 62.3562 63.7042 62.3562 61.6542C62.3562 59.6036 58.9521 57.9414 54.7532 57.9414Z" fill="#A1C1FF"/>
<path d="M69.9066 38.4077C69.9066 30.7519 63.1458 24.5454 54.8062 24.5454C46.4667 24.5454 39.7058 30.7519 39.7058 38.4077C39.7058 40.4697 40.3273 42.3762 41.0797 44.1841C42.479 47.5441 46.3799 51.991 46.9282 58.5811C47.4764 65.1717 54.8056 64.5769 54.8056 64.5769C54.8056 64.5769 62.1047 65.1712 62.6536 58.5811C63.2024 51.991 67.1329 47.5441 68.5321 44.1841C69.2858 42.3762 69.9066 40.4702 69.9066 38.4077Z" fill="#0D434B"/>
<path d="M65.5134 28.6348C66.093 30.1452 66.4117 31.7689 66.4117 33.4609C66.4117 41.4829 59.328 47.9857 50.5895 47.9857C47.2929 47.9857 44.2329 47.0593 41.6987 45.4763C43.3878 48.6716 46.446 52.8015 46.927 58.5801C47.4758 65.1707 54.8044 64.5759 54.8044 64.5759C54.8044 64.5759 62.1035 65.1702 62.6523 58.5801C63.2012 51.99 67.1316 47.5431 68.5309 44.183C69.2834 42.3752 69.9048 40.4692 69.9048 38.4067C69.9054 34.5942 68.2276 31.141 65.5134 28.6348Z" fill="#509AA6"/>
<path d="M57.6373 28.11C59.2992 30.7522 57.4284 34.5994 53.4596 36.7031C49.4902 38.8068 44.9253 38.3701 43.264 35.7279C41.6021 33.0857 43.4729 29.2385 47.4417 27.1348C51.4105 25.0317 55.9754 25.4678 57.6373 28.11Z" fill="#509AA6"/>
<path d="M53.4292 27.6277C51.7892 27.1965 49.5206 27.5682 48.9233 29.6323C48.489 31.133 51.7331 30.6812 52.675 30.4152C53.238 30.2564 54.0418 29.8799 54.3186 29.3446C54.6863 28.6349 54.387 27.8797 53.4292 27.6277Z" fill="white"/>
<path d="M47.6707 31.7157C47.5945 31.1897 47.1537 30.87 46.583 30.9307C45.6458 31.0309 44.8373 31.9319 44.688 32.8215C44.6567 33.0089 44.5818 33.6704 44.8391 33.9977C45.372 34.6754 46.5688 33.6591 46.9749 33.1883C47.3278 32.7792 47.7509 32.271 47.6707 31.7157Z" fill="white"/>
<path opacity="0.5" d="M63.9468 46.8861C63.1082 47.9355 61.4038 49.9758 60.0205 50.5967C57.1582 51.8812 55.8398 51.2755 53.7695 51.924C53.432 52.0297 53.419 52.4642 53.7695 52.5655C55.1499 52.9642 56.9836 53.3543 58.0883 54.2639C58.6 54.6854 59.5938 55.5918 60.0282 55.5918C61.3555 55.5918 62.2678 53.4188 62.8137 52.2263C63.843 49.9791 66.1169 46.9766 66.4414 45.9792C66.9006 44.5689 65.7604 44.6166 63.9468 46.8861Z" fill="#28565D"/>
<path d="M58.3027 60.2031C57.4529 59.7074 56.1775 59.3921 54.7499 59.3921C53.3223 59.3921 52.047 59.7079 51.1972 60.2031H50.1172V61.654C50.1172 62.9033 52.191 63.9159 54.7493 63.9159C57.3077 63.9159 59.3815 62.9028 59.3815 61.654V60.2031H58.3027Z" fill="#CCCCCC"/>
<path d="M54.7493 57.9424C52.191 57.9424 50.1172 58.955 50.1172 60.2043C50.1172 61.4536 52.191 62.4662 54.7493 62.4662C57.3077 62.4662 59.3815 61.4531 59.3815 60.2043C59.3821 58.955 57.3077 57.9424 54.7493 57.9424Z" fill="#888888"/>
<path d="M54.7448 58.1338C52.9313 58.1338 51.4612 58.8516 51.4612 59.7374C51.4612 60.6227 52.9313 61.3411 54.7448 61.3411C56.5584 61.3411 58.0285 60.6232 58.0285 59.7374C58.0285 58.8516 56.5584 58.1338 54.7448 58.1338Z" fill="#CCCCCC"/>
<path d="M53.2574 59.2812C51.3464 59.1263 50.9327 56.2695 50.594 54.9519C50.4193 54.2742 49.7937 52.1634 49.2986 50.0348C48.8035 47.9062 48.385 45.7402 48.1324 44.7309C48.6683 43.708 48.4175 42.7567 47.3292 42.5188C46.6494 42.3704 45.3858 43.1608 46.1631 44.3896C46.539 44.9834 47.0961 45.0397 47.5712 44.972C48.1679 48.0151 49.465 52.9154 49.9413 54.7965C50.437 56.755 50.7545 59.499 53.2102 59.6984C53.6374 59.7336 53.6817 59.3159 53.2574 59.2812Z" fill="#CCCCCC"/>
<path d="M56.5082 59.2812C58.4197 59.1263 58.8328 56.2695 59.1715 54.9519C59.3462 54.2742 59.9724 52.1634 60.4669 50.0348C60.9621 47.9062 61.3805 45.7402 61.6331 44.7309C61.0972 43.708 61.348 42.7567 62.4363 42.5188C63.1162 42.3704 64.3797 43.1608 63.6019 44.3896C63.2259 44.9834 62.6694 45.0397 62.1937 44.972C61.5971 48.0151 60.2999 52.9154 59.8237 54.7965C59.3279 56.755 59.0104 59.499 56.5548 59.6984C56.1281 59.7336 56.0838 59.3159 56.5082 59.2812Z" fill="#CCCCCC"/>
<path d="M48.8497 34.4302C48.7931 35.8523 48.7647 36.5561 48.7081 37.9495C48.6815 38.6999 48.6497 39.7179 48.6137 40.9937C47.8004 40.7927 47.3973 40.6752 46.603 40.4059C46.5068 38.2415 46.459 37.1916 46.3628 35.1599C47.3425 34.8159 47.8411 34.6696 48.8497 34.4302Z" fill="#F1935C"/>
<path d="M54.1978 37.8016C54.1978 39.0525 53.9163 40.0418 53.3634 40.7304C52.7897 41.4444 51.9818 41.7457 50.949 41.5858C50.2851 41.4829 49.7758 41.335 49.4181 41.1779C49.3786 39.8392 49.3591 39.1733 49.3196 37.8509C49.2883 37.0024 49.2311 35.8349 49.1484 34.3781C49.6749 34.1695 50.2284 34.0086 50.8086 33.9149C51.8431 33.748 52.6622 34.0086 53.2512 34.6544C53.8815 35.3457 54.1978 36.4119 54.1978 37.8016ZM52.6711 38.4273C52.6711 37.9278 52.5531 37.5583 52.3182 37.3248C52.1228 37.1314 51.8726 37.048 51.5693 37.0713C51.5486 38.313 51.5386 38.9328 51.5179 40.1702C51.8337 40.1691 52.0922 40.0467 52.2922 39.8056C52.5424 39.5054 52.6711 39.0422 52.6711 38.4273Z" fill="#F1935C"/>
<path d="M58.3854 34.0013C58.3222 35.2246 58.2904 35.8401 58.2266 37.0786C58.1351 37.0564 57.9333 37.0109 57.6347 36.9605C57.4317 36.9263 57.1991 36.9074 56.9513 36.8955C56.9289 37.2834 56.9182 37.4773 56.8958 37.8663C57.1679 37.8755 57.6129 37.8658 58.2266 37.8376C58.1995 37.9584 58.1552 38.1849 58.0968 38.517C58.062 38.7169 58.0313 38.9504 58.0041 39.2153C57.9327 39.1958 57.7462 39.1666 57.4671 39.1492C57.3372 39.1411 57.136 39.1482 56.8734 39.1595C56.8586 39.6141 56.851 39.8416 56.8362 40.2967C57.0221 40.2837 57.3721 40.2474 57.8601 40.164C57.9534 40.1483 58.1086 40.0952 58.3222 40.0079C58.3022 40.1109 58.2567 40.3568 58.1853 40.7502C58.1511 40.9533 58.1092 41.2101 58.0596 41.5222C56.7359 41.6945 56.066 41.7378 54.7317 41.7367C54.6886 40.1044 54.6668 39.2879 54.6237 37.6556C54.6036 36.7221 54.5552 35.417 54.4785 33.7424C56.046 33.7266 56.8333 33.7781 58.3854 34.0013Z" fill="#F1935C"/>
<path d="M63.1253 40.3237C62.3534 40.594 61.9615 40.7132 61.1713 40.9191C61.1176 40.7132 61.091 40.6086 61.0373 40.3973C60.9818 40.4342 60.8431 40.548 60.6206 40.7452C60.4778 40.8855 60.3191 41.0664 60.1438 41.2929C60.0606 41.0957 60.0193 40.996 59.9361 40.7923C59.8942 40.6915 59.8346 40.5496 59.7566 40.3638C59.6776 40.7278 59.638 40.9115 59.559 41.2826C59.134 41.3639 58.9204 41.4002 58.4919 41.4635C58.6495 40.6422 58.9092 39.2835 59.2208 37.5205C59.4291 36.3438 59.589 35.244 59.723 34.2314C60.6029 34.4064 61.0397 34.5132 61.9013 34.7667C61.968 35.1915 62.145 36.2116 62.4478 37.6067C62.6071 38.3375 62.8385 39.2927 63.1253 40.3237ZM60.8673 39.6058C60.826 39.4622 60.7534 39.2282 60.6496 38.895C60.587 38.7108 60.4908 38.4551 60.3622 38.1187C60.3067 38.2899 60.2193 38.5716 60.0995 38.9741C60.034 39.2054 59.9561 39.5224 59.8658 39.9298C59.939 39.9206 60.1102 39.8837 60.3622 39.8101C60.5156 39.7656 60.6862 39.6936 60.8673 39.6058Z" fill="#F1935C"/>
<path d="M72.671 68.6494C71.7934 67.9272 70.8309 68.8401 70.0625 69.1722C68.9884 69.6365 65.353 71.089 65.3566 71.1058C64.0995 70.7271 61.5005 69.8716 60.4819 69.3483C59.8953 69.0471 59.056 68.9046 58.3266 69.6739C58.0321 69.9843 57.7742 70.6139 58.1696 71.2813C58.4535 71.7603 59.2608 72.0788 60.0304 72.4846C60.8 72.8904 63.3731 73.9593 64.3332 74.1966C66.1604 74.6479 68.5682 73.9013 69.2593 73.7756C70.8144 73.4918 72.0773 73.8304 73.1066 72.3622C73.8242 71.3377 73.6076 69.4193 72.671 68.6494Z" fill="#D4E4FE"/>
<path d="M59.13 69.4153C58.2624 68.8562 57.4834 68.277 56.8177 67.5072C56.7245 67.3994 56.525 67.4649 56.5144 67.5976C56.4813 67.9948 56.5763 68.2992 56.81 68.5717C55.9384 68.685 55.3028 68.2012 54.4252 68.2483C54.0658 68.2673 53.1812 68.9922 53.8032 69.7371C54.1331 70.1326 54.7522 70.5449 55.6427 70.5525C56.7416 70.5622 57.2651 70.5205 58.3533 70.6825C59.0497 70.6532 59.3247 69.7794 59.13 69.4153Z" fill="#FFC9B6"/>
<path d="M58.7704 69.1772C58.7704 69.1772 59.0921 69.5549 58.6571 70.2099C58.3945 70.6054 57.9053 70.6102 57.9053 70.6102C57.9053 70.6102 58.3095 70.951 58.5733 71.0447C58.8371 71.1385 59.5164 71.0366 59.7708 70.3453C60.0257 69.654 59.6545 69.518 59.4356 69.3658C59.2172 69.2141 58.7704 69.1772 58.7704 69.1772Z" fill="white"/>
<path d="M95.0101 51.8025L91.584 36.883L92.024 36.7949L95.0373 50.0299L98.6959 36.8389L99.1328 36.937L95.0101 51.8025Z" fill="#C9ABAB"/>
<path d="M95.2481 50.9007L94.7988 50.8784C94.7988 50.8784 94.5442 58.5577 94.5442 58.6502C94.5442 58.6987 94.648 58.7383 94.7759 58.7383C94.9039 58.7383 95.0077 58.6987 95.0077 58.6502C95.0071 58.6463 95.2481 50.9007 95.2481 50.9007Z" fill="#28565D"/>
<path d="M95.0634 58.7383C95.0634 58.7383 93.262 58.852 91.5897 60.4997C89.9174 62.148 89.4292 62.3687 89.4292 62.3687C89.4292 62.3687 85.9993 64.3357 84.4135 65.2268C82.8277 66.1178 80.226 67.663 80.226 67.663L79.8193 69.2846C79.8193 69.2846 83.7133 68.8783 85.9993 67.9305C88.2853 66.9826 88.8859 66.4438 88.8859 66.4438C88.8859 66.4438 94.574 66.0838 95.5999 64.0059C96.6257 61.9285 95.0634 58.7383 95.0634 58.7383Z" fill="#D4E4FE"/>
<path d="M91.9674 72.0581L91.9663 72.0592C91.9529 72.0804 91.9507 72.0849 91.9674 72.0581Z" fill="#2C1D1B"/>
<path d="M96.2961 84.5966C95.6453 83.5997 95.023 82.9098 94.5459 82.4563C95.4945 80.7645 96.2633 78.4636 96.2961 77.7443C97.7681 76.8248 97.783 74.485 97.7675 73.4045C97.7601 72.8673 97.5327 72.4003 97.0018 72.1256C96.1447 71.6832 95.133 71.8409 94.2598 71.3455C93.5157 70.9231 92.983 70.5263 92.0696 70.7398C91.9899 70.7582 91.8997 70.8267 91.8873 70.9042C91.8706 71.0084 91.8428 71.1009 91.8193 71.1973C91.0097 72.5279 90.333 74.0408 90.7242 75.5069C89.88 77.9304 89.4419 80.5226 90.0444 83.0358C90.1829 83.6125 90.4029 84.4072 91.0277 84.7203C91.4182 85.4609 92.1135 86.7331 93.0071 88.1691C94.4168 90.4342 96.5476 93.3179 96.5476 93.3179C96.5476 93.3179 98.8367 93.3179 98.773 92.0608C98.7372 91.3509 97.6717 86.7035 96.2961 84.5966Z" fill="#333333"/>
<path d="M109.123 83.6939C109.022 83.0781 108.684 81.9977 108.273 81.3474C108.343 81.0543 108.524 80.7049 108.291 80.1677C108.042 79.5965 107.456 79.2755 106.693 79.4895C105.61 79.7927 105.231 80.2864 105.237 80.302C104.715 81.3412 105.643 83.0564 105.958 83.9536C106.173 84.5665 106.4 85.2753 106.67 85.8727C107 86.6066 108.058 86.2215 108.355 85.9407C109.02 85.311 109.254 84.488 109.123 83.6939Z" fill="#A55C6D"/>
<path d="M107.327 81.1672C107.243 80.8797 107.04 80.6529 106.772 80.4824C106.347 80.211 105.882 80.1391 105.404 80.0873C104.651 80.7872 102.975 82.7603 102.61 83.2635C102.463 82.7637 102.576 79.0118 101.154 77.5596C101.484 76.9383 102.348 74.9546 100.389 72.7055C99.8027 72.033 96.1367 72.4369 94.8741 72.2402C94.339 73.5876 93.1147 76.3137 95.0472 78.215C95.7919 80.9605 97.8405 82.8579 99.1865 84.7135C99.9602 85.78 100.712 86.5953 101.194 86.9441C102.106 87.6022 102.688 87.2132 103.477 86.9001C104.645 86.4359 104.989 86.1796 106.025 84.3925C106.75 83.1404 106.861 82.3831 107.367 81.5634C107.369 81.433 107.366 81.3021 107.327 81.1672Z" fill="#444444"/>
<path d="M95.5659 59.5795C94.5913 59.4146 93.9573 59.2987 92.5019 61.2412C91.4791 62.607 91.3178 66.1555 91.5082 66.6954C91.659 67.1228 92.06 69.8143 90.6794 72.1436C91.8184 73.3087 94.8287 74.947 96.6277 74.6077C98.8079 74.1959 100.113 73.6119 101.345 72.4177C101.166 71.909 100.504 70.9639 100.798 69.8383C101.305 67.8963 101.812 66.6252 101.912 64.5701C102.069 61.2947 97.7295 59.9456 95.5659 59.5795Z" fill="#509AA6"/>
<path d="M95.0188 59.2794C95.0188 59.2794 95.0955 60.337 94.6208 61.9742C94.6833 63.1076 95.2877 63.8103 96.4705 62.7805C97.6534 61.7507 98.7769 60.3677 98.7769 60.3677L98.17 58.4106L95.0188 59.2794Z" fill="#FFB9A4"/>
<path d="M98.5746 59.7158C98.4522 60.3444 98.213 60.7406 97.6229 61.2505C96.8213 61.9425 96.3683 61.8562 95.5779 62.0768C94.7541 62.307 94.4383 62.6764 94.3623 63.4348C94.683 63.3306 94.709 63.1746 95.0155 63.4198C95.2176 63.5819 95.204 63.8137 95.2615 64.0138C95.3431 64.2963 95.7256 64.4752 96.165 64.3219C95.8375 63.5323 97.7038 62.7656 98.1667 62.5366C98.59 62.3276 99.161 61.7353 99.2018 61.2293C99.2593 60.5132 99.0646 59.9014 98.5746 59.7158Z" fill="#D4E4FE"/>
<path d="M94.6587 60.0332C94.6587 60.0332 94.0741 60.708 93.7756 61.195C93.4771 61.6826 93.6112 62.1702 93.3319 62.4288C93.0526 62.6873 92.7603 62.806 92.7603 62.806C92.7603 62.806 93.3962 62.8584 93.5933 62.7302C93.7904 62.6021 94.0494 62.5129 94.1155 62.5636C94.1816 62.6138 94.6736 62.9771 94.6958 62.9208C94.7181 62.864 95.3169 62.4984 95.3169 62.4984C95.3169 62.4984 94.8905 62.0331 94.9548 61.4001C95.0196 60.7671 95.2242 60.3558 95.2242 60.3558L94.6587 60.0332Z" fill="#D4E4FE"/>
<path d="M99.143 56.6002C98.9966 55.7354 96.3769 54.9385 95.4313 55.1954C94.0069 55.5827 93.7071 57.2661 93.6688 58.4998C93.6286 59.7971 94.4926 61.4615 96.5376 60.5839C98.1963 59.8723 99.4279 58.2847 99.143 56.6002Z" fill="#FFC9B6"/>
<path d="M99.3882 56.2069C99.5334 55.7137 99.2665 55.1888 98.777 54.8639C98.3277 54.5652 97.766 54.4917 97.2258 54.4644C96.745 54.4398 96.5541 54.5101 96.1314 54.2716C95.6784 54.0158 95.7723 53.8748 95.548 53.4875C94.8564 52.2939 93.4894 53.5739 93.6853 54.6733C93.5296 54.6365 93.3677 54.6527 93.2138 54.7714C92.8541 55.0489 93.0229 55.5125 93.2874 55.7806C93.728 56.2269 94.4171 56.4994 95.0907 56.5161C95.4917 57.5058 96.779 57.4105 97.2166 57.187C97.1517 57.9465 97.8216 59.168 98.5218 59.5932C98.8419 59.1535 100.036 58.5361 100.088 57.4166C100.108 56.9926 99.84 56.4119 99.3882 56.2069Z" fill="#333333"/>
<path d="M97.2926 58.1805C97.2926 58.1805 97.8668 57.6227 98.1795 58.1393C98.4545 58.5934 98.2901 59.1468 97.6047 59.1936C97.0022 59.2348 97.2926 58.1805 97.2926 58.1805Z" fill="#FFC9B6"/>
<path d="M96.5922 92.5189C96.3697 92.9424 96.1114 94.5428 95.4495 95.8662C94.7876 97.1896 94.2123 98.0428 95.4495 98.1609C96.6867 98.279 97.1614 97.8901 97.8523 97.1506C98.6254 96.3231 98.7589 95.1267 98.7589 95.1267C98.7589 95.1267 99.6136 94.5428 99.7087 93.8423C99.8126 93.0744 98.3034 90.7446 98.3034 90.7446L96.5922 92.5189Z" fill="#A55C6D"/>
<path d="M98.2593 33.4863C94.5742 33.4863 91.5862 34.919 91.5862 36.6865C91.5862 38.4541 94.5736 39.8868 98.2593 39.8868C101.944 39.8868 104.932 38.4535 104.932 36.6865C104.932 34.919 101.944 33.4863 98.2593 33.4863Z" fill="#5180DD"/>
<path d="M98.2593 32.6704C94.5742 32.6704 91.5862 34.1031 91.5862 35.8706C91.5862 37.6382 94.5736 39.0709 98.2593 39.0709C101.944 39.0709 104.932 37.6376 104.932 35.8706C104.932 34.1031 101.944 32.6704 98.2593 32.6704Z" fill="#A1C1FF"/>
<path d="M98.2593 31.6948C94.5742 31.6948 91.5862 33.1275 91.5862 34.895C91.5862 36.6626 94.5736 38.0953 98.2593 38.0953C101.944 38.0953 104.932 36.6621 104.932 34.895C104.932 33.1275 101.944 31.6948 98.2593 31.6948Z" fill="#5180DD"/>
<path d="M98.2593 30.8794C94.5742 30.8794 91.5862 32.3121 91.5862 34.0796C91.5862 35.8472 94.5736 37.2798 98.2593 37.2798C101.944 37.2798 104.932 35.8466 104.932 34.0796C104.932 32.3121 101.944 30.8794 98.2593 30.8794Z" fill="#A1C1FF"/>
<path d="M98.2593 30.0508C94.5742 30.0508 91.5862 31.4834 91.5862 33.251C91.5862 35.0186 94.5736 36.4512 98.2593 36.4512C101.944 36.4512 104.932 35.018 104.932 33.251C104.932 31.4834 101.944 30.0508 98.2593 30.0508Z" fill="#5180DD"/>
<path d="M98.2593 29.2339C94.5742 29.2339 91.5862 30.6665 91.5862 32.4341C91.5862 34.2017 94.5736 35.6343 98.2593 35.6343C101.944 35.6343 104.932 34.2011 104.932 32.4341C104.932 30.6665 101.944 29.2339 98.2593 29.2339Z" fill="#A1C1FF"/>
<path d="M98.2593 28.2593C94.5742 28.2593 91.5862 29.6919 91.5862 31.4595C91.5862 33.2271 94.5736 34.6597 98.2593 34.6597C101.944 34.6597 104.932 33.2265 104.932 31.4595C104.932 29.6919 101.944 28.2593 98.2593 28.2593Z" fill="#5180DD"/>
<path d="M98.2593 27.4429C94.5742 27.4429 91.5862 28.8755 91.5862 30.6431C91.5862 32.4106 94.5736 33.8433 98.2593 33.8433C101.944 33.8433 104.932 32.4101 104.932 30.6431C104.932 28.8755 101.944 27.4429 98.2593 27.4429Z" fill="#A1C1FF"/>
<path d="M98.4378 26.1816C94.7526 26.1816 91.7646 27.6143 91.7646 29.3819C91.7646 31.1494 94.752 32.5821 98.4378 32.5821C102.123 32.5821 105.11 31.1489 105.11 29.3819C105.11 27.6143 102.123 26.1816 98.4378 26.1816Z" fill="#D4E4FE"/>
<path d="M98.2602 26.043C94.9261 26.043 92.2236 27.3391 92.2236 28.9384C92.2236 30.5371 94.9261 31.8338 98.2602 31.8338C101.594 31.8338 104.297 30.5377 104.297 28.9384C104.296 27.3391 101.594 26.043 98.2602 26.043Z" fill="#A1C1FF"/>
<path d="M110.293 10.8104C110.293 4.84018 104.926 0 98.3041 0C91.6823 0 86.3149 4.84018 86.3149 10.8104C86.3149 12.4186 86.8081 13.9048 87.4057 15.3146C88.5163 17.9347 91.6137 21.4024 92.0493 26.5418C92.485 31.6812 98.3041 31.2176 98.3041 31.2176C98.3041 31.2176 104.099 31.6812 104.535 26.5418C104.97 21.4024 108.091 17.9353 109.202 15.3146C109.8 13.9048 110.293 12.4186 110.293 10.8104Z" fill="#509AA6"/>
<path d="M106.807 3.18945C107.267 4.36745 107.52 5.63351 107.52 6.95305C107.52 13.2086 101.896 18.28 94.9582 18.28C92.3409 18.28 89.9116 17.5578 87.8994 16.323C89.2405 18.8144 91.6686 22.0353 92.0505 26.5416C92.4862 31.6811 98.3052 31.2174 98.3052 31.2174C98.3052 31.2174 104.1 31.6811 104.536 26.5416C104.972 21.4022 108.092 17.9351 109.203 15.3144C109.801 13.9046 110.294 12.4179 110.294 10.8102C110.294 7.83683 108.962 5.14369 106.807 3.18945Z" fill="#34656D"/>
<path d="M100.551 2.77933C101.871 4.84 100.386 7.84017 97.234 9.48068C94.0829 11.1212 90.4583 10.7807 89.1395 8.72005C87.8201 6.65938 89.3051 3.65921 92.4563 2.0187C95.6081 0.378188 99.232 0.718664 100.551 2.77933Z" fill="#4D94A0"/>
<path d="M97.2078 2.40408C95.9057 2.06807 94.1048 2.35727 93.6302 3.96713C93.2854 5.13733 95.8612 4.78516 96.609 4.57787C97.0564 4.45416 97.6942 4.1605 97.9142 3.74312C98.2059 3.18979 97.9679 2.60023 97.2078 2.40408Z" fill="white"/>
<path d="M92.641 5.59231C92.5804 5.18219 92.2306 4.93255 91.7776 4.98047C91.0336 5.05848 90.3915 5.76116 90.2734 6.45492C90.2487 6.60092 90.1888 7.11748 90.3933 7.37213C90.8167 7.9004 91.7665 7.10801 92.0891 6.74079C92.3684 6.42149 92.7046 6.02585 92.641 5.59231Z" fill="white"/>
<path opacity="0.5" d="M105.565 17.4213C104.899 18.2398 103.546 19.8307 102.447 20.315C100.175 21.3163 99.1281 20.8444 97.4842 21.3498C97.2166 21.4323 97.2061 21.7711 97.4842 21.8502C98.5799 22.1611 100.036 22.4654 100.913 23.1747C101.319 23.5035 102.108 24.2101 102.453 24.2101C103.507 24.2101 104.231 22.5155 104.665 21.5855C105.482 19.833 107.287 17.4915 107.545 16.7136C107.909 15.6141 107.004 15.6515 105.565 17.4213Z" fill="#28565D"/>
<path d="M101.081 27.8058C100.406 27.4191 99.3934 27.1733 98.26 27.1733C97.1266 27.1733 96.1143 27.4196 95.4395 27.8058H94.5823V28.937C94.5823 29.9111 96.2286 30.7007 98.26 30.7007C100.291 30.7007 101.938 29.9111 101.938 28.937V27.8058H101.081Z" fill="#3F2A28"/>
<path d="M98.26 26.043C96.2286 26.043 94.5823 26.8326 94.5823 27.8072C94.5823 28.7812 96.2286 29.5714 98.26 29.5714C100.291 29.5714 101.938 28.7818 101.938 27.8072C101.938 26.8326 100.291 26.043 98.26 26.043Z" fill="#563C3B"/>
<path d="M98.2602 26.1924C96.8202 26.1924 95.6528 26.7524 95.6528 27.4428C95.6528 28.1332 96.8202 28.6933 98.2602 28.6933C99.7001 28.6933 100.867 28.1332 100.867 27.4428C100.867 26.7524 99.6995 26.1924 98.2602 26.1924Z" fill="#3F2A28"/>
<path d="M97.077 27.0876C95.5598 26.9667 95.2316 24.7388 94.9622 23.7118C94.8238 23.183 94.3263 21.5375 93.9338 19.8775C93.5408 18.2175 93.2083 16.5285 93.0081 15.7411C93.4333 14.9431 93.2343 14.2015 92.3703 14.0159C91.8308 13.9 90.8278 14.5169 91.4446 15.4748C91.7431 15.9378 92.1849 15.9818 92.5625 15.9289C93.0365 18.3022 94.0661 22.1237 94.4443 23.5904C94.838 25.1178 95.0901 27.2576 97.0399 27.413C97.3785 27.4403 97.4138 27.1149 97.077 27.0876Z" fill="#3F2A28"/>
<path d="M99.6559 27.0876C101.173 26.9667 101.501 24.7388 101.771 23.7118C101.909 23.183 102.406 21.5375 102.799 19.8775C103.192 18.2175 103.525 16.5285 103.725 15.7411C103.3 14.9431 103.499 14.2015 104.363 14.0159C104.902 13.9 105.905 14.5169 105.288 15.4748C104.99 15.9378 104.548 15.9818 104.17 15.9289C103.696 18.3022 102.667 22.1237 102.289 23.5904C101.895 25.1178 101.643 27.2576 99.693 27.413C99.3543 27.4403 99.3197 27.1149 99.6559 27.0876Z" fill="#3F2A28"/>
<path d="M93.5818 7.70654C93.5367 8.81545 93.5144 9.36433 93.4693 10.4509C93.4483 11.036 93.423 11.8301 93.3945 12.8248C92.7487 12.6682 92.4292 12.5762 91.7982 12.3662C91.7216 10.6783 91.6839 9.85971 91.6079 8.27492C92.3847 8.00689 92.7809 7.89322 93.5818 7.70654Z" fill="#F1935C"/>
<path d="M97.8251 10.3362C97.8251 11.3119 97.602 12.0831 97.1626 12.6203C96.7072 13.177 96.0657 13.4121 95.2456 13.2873C94.7184 13.207 94.3143 13.0917 94.03 12.9691C93.9985 11.9248 93.983 11.4061 93.9521 10.3746C93.9274 9.71317 93.8817 8.80264 93.8162 7.66643C94.2339 7.50372 94.6733 7.37833 95.1343 7.30533C95.9557 7.1755 96.6058 7.37833 97.0742 7.88208C97.5742 8.42148 97.8251 9.25289 97.8251 10.3362ZM96.6132 10.8243C96.6132 10.4348 96.5193 10.1467 96.3326 9.96448C96.1775 9.81347 95.9791 9.74883 95.7381 9.76666C95.7221 10.7351 95.7134 11.2183 95.6973 12.1834C95.9483 12.1828 96.1528 12.087 96.3122 11.8992C96.5112 11.6652 96.6132 11.3041 96.6132 10.8243Z" fill="#F1935C"/>
<path d="M101.154 7.37241C101.104 8.3264 101.078 8.80674 101.028 9.77188C100.955 9.7546 100.795 9.71894 100.558 9.67994C100.397 9.65319 100.213 9.6387 100.015 9.62923C99.9975 9.93181 99.9888 10.0828 99.9715 10.3865C100.188 10.3938 100.541 10.386 101.028 10.3642C101.006 10.4584 100.971 10.635 100.924 10.8942C100.897 11.0502 100.873 11.2324 100.851 11.4386C100.794 11.4235 100.646 11.4007 100.424 11.3873C100.321 11.3812 100.161 11.3868 99.953 11.3957C99.9412 11.7501 99.935 11.9273 99.9233 12.2822C100.071 12.2722 100.348 12.2438 100.737 12.1786C100.81 12.1663 100.934 12.1251 101.104 12.0571C101.088 12.1374 101.052 12.329 100.995 12.6361C100.968 12.7943 100.934 12.9949 100.895 13.2379C99.8442 13.3722 99.3127 13.4056 98.2528 13.4056C98.2182 12.1323 98.2015 11.496 98.1669 10.2232C98.1509 9.49549 98.1126 8.47797 98.052 7.1718C99.2966 7.15843 99.9214 7.19855 101.154 7.37241Z" fill="#F1935C"/>
<path d="M104.916 12.3023C104.303 12.5129 103.992 12.606 103.365 12.7665C103.322 12.606 103.301 12.5241 103.259 12.3597C103.215 12.3881 103.105 12.4767 102.928 12.6305C102.815 12.7397 102.688 12.8813 102.549 13.0579C102.483 12.9041 102.45 12.8261 102.384 12.6678C102.351 12.5893 102.304 12.4789 102.242 12.3335C102.179 12.6171 102.148 12.7609 102.085 13.0501C101.748 13.1136 101.578 13.142 101.238 13.1911C101.363 12.5508 101.57 11.4909 101.817 10.1162C101.983 9.19846 102.11 8.34088 102.216 7.55127C102.914 7.68779 103.262 7.77138 103.946 7.96865C103.999 8.3002 104.139 9.09538 104.38 10.1837C104.504 10.7532 104.688 11.4982 104.916 12.3023ZM103.123 11.7423C103.09 11.6303 103.033 11.448 102.95 11.1878C102.9 11.044 102.824 10.8445 102.722 10.5821C102.678 10.7158 102.608 10.9354 102.514 11.2491C102.462 11.4296 102.4 11.6765 102.328 11.9947C102.387 11.9874 102.522 11.9585 102.722 11.9011C102.844 11.8671 102.979 11.8108 103.123 11.7423Z" fill="#F1935C"/>
<path d="M100.476 55.698L98.0447 39.4267L98.4909 39.3726L100.565 53.2523L104.071 37.6162L104.512 37.6965L100.476 55.698Z" fill="#C9ABAB"/>
<path d="M100.03 61.2549C100.03 61.2549 97.7609 61.7648 96.5478 64.2305C95.7605 65.8304 95.6393 68.5937 96.7833 69.4858C97.9272 70.378 99.3541 70.11 99.3541 70.11L99.4141 69.2128C99.4141 69.2128 98.0798 69.4753 97.4118 68.562C96.7437 67.6486 97.3469 65.053 98.0458 64.0121C98.7448 62.9712 100.746 61.8355 100.746 61.8355L100.03 61.2549Z" fill="#333333"/>
<path d="M93.7816 59.5308C93.7816 59.5308 92.935 60.034 92.0951 61.1601C91.6817 61.7146 91.7441 63.1484 91.7441 63.1484C91.7441 63.1484 92.249 61.9341 92.7545 61.4326C93.2606 60.9311 94.1376 60.0757 94.1376 60.0757L93.7816 59.5308Z" fill="#333333"/>
<path d="M100.75 54.4871L100.301 54.4648C100.301 54.4648 99.9817 61.6727 99.9817 61.7652C99.9817 61.8137 100.086 61.8533 100.213 61.8533C100.341 61.8533 100.445 61.8137 100.445 61.7652C100.444 61.7613 100.75 54.4871 100.75 54.4871Z" fill="#28565D"/>
<path d="M98.3471 69.1713C98.3471 69.1713 98.0659 68.3973 97.7612 68.0401C97.4565 67.6824 97.1618 67.6646 97.1618 67.6646C97.1618 67.6646 97.1945 68.3917 96.6952 68.5628C96.1958 68.7333 96.003 68.1187 96.003 68.1187C96.003 68.1187 95.2781 68.2775 95.4301 69.2861C95.5828 70.2947 97.7612 70.5421 97.7612 70.5421L98.3471 69.1713Z" fill="#FFC9B6"/>
<path d="M105.339 70.8161C105.353 70.3971 105.44 69.7345 105.394 69.4654C105.221 68.4562 104.839 67.4504 104.089 66.6881C104.35 65.9743 103.952 65.0844 103.632 64.4368C103.254 63.6734 102.138 62.4024 101.033 62.1377C100.005 62.9095 98.772 64.8214 99.0383 67.3161C99.0816 67.7246 99.8411 68.1821 100.342 68.0695C100.455 68.3308 100.807 68.7833 101.009 69.0006C100.349 68.9042 99.3016 68.7399 98.6614 68.7259C98.0477 68.712 97.9346 68.6028 97.6015 69.0703C96.5948 70.4834 97.4402 70.9532 98.8307 71.3773C99.8578 71.6904 100.909 71.935 101.976 72.1083C102.757 72.2348 103.701 72.4432 104.479 72.2047C105.215 71.9791 105.642 71.4475 105.339 70.8161Z" fill="#D4E4FE"/>
<path d="M80.1993 67.6676C80.1993 67.6676 78.4368 68.1201 77.4202 68.4867C76.4036 68.8534 75.8004 69.1571 75.1435 69.4179C74.7937 69.5572 75.1435 69.9211 75.5501 69.8475C75.9568 69.774 77.4202 69.1565 77.4202 69.1565C77.4202 69.1565 77.5419 69.8798 78.0011 69.9835C79.0381 70.2181 79.5343 70.0715 79.9002 69.8798C80.2661 69.6876 80.5683 69.5165 81.206 69.1014C81.3031 69.039 81.2629 67.5773 80.1993 67.6676Z" fill="#FFC9B6"/>
<defs>
<linearGradient id="paint0_linear_461_21414" x1="30.0402" y1="139.022" x2="120.41" y2="139.022" gradientUnits="userSpaceOnUse">
<stop offset="0.3375" stop-color="#A1C1FF"/>
<stop offset="0.5932" stop-color="#E8F1FF"/>
</linearGradient>
<linearGradient id="paint1_linear_461_21414" x1="120.058" y1="122.386" x2="30.4898" y2="113.678" gradientUnits="userSpaceOnUse">
<stop stop-color="#FFE4D4"/>
<stop offset="1" stop-color="#F1935C"/>
</linearGradient>
<linearGradient id="paint2_linear_461_21414" x1="109.181" y1="121.464" x2="41.3444" y2="114.869" gradientUnits="userSpaceOnUse">
<stop stop-color="white"/>
<stop offset="1" stop-color="#C9D9F4"/>
</linearGradient>
<linearGradient id="paint3_linear_461_21414" x1="40.3638" y1="137.947" x2="38.9174" y2="135.264" gradientUnits="userSpaceOnUse">
<stop stop-color="#F1935C"/>
<stop offset="0.6426" stop-color="#EBC3AA"/>
</linearGradient>
<linearGradient id="paint4_linear_461_21414" x1="45.1051" y1="140.484" x2="43.6586" y2="137.801" gradientUnits="userSpaceOnUse">
<stop stop-color="#DA6420"/>
<stop offset="0.6426" stop-color="#FFE4D4"/>
</linearGradient>
<linearGradient id="paint5_linear_461_21414" x1="30.247" y1="119.114" x2="119.107" y2="119.114" gradientUnits="userSpaceOnUse">
<stop offset="0.389" stop-color="#648FE4"/>
<stop offset="0.5932" stop-color="#A1C1FF"/>
</linearGradient>
<linearGradient id="paint6_linear_461_21414" x1="43.6004" y1="99.1565" x2="105.766" y2="99.1565" gradientUnits="userSpaceOnUse">
<stop offset="0.389" stop-color="#648FE4"/>
<stop offset="0.5932" stop-color="#CFDFFF"/>
</linearGradient>
<linearGradient id="paint7_linear_461_21414" x1="118.765" y1="102.867" x2="30.7041" y2="94.2466" gradientUnits="userSpaceOnUse">
<stop stop-color="white"/>
<stop offset="1" stop-color="#4D9DF9"/>
</linearGradient>
</defs>
</svg>
