<svg width="150" height="182" viewBox="0 0 150 182" fill="none" xmlns="http://www.w3.org/2000/svg">
<path d="M87.909 107.662C85.3824 106.351 81.2858 106.351 78.7591 107.662L4.56185 146.148C3.29867 146.803 2.667 147.662 2.66684 148.521C2.66669 149.38 3.29836 150.239 4.56185 150.894L61.0701 180.205C63.5967 181.516 67.6933 181.516 70.22 180.205L144.417 141.719C145.68 141.063 146.312 140.205 146.312 139.346C146.312 138.487 145.681 137.628 144.417 136.973L87.909 107.662Z" fill="#D4E4FE"/>
<path d="M87.9106 102.18C85.384 100.869 81.2874 100.869 78.7607 102.18V107.664C81.2874 106.353 85.384 106.353 87.9106 107.664V102.18Z" fill="#D4E4FE"/>
<path d="M87.9046 102.179L144.413 131.49V136.974L87.9046 107.663V102.179Z" fill="#D4E4FE"/>
<path d="M4.56421 140.665L78.7615 102.179V107.663L4.56421 146.149V140.665Z" fill="#D4E4FE"/>
<path d="M144.417 131.493C145.681 132.149 146.312 133.008 146.312 133.867L146.312 139.35C146.312 138.491 145.68 137.633 144.417 136.977V131.493Z" fill="#D4E4FE"/>
<path d="M146.312 133.865C146.312 134.723 145.68 135.582 144.417 136.237V141.721C145.68 141.066 146.312 140.207 146.312 139.348V133.865Z" fill="#A1C1FF"/>
<path d="M2.6692 143.041C2.66936 142.182 3.30103 141.323 4.56421 140.668V146.152C3.30103 146.807 2.66936 147.666 2.6692 148.525V143.041Z" fill="#D4E4FE"/>
<path d="M4.56421 145.411C3.30103 144.755 2.66936 143.897 2.6692 143.038V148.521C2.66904 149.38 3.30071 150.239 4.56421 150.895V145.411Z" fill="#A1C1FF"/>
<path d="M144.413 136.239L70.2156 174.725V180.209L144.413 141.723V136.239Z" fill="#A1C1FF"/>
<path d="M61.0737 174.725L4.56552 145.414V150.898L61.0737 180.209V174.725Z" fill="#A1C1FF"/>
<path d="M70.2161 174.725C67.6894 176.035 63.5928 176.035 61.0662 174.725V180.209C63.5928 181.519 67.6894 181.519 70.2161 180.209V174.725Z" fill="#A1C1FF"/>
<rect width="93.8925" height="73.9654" rx="7.86205" transform="matrix(-0.887687 0.460447 0.887687 0.460447 83.3474 99.6592)" fill="#DEEFFF"/>
<path d="M87.9198 95.6009C85.3931 94.2903 81.2965 94.2903 78.7699 95.6009L4.57259 134.087C3.30941 134.743 2.67774 135.601 2.67759 136.46C2.67743 137.319 3.3091 138.178 4.57259 138.833L61.0808 168.144C63.6075 169.455 67.704 169.455 70.2307 168.144L144.428 129.658C145.691 129.003 146.323 128.144 146.323 127.285C146.323 126.426 145.691 125.567 144.428 124.912L87.9198 95.6009Z" fill="#D4E4FE"/>
<path d="M87.9219 90.1192C85.3952 88.8086 81.2986 88.8086 78.772 90.1192V95.6031C81.2986 94.2925 85.3952 94.2925 87.9219 95.6031V90.1192Z" fill="#D4E4FE"/>
<path d="M87.912 90.1183L144.42 119.429V124.913L87.912 95.6022V90.1183Z" fill="#D4E4FE"/>
<path d="M4.56787 128.605L78.7651 90.1183V95.6022L4.56787 134.089V128.605Z" fill="#D4E4FE"/>
<path d="M144.428 119.431C145.691 120.086 146.323 120.945 146.323 121.804L146.323 127.288C146.323 126.429 145.691 125.57 144.428 124.915V119.431Z" fill="#D4E4FE"/>
<path d="M146.323 121.804C146.323 122.663 145.691 123.521 144.428 124.177V129.66C145.691 129.005 146.323 128.147 146.323 127.288V121.804Z" fill="#A1C1FF"/>
<path d="M2.68019 130.978C2.68034 130.12 3.31201 129.261 4.5752 128.606V134.09C3.31201 134.745 2.68034 135.603 2.68019 136.462V130.978Z" fill="#D4E4FE"/>
<path d="M4.5752 133.35C3.31201 132.695 2.68034 131.836 2.68019 130.977V136.461C2.68003 137.32 3.3117 138.179 4.5752 138.834V133.35Z" fill="#A1C1FF"/>
<path d="M144.42 124.178L70.2229 162.665V168.149L144.42 129.662V124.178Z" fill="#A1C1FF"/>
<path d="M61.0845 162.661L4.57626 133.349V138.833L61.0845 168.144V162.661Z" fill="#A1C1FF"/>
<path d="M70.2268 162.664C67.7001 163.975 63.6036 163.975 61.0769 162.664V168.148C63.6036 169.459 67.7001 169.459 70.2268 168.148V162.664Z" fill="#A1C1FF"/>
<rect width="93.8925" height="73.9654" rx="7.86205" transform="matrix(-0.887687 0.460447 0.887687 0.460447 83.3474 87.7472)" fill="#DEEFFF"/>
<path d="M78.7568 136.581L82.4873 138.171L90.946 132.646L95.855 141.808L94.7669 138.171L92.7462 124.009V118.359L78.7568 136.581Z" fill="#B2D7FF"/>
<path d="M95.6999 139.127V142.235L94.1455 137.351L94.7284 136.02L95.6999 139.127Z" fill="#DA6420"/>
<path d="M52.4905 124.998V121.607L57.7754 123.765L52.4905 124.998Z" fill="#DA6420"/>
<path d="M73.3036 115.958L52.4905 124.857L79.0517 136.723L88.9627 127.258L95.7022 142.232L92.9043 118.5L79.0517 123.868L73.3036 115.958Z" fill="#DA6420"/>
<path d="M73.3036 112.85L52.4905 121.75L79.0517 133.616L88.9627 124.151L95.7022 139.125L92.7489 118.36L79.0517 120.761L73.3036 112.85Z" fill="#F1935C"/>
<path fill-rule="evenodd" clip-rule="evenodd" d="M74.9596 125.947L60.82 119.205C60.82 119.205 60.82 99.9008 27.9412 62.2051H121.304C89.0993 99.7134 89.0993 119.205 89.0993 119.205L74.9596 125.947Z" fill="url(#paint0_linear_466_21902)"/>
<path d="M83.3455 100.408H64.1245V102.822C64.1245 102.861 64.1245 102.89 64.1245 102.91C64.1245 105.645 68.4394 107.885 73.735 107.885C79.0633 107.885 83.3455 105.645 83.3455 102.91C83.3455 102.89 83.3455 102.861 83.3455 102.822V100.408Z" fill="url(#paint1_linear_466_21902)"/>
<path d="M99.4604 72.4195C99.4604 65.0878 48.1064 65.2914 48.1064 72.4195C48.1064 79.5185 63.5028 100.466 63.5028 100.466C65.0392 103.638 68.1119 105.383 73.7998 105.383C79.4549 105.383 82.5277 103.492 84.064 100.466C84.489 99.5936 99.4604 79.7513 99.4604 72.4195Z" fill="url(#paint2_linear_466_21902)"/>
<path style="mix-blend-mode:color-dodge" d="M63.243 71.838L51.377 74.922C51.377 74.922 64.4524 99.5648 64.4851 99.5939C65.7927 102.416 67.0348 103.842 68.3424 103.493C69.6499 103.173 69.7807 101.223 69.225 98.372C69.0616 97.4991 63.243 71.838 63.243 71.838Z" fill="url(#paint3_radial_466_21902)"/>
<path style="mix-blend-mode:color-dodge" d="M88.866 72.1565L97.3324 74.5713C97.3324 74.5713 84.355 99.1851 84.355 99.2142C83.0801 102.036 82.0014 103.462 81.0534 103.2C80.1054 102.938 80.2362 101.076 80.988 98.225C81.2169 97.4103 88.866 72.1565 88.866 72.1565Z" fill="url(#paint4_radial_466_21902)"/>
<path d="M99.4604 72.5055C99.4604 79.8373 87.954 85.8016 73.7998 85.8016C59.6129 85.8016 48.1064 79.8373 48.1064 72.5055C48.1064 65.1447 59.6129 59.2095 73.7998 59.2095C87.954 59.2095 99.4604 65.1447 99.4604 72.5055Z" fill="url(#paint5_linear_466_21902)"/>
<path d="M99.4568 70.7303H48.1028V72.4178H48.1355C48.1355 72.4954 48.1246 72.5633 48.1028 72.6215C48.1028 79.9532 59.6092 85.9175 73.7961 85.9175C87.9503 85.9175 99.4568 79.9532 99.4568 72.6215C99.435 72.5633 99.4241 72.4954 99.4241 72.4178H99.4568V70.7303Z" fill="url(#paint6_linear_466_21902)"/>
<path opacity="0.2" d="M99.4568 70.7303H48.1028V72.4178H48.1355C48.1355 72.4954 48.1246 72.5633 48.1028 72.6215C48.1028 79.9532 59.6092 85.9175 73.7961 85.9175C87.9503 85.9175 99.4568 79.9532 99.4568 72.6215C99.435 72.5633 99.4241 72.4954 99.4241 72.4178H99.4568V70.7303Z" fill="white"/>
<path d="M99.4568 70.8484C99.4568 78.1801 87.9503 84.1444 73.7961 84.1444C59.6092 84.1444 48.1028 78.1801 48.1028 70.8484C48.1028 63.4875 59.6092 57.5232 73.7961 57.5232C87.9503 57.5232 99.4568 63.4875 99.4568 70.8484Z" fill="url(#paint7_linear_466_21902)"/>
<path d="M99.4568 70.8484C99.4568 78.1801 87.9503 84.1444 73.7961 84.1444C59.6092 84.1444 48.1028 78.1801 48.1028 70.8484C48.1028 63.4875 59.6092 57.5232 73.7961 57.5232C87.9503 57.5232 99.4568 63.4875 99.4568 70.8484Z" fill="url(#paint8_linear_466_21902)"/>
<path d="M73.7962 58.9493C60.0669 58.9493 48.8547 64.5354 48.1682 71.5472C48.8547 78.5589 60.0669 84.145 73.7962 84.145C87.4927 84.145 98.705 78.5589 99.3914 71.5472C98.705 64.5354 87.4927 58.9493 73.7962 58.9493Z" fill="url(#paint9_linear_466_21902)"/>
<path style="mix-blend-mode:multiply" d="M73.7962 58.9493C60.0669 58.9493 48.8547 64.5354 48.1682 71.5472C48.8547 78.5589 60.0669 84.145 73.7962 84.145C87.4927 84.145 98.705 78.5589 99.3914 71.5472C98.705 64.5354 87.4927 58.9493 73.7962 58.9493Z" fill="url(#paint10_radial_466_21902)"/>
<path style="mix-blend-mode:color-dodge" d="M61.4435 81.0914C66.0526 82.517 69.3868 84.7282 68.8638 86.0665C68.3408 87.4049 64.1893 87.3758 59.5802 85.9792C54.9711 84.5827 51.6369 82.3425 52.1272 81.0041C52.6502 79.6658 56.8344 79.6949 61.4435 81.0914Z" fill="url(#paint11_radial_466_21902)"/>
<path style="mix-blend-mode:color-dodge" d="M89.2587 58.9492C92.6584 59.9966 95.012 61.9168 94.4889 63.2552C93.9986 64.5935 90.7951 64.8554 87.3955 63.8371C83.9959 62.7897 81.6423 60.8694 82.1653 59.5311C82.6883 58.1928 85.8591 57.9309 89.2587 58.9492Z" fill="url(#paint12_radial_466_21902)"/>
<path style="mix-blend-mode:screen" d="M100.602 55.8338L91.1872 51.6733L81.9363 55.6011L83.2765 62.2055L91.3179 66.3368L99.2613 62.4382L100.602 55.8338Z" fill="url(#paint13_linear_466_21902)"/>
<path d="M91.3079 65.2613V66.3377L99.2512 62.4391V61.3044L91.3079 65.2613Z" fill="url(#paint14_linear_466_21902)"/>
<path d="M91.3129 65.2587V66.3352L83.2715 62.2038V61.0691L91.3129 65.2587Z" fill="url(#paint15_linear_466_21902)"/>
<path d="M83.2715 61.0712L91.3129 65.2608L99.2563 61.304L91.1821 57.1144L83.2715 61.0712Z" fill="url(#paint16_linear_466_21902)"/>
<path d="M92.3993 62.384C92.1705 62.1804 92.0724 61.9767 92.0397 61.7439C92.0397 61.6276 92.2359 61.5112 92.4974 61.5112C92.8243 61.5112 93.1838 61.4821 93.5107 61.4239C93.6742 61.4821 93.9684 61.5112 94.1318 61.4239C94.2953 61.3366 94.3606 61.2202 94.2953 61.133C94.949 60.7547 95.2759 60.3183 94.2953 59.8237C93.3473 59.3291 92.4647 59.4746 91.7455 59.8237C91.5821 59.7946 91.3533 59.8237 91.1898 59.911C91.0264 59.9983 91.0918 60.1438 91.1898 60.231C91.0591 60.4056 90.9937 60.5802 90.9937 60.7547C90.9937 60.8711 90.7976 60.9875 90.5361 60.9875C90.1111 60.9875 89.6862 60.9002 89.3266 60.7838C88.8363 60.6384 88.1825 60.6675 87.7575 60.8711L87.0057 61.2784C86.8422 61.3366 86.8749 61.453 87.0057 61.5403L90.961 63.5769C91.1245 63.6351 91.3533 63.6351 91.484 63.5769L92.2359 63.1987C92.6608 62.9659 92.7262 62.6459 92.3993 62.384Z" fill="white"/>
<path style="mix-blend-mode:screen" d="M85.4384 43.8457L74.8799 39.1615L64.5176 43.5838L66.0213 51.0029L75.0107 55.6288H75.0433L83.9347 51.2647L85.4384 43.8457Z" fill="url(#paint17_linear_466_21902)"/>
<path d="M75.0095 54.4314V55.6243L83.9335 51.2601V49.98L75.0095 54.4314Z" fill="url(#paint18_linear_466_21902)"/>
<path d="M75.0458 54.4314V55.6243L66.0237 50.9983V49.7181L75.0458 54.4314Z" fill="url(#paint19_linear_466_21902)"/>
<path d="M66.0237 49.7186L75.0458 54.4319L83.9371 49.9804L74.8823 45.2963L66.0237 49.7186Z" fill="url(#paint20_linear_466_21902)"/>
<path d="M76.2498 51.1799C75.9883 50.9763 75.8575 50.7435 75.8248 50.4816C75.8248 50.3362 76.0537 50.2198 76.3479 50.2198C76.7074 50.2198 77.0997 50.1907 77.4593 50.1034C77.6554 50.1616 77.9823 50.1907 78.1784 50.1034C78.3746 50.0161 78.4399 49.8707 78.3419 49.7834C79.0937 49.3761 79.4533 48.8524 78.3746 48.2996C77.2958 47.7759 76.3152 47.9504 75.498 48.3287C75.3345 48.2705 75.073 48.2996 74.8769 48.416C74.7134 48.5032 74.7461 48.6778 74.8769 48.7651C74.7134 48.9687 74.648 49.1724 74.648 49.347C74.648 49.4924 74.4192 49.6088 74.125 49.6088C73.6674 49.6088 73.2098 49.5506 72.7848 49.4052C72.2291 49.2306 71.4773 49.2597 71.0196 49.5215L70.1697 49.9289C70.0063 50.0161 70.0063 50.1616 70.1697 50.2489L74.6154 52.5182C74.7788 52.6055 75.0403 52.6055 75.2038 52.5182L76.021 52.1109C76.5113 51.8491 76.5767 51.4709 76.2498 51.1799Z" fill="white"/>
<path style="mix-blend-mode:screen" d="M64.7817 51.4419L56.4461 47.7469L48.2412 51.2092L49.4507 57.0862L56.5768 60.7521L63.6049 57.2899L64.7817 51.4419Z" fill="url(#paint21_linear_466_21902)"/>
<path d="M56.5647 59.7917V60.7518L63.5928 57.2896V56.3004L56.5647 59.7917Z" fill="url(#paint22_linear_466_21902)"/>
<path d="M56.5714 59.7928V60.7529L49.4453 57.087V56.0687L56.5714 59.7928Z" fill="url(#paint23_linear_466_21902)"/>
<path d="M49.4453 56.0688L56.5714 59.7929L63.5995 56.3016L56.4407 52.5775L49.4453 56.0688Z" fill="url(#paint24_linear_466_21902)"/>
<path d="M55.5251 57.2049C55.7212 57.0304 55.852 56.8558 55.852 56.6522C55.852 56.5358 55.6558 56.4485 55.427 56.4485C55.1328 56.4485 54.8386 56.4194 54.5444 56.3612C54.4137 56.4194 54.1195 56.4194 53.9887 56.3612C53.8253 56.2739 53.7926 56.1866 53.858 56.0994C53.2696 55.7793 53.008 55.372 53.8253 54.9356C54.6752 54.4992 55.4597 54.6446 56.1135 54.9356C56.2442 54.9065 56.4404 54.9356 56.6038 55.0229C56.7346 55.0811 56.7019 55.2265 56.6038 55.3138C56.7346 55.4593 56.7673 55.6048 56.7673 55.7502C56.7673 55.8666 56.9634 55.983 57.1922 55.9539C57.5518 55.9539 57.944 55.8957 58.2709 55.8084C58.6959 55.6629 59.2843 55.692 59.6765 55.8957L60.3303 56.2157C60.4284 56.2739 60.4284 56.3903 60.3303 56.4485L56.7999 58.2523C56.6692 58.3396 56.473 58.3396 56.3423 58.2523L55.6885 57.9323C55.2963 57.7286 55.2636 57.4377 55.5251 57.2049Z" fill="white"/>
<path style="mix-blend-mode:screen" d="M78.2101 59.7365L68.8611 55.6051L59.7083 59.5037L61.0158 66.0499L68.9918 70.1522L76.8698 66.2827L78.2101 59.7365Z" fill="url(#paint25_linear_466_21902)"/>
<path d="M68.9849 69.0721V70.1486L76.8628 66.2791V65.1444L68.9849 69.0721Z" fill="url(#paint26_linear_466_21902)"/>
<path d="M68.9902 69.0728V70.1493L61.0142 66.047V64.9124L68.9902 69.0728Z" fill="url(#paint27_linear_466_21902)"/>
<path d="M61.0142 64.9147L68.9902 69.0752L76.8682 65.1475L68.8595 61.0161L61.0142 64.9147Z" fill="url(#paint28_linear_466_21902)"/>
<path d="M68.0093 66.1976C68.2381 65.9939 68.3689 65.7903 68.3689 65.5866C68.4016 65.4411 68.1728 65.3538 67.9113 65.3248C67.5844 65.3248 67.2575 65.2957 66.9306 65.2375C66.7671 65.2957 66.4729 65.3248 66.3095 65.2375C66.1461 65.1502 66.0807 65.0338 66.1787 64.9465C65.4923 64.5683 65.1981 64.1319 66.1461 63.6373C67.094 63.1718 67.9439 63.3172 68.6958 63.6664C68.8265 63.6082 69.0554 63.6373 69.2188 63.7246C69.3822 63.8119 69.3495 63.9573 69.2515 64.0737C69.3822 64.2192 69.4149 64.3937 69.4149 64.5683C69.4149 64.6847 69.6438 64.8011 69.8726 64.8011C70.2975 64.8011 70.7225 64.7429 71.082 64.6265C71.5724 64.4519 72.2262 64.481 72.6511 64.7138L73.3703 65.092C73.5337 65.1502 73.5337 65.2666 73.3703 65.3538L69.4476 67.3613C69.3169 67.4486 69.088 67.4486 68.9246 67.3613L68.2054 66.9831C67.7805 66.7795 67.7151 66.4303 68.0093 66.1976Z" fill="white"/>
<path style="mix-blend-mode:screen" d="M62.7521 68.9836L56.8682 66.3651L51.0823 68.8381L51.8995 72.9695L56.9336 75.5589H56.9662L61.9349 73.115L62.7521 68.9836Z" fill="url(#paint29_linear_466_21902)"/>
<path d="M56.9216 74.8881V75.5572L61.923 73.1133V72.415L56.9216 74.8881Z" fill="url(#paint30_linear_466_21902)"/>
<path d="M56.9571 74.8892V75.5583L51.8904 72.9689V72.2416L56.9571 74.8892Z" fill="url(#paint31_linear_466_21902)"/>
<path d="M51.8904 72.2401L56.9571 74.8876L61.9258 72.4146L56.8591 69.7961L51.8904 72.2401Z" fill="url(#paint32_linear_466_21902)"/>
<path d="M56.1492 73.0287C56.2799 72.8929 56.3562 72.7572 56.378 72.6214C56.378 72.5341 56.2472 72.4759 56.0838 72.4759C55.8877 72.4759 55.6589 72.4759 55.4627 72.4177C55.3647 72.4468 55.1685 72.4759 55.0705 72.4177C54.9397 72.3595 54.907 72.3014 54.9724 72.2432C54.5474 72.0104 54.3513 71.7195 54.9397 71.3994C55.5608 71.1085 56.0838 71.1958 56.5741 71.4285C56.6395 71.3994 56.803 71.4285 56.901 71.4576C56.9991 71.5158 56.9664 71.6322 56.901 71.6613C56.9882 71.7777 57.0318 71.8843 57.0318 71.9813C57.0318 72.0686 57.1625 72.1559 57.326 72.1559C57.5875 72.1268 57.849 72.0977 58.0778 72.0395C58.4047 71.9231 58.797 71.9522 59.0585 72.0977L59.5161 72.3305C59.6142 72.3595 59.6142 72.4468 59.5161 72.4759L57.0318 73.7561C56.9664 73.8143 56.803 73.8143 56.7049 73.7561L56.2472 73.5233C55.9857 73.3778 55.9531 73.1742 56.1492 73.0287Z" fill="white"/>
<path style="mix-blend-mode:screen" d="M91.5778 66.4797L83.9613 63.0757L76.4429 66.2761L77.5216 71.6294L84.0593 75.0043L90.499 71.8331L91.5778 66.4797Z" fill="url(#paint33_linear_466_21902)"/>
<path d="M84.0608 74.1314V75.0043L90.5005 71.833V70.902L84.0608 74.1314Z" fill="url(#paint34_linear_466_21902)"/>
<path d="M84.0612 74.1299V75.0027L77.5234 71.6278V70.6968L84.0612 74.1299Z" fill="url(#paint35_linear_466_21902)"/>
<path d="M77.5234 70.6989L84.0612 74.132L90.5009 70.9025L83.9631 67.5276L77.5234 70.6989Z" fill="url(#paint36_linear_466_21902)"/>
<path d="M84.9458 71.7768C84.7496 71.6314 84.6516 71.4568 84.6516 71.2822C84.6516 71.1659 84.815 71.0786 85.0112 71.0786C85.2727 71.0786 85.5669 71.0495 85.8284 71.0204C85.9591 71.0495 86.2206 71.0786 86.3514 70.9913C86.4821 70.9331 86.5148 70.8458 86.4495 70.7585C87.0052 70.4676 87.2667 70.0894 86.4821 69.7112C85.6976 69.3038 84.9785 69.4202 84.3901 69.7112C84.292 69.6821 84.0959 69.7112 83.9651 69.7693C83.8344 69.8275 83.867 69.973 83.9324 70.0312C83.8344 70.1767 83.8017 70.3221 83.8017 70.4385C83.8017 70.5549 83.6382 70.6422 83.4094 70.6422C83.0825 70.6422 82.7229 70.584 82.4287 70.4967C82.0365 70.3512 81.4808 70.3803 81.1539 70.5549L80.5328 70.8749C80.4347 70.9331 80.4347 71.0204 80.5655 71.1077L83.769 72.737C83.8997 72.7951 84.0632 72.7951 84.1939 72.737L84.7823 72.446C85.1419 72.2714 85.1746 71.9805 84.9458 71.7768Z" fill="white"/>
<path style="mix-blend-mode:screen" d="M77.2012 75.2972L70.8923 72.4751L64.6814 75.1227L65.564 79.545L70.9576 82.3381L76.2859 79.7196L77.2012 75.2972Z" fill="url(#paint37_linear_466_21902)"/>
<path d="M70.9607 81.6112V82.3386L76.289 79.7201V78.9636L70.9607 81.6112Z" fill="url(#paint38_linear_466_21902)"/>
<path d="M70.9591 81.6123V82.3397L65.5654 79.5466V78.7902L70.9591 81.6123Z" fill="url(#paint39_linear_466_21902)"/>
<path d="M65.5654 78.7906L70.9591 81.6128L76.2873 78.9652L70.8937 76.1431L65.5654 78.7906Z" fill="url(#paint40_linear_466_21902)"/>
<path d="M70.0764 79.6343C70.229 79.5179 70.3053 79.3821 70.3053 79.2269C70.338 79.1396 70.1745 79.0815 70.0111 79.0815C69.7823 79.0815 69.5534 79.0524 69.3573 78.9942C69.2265 79.0524 69.0304 79.0524 68.8997 78.9942C68.8016 78.936 68.7689 78.8778 68.8343 78.8196C68.3766 78.5578 68.1478 78.2668 68.8016 77.9177C69.4554 77.5977 70.0438 77.714 70.5341 77.9468C70.6322 77.9177 70.7629 77.9177 70.8937 77.9759C70.9917 78.0341 70.959 78.1504 70.8937 78.2086C70.9917 78.325 71.0244 78.4414 71.0244 78.5578C71.0244 78.645 71.1552 78.7032 71.3513 78.7032C71.6128 78.7032 71.907 78.6741 72.1358 78.5869C72.4954 78.4705 72.9204 78.4996 73.2146 78.645L73.7049 78.9069C73.803 78.936 73.803 79.0233 73.7049 79.0815L71.0571 80.4489C70.959 80.5071 70.7956 80.5071 70.6975 80.4489L70.2072 80.187C69.913 80.0416 69.8803 79.8088 70.0764 79.6343Z" fill="white"/>
<path style="mix-blend-mode:screen" d="M91.7217 76.0021L86.9491 73.8782L82.2747 75.8857L82.9611 79.2315L87.0145 81.3263L91.0352 79.3479L91.7217 76.0021Z" fill="url(#paint41_linear_466_21902)"/>
<path d="M87.0115 80.7747V81.3275L91.0322 79.3491V78.7672L87.0115 80.7747Z" fill="url(#paint42_linear_466_21902)"/>
<path d="M87.0119 80.7743V81.3271L82.9585 79.2323V78.6504L87.0119 80.7743Z" fill="url(#paint43_linear_466_21902)"/>
<path d="M82.9585 78.6488L87.0119 80.7727L91.0326 78.7652L86.9465 76.6704L82.9585 78.6488Z" fill="url(#paint44_linear_466_21902)"/>
<path d="M87.5725 79.3152C87.4635 79.2182 87.409 79.1116 87.409 78.9952C87.3763 78.937 87.5071 78.8788 87.6379 78.8788C87.8013 78.8788 87.9647 78.8497 88.1282 78.8206C88.2262 78.8497 88.357 78.8788 88.4551 78.8206C88.5531 78.7915 88.5531 78.7333 88.5205 78.6751C88.88 78.5006 89.0108 78.2678 88.5531 78.006C88.0628 77.7732 87.6052 77.8605 87.2456 78.0351C87.1802 78.006 87.0495 78.006 86.9514 78.0642C86.886 78.0933 86.9187 78.1805 86.9514 78.2387C86.886 78.3163 86.8533 78.3939 86.8533 78.4715C86.8533 78.5588 86.7553 78.617 86.6245 78.617C86.4284 78.617 86.1995 78.5588 86.0034 78.5006C85.7746 78.4424 85.415 78.4424 85.2189 78.5588L84.8266 78.7624C84.7612 78.7915 84.7612 78.8497 84.8266 78.8788L86.8533 79.9262C86.9187 79.9553 87.0495 79.9553 87.1148 79.9262L87.4744 79.7225C87.7032 79.6062 87.7359 79.4316 87.5725 79.3152Z" fill="white"/>
<path fill-rule="evenodd" clip-rule="evenodd" d="M74.0553 80.2751C58.9531 80.2751 46.6621 73.9035 46.6621 66.0481C46.6621 58.1926 58.9531 51.7919 74.0553 51.7919C89.1574 51.7919 101.416 58.1926 101.416 66.0481C101.416 73.9035 89.1574 80.2751 74.0553 80.2751ZM74.0553 52.0537C59.0838 52.0537 46.9236 58.309 46.9236 66.0481C46.9236 73.758 59.0838 80.0424 74.0553 80.0424C88.994 80.0424 101.154 73.758 101.154 66.0481C101.154 58.309 88.994 52.0537 74.0553 52.0537Z" fill="url(#paint45_radial_466_21902)" style="mix-blend-mode:screen"/>
<path style="mix-blend-mode:screen" fill-rule="evenodd" clip-rule="evenodd" d="M74.0606 76.7528C58.2392 76.7528 45.3599 70.0611 45.3599 61.8565C45.3599 53.6228 58.2392 46.9312 74.0606 46.9312C89.8819 46.9312 102.729 53.6228 102.729 61.8565C102.729 70.0611 89.8819 76.7528 74.0606 76.7528ZM74.0606 47.1639C58.37 47.1639 45.6214 53.7392 45.6214 61.8565C45.6214 69.9447 58.37 76.52 74.0606 76.52C89.7185 76.52 102.467 69.9447 102.467 61.8565C102.467 53.7392 89.7185 47.1639 74.0606 47.1639Z" fill="url(#paint46_radial_466_21902)"/>
<path fill-rule="evenodd" clip-rule="evenodd" d="M74.0632 73.1486C57.8496 73.1486 44.676 66.2823 44.676 57.8741C44.676 49.4659 57.8496 42.5996 74.0632 42.5996C90.2441 42.5996 103.418 49.4659 103.418 57.8741C103.418 66.2823 90.2441 73.1486 74.0632 73.1486ZM74.0632 42.8324C58.013 42.8324 44.9375 49.5822 44.9375 57.8741C44.9375 66.166 58.013 72.9158 74.0632 72.9158C90.1133 72.9158 103.156 66.166 103.156 57.8741C103.156 49.5822 90.1133 42.8324 74.0632 42.8324Z" fill="url(#paint47_radial_466_21902)" style="mix-blend-mode:screen"/>
<path style="mix-blend-mode:screen" d="M50.1674 68.8715C50.1674 70.2681 48.8925 71.4027 47.3561 71.4027C45.7871 71.4027 44.5122 70.2681 44.5122 68.8715C44.5122 67.475 45.7871 66.3403 47.3561 66.3403C48.8925 66.3403 50.1674 67.475 50.1674 68.8715Z" fill="url(#paint48_radial_466_21902)"/>
<path style="mix-blend-mode:screen" d="M98.3453 52.1696C98.3453 53.5371 97.1032 54.6717 95.5341 54.6717C93.965 54.6717 92.6902 53.5371 92.6902 52.1696C92.6902 50.7731 93.965 49.6384 95.5341 49.6384C97.1032 49.6384 98.3453 50.7731 98.3453 52.1696Z" fill="url(#paint49_radial_466_21902)"/>
<path style="mix-blend-mode:screen" d="M58.5966 46.0916C58.5966 47.4882 57.3217 48.6228 55.7526 48.6228C54.1836 48.6228 52.9414 47.4882 52.9414 46.0916C52.9414 44.6951 54.1836 43.5604 55.7526 43.5604C57.3217 43.5604 58.5966 44.6951 58.5966 46.0916Z" fill="url(#paint50_radial_466_21902)"/>
<g filter="url(#filter0_i_466_21902)">
<path d="M144.432 31.6785C145.695 32.3338 146.327 33.1929 146.327 34.0518L146.327 122.342C146.327 121.484 145.695 120.625 144.432 119.97V31.6785Z" fill="#FFE4D4" fill-opacity="0.15"/>
</g>
<path d="M145.827 34.0518V34.0517C145.827 33.6038 145.574 33.0782 144.932 32.5815V119.674C145.27 119.87 145.571 120.087 145.827 120.322V34.0518Z" stroke="white"/>
<g filter="url(#filter1_i_466_21902)">
<path d="M146.327 34.0514C146.327 34.9102 145.695 35.7689 144.432 36.4241V124.715C145.695 124.06 146.327 123.201 146.327 122.343V34.0514Z" fill="#FFE4D4" fill-opacity="0.15"/>
</g>
<path d="M144.932 123.812C145.573 123.316 145.827 122.79 145.827 122.343V36.0722C145.571 36.3065 145.27 36.5235 144.932 36.72V123.812Z" stroke="#FFE4D4"/>
<g filter="url(#filter2_i_466_21902)">
<path d="M4.57886 45.5993C3.31567 44.9441 2.684 44.0854 2.68385 43.2266V131.517C2.68369 132.376 3.31536 133.235 4.57886 133.891V45.5993Z" fill="#FFE4D4" fill-opacity="0.15"/>
</g>
<path d="M4.07886 45.8952C3.74025 45.6987 3.43995 45.4817 3.18385 45.2474V131.517C3.18377 131.965 3.4369 132.491 4.07886 132.988V45.8952Z" stroke="white"/>
<g filter="url(#filter3_i_466_21902)">
<path d="M144.424 36.4242L70.2266 74.9106V163.202L144.424 124.715V36.4242Z" fill="#FFE4D4" fill-opacity="0.15"/>
</g>
<path d="M143.924 124.412V37.2468L70.7266 75.2145V162.379L143.924 124.412Z" stroke="#FFE4D4"/>
<g filter="url(#filter4_i_466_21902)">
<path d="M61.0881 74.9116L4.57993 45.6006V133.892L61.0881 163.203V74.9116Z" fill="#FFE4D4" fill-opacity="0.15"/>
</g>
<path d="M60.5881 162.38V75.2155L5.07993 46.4232V133.588L60.5881 162.38Z" stroke="#FFE4D4"/>
<g filter="url(#filter5_i_466_21902)">
<path d="M70.2305 74.9116C67.7038 76.2222 63.6072 76.2222 61.0806 74.9116V163.203C63.6072 164.514 67.7038 164.514 70.2305 163.203V74.9116Z" fill="#FFE4D4" fill-opacity="0.15"/>
</g>
<path d="M69.7305 162.891V75.6853C68.5103 76.1632 67.0735 76.3946 65.6555 76.3946C64.2375 76.3946 62.8007 76.1632 61.5806 75.6853V162.891C62.7199 163.414 64.176 163.686 65.6555 163.686C67.135 163.686 68.5911 163.414 69.7305 162.891Z" stroke="#FFE4D4"/>
<g filter="url(#filter6_i_466_21902)">
<rect width="93.8925" height="73.9654" rx="5" transform="matrix(-0.887687 0.460447 0.887687 0.460447 83.3582 0)" fill="#FFE4D4" fill-opacity="0.15"/>
</g>
<rect x="2.98023e-08" y="0.460447" width="92.8925" height="72.9654" rx="4.5" transform="matrix(-0.887687 0.460447 0.887687 0.460447 82.9494 0.248436)" stroke="#FFE4D4"/>
<defs>
<filter id="filter0_i_466_21902" x="144.432" y="31.6785" width="1.89502" height="90.6647" filterUnits="userSpaceOnUse" color-interpolation-filters="sRGB">
<feFlood flood-opacity="0" result="BackgroundImageFix"/>
<feBlend mode="normal" in="SourceGraphic" in2="BackgroundImageFix" result="shape"/>
<feColorMatrix in="SourceAlpha" type="matrix" values="0 0 0 0 0 0 0 0 0 0 0 0 0 0 0 0 0 0 127 0" result="hardAlpha"/>
<feOffset/>
<feGaussianBlur stdDeviation="9.0843"/>
<feComposite in2="hardAlpha" operator="arithmetic" k2="-1" k3="1"/>
<feColorMatrix type="matrix" values="0 0 0 0 1 0 0 0 0 1 0 0 0 0 1 0 0 0 1 0"/>
<feBlend mode="normal" in2="shape" result="effect1_innerShadow_466_21902"/>
</filter>
<filter id="filter1_i_466_21902" x="144.432" y="34.0514" width="1.89502" height="90.6641" filterUnits="userSpaceOnUse" color-interpolation-filters="sRGB">
<feFlood flood-opacity="0" result="BackgroundImageFix"/>
<feBlend mode="normal" in="SourceGraphic" in2="BackgroundImageFix" result="shape"/>
<feColorMatrix in="SourceAlpha" type="matrix" values="0 0 0 0 0 0 0 0 0 0 0 0 0 0 0 0 0 0 127 0" result="hardAlpha"/>
<feOffset/>
<feGaussianBlur stdDeviation="9.0843"/>
<feComposite in2="hardAlpha" operator="arithmetic" k2="-1" k3="1"/>
<feColorMatrix type="matrix" values="0 0 0 0 1 0 0 0 0 1 0 0 0 0 1 0 0 0 1 0"/>
<feBlend mode="normal" in2="shape" result="effect1_innerShadow_466_21902"/>
</filter>
<filter id="filter2_i_466_21902" x="2.68384" y="43.226" width="1.89502" height="90.6647" filterUnits="userSpaceOnUse" color-interpolation-filters="sRGB">
<feFlood flood-opacity="0" result="BackgroundImageFix"/>
<feBlend mode="normal" in="SourceGraphic" in2="BackgroundImageFix" result="shape"/>
<feColorMatrix in="SourceAlpha" type="matrix" values="0 0 0 0 0 0 0 0 0 0 0 0 0 0 0 0 0 0 127 0" result="hardAlpha"/>
<feOffset/>
<feGaussianBlur stdDeviation="9.0843"/>
<feComposite in2="hardAlpha" operator="arithmetic" k2="-1" k3="1"/>
<feColorMatrix type="matrix" values="0 0 0 0 1 0 0 0 0 1 0 0 0 0 1 0 0 0 1 0"/>
<feBlend mode="normal" in2="shape" result="effect1_innerShadow_466_21902"/>
</filter>
<filter id="filter3_i_466_21902" x="70.2266" y="36.4242" width="74.1973" height="126.778" filterUnits="userSpaceOnUse" color-interpolation-filters="sRGB">
<feFlood flood-opacity="0" result="BackgroundImageFix"/>
<feBlend mode="normal" in="SourceGraphic" in2="BackgroundImageFix" result="shape"/>
<feColorMatrix in="SourceAlpha" type="matrix" values="0 0 0 0 0 0 0 0 0 0 0 0 0 0 0 0 0 0 127 0" result="hardAlpha"/>
<feOffset/>
<feGaussianBlur stdDeviation="9.0843"/>
<feComposite in2="hardAlpha" operator="arithmetic" k2="-1" k3="1"/>
<feColorMatrix type="matrix" values="0 0 0 0 1 0 0 0 0 1 0 0 0 0 1 0 0 0 1 0"/>
<feBlend mode="normal" in2="shape" result="effect1_innerShadow_466_21902"/>
</filter>
<filter id="filter4_i_466_21902" x="4.57983" y="45.6006" width="56.5083" height="117.602" filterUnits="userSpaceOnUse" color-interpolation-filters="sRGB">
<feFlood flood-opacity="0" result="BackgroundImageFix"/>
<feBlend mode="normal" in="SourceGraphic" in2="BackgroundImageFix" result="shape"/>
<feColorMatrix in="SourceAlpha" type="matrix" values="0 0 0 0 0 0 0 0 0 0 0 0 0 0 0 0 0 0 127 0" result="hardAlpha"/>
<feOffset/>
<feGaussianBlur stdDeviation="9.0843"/>
<feComposite in2="hardAlpha" operator="arithmetic" k2="-1" k3="1"/>
<feColorMatrix type="matrix" values="0 0 0 0 1 0 0 0 0 1 0 0 0 0 1 0 0 0 1 0"/>
<feBlend mode="normal" in2="shape" result="effect1_innerShadow_466_21902"/>
</filter>
<filter id="filter5_i_466_21902" x="61.0806" y="74.9116" width="9.1499" height="89.2743" filterUnits="userSpaceOnUse" color-interpolation-filters="sRGB">
<feFlood flood-opacity="0" result="BackgroundImageFix"/>
<feBlend mode="normal" in="SourceGraphic" in2="BackgroundImageFix" result="shape"/>
<feColorMatrix in="SourceAlpha" type="matrix" values="0 0 0 0 0 0 0 0 0 0 0 0 0 0 0 0 0 0 127 0" result="hardAlpha"/>
<feOffset/>
<feGaussianBlur stdDeviation="9.0843"/>
<feComposite in2="hardAlpha" operator="arithmetic" k2="-1" k3="1"/>
<feColorMatrix type="matrix" values="0 0 0 0 1 0 0 0 0 1 0 0 0 0 1 0 0 0 1 0"/>
<feBlend mode="normal" in2="shape" result="effect1_innerShadow_466_21902"/>
</filter>
<filter id="filter6_i_466_21902" x="2.61084" y="1.34863" width="143.805" height="74.5924" filterUnits="userSpaceOnUse" color-interpolation-filters="sRGB">
<feFlood flood-opacity="0" result="BackgroundImageFix"/>
<feBlend mode="normal" in="SourceGraphic" in2="BackgroundImageFix" result="shape"/>
<feColorMatrix in="SourceAlpha" type="matrix" values="0 0 0 0 0 0 0 0 0 0 0 0 0 0 0 0 0 0 127 0" result="hardAlpha"/>
<feOffset/>
<feGaussianBlur stdDeviation="9.0843"/>
<feComposite in2="hardAlpha" operator="arithmetic" k2="-1" k3="1"/>
<feColorMatrix type="matrix" values="0 0 0 0 1 0 0 0 0 1 0 0 0 0 1 0 0 0 1 0"/>
<feBlend mode="normal" in2="shape" result="effect1_innerShadow_466_21902"/>
</filter>
<linearGradient id="paint0_linear_466_21902" x1="72.8251" y1="62.2051" x2="72.5658" y2="126.362" gradientUnits="userSpaceOnUse">
<stop stop-color="white" stop-opacity="0"/>
<stop offset="1" stop-color="#F1935C" stop-opacity="0.7"/>
</linearGradient>
<linearGradient id="paint1_linear_466_21902" x1="64.2183" y1="100.422" x2="83.1408" y2="100.422" gradientUnits="userSpaceOnUse">
<stop offset="0.01" stop-color="#F1935C"/>
<stop offset="0.222" stop-color="white"/>
<stop offset="0.394" stop-color="#DA6420"/>
<stop offset="0.626" stop-color="#CC6F2B"/>
<stop offset="0.712" stop-color="#E8680B"/>
<stop offset="0.899" stop-color="#F1893E"/>
<stop offset="0.98" stop-color="#F4812C"/>
</linearGradient>
<linearGradient id="paint2_linear_466_21902" x1="46.5815" y1="68.328" x2="88.9999" y2="60.4722" gradientUnits="userSpaceOnUse">
<stop offset="0.01" stop-color="#F1935C"/>
<stop offset="0.222" stop-color="white"/>
<stop offset="0.359" stop-color="#FAB380"/>
<stop offset="0.611" stop-color="#DA6420"/>
<stop offset="1" stop-color="#F4812C"/>
</linearGradient>
<radialGradient id="paint3_radial_466_21902" cx="0" cy="0" r="1" gradientUnits="userSpaceOnUse" gradientTransform="translate(61.484 88.701) rotate(-14.5355) scale(5.38693 4.87381)">
<stop stop-color="#28565D"/>
<stop offset="1"/>
</radialGradient>
<radialGradient id="paint4_radial_466_21902" cx="0" cy="0" r="1" gradientUnits="userSpaceOnUse" gradientTransform="translate(87.1276 89.6279) rotate(-164.069) scale(3.83932 3.48468)">
<stop stop-color="#509AA6"/>
<stop offset="1"/>
</radialGradient>
<linearGradient id="paint5_linear_466_21902" x1="98.5406" y1="88.0573" x2="45.1975" y2="83.5195" gradientUnits="userSpaceOnUse">
<stop offset="0.01" stop-color="#F1935C"/>
<stop offset="0.222" stop-color="white"/>
<stop offset="0.359" stop-color="#FAB380"/>
<stop offset="0.626" stop-color="#E8680B"/>
<stop offset="0.793" stop-color="#F1893E"/>
<stop offset="0.929" stop-color="#FAB380"/>
<stop offset="1" stop-color="#CC6F2B"/>
</linearGradient>
<linearGradient id="paint6_linear_466_21902" x1="49.9654" y1="70.7431" x2="100.48" y2="70.7431" gradientUnits="userSpaceOnUse">
<stop offset="0.01" stop-color="#F1935C"/>
<stop offset="0.222" stop-color="white"/>
<stop offset="0.359" stop-color="#FAB380"/>
<stop offset="0.626" stop-color="#DA6420"/>
<stop offset="0.788" stop-color="#F1893E"/>
<stop offset="1" stop-color="#FAB380"/>
</linearGradient>
<linearGradient id="paint7_linear_466_21902" x1="99.3211" y1="84.138" x2="47.4513" y2="84.138" gradientUnits="userSpaceOnUse">
<stop offset="0.01" stop-color="#F1935C"/>
<stop offset="0.222" stop-color="white"/>
<stop offset="0.359" stop-color="#DA6420"/>
<stop offset="0.626" stop-color="#E8680B"/>
<stop offset="0.793" stop-color="#F1935C"/>
<stop offset="0.929" stop-color="#FAB380"/>
<stop offset="1" stop-color="#F5791E"/>
</linearGradient>
<linearGradient id="paint8_linear_466_21902" x1="99.3211" y1="84.138" x2="47.4513" y2="84.138" gradientUnits="userSpaceOnUse">
<stop offset="0.01" stop-color="#F1935C"/>
<stop offset="0.222" stop-color="white"/>
<stop offset="0.359" stop-color="#DA6420"/>
<stop offset="0.626" stop-color="#E8680B"/>
<stop offset="0.793" stop-color="#F1935C"/>
<stop offset="0.929" stop-color="#FAB380"/>
<stop offset="1" stop-color="#F5791E"/>
</linearGradient>
<linearGradient id="paint9_linear_466_21902" x1="97.3036" y1="88.782" x2="41.9622" y2="78.4265" gradientUnits="userSpaceOnUse">
<stop offset="0.01" stop-color="#F1935C"/>
<stop offset="0.222" stop-color="white"/>
<stop offset="0.359" stop-color="#F1893E"/>
<stop offset="0.626" stop-color="#CC6F2B"/>
<stop offset="1" stop-color="#F99F5D"/>
</linearGradient>
<radialGradient id="paint10_radial_466_21902" cx="0" cy="0" r="1" gradientUnits="userSpaceOnUse" gradientTransform="translate(74.8497 85.4699) scale(24.5829 21.8798)">
<stop stop-color="#509AA6"/>
<stop offset="1" stop-color="white"/>
</radialGradient>
<radialGradient id="paint11_radial_466_21902" cx="0" cy="0" r="1" gradientUnits="userSpaceOnUse" gradientTransform="translate(60.5063 83.5377) rotate(-69.0734) scale(2.6056 2.8499)">
<stop stop-color="#28565D"/>
<stop offset="1"/>
</radialGradient>
<radialGradient id="paint12_radial_466_21902" cx="0" cy="0" r="1" gradientUnits="userSpaceOnUse" gradientTransform="translate(88.3356 61.3908) rotate(-69.0734) scale(2.6056 2.8499)">
<stop stop-color="#28565D"/>
<stop offset="1"/>
</radialGradient>
<linearGradient id="paint13_linear_466_21902" x1="83.9757" y1="65.5455" x2="83.9757" y2="53.2034" gradientUnits="userSpaceOnUse">
<stop stop-color="#FDD65B"/>
<stop offset="1" stop-color="white" stop-opacity="0"/>
</linearGradient>
<linearGradient id="paint14_linear_466_21902" x1="93.0456" y1="61.365" x2="109.651" y2="55.7784" gradientUnits="userSpaceOnUse">
<stop stop-color="#DA6420"/>
<stop offset="1" stop-color="#FEECA8"/>
<stop offset="1" stop-color="#F1935C"/>
</linearGradient>
<linearGradient id="paint15_linear_466_21902" x1="72.2541" y1="63.623" x2="101.139" y2="56.348" gradientUnits="userSpaceOnUse">
<stop stop-color="#DA6420"/>
<stop offset="1" stop-color="#FFC295"/>
</linearGradient>
<linearGradient id="paint16_linear_466_21902" x1="110.868" y1="36.4397" x2="96.8823" y2="66.3871" gradientUnits="userSpaceOnUse">
<stop stop-color="#FFA98C"/>
<stop offset="1" stop-color="#FEECA8"/>
</linearGradient>
<linearGradient id="paint17_linear_466_21902" x1="66.7875" y1="54.7409" x2="66.7875" y2="40.9005" gradientUnits="userSpaceOnUse">
<stop stop-color="#43E8E1"/>
<stop offset="1"/>
<stop offset="1" stop-color="white" stop-opacity="0"/>
</linearGradient>
<linearGradient id="paint18_linear_466_21902" x1="76.9692" y1="50.0475" x2="95.591" y2="43.7831" gradientUnits="userSpaceOnUse">
<stop offset="0.035" stop-color="#28565D"/>
<stop offset="1" stop-color="#509AA6"/>
</linearGradient>
<linearGradient id="paint19_linear_466_21902" x1="53.6507" y1="52.5828" x2="86.0436" y2="44.4241" gradientUnits="userSpaceOnUse">
<stop offset="0.035" stop-color="#28565D"/>
<stop offset="1" stop-color="#509AA6"/>
</linearGradient>
<linearGradient id="paint20_linear_466_21902" x1="96.9534" y1="22.0965" x2="81.2694" y2="55.6797" gradientUnits="userSpaceOnUse">
<stop offset="0.035" stop-color="#28565D"/>
<stop offset="1" stop-color="#2AF6FF"/>
</linearGradient>
<linearGradient id="paint21_linear_466_21902" x1="50.0587" y1="60.0454" x2="50.0587" y2="49.1056" gradientUnits="userSpaceOnUse">
<stop stop-color="#FDD65B"/>
<stop offset="1" stop-color="white" stop-opacity="0"/>
</linearGradient>
<linearGradient id="paint22_linear_466_21902" x1="58.0949" y1="56.3394" x2="72.8123" y2="51.3879" gradientUnits="userSpaceOnUse">
<stop stop-color="#F1935C"/>
<stop offset="1" stop-color="#FFC295"/>
</linearGradient>
<linearGradient id="paint23_linear_466_21902" x1="39.6675" y1="58.3442" x2="65.2718" y2="51.8953" gradientUnits="userSpaceOnUse">
<stop stop-color="#F1935C"/>
<stop offset="1" stop-color="#F3A771"/>
</linearGradient>
<linearGradient id="paint24_linear_466_21902" x1="73.8942" y1="34.2478" x2="61.4976" y2="60.7918" gradientUnits="userSpaceOnUse">
<stop offset="0.035" stop-color="#F1935C"/>
<stop offset="1" stop-color="#FAB380"/>
</linearGradient>
<linearGradient id="paint25_linear_466_21902" x1="61.7144" y1="69.3629" x2="61.7144" y2="57.1229" gradientUnits="userSpaceOnUse">
<stop stop-color="#28565D"/>
<stop offset="1" stop-color="white" stop-opacity="0"/>
</linearGradient>
<linearGradient id="paint26_linear_466_21902" x1="70.7121" y1="65.2128" x2="87.1802" y2="59.6723" gradientUnits="userSpaceOnUse">
<stop stop-color="#28565D"/>
<stop offset="1" stop-color="#509AA6"/>
</linearGradient>
<linearGradient id="paint27_linear_466_21902" x1="50.0922" y1="67.4555" x2="78.7402" y2="60.2401" gradientUnits="userSpaceOnUse">
<stop stop-color="#28565D"/>
<stop offset="1" stop-color="#509AA6"/>
</linearGradient>
<linearGradient id="paint28_linear_466_21902" x1="88.388" y1="40.4968" x2="74.5176" y2="70.1969" gradientUnits="userSpaceOnUse">
<stop stop-color="#28565D"/>
<stop offset="1" stop-color="#509AA6"/>
</linearGradient>
<linearGradient id="paint29_linear_466_21902" x1="52.3457" y1="75.0669" x2="52.3457" y2="67.3313" gradientUnits="userSpaceOnUse">
<stop stop-color="#43E8E1"/>
<stop offset="1" stop-color="white" stop-opacity="0"/>
</linearGradient>
<linearGradient id="paint30_linear_466_21902" x1="58.0249" y1="72.4441" x2="68.4325" y2="68.9429" gradientUnits="userSpaceOnUse">
<stop offset="0.035" stop-color="#28565D"/>
<stop offset="1" stop-color="#509AA6"/>
</linearGradient>
<linearGradient id="paint31_linear_466_21902" x1="44.9921" y1="73.8624" x2="63.0983" y2="69.3023" gradientUnits="userSpaceOnUse">
<stop offset="0.035" stop-color="#0D434B"/>
<stop offset="1" stop-color="#074E58"/>
</linearGradient>
<linearGradient id="paint32_linear_466_21902" x1="69.1951" y1="56.8213" x2="60.4291" y2="75.5916" gradientUnits="userSpaceOnUse">
<stop offset="0.035" stop-color="#0D434B"/>
<stop offset="1" stop-color="#67BAC8"/>
</linearGradient>
<linearGradient id="paint33_linear_466_21902" x1="78.0894" y1="74.3541" x2="78.0894" y2="64.3334" gradientUnits="userSpaceOnUse">
<stop stop-color="#43E8E1"/>
<stop offset="1" stop-color="white" stop-opacity="0"/>
</linearGradient>
<linearGradient id="paint34_linear_466_21902" x1="85.4631" y1="70.9593" x2="98.9447" y2="66.4234" gradientUnits="userSpaceOnUse">
<stop offset="0.035" stop-color="#28565D"/>
<stop offset="1" stop-color="#509AA6"/>
</linearGradient>
<linearGradient id="paint35_linear_466_21902" x1="68.5778" y1="72.7933" x2="92.0311" y2="66.8863" gradientUnits="userSpaceOnUse">
<stop offset="0.035" stop-color="#28565D"/>
<stop offset="1" stop-color="#509AA6"/>
</linearGradient>
<linearGradient id="paint36_linear_466_21902" x1="99.9299" y1="50.7225" x2="88.5743" y2="75.0376" gradientUnits="userSpaceOnUse">
<stop offset="0.035" stop-color="#34656D"/>
<stop offset="1" stop-color="#509AA6"/>
</linearGradient>
<linearGradient id="paint37_linear_466_21902" x1="66.0373" y1="81.8042" x2="66.0373" y2="73.519" gradientUnits="userSpaceOnUse">
<stop stop-color="#FDD65B"/>
<stop offset="1" stop-color="white" stop-opacity="0"/>
</linearGradient>
<linearGradient id="paint38_linear_466_21902" x1="72.1359" y1="78.998" x2="83.2829" y2="75.2477" gradientUnits="userSpaceOnUse">
<stop stop-color="#F1935C"/>
<stop offset="1" stop-color="#F6D9C5"/>
</linearGradient>
<linearGradient id="paint39_linear_466_21902" x1="58.1725" y1="80.5163" x2="77.565" y2="75.6322" gradientUnits="userSpaceOnUse">
<stop stop-color="#F1935C"/>
<stop offset="1" stop-color="#F7DFCD"/>
</linearGradient>
<linearGradient id="paint40_linear_466_21902" x1="84.0947" y1="62.2674" x2="74.7061" y2="82.3708" gradientUnits="userSpaceOnUse">
<stop stop-color="#F1935C"/>
<stop offset="1" stop-color="#F6D9C5"/>
</linearGradient>
<linearGradient id="paint41_linear_466_21902" x1="83.3034" y1="80.9251" x2="83.3034" y2="74.6719" gradientUnits="userSpaceOnUse">
<stop stop-color="#28565D"/>
<stop offset="1" stop-color="white" stop-opacity="0"/>
</linearGradient>
<linearGradient id="paint42_linear_466_21902" x1="87.9009" y1="78.8079" x2="96.3146" y2="75.9778" gradientUnits="userSpaceOnUse">
<stop stop-color="#28565D"/>
<stop offset="1" stop-color="#509AA6"/>
</linearGradient>
<linearGradient id="paint43_linear_466_21902" x1="77.3648" y1="79.9529" x2="91.9998" y2="76.2668" gradientUnits="userSpaceOnUse">
<stop stop-color="#28565D"/>
<stop offset="1" stop-color="#509AA6"/>
</linearGradient>
<linearGradient id="paint44_linear_466_21902" x1="96.929" y1="66.1773" x2="89.8428" y2="81.3505" gradientUnits="userSpaceOnUse">
<stop stop-color="#28565D"/>
<stop offset="1" stop-color="#509AA6"/>
</linearGradient>
<radialGradient id="paint45_radial_466_21902" cx="0" cy="0" r="1" gradientUnits="userSpaceOnUse" gradientTransform="translate(50.8544 69.4914) scale(22.4225 19.9569)">
<stop stop-color="#509AA6"/>
<stop offset="1" stop-color="#F1935C"/>
</radialGradient>
<radialGradient id="paint46_radial_466_21902" cx="0" cy="0" r="1" gradientUnits="userSpaceOnUse" gradientTransform="translate(85.1649 54.8142) scale(23.3868 20.8152)">
<stop stop-color="#28565D"/>
<stop offset="1" stop-color="#11010F"/>
</radialGradient>
<radialGradient id="paint47_radial_466_21902" cx="0" cy="0" r="1" gradientUnits="userSpaceOnUse" gradientTransform="translate(56.61 48.3565) scale(24.0501 21.4055)">
<stop stop-color="#34656D"/>
<stop offset="1" stop-color="#F1935C"/>
</radialGradient>
<radialGradient id="paint48_radial_466_21902" cx="0" cy="0" r="1" gradientUnits="userSpaceOnUse" gradientTransform="translate(47.3447 68.8721) scale(2.83051 2.51927)">
<stop stop-color="#34656D"/>
<stop offset="1"/>
</radialGradient>
<radialGradient id="paint49_radial_466_21902" cx="0" cy="0" r="1" gradientUnits="userSpaceOnUse" gradientTransform="translate(95.5253 52.1554) scale(2.83051 2.51927)">
<stop stop-color="#34656D"/>
<stop offset="1"/>
</radialGradient>
<radialGradient id="paint50_radial_466_21902" cx="0" cy="0" r="1" gradientUnits="userSpaceOnUse" gradientTransform="translate(55.7608 46.091) scale(2.83052 2.51927)">
<stop stop-color="#28565D"/>
<stop offset="1"/>
</radialGradient>
</defs>
</svg>
