<svg width="20" height="20" viewBox="0 0 20 20" fill="none" xmlns="http://www.w3.org/2000/svg">
<rect width="20" height="20" rx="5" fill="#28565D"/>
<path d="M14.2863 11.7141V9.14237C14.2863 7.93007 14.2863 7.32392 13.8679 6.94731C13.502 6.61797 12.941 6.57663 11.9053 6.57144H8.0958C7.06007 6.57663 6.49916 6.61797 6.13326 6.94731C5.71484 7.32392 5.71484 7.93007 5.71484 9.14237V11.7141C5.71484 12.9264 5.71484 13.5325 6.13326 13.9091C6.55168 14.2857 7.22512 14.2857 8.57199 14.2857H11.4291C12.776 14.2857 13.4494 14.2857 13.8679 13.9091C14.2863 13.5325 14.2863 12.9264 14.2863 11.7141Z" fill="white"/>
<path d="M8.28711 6.35719C8.28711 6.00213 8.57493 5.71429 8.92997 5.71429H11.0728C11.4279 5.71429 11.7157 6.00213 11.7157 6.35719V6.7858C11.7157 7.14086 11.4279 7.4287 11.0728 7.4287H8.92997C8.57493 7.4287 8.28711 7.14086 8.28711 6.7858V6.35719Z" fill="white"/>
<path fill-rule="evenodd" clip-rule="evenodd" d="M11.4149 9.35239C11.5361 9.48218 11.5291 9.68559 11.3993 9.80672L9.56255 11.5211C9.43905 11.6364 9.24741 11.6364 9.12392 11.5211L8.38922 10.8354C8.25945 10.7142 8.25243 10.5108 8.37356 10.381C8.49468 10.2512 8.69808 10.2442 8.82786 10.3654L9.34323 10.8464L10.9607 9.33673C11.0904 9.21559 11.2938 9.22261 11.4149 9.35239Z" fill="#28565D"/>
</svg>
