<svg width="103" height="30" viewBox="0 0 103 30" fill="none" xmlns="http://www.w3.org/2000/svg">
<path d="M17.0287 13.2114H33.0679V30H27.213L25.5637 26.7073C22.8974 28.9024 19.6126 30 15.7093 30C12.933 30 10.3767 29.4986 8.04019 28.4959C5.70373 27.4932 3.77958 25.9214 2.26775 23.7805C0.755916 21.6125 0 19.065 0 16.1382V13.8618C0 9.44445 1.58055 6.02981 4.74165 3.61789C7.93024 1.20596 11.971 0 16.8638 0C20.7946 0 24.1068 0.785908 26.8006 2.35772C29.5219 3.90244 31.3087 6.07046 32.1608 8.86179L22.5538 10.6911C22.114 9.55285 21.3581 8.64499 20.286 7.96748C19.2415 7.26287 18.032 6.91057 16.6576 6.91057C14.9534 6.91057 13.5103 7.43902 12.3283 8.49593C11.1738 9.52575 10.5966 11.0976 10.5966 13.2114V16.8293C10.5966 18.8618 11.1738 20.4201 12.3283 21.5041C13.5103 22.5881 15.0084 23.1301 16.8226 23.1301C19.5164 23.1301 21.413 21.8022 22.5125 19.1463H17.0287V13.2114Z" fill="#F1935C"/>
<path d="M34.9023 30V0H45.1064L57.8932 14.3571H57.9779V0H67.9702V30H58.1049L45.0217 15.1714H44.8947V30H34.9023Z" fill="#F1935C"/>
<path d="M92.8943 30L91.7614 26.0851H80.2549L79.0511 30H69.8105L80.6798 0H92.257L102.878 30H92.8943ZM82.3792 19.0213H89.6725L86.1675 7.06383H86.0258L82.3792 19.0213Z" fill="#F1935C"/>
</svg>
