<svg width="106" height="130" viewBox="0 0 106 130" fill="none" xmlns="http://www.w3.org/2000/svg">
<path d="M106.002 97.8113H0.0454102V101.311C0.0454102 103.644 1.74343 105.978 5.02628 107.781L41.1377 127.295C47.8166 130.901 58.5707 130.901 65.1364 127.295L101.021 107.781C104.304 105.978 106.002 103.644 106.002 101.311V97.8113Z" fill="url(#paint0_linear_214_4193)"/>
<path d="M100.905 91.2361C107.584 94.842 107.584 100.675 101.019 104.281L65.1336 123.795C58.5679 127.401 47.8137 127.401 41.1348 123.795L5.02342 104.281C-1.65549 100.675 -1.65548 94.842 4.91022 91.2361L40.7952 71.7218C47.3609 68.1159 58.1151 68.1159 64.794 71.7218L100.905 91.2361Z" fill="#B2D7FF"/>
<path d="M91.7342 92.5091C97.1679 95.3726 97.1679 100.145 91.8474 103.009L62.7546 118.811C57.4341 121.675 48.7175 121.675 43.2839 118.811L14.0778 103.009C8.64413 100.145 8.64412 95.3726 13.9646 92.5091L43.1706 76.7067C48.4911 73.8432 57.2077 73.8432 62.6414 76.7067L91.7342 92.5091Z" stroke="#F1935C" stroke-miterlimit="10"/>
<path d="M88.3419 69.9192H17.5908V95.7969C17.5908 97.3878 18.7228 98.9786 20.9869 100.145L45.0989 113.19C49.5137 115.629 56.7586 115.629 61.1735 113.19L85.1723 100.145C87.3231 98.9786 88.4551 97.3878 88.4551 95.7969V69.9192H88.3419Z" fill="url(#paint1_linear_214_4193)"/>
<path d="M84.9444 65.5709C89.3592 68.0102 89.3593 71.8282 85.0576 74.2675L61.0588 87.3125C56.644 89.7517 49.5122 89.7517 44.9842 87.3125L20.8722 74.2675C16.4573 71.8282 16.4573 68.0102 20.8722 65.5709L44.8709 52.526C49.2858 50.0867 56.4175 50.0867 60.8324 52.526L84.9444 65.5709Z" fill="#BCD0F1"/>
<path d="M52.9083 50.8291V51.3594C55.8515 51.3594 58.5684 51.9957 60.606 53.0563L84.718 66.1012C86.6424 67.1618 87.7744 68.5405 87.7744 70.0253C87.7744 71.5101 86.7556 72.8888 84.718 73.8433L60.7192 86.8882C58.6816 88.0548 55.9647 88.5851 53.0215 88.5851C50.0782 88.5851 47.3614 87.9488 45.3237 86.8882L21.2118 73.8433C19.2873 72.7827 18.1553 71.404 18.1553 69.9192C18.1553 68.4344 19.1741 67.0557 21.2118 65.9951L45.2106 52.9502C47.2482 51.7836 49.965 51.2533 52.9083 51.2533V50.8291ZM52.9083 50.8291C49.965 50.8291 47.135 51.4654 44.871 52.6321L20.8722 65.677C16.4573 68.1163 16.4573 71.9343 20.8722 74.3736L45.0974 87.3125C47.3614 88.4791 50.1915 89.1154 53.1347 89.1154C56.0779 89.1154 58.908 88.4791 61.172 87.3125L85.1708 74.2675C89.5857 71.8282 89.5857 68.0102 85.0576 65.5709L60.9456 52.526C58.6816 51.3594 55.7383 50.8291 52.9083 50.8291Z" fill="url(#paint2_linear_214_4193)"/>
<path d="M41.592 96.2214C42.158 96.5395 42.4976 97.1759 42.4976 97.8122V102.691C42.4976 103.221 42.0448 103.539 41.4788 103.221L23.2533 93.3579C22.6872 93.0397 22.3477 92.4034 22.3477 91.767V86.8884C22.3477 86.3581 22.8005 86.04 23.3665 86.3581L41.592 96.2214Z" fill="#F1935C"/>
<path d="M42.4976 102.69L24.2722 92.8271C23.7062 92.5089 23.3665 91.8726 23.3665 91.2362V86.3576C22.9137 86.1455 22.4609 86.3576 22.4609 86.8879V91.7665C22.4609 92.2968 22.9137 93.0392 23.3665 93.3574L41.592 103.221C42.158 103.539 42.6108 103.327 42.4976 102.69Z" fill="#1964BA"/>
<path d="M23.9321 84.4489L24.7246 84.0247C24.8378 83.9186 24.9509 83.7065 24.9509 83.4944C24.9509 82.9641 24.4981 82.3278 24.0453 82.0096C23.8189 81.9036 23.5925 81.9036 23.3661 81.9036L22.5737 82.3278L23.9321 84.4489Z" fill="url(#paint3_linear_214_4193)"/>
<path d="M23.9717 84.4045C24.2971 84.2297 24.2835 83.6349 23.9414 83.076C23.5992 82.5172 23.0581 82.2058 22.7327 82.3807C22.4073 82.5555 22.4209 83.1503 22.7631 83.7092C23.1052 84.2681 23.6463 84.5794 23.9717 84.4045Z" fill="#2185F8"/>
<path d="M23.7479 84.0376C23.9649 83.921 23.9643 83.5382 23.7465 83.1825C23.5288 82.8268 23.1763 82.6329 22.9593 82.7496C22.7423 82.8662 22.7429 83.249 22.9607 83.6047C23.1784 83.9604 23.5309 84.1543 23.7479 84.0376Z" fill="#F1935C"/>
<path d="M27.6695 86.3578L28.4619 85.9336C28.5751 85.8276 28.6883 85.6155 28.6883 85.4033C28.6883 84.8731 28.2355 84.2367 27.7826 83.9186C27.5562 83.8125 27.3299 83.8125 27.1035 83.8125L26.311 84.2367L27.6695 86.3578Z" fill="url(#paint4_linear_214_4193)"/>
<path d="M27.7163 86.4065C28.0417 86.2316 28.0281 85.6369 27.686 85.078C27.3438 84.5191 26.8027 84.2078 26.4773 84.3826C26.152 84.5575 26.1655 85.1523 26.5077 85.7111C26.8498 86.27 27.391 86.5813 27.7163 86.4065Z" fill="#2185F8"/>
<path d="M27.4926 86.0386C27.7096 85.922 27.709 85.5391 27.4912 85.1834C27.2734 84.8277 26.921 84.6339 26.704 84.7505C26.487 84.8671 26.4876 85.25 26.7053 85.6057C26.9231 85.9614 27.2755 86.1552 27.4926 86.0386Z" fill="#FFE200"/>
<path d="M42.6082 97.8121C42.6082 97.2818 42.1554 96.5394 41.7026 96.2212L23.4771 86.358C23.2507 86.252 23.0243 86.252 22.9111 86.252L16.9114 88.0549C16.685 88.161 16.5718 88.3731 16.5718 88.6912V94.3122C16.5718 94.9486 17.0246 95.797 17.7038 96.1152L37.8537 107.463C38.3065 107.675 38.7593 107.463 38.8725 107.251C39.7782 106.191 42.495 103.115 42.495 103.115C42.495 103.115 42.7214 103.009 42.7214 102.585L42.6082 97.8121Z" fill="url(#paint5_linear_214_4193)"/>
<path d="M27.5493 61.9653L67.6227 83.8129L67.736 109.585L79.3957 116.16" stroke="#28565D" stroke-width="0.25" stroke-miterlimit="10" stroke-linejoin="round"/>
<path d="M30.1538 60.5857L70.1141 82.4333L70.2272 108.205L81.887 114.78" stroke="#28565D" stroke-width="0.25" stroke-miterlimit="10" stroke-linejoin="round"/>
<path d="M32.6377 59.208L72.7111 81.0556L72.8243 106.827L84.3709 113.403" stroke="#28565D" stroke-width="0.25" stroke-miterlimit="10" stroke-linejoin="round"/>
<path d="M35.1367 57.8286L75.2102 79.6762L75.3234 105.448L86.9832 112.023" stroke="#28565D" stroke-width="0.25" stroke-miterlimit="10" stroke-linejoin="round"/>
<path d="M37.7339 56.4509L77.6941 78.2985L77.9205 104.176L89.4671 110.646" stroke="#28565D" stroke-width="0.25" stroke-miterlimit="10" stroke-linejoin="round"/>
<path d="M40.2256 55.0713L80.299 76.9189L80.4122 102.797L91.9588 109.266" stroke="#28565D" stroke-width="0.25" stroke-miterlimit="10" stroke-linejoin="round"/>
<path d="M5.7002 11.0716C5.7002 11.9201 6.0398 12.5564 6.4926 12.7685L7.73783 13.4049C7.73783 13.4049 20.19 4.70825 20.19 3.22346C20.19 3.22346 20.19 2.69318 20.0768 2.37501C20.3032 2.26895 20.6428 2.1629 20.6428 2.1629C20.4164 2.05684 19.7372 1.63262 19.3976 1.52656C18.9448 1.4205 18.1524 1.63262 17.926 1.73867C17.926 1.4205 17.8128 1.10234 17.6996 0.890223L18.2656 0.784166L17.1336 0.14783C16.6808 -0.0642829 16.1148 -0.0642835 15.5487 0.253885C15.2091 0.465998 14.9827 0.678111 14.7563 0.890223C14.7563 0.890223 14.1903 0.572054 13.8507 0.359942C13.5111 0.147829 13.1715 0.14783 12.8319 0.14783C12.7187 0.14783 12.6055 0.14783 12.4923 0.14783C12.3791 0.14783 12.3791 0.14783 12.2659 0.14783C11.9263 0.253886 11.5867 0.359942 11.2471 0.572054C9.88865 1.31445 8.64344 2.79924 7.96423 4.60219C7.51142 5.66275 7.17181 7.04148 7.28501 7.78388C5.92659 9.05655 5.7002 9.905 5.7002 11.0716Z" fill="url(#paint6_linear_214_4193)"/>
<path d="M7.05908 11.8136C7.05908 13.2984 8.0779 14.0408 9.32312 13.4044C9.32312 13.4044 9.43633 13.4044 9.43633 13.2984L19.2849 7.88952C19.2849 7.88952 19.3981 7.88952 19.3981 7.78346C20.6433 7.14713 21.5489 5.34417 21.5489 3.85938C21.5489 2.3746 20.5301 1.6322 19.2849 2.26854C19.2849 2.26854 19.2849 2.26854 19.1717 2.26854C19.0585 0.677695 18.0397 0.0413571 16.6812 0.783751C16.3416 0.995863 16.002 1.31403 15.6624 1.6322C14.9832 0.677695 13.738 0.465583 12.3796 1.20798C10.2287 2.3746 8.41751 5.55628 8.53071 8.31374C7.62509 9.26825 7.05908 10.647 7.05908 11.8136Z" fill="#F3F8FE"/>
<path d="M19.287 7.78322C20.5322 7.14688 21.4378 5.34393 21.4378 3.85914C21.4378 2.37435 20.419 1.63196 19.1738 2.26829C19.1738 2.26829 19.1738 2.26829 19.0606 2.26829C18.9474 0.677451 17.9286 0.041113 16.5701 0.783507C16.2305 0.995619 15.8909 1.31379 15.5513 1.63196C14.8721 0.677451 13.6269 0.465339 12.2685 1.20773L12.1553 1.31379L17.3626 8.84378L19.0606 7.88927C19.1738 7.88927 19.287 7.88927 19.287 7.78322Z" fill="url(#paint7_linear_214_4193)"/>
<path d="M98.8694 15.2082C98.8694 15.7385 98.643 16.0567 98.4166 16.1627L97.7374 16.587C97.7374 16.587 90.3792 11.4963 90.3792 10.5418C90.3792 10.5418 90.3793 10.2236 90.4925 10.0115C90.3793 10.0115 90.1528 9.90542 90.1528 9.90542C90.266 9.79937 90.7188 9.58726 90.832 9.4812C91.0585 9.37514 91.6244 9.4812 91.7377 9.58726C91.7377 9.37514 91.7377 9.26909 91.8509 9.05698L91.5113 8.95092L92.1905 8.52669C92.4169 8.42064 92.7565 8.42064 93.2093 8.63275C93.4357 8.73881 93.5489 8.84486 93.6621 9.05698C93.6621 9.05698 94.0017 8.84486 94.2281 8.73881C94.4545 8.63275 94.6809 8.63275 94.9073 8.63275C95.0205 8.63275 95.0205 8.63275 95.1337 8.63275H95.2469C95.4733 8.63275 95.6997 8.73881 95.8129 8.84486C96.6053 9.26909 97.3978 10.2236 97.7374 11.1781C97.9638 11.8144 98.1902 12.5568 98.077 13.0871C98.643 14.0416 98.8694 14.4658 98.8694 15.2082Z" fill="url(#paint8_linear_214_4193)"/>
<path d="M98.0765 15.6324C98.0765 16.4809 97.5105 16.9051 96.7181 16.5869C96.7181 16.5869 96.7181 16.5869 96.6049 16.5869L90.8316 13.4052C90.8316 13.4052 90.8316 13.4052 90.7184 13.4052C90.0392 12.981 89.4731 11.9204 89.4731 11.072C89.4731 10.2235 90.0392 9.79931 90.8316 10.1175C90.8316 9.16298 91.5108 8.73875 92.3032 9.16298C92.5296 9.26903 92.756 9.48115 92.8692 9.5872C93.322 9.05692 94.0012 8.84481 94.7936 9.37509C96.0389 10.1175 97.1709 12.0265 97.0577 13.6173C97.7369 14.1476 98.0765 14.89 98.0765 15.6324Z" fill="#F3F8FE"/>
<path d="M90.8317 13.299C90.1524 12.8748 89.5864 11.8142 89.5864 10.9658C89.5864 10.1173 90.1524 9.69311 90.9449 10.0113C90.9449 9.05678 91.6241 8.63255 92.4165 9.05678C92.6429 9.16283 92.8693 9.37494 92.9825 9.481C93.4353 8.95072 94.1145 8.73861 94.9069 9.26889C94.9069 9.26889 94.9069 9.26889 95.0201 9.37494L91.9637 13.8293L90.8317 13.299Z" fill="url(#paint9_linear_214_4193)"/>
<path d="M82.1653 39.8867H22.355V69.4944C22.355 70.8281 23.3119 72.1617 25.2259 73.1398L45.6092 84.0759C49.3414 86.1209 55.466 86.1209 59.1981 84.0759L79.4858 73.1398C81.304 72.1617 82.261 70.8281 82.261 69.4944V39.8867H82.1653Z" fill="url(#paint10_linear_214_4193)"/>
<path d="M79.2958 36.3295C83.028 38.3745 83.028 41.5753 79.3915 43.6203L59.1039 54.5564C55.3717 56.6014 49.3428 56.6014 45.515 54.5564L25.1316 43.6203C21.3995 41.5753 21.3995 38.3745 25.1316 36.3295L45.4193 25.3933C49.1514 23.3484 55.1803 23.3484 58.9125 25.3933L79.2958 36.3295Z" fill="#D0E0FF"/>
<path d="M52.2137 23.8813V24.3259C54.7019 24.3259 56.9986 24.8594 58.7211 25.7485L79.1045 36.6847C80.7313 37.5738 81.6883 38.7296 81.6883 39.9744C81.6883 41.2192 80.827 42.375 79.1045 43.1752L58.8168 54.1114C57.0943 55.0894 54.7976 55.534 52.3094 55.534C49.8213 55.534 47.5246 55.0005 45.8021 54.1114L25.4187 43.1752C23.7919 42.2861 22.8349 41.1303 22.8349 39.8855C22.8349 38.6407 23.6962 37.4849 25.4187 36.5957L45.7064 25.6596C47.4289 24.6816 49.7256 24.237 52.2137 24.237V23.8813ZM52.2137 23.8813C49.7256 23.8813 47.3332 24.4148 45.4193 25.3928L25.1316 36.329C21.3995 38.374 21.3995 41.5748 25.1316 43.6198L45.515 54.5559C47.4289 55.534 49.8213 56.0674 52.3094 56.0674C54.7976 56.0674 57.19 55.534 59.1039 54.5559L79.3915 43.6198C83.1237 41.5748 83.1237 38.374 79.2958 36.329L58.9125 25.3928C57.0943 24.4148 54.6062 23.8813 52.2137 23.8813Z" fill="url(#paint11_linear_214_4193)"/>
<path d="M52.2093 27.8836C54.1232 27.8836 55.8458 28.2393 57.1855 29.0395L72.5926 37.3083C73.9324 38.0196 74.6022 38.9087 74.6022 39.8867C74.6022 40.8648 73.9324 41.7539 72.5926 42.4652L57.2812 50.734C55.9414 51.4453 54.2189 51.8898 52.305 51.8898C50.391 51.8898 48.6685 51.5342 47.3287 50.734L31.9216 42.4652C30.5819 41.7539 29.912 40.8648 29.912 39.8867C29.912 38.9087 30.5819 38.0196 31.9216 37.3083L47.233 29.0395C48.5728 28.3282 50.2953 27.8836 52.2093 27.8836ZM52.2093 27.7058C50.391 27.7058 48.4771 28.0615 47.1374 28.8617L31.8259 37.1305C28.955 38.642 29.0507 41.1315 31.8259 42.643L47.233 50.9118C48.6685 51.712 50.4868 52.0677 52.4007 52.0677C54.2189 52.0677 56.1328 51.712 57.5683 50.9118L72.8797 42.643C75.6549 41.1315 75.6549 38.642 72.8797 37.1305L57.4726 28.8617C55.9414 28.1504 54.0275 27.7058 52.2093 27.7058Z" fill="#F1935C"/>
<path d="M44.276 58.646C45.7114 59.4462 46.8598 61.3134 46.8598 62.8249L46.7641 79.2736C46.7641 80.7851 45.6157 81.4075 44.1803 80.6962L27.242 71.6272C25.8065 70.827 24.6582 68.9598 24.6582 67.4483L24.7539 50.9996C24.7539 49.4881 25.9022 48.8657 27.3377 49.577L44.276 58.646Z" fill="#F3F8FE"/>
<mask id="mask0_214_4193" style="mask-type:luminance" maskUnits="userSpaceOnUse" x="24" y="49" width="23" height="32">
<path d="M44.276 58.6451C45.7114 59.4453 46.8598 61.3124 46.8598 62.8239L46.7641 79.2726C46.7641 80.7841 45.6157 81.4065 44.1803 80.6952L27.242 71.6262C25.8065 70.826 24.6582 68.9588 24.6582 67.4473L24.7539 50.9986C24.7539 49.4871 25.9022 48.8647 27.3377 49.576L44.276 58.6451Z" fill="white"/>
</mask>
<g mask="url(#mask0_214_4193)">
<path d="M44.276 58.6451C45.7114 59.4453 46.8598 61.3124 46.8598 62.8239L46.7641 79.2726C46.7641 80.7841 45.6157 81.4065 44.1803 80.6952L27.242 71.6262C25.8065 70.826 24.6582 68.9588 24.6582 67.4473L24.7539 50.9986C24.7539 49.4871 25.9022 48.8647 27.3377 49.576L44.276 58.6451Z" fill="#F3F8FE"/>
</g>
<path d="M46.769 79.2739L46.8647 62.8252C46.8647 61.4026 45.9077 59.7133 44.568 58.9131L25.1416 69.4047C25.6201 70.2938 26.3856 71.1829 27.2469 71.6275L44.1852 80.6965C45.6206 81.4078 46.769 80.7854 46.769 79.2739Z" fill="url(#paint12_linear_214_4193)"/>
<path d="M32.7951 52.5117L28.6801 54.7345C28.2973 54.9123 28.0103 55.4458 28.0103 55.8015V64.5148C28.0103 64.8705 28.2973 65.0483 28.6801 64.8705L42.269 57.5797L32.7951 52.5117Z" fill="#1964BA"/>
<path d="M33.2785 52.7769L29.1635 54.9997C28.7807 55.1775 28.4937 55.7109 28.4937 56.0666V64.78C28.4937 65.1356 28.7807 65.3134 29.1635 65.1356L42.7524 57.8448L33.2785 52.7769Z" fill="#C9D9F4"/>
<path d="M31.4533 54.8261C31.6448 54.7372 31.7405 54.8261 31.7405 55.004C31.7405 55.1818 31.6448 55.3596 31.4533 55.4485C31.2618 55.5374 31.166 55.4485 31.166 55.2707C31.2618 55.1818 31.3575 54.9151 31.4533 54.8261Z" fill="#34656D"/>
<path opacity="0.8" d="M29.9228 57.8464C29.8272 57.9353 29.7314 58.0243 29.7314 58.1132V63.6257C29.7314 63.7146 29.8272 63.8035 29.9228 63.7146L37.3872 59.7136C37.4829 59.6247 37.5786 59.5358 37.5786 59.4468V55.1791L36.2388 54.4678L29.9228 57.8464Z" fill="#34656D"/>
<path d="M29.6339 55.8022C29.8254 55.7133 29.9212 55.8022 29.9212 55.98C29.9212 56.1579 29.8254 56.3357 29.6339 56.4246C29.4424 56.5135 29.3467 56.4246 29.3467 56.2468C29.4424 56.1579 29.5382 55.8911 29.6339 55.8022Z" fill="#34656D"/>
<path d="M30.5924 55.3564C30.7839 55.2675 30.8797 55.3564 30.8797 55.5342C30.8797 55.7121 30.7839 55.8899 30.5924 55.9788C30.4009 56.0677 30.3052 55.9788 30.3052 55.801C30.3052 55.6231 30.4009 55.4453 30.5924 55.3564Z" fill="#34656D"/>
<path d="M33.9392 57.9881L30.877 59.5885H30.7812C30.7812 59.5885 30.7813 59.4996 30.877 59.4996L33.9392 57.8992H34.0349L33.9392 57.9881Z" fill="#6491FB"/>
<path d="M35.7577 57.01L34.418 57.7214H34.3223C34.3223 57.7214 34.3223 57.6324 34.418 57.6324L35.7577 56.9211H35.8534C35.7577 57.0101 35.7577 57.01 35.7577 57.01Z" fill="#FF9999"/>
<path d="M33.9384 58.3953L32.3115 59.2845H32.2158C32.2158 59.2845 32.2158 59.1955 32.3115 59.1955L33.9384 58.3064H34.0341C34.0341 58.3953 33.9384 58.3953 33.9384 58.3953Z" fill="#FF9999"/>
<path d="M31.9296 59.4629L30.877 60.0853H30.7812C30.7812 60.0853 30.7813 59.9964 30.877 59.9964L31.9296 59.374H32.0253C32.0253 59.4629 32.0253 59.4629 31.9296 59.4629Z" fill="#FF9999"/>
<path d="M35.7577 57.5067L34.418 58.218H34.3223C34.3223 58.218 34.3223 58.129 34.418 58.129L35.7577 57.4177H35.8534C35.7577 57.4177 35.7577 57.4178 35.7577 57.5067Z" fill="#A69CFB"/>
<path d="M32.8817 57.723L30.9678 58.7899H30.8721C30.8721 58.7899 30.8721 58.701 30.9678 58.701L32.8817 57.634H32.9774C32.8817 57.634 32.8817 57.723 32.8817 57.723Z" fill="#6491FB"/>
<path d="M34.0336 57.0994L33.1723 57.544H33.0767C33.0767 57.544 33.0767 57.4551 33.1723 57.4551L34.0336 57.0105H34.1293C34.0336 57.0105 34.0336 57.0994 34.0336 57.0994Z" fill="#A69CFB"/>
<path d="M36.4203 55.8552L34.4106 56.9222H34.3149C34.3149 56.9222 34.3149 56.8333 34.4106 56.8333L36.4203 55.7664H36.5159C36.4203 55.7664 36.4203 55.7663 36.4203 55.8552Z" fill="#94F2B5"/>
<path d="M34.4131 59.877L36.327 58.81L36.4227 58.7212C36.4227 58.7212 36.4227 58.6322 36.327 58.7212L34.4131 59.7881C34.4131 59.7881 34.4131 59.7881 34.4131 59.877Z" fill="#6491FB"/>
<path d="M33.2627 60.4988L34.124 60.0542L34.2197 59.9653C34.2197 59.9653 34.2197 59.8764 34.124 59.9653L33.2627 60.4099C33.2627 60.4099 33.1671 60.4099 33.2627 60.4988Z" fill="#94F2B5"/>
<path d="M30.8721 61.8334L32.8817 60.7664L32.9774 60.6775C32.9774 60.6775 32.9774 60.5885 32.8817 60.6775L30.8721 61.7444C30.8721 61.6555 30.8721 61.7444 30.8721 61.8334Z" fill="#FF9999"/>
<path d="M32.121 58.4912L30.877 59.2025H30.7812C30.7812 59.2025 30.7813 59.1136 30.877 59.1136L32.121 58.4023H32.2167C32.2167 58.4913 32.2167 58.4912 32.121 58.4912Z" fill="#A69CFB"/>
<path d="M34.8021 57.0704L32.4097 58.4041H32.314C32.314 58.4041 32.314 58.3151 32.4097 58.3151L34.8021 56.9814H34.8978C34.8978 57.0704 34.8978 57.0704 34.8021 57.0704Z" fill="#94F2B5"/>
<path d="M36.621 56.1807L35.0898 56.9809H34.9941C34.9941 56.9809 34.9941 56.892 35.0898 56.892L36.621 56.0918H36.7167C36.7167 56.0918 36.621 56.0918 36.621 56.1807Z" fill="#6491FB"/>
<path d="M35.3764 59.6703L36.6205 58.959H36.7162C36.7162 58.959 36.7162 59.0479 36.6205 59.0479L35.3764 59.7592H35.2808C35.2808 59.7592 35.2808 59.6703 35.3764 59.6703Z" fill="#94F2B5"/>
<path d="M32.6963 61.092L35.0887 59.7583H35.1844C35.1844 59.7583 35.1844 59.8472 35.0887 59.8472L32.6963 61.1809H32.6006C32.6006 61.1809 32.6006 61.1809 32.6963 61.092Z" fill="#FFC99C"/>
<path d="M30.877 62.0698L32.4081 61.2695H32.5038C32.5038 61.2695 32.5038 61.3585 32.4081 61.3585L30.877 62.1587H30.7812C30.8769 62.1587 30.877 62.0698 30.877 62.0698Z" fill="#A69CFB"/>
<path d="M33.9392 59.7149L30.877 61.3153H30.7812C30.7812 61.3153 30.7813 61.2264 30.877 61.2264L33.9392 59.626H34.0349L33.9392 59.7149Z" fill="#FFC99C"/>
<path d="M35.7577 58.7376L34.418 59.4489H34.3223C34.3223 59.4489 34.3223 59.36 34.418 59.36L35.7577 58.6487H35.8534C35.7577 58.6487 35.7577 58.7376 35.7577 58.7376Z" fill="#FF9999"/>
<path d="M32.121 60.2197L30.877 60.9311H30.7812C30.7812 60.9311 30.7813 60.8421 30.877 60.8421L32.121 60.1309H32.2167C32.2167 60.2198 32.2167 60.2197 32.121 60.2197Z" fill="#94F2B5"/>
<path d="M34.8021 58.7959L32.4097 60.1296H32.314C32.314 60.1296 32.314 60.0407 32.4097 60.0407L34.8021 58.707H34.8978C34.8978 58.7959 34.8978 58.7959 34.8021 58.7959Z" fill="#6491FB"/>
<path d="M36.621 57.8179L35.0898 58.6181H34.9941C34.9941 58.6181 34.9941 58.5292 35.0898 58.5292L36.621 57.729H36.7167C36.7167 57.8179 36.621 57.8179 36.621 57.8179Z" fill="#94F2B5"/>
<path d="M31.9296 59.9573L30.877 60.4907H30.7812C30.7812 60.4907 30.7813 60.4019 30.877 60.4019L31.9296 59.8684H32.0253C31.9296 59.8684 31.9296 59.9573 31.9296 59.9573Z" fill="#A69CFB"/>
<path d="M34.1322 58.7996L32.1225 59.8666H32.0269C32.0269 59.8666 32.0268 59.7776 32.1225 59.7776L34.1322 58.7107H34.2279C34.2279 58.7107 34.1322 58.7107 34.1322 58.7996Z" fill="#FF9999"/>
<path d="M36.3294 57.5554L34.3198 58.6224H34.2241C34.2241 58.6224 34.2241 58.5335 34.3198 58.5335L36.3294 57.4666H36.4251C36.4251 57.4666 36.4251 57.5554 36.3294 57.5554Z" fill="#FFC99C"/>
<mask id="mask1_214_4193" style="mask-type:luminance" maskUnits="userSpaceOnUse" x="24" y="49" width="23" height="32">
<path d="M44.276 58.6451C45.7114 59.4453 46.8598 61.3124 46.8598 62.8239L46.7641 79.2726C46.7641 80.7841 45.6157 81.4065 44.1803 80.6952L27.242 71.6262C25.8065 70.826 24.6582 68.9588 24.6582 67.4473L24.7539 50.9986C24.7539 49.4871 25.9022 48.8647 27.3377 49.576L44.276 58.6451Z" fill="white"/>
</mask>
<g mask="url(#mask1_214_4193)">
<path d="M26.0985 49.6667C26.3856 49.6667 26.6727 49.7556 27.0555 49.9335L43.9938 59.0025C45.2378 59.7138 46.3862 61.4031 46.3862 62.8257L46.2905 79.2744C46.2905 79.5411 46.1948 80.5191 45.3335 80.5191C45.0464 80.5191 44.7593 80.4302 44.3765 80.2524L27.4383 71.1834C26.1942 70.4721 25.0459 68.7828 25.0459 67.3602L25.1416 50.9115C25.1416 50.6448 25.2373 49.6667 26.0985 49.6667ZM26.0985 49.2222C25.2373 49.2222 24.6631 49.8445 24.6631 50.9115L24.5674 67.3602C24.5674 68.8717 25.7157 70.7388 27.1512 71.5391L44.0895 80.6081C44.4723 80.8748 44.9507 80.9637 45.2378 80.9637C46.0991 80.9637 46.6733 80.3413 46.6733 79.2744L46.769 62.8257C46.769 61.3142 45.6206 59.447 44.1852 58.6468L27.2469 49.5778C26.8641 49.3111 26.4813 49.2222 26.0985 49.2222Z" fill="url(#paint13_linear_214_4193)"/>
</g>
<path d="M48.6763 60.068L45.7097 61.6684L42.3603 59.8901L41.6904 60.2458L45.0398 62.024V63.4466C45.0398 63.5355 45.0398 63.7133 45.0398 63.8023C45.0398 63.8912 44.9441 63.9801 44.9441 64.069C44.9441 64.1579 44.8484 64.1579 44.8484 64.2468C44.7527 64.3357 44.657 64.4246 44.5613 64.5136L45.2312 64.1579C45.3269 64.069 45.4226 63.9801 45.5183 63.8912C45.5183 63.8912 45.5183 63.8023 45.614 63.8023V63.7134V63.6244V63.5355V63.4466V63.3577V63.2688V63.1799V62.4686L48.5806 60.8682L48.6763 60.068Z" fill="#28565D"/>
<path d="M28.4859 49.219L24.7537 51.175L21.4043 49.3968L25.0408 47.3518L28.4859 49.219Z" fill="#509AA6"/>
<path d="M48.6816 60.0664L45.0452 62.0224L41.6001 60.2442L45.3323 58.1992L48.6816 60.0664Z" fill="#509AA6"/>
<path d="M41.9775 56.4208L38.2454 58.3769L34.896 56.5986L38.5325 54.6426L41.9775 56.4208Z" fill="#509AA6"/>
<path d="M45.3296 58.1991L41.5974 60.2441L38.248 58.377L41.9802 56.4209L45.3296 58.1991Z" fill="#EBC3AA"/>
<path d="M38.5371 54.6423L34.9006 56.5984L31.5513 54.8201L35.1878 52.7751L38.5371 54.6423Z" fill="#EBC3AA"/>
<path d="M35.1851 52.776L31.5486 54.821L28.1992 52.9539L31.8357 50.9978L35.1851 52.776Z" fill="#509AA6"/>
<path d="M31.8379 50.9967L28.2014 52.9528L24.7563 51.1746L28.4885 49.2185L31.8379 50.9967Z" fill="#EBC3AA"/>
<path d="M28.2014 52.9584V54.381C28.2014 55.359 27.4359 55.8036 26.4789 55.2701C25.5219 54.7367 24.7563 53.5808 24.7563 52.6028V51.1802L28.2014 52.9584Z" fill="#F1935C"/>
<path d="M24.7585 51.1801V52.6027C24.7585 53.5807 23.993 54.0253 23.036 53.4918C22.079 52.9583 21.3135 51.8025 21.3135 50.8245V49.4019L24.7585 51.1801Z" fill="#28565D"/>
<path d="M38.2503 58.4692V59.8918C38.2503 60.8698 37.4847 61.3143 36.5277 60.7809C35.5708 60.2474 34.8052 59.0915 34.8052 58.1135V56.6909L38.2503 58.4692Z" fill="#28565D"/>
<path d="M34.8982 56.6025V58.025C34.8982 59.0031 34.1326 59.4476 33.1757 58.9142C32.2187 58.3807 31.4531 57.2248 31.4531 56.2468V54.8242L34.8982 56.6025Z" fill="#F1935C"/>
<path d="M31.5457 54.8241V56.2467C31.5457 57.2247 30.7801 57.6693 29.8231 57.1358C28.8662 56.6024 28.1006 55.4465 28.1006 54.4685V53.0459L31.5457 54.8241Z" fill="#28565D"/>
<path d="M41.6023 60.2465V61.6691C41.6023 62.6471 40.8367 63.0917 39.8798 62.5582C38.9228 62.0247 38.1572 60.8689 38.1572 59.8909V58.4683L41.6023 60.2465Z" fill="#F1935C"/>
<path d="M45.0452 62.0248V63.4474C45.0452 64.4254 44.2796 64.87 43.3227 64.3365C42.3657 63.8031 41.6001 62.6472 41.6001 61.6692V60.2466L45.0452 62.0248Z" fill="#28565D"/>
<path d="M48.7845 34.8684C51.8135 32.2638 58.7337 32.193 61.7723 34.8508C63.1759 33.4055 61.804 31.7055 60.745 31.0092C57.9824 29.1923 52.3352 29.5599 49.5762 31.0092C49.0503 31.2854 47.0966 33.23 48.7845 34.8684Z" fill="url(#paint14_linear_214_4193)"/>
<path d="M46.2579 30.4199L46.2775 36.8418L47.7983 38.0064L47.7791 31.5844L46.2579 30.4199Z" fill="url(#paint15_linear_214_4193)"/>
<path d="M62.5668 31.5845L62.5864 38.0068L64.1211 36.8422L64.1018 30.4199L62.5668 31.5845Z" fill="url(#paint16_linear_214_4193)"/>
<path d="M63.925 35.2252L63.9442 38.0813L66.5371 37.8463L66.5175 34.9902L63.925 35.2252Z" fill="url(#paint17_linear_214_4193)"/>
<path d="M46.3752 35.2244C46.3911 35.2718 46.4085 35.3185 46.4275 35.3656L46.4468 38.2217C46.4282 38.175 46.4107 38.1279 46.3944 38.0808L43.7102 37.8432L43.7836 34.9873L46.3752 35.2244Z" fill="url(#paint18_linear_214_4193)"/>
<path d="M46.4289 35.3665C46.4921 35.5244 46.5687 35.6789 46.6615 35.833C46.7618 36.0001 46.8831 36.1645 47.0183 36.3259C47.1779 36.5168 47.3597 36.706 47.5675 36.8864C47.6264 36.9372 47.6854 36.9868 47.7481 37.0369L47.7681 39.8925C47.7056 39.8423 47.6466 39.7928 47.5877 39.742V39.7344H47.0264H46.6736H46.5332C46.5023 38.9589 46.4748 38.2868 46.449 38.2221L46.4289 35.3665Z" fill="url(#paint19_linear_214_4193)"/>
<path d="M62.5332 37.0373L62.5524 39.8934C63.2559 39.3356 63.7218 38.7189 63.9473 38.0813L63.9279 35.2253C63.7022 35.8625 63.2366 36.4796 62.5332 37.0373Z" fill="url(#paint20_linear_214_4193)"/>
<path d="M47.9719 39.1605L47.9911 42.0166L50.1387 41.1857L50.1194 38.3296L47.9719 39.1605Z" fill="url(#paint21_linear_214_4193)"/>
<path d="M50.866 38.5772C50.9961 38.6158 51.1313 38.6479 51.2644 38.6831C51.4036 38.7195 51.541 38.7588 51.6827 38.7912C51.818 38.8222 51.9568 38.8461 52.0942 38.8734C52.2378 38.9017 52.3803 38.9324 52.5257 38.9566C52.83 39.007 53.1378 39.0497 53.4486 39.0818L53.4683 41.9381C53.1571 41.9058 52.8496 41.8631 52.5453 41.8127C52.53 41.8103 52.5141 41.8092 52.4988 41.8066C52.368 41.7843 52.2415 41.7543 52.1124 41.729C51.9754 41.7022 51.8372 41.6782 51.7028 41.6472C51.5598 41.6148 51.4222 41.5755 51.2822 41.5387C51.1495 41.5039 51.0153 41.4719 50.8852 41.4333C50.8718 41.4292 50.8577 41.4265 50.8438 41.4224C50.6035 41.3501 50.3683 41.2709 50.1386 41.1857L50.1193 38.3296C50.3618 38.42 50.6115 38.5015 50.866 38.5772Z" fill="url(#paint22_linear_214_4193)"/>
<path d="M57.4618 38.9951C57.6115 38.9732 57.7605 38.9487 57.9085 38.9224C58.0434 38.8986 58.1768 38.8727 58.3097 38.8454C58.4861 38.8085 58.6602 38.7679 58.8325 38.725C58.9478 38.6963 59.0626 38.668 59.1756 38.6366C59.5014 38.5465 59.8216 38.4479 60.1295 38.335C60.1345 38.3333 60.14 38.332 60.1452 38.3299C60.1454 38.3299 60.1454 38.33 60.1458 38.3296L60.165 41.186C60.1636 41.1863 60.1622 41.187 60.1603 41.1877C60.1563 41.1894 60.1513 41.1904 60.1473 41.1915C59.8398 41.3048 59.5202 41.403 59.1952 41.4927C59.1575 41.5032 59.1226 41.5175 59.0848 41.5277C59.0088 41.5479 58.9288 41.5619 58.8522 41.5809C58.6795 41.6239 58.5058 41.6646 58.3294 41.7014C58.2694 41.7137 58.2124 41.7303 58.1521 41.742C58.0783 41.7563 58.0019 41.7651 57.9274 41.7785C57.7799 41.8047 57.6315 41.8293 57.4817 41.8511C57.4119 41.8613 57.344 41.8757 57.2739 41.8853C57.1255 41.9047 56.9765 41.9225 56.8267 41.9381L56.8075 39.0817C57.0278 39.0588 57.2447 39.0271 57.4618 38.9951Z" fill="url(#paint23_linear_214_4193)"/>
<path d="M62.2848 39.161L62.304 42.0171L64.0757 41.0576L64.0534 38.1997L62.2848 39.161Z" fill="url(#paint24_linear_214_4193)"/>
<path d="M46.2076 38.1997L46.2272 41.0558L47.9873 42.0159L47.9677 39.1596L46.2076 38.1997Z" fill="url(#paint25_linear_214_4193)"/>
<path d="M60.1448 38.3296L60.1641 41.186L62.3018 42.0166L62.2821 39.1605L60.1448 38.3296Z" fill="url(#paint26_linear_214_4193)"/>
<path d="M53.4473 39.0828L53.467 41.9392L53.8911 43.3476L53.8715 40.4915L53.4473 39.0828Z" fill="url(#paint27_linear_214_4193)"/>
<path d="M56.3631 40.4905L56.3823 43.3466H53.8872L53.8679 40.4905H56.3631Z" fill="url(#paint28_linear_214_4193)"/>
<path d="M56.3677 40.4915L56.3869 43.3476L56.8281 41.9391L56.8089 39.0828L56.3677 40.4915Z" fill="url(#paint29_linear_214_4193)"/>
<path d="M46.3103 35.0352L48.0776 36.3706L47.6777 31.8359L46.2518 30.7444L46.3103 35.0352Z" fill="url(#paint30_linear_214_4193)"/>
<path d="M62.655 31.8365L62.7336 35.9222L64.1587 34.7523L64.0804 30.6665L62.655 31.8365Z" fill="url(#paint31_linear_214_4193)"/>
<path d="M64.0603 35.5712L64.0629 38.1895L66.5298 38.0935L66.5102 35.2375L64.0603 35.5712Z" fill="url(#paint32_linear_214_4193)"/>
<path d="M46.1738 35.5709L46.1826 38.1909L43.7157 37.8382L43.7591 35.2771L46.1738 35.5709Z" fill="url(#paint33_linear_214_4193)"/>
<path d="M46.1746 35.562C46.2379 35.72 46.3145 35.8744 46.4072 36.0285C46.5076 36.1958 46.6288 36.3601 46.764 36.5214C46.9236 36.7125 47.4282 37.1997 47.4282 37.1997L47.2494 38.5635L46.1835 38.1853L46.1746 35.562Z" fill="url(#paint34_linear_214_4193)"/>
<path d="M62.6097 37.3742L62.827 38.7097L64.0684 38.1896L64.0666 35.5706C63.8409 36.2078 63.3131 36.8165 62.6097 37.3742Z" fill="url(#paint35_linear_214_4193)"/>
<path d="M47.9382 39.4073L47.9653 42.2951L50.0786 41.4358V38.5647L47.9382 39.4073Z" fill="url(#paint36_linear_214_4193)"/>
<path d="M45.986 38.2337L46.0049 38.7674L46.2077 38.4867L46.2149 38.2219L47.5342 38.2842L47.4276 37.1975L45.986 38.2337Z" fill="url(#paint37_linear_214_4193)"/>
<path d="M51.3697 38.9644C52.2389 39.1921 52.5277 39.1963 53.4234 39.3034C53.4382 40.7346 53.4382 40.7345 53.4531 42.1657C53.2518 42.1405 52.2813 42.0586 51.438 41.8868C50.7362 41.7437 50.0829 41.4358 50.0829 41.4358V38.5647L51.3697 38.9644Z" fill="url(#paint38_linear_214_4193)"/>
<path d="M57.463 39.3505C58.419 39.1817 59.1063 38.9292 60.0477 38.6458C60.0573 40.074 60.0573 40.074 60.0669 41.5022C58.9344 41.8605 58.0113 42.1184 56.8279 42.2936C56.8183 40.8653 56.8183 40.8653 56.8087 39.4371L57.463 39.3505Z" fill="url(#paint39_linear_214_4193)"/>
<path d="M45.985 38.2385L46.0118 41.1124L47.9644 42.2941L47.937 39.4107L45.985 38.2385Z" fill="url(#paint40_linear_214_4193)"/>
<path d="M62.2469 39.4787L62.2662 42.3348L64.0835 41.3215L64.0643 38.4651L62.2469 39.4787Z" fill="url(#paint41_linear_214_4193)"/>
<path d="M60.0422 38.6458L60.0614 41.5022L62.2637 42.3328L62.244 39.4767L60.0422 38.6458Z" fill="url(#paint42_linear_214_4193)"/>
<path d="M53.4186 39.303L53.4382 42.1594L53.8625 43.5678L53.8911 40.7117L53.4186 39.303Z" fill="url(#paint43_linear_214_4193)"/>
<path d="M56.3933 40.7158L56.4126 43.5719L53.8644 43.5684L53.893 40.7126L56.3933 40.7158Z" fill="url(#paint44_linear_214_4193)"/>
<path d="M56.3893 40.711L56.4086 43.5671L56.8281 42.294L56.8244 41.7404L56.8089 39.4375L56.3893 40.711Z" fill="url(#paint45_linear_214_4193)"/>
<path d="M59.7091 36.7992C57.1749 38.1723 53.0734 38.1723 50.556 36.7992C48.0337 35.4242 48.047 33.1943 50.5806 31.8218C53.1195 30.4462 57.2214 30.4462 59.7438 31.8218C62.2613 33.1943 62.248 35.4242 59.7091 36.7992ZM47.9626 39.1596L50.1102 38.329C51.1312 38.708 52.2649 38.9591 53.4394 39.0811L53.864 40.49H56.359L56.8002 39.0811C57.9762 38.9591 59.1132 38.708 60.1387 38.329L62.276 39.1596L64.0478 38.1997L62.524 37.037C63.2269 36.4792 63.6929 35.8618 63.9187 35.2247L66.5111 34.9897L66.522 33.6318L63.9322 33.3966C63.7089 32.7592 63.2531 32.1404 62.5591 31.5841L64.0942 30.4195L62.3342 29.46L60.1896 30.2919C59.1659 29.9116 58.0293 29.6619 56.8599 29.5398L56.4357 28.1311H53.9352L53.4968 29.5412C52.323 29.6619 51.1839 29.9116 50.1556 30.2919L48.0207 29.46L46.2491 30.4195L47.7703 31.5841C47.0698 32.1404 46.6064 32.7592 46.3781 33.3981L43.783 33.6314L43.7777 34.9893L46.3676 35.2243C46.5853 35.8618 47.0436 36.4792 47.7405 37.037L46.2025 38.1997L47.9626 39.1596Z" fill="#EBC3AA"/>
<path d="M36.0514 39.0666C37.5208 37.803 40.8778 37.7687 42.3519 39.058C43.0327 38.3568 42.3671 37.5323 41.8535 37.1944C40.5134 36.313 37.7739 36.4913 36.4355 37.1944C36.1804 37.3284 35.2326 38.2717 36.0514 39.0666Z" fill="url(#paint46_linear_214_4193)"/>
<path d="M34.8279 36.9075L34.8374 40.0228L35.5752 40.5877L35.5658 37.4724L34.8279 36.9075Z" fill="url(#paint47_linear_214_4193)"/>
<path d="M42.7406 37.4724L42.7501 40.5879L43.4946 40.023L43.4853 36.9075L42.7406 37.4724Z" fill="url(#paint48_linear_214_4193)"/>
<path d="M43.3978 39.2383L43.4072 40.6238L44.665 40.5098L44.6554 39.1243L43.3978 39.2383Z" fill="url(#paint49_linear_214_4193)"/>
<path d="M34.8832 39.238C34.891 39.261 34.8995 39.2837 34.9086 39.3065L34.918 40.692C34.909 40.6693 34.9005 40.6465 34.8926 40.6236L33.5905 40.5084L33.626 39.123L34.8832 39.238Z" fill="url(#paint50_linear_214_4193)"/>
<path d="M34.9104 39.3074C34.9411 39.3839 34.9782 39.4588 35.0233 39.5336C35.0719 39.6147 35.1308 39.6944 35.1963 39.7727C35.2737 39.8654 35.362 39.9571 35.4628 40.0447C35.4913 40.0693 35.52 40.0933 35.5503 40.1176L35.5601 41.5029C35.5297 41.4786 35.501 41.4546 35.4726 41.4299V41.4263H35.2002H35.029H34.961C34.946 41.0499 34.9327 40.724 34.9201 40.6926L34.9104 39.3074Z" fill="url(#paint51_linear_214_4193)"/>
<path d="M42.7184 40.1187L42.7278 41.5042C43.0689 41.2337 43.295 40.9345 43.4043 40.6252L43.3949 39.2397C43.2855 39.5488 43.0596 39.8482 42.7184 40.1187Z" fill="url(#paint52_linear_214_4193)"/>
<path d="M35.6564 41.1466L35.6657 42.532L36.7075 42.1289L36.6982 40.7434L35.6564 41.1466Z" fill="url(#paint53_linear_214_4193)"/>
<path d="M37.0609 40.8634C37.124 40.8822 37.1896 40.8978 37.2541 40.9147C37.3218 40.9325 37.3883 40.9516 37.4571 40.9672C37.5227 40.9823 37.59 40.9938 37.6567 41.0071C37.7264 41.0208 37.7956 41.0357 37.866 41.0475C38.0137 41.072 38.163 41.0927 38.3138 41.1082L38.3232 42.4938C38.1724 42.4782 38.0232 42.4574 37.8756 42.433C37.8682 42.4318 37.8603 42.4313 37.853 42.43C37.7895 42.4193 37.7282 42.4047 37.6656 42.3924C37.5991 42.3793 37.532 42.3678 37.4669 42.3527C37.3976 42.3369 37.3307 42.3179 37.2629 42.3001C37.1985 42.2832 37.1334 42.2677 37.0703 42.2489C37.0637 42.247 37.0568 42.2457 37.0501 42.2436C36.9337 42.2086 36.8195 42.1702 36.7081 42.1288L36.6987 40.7434C36.8164 40.7872 36.9375 40.8267 37.0609 40.8634Z" fill="url(#paint54_linear_214_4193)"/>
<path d="M40.2658 41.0663C40.3384 41.0557 40.4107 41.0438 40.4825 41.031C40.5479 41.0195 40.6126 41.0068 40.6771 40.9937C40.7627 40.9758 40.8471 40.9561 40.9307 40.9352C40.9866 40.9213 41.0423 40.9076 41.0972 40.8923C41.2551 40.8488 41.4105 40.8008 41.5598 40.7461C41.5624 40.7453 41.565 40.7446 41.5674 40.7436C41.5677 40.7436 41.5677 40.7436 41.5678 40.7434L41.5771 42.1291C41.5764 42.1293 41.5757 42.1296 41.5748 42.13C41.5729 42.1307 41.5705 42.1313 41.5686 42.1318C41.4193 42.1867 41.2644 42.2344 41.1067 42.2778C41.0883 42.283 41.0714 42.29 41.0531 42.2949C41.0162 42.3047 40.9775 42.3114 40.9403 42.3207C40.8565 42.3415 40.7722 42.3613 40.6866 42.3791C40.6575 42.3851 40.6299 42.3932 40.6007 42.3988C40.5649 42.4058 40.5278 42.41 40.4916 42.4165C40.42 42.4293 40.3481 42.4412 40.2754 42.4518C40.2416 42.4567 40.2086 42.4637 40.1746 42.4683C40.1026 42.4778 40.0304 42.4863 39.9576 42.4939L39.9484 41.1083C40.0552 41.0972 40.1605 41.0818 40.2658 41.0663Z" fill="url(#paint55_linear_214_4193)"/>
<path d="M42.6035 41.1485L42.6128 42.5339L43.4722 42.0685L43.4614 40.6821L42.6035 41.1485Z" fill="url(#paint56_linear_214_4193)"/>
<path d="M34.8022 40.6821L34.8117 42.0676L35.6655 42.5334L35.656 41.1478L34.8022 40.6821Z" fill="url(#paint57_linear_214_4193)"/>
<path d="M41.5649 40.7434L41.5743 42.129L42.6113 42.532L42.6017 41.1465L41.5649 40.7434Z" fill="url(#paint58_linear_214_4193)"/>
<path d="M38.3116 41.1082L38.3211 42.4938L38.5269 43.177L38.5174 41.7915L38.3116 41.1082Z" fill="url(#paint59_linear_214_4193)"/>
<path d="M39.7333 41.792L39.7427 43.1775H38.5323L38.5229 41.792H39.7333Z" fill="url(#paint60_linear_214_4193)"/>
<path d="M39.7307 41.7915L39.7401 43.177L39.9541 42.4938L39.9447 41.1082L39.7307 41.7915Z" fill="url(#paint61_linear_214_4193)"/>
<path d="M34.8537 39.1472L35.7109 39.795L35.5169 37.5952L34.8253 37.0657L34.8537 39.1472Z" fill="url(#paint62_linear_214_4193)"/>
<path d="M42.7881 37.5956L42.8263 39.5776L43.5176 39.0101L43.4796 37.0281L42.7881 37.5956Z" fill="url(#paint63_linear_214_4193)"/>
<path d="M43.467 39.4085L43.4683 40.6787L44.665 40.6321L44.6554 39.2466L43.467 39.4085Z" fill="url(#paint64_linear_214_4193)"/>
<path d="M34.7857 39.4069L34.79 40.6779L33.5933 40.5069L33.6143 39.2644L34.7857 39.4069Z" fill="url(#paint65_linear_214_4193)"/>
<path d="M34.7932 39.4026C34.8239 39.4793 34.8611 39.5542 34.906 39.6289C34.9548 39.7101 35.0135 39.7898 35.0791 39.868C35.1566 39.9607 35.4014 40.1971 35.4014 40.1971L35.3146 40.8586L34.7976 40.6751L34.7932 39.4026Z" fill="url(#paint66_linear_214_4193)"/>
<path d="M42.7573 40.2821L42.8626 40.93L43.4648 40.6777L43.4639 39.4072C43.3545 39.7163 43.0984 40.0116 42.7573 40.2821Z" fill="url(#paint67_linear_214_4193)"/>
<path d="M35.6389 41.2671L35.652 42.668L36.6772 42.2512V40.8584L35.6389 41.2671Z" fill="url(#paint68_linear_214_4193)"/>
<path d="M34.6957 40.6989L34.705 40.9579L34.8034 40.8216L34.8068 40.6933L35.4468 40.7234L35.3951 40.1963L34.6957 40.6989Z" fill="url(#paint69_linear_214_4193)"/>
<path d="M37.3048 41.0524C37.7265 41.1628 37.8665 41.1648 38.3011 41.2168C38.3082 41.911 38.3082 41.911 38.3154 42.6053C38.2178 42.593 37.7469 42.5534 37.3379 42.47C36.9974 42.4006 36.6807 42.2512 36.6807 42.2512V40.8584L37.3048 41.0524Z" fill="url(#paint70_linear_214_4193)"/>
<path d="M40.2613 41.2406C40.7251 41.1587 41.0584 41.0362 41.5152 40.8987C41.5198 41.5915 41.5198 41.5915 41.5244 42.2844C40.975 42.4581 40.5273 42.5832 39.9532 42.6682C39.9485 41.9755 39.9485 41.9755 39.9439 41.2826L40.2613 41.2406Z" fill="url(#paint71_linear_214_4193)"/>
<path d="M34.698 40.7004L34.711 42.0946L35.6582 42.6678L35.645 41.2691L34.698 40.7004Z" fill="url(#paint72_linear_214_4193)"/>
<path d="M42.5813 41.302L42.5906 42.6875L43.4722 42.196L43.4629 40.8103L42.5813 41.302Z" fill="url(#paint73_linear_214_4193)"/>
<path d="M41.5186 40.8987L41.5279 42.2844L42.5962 42.6872L42.5867 41.3018L41.5186 40.8987Z" fill="url(#paint74_linear_214_4193)"/>
<path d="M38.3055 41.2175L38.315 42.6031L38.5208 43.2864L38.5347 41.9009L38.3055 41.2175Z" fill="url(#paint75_linear_214_4193)"/>
<path d="M39.7408 41.902L39.75 43.2874L38.5139 43.2858L38.5277 41.9004L39.7408 41.902Z" fill="url(#paint76_linear_214_4193)"/>
<path d="M39.7486 41.9012L39.7578 43.2867L39.9614 42.6691L39.9596 42.4005L39.9521 41.2834L39.7486 41.9012Z" fill="url(#paint77_linear_214_4193)"/>
<path d="M41.3601 40.003C40.1308 40.6691 38.1411 40.6691 36.9199 40.003C35.6963 39.336 35.7028 38.2542 36.9318 37.5885C38.1634 36.9211 40.1533 36.9211 41.3769 37.5885C42.5982 38.2542 42.5916 39.336 41.3601 40.003ZM35.6619 41.148L36.7037 40.7451C37.1989 40.9289 37.7489 41.0507 38.3187 41.11L38.5246 41.7933H39.735L39.949 41.11C40.5195 41.0507 41.071 40.9289 41.5685 40.7451L42.6054 41.148L43.4647 40.6825L42.7256 40.1183C43.0666 39.8478 43.2926 39.5482 43.4021 39.2392L44.6598 39.1252L44.665 38.4664L43.4086 38.3524C43.3003 38.0432 43.0793 37.7431 42.7426 37.4731L43.4873 36.9082L42.6334 36.4427L41.5931 36.8464C41.0966 36.6618 40.5452 36.5407 39.9779 36.4814L39.7722 35.7981H38.5591L38.3465 36.4822C37.7771 36.5407 37.2246 36.6618 36.7256 36.8464L35.69 36.4427L34.8307 36.9082L35.5685 37.4731C35.2288 37.7431 35.004 38.0432 34.8931 38.3531L33.6344 38.4663L33.6317 39.125L34.8881 39.2391C34.9937 39.5482 35.2161 39.8478 35.5541 40.1183L34.8081 40.6825L35.6619 41.148Z" fill="#EBC3AA"/>
<path d="M47.5844 44.8309C49.4619 43.2165 53.7513 43.1726 55.6347 44.8201C56.5046 43.9241 55.6542 42.8705 54.998 42.4388C53.2856 41.3126 49.7854 41.5405 48.0752 42.4388C47.7492 42.61 46.5383 43.8153 47.5844 44.8309Z" fill="url(#paint78_linear_214_4193)"/>
<path d="M46.0129 42.075L46.025 46.0554L46.9678 46.7773L46.9558 42.7967L46.0129 42.075Z" fill="url(#paint79_linear_214_4193)"/>
<path d="M56.1289 42.7967L56.1411 46.7775L57.0923 46.0556L57.0804 42.075L56.1289 42.7967Z" fill="url(#paint80_linear_214_4193)"/>
<path d="M56.9678 45.0522L56.9797 46.8224L58.5869 46.6768L58.5747 44.9065L56.9678 45.0522Z" fill="url(#paint81_linear_214_4193)"/>
<path d="M46.0855 45.0534C46.0954 45.0829 46.1063 45.1118 46.118 45.1409L46.1299 46.9113C46.1185 46.8823 46.1076 46.8531 46.0974 46.8239L44.4337 46.6766L44.4792 44.9065L46.0855 45.0534Z" fill="url(#paint82_linear_214_4193)"/>
<path d="M46.1226 45.1406C46.1618 45.2385 46.2093 45.3342 46.2668 45.4298C46.329 45.5333 46.404 45.6352 46.4879 45.7352C46.5869 45.8536 46.6995 45.9709 46.8283 46.0827C46.8649 46.1142 46.9014 46.1449 46.9402 46.176L46.9526 47.9459C46.9139 47.9149 46.8773 47.8842 46.8408 47.8527V47.848H46.4929H46.2742H46.1872C46.1681 47.3673 46.151 46.9507 46.135 46.9105L46.1226 45.1406Z" fill="url(#paint83_linear_214_4193)"/>
<path d="M56.1025 46.1764L56.1144 47.9466C56.5504 47.6009 56.8393 47.2186 56.979 46.8235L56.9669 45.0532C56.8271 45.4482 56.5384 45.8306 56.1025 46.1764Z" fill="url(#paint84_linear_214_4193)"/>
<path d="M47.0743 47.4923L47.0863 49.2626L48.4175 48.7476L48.4055 46.9773L47.0743 47.4923Z" fill="url(#paint85_linear_214_4193)"/>
<path d="M48.8728 47.1308C48.9535 47.1548 49.0372 47.1746 49.1197 47.1964C49.2061 47.219 49.2913 47.2434 49.379 47.2634C49.4629 47.2826 49.549 47.2974 49.6341 47.3144C49.7231 47.3319 49.8114 47.3509 49.9016 47.3659C50.0902 47.3972 50.2809 47.4236 50.4737 47.4436L50.4858 49.214C50.2929 49.194 50.1024 49.1675 49.9138 49.1362C49.9043 49.1347 49.8944 49.1341 49.8849 49.1323C49.8038 49.1186 49.7254 49.1001 49.6454 49.0844C49.5604 49.0677 49.4749 49.0529 49.3915 49.0336C49.3029 49.0136 49.2175 48.9893 49.1308 48.9664C49.0485 48.9449 48.9654 48.925 48.8847 48.9011C48.8765 48.8985 48.8676 48.8968 48.859 48.8943C48.7101 48.8495 48.5643 48.8004 48.4219 48.7476L48.41 46.9773C48.5603 47.0334 48.7151 47.0838 48.8728 47.1308Z" fill="url(#paint86_linear_214_4193)"/>
<path d="M52.9626 47.3899C53.0554 47.3763 53.1478 47.3611 53.2395 47.3447C53.323 47.33 53.4058 47.3139 53.4883 47.2971C53.5974 47.2742 53.7055 47.249 53.8122 47.2224C53.8837 47.2046 53.9549 47.187 54.0249 47.1676C54.2267 47.1118 54.4252 47.0507 54.6161 46.9807C54.6192 46.9797 54.6227 46.9789 54.6257 46.9775C54.626 46.9775 54.626 46.9775 54.6262 46.9773L54.6382 48.7478C54.6373 48.748 54.6364 48.7484 54.6352 48.7489C54.6328 48.75 54.6296 48.7506 54.6271 48.7512C54.4365 48.8214 54.2385 48.8823 54.0371 48.9379C54.0136 48.9444 53.9919 48.9533 53.9686 48.9597C53.9215 48.9721 53.8719 48.9808 53.8244 48.9927C53.7174 49.0193 53.6096 49.0445 53.5004 49.0673C53.4632 49.0749 53.4278 49.0853 53.3905 49.0925C53.3447 49.1013 53.2973 49.1068 53.2512 49.1151C53.1597 49.1314 53.0678 49.1465 52.9749 49.1602C52.9317 49.1664 52.8896 49.1753 52.8461 49.1812C52.7541 49.1933 52.6618 49.2043 52.569 49.214L52.5571 47.4436C52.6936 47.4294 52.828 47.4097 52.9626 47.3899Z" fill="url(#paint87_linear_214_4193)"/>
<path d="M55.9519 47.4921L55.9638 49.2623L57.062 48.6676L57.0482 46.8962L55.9519 47.4921Z" fill="url(#paint88_linear_214_4193)"/>
<path d="M45.9853 46.8972L45.9973 48.6675L47.0884 49.2626L47.0762 47.4921L45.9853 46.8972Z" fill="url(#paint89_linear_214_4193)"/>
<path d="M54.6226 46.9773L54.6345 48.7478L55.9595 49.2626L55.9474 47.4923L54.6226 46.9773Z" fill="url(#paint90_linear_214_4193)"/>
<path d="M50.4749 47.4436L50.4871 49.2141L50.75 50.0871L50.7378 48.3168L50.4749 47.4436Z" fill="url(#paint91_linear_214_4193)"/>
<path d="M52.2786 48.3174L52.2905 50.0876H50.744L50.7321 48.3174H52.2786Z" fill="url(#paint92_linear_214_4193)"/>
<path d="M52.2844 48.3168L52.2963 50.0871L52.5698 49.2141L52.5579 47.4436L52.2844 48.3168Z" fill="url(#paint93_linear_214_4193)"/>
<path d="M46.0457 44.934L47.1411 45.7617L46.8931 42.9509L46.0094 42.2744L46.0457 44.934Z" fill="url(#paint94_linear_214_4193)"/>
<path d="M56.1749 42.9508L56.2236 45.4833L57.1069 44.7581L57.0584 42.2256L56.1749 42.9508Z" fill="url(#paint95_linear_214_4193)"/>
<path d="M57.0489 45.2667L57.0505 46.8896L58.5796 46.8301L58.5674 45.0598L57.0489 45.2667Z" fill="url(#paint96_linear_214_4193)"/>
<path d="M45.9657 45.2674L45.9712 46.8913L44.4421 46.6727L44.4691 45.0852L45.9657 45.2674Z" fill="url(#paint97_linear_214_4193)"/>
<path d="M45.9641 45.262C46.0034 45.3598 46.0508 45.4556 46.1083 45.5511C46.1705 45.6548 46.2457 45.7567 46.3295 45.8566C46.4284 45.9751 46.7412 46.2771 46.7412 46.2771L46.6304 47.1224L45.9696 46.8879L45.9641 45.262Z" fill="url(#paint98_linear_214_4193)"/>
<path d="M56.1501 46.3846L56.2847 47.2123L57.0542 46.8899L57.053 45.2666C56.9131 45.6615 56.586 46.0388 56.1501 46.3846Z" fill="url(#paint99_linear_214_4193)"/>
<path d="M47.0527 47.6443L47.0693 49.4342L48.3794 48.9017V47.1221L47.0527 47.6443Z" fill="url(#paint100_linear_214_4193)"/>
<path d="M45.8495 46.9189L45.8612 47.2498L45.987 47.0757L45.9913 46.9116L46.8091 46.9502L46.743 46.2766L45.8495 46.9189Z" fill="url(#paint101_linear_214_4193)"/>
<path d="M49.1794 47.3698C49.7182 47.5109 49.8972 47.5135 50.4524 47.5799C50.4616 48.467 50.4616 48.467 50.4707 49.354C50.346 49.3384 49.7444 49.2877 49.2217 49.1812C48.7867 49.0926 48.3819 48.9017 48.3819 48.9017V47.1221L49.1794 47.3698Z" fill="url(#paint102_linear_214_4193)"/>
<path d="M52.9563 47.6088C53.5489 47.504 53.9749 47.3475 54.5584 47.1719C54.5644 48.0571 54.5644 48.0571 54.5703 48.9424C53.8684 49.1645 53.2962 49.3244 52.5627 49.4329C52.5567 48.5477 52.5567 48.5477 52.5508 47.6625L52.9563 47.6088Z" fill="url(#paint103_linear_214_4193)"/>
<path d="M45.8463 46.9199L45.8629 48.7013L47.0732 49.4336L47.0563 47.6465L45.8463 46.9199Z" fill="url(#paint104_linear_214_4193)"/>
<path d="M55.9236 47.6883L55.9356 49.4585L57.062 48.8306L57.0501 47.0601L55.9236 47.6883Z" fill="url(#paint105_linear_214_4193)"/>
<path d="M54.5601 47.1719L54.5721 48.9424L55.937 49.4572L55.9249 47.6869L54.5601 47.1719Z" fill="url(#paint106_linear_214_4193)"/>
<path d="M50.4499 47.5801L50.4621 49.3506L50.725 50.2236L50.7427 48.4533L50.4499 47.5801Z" fill="url(#paint107_linear_214_4193)"/>
<path d="M52.3011 48.4548L52.313 50.2251L50.7335 50.2229L50.7512 48.4529L52.3011 48.4548Z" fill="url(#paint108_linear_214_4193)"/>
<path d="M52.2978 48.4512L52.3098 50.2214L52.5698 49.4322L52.5675 49.0891L52.5579 47.6619L52.2978 48.4512Z" fill="url(#paint109_linear_214_4193)"/>
<path d="M54.3562 46.0278C52.7854 46.8789 50.2434 46.8789 48.6829 46.0278C47.1194 45.1756 47.1278 43.7934 48.6981 42.9427C50.2718 42.0901 52.8143 42.0901 54.3777 42.9427C55.9382 43.7934 55.9299 45.1756 54.3562 46.0278ZM47.0754 47.491L48.4065 46.976C49.0394 47.2109 49.7421 47.3666 50.4701 47.4423L50.7332 48.3154H52.2798L52.5532 47.4423C53.2822 47.3666 53.987 47.2109 54.6225 46.976L55.9473 47.491L57.0454 46.896L56.1009 46.1752C56.5367 45.8295 56.8255 45.4468 56.9655 45.0519L58.5723 44.9062L58.5791 44.0646L56.9738 43.9189C56.8354 43.5238 56.5529 43.1402 56.1228 42.7954L57.0743 42.0735L55.9834 41.4788L54.6541 41.9945C54.0195 41.7587 53.3151 41.604 52.5902 41.5282L52.3273 40.655H50.7775L50.5057 41.5291C49.7782 41.604 49.0721 41.7587 48.4347 41.9945L47.1115 41.4788L46.0133 42.0735L46.9563 42.7954C46.5221 43.1402 46.2348 43.5238 46.0933 43.9197L44.4849 44.0643L44.4815 44.906L46.0868 45.0517C46.2217 45.4468 46.5058 45.8295 46.9378 46.1752L45.9845 46.896L47.0754 47.491Z" fill="#EBC3AA"/>
<path d="M60.6563 42.7517C61.7673 41.7965 64.3052 41.7705 65.4196 42.7452C65.9344 42.2151 65.4312 41.5917 65.0428 41.3364C64.0297 40.67 61.9585 40.8048 60.9467 41.3364C60.7538 41.4376 60.0373 42.1508 60.6563 42.7517Z" fill="url(#paint110_linear_214_4193)"/>
<path d="M59.7359 41.1206L59.7431 43.476L60.3008 43.903L60.2937 41.5478L59.7359 41.1206Z" fill="url(#paint111_linear_214_4193)"/>
<path d="M65.7181 41.5476L65.7252 43.903L66.2881 43.476L66.281 41.1206L65.7181 41.5476Z" fill="url(#paint112_linear_214_4193)"/>
<path d="M66.2134 42.8826L66.2204 43.93L67.1714 43.8439L67.1641 42.7964L66.2134 42.8826Z" fill="url(#paint113_linear_214_4193)"/>
<path d="M59.7766 42.8833C59.7823 42.9008 59.7888 42.9179 59.7957 42.9351L59.8027 43.9826C59.7959 43.9654 59.7895 43.9482 59.7836 43.9309L58.7992 43.8438L58.826 42.7964L59.7766 42.8833Z" fill="url(#paint114_linear_214_4193)"/>
<path d="M59.795 42.9346C59.8182 42.9925 59.8463 43.0491 59.8803 43.1056C59.917 43.1669 59.9615 43.2272 60.0112 43.2864C60.0697 43.3564 60.1363 43.4258 60.2126 43.492C60.2342 43.5107 60.2559 43.5288 60.2788 43.5471L60.2861 44.5944C60.2632 44.576 60.2415 44.558 60.2199 44.5393V44.5365H60.0141H59.8847H59.8332C59.822 44.252 59.8118 44.0056 59.8023 43.9819L59.795 42.9346Z" fill="url(#paint115_linear_214_4193)"/>
<path d="M65.7016 43.5473L65.7087 44.5948C65.9666 44.3903 66.1376 44.164 66.2202 43.9302L66.2132 42.8828C66.1303 43.1165 65.9595 43.3427 65.7016 43.5473Z" fill="url(#paint116_linear_214_4193)"/>
<path d="M60.3596 44.3274L60.3667 45.375L61.1543 45.0701L61.1472 44.0227L60.3596 44.3274Z" fill="url(#paint117_linear_214_4193)"/>
<path d="M61.423 44.1135C61.4708 44.1277 61.5204 44.1395 61.5692 44.1524C61.6202 44.1657 61.6707 44.1801 61.7226 44.192C61.7723 44.2034 61.8231 44.2121 61.8735 44.2221C61.9262 44.2326 61.9784 44.2437 62.0318 44.2527C62.1433 44.2712 62.2562 44.2869 62.3703 44.2985L62.3774 45.3462C62.2634 45.3343 62.1505 45.3186 62.039 45.3001C62.0333 45.2992 62.0274 45.2989 62.0219 45.2979C61.9739 45.2897 61.9275 45.2788 61.8802 45.2695C61.8299 45.2596 61.7793 45.2508 61.7299 45.2394C61.6776 45.2276 61.627 45.2132 61.5757 45.1997C61.5271 45.1869 61.4778 45.1751 61.4301 45.161C61.4252 45.1595 61.42 45.1585 61.415 45.1571C61.3268 45.1304 61.2406 45.1014 61.1563 45.0701L61.1492 44.0227C61.2382 44.0558 61.3298 44.0858 61.423 44.1135Z" fill="url(#paint118_linear_214_4193)"/>
<path d="M63.847 44.2667C63.9019 44.2587 63.9566 44.2498 64.0109 44.2401C64.0603 44.2313 64.1093 44.2218 64.158 44.2118C64.2227 44.1984 64.2866 44.1834 64.3497 44.1677C64.3919 44.1572 64.4341 44.1467 64.4756 44.1353C64.595 44.1023 64.7124 44.066 64.8254 44.0246C64.8272 44.024 64.8293 44.0235 64.8311 44.0228L64.8313 44.0227L64.8384 45.0702C64.8379 45.0704 64.8374 45.0706 64.8367 45.0709C64.8352 45.0715 64.8334 45.0719 64.8318 45.0723C64.7191 45.1138 64.6019 45.1498 64.4827 45.1827C64.4689 45.1866 64.4561 45.1918 64.4422 45.1956C64.4144 45.203 64.385 45.2081 64.3569 45.2151C64.2936 45.2309 64.2299 45.2458 64.1652 45.2593C64.1433 45.2638 64.1222 45.2699 64.1002 45.2742C64.0731 45.2794 64.0451 45.2826 64.0178 45.2876C63.9636 45.2972 63.9092 45.3062 63.8543 45.3142C63.8287 45.318 63.8038 45.3232 63.778 45.3267C63.7236 45.3338 63.6689 45.3404 63.614 45.3461L63.607 44.2985C63.6878 44.2901 63.7674 44.2785 63.847 44.2667Z" fill="url(#paint119_linear_214_4193)"/>
<path d="M65.6087 44.3254L65.6158 45.373L66.2656 45.021L66.2574 43.9729L65.6087 44.3254Z" fill="url(#paint120_linear_214_4193)"/>
<path d="M59.7164 43.9729L59.7235 45.0203L60.3691 45.3725L60.362 44.3249L59.7164 43.9729Z" fill="url(#paint121_linear_214_4193)"/>
<path d="M64.8251 44.0227L64.8322 45.0704L65.6162 45.375L65.609 44.3275L64.8251 44.0227Z" fill="url(#paint122_linear_214_4193)"/>
<path d="M62.3728 44.2974L62.38 45.3449L62.5356 45.8615L62.5285 44.814L62.3728 44.2974Z" fill="url(#paint123_linear_214_4193)"/>
<path d="M63.4422 44.8154L63.4492 45.863H62.5341L62.527 44.8154H63.4422Z" fill="url(#paint124_linear_214_4193)"/>
<path d="M63.4391 44.814L63.4461 45.8615L63.6079 45.3449L63.6009 44.2974L63.4391 44.814Z" fill="url(#paint125_linear_214_4193)"/>
<path d="M59.7508 42.8139L60.3989 43.3037L60.2523 41.6405L59.7293 41.2402L59.7508 42.8139Z" fill="url(#paint126_linear_214_4193)"/>
<path d="M65.7439 41.64L65.7727 43.1384L66.2954 42.7094L66.2667 41.2109L65.7439 41.64Z" fill="url(#paint127_linear_214_4193)"/>
<path d="M66.2657 43.0101L66.2666 43.9704L67.1714 43.9352L67.1642 42.8877L66.2657 43.0101Z" fill="url(#paint128_linear_214_4193)"/>
<path d="M59.7086 43.0106L59.7119 43.9714L58.8072 43.8421L58.8231 42.9028L59.7086 43.0106Z" fill="url(#paint129_linear_214_4193)"/>
<path d="M59.7052 43.0063C59.7284 43.0644 59.7565 43.121 59.7905 43.1775C59.8274 43.2388 59.8719 43.299 59.9214 43.3583C59.9799 43.4283 60.165 43.607 60.165 43.607L60.0995 44.1072L59.7086 43.9684L59.7052 43.0063Z" fill="url(#paint130_linear_214_4193)"/>
<path d="M65.7308 43.6707L65.8103 44.1605L66.2656 43.9698L66.265 43.0093C66.1822 43.243 65.9886 43.4662 65.7308 43.6707Z" fill="url(#paint131_linear_214_4193)"/>
<path d="M60.3541 44.4155L60.364 45.4746L61.1392 45.1594V44.1064L60.3541 44.4155Z" fill="url(#paint132_linear_214_4193)"/>
<path d="M59.6349 43.9863L59.6418 44.182L59.7163 44.079L59.7188 43.9819L60.2026 44.0047L60.1636 43.6062L59.6349 43.9863Z" fill="url(#paint133_linear_214_4193)"/>
<path d="M61.6056 44.2531C61.9244 44.3365 62.0303 44.3381 62.3589 44.3773C62.3642 44.9022 62.3642 44.9022 62.3696 45.427C62.2959 45.4179 61.94 45.3878 61.6306 45.3248C61.3733 45.2723 61.1337 45.1594 61.1337 45.1594V44.1064L61.6056 44.2531Z" fill="url(#paint134_linear_214_4193)"/>
<path d="M63.8379 44.3958C64.1886 44.3339 64.4407 44.2414 64.7858 44.1375C64.7894 44.6612 64.7894 44.6612 64.793 45.185C64.3775 45.3163 64.039 45.411 63.6049 45.4753C63.6015 44.9514 63.6015 44.9514 63.5979 44.4276L63.8379 44.3958Z" fill="url(#paint135_linear_214_4193)"/>
<path d="M59.6354 43.988L59.6452 45.0421L60.3613 45.4755L60.3513 44.418L59.6354 43.988Z" fill="url(#paint136_linear_214_4193)"/>
<path d="M65.5994 44.4426L65.6064 45.49L66.2729 45.1185L66.2659 44.0708L65.5994 44.4426Z" fill="url(#paint137_linear_214_4193)"/>
<path d="M64.7936 44.1375L64.8008 45.185L65.6084 45.4896L65.6012 44.4422L64.7936 44.1375Z" fill="url(#paint138_linear_214_4193)"/>
<path d="M62.3624 44.3784L62.3696 45.4261L62.5251 45.9426L62.5356 44.8951L62.3624 44.3784Z" fill="url(#paint139_linear_214_4193)"/>
<path d="M63.45 44.8966L63.457 45.9441L62.5224 45.9428L62.5329 44.8955L63.45 44.8966Z" fill="url(#paint140_linear_214_4193)"/>
<path d="M63.447 44.8953L63.4541 45.9428L63.6079 45.4759L63.6065 45.2728L63.6009 44.4282L63.447 44.8953Z" fill="url(#paint141_linear_214_4193)"/>
<path d="M64.6727 43.46C63.7433 43.9636 62.2391 43.9636 61.3158 43.46C60.3907 42.9558 60.3956 42.138 61.3247 41.6346C62.2559 41.13 63.7603 41.13 64.6854 41.6346C65.6087 42.138 65.6039 42.9558 64.6727 43.46ZM60.3647 44.3257L61.1523 44.0212C61.5267 44.1601 61.9425 44.2522 62.3733 44.297L62.5289 44.8136H63.4441L63.6059 44.297C64.0372 44.2522 64.4542 44.1601 64.8302 44.0212L65.6141 44.3257L66.2639 43.9737L65.7051 43.5473C65.9628 43.3427 66.1338 43.1163 66.2166 42.8826L67.1674 42.7964L67.1714 42.2983L66.2215 42.2121C66.1396 41.9783 65.9724 41.7514 65.718 41.5474L66.281 41.1203L65.6354 40.7684L64.8489 41.0736C64.4735 40.934 64.0566 40.8424 63.6278 40.7976L63.4722 40.281H62.5551L62.3944 40.7981C61.9639 40.8424 61.5461 40.934 61.169 41.0736L60.386 40.7684L59.7362 41.1203L60.2941 41.5474C60.0373 41.7514 59.8673 41.9783 59.7835 42.2127L58.8318 42.2982L58.8299 42.7963L59.7797 42.8825C59.8595 43.1163 60.0277 43.3427 60.2832 43.5473L59.7191 43.9737L60.3647 44.3257Z" fill="#EBC3AA"/>
<path d="M58.1146 28.9417C58.1146 28.9417 57.6325 31.7692 57.6325 32.1651C57.6325 32.561 58.1146 36.9154 58.0544 37.0285C57.9941 37.1416 58.7173 37.1982 58.7173 36.8023C58.7173 36.4065 58.8378 32.6175 58.8981 32.3347C58.9583 32.052 59.4404 29.3375 59.4404 29.3375L58.1146 28.9417Z" fill="#F9B888"/>
<path d="M60.6512 28.8279C60.6512 28.8279 60.1691 31.6555 60.1691 32.0513C60.1691 32.4472 60.6512 36.8017 60.591 36.9148C60.5307 37.0279 61.2539 37.0844 61.2539 36.6886C61.2539 36.2927 61.3744 32.5037 61.4347 32.221C61.4949 31.9382 61.9771 29.2237 61.9771 29.2237L60.6512 28.8279Z" fill="#F9B888"/>
<path d="M61.4336 28.9405C61.4336 28.9405 61.3131 29.7887 61.1926 30.4674C61.1323 30.5239 61.072 30.5805 61.0118 30.6936C60.7707 31.0329 60.2886 31.0894 59.7462 31.0329C59.8065 30.2412 59.9873 28.6577 59.9873 28.6577L61.4336 28.9405Z" fill="#F4C0A6"/>
<path d="M62.5737 29.9027C62.0314 30.5247 61.7903 29.7896 61.1877 30.4682C61.1274 30.5247 61.0671 30.5813 61.0069 30.6944C60.7658 31.0337 60.2837 31.0903 59.7413 31.0337C59.5605 31.0337 59.3797 30.9772 59.1989 30.9772C58.7771 30.9206 58.3552 30.8075 57.9334 30.6379C57.3307 30.4682 56.8486 30.242 56.8486 30.242L57.8128 26.5661L58.2347 24.9827L58.3552 24.5303L61.489 24.5868L61.9108 26.3965L62.5737 29.9027Z" fill="#1CA2F9"/>
<path d="M60.0444 19.4983L59.5021 19.6679L59.261 19.7245C59.261 19.7245 59.2007 19.3852 59.0802 19.2155C58.9597 19.0459 58.8994 19.1024 58.8994 19.1024L58.9597 18.8197L59.0802 18.2542C59.0802 18.2542 59.8034 18.5935 59.8636 18.65C59.9239 18.7066 60.0444 19.4983 60.0444 19.4983Z" fill="#F9B888"/>
<path opacity="0.2" d="M59.501 19.6675L59.2599 19.7241C59.2599 19.7241 59.1996 19.3848 59.0791 19.2151C58.9586 19.0455 58.8983 19.102 58.8983 19.102L58.9586 18.8193C59.0188 18.8193 59.0791 18.7627 59.0791 18.7627C59.0791 18.7627 58.9586 19.0454 59.1394 19.2717C59.3202 19.4413 59.4407 19.611 59.501 19.6675Z" fill="#EF9EA3"/>
<path d="M62.4526 25.9458C62.4526 25.9458 60.5845 27.9251 58.656 27.1899C58.1739 27.0202 57.752 26.6809 57.4507 26.3416C57.4507 26.3416 58.1739 24.2492 57.9931 23.9665C57.8123 23.7402 57.2699 23.2313 57.2699 22.9485C57.2699 22.9485 57.2699 22.9485 57.2699 22.892C57.3302 22.6092 58.2341 20.4603 58.2341 20.4603C58.2341 20.4037 59.8613 19.0465 60.6447 18.9899C61.4884 18.9334 61.1268 24.7582 62.4526 25.9458Z" fill="url(#paint142_linear_214_4193)"/>
<path d="M55.7705 22.1547C55.7705 22.1547 56.3732 21.0802 56.4937 21.0236C56.6142 20.9105 57.2771 20.4581 57.2168 20.5712C57.1566 20.6843 56.795 21.1933 56.795 21.363C56.795 21.5326 56.9758 21.6457 56.9758 21.7023C56.9758 21.7588 56.1321 22.4374 56.1321 22.4374L55.7705 22.1547Z" fill="#F9B888"/>
<path opacity="0.3" d="M58.6585 27.1885C58.1763 27.0188 57.7545 26.6795 57.4532 26.3402C57.4532 26.3402 58.1764 24.2478 57.9956 23.9651C57.8148 23.7388 57.2724 23.2299 57.2724 22.9471C57.875 22.4947 58.6585 21.9292 58.6585 21.9292C58.6585 21.9292 58.779 23.3995 58.4174 23.6823C58.1161 23.9651 57.875 26.8492 58.6585 27.1885Z" fill="url(#paint143_linear_214_4193)"/>
<path d="M58.119 23.2868C58.119 23.2868 55.7687 24.5309 55.2866 24.5309C54.8045 24.5309 54.3826 24.1916 54.3826 23.9654C54.3826 23.7958 55.829 21.9861 55.829 21.9861C55.8892 21.9861 56.0098 22.0427 56.07 22.0427C56.1303 22.0992 56.2508 22.1558 56.3111 22.2123C56.4919 22.0427 58.0588 20.6854 58.2998 20.4592C58.4806 20.2896 59.1435 22.4951 58.119 23.2868Z" fill="url(#paint144_linear_214_4193)"/>
<path opacity="0.3" d="M56.2466 22.269L55.2824 22.9476C55.3426 22.8911 55.9452 22.3256 56.0055 22.0994C56.126 22.1559 56.1863 22.2125 56.2466 22.269Z" fill="url(#paint145_linear_214_4193)"/>
<path d="M58.523 17.8006C58.523 17.6875 58.523 17.5744 58.523 17.4613C58.5832 16.7261 59.6077 17.4047 59.909 17.9702C60.2706 18.5358 58.8845 19.6102 58.5832 19.1013C58.2216 18.4792 58.4024 18.0268 58.4024 18.0268C58.523 17.9137 58.523 17.8571 58.523 17.8006Z" fill="#F9B888"/>
<path opacity="0.2" d="M58.522 17.8014C58.522 17.6883 58.522 17.5752 58.522 17.4621C58.5822 16.8966 59.1849 17.1794 59.667 17.6318H59.6067C59.5465 17.6318 59.4862 17.6318 59.4862 17.6883C59.4259 17.6883 59.4259 17.6318 59.3657 17.6318C59.2451 17.6318 58.9438 17.5752 58.8835 17.5752C58.7028 17.6318 58.763 17.9145 58.6425 18.1407C58.522 18.3669 58.6425 18.6497 58.7028 18.8194C58.763 18.989 58.8836 19.1587 59.1246 19.2152C58.9438 19.2718 58.763 19.2718 58.6425 19.1021C58.2809 18.4801 58.4617 18.0276 58.4617 18.0276C58.522 17.9145 58.522 17.858 58.522 17.8014Z" fill="#EF9EA3"/>
<path d="M59.5492 16.7262C60.2723 16.9524 60.5134 16.4435 60.9353 17.4048C61.2366 18.14 61.8392 17.4614 62.2008 18.3097C62.5624 19.1579 62.1405 18.9317 62.6227 19.7234C63.0445 20.4021 62.5624 21.0807 62.4419 21.5331C62.2611 21.9855 61.9597 22.2117 62.3213 22.8903C62.3213 22.8903 60.7545 22.8903 60.875 21.8158C60.9955 20.7414 60.0313 21.2503 60.0915 20.5152C60.1518 19.8931 59.4287 20.1759 59.4287 19.78C59.4287 19.3841 58.7657 19.2145 59.2478 18.5359C59.5492 18.14 58.4644 17.8572 58.5247 17.4048C58.4644 17.009 58.7657 16.5 59.5492 16.7262Z" fill="#333333"/>
<path d="M59.0084 18.0844C59.0084 18.0279 59.1892 17.9148 59.2495 18.0279C59.3097 18.1975 59.2494 18.3106 59.1892 18.4803C59.1289 18.5934 59.0687 18.5369 59.0687 18.4803C59.0687 18.4237 59.0084 18.3106 59.0084 18.0844Z" fill="#F9B888"/>
<path d="M60.3489 37.3113C60.7105 37.1417 60.59 36.5196 60.59 36.5196C60.831 36.5196 61.0721 36.5196 61.3132 36.4065C61.3132 36.5761 61.4939 36.9155 61.5542 37.1982C61.5542 37.4244 61.3734 37.5375 61.3734 37.7637H61.1926L61.2529 37.3113C60.9516 37.3113 60.59 37.7637 60.2284 37.7637C59.8668 37.7637 59.7463 37.6506 59.686 37.5375C59.6258 37.4244 59.9873 37.481 60.3489 37.3113Z" fill="#05105D"/>
<path d="M57.7596 37.5941C58.1211 37.3679 58.0609 36.8024 58.0609 36.8024C58.3019 36.8024 58.543 36.8024 58.7238 36.7458C58.7238 36.9155 58.9648 37.2548 58.9648 37.5376C58.9648 37.7638 58.7841 37.9334 58.7841 38.1596H58.6033L58.7238 37.6507C58.4225 37.6507 58.0006 38.1596 57.639 38.1596C57.2172 38.1596 57.0967 38.0465 57.0967 37.9334C57.0364 37.7638 57.398 37.8203 57.7596 37.5941Z" fill="#05105D"/>
<defs>
<linearGradient id="paint0_linear_214_4193" x1="-0.0289634" y1="113.899" x2="105.97" y2="113.899" gradientUnits="userSpaceOnUse">
<stop stop-color="#A1C1FF"/>
<stop offset="1" stop-color="white"/>
</linearGradient>
<linearGradient id="paint1_linear_214_4193" x1="17.6167" y1="92.5172" x2="88.3226" y2="92.5172" gradientUnits="userSpaceOnUse">
<stop offset="0.3375" stop-color="#97B5E1"/>
<stop offset="0.5932" stop-color="#E8F1FF"/>
</linearGradient>
<linearGradient id="paint2_linear_214_4193" x1="88.0497" y1="72.9535" x2="17.9665" y2="66.163" gradientUnits="userSpaceOnUse">
<stop stop-color="white"/>
<stop offset="1" stop-color="#C9D9F4"/>
</linearGradient>
<linearGradient id="paint3_linear_214_4193" x1="24.7083" y1="84.0226" x2="23.5707" y2="81.9196" gradientUnits="userSpaceOnUse">
<stop stop-color="#103DB5"/>
<stop offset="0.6426" stop-color="#6BABFD"/>
</linearGradient>
<linearGradient id="paint4_linear_214_4193" x1="28.4229" y1="86.0139" x2="27.2853" y2="83.9109" gradientUnits="userSpaceOnUse">
<stop stop-color="#103DB5"/>
<stop offset="0.6426" stop-color="#6BABFD"/>
</linearGradient>
<linearGradient id="paint5_linear_214_4193" x1="32.2582" y1="92.1625" x2="27.3571" y2="99.5019" gradientUnits="userSpaceOnUse">
<stop stop-color="#F1935C" stop-opacity="0.6"/>
<stop offset="1" stop-color="#FFE4D4" stop-opacity="0"/>
</linearGradient>
<linearGradient id="paint6_linear_214_4193" x1="3.14716" y1="11.5158" x2="15.0527" y2="1.78229" gradientUnits="userSpaceOnUse">
<stop stop-color="#A1C1FF"/>
<stop offset="1" stop-color="#B2D7FF"/>
</linearGradient>
<linearGradient id="paint7_linear_214_4193" x1="22.1902" y1="7.06564" x2="10.7893" y2="0.176735" gradientUnits="userSpaceOnUse">
<stop stop-color="white"/>
<stop offset="1" stop-color="#C9D9F4"/>
</linearGradient>
<linearGradient id="paint8_linear_214_4193" x1="100.354" y1="15.4712" x2="93.3146" y2="9.7162" gradientUnits="userSpaceOnUse">
<stop stop-color="#A1C1FF"/>
<stop offset="1" stop-color="#B2D7FF"/>
</linearGradient>
<linearGradient id="paint9_linear_214_4193" x1="89.0958" y1="12.8402" x2="95.8364" y2="8.76714" gradientUnits="userSpaceOnUse">
<stop stop-color="white"/>
<stop offset="1" stop-color="#C9D9F4"/>
</linearGradient>
<linearGradient id="paint10_linear_214_4193" x1="22.3769" y1="62.7775" x2="82.1488" y2="62.7775" gradientUnits="userSpaceOnUse">
<stop offset="0.3375" stop-color="#97B5E1"/>
<stop offset="0.5932" stop-color="#E8F1FF"/>
</linearGradient>
<linearGradient id="paint11_linear_214_4193" x1="81.921" y1="42.4632" x2="22.6845" y2="36.6756" gradientUnits="userSpaceOnUse">
<stop stop-color="white"/>
<stop offset="1" stop-color="#C9D9F4"/>
</linearGradient>
<linearGradient id="paint12_linear_214_4193" x1="44.3084" y1="57.9375" x2="34.149" y2="81.4796" gradientUnits="userSpaceOnUse">
<stop stop-color="#97B5E1"/>
<stop offset="1" stop-color="#E8F1FF"/>
</linearGradient>
<linearGradient id="paint13_linear_214_4193" x1="45.6768" y1="59.7782" x2="26.5577" y2="71.6589" gradientUnits="userSpaceOnUse">
<stop stop-color="white"/>
<stop offset="1" stop-color="white" stop-opacity="0.2"/>
</linearGradient>
<linearGradient id="paint14_linear_214_4193" x1="59.4006" y1="32.6447" x2="50.8037" y2="32.6857" gradientUnits="userSpaceOnUse">
<stop offset="0.229167" stop-color="#509AA6"/>
<stop offset="0.589583" stop-color="#34656D"/>
</linearGradient>
<linearGradient id="paint15_linear_214_4193" x1="47.1263" y1="32.6802" x2="46.235" y2="32.6748" gradientUnits="userSpaceOnUse">
<stop offset="0.13125" stop-color="#074E58"/>
<stop offset="0.864583" stop-color="#67BAC8"/>
</linearGradient>
<linearGradient id="paint16_linear_214_4193" x1="63.0973" y1="34.3558" x2="64.0313" y2="34.3402" gradientUnits="userSpaceOnUse">
<stop offset="0.13125" stop-color="#074E58"/>
<stop offset="0.864583" stop-color="#67BAC8"/>
</linearGradient>
<linearGradient id="paint17_linear_214_4193" x1="63.9424" y1="36.5196" x2="65.9123" y2="36.5196" gradientUnits="userSpaceOnUse">
<stop offset="0.13125" stop-color="#074E58"/>
<stop offset="0.864583" stop-color="#67BAC8"/>
</linearGradient>
<linearGradient id="paint18_linear_214_4193" x1="43.8801" y1="36.7857" x2="46.0795" y2="36.913" gradientUnits="userSpaceOnUse">
<stop offset="0.13125" stop-color="#074E58"/>
<stop offset="0.864583" stop-color="#67BAC8"/>
</linearGradient>
<linearGradient id="paint19_linear_214_4193" x1="46.1844" y1="37.5544" x2="47.3952" y2="37.5907" gradientUnits="userSpaceOnUse">
<stop offset="0.13125" stop-color="#074E58"/>
<stop offset="0.864583" stop-color="#67BAC8"/>
</linearGradient>
<linearGradient id="paint20_linear_214_4193" x1="62.8072" y1="37.341" x2="63.8286" y2="37.341" gradientUnits="userSpaceOnUse">
<stop offset="0.13125" stop-color="#074E58"/>
<stop offset="0.864583" stop-color="#67BAC8"/>
</linearGradient>
<linearGradient id="paint21_linear_214_4193" x1="47.9921" y1="40.3078" x2="49.7987" y2="40.1625" gradientUnits="userSpaceOnUse">
<stop offset="0.13125" stop-color="#074E58"/>
<stop offset="0.864583" stop-color="#67BAC8"/>
</linearGradient>
<linearGradient id="paint22_linear_214_4193" x1="50.6018" y1="40.4998" x2="52.6141" y2="40.5725" gradientUnits="userSpaceOnUse">
<stop offset="0.13125" stop-color="#074E58"/>
<stop offset="0.864583" stop-color="#67BAC8"/>
</linearGradient>
<linearGradient id="paint23_linear_214_4193" x1="57.6833" y1="40.5042" x2="59.6221" y2="40.3334" gradientUnits="userSpaceOnUse">
<stop offset="0.13125" stop-color="#074E58"/>
<stop offset="0.864583" stop-color="#67BAC8"/>
</linearGradient>
<linearGradient id="paint24_linear_214_4193" x1="62.5293" y1="40.6693" x2="63.9004" y2="40.5916" gradientUnits="userSpaceOnUse">
<stop offset="0.13125" stop-color="#074E58"/>
<stop offset="0.864583" stop-color="#67BAC8"/>
</linearGradient>
<linearGradient id="paint25_linear_214_4193" x1="46.4701" y1="40.3069" x2="47.9024" y2="40.3797" gradientUnits="userSpaceOnUse">
<stop offset="0.13125" stop-color="#074E58"/>
<stop offset="0.864583" stop-color="#67BAC8"/>
</linearGradient>
<linearGradient id="paint26_linear_214_4193" x1="60.1045" y1="40.2579" x2="61.882" y2="40.4597" gradientUnits="userSpaceOnUse">
<stop offset="0.13125" stop-color="#074E58"/>
<stop offset="0.864583" stop-color="#67BAC8"/>
</linearGradient>
<linearGradient id="paint27_linear_214_4193" x1="53.4153" y1="41.4903" x2="53.8769" y2="41.4838" gradientUnits="userSpaceOnUse">
<stop offset="0.13125" stop-color="#074E58"/>
<stop offset="0.864583" stop-color="#67BAC8"/>
</linearGradient>
<linearGradient id="paint28_linear_214_4193" x1="54.0871" y1="41.9638" x2="55.6429" y2="41.9433" gradientUnits="userSpaceOnUse">
<stop offset="0.13125" stop-color="#074E58"/>
<stop offset="0.864583" stop-color="#67BAC8"/>
</linearGradient>
<linearGradient id="paint29_linear_214_4193" x1="56.313" y1="41.4091" x2="56.9985" y2="41.3624" gradientUnits="userSpaceOnUse">
<stop offset="0.13125" stop-color="#074E58"/>
<stop offset="0.864583" stop-color="#67BAC8"/>
</linearGradient>
<linearGradient id="paint30_linear_214_4193" x1="46.8158" y1="32.6388" x2="46.334" y2="31.4405" gradientUnits="userSpaceOnUse">
<stop stop-color="#F1935C"/>
<stop offset="1" stop-color="#D9641F"/>
</linearGradient>
<linearGradient id="paint31_linear_214_4193" x1="63.9434" y1="32.8225" x2="62.9395" y2="32.3429" gradientUnits="userSpaceOnUse">
<stop stop-color="#F1935C"/>
<stop offset="1" stop-color="#D9641F"/>
</linearGradient>
<linearGradient id="paint32_linear_214_4193" x1="65.5288" y1="37.1796" x2="64.3136" y2="36.0249" gradientUnits="userSpaceOnUse">
<stop stop-color="#F1935C"/>
<stop offset="1" stop-color="#D9641F"/>
</linearGradient>
<linearGradient id="paint33_linear_214_4193" x1="45.4948" y1="37.357" x2="44.0584" y2="36.2051" gradientUnits="userSpaceOnUse">
<stop stop-color="#F1935C"/>
<stop offset="1" stop-color="#D9641F"/>
</linearGradient>
<linearGradient id="paint34_linear_214_4193" x1="46.6446" y1="38.0566" x2="46.301" y2="36.4231" gradientUnits="userSpaceOnUse">
<stop stop-color="#F1935C"/>
<stop offset="1" stop-color="#D9641F"/>
</linearGradient>
<linearGradient id="paint35_linear_214_4193" x1="63.8639" y1="37.6831" x2="62.9407" y2="37.7327" gradientUnits="userSpaceOnUse">
<stop stop-color="#F1935C"/>
<stop offset="1" stop-color="#D9641F"/>
</linearGradient>
<linearGradient id="paint36_linear_214_4193" x1="49.5114" y1="41.0819" x2="48.4743" y2="40.2341" gradientUnits="userSpaceOnUse">
<stop stop-color="#F1935C"/>
<stop offset="1" stop-color="#D9641F"/>
</linearGradient>
<linearGradient id="paint37_linear_214_4193" x1="45.0792" y1="37.9759" x2="47.6555" y2="40.4115" gradientUnits="userSpaceOnUse">
<stop offset="0.13125" stop-color="#074E58"/>
<stop offset="0.864583" stop-color="#67BAC8"/>
</linearGradient>
<linearGradient id="paint38_linear_214_4193" x1="52.3504" y1="41.2219" x2="50.8758" y2="39.7703" gradientUnits="userSpaceOnUse">
<stop stop-color="#F1935C"/>
<stop offset="1" stop-color="#D9641F"/>
</linearGradient>
<linearGradient id="paint39_linear_214_4193" x1="59.7065" y1="41.1767" x2="58.0659" y2="41.1056" gradientUnits="userSpaceOnUse">
<stop stop-color="#F1935C"/>
<stop offset="1" stop-color="#D9641F"/>
</linearGradient>
<linearGradient id="paint40_linear_214_4193" x1="47.1379" y1="40.8569" x2="46.2807" y2="38.7588" gradientUnits="userSpaceOnUse">
<stop stop-color="#F1935C"/>
<stop offset="1" stop-color="#D9641F"/>
</linearGradient>
<linearGradient id="paint41_linear_214_4193" x1="63.5325" y1="40.753" x2="62.3166" y2="39.8801" gradientUnits="userSpaceOnUse">
<stop stop-color="#F1935C"/>
<stop offset="1" stop-color="#D9641F"/>
</linearGradient>
<linearGradient id="paint42_linear_214_4193" x1="61.1685" y1="40.726" x2="60.3108" y2="39.2767" gradientUnits="userSpaceOnUse">
<stop stop-color="#F1935C"/>
<stop offset="1" stop-color="#D9641F"/>
</linearGradient>
<linearGradient id="paint43_linear_214_4193" x1="53.6884" y1="42.1035" x2="52.9412" y2="41.4124" gradientUnits="userSpaceOnUse">
<stop stop-color="#F1935C"/>
<stop offset="1" stop-color="#D9641F"/>
</linearGradient>
<linearGradient id="paint44_linear_214_4193" x1="55.436" y1="42.5941" x2="54.1626" y2="41.0159" gradientUnits="userSpaceOnUse">
<stop stop-color="#F1935C"/>
<stop offset="1" stop-color="#D9641F"/>
</linearGradient>
<linearGradient id="paint45_linear_214_4193" x1="56.6703" y1="42.1028" x2="56.0069" y2="41.8829" gradientUnits="userSpaceOnUse">
<stop stop-color="#F1935C"/>
<stop offset="1" stop-color="#D9641F"/>
</linearGradient>
<linearGradient id="paint46_linear_214_4193" x1="41.2013" y1="37.9878" x2="37.0309" y2="38.0077" gradientUnits="userSpaceOnUse">
<stop offset="0.229167" stop-color="#509AA6"/>
<stop offset="0.589583" stop-color="#34656D"/>
</linearGradient>
<linearGradient id="paint47_linear_214_4193" x1="35.2491" y1="38.0039" x2="34.8168" y2="38.0014" gradientUnits="userSpaceOnUse">
<stop offset="0.13125" stop-color="#074E58"/>
<stop offset="0.864583" stop-color="#67BAC8"/>
</linearGradient>
<linearGradient id="paint48_linear_214_4193" x1="42.9979" y1="38.8168" x2="43.451" y2="38.8092" gradientUnits="userSpaceOnUse">
<stop offset="0.13125" stop-color="#074E58"/>
<stop offset="0.864583" stop-color="#67BAC8"/>
</linearGradient>
<linearGradient id="paint49_linear_214_4193" x1="43.4063" y1="39.8662" x2="44.3619" y2="39.8662" gradientUnits="userSpaceOnUse">
<stop offset="0.13125" stop-color="#074E58"/>
<stop offset="0.864583" stop-color="#67BAC8"/>
</linearGradient>
<linearGradient id="paint50_linear_214_4193" x1="33.6728" y1="39.9954" x2="34.7398" y2="40.0571" gradientUnits="userSpaceOnUse">
<stop offset="0.13125" stop-color="#074E58"/>
<stop offset="0.864583" stop-color="#67BAC8"/>
</linearGradient>
<linearGradient id="paint51_linear_214_4193" x1="34.7917" y1="40.3687" x2="35.3791" y2="40.3863" gradientUnits="userSpaceOnUse">
<stop offset="0.13125" stop-color="#074E58"/>
<stop offset="0.864583" stop-color="#67BAC8"/>
</linearGradient>
<linearGradient id="paint52_linear_214_4193" x1="42.8513" y1="40.2661" x2="43.3467" y2="40.2661" gradientUnits="userSpaceOnUse">
<stop offset="0.13125" stop-color="#074E58"/>
<stop offset="0.864583" stop-color="#67BAC8"/>
</linearGradient>
<linearGradient id="paint53_linear_214_4193" x1="35.6662" y1="41.7031" x2="36.5426" y2="41.6326" gradientUnits="userSpaceOnUse">
<stop offset="0.13125" stop-color="#074E58"/>
<stop offset="0.864583" stop-color="#67BAC8"/>
</linearGradient>
<linearGradient id="paint54_linear_214_4193" x1="36.9327" y1="41.7961" x2="37.9089" y2="41.8314" gradientUnits="userSpaceOnUse">
<stop offset="0.13125" stop-color="#074E58"/>
<stop offset="0.864583" stop-color="#67BAC8"/>
</linearGradient>
<linearGradient id="paint55_linear_214_4193" x1="40.3732" y1="41.7984" x2="41.3137" y2="41.7155" gradientUnits="userSpaceOnUse">
<stop offset="0.13125" stop-color="#074E58"/>
<stop offset="0.864583" stop-color="#67BAC8"/>
</linearGradient>
<linearGradient id="paint56_linear_214_4193" x1="42.722" y1="41.8801" x2="43.3872" y2="41.8424" gradientUnits="userSpaceOnUse">
<stop offset="0.13125" stop-color="#074E58"/>
<stop offset="0.864583" stop-color="#67BAC8"/>
</linearGradient>
<linearGradient id="paint57_linear_214_4193" x1="34.9295" y1="41.7044" x2="35.6243" y2="41.7397" gradientUnits="userSpaceOnUse">
<stop offset="0.13125" stop-color="#074E58"/>
<stop offset="0.864583" stop-color="#67BAC8"/>
</linearGradient>
<linearGradient id="paint58_linear_214_4193" x1="41.5454" y1="41.6788" x2="42.4076" y2="41.7767" gradientUnits="userSpaceOnUse">
<stop offset="0.13125" stop-color="#074E58"/>
<stop offset="0.864583" stop-color="#67BAC8"/>
</linearGradient>
<linearGradient id="paint59_linear_214_4193" x1="38.296" y1="42.276" x2="38.5199" y2="42.2729" gradientUnits="userSpaceOnUse">
<stop offset="0.13125" stop-color="#074E58"/>
<stop offset="0.864583" stop-color="#67BAC8"/>
</linearGradient>
<linearGradient id="paint60_linear_214_4193" x1="38.6292" y1="42.5067" x2="39.3839" y2="42.4968" gradientUnits="userSpaceOnUse">
<stop offset="0.13125" stop-color="#074E58"/>
<stop offset="0.864583" stop-color="#67BAC8"/>
</linearGradient>
<linearGradient id="paint61_linear_214_4193" x1="39.7042" y1="42.2366" x2="40.0367" y2="42.214" gradientUnits="userSpaceOnUse">
<stop offset="0.13125" stop-color="#074E58"/>
<stop offset="0.864583" stop-color="#67BAC8"/>
</linearGradient>
<linearGradient id="paint62_linear_214_4193" x1="35.0989" y1="37.9847" x2="34.8651" y2="37.4034" gradientUnits="userSpaceOnUse">
<stop stop-color="#F1935C"/>
<stop offset="1" stop-color="#D9641F"/>
</linearGradient>
<linearGradient id="paint63_linear_214_4193" x1="43.4131" y1="38.0739" x2="42.9261" y2="37.8412" gradientUnits="userSpaceOnUse">
<stop stop-color="#F1935C"/>
<stop offset="1" stop-color="#D9641F"/>
</linearGradient>
<linearGradient id="paint64_linear_214_4193" x1="44.1794" y1="40.1888" x2="43.5898" y2="39.6286" gradientUnits="userSpaceOnUse">
<stop stop-color="#F1935C"/>
<stop offset="1" stop-color="#D9641F"/>
</linearGradient>
<linearGradient id="paint65_linear_214_4193" x1="34.4563" y1="40.2734" x2="33.7595" y2="39.7147" gradientUnits="userSpaceOnUse">
<stop stop-color="#F1935C"/>
<stop offset="1" stop-color="#D9641F"/>
</linearGradient>
<linearGradient id="paint66_linear_214_4193" x1="35.0212" y1="40.6128" x2="34.8545" y2="39.8204" gradientUnits="userSpaceOnUse">
<stop stop-color="#F1935C"/>
<stop offset="1" stop-color="#D9641F"/>
</linearGradient>
<linearGradient id="paint67_linear_214_4193" x1="43.3656" y1="40.4321" x2="42.9178" y2="40.4561" gradientUnits="userSpaceOnUse">
<stop stop-color="#F1935C"/>
<stop offset="1" stop-color="#D9641F"/>
</linearGradient>
<linearGradient id="paint68_linear_214_4193" x1="36.402" y1="42.0795" x2="35.8989" y2="41.6682" gradientUnits="userSpaceOnUse">
<stop stop-color="#F1935C"/>
<stop offset="1" stop-color="#D9641F"/>
</linearGradient>
<linearGradient id="paint69_linear_214_4193" x1="34.2559" y1="40.5739" x2="35.5057" y2="41.7555" gradientUnits="userSpaceOnUse">
<stop offset="0.13125" stop-color="#074E58"/>
<stop offset="0.864583" stop-color="#67BAC8"/>
</linearGradient>
<linearGradient id="paint70_linear_214_4193" x1="37.7806" y1="42.1474" x2="37.0653" y2="41.4433" gradientUnits="userSpaceOnUse">
<stop stop-color="#F1935C"/>
<stop offset="1" stop-color="#D9641F"/>
</linearGradient>
<linearGradient id="paint71_linear_214_4193" x1="41.3496" y1="42.1264" x2="40.5538" y2="42.092" gradientUnits="userSpaceOnUse">
<stop stop-color="#F1935C"/>
<stop offset="1" stop-color="#D9641F"/>
</linearGradient>
<linearGradient id="paint72_linear_214_4193" x1="35.2572" y1="41.9706" x2="34.8414" y2="40.9528" gradientUnits="userSpaceOnUse">
<stop stop-color="#F1935C"/>
<stop offset="1" stop-color="#D9641F"/>
</linearGradient>
<linearGradient id="paint73_linear_214_4193" x1="43.205" y1="41.9202" x2="42.6151" y2="41.4968" gradientUnits="userSpaceOnUse">
<stop stop-color="#F1935C"/>
<stop offset="1" stop-color="#D9641F"/>
</linearGradient>
<linearGradient id="paint74_linear_214_4193" x1="42.065" y1="41.9078" x2="41.6489" y2="41.2047" gradientUnits="userSpaceOnUse">
<stop stop-color="#F1935C"/>
<stop offset="1" stop-color="#D9641F"/>
</linearGradient>
<linearGradient id="paint75_linear_214_4193" x1="38.4364" y1="42.576" x2="38.0739" y2="42.2408" gradientUnits="userSpaceOnUse">
<stop stop-color="#F1935C"/>
<stop offset="1" stop-color="#D9641F"/>
</linearGradient>
<linearGradient id="paint76_linear_214_4193" x1="39.2763" y1="42.8131" x2="38.6586" y2="42.0475" gradientUnits="userSpaceOnUse">
<stop stop-color="#F1935C"/>
<stop offset="1" stop-color="#D9641F"/>
</linearGradient>
<linearGradient id="paint77_linear_214_4193" x1="39.8848" y1="42.5763" x2="39.5629" y2="42.4696" gradientUnits="userSpaceOnUse">
<stop stop-color="#F1935C"/>
<stop offset="1" stop-color="#D9641F"/>
</linearGradient>
<linearGradient id="paint78_linear_214_4193" x1="54.1646" y1="43.4526" x2="48.8359" y2="43.4781" gradientUnits="userSpaceOnUse">
<stop offset="0.229167" stop-color="#509AA6"/>
<stop offset="0.589583" stop-color="#34656D"/>
</linearGradient>
<linearGradient id="paint79_linear_214_4193" x1="46.5511" y1="43.476" x2="45.9987" y2="43.4727" gradientUnits="userSpaceOnUse">
<stop offset="0.13125" stop-color="#074E58"/>
<stop offset="0.864583" stop-color="#67BAC8"/>
</linearGradient>
<linearGradient id="paint80_linear_214_4193" x1="56.4576" y1="44.5146" x2="57.0365" y2="44.5049" gradientUnits="userSpaceOnUse">
<stop offset="0.13125" stop-color="#074E58"/>
<stop offset="0.864583" stop-color="#67BAC8"/>
</linearGradient>
<linearGradient id="paint81_linear_214_4193" x1="56.9786" y1="45.8545" x2="58.1996" y2="45.8545" gradientUnits="userSpaceOnUse">
<stop offset="0.13125" stop-color="#074E58"/>
<stop offset="0.864583" stop-color="#67BAC8"/>
</linearGradient>
<linearGradient id="paint82_linear_214_4193" x1="44.539" y1="46.0212" x2="45.9022" y2="46.1001" gradientUnits="userSpaceOnUse">
<stop offset="0.13125" stop-color="#074E58"/>
<stop offset="0.864583" stop-color="#67BAC8"/>
</linearGradient>
<linearGradient id="paint83_linear_214_4193" x1="45.971" y1="46.4968" x2="46.7215" y2="46.5193" gradientUnits="userSpaceOnUse">
<stop offset="0.13125" stop-color="#074E58"/>
<stop offset="0.864583" stop-color="#67BAC8"/>
</linearGradient>
<linearGradient id="paint84_linear_214_4193" x1="56.2723" y1="46.3647" x2="56.9054" y2="46.3647" gradientUnits="userSpaceOnUse">
<stop offset="0.13125" stop-color="#074E58"/>
<stop offset="0.864583" stop-color="#67BAC8"/>
</linearGradient>
<linearGradient id="paint85_linear_214_4193" x1="47.0869" y1="48.2035" x2="48.2067" y2="48.1135" gradientUnits="userSpaceOnUse">
<stop offset="0.13125" stop-color="#074E58"/>
<stop offset="0.864583" stop-color="#67BAC8"/>
</linearGradient>
<linearGradient id="paint86_linear_214_4193" x1="48.709" y1="48.3225" x2="49.9563" y2="48.3676" gradientUnits="userSpaceOnUse">
<stop offset="0.13125" stop-color="#074E58"/>
<stop offset="0.864583" stop-color="#67BAC8"/>
</linearGradient>
<linearGradient id="paint87_linear_214_4193" x1="53.0998" y1="48.3253" x2="54.3016" y2="48.2194" gradientUnits="userSpaceOnUse">
<stop offset="0.13125" stop-color="#074E58"/>
<stop offset="0.864583" stop-color="#67BAC8"/>
</linearGradient>
<linearGradient id="paint88_linear_214_4193" x1="56.1034" y1="48.427" x2="56.9532" y2="48.3788" gradientUnits="userSpaceOnUse">
<stop offset="0.13125" stop-color="#074E58"/>
<stop offset="0.864583" stop-color="#67BAC8"/>
</linearGradient>
<linearGradient id="paint89_linear_214_4193" x1="46.1479" y1="48.2034" x2="47.0357" y2="48.2484" gradientUnits="userSpaceOnUse">
<stop offset="0.13125" stop-color="#074E58"/>
<stop offset="0.864583" stop-color="#67BAC8"/>
</linearGradient>
<linearGradient id="paint90_linear_214_4193" x1="54.5976" y1="48.1725" x2="55.6993" y2="48.2976" gradientUnits="userSpaceOnUse">
<stop offset="0.13125" stop-color="#074E58"/>
<stop offset="0.864583" stop-color="#67BAC8"/>
</linearGradient>
<linearGradient id="paint91_linear_214_4193" x1="50.455" y1="48.9359" x2="50.7411" y2="48.932" gradientUnits="userSpaceOnUse">
<stop offset="0.13125" stop-color="#074E58"/>
<stop offset="0.864583" stop-color="#67BAC8"/>
</linearGradient>
<linearGradient id="paint92_linear_214_4193" x1="50.8679" y1="49.2307" x2="51.8322" y2="49.218" gradientUnits="userSpaceOnUse">
<stop offset="0.13125" stop-color="#074E58"/>
<stop offset="0.864583" stop-color="#67BAC8"/>
</linearGradient>
<linearGradient id="paint93_linear_214_4193" x1="52.2505" y1="48.8856" x2="52.6754" y2="48.8567" gradientUnits="userSpaceOnUse">
<stop offset="0.13125" stop-color="#074E58"/>
<stop offset="0.864583" stop-color="#67BAC8"/>
</linearGradient>
<linearGradient id="paint94_linear_214_4193" x1="46.3589" y1="43.4486" x2="46.0603" y2="42.7059" gradientUnits="userSpaceOnUse">
<stop stop-color="#F1935C"/>
<stop offset="1" stop-color="#D9641F"/>
</linearGradient>
<linearGradient id="paint95_linear_214_4193" x1="56.9734" y1="43.562" x2="56.3512" y2="43.2648" gradientUnits="userSpaceOnUse">
<stop stop-color="#F1935C"/>
<stop offset="1" stop-color="#D9641F"/>
</linearGradient>
<linearGradient id="paint96_linear_214_4193" x1="57.9591" y1="46.2635" x2="57.2059" y2="45.5478" gradientUnits="userSpaceOnUse">
<stop stop-color="#F1935C"/>
<stop offset="1" stop-color="#D9641F"/>
</linearGradient>
<linearGradient id="paint97_linear_214_4193" x1="45.5449" y1="46.3744" x2="44.6546" y2="45.6604" gradientUnits="userSpaceOnUse">
<stop stop-color="#F1935C"/>
<stop offset="1" stop-color="#D9641F"/>
</linearGradient>
<linearGradient id="paint98_linear_214_4193" x1="46.2555" y1="46.8082" x2="46.0425" y2="45.7957" gradientUnits="userSpaceOnUse">
<stop stop-color="#F1935C"/>
<stop offset="1" stop-color="#D9641F"/>
</linearGradient>
<linearGradient id="paint99_linear_214_4193" x1="56.9274" y1="46.5761" x2="56.3552" y2="46.6068" gradientUnits="userSpaceOnUse">
<stop stop-color="#F1935C"/>
<stop offset="1" stop-color="#D9641F"/>
</linearGradient>
<linearGradient id="paint100_linear_214_4193" x1="48.0277" y1="48.6823" x2="47.3848" y2="48.1568" gradientUnits="userSpaceOnUse">
<stop stop-color="#F1935C"/>
<stop offset="1" stop-color="#D9641F"/>
</linearGradient>
<linearGradient id="paint101_linear_214_4193" x1="45.2875" y1="46.7591" x2="46.8843" y2="48.2688" gradientUnits="userSpaceOnUse">
<stop offset="0.13125" stop-color="#074E58"/>
<stop offset="0.864583" stop-color="#67BAC8"/>
</linearGradient>
<linearGradient id="paint102_linear_214_4193" x1="49.7872" y1="48.769" x2="48.8733" y2="47.8693" gradientUnits="userSpaceOnUse">
<stop stop-color="#F1935C"/>
<stop offset="1" stop-color="#D9641F"/>
</linearGradient>
<linearGradient id="paint103_linear_214_4193" x1="54.3469" y1="48.7407" x2="53.33" y2="48.6966" gradientUnits="userSpaceOnUse">
<stop stop-color="#F1935C"/>
<stop offset="1" stop-color="#D9641F"/>
</linearGradient>
<linearGradient id="paint104_linear_214_4193" x1="46.5609" y1="48.5429" x2="46.0295" y2="47.2424" gradientUnits="userSpaceOnUse">
<stop stop-color="#F1935C"/>
<stop offset="1" stop-color="#D9641F"/>
</linearGradient>
<linearGradient id="paint105_linear_214_4193" x1="56.7204" y1="48.4782" x2="55.9668" y2="47.9371" gradientUnits="userSpaceOnUse">
<stop stop-color="#F1935C"/>
<stop offset="1" stop-color="#D9641F"/>
</linearGradient>
<linearGradient id="paint106_linear_214_4193" x1="55.2583" y1="48.4613" x2="54.7266" y2="47.563" gradientUnits="userSpaceOnUse">
<stop stop-color="#F1935C"/>
<stop offset="1" stop-color="#D9641F"/>
</linearGradient>
<linearGradient id="paint107_linear_214_4193" x1="50.6171" y1="49.316" x2="50.154" y2="48.8876" gradientUnits="userSpaceOnUse">
<stop stop-color="#F1935C"/>
<stop offset="1" stop-color="#D9641F"/>
</linearGradient>
<linearGradient id="paint108_linear_214_4193" x1="51.7077" y1="49.6191" x2="50.9184" y2="48.6409" gradientUnits="userSpaceOnUse">
<stop stop-color="#F1935C"/>
<stop offset="1" stop-color="#D9641F"/>
</linearGradient>
<linearGradient id="paint109_linear_214_4193" x1="52.472" y1="49.3139" x2="52.0608" y2="49.1775" gradientUnits="userSpaceOnUse">
<stop stop-color="#F1935C"/>
<stop offset="1" stop-color="#D9641F"/>
</linearGradient>
<linearGradient id="paint110_linear_214_4193" x1="64.5497" y1="41.9361" x2="61.3968" y2="41.9511" gradientUnits="userSpaceOnUse">
<stop offset="0.229167" stop-color="#509AA6"/>
<stop offset="0.589583" stop-color="#34656D"/>
</linearGradient>
<linearGradient id="paint111_linear_214_4193" x1="60.0543" y1="41.9496" x2="59.7274" y2="41.9476" gradientUnits="userSpaceOnUse">
<stop offset="0.13125" stop-color="#074E58"/>
<stop offset="0.864583" stop-color="#67BAC8"/>
</linearGradient>
<linearGradient id="paint112_linear_214_4193" x1="65.9125" y1="42.564" x2="66.255" y2="42.5583" gradientUnits="userSpaceOnUse">
<stop offset="0.13125" stop-color="#074E58"/>
<stop offset="0.864583" stop-color="#67BAC8"/>
</linearGradient>
<linearGradient id="paint113_linear_214_4193" x1="66.2197" y1="43.3572" x2="66.9421" y2="43.3572" gradientUnits="userSpaceOnUse">
<stop offset="0.13125" stop-color="#074E58"/>
<stop offset="0.864583" stop-color="#67BAC8"/>
</linearGradient>
<linearGradient id="paint114_linear_214_4193" x1="58.8614" y1="43.4559" x2="59.668" y2="43.5025" gradientUnits="userSpaceOnUse">
<stop offset="0.13125" stop-color="#074E58"/>
<stop offset="0.864583" stop-color="#67BAC8"/>
</linearGradient>
<linearGradient id="paint115_linear_214_4193" x1="59.7052" y1="43.7369" x2="60.1493" y2="43.7502" gradientUnits="userSpaceOnUse">
<stop offset="0.13125" stop-color="#074E58"/>
<stop offset="0.864583" stop-color="#67BAC8"/>
</linearGradient>
<linearGradient id="paint116_linear_214_4193" x1="65.802" y1="43.6586" x2="66.1766" y2="43.6586" gradientUnits="userSpaceOnUse">
<stop offset="0.13125" stop-color="#074E58"/>
<stop offset="0.864583" stop-color="#67BAC8"/>
</linearGradient>
<linearGradient id="paint117_linear_214_4193" x1="60.367" y1="44.7481" x2="61.0296" y2="44.6949" gradientUnits="userSpaceOnUse">
<stop offset="0.13125" stop-color="#074E58"/>
<stop offset="0.864583" stop-color="#67BAC8"/>
</linearGradient>
<linearGradient id="paint118_linear_214_4193" x1="61.3261" y1="44.8186" x2="62.0641" y2="44.8452" gradientUnits="userSpaceOnUse">
<stop offset="0.13125" stop-color="#074E58"/>
<stop offset="0.864583" stop-color="#67BAC8"/>
</linearGradient>
<linearGradient id="paint119_linear_214_4193" x1="63.9282" y1="44.8202" x2="64.6392" y2="44.7575" gradientUnits="userSpaceOnUse">
<stop offset="0.13125" stop-color="#074E58"/>
<stop offset="0.864583" stop-color="#67BAC8"/>
</linearGradient>
<linearGradient id="paint120_linear_214_4193" x1="65.6984" y1="44.8785" x2="66.2013" y2="44.85" gradientUnits="userSpaceOnUse">
<stop offset="0.13125" stop-color="#074E58"/>
<stop offset="0.864583" stop-color="#67BAC8"/>
</linearGradient>
<linearGradient id="paint121_linear_214_4193" x1="59.8126" y1="44.7456" x2="60.3379" y2="44.7723" gradientUnits="userSpaceOnUse">
<stop offset="0.13125" stop-color="#074E58"/>
<stop offset="0.864583" stop-color="#67BAC8"/>
</linearGradient>
<linearGradient id="paint122_linear_214_4193" x1="64.8103" y1="44.7299" x2="65.4622" y2="44.8039" gradientUnits="userSpaceOnUse">
<stop offset="0.13125" stop-color="#074E58"/>
<stop offset="0.864583" stop-color="#67BAC8"/>
</linearGradient>
<linearGradient id="paint123_linear_214_4193" x1="62.361" y1="45.1802" x2="62.5303" y2="45.1779" gradientUnits="userSpaceOnUse">
<stop offset="0.13125" stop-color="#074E58"/>
<stop offset="0.864583" stop-color="#67BAC8"/>
</linearGradient>
<linearGradient id="paint124_linear_214_4193" x1="62.6073" y1="45.3557" x2="63.1779" y2="45.3482" gradientUnits="userSpaceOnUse">
<stop offset="0.13125" stop-color="#074E58"/>
<stop offset="0.864583" stop-color="#67BAC8"/>
</linearGradient>
<linearGradient id="paint125_linear_214_4193" x1="63.4189" y1="45.1505" x2="63.6703" y2="45.1333" gradientUnits="userSpaceOnUse">
<stop offset="0.13125" stop-color="#074E58"/>
<stop offset="0.864583" stop-color="#67BAC8"/>
</linearGradient>
<linearGradient id="paint126_linear_214_4193" x1="59.9362" y1="41.9349" x2="59.7595" y2="41.4955" gradientUnits="userSpaceOnUse">
<stop stop-color="#F1935C"/>
<stop offset="1" stop-color="#D9641F"/>
</linearGradient>
<linearGradient id="paint127_linear_214_4193" x1="66.2164" y1="42.0016" x2="65.8482" y2="41.8257" gradientUnits="userSpaceOnUse">
<stop stop-color="#F1935C"/>
<stop offset="1" stop-color="#D9641F"/>
</linearGradient>
<linearGradient id="paint128_linear_214_4193" x1="66.8043" y1="43.6" x2="66.3586" y2="43.1765" gradientUnits="userSpaceOnUse">
<stop stop-color="#F1935C"/>
<stop offset="1" stop-color="#D9641F"/>
</linearGradient>
<linearGradient id="paint129_linear_214_4193" x1="59.4596" y1="43.6655" x2="58.9328" y2="43.2431" gradientUnits="userSpaceOnUse">
<stop stop-color="#F1935C"/>
<stop offset="1" stop-color="#D9641F"/>
</linearGradient>
<linearGradient id="paint130_linear_214_4193" x1="59.8777" y1="43.9212" x2="59.7516" y2="43.3222" gradientUnits="userSpaceOnUse">
<stop stop-color="#F1935C"/>
<stop offset="1" stop-color="#D9641F"/>
</linearGradient>
<linearGradient id="paint131_linear_214_4193" x1="66.1906" y1="43.784" x2="65.8521" y2="43.8022" gradientUnits="userSpaceOnUse">
<stop stop-color="#F1935C"/>
<stop offset="1" stop-color="#D9641F"/>
</linearGradient>
<linearGradient id="paint132_linear_214_4193" x1="60.931" y1="45.0296" x2="60.5506" y2="44.7186" gradientUnits="userSpaceOnUse">
<stop stop-color="#F1935C"/>
<stop offset="1" stop-color="#D9641F"/>
</linearGradient>
<linearGradient id="paint133_linear_214_4193" x1="59.3023" y1="43.8917" x2="60.2472" y2="44.785" gradientUnits="userSpaceOnUse">
<stop offset="0.13125" stop-color="#074E58"/>
<stop offset="0.864583" stop-color="#67BAC8"/>
</linearGradient>
<linearGradient id="paint134_linear_214_4193" x1="61.9653" y1="45.0809" x2="61.4245" y2="44.5485" gradientUnits="userSpaceOnUse">
<stop stop-color="#F1935C"/>
<stop offset="1" stop-color="#D9641F"/>
</linearGradient>
<linearGradient id="paint135_linear_214_4193" x1="64.6607" y1="45.0656" x2="64.059" y2="45.0395" gradientUnits="userSpaceOnUse">
<stop stop-color="#F1935C"/>
<stop offset="1" stop-color="#D9641F"/>
</linearGradient>
<linearGradient id="paint136_linear_214_4193" x1="60.0582" y1="44.9484" x2="59.7438" y2="44.1789" gradientUnits="userSpaceOnUse">
<stop stop-color="#F1935C"/>
<stop offset="1" stop-color="#D9641F"/>
</linearGradient>
<linearGradient id="paint137_linear_214_4193" x1="66.0709" y1="44.9098" x2="65.6249" y2="44.5897" gradientUnits="userSpaceOnUse">
<stop stop-color="#F1935C"/>
<stop offset="1" stop-color="#D9641F"/>
</linearGradient>
<linearGradient id="paint138_linear_214_4193" x1="65.2068" y1="44.9004" x2="64.8922" y2="44.3688" gradientUnits="userSpaceOnUse">
<stop stop-color="#F1935C"/>
<stop offset="1" stop-color="#D9641F"/>
</linearGradient>
<linearGradient id="paint139_linear_214_4193" x1="62.4613" y1="45.4055" x2="62.1873" y2="45.1521" gradientUnits="userSpaceOnUse">
<stop stop-color="#F1935C"/>
<stop offset="1" stop-color="#D9641F"/>
</linearGradient>
<linearGradient id="paint140_linear_214_4193" x1="63.0989" y1="45.5855" x2="62.6319" y2="45.0067" gradientUnits="userSpaceOnUse">
<stop stop-color="#F1935C"/>
<stop offset="1" stop-color="#D9641F"/>
</linearGradient>
<linearGradient id="paint141_linear_214_4193" x1="63.5501" y1="45.4057" x2="63.3068" y2="45.3251" gradientUnits="userSpaceOnUse">
<stop stop-color="#F1935C"/>
<stop offset="1" stop-color="#D9641F"/>
</linearGradient>
<linearGradient id="paint142_linear_214_4193" x1="521.953" y1="23.1792" x2="527.124" y2="23.1792" gradientUnits="userSpaceOnUse">
<stop stop-color="#F1935C"/>
<stop offset="1" stop-color="#FFE4D4"/>
</linearGradient>
<linearGradient id="paint143_linear_214_4193" x1="525.762" y1="24.5576" x2="527.157" y2="24.5576" gradientUnits="userSpaceOnUse">
<stop offset="0.021" stop-color="#EDBD6A"/>
<stop offset="0.581" stop-color="#F4AC6A"/>
<stop offset="1" stop-color="#F7A66A"/>
</linearGradient>
<linearGradient id="paint144_linear_214_4193" x1="525.729" y1="22.5182" x2="530.072" y2="22.5182" gradientUnits="userSpaceOnUse">
<stop stop-color="#F1935C"/>
<stop offset="1" stop-color="#FFE4D4"/>
</linearGradient>
<linearGradient id="paint145_linear_214_4193" x1="528.193" y1="22.5315" x2="529.132" y2="22.5315" gradientUnits="userSpaceOnUse">
<stop offset="0.021" stop-color="#EDBD6A"/>
<stop offset="0.581" stop-color="#F4AC6A"/>
<stop offset="1" stop-color="#F7A66A"/>
</linearGradient>
</defs>
</svg>
