<svg width="20" height="21" viewBox="0 0 20 21" fill="none" xmlns="http://www.w3.org/2000/svg">
<path d="M18.125 10.5C18.125 14.9875 14.4875 18.625 10 18.625C5.5125 18.625 1.875 14.9875 1.875 10.5C1.875 6.0125 5.5125 2.375 10 2.375C14.4875 2.375 18.125 6.0125 18.125 10.5Z" stroke="#989898" stroke-linecap="round" stroke-linejoin="round"/>
<rect x="6.58325" y="5.25" width="6.83333" height="10.5" rx="0.75" stroke="#989898" stroke-width="0.5"/>
<ellipse cx="8.58974" cy="7.44445" rx="0.564103" ry="0.611111" fill="#989898"/>
<ellipse cx="8.58974" cy="10.5" rx="0.564103" ry="0.611111" fill="#989898"/>
<ellipse cx="11.41" cy="7.44445" rx="0.564103" ry="0.611111" fill="#989898"/>
<ellipse cx="11.41" cy="10.5" rx="0.564103" ry="0.611111" fill="#989898"/>
<ellipse cx="11.41" cy="13.5555" rx="0.564103" ry="0.611111" fill="#989898"/>
<path d="M8 13.875C8 13.3918 8.39175 13 8.875 13V13C9.35825 13 9.75 13.3918 9.75 13.875V16H8V13.875Z" fill="#989898"/>
<line x1="15" y1="10.75" x2="18" y2="10.75" stroke="#989898" stroke-width="0.5"/>
<line x1="14.8232" y1="10.8232" x2="15.8232" y2="9.82322" stroke="#989898" stroke-width="0.5"/>
<line y1="-0.25" x2="1.41421" y2="-0.25" transform="matrix(0.707107 0.707107 0.707107 -0.707107 15 10.5)" stroke="#989898" stroke-width="0.5"/>
</svg>
