<svg width="20" height="20" viewBox="0 0 20 20" fill="none" xmlns="http://www.w3.org/2000/svg">
<circle cx="10" cy="10" r="10" fill="#F1935C"/>
<circle cx="10" cy="10" r="10" fill="url(#paint0_radial_666_37393)"/>
<circle cx="10" cy="10" r="10" fill="url(#paint1_radial_666_37393)"/>
<path d="M7.16239 10.4055L11.6908 10.4055L9.71239 12.3839C9.55429 12.542 9.55429 12.8014 9.71239 12.9595C9.8705 13.1177 10.1259 13.1177 10.284 12.9595L12.9556 10.2879C13.1137 10.1298 13.1137 9.87441 12.9556 9.7163L10.284 7.04468C10.1259 6.88657 9.8705 6.88657 9.7124 7.04468C9.55429 7.20279 9.55429 7.45819 9.7124 7.6163L11.6908 9.59468L7.16239 9.59468C6.93942 9.59468 6.75699 9.77711 6.75699 10.0001C6.75699 10.2231 6.93942 10.4055 7.16239 10.4055Z" fill="white"/>
<defs>
<radialGradient id="paint0_radial_666_37393" cx="0" cy="0" r="1" gradientUnits="userSpaceOnUse" gradientTransform="translate(5.27778 4.16667) rotate(51.0441) scale(16.7889 16.7889)">
<stop stop-color="white" stop-opacity="0.59"/>
<stop offset="0.766011" stop-color="white" stop-opacity="0"/>
<stop offset="1" stop-color="white" stop-opacity="0"/>
</radialGradient>
<radialGradient id="paint1_radial_666_37393" cx="0" cy="0" r="1" gradientUnits="userSpaceOnUse" gradientTransform="translate(17.2603 17.5) rotate(-93.6705) scale(17.1184 19.0792)">
<stop stop-color="#F1935C" stop-opacity="0.3"/>
<stop offset="0.861815" stop-color="#F1935C" stop-opacity="0"/>
</radialGradient>
</defs>
</svg>
