<svg width="20" height="20" viewBox="0 0 20 20" fill="none" xmlns="http://www.w3.org/2000/svg">
<rect width="20" height="20" rx="5" fill="#28565D"/>
<path fill-rule="evenodd" clip-rule="evenodd" d="M5.28613 13.5314C5.28613 13.3515 5.43339 13.2057 5.61504 13.2057H14.3858C14.5674 13.2057 14.7147 13.3515 14.7147 13.5314C14.7147 13.7113 14.5674 13.8571 14.3858 13.8571H5.61504C5.43339 13.8571 5.28613 13.7113 5.28613 13.5314Z" fill="white"/>
<path opacity="0.5" d="M6.43905 6.52447C6.05371 6.90606 6.05371 7.52024 6.05371 8.74858V10.92C6.05371 11.7389 6.05371 12.1484 6.3106 12.4028C6.56749 12.6572 6.98095 12.6572 7.80786 12.6572H12.1932C13.0202 12.6572 13.4336 12.6572 13.6905 12.4028C13.9474 12.1484 13.9474 11.7389 13.9474 10.92V8.74858C13.9474 7.52024 13.9474 6.90606 13.5621 6.52447C13.1767 6.14287 12.5565 6.14287 11.3162 6.14287H8.68494C7.44457 6.14287 6.82438 6.14287 6.43905 6.52447Z" fill="white"/>
<path d="M8.68437 11.0287C8.50272 11.0287 8.35547 11.1746 8.35547 11.3545C8.35547 11.5343 8.50272 11.6802 8.68437 11.6802H11.3156C11.4972 11.6802 11.6445 11.5343 11.6445 11.3545C11.6445 11.1746 11.4972 11.0287 11.3156 11.0287H8.68437Z" fill="#28565D"/>
</svg>
