<svg width="106" height="130" viewBox="0 0 106 130" fill="none" xmlns="http://www.w3.org/2000/svg">
<path d="M106 97.812H0.0429688V101.312C0.0429688 103.645 1.74099 105.978 5.02384 107.781L41.1352 127.296C47.8141 130.902 58.5683 130.902 65.134 127.296L101.019 107.781C104.302 105.978 106 103.645 106 101.312V97.812Z" fill="url(#paint0_linear_214_3563)"/>
<path d="M100.905 91.2364C107.584 94.8423 107.584 100.675 101.019 104.281L65.1336 123.796C58.5679 127.402 47.8137 127.402 41.1348 123.796L5.02342 104.281C-1.65549 100.675 -1.65548 94.8423 4.91022 91.2364L40.7952 71.722C47.3609 68.1161 58.1151 68.1161 64.794 71.722L100.905 91.2364Z" fill="#B2D7FF"/>
<path d="M91.7371 92.5091C97.1708 95.3726 97.1708 100.145 91.8503 103.009L62.7575 118.811C57.437 121.675 48.7205 121.675 43.2868 118.811L14.0807 103.009C8.64705 100.145 8.64705 95.3726 13.9675 92.5091L43.1736 76.7067C48.4941 73.8432 57.2106 73.8432 62.6443 76.7067L91.7371 92.5091Z" stroke="#F1935C" stroke-miterlimit="10"/>
<path d="M88.338 69.9189H17.5869V95.7967C17.5869 97.3875 18.7189 98.9784 20.983 100.145L45.095 113.19C49.5098 115.629 56.7547 115.629 61.1696 113.19L85.1684 100.145C87.3192 98.9784 88.4512 97.3875 88.4512 95.7967V69.9189H88.338Z" fill="url(#paint1_linear_214_3563)"/>
<path d="M84.9419 65.5707C89.3568 68.01 89.3568 71.828 85.0551 74.2673L61.0564 87.3122C56.6415 89.7515 49.5098 89.7515 44.9817 87.3122L20.8697 74.2673C16.4549 71.828 16.4549 68.01 20.8697 65.5707L44.8685 52.5258C49.2834 50.0865 56.4151 50.0865 60.83 52.5258L84.9419 65.5707Z" fill="#BCD0F1"/>
<path d="M52.9039 50.8291V51.3594C55.8471 51.3594 58.564 51.9957 60.6016 53.0563L84.7136 66.1012C86.638 67.1618 87.77 68.5405 87.77 70.0253C87.77 71.5101 86.7512 72.8888 84.7136 73.8433L60.7148 86.8882C58.6772 88.0548 55.9603 88.5851 53.0171 88.5851C50.0739 88.5851 47.357 87.9488 45.3194 86.8882L21.2074 73.8433C19.283 72.7827 18.1509 71.404 18.1509 69.9192C18.1509 68.4344 19.1698 67.0557 21.2074 65.9951L45.2062 52.9502C47.2438 51.7836 49.9606 51.2533 52.9039 51.2533V50.8291ZM52.9039 50.8291C49.9606 50.8291 47.1306 51.4654 44.8666 52.6321L20.8678 65.677C16.4529 68.1163 16.4529 71.9343 20.8678 74.3736L45.093 87.3125C47.357 88.4791 50.1871 89.1154 53.1303 89.1154C56.0736 89.1154 58.9036 88.4791 61.1676 87.3125L85.1664 74.2675C89.5813 71.8282 89.5813 68.0102 85.0532 65.5709L60.9412 52.526C58.6772 51.3594 55.7339 50.8291 52.9039 50.8291Z" fill="url(#paint2_linear_214_3563)"/>
<path d="M41.5861 96.2211C42.1521 96.5393 42.4917 97.1756 42.4917 97.812V102.691C42.4917 103.221 42.0389 103.539 41.4729 103.221L23.2474 93.3576C22.6814 93.0394 22.3418 92.4031 22.3418 91.7668V86.8882C22.3418 86.3579 22.7946 86.0397 23.3606 86.3579L41.5861 96.2211Z" fill="#F1935C"/>
<path d="M42.4918 102.691L24.2663 92.8276C23.7003 92.5094 23.3607 91.8731 23.3607 91.2367V86.3581C22.9079 86.146 22.4551 86.3581 22.4551 86.8884V91.767C22.4551 92.2973 22.9079 93.0397 23.3607 93.3579L41.5862 103.221C42.1522 103.539 42.605 103.327 42.4918 102.691Z" fill="#1964BA"/>
<path d="M23.9253 84.4487L24.7177 84.0244C24.8309 83.9184 24.9441 83.7063 24.9441 83.4942C24.9441 82.9639 24.4913 82.3275 24.0385 82.0094C23.8121 81.9033 23.5857 81.9033 23.3593 81.9033L22.5669 82.3275L23.9253 84.4487Z" fill="url(#paint3_linear_214_3563)"/>
<path d="M23.9649 84.4055C24.2902 84.2307 24.2767 83.6359 23.9345 83.077C23.5924 82.5181 23.0512 82.2068 22.7259 82.3817C22.4005 82.5565 22.4141 83.1513 22.7562 83.7102C23.0984 84.269 23.6395 84.5804 23.9649 84.4055Z" fill="#2185F8"/>
<path d="M23.7415 84.0374C23.9586 83.9208 23.9579 83.5379 23.7402 83.1822C23.5224 82.8265 23.17 82.6327 22.953 82.7493C22.736 82.8659 22.7366 83.2488 22.9543 83.6045C23.1721 83.9602 23.5245 84.154 23.7415 84.0374Z" fill="#F1935C"/>
<path d="M27.6587 86.3578L28.4511 85.9336C28.5643 85.8276 28.6775 85.6155 28.6775 85.4033C28.6775 84.8731 28.2247 84.2367 27.7719 83.9186C27.5455 83.8125 27.3191 83.8125 27.0927 83.8125L26.3003 84.2367L27.6587 86.3578Z" fill="url(#paint4_linear_214_3563)"/>
<path d="M27.7085 86.407C28.0339 86.2321 28.0203 85.6374 27.6781 85.0785C27.336 84.5196 26.7949 84.2083 26.4695 84.3831C26.1441 84.558 26.1577 85.1528 26.4999 85.7116C26.842 86.2705 27.3831 86.5818 27.7085 86.407Z" fill="#2185F8"/>
<path d="M27.4843 86.0388C27.7013 85.9222 27.7007 85.5394 27.4829 85.1837C27.2651 84.828 26.9127 84.6341 26.6957 84.7508C26.4787 84.8674 26.4793 85.2503 26.697 85.606C26.9148 85.9617 27.2672 86.1555 27.4843 86.0388Z" fill="#FFE200"/>
<path d="M42.6048 97.8121C42.6048 97.2818 42.152 96.5394 41.6992 96.2212L23.4737 86.358C23.2473 86.252 23.0209 86.252 22.9077 86.252L16.908 88.0549C16.6816 88.161 16.5684 88.3731 16.5684 88.6912V94.3122C16.5684 94.9486 17.0212 95.797 17.7004 96.1152L37.8503 107.463C38.3031 107.675 38.7559 107.463 38.8691 107.251C39.7747 106.191 42.4916 103.115 42.4916 103.115C42.4916 103.115 42.718 103.009 42.718 102.585L42.6048 97.8121Z" fill="url(#paint5_linear_214_3563)"/>
<path d="M27.5493 61.9648L67.6227 83.8124L67.736 109.584L79.3957 116.16" stroke="#28565D" stroke-width="0.25" stroke-miterlimit="10" stroke-linejoin="round"/>
<path d="M30.1519 60.5859L70.1121 82.4335L70.2253 108.205L81.8851 114.781" stroke="#28565D" stroke-width="0.25" stroke-miterlimit="10" stroke-linejoin="round"/>
<path d="M32.6416 59.2075L72.715 81.0551L72.8282 106.827L84.3748 113.402" stroke="#28565D" stroke-width="0.25" stroke-miterlimit="10" stroke-linejoin="round"/>
<path d="M35.1333 57.8286L75.2068 79.6762L75.3199 105.448L86.9797 112.023" stroke="#28565D" stroke-width="0.25" stroke-miterlimit="10" stroke-linejoin="round"/>
<path d="M37.7373 56.4497L77.6975 78.2973L77.9239 104.175L89.4705 110.644" stroke="#28565D" stroke-width="0.25" stroke-miterlimit="10" stroke-linejoin="round"/>
<path d="M40.2271 55.0713L80.3005 76.9189L80.4137 102.797L91.9603 109.266" stroke="#28565D" stroke-width="0.25" stroke-miterlimit="10" stroke-linejoin="round"/>
<path d="M5.70312 11.0716C5.70312 11.9201 6.04273 12.5564 6.49553 12.7685L7.74076 13.4049C7.74076 13.4049 20.193 4.70825 20.193 3.22346C20.193 3.22346 20.193 2.69318 20.0798 2.37501C20.3062 2.26895 20.6458 2.1629 20.6458 2.1629C20.4194 2.05684 19.7401 1.63262 19.4005 1.52656C18.9477 1.4205 18.1553 1.63262 17.9289 1.73867C17.9289 1.4205 17.8157 1.10234 17.7025 0.890223L18.2685 0.784167L17.1365 0.14783C16.6837 -0.0642829 16.1177 -0.0642835 15.5517 0.253885C15.2121 0.465998 14.9857 0.678111 14.7593 0.890223C14.7593 0.890223 14.1933 0.572054 13.8537 0.359942C13.514 0.147829 13.1744 0.14783 12.8348 0.14783C12.7216 0.14783 12.6084 0.14783 12.4952 0.14783C12.382 0.14783 12.382 0.14783 12.2688 0.14783C11.9292 0.253886 11.5896 0.359942 11.25 0.572054C9.89158 1.31445 8.64637 2.79924 7.96716 4.60219C7.51435 5.66275 7.17474 7.04148 7.28794 7.78388C5.92952 9.05655 5.70312 9.905 5.70312 11.0716Z" fill="url(#paint6_linear_214_3563)"/>
<path d="M7.06152 11.8141C7.06152 13.2989 8.08034 14.0413 9.32556 13.4049C9.32556 13.4049 9.43877 13.4049 9.43877 13.2989L19.2873 7.89001C19.2873 7.89001 19.4005 7.89001 19.4005 7.78395C20.6457 7.14761 21.5513 5.34466 21.5513 3.85987C21.5513 2.37508 20.5325 1.63269 19.2873 2.26903C19.2873 2.26903 19.2873 2.26903 19.1741 2.26903C19.0609 0.678183 18.0421 0.0418454 16.6837 0.784239C16.3441 0.996352 16.0045 1.31452 15.6649 1.63269C14.9857 0.678183 13.7404 0.466071 12.382 1.20846C10.2312 2.37508 8.41995 5.55677 8.53315 8.31423C7.62754 9.26874 7.06152 10.6475 7.06152 11.8141Z" fill="#F3F8FE"/>
<path d="M19.287 7.78395C20.5322 7.14761 21.4378 5.34466 21.4378 3.85987C21.4378 2.37508 20.419 1.63269 19.1738 2.26903C19.1738 2.26903 19.1738 2.26903 19.0606 2.26903C18.9474 0.678183 17.9286 0.0418454 16.5701 0.784239C16.2305 0.996352 15.8909 1.31452 15.5513 1.63269C14.8721 0.678183 13.6269 0.466071 12.2685 1.20846L12.1553 1.31452L17.3626 8.84451L19.0606 7.89001C19.1738 7.89001 19.287 7.89001 19.287 7.78395Z" fill="url(#paint7_linear_214_3563)"/>
<path d="M98.8704 15.2077C98.8704 15.738 98.644 16.0562 98.4176 16.1623L97.7383 16.5865C97.7383 16.5865 90.3802 11.4958 90.3802 10.5413C90.3802 10.5413 90.3802 10.2231 90.4934 10.011C90.3802 10.011 90.1538 9.90494 90.1538 9.90494C90.267 9.79888 90.7198 9.58677 90.833 9.48071C91.0594 9.37466 91.6254 9.48071 91.7386 9.58677C91.7386 9.37466 91.7386 9.2686 91.8518 9.05649L91.5122 8.95043L92.1915 8.52621C92.4179 8.42015 92.7575 8.42015 93.2103 8.63226C93.4367 8.73832 93.5499 8.84438 93.6631 9.05649C93.6631 9.05649 94.0027 8.84438 94.2291 8.73832C94.4555 8.63226 94.6819 8.63226 94.9083 8.63226C95.0215 8.63226 95.0215 8.63226 95.1347 8.63226H95.2479C95.4743 8.63226 95.7007 8.73832 95.8139 8.84437C96.6063 9.2686 97.3987 10.2231 97.7383 11.1776C97.9647 11.8139 98.1911 12.5563 98.0779 13.0866C98.6439 14.0411 98.8704 14.4654 98.8704 15.2077Z" fill="url(#paint8_linear_214_3563)"/>
<path d="M98.077 15.6319C98.077 16.4804 97.511 16.9046 96.7186 16.5864C96.7186 16.5864 96.7186 16.5864 96.6054 16.5864L90.8321 13.4047C90.8321 13.4047 90.8321 13.4047 90.7189 13.4047C90.0396 12.9805 89.4736 11.92 89.4736 11.0715C89.4736 10.2231 90.0397 9.79883 90.8321 10.117C90.8321 9.16249 91.5113 8.73826 92.3037 9.16249C92.5301 9.26855 92.7565 9.48066 92.8697 9.58671C93.3225 9.05643 94.0017 8.84432 94.7941 9.3746C96.0394 10.117 97.1714 12.026 97.0582 13.6169C97.7374 14.1471 98.077 14.8895 98.077 15.6319Z" fill="#F3F8FE"/>
<path d="M90.8317 13.2988C90.1524 12.8746 89.5864 11.814 89.5864 10.9655C89.5864 10.1171 90.1524 9.69287 90.9449 10.011C90.9449 9.05653 91.6241 8.63231 92.4165 9.05653C92.6429 9.16259 92.8693 9.3747 92.9825 9.48076C93.4353 8.95048 94.1145 8.73836 94.9069 9.26865C94.9069 9.26865 94.9069 9.26864 95.0201 9.3747L91.9637 13.8291L90.8317 13.2988Z" fill="url(#paint9_linear_214_3563)"/>
<path d="M82.1638 39.8857H22.3535V69.4934C22.3535 70.8271 23.3105 72.1607 25.2244 73.1388L45.6078 84.0749C49.3399 86.1199 55.4645 86.1199 59.1967 84.0749L79.4843 73.1388C81.3026 72.1607 82.2595 70.8271 82.2595 69.4934V39.8857H82.1638Z" fill="url(#paint10_linear_214_3563)"/>
<path d="M79.2919 36.3293C83.0241 38.3742 83.0241 41.5751 79.3876 43.62L59.1 54.5562C55.3678 56.6012 49.3389 56.6012 45.5111 54.5562L25.1277 43.62C21.3956 41.5751 21.3956 38.3742 25.1277 36.3293L45.4154 25.3931C49.1475 23.3481 55.1764 23.3481 58.9086 25.3931L79.2919 36.3293Z" fill="#D0E0FF"/>
<path d="M52.2098 23.8813V24.3259C54.6979 24.3259 56.9946 24.8594 58.7172 25.7485L79.1006 36.6847C80.7274 37.5738 81.6843 38.7296 81.6843 39.9744C81.6843 41.2192 80.8231 42.375 79.1006 43.1752L58.8129 54.1114C57.0904 55.0894 54.7936 55.534 52.3055 55.534C49.8174 55.534 47.5207 55.0005 45.7982 54.1114L25.4148 43.1752C23.788 42.2861 22.831 41.1303 22.831 39.8855C22.831 38.6407 23.6923 37.4849 25.4148 36.5957L45.7025 25.6596C47.425 24.6816 49.7217 24.237 52.2098 24.237V23.8813ZM52.2098 23.8813C49.7217 23.8813 47.3293 24.4148 45.4154 25.3928L25.1277 36.329C21.3956 38.374 21.3956 41.5748 25.1277 43.6198L45.5111 54.5559C47.425 55.534 49.8174 56.0674 52.3055 56.0674C54.7936 56.0674 57.1861 55.534 59.1 54.5559L79.3876 43.6198C83.1198 41.5748 83.1198 38.374 79.2919 36.329L58.9086 25.3928C57.0904 24.4148 54.6022 23.8813 52.2098 23.8813Z" fill="url(#paint11_linear_214_3563)"/>
<path d="M52.2073 27.8834C54.1213 27.8834 55.8438 28.239 57.1836 29.0392L72.5907 37.3081C73.9304 38.0193 74.6003 38.9085 74.6003 39.8865C74.6003 40.8645 73.9304 41.7536 72.5907 42.4649L57.2792 50.7337C55.9395 51.445 54.217 51.8896 52.303 51.8896C50.3891 51.8896 48.6665 51.5339 47.3268 50.7337L31.9197 42.4649C30.5799 41.7536 29.9101 40.8645 29.9101 39.8865C29.9101 38.9085 30.5799 38.0193 31.9197 37.3081L47.2311 29.0392C48.5708 28.3279 50.2934 27.8834 52.2073 27.8834ZM52.2073 27.7056C50.3891 27.7056 48.4752 28.0612 47.1354 28.8614L31.824 37.1302C28.9531 38.6417 29.0488 41.1313 31.824 42.6428L47.2311 50.9116C48.6665 51.7118 50.4848 52.0674 52.3987 52.0674C54.217 52.0674 56.1309 51.7118 57.5663 50.9116L72.8778 42.6428C75.653 41.1313 75.653 38.6417 72.8778 37.1302L57.4706 28.8614C55.9395 28.1501 54.0256 27.7056 52.2073 27.7056Z" fill="#F1935C"/>
<path d="M44.2716 58.6453C45.707 59.4455 46.8554 61.3127 46.8554 62.8242L46.7597 79.2729C46.7597 80.7844 45.6113 81.4067 44.1759 80.6954L27.2376 71.6264C25.8021 70.8262 24.6538 68.9591 24.6538 67.4476L24.7495 50.9989C24.7495 49.4874 25.8979 48.865 27.3333 49.5763L44.2716 58.6453Z" fill="#F3F8FE"/>
<mask id="mask0_214_3563" style="mask-type:luminance" maskUnits="userSpaceOnUse" x="24" y="49" width="23" height="32">
<path d="M44.2687 58.6443C45.7041 59.4445 46.8525 61.3117 46.8525 62.8232L46.7568 79.2719C46.7568 80.7834 45.6084 81.4058 44.173 80.6945L27.2347 71.6254C25.7992 70.8252 24.6509 68.9581 24.6509 67.4466L24.7466 50.9979C24.7466 49.4864 25.8949 48.864 27.3304 49.5753L44.2687 58.6443Z" fill="white"/>
</mask>
<g mask="url(#mask0_214_3563)">
<path d="M44.2687 58.6448C45.7041 59.445 46.8525 61.3122 46.8525 62.8237L46.7568 79.2724C46.7568 80.7839 45.6084 81.4062 44.173 80.6949L27.2347 71.6259C25.7992 70.8257 24.6509 68.9586 24.6509 67.4471L24.7466 50.9984C24.7466 49.4869 25.8949 48.8645 27.3304 49.5758L44.2687 58.6448Z" fill="#F3F8FE"/>
</g>
<path d="M46.7587 79.2725L46.8544 62.8238C46.8544 61.4012 45.8975 59.7118 44.5577 58.9116L25.1313 69.4032C25.6098 70.2923 26.3754 71.1815 27.2367 71.626L44.1749 80.695C45.6104 81.4063 46.7587 80.784 46.7587 79.2725Z" fill="url(#paint12_linear_214_3563)"/>
<path d="M32.7868 52.5112L28.6718 54.734C28.289 54.9119 28.002 55.4453 28.002 55.801V64.5143C28.002 64.87 28.289 65.0478 28.6718 64.87L42.2607 57.5792L32.7868 52.5112Z" fill="#1964BA"/>
<path d="M33.2663 52.7773L29.1513 55.0001C28.7685 55.178 28.4814 55.7114 28.4814 56.0671V64.7804C28.4814 65.1361 28.7685 65.3139 29.1513 65.1361L42.7402 57.8453L33.2663 52.7773Z" fill="#C9D9F4"/>
<path d="M31.4459 54.8254C31.6374 54.7365 31.7332 54.8254 31.7332 55.0032C31.7332 55.1811 31.6374 55.3589 31.4459 55.4478C31.2544 55.5367 31.1587 55.4478 31.1587 55.27C31.2544 55.1811 31.3502 54.9143 31.4459 54.8254Z" fill="white"/>
<path opacity="0.8" d="M29.915 57.8459C29.8193 57.9349 29.7236 58.0238 29.7236 58.1127V63.6252C29.7236 63.7141 29.8193 63.803 29.915 63.7141L37.3794 59.7131C37.475 59.6242 37.5708 59.5353 37.5708 59.4464V55.1786L36.231 54.4673L29.915 57.8459Z" fill="white"/>
<path d="M29.6271 55.802C29.8186 55.7131 29.9144 55.802 29.9144 55.9798C29.9144 56.1576 29.8186 56.3355 29.6271 56.4244C29.4356 56.5133 29.3398 56.4244 29.3398 56.2465C29.4356 56.1576 29.5313 55.8909 29.6271 55.802Z" fill="white"/>
<path d="M30.5851 55.3571C30.7766 55.2682 30.8724 55.3572 30.8724 55.535C30.8724 55.7128 30.7766 55.8906 30.5851 55.9795C30.3936 56.0685 30.2979 55.9795 30.2979 55.8017C30.2979 55.6239 30.3936 55.4461 30.5851 55.3571Z" fill="white"/>
<path d="M33.927 57.9888L30.8647 59.5892H30.769C30.769 59.5892 30.769 59.5004 30.8647 59.5004L33.927 57.8999H34.0227L33.927 57.9888Z" fill="#6491FB"/>
<path d="M35.745 57.0103L34.4053 57.7216H34.3096C34.3096 57.7216 34.3096 57.6327 34.4053 57.6327L35.745 56.9214H35.8407C35.745 57.0103 35.745 57.0103 35.745 57.0103Z" fill="#FF9999"/>
<path d="M33.9271 58.3961L32.3003 59.2852H32.2046C32.2046 59.2852 32.2046 59.1962 32.3003 59.1962L33.9271 58.3071H34.0228C34.0228 58.396 33.9271 58.3961 33.9271 58.3961Z" fill="#FF9999"/>
<path d="M31.9174 59.4624L30.8647 60.0848H30.769C30.769 60.0848 30.769 59.9959 30.8647 59.9959L31.9174 59.3735H32.0131C32.0131 59.4624 32.0131 59.4624 31.9174 59.4624Z" fill="#FF9999"/>
<path d="M35.745 57.5069L34.4053 58.2182H34.3096C34.3096 58.2182 34.3096 58.1293 34.4053 58.1293L35.745 57.418H35.8407C35.745 57.418 35.745 57.418 35.745 57.5069Z" fill="#A69CFB"/>
<path d="M32.8739 57.7232L30.96 58.7901H30.8643C30.8643 58.7901 30.8643 58.7012 30.96 58.7012L32.8739 57.6343H32.9696C32.8739 57.6343 32.8739 57.7232 32.8739 57.7232Z" fill="#6491FB"/>
<path d="M34.0239 57.0997L33.1626 57.5442H33.0669C33.0669 57.5442 33.0669 57.4553 33.1626 57.4553L34.0239 57.0107H34.1195C34.0239 57.0107 34.0239 57.0997 34.0239 57.0997Z" fill="#A69CFB"/>
<path d="M36.4144 55.8555L34.4048 56.9224H34.3091C34.3091 56.9224 34.3091 56.8336 34.4048 56.8336L36.4144 55.7666H36.5101C36.4144 55.7666 36.4144 55.7666 36.4144 55.8555Z" fill="#94F2B5"/>
<path d="M34.4038 59.8765L36.3177 58.8096L36.4134 58.7207C36.4134 58.7207 36.4134 58.6318 36.3177 58.7207L34.4038 59.7876C34.4038 59.7876 34.4038 59.7876 34.4038 59.8765Z" fill="#6491FB"/>
<path d="M33.2564 60.4983L34.1177 60.0538L34.2134 59.9648C34.2134 59.9648 34.2134 59.8759 34.1177 59.9648L33.2564 60.4094C33.2564 60.4094 33.1607 60.4094 33.2564 60.4983Z" fill="#94F2B5"/>
<path d="M30.8643 61.8321L32.8739 60.7652L32.9696 60.6762C32.9696 60.6762 32.9696 60.5873 32.8739 60.6762L30.8643 61.7432C30.8643 61.6543 30.8643 61.7432 30.8643 61.8321Z" fill="#FF9999"/>
<path d="M32.1088 58.4907L30.8647 59.202H30.769C30.769 59.202 30.769 59.1131 30.8647 59.1131L32.1088 58.4019H32.2045C32.2045 58.4908 32.2045 58.4907 32.1088 58.4907Z" fill="#A69CFB"/>
<path d="M34.7889 57.0694L32.3965 58.4031H32.3008C32.3008 58.4031 32.3008 58.3141 32.3965 58.3141L34.7889 56.9805H34.8846C34.8846 57.0694 34.8846 57.0694 34.7889 57.0694Z" fill="#94F2B5"/>
<path d="M36.6063 56.1803L35.0752 56.9804H34.9795C34.9795 56.9804 34.9795 56.8915 35.0752 56.8915L36.6063 56.0913H36.702C36.702 56.0913 36.6063 56.0913 36.6063 56.1803Z" fill="#6491FB"/>
<path d="M35.3628 59.6703L36.6068 58.959H36.7025C36.7025 58.959 36.7025 59.0479 36.6068 59.0479L35.3628 59.7592H35.2671C35.2671 59.7592 35.2671 59.6703 35.3628 59.6703Z" fill="#94F2B5"/>
<path d="M32.6821 61.0925L35.0745 59.7588H35.1702C35.1702 59.7588 35.1702 59.8477 35.0745 59.8477L32.6821 61.1814H32.5864C32.5864 61.1814 32.5864 61.1814 32.6821 61.0925Z" fill="#FFC99C"/>
<path d="M30.8647 62.0702L32.3959 61.27H32.4916C32.4916 61.27 32.4916 61.359 32.3959 61.359L30.8647 62.1591H30.769C30.8647 62.1591 30.8647 62.0702 30.8647 62.0702Z" fill="#A69CFB"/>
<path d="M33.927 59.7149L30.8647 61.3153H30.769C30.769 61.3153 30.769 61.2264 30.8647 61.2264L33.927 59.626H34.0227L33.927 59.7149Z" fill="#FFC99C"/>
<path d="M35.745 58.7374L34.4053 59.4487H34.3096C34.3096 59.4487 34.3096 59.3597 34.4053 59.3597L35.745 58.6484H35.8407C35.745 58.6484 35.745 58.7374 35.745 58.7374Z" fill="#FF9999"/>
<path d="M32.1088 60.2197L30.8647 60.9311H30.769C30.769 60.9311 30.769 60.8421 30.8647 60.8421L32.1088 60.1309H32.2045C32.2045 60.2198 32.2045 60.2197 32.1088 60.2197Z" fill="#94F2B5"/>
<path d="M34.7889 58.7964L32.3965 60.1301H32.3008C32.3008 60.1301 32.3008 60.0412 32.3965 60.0412L34.7889 58.7075H34.8846C34.8846 58.7964 34.8846 58.7964 34.7889 58.7964Z" fill="#6491FB"/>
<path d="M36.6063 57.8179L35.0752 58.6181H34.9795C34.9795 58.6181 34.9795 58.5292 35.0752 58.5292L36.6063 57.729H36.702C36.702 57.8179 36.6063 57.8179 36.6063 57.8179Z" fill="#94F2B5"/>
<path d="M31.9174 59.9571L30.8647 60.4905H30.769C30.769 60.4905 30.769 60.4016 30.8647 60.4016L31.9174 59.8682H32.0131C31.9174 59.8682 31.9174 59.9571 31.9174 59.9571Z" fill="#A69CFB"/>
<path d="M34.1195 58.7999L32.1098 59.8668H32.0142C32.0142 59.8668 32.0141 59.7779 32.1098 59.7779L34.1195 58.7109H34.2152C34.2152 58.7109 34.1195 58.711 34.1195 58.7999Z" fill="#FF9999"/>
<path d="M36.3202 57.5557L34.3105 58.6226H34.2148C34.2148 58.6226 34.2148 58.5338 34.3105 58.5338L36.3202 57.4668H36.4159C36.4159 57.4668 36.4159 57.5557 36.3202 57.5557Z" fill="#FFC99C"/>
<mask id="mask1_214_3563" style="mask-type:luminance" maskUnits="userSpaceOnUse" x="24" y="49" width="23" height="32">
<path d="M44.2687 58.6443C45.7041 59.4445 46.8525 61.3117 46.8525 62.8232L46.7568 79.2719C46.7568 80.7834 45.6084 81.4058 44.173 80.6945L27.2347 71.6254C25.7992 70.8252 24.6509 68.9581 24.6509 67.4466L24.7466 50.9979C24.7466 49.4864 25.8949 48.864 27.3304 49.5753L44.2687 58.6443Z" fill="white"/>
</mask>
<g mask="url(#mask1_214_3563)">
<path d="M26.0883 49.6662C26.3754 49.6662 26.6625 49.7552 27.0452 49.933L43.9835 59.002C45.2276 59.7133 46.3759 61.4026 46.3759 62.8252L46.2802 79.2739C46.2802 79.5406 46.1845 80.5187 45.3233 80.5187C45.0362 80.5187 44.7491 80.4297 44.3663 80.2519L27.428 71.1829C26.184 70.4716 25.0356 68.7823 25.0356 67.3597L25.1313 50.911C25.1313 50.6443 25.227 49.6662 26.0883 49.6662ZM26.0883 49.2217C25.227 49.2217 24.6528 49.8441 24.6528 50.911L24.5571 67.3597C24.5571 68.8712 25.7055 70.7384 27.1409 71.5386L44.0792 80.6076C44.462 80.8743 44.9405 80.9632 45.2276 80.9632C46.0889 80.9632 46.663 80.3408 46.663 79.2739L46.7587 62.8252C46.7587 61.3137 45.6104 59.4466 44.1749 58.6463L27.2366 49.5773C26.8538 49.3106 26.4711 49.2217 26.0883 49.2217Z" fill="url(#paint13_linear_214_3563)"/>
</g>
<path d="M48.6763 60.0684L45.7097 61.6689L42.3603 59.8906L41.6904 60.2463L45.0398 62.0245V63.4471C45.0398 63.536 45.0398 63.7138 45.0398 63.8027C45.0398 63.8917 44.9441 63.9806 44.9441 64.0695C44.9441 64.1584 44.8484 64.1584 44.8484 64.2473C44.7527 64.3362 44.657 64.4251 44.5613 64.514L45.2312 64.1584C45.3269 64.0695 45.4226 63.9806 45.5183 63.8917C45.5183 63.8917 45.5183 63.8027 45.614 63.8027V63.7138V63.6249V63.536V63.4471V63.3582V63.2693V63.1804V62.4691L48.5806 60.8687L48.6763 60.0684Z" fill="#28565D"/>
<path d="M28.482 49.2187L24.7498 51.1748L21.4004 49.3965L25.0369 47.3516L28.482 49.2187Z" fill="#509AA6"/>
<path d="M48.6738 60.0668L45.0374 62.0229L41.5923 60.2447L45.3244 58.1997L48.6738 60.0668Z" fill="#509AA6"/>
<path d="M41.9766 56.4213L38.2444 58.3774L34.895 56.5991L38.5315 54.6431L41.9766 56.4213Z" fill="#509AA6"/>
<path d="M45.3262 58.1996L41.594 60.2446L38.2446 58.3774L41.9768 56.4214L45.3262 58.1996Z" fill="#EBC3AA"/>
<path d="M38.5298 54.6421L34.8933 56.5981L31.5439 54.8199L35.1804 52.7749L38.5298 54.6421Z" fill="#EBC3AA"/>
<path d="M35.1822 52.7763L31.5457 54.8213L28.1963 52.9541L31.8328 50.998L35.1822 52.7763Z" fill="#509AA6"/>
<path d="M31.8325 50.9965L28.1961 52.9526L24.751 51.1743L28.4832 49.2183L31.8325 50.9965Z" fill="#EBC3AA"/>
<path d="M28.199 52.9579V54.3805C28.199 55.3586 27.4334 55.8031 26.4765 55.2696C25.5195 54.7362 24.7539 53.5803 24.7539 52.6023V51.1797L28.199 52.9579Z" fill="#F1935C"/>
<path d="M24.7556 51.1796V52.6022C24.7556 53.5802 23.99 54.0248 23.0331 53.4913C22.0761 52.9578 21.3105 51.802 21.3105 50.824V49.4014L24.7556 51.1796Z" fill="#28565D"/>
<path d="M38.2488 58.4682V59.8908C38.2488 60.8688 37.4832 61.3134 36.5263 60.7799C35.5693 60.2464 34.8037 59.0906 34.8037 58.1125V56.6899L38.2488 58.4682Z" fill="#28565D"/>
<path d="M34.8958 56.6015V58.0241C34.8958 59.0021 34.1302 59.4467 33.1732 58.9132C32.2163 58.3797 31.4507 57.2239 31.4507 56.2458V54.8232L34.8958 56.6015Z" fill="#F1935C"/>
<path d="M31.5476 54.8232V56.2457C31.5476 57.2238 30.7821 57.6683 29.8251 57.1349C28.8681 56.6014 28.1025 55.4455 28.1025 54.4675V53.0449L31.5476 54.8232Z" fill="#28565D"/>
<path d="M41.5984 60.2465V61.6691C41.5984 62.6471 40.8328 63.0917 39.8759 62.5582C38.9189 62.0247 38.1533 60.8689 38.1533 59.8909V58.4683L41.5984 60.2465Z" fill="#F1935C"/>
<path d="M45.0422 62.0248V63.4474C45.0422 64.4254 44.2767 64.87 43.3197 64.3365C42.3628 63.8031 41.5972 62.6472 41.5972 61.6692V60.2466L45.0422 62.0248Z" fill="#28565D"/>
<path fill-rule="evenodd" clip-rule="evenodd" d="M47.416 30.6588C47.2477 30.4223 47.1636 30.1858 47.1636 29.9493V14.6552C47.1636 14.1821 47.8367 13.9456 48.1733 14.1821L68.4528 25.1403C68.8736 25.3768 69.2102 25.9287 69.2102 26.3228V41.617C69.2102 41.9323 68.8736 42.3265 68.537 42.2477" fill="#DCE7F2"/>
<path fill-rule="evenodd" clip-rule="evenodd" d="M68.4533 42.4056V43.0363C68.4533 43.194 68.3691 43.2728 68.2008 43.3516L55.9995 49.9739C55.6629 50.1315 54.9897 50.1315 54.5689 49.895L34.2894 38.9368C33.8687 38.7003 33.7004 37.6755 34.1212 37.439" fill="#DCE7F2"/>
<path fill-rule="evenodd" clip-rule="evenodd" d="M47.416 30.7379C47.2477 30.5014 47.1636 30.2649 47.1636 30.0284V14.7343C47.1636 14.2613 47.5002 14.1036 47.9209 14.3401L68.2004 25.2983C68.6211 25.5348 68.9577 26.0866 68.9577 26.4808V41.7749C68.9577 42.0903 68.7053 42.3268 68.4528 42.248" fill="url(#paint14_linear_214_3563)"/>
<path fill-rule="evenodd" clip-rule="evenodd" d="M68.3682 32.551V26.8748C68.3682 26.796 68.2841 26.7172 68.1999 26.6383L48.0887 15.8378C48.0045 15.759 47.9204 15.8378 47.9204 15.9167V30.7378C47.9204 30.8166 48.0045 30.8955 48.0887 30.9743L68.1999 41.8536C68.2841 41.9325 68.3682 41.8536 68.3682 41.7748V32.551Z" fill="#1964BA"/>
<path fill-rule="evenodd" clip-rule="evenodd" d="M41.9472 42.2478L34.3739 38.1484C33.9532 37.9119 33.8691 37.5965 34.2898 37.36L46.4912 30.7378C46.8277 30.5801 47.5009 30.5801 47.9217 30.8167L68.2012 41.7748C68.6219 42.0113 68.706 42.3267 68.2853 42.5632L56.0839 49.1854C55.7474 49.3431 55.0742 49.3431 54.6535 49.1066L47.4168 45.1648" fill="url(#paint15_linear_214_3563)"/>
<path opacity="0.2" fill-rule="evenodd" clip-rule="evenodd" d="M42.4522 41.1438L49.0999 44.7702C49.2682 44.8491 49.5206 44.8491 49.6889 44.7702L52.7182 43.1147C52.8865 43.0358 52.8865 42.8782 52.8024 42.7993L46.1547 39.1729C45.9864 39.0941 45.734 39.0941 45.5657 39.1729L42.5364 40.8284C42.284 40.9861 42.284 41.065 42.4522 41.1438Z" fill="#004680"/>
<path d="M43.4613 43.1939L46.9113 45.0859C46.9954 45.1647 47.1637 45.1647 47.2479 45.1647H47.332C47.332 45.0859 47.2479 45.0071 47.1638 44.9282L42.4515 42.4055C42.3674 42.3267 42.1991 42.3267 42.1149 42.3267H42.0308C42.0308 42.4055 42.1149 42.4843 42.199 42.5632L42.3673 42.642L43.0405 43.0362L43.2088 43.115L43.4613 43.1939Z" fill="url(#paint16_linear_214_3563)"/>
<path opacity="0.2" fill-rule="evenodd" clip-rule="evenodd" d="M59.7866 45.5585L58.7769 45.0067C58.6927 45.0067 58.6927 44.9279 58.7769 44.9279L59.1134 44.7702C59.1976 44.7702 59.2818 44.7702 59.2818 44.7702L60.2915 45.322C60.3757 45.322 60.3757 45.4009 60.2915 45.4009L59.9549 45.5585C59.9549 45.5585 59.8708 45.5585 59.7866 45.5585ZM59.9549 44.1395L58.6086 43.43C58.5244 43.43 58.5244 43.3511 58.6086 43.3511L59.5342 42.8781C59.6183 42.8781 59.7025 42.8781 59.7025 42.8781L62.0586 44.1395C62.1428 44.1395 62.1428 44.2183 62.0586 44.2183L61.133 44.6914C61.0488 44.6914 60.9647 44.6914 60.9647 44.6914L60.2915 44.2972M62.3111 43.9818L60.544 43.0358C60.4598 43.0358 60.4598 42.957 60.544 42.957L61.4696 42.484C61.5537 42.484 61.6379 42.484 61.6379 42.484L63.405 43.43C63.4891 43.43 63.4891 43.5088 63.405 43.5088L62.4793 43.9818C62.4793 44.0607 62.3952 44.0607 62.3111 43.9818ZM63.6574 43.2723L62.7318 42.7993C62.6477 42.7993 62.6477 42.7205 62.7318 42.7205L63.6574 42.2474C63.7415 42.2474 63.8257 42.2474 63.8257 42.2474L64.7513 42.7205C64.8355 42.7205 64.8355 42.7993 64.7513 42.7993L63.8257 43.2723C63.8257 43.2723 63.7415 43.2723 63.6574 43.2723ZM62.3111 42.5628L61.3854 42.0898C61.3013 42.0898 61.3013 42.0109 61.3854 42.0109L62.3111 41.5379C62.3952 41.5379 62.4793 41.5379 62.4793 41.5379L63.405 42.0109C63.4891 42.0109 63.4891 42.0898 63.405 42.0898L62.4793 42.5628C62.4793 42.5628 62.3952 42.5628 62.3111 42.5628ZM60.544 41.5379L60.0391 41.3014C59.9549 41.3014 59.9549 41.2226 60.0391 41.2226L60.9647 40.7496C61.0488 40.7496 61.133 40.7496 61.133 40.7496L62.0586 41.2226C62.1428 41.2226 62.1428 41.3014 62.0586 41.3014L61.133 41.7744C61.0488 41.7744 60.9647 41.7744 60.9647 41.7744M59.6183 41.0649L58.6927 40.5919C58.6086 40.5919 58.6086 40.5131 58.6927 40.5131L59.5342 40.04C59.6183 40.04 59.7025 40.04 59.7025 40.04L60.6281 40.5131C60.7123 40.5131 60.7123 40.5919 60.6281 40.5919L59.7025 41.0649C59.7866 41.0649 59.7025 41.0649 59.6183 41.0649ZM58.272 40.3554L57.3463 39.8824C57.2622 39.8824 57.2622 39.8035 57.3463 39.8035L58.1878 39.3305C58.272 39.3305 58.3561 39.3305 58.3561 39.3305L59.2818 39.8035C59.3659 39.8035 59.3659 39.8824 59.2818 39.8824L58.4403 40.3554C58.4403 40.3554 58.3561 40.3554 58.272 40.3554ZM56.9256 39.6459L56 39.1729C55.9159 39.1729 55.9159 39.094 56 39.094L56.8415 38.621C56.9256 38.621 57.0098 38.621 57.0098 38.621L57.9354 39.094C58.0195 39.094 58.0195 39.1729 57.9354 39.1729L57.0939 39.6459C57.0939 39.6459 57.0098 39.6459 56.9256 39.6459ZM55.5793 38.8575L54.6537 38.3845C54.5695 38.3845 54.5695 38.3057 54.6537 38.3057L55.4951 37.8326C55.5793 37.8326 55.6634 37.8326 55.6634 37.8326L56.589 38.3057C56.6732 38.3057 56.6732 38.3845 56.589 38.3845L55.7476 38.8575C55.7476 38.9363 55.6634 38.9363 55.5793 38.8575ZM54.2329 38.148L53.3073 37.675C53.2231 37.675 53.2231 37.5961 53.3073 37.5961L54.1488 37.1231C54.2329 37.1231 54.3171 37.1231 54.3171 37.1231L55.2427 37.5961C55.3268 37.5961 55.3268 37.675 55.2427 37.675L54.4012 38.148C54.4012 38.2268 54.3171 38.2268 54.2329 38.148ZM52.8866 37.4385L51.9609 36.9655C51.8768 36.9655 51.8768 36.8866 51.9609 36.8866L52.8024 36.4136C52.8865 36.4136 52.9707 36.4136 52.9707 36.4136L53.8963 36.8866C53.9805 36.8866 53.9805 36.9655 53.8963 36.9655L53.0549 37.4385C53.0549 37.4385 52.9707 37.4385 52.8866 37.4385ZM51.7926 36.7289C51.7085 36.7289 51.6243 36.7289 51.6243 36.7289L50.6987 36.2559C50.6146 36.2559 50.6146 36.1771 50.6987 36.1771L51.5402 35.7041C51.6243 35.7041 51.7085 35.7041 51.7085 35.7041L52.6341 36.1771C52.7183 36.1771 52.7183 36.2559 52.6341 36.2559L51.7926 36.7289ZM50.4463 36.0194C50.3621 36.0194 50.278 36.0194 50.278 36.0194L49.3524 35.5464C49.2682 35.5464 49.2682 35.4676 49.3524 35.4676L50.1938 34.9946C50.278 34.9946 50.3621 34.9946 50.3621 34.9946L51.2878 35.4676C51.3719 35.4676 51.3719 35.5464 51.2878 35.5464L50.4463 36.0194ZM49.0999 35.3099C49.0158 35.3099 48.9316 35.3099 48.9316 35.3099L48.0901 34.8369C48.006 34.8369 48.006 34.7581 48.0901 34.7581L48.9316 34.285C49.0158 34.285 49.0999 34.285 49.0999 34.285L50.0255 34.7581C50.1097 34.7581 50.1097 34.8369 50.0255 34.8369L49.0999 35.3099ZM47.7536 34.6004C47.6694 34.6004 47.5853 34.6004 47.5853 34.6004L46.7438 34.1274C46.7438 34.1274 46.6597 34.0485 46.7438 34.0485L47.5853 33.5755C47.6694 33.5755 47.7536 33.5755 47.7536 33.5755L48.595 34.0485C48.6792 34.0485 48.6792 34.1274 48.595 34.1274L47.7536 34.6004ZM46.4913 33.812C46.4072 33.812 46.3231 33.812 46.3231 33.812L44.9767 33.1025C44.9767 33.1025 44.8926 33.0237 44.9767 33.0237L45.8182 32.5507C45.9023 32.5507 45.9865 32.5507 45.9865 32.5507L47.3328 33.2602C47.417 33.2602 47.417 33.339 47.3328 33.339L46.4913 33.812ZM65.0038 42.5628L64.0781 42.0898C63.994 42.0898 63.994 42.0109 64.0781 42.0109L64.583 41.7744C64.6672 41.7744 64.7513 41.7744 64.7513 41.7744L65.677 42.2474C65.7611 42.2474 65.7611 42.3263 65.677 42.3263L65.1721 42.5628C65.1721 42.5628 65.0879 42.5628 65.0038 42.5628ZM63.6574 41.7744L62.7318 41.3014C62.6477 41.3014 62.6477 41.2226 62.7318 41.2226L63.2367 40.9861C63.3208 40.9861 63.405 40.9861 63.405 40.9861L64.3306 41.4591C64.4147 41.4591 64.4147 41.5379 64.3306 41.5379L63.8257 41.7744C63.8257 41.8533 63.7415 41.8533 63.6574 41.7744ZM62.3111 41.0649L61.3854 40.5919C61.3013 40.5919 61.3013 40.5131 61.3854 40.5131L61.8903 40.2766C61.9745 40.2766 62.0586 40.2766 62.0586 40.2766L62.9842 40.7496C63.0684 40.7496 63.0684 40.8284 62.9842 40.8284L62.4793 41.0649C62.4793 41.0649 62.3952 41.0649 62.3111 41.0649ZM60.9647 40.3554L60.0391 39.8824C59.9549 39.8824 59.9549 39.8035 60.0391 39.8035L60.544 39.567C60.6281 39.567 60.7122 39.567 60.7122 39.567L61.6379 40.04C61.722 40.04 61.722 40.1189 61.6379 40.1189L61.133 40.3554C61.133 40.3554 61.0488 40.3554 60.9647 40.3554ZM59.6183 39.6459L58.6927 39.1729C58.6086 39.1729 58.6086 39.094 58.6927 39.094L59.1976 38.8575C59.2817 38.8575 59.3659 38.8575 59.3659 38.8575L60.2915 39.3305C60.3757 39.3305 60.3757 39.4094 60.2915 39.4094L59.7866 39.6459C59.7866 39.6459 59.7025 39.6459 59.6183 39.6459ZM58.272 38.8575L57.3463 38.3845C57.2622 38.3845 57.2622 38.3057 57.3463 38.3057L57.8512 38.0692C57.9354 38.0692 58.0195 38.0692 58.0195 38.0692L58.9452 38.5422C59.0293 38.5422 59.0293 38.621 58.9452 38.621L58.4403 38.8575C58.4403 38.9363 58.3561 38.9363 58.272 38.8575ZM56.9256 38.148L56 37.675C55.9159 37.675 55.9159 37.5961 56 37.5961L56.5049 37.3596C56.589 37.3596 56.6732 37.3596 56.6732 37.3596L57.5988 37.8326C57.683 37.8326 57.683 37.9115 57.5988 37.9115L57.0939 38.148C57.0939 38.2268 57.0098 38.2268 56.9256 38.148ZM55.5793 37.4385L54.6537 36.9655C54.5695 36.9655 54.5695 36.8866 54.6537 36.8866L55.1585 36.6501C55.2427 36.6501 55.3268 36.6501 55.3268 36.6501L56.2524 37.1231C56.3366 37.1231 56.3366 37.202 56.2524 37.202L55.8317 37.4385C55.7476 37.4385 55.6634 37.4385 55.5793 37.4385ZM54.2329 36.7289L53.3073 36.2559C53.2231 36.2559 53.2231 36.1771 53.3073 36.1771L53.8122 35.9406C53.8963 35.9406 53.9805 35.9406 53.9805 35.9406L54.9061 36.4136C54.9902 36.4136 54.9902 36.4924 54.9061 36.4924L54.4012 36.7289C54.4012 36.7289 54.3171 36.7289 54.2329 36.7289ZM53.139 36.0194C53.0548 36.0194 52.9707 36.0194 52.9707 36.0194L52.0451 35.5464C51.9609 35.5464 51.9609 35.4676 52.0451 35.4676L52.55 35.2311C52.6341 35.2311 52.7182 35.2311 52.7182 35.2311L53.6439 35.7041C53.728 35.7041 53.728 35.7829 53.6439 35.7829L53.139 36.0194ZM51.7926 35.3099C51.7085 35.3099 51.6243 35.3099 51.6243 35.3099L50.6987 34.8369C50.6146 34.8369 50.6146 34.7581 50.6987 34.7581L51.2036 34.5215C51.2878 34.5215 51.3719 34.5215 51.3719 34.5215L52.2975 34.9946C52.3817 34.9946 52.3817 35.0734 52.2975 35.0734L51.7926 35.3099ZM50.4463 34.5215C50.3621 34.5215 50.278 34.5215 50.278 34.5215L49.4365 34.0485C49.3524 34.0485 49.3524 33.9697 49.4365 33.9697L49.8572 33.7332C49.9414 33.7332 50.0255 33.7332 50.0255 33.7332L50.9512 34.2062C51.0353 34.2062 51.0353 34.285 50.9512 34.285L50.4463 34.5215ZM49.0999 33.812C49.0158 33.812 48.9316 33.812 48.9316 33.812L48.0901 33.339C48.006 33.339 48.006 33.2602 48.0901 33.2602L48.5109 33.0237C48.595 33.0237 48.6792 33.0237 48.6792 33.0237L49.5207 33.4967C49.6048 33.4967 49.6048 33.5755 49.5207 33.5755L49.0999 33.812ZM47.8377 33.1025C47.7536 33.1025 47.6694 33.1025 47.6694 33.1025L46.3231 32.393C46.3231 32.393 46.2389 32.3141 46.3231 32.3141L46.7438 32.0776C46.828 32.0776 46.9121 32.0776 46.9121 32.0776L48.2584 32.7872C48.3426 32.7872 48.3426 32.866 48.2584 32.866L47.8377 33.1025ZM46.4913 34.285C46.5755 34.285 46.5755 34.3639 46.4913 34.3639L45.6499 34.8369C45.5657 34.8369 45.4816 34.8369 45.4816 34.8369L43.6303 33.812C43.6303 33.812 43.5462 33.7332 43.6303 33.7332L44.4718 33.2602C44.556 33.2602 44.6401 33.2602 44.6401 33.2602L46.4913 34.285ZM45.8182 35.3887C45.9023 35.3887 45.9023 35.4676 45.8182 35.4676L44.9767 35.9406C44.8926 35.9406 44.8084 35.9406 44.8084 35.9406L42.284 34.6004C42.284 34.6004 42.1998 34.5215 42.284 34.5215L43.1255 34.0485C43.2096 34.0485 43.2938 34.0485 43.2938 34.0485L45.8182 35.3887ZM42.873 35.1522C42.873 35.2311 42.873 35.2311 42.873 35.1522C42.873 35.2311 42.873 35.2311 42.873 35.2311L42.0316 35.7041C41.9474 35.7041 41.8632 35.7041 41.8632 35.7041L41.0218 35.2311C41.0218 35.2311 40.9376 35.1522 41.0218 35.1522L41.8632 34.6792C41.9474 34.6792 42.0316 34.6792 42.0316 34.6792L42.873 35.1522ZM43.0413 35.3887C43.1255 35.3887 43.2096 35.3887 43.2096 35.3887L44.0511 35.8618C44.0511 35.8618 44.1352 35.9406 44.0511 35.9406L43.2096 36.4136C43.1255 36.4136 43.0413 36.4136 43.0413 36.4136L42.1998 35.9406C42.1998 35.9406 42.1157 35.8618 42.1998 35.8618L43.0413 35.3887ZM44.3877 36.1771C44.4718 36.1771 44.556 36.1771 44.556 36.1771L45.6499 36.8078C45.734 36.8078 45.734 36.8866 45.6499 36.8866L44.8084 37.3596C44.7243 37.3596 44.6401 37.3596 44.6401 37.3596L43.5462 36.7289C43.462 36.7289 43.462 36.6501 43.5462 36.6501L44.3877 36.1771ZM46.7438 35.5464L45.9023 35.0734C45.8182 35.0734 45.8182 34.9946 45.9023 34.9946L46.7438 34.5215C46.828 34.5215 46.9121 34.5215 46.9121 34.5215L47.7536 34.9946C47.8377 34.9946 47.8377 35.0734 47.7536 35.0734L46.9121 35.5464C46.9121 35.6252 46.828 35.6252 46.7438 35.5464ZM45.2291 36.0983L46.0706 35.6252C46.1548 35.6252 46.2389 35.6252 46.2389 35.6252L47.0804 36.0983C47.1645 36.0983 47.1645 36.1771 47.0804 36.1771L46.2389 36.6501C46.1548 36.6501 46.0706 36.6501 46.0706 36.6501L45.2291 36.1771C45.145 36.1771 45.145 36.0983 45.2291 36.0983ZM45.9865 36.9655C46.0706 36.9655 46.1548 36.9655 46.1548 36.9655L47.417 37.675C47.5011 37.675 47.5011 37.7538 47.417 37.7538L46.5755 38.2268C46.4914 38.2268 46.4072 38.2268 46.4072 38.2268L45.145 37.5173C45.0608 37.5173 45.0608 37.4385 45.145 37.4385L45.9865 36.9655ZM49.4365 35.9406C49.5207 35.9406 49.6048 35.9406 49.6048 35.9406L50.5304 36.4136C50.6146 36.4136 50.6146 36.4924 50.5304 36.4924L49.689 36.9655C49.6048 36.9655 49.5207 36.9655 49.5207 36.9655L48.595 36.4924C48.5109 36.4924 48.5109 36.4136 48.595 36.4136L49.4365 35.9406ZM48.0901 36.2559L47.2487 35.7829C47.1645 35.7829 47.1645 35.7041 47.2487 35.7041L48.0901 35.2311C48.1743 35.2311 48.2584 35.2311 48.2584 35.2311L49.0999 35.7041C49.1841 35.7041 49.1841 35.7829 49.0999 35.7829L48.2584 36.2559C48.2584 36.3348 48.1743 36.3348 48.0901 36.2559ZM48.5109 36.8866L47.6694 37.3596C47.5853 37.3596 47.5011 37.3596 47.5011 37.3596L46.6597 36.8866C46.5755 36.8866 46.5755 36.8078 46.6597 36.8078L47.5011 36.3348C47.5853 36.3348 47.6694 36.3348 47.6694 36.3348L48.5109 36.8078V36.8866ZM47.8377 37.5173L48.6792 37.0443C48.7633 37.0443 48.8475 37.0443 48.8475 37.0443L49.7731 37.5173C49.8572 37.5173 49.8572 37.5961 49.7731 37.5961L48.9316 38.0692C48.8475 38.0692 48.7633 38.0692 48.7633 38.0692L47.9219 37.5961C47.8377 37.5961 47.8377 37.5173 47.8377 37.5173ZM47.7536 37.9115C47.8377 37.9115 47.9219 37.9115 47.9219 37.9115L53.5597 40.9861C53.6439 40.9861 53.6439 41.0649 53.5597 41.0649L52.7182 41.5379C52.6341 41.5379 52.55 41.5379 52.55 41.5379L46.9121 38.4633C46.8279 38.4633 46.8279 38.3845 46.9121 38.3845L47.7536 37.9115ZM54.9061 38.8575L55.8317 39.3305C55.9159 39.3305 55.9159 39.4094 55.8317 39.4094L54.9902 39.8824C54.9061 39.8824 54.8219 39.8824 54.8219 39.8824L53.8963 39.4094C53.8122 39.4094 53.8122 39.3305 53.8963 39.3305L54.7378 38.8575C54.822 38.7787 54.9061 38.7787 54.9061 38.8575ZM53.8122 39.8035L52.9707 40.2766C52.8866 40.2766 52.8024 40.2766 52.8024 40.2766L51.8768 39.8035C51.7926 39.8035 51.7926 39.7247 51.8768 39.7247L52.7182 39.2517C52.8024 39.2517 52.8866 39.2517 52.8866 39.2517L53.8122 39.7247C53.8963 39.7247 53.8963 39.8035 53.8122 39.8035ZM53.6439 38.0692L54.5695 38.5422C54.6536 38.5422 54.6536 38.621 54.5695 38.621L53.728 39.094C53.6439 39.094 53.5597 39.094 53.5597 39.094L52.6341 38.621C52.55 38.621 52.55 38.5422 52.6341 38.5422L53.4756 38.0692C53.4756 38.0692 53.5597 38.0692 53.6439 38.0692ZM52.4658 39.094L51.6243 39.567C51.5402 39.567 51.456 39.567 51.456 39.567L50.5304 39.094C50.4463 39.094 50.4463 39.0152 50.5304 39.0152L51.3719 38.5422C51.4561 38.5422 51.5402 38.5422 51.5402 38.5422L52.4658 39.0152C52.55 39.0152 52.55 39.0152 52.4658 39.094ZM52.0451 37.3596C52.1292 37.3596 52.2134 37.3596 52.2134 37.3596L53.139 37.8326C53.2231 37.8326 53.2231 37.9115 53.139 37.9115L52.2975 38.3845C52.2134 38.3845 52.1292 38.3845 52.1292 38.3845L51.2036 37.9115C51.1195 37.9115 51.1195 37.8326 51.2036 37.8326L52.0451 37.3596ZM50.7829 37.7538L49.8572 37.2808C49.7731 37.2808 49.7731 37.202 49.8572 37.202L50.6987 36.7289C50.7829 36.7289 50.867 36.7289 50.867 36.7289L51.7926 37.202C51.8768 37.202 51.8768 37.2808 51.7926 37.2808L50.9512 37.7538C50.867 37.7538 50.7829 37.7538 50.7829 37.7538ZM51.1195 38.3845L50.278 38.8575C50.1938 38.8575 50.1097 38.8575 50.1097 38.8575L49.1841 38.3845C49.0999 38.3845 49.0999 38.3057 49.1841 38.3057L50.0255 37.8326C50.1097 37.8326 50.1938 37.8326 50.1938 37.8326L51.1195 38.3057C51.2036 38.3057 51.2036 38.3057 51.1195 38.3845ZM53.2231 40.4342L54.0646 39.9612C54.1488 39.9612 54.2329 39.9612 54.2329 39.9612L55.1585 40.4342C55.2427 40.4342 55.2427 40.5131 55.1585 40.5131L54.3171 40.9861C54.2329 40.9861 54.1488 40.9861 54.1488 40.9861L53.2231 40.5131C53.139 40.5131 53.139 40.4342 53.2231 40.4342ZM54.0646 41.2226L55.3268 41.9321C55.411 41.9321 55.411 42.0109 55.3268 42.0109L54.4853 42.484C54.4012 42.484 54.3171 42.484 54.3171 42.484L53.0549 41.7744C52.9707 41.7744 52.9707 41.6956 53.0549 41.6956L53.8963 41.2226C53.8963 41.2226 53.9805 41.2226 54.0646 41.2226ZM57.5988 40.2766L58.5244 40.7496C58.6086 40.7496 58.6086 40.8284 58.5244 40.8284L57.683 41.3014C57.5988 41.3014 57.5147 41.3014 57.5147 41.3014L56.589 40.8284C56.5049 40.8284 56.5049 40.7496 56.589 40.7496L57.4305 40.2766C57.5147 40.2766 57.5988 40.2766 57.5988 40.2766ZM55.2427 40.1189C55.1585 40.1189 55.1585 40.04 55.2427 40.04L56.0841 39.567C56.1683 39.567 56.2524 39.567 56.2524 39.567L57.1781 40.04C57.2622 40.04 57.2622 40.1189 57.1781 40.1189L56.3366 40.5919C56.2524 40.5919 56.1683 40.5919 56.1683 40.5919L55.2427 40.1189ZM56.5049 41.2226L55.6634 41.6956C55.5793 41.6956 55.4951 41.6956 55.4951 41.6956L54.5695 41.2226C54.4854 41.2226 54.4854 41.1437 54.5695 41.1437L55.411 40.6707C55.4951 40.6707 55.5793 40.6707 55.5793 40.6707L56.5049 41.1437C56.589 41.1437 56.589 41.2226 56.5049 41.2226ZM56.7573 41.3803C56.8415 41.3803 56.9256 41.3803 56.9256 41.3803L57.8512 41.8533C57.9354 41.8533 57.9354 41.9321 57.8512 41.9321L57.0098 42.4051C56.9256 42.4051 56.8415 42.4051 56.8415 42.4051L55.9159 41.9321C55.8317 41.9321 55.8317 41.8533 55.9159 41.8533L56.7573 41.3803ZM55.7476 42.1686L56.6732 42.7205C56.7573 42.7205 56.7573 42.7993 56.6732 42.7993L55.8317 43.2723C55.7476 43.2723 55.6634 43.2723 55.6634 43.2723L54.7378 42.7205C54.6537 42.7205 54.6537 42.6416 54.7378 42.6416L55.5793 42.1686C55.6634 42.1686 55.6634 42.1686 55.7476 42.1686ZM57.8512 41.6168C57.7671 41.6168 57.7671 41.5379 57.8512 41.5379L58.6927 41.0649C58.7769 41.0649 58.861 41.0649 58.861 41.0649L59.7866 41.5379C59.8708 41.5379 59.8708 41.6168 59.7866 41.6168L58.861 42.0898C58.7769 42.0898 58.6927 42.0898 58.6927 42.0898L57.8512 41.6168ZM59.1976 42.2474L60.1232 41.7744C60.2074 41.7744 60.2915 41.7744 60.2915 41.7744L61.2171 42.2474C61.3013 42.2474 61.3013 42.3263 61.2171 42.3263L60.2915 42.7993C60.2074 42.7993 60.1232 42.7993 60.1232 42.7993L59.1976 42.3263V42.2474ZM58.1037 43.1935L57.1781 42.7205C57.0939 42.7205 57.0939 42.6416 57.1781 42.6416L58.0195 42.1686C58.1037 42.1686 58.1878 42.1686 58.1878 42.1686L59.1134 42.6416C59.1976 42.6416 59.1976 42.7205 59.1134 42.7205L58.272 43.1935C58.272 43.1935 58.1878 43.1935 58.1037 43.1935ZM56.589 43.2723L57.5147 43.8242C57.5988 43.8242 57.5988 43.903 57.5147 43.903L57.2622 44.0607C57.1781 44.0607 57.0939 44.0607 57.0939 44.0607L56.1683 43.5088C56.0841 43.5088 56.0841 43.43 56.1683 43.43L56.4207 43.2723C56.4207 43.2723 56.5049 43.2723 56.589 43.2723ZM58.6086 43.6665L59.5342 44.2183C59.6183 44.2183 59.6183 44.2972 59.5342 44.2972L59.2818 44.4549C59.1976 44.4549 59.1134 44.4549 59.1134 44.4549L58.1878 43.903C58.1037 43.903 58.1037 43.8242 58.1878 43.8242L58.4403 43.6665C58.4403 43.6665 58.5244 43.6665 58.6086 43.6665ZM57.9354 44.0607L58.861 44.6125C58.9452 44.6125 58.9452 44.6914 58.861 44.6914L58.6086 44.849C58.5244 44.849 58.4403 44.849 58.4403 44.849L57.5147 44.2972C57.4305 44.2972 57.4305 44.2183 57.5147 44.2183L57.7671 44.0607C57.7671 43.9818 57.8512 43.9818 57.9354 44.0607Z" fill="#004680"/>
<path opacity="0.3" d="M65.0878 43.4303L46.1546 33.2605C45.818 33.1029 45.5656 32.7087 45.5656 32.3933L45.4814 17.7299C45.4814 17.4146 45.7339 17.3357 46.0705 17.4934L65.0036 27.6632C65.3402 27.8209 65.5926 28.2151 65.5926 28.5304L65.6768 43.115C65.7609 43.4304 65.4243 43.588 65.0878 43.4303Z" fill="white"/>
<path opacity="0.3" d="M66.0121 42.642L47.079 32.4722C46.7424 32.3146 46.4899 31.9204 46.4899 31.605L46.4058 17.0204C46.4058 16.7051 46.6582 16.6262 46.9948 16.7839L65.9279 26.9537C66.2645 27.1114 66.517 27.5056 66.517 27.8209L66.6011 42.4055C66.6853 42.7209 66.3487 42.7997 66.0121 42.642Z" fill="white"/>
<path opacity="0.8" d="M64.161 44.1625L45.2279 33.9927C44.8913 33.8351 44.6388 33.4409 44.6388 33.1255L44.5547 18.5409C44.5547 18.2256 44.8071 18.1467 45.1437 18.3044L64.0769 28.4742C64.4134 28.6319 64.6659 29.0261 64.6659 29.3414L64.75 43.926C64.75 44.2414 64.4976 44.3202 64.161 44.1625Z" fill="white"/>
<path d="M45.1437 18.2258C44.8071 18.0681 44.5547 18.147 44.5547 18.4623V20.039L64.75 30.9184V29.2628C64.75 29.0263 64.5817 28.711 64.2452 28.4745L56.3353 24.2173L45.1437 18.2258Z" fill="url(#paint17_linear_214_3563)"/>
<path d="M45.508 19.7902C45.6195 19.7117 45.5966 19.5069 45.4569 19.3329C45.3172 19.1589 45.1136 19.0815 45.0021 19.16C44.8906 19.2386 44.9135 19.4433 45.0532 19.6173C45.193 19.7914 45.3966 19.8688 45.508 19.7902Z" fill="white"/>
<path d="M46.3244 20.277C46.4359 20.1985 46.413 19.9937 46.2733 19.8197C46.1336 19.6457 45.93 19.5683 45.8185 19.6469C45.7071 19.7254 45.73 19.9301 45.8697 20.1042C46.0094 20.2782 46.213 20.3556 46.3244 20.277Z" fill="white"/>
<path d="M47.1926 20.8273C47.3041 20.7488 47.2812 20.544 47.1415 20.37C47.0018 20.196 46.7981 20.1186 46.6867 20.1971C46.5752 20.2757 46.5981 20.4804 46.7378 20.6544C46.8775 20.8285 47.0811 20.9059 47.1926 20.8273Z" fill="white"/>
<path d="M45.6115 22.7668L48.6408 24.3435C48.6408 24.3435 48.7249 24.3435 48.7249 24.2647C48.7249 24.1858 48.7249 24.1858 48.6408 24.107L45.6115 22.5303C45.6115 22.5303 45.5273 22.5303 45.5273 22.6091C45.5273 22.6879 45.6115 22.6879 45.6115 22.7668Z" fill="#CBCBCB"/>
<path d="M45.6115 23.1608L48.6408 24.7375C48.7249 24.7375 48.7249 24.7375 48.7249 24.6587C48.7249 24.5799 48.7249 24.5799 48.6408 24.501L45.6115 22.9243C45.5273 22.9243 45.5273 22.9243 45.5273 23.0032C45.5273 23.082 45.6115 23.1608 45.6115 23.1608Z" fill="#CBCBCB"/>
<path d="M45.6115 23.634L48.6408 25.2107C48.7249 25.2107 48.7249 25.2107 48.7249 25.1318C48.7249 25.053 48.7249 25.053 48.6408 24.9742L45.6115 23.3975C45.5273 23.3975 45.5273 23.3975 45.5273 23.4763C45.5273 23.5551 45.6115 23.634 45.6115 23.634Z" fill="#CBCBCB"/>
<path d="M50.24 26.5264C50.7449 26.7629 51.1657 26.6052 51.1657 26.0534C51.1657 25.9746 51.1657 25.8957 51.1657 25.8169C51.2498 25.8169 51.3339 25.8169 51.4181 25.8169C51.4181 25.9746 51.5022 26.1322 51.5022 26.2111C51.5022 26.9206 50.9974 27.2359 50.3242 26.8417H50.24V26.5264Z" fill="white"/>
<path d="M50.2422 24.5555C49.9056 24.3979 49.6532 24.3979 49.4849 24.5555L49.2324 24.2402C49.4849 24.0037 49.8215 23.9248 50.2422 24.1614C50.7471 24.4767 51.2519 25.0285 51.4202 25.6592C51.3361 25.6592 51.252 25.6592 51.1678 25.6592C50.9995 25.3439 50.6629 24.792 50.2422 24.5555Z" fill="url(#paint18_linear_214_3563)"/>
<path d="M49.0645 24.8707C49.0645 24.6342 49.1486 24.3977 49.2327 24.3188L49.4852 24.6342C49.401 24.713 49.3169 24.8707 49.3169 25.1072C49.3169 25.5802 49.6535 26.2109 50.1584 26.5263V26.8416C49.5693 26.4474 49.0645 25.5802 49.0645 24.8707Z" fill="url(#paint19_linear_214_3563)"/>
<path d="M56.8774 32.8258V32.5893L55.1104 31.5645V31.801L56.8774 32.8258Z" fill="#C7E3FC"/>
<path d="M51.4077 32.1954C52.0809 32.0377 52.8382 31.8801 53.259 32.2743C53.4273 32.4319 53.5114 32.5896 53.5956 32.7473C54.1846 33.5356 55.3626 33.6145 56.4566 33.4568C57.4663 33.2991 58.5602 32.9838 59.57 33.1414C60.3273 33.2991 61.0005 33.6933 61.6737 34.0086C62.3469 34.324 63.1883 34.5605 63.9457 34.324" stroke="url(#paint20_linear_214_3563)" stroke-width="0.25" stroke-miterlimit="10"/>
<path d="M61.5043 35.3487L60.5781 34.7969V40.6307L61.5043 41.1826V35.3487Z" fill="url(#paint21_linear_214_3563)"/>
<path d="M53.9315 34.2452L53.0054 33.6934V36.3738L53.9315 36.9256V34.2452Z" fill="url(#paint22_linear_214_3563)"/>
<path d="M52.5018 34.4029L51.5757 33.8511V35.5066L52.5018 36.0585V34.4029Z" fill="url(#paint23_linear_214_3563)"/>
<path d="M59.8221 35.9005L58.896 35.3486V39.6058L59.8221 40.1576V35.9005Z" fill="url(#paint24_linear_214_3563)"/>
<path d="M58.056 35.6641L57.1299 35.1123V38.6599L58.056 39.2117V35.6641Z" fill="url(#paint25_linear_214_3563)"/>
<path d="M56.121 34.4029L55.1948 33.8511V37.4775L56.121 38.0294V34.4029Z" fill="url(#paint26_linear_214_3563)"/>
<path d="M47.2733 28.0373L45.5903 27.0913V27.3278L47.2733 28.2738V28.0373Z" fill="#CBCBCB"/>
<path d="M47.2733 28.5896L45.5903 27.6436V27.8801L47.2733 28.8261V28.5896Z" fill="#CBCBCB"/>
<path d="M47.2733 27.407L45.5903 26.4609V26.6974L47.2733 27.6435V27.407Z" fill="#CBCBCB"/>
<path d="M46.1797 28.5107L45.5903 28.1953V28.4318L46.1797 28.7472V28.5107Z" fill="#CBCBCB"/>
<path d="M48.0309 29.8505C47.9467 29.7717 47.9467 29.8505 48.0309 29.8505V27.8796C48.0309 27.8796 48.0309 27.8008 48.1151 27.8008L48.1993 27.8796L48.0309 29.8505Z" fill="#C9D1D6"/>
<path d="M49.5458 28.7471C49.0409 28.4318 48.7043 28.6683 48.6202 29.1413C48.536 29.6143 48.9567 30.3238 49.4616 30.5603C49.9665 30.8757 50.3031 30.6392 50.3872 30.1661C50.4714 29.6931 49.9665 29.0624 49.5458 28.7471ZM49.4616 30.4026C49.125 30.1661 48.7884 29.6931 48.8726 29.2989C48.9567 28.9048 49.2092 28.7471 49.5458 28.9836C49.8824 29.2201 50.2189 29.6931 50.1348 30.0873C50.0506 30.4815 49.7982 30.6392 49.4616 30.4026Z" fill="#CBCBCB"/>
<path d="M50.2189 31.9003L45.5066 29.0622C45.5066 29.0622 45.4225 28.9834 45.5066 28.9834H45.5908L50.303 31.7427C50.303 31.8215 50.303 31.8215 50.2189 31.9003Z" fill="#C9D1D6"/>
<path d="M50.1344 30.0874C50.1344 30.3239 50.0502 30.4816 49.8818 30.4816C49.8818 30.4816 49.7976 30.5604 49.8818 30.6393C49.8818 30.7181 49.966 30.797 50.0502 30.7181C50.3028 30.6393 50.387 30.4816 50.4712 30.1663C50.4712 29.6933 50.2186 29.1414 49.7976 28.8261C49.7134 28.7472 49.7134 28.8261 49.7134 28.8261C49.7134 28.9049 49.7134 28.9049 49.7976 28.9837C49.966 29.2991 50.1344 29.6933 50.1344 30.0874Z" fill="url(#paint27_linear_214_3563)"/>
<path d="M45.5085 31.6681L45.4248 31.5892V31.1162L45.5085 31.1951V31.6681Z" fill="url(#paint28_linear_214_3563)"/>
<path d="M45.6765 31.7467L45.5928 31.6678V31.1948L45.6765 31.2737V31.7467Z" fill="url(#paint29_linear_214_3563)"/>
<path d="M45.8449 31.8258L45.7612 31.7469V31.2739L45.8449 31.3527V31.8258Z" fill="url(#paint30_linear_214_3563)"/>
<path d="M46.0129 31.983L45.9292 31.9042V31.4312L46.0129 31.51V31.983Z" fill="url(#paint31_linear_214_3563)"/>
<path d="M46.0969 32.0621L46.0132 31.9833V31.5103L46.0969 31.5891V32.0621Z" fill="url(#paint32_linear_214_3563)"/>
<path d="M46.2653 32.1407L46.1816 32.0619V31.5889L46.2653 31.6677V32.1407Z" fill="url(#paint33_linear_214_3563)"/>
<path d="M46.4343 32.2198L46.3506 32.141V31.668L46.4343 31.7468V32.2198Z" fill="url(#paint34_linear_214_3563)"/>
<path d="M46.6013 32.2984L46.5176 32.2196V31.7466L46.6013 31.8254V32.2984Z" fill="url(#paint35_linear_214_3563)"/>
<path d="M46.6858 32.3775L46.6021 32.2987V31.8257L46.6858 31.9045V32.3775Z" fill="url(#paint36_linear_214_3563)"/>
<path d="M46.8547 32.4562L46.771 32.3773V31.9043L46.8547 31.9831V32.4562Z" fill="url(#paint37_linear_214_3563)"/>
<path d="M47.0246 32.5352L46.9409 32.4564V31.9834L47.0246 32.0622V32.5352Z" fill="url(#paint38_linear_214_3563)"/>
<path d="M47.1901 32.6138L47.1064 32.535V32.062L47.1901 32.1408V32.6138Z" fill="url(#paint39_linear_214_3563)"/>
<path d="M47.2756 32.7716L47.1919 32.6927V32.2197L47.2756 32.2986V32.7716Z" fill="url(#paint40_linear_214_3563)"/>
<path d="M47.4441 32.8507L47.3604 32.7718V32.2988L47.4441 32.3777V32.8507Z" fill="url(#paint41_linear_214_3563)"/>
<path d="M47.6135 32.9293L47.5298 32.8505V32.3774L47.6135 32.4563V32.9293Z" fill="url(#paint42_linear_214_3563)"/>
<path d="M47.7805 33.0079L47.6968 32.929V32.4561L47.7805 32.5349V33.0079Z" fill="url(#paint43_linear_214_3563)"/>
<path d="M47.948 33.087L47.8643 33.0082V32.5352L47.948 32.614V33.087Z" fill="url(#paint44_linear_214_3563)"/>
<path d="M48.0329 33.1656L47.9492 33.0868V32.6138L48.0329 32.6926V33.1656Z" fill="url(#paint45_linear_214_3563)"/>
<path d="M48.2019 33.2447L48.1182 33.1659V32.6929L48.2019 32.7717V33.2447Z" fill="url(#paint46_linear_214_3563)"/>
<path d="M48.3693 33.3233L48.2856 33.2445V32.7715L48.3693 32.8503V33.3233Z" fill="url(#paint47_linear_214_3563)"/>
<path d="M48.5363 33.4024L48.4526 33.3236V32.8506L48.5363 32.9294V33.4024Z" fill="url(#paint48_linear_214_3563)"/>
<path d="M48.6218 33.5602L48.5381 33.4813V33.0083L48.6218 33.0871V33.5602Z" fill="url(#paint49_linear_214_3563)"/>
<path d="M48.7907 33.6388L48.707 33.5599V33.0869L48.7907 33.1658V33.6388Z" fill="url(#paint50_linear_214_3563)"/>
<path d="M48.9568 33.7174L48.873 33.6385V33.1655L48.9568 33.2444V33.7174Z" fill="url(#paint51_linear_214_3563)"/>
<path d="M49.1262 33.7965L49.0425 33.7176V33.2446L49.1262 33.3234V33.7965Z" fill="#CBCBCB"/>
<path d="M49.2111 33.8751L49.1274 33.7963V33.3232L49.2111 33.4021V33.8751Z" fill="#CBCBCB"/>
<path d="M49.3796 33.9542L49.2959 33.8754V33.4023L49.3796 33.4812V33.9542Z" fill="#CBCBCB"/>
<path d="M49.5476 34.0328L49.4639 33.954V33.481L49.5476 33.5598V34.0328Z" fill="#CBCBCB"/>
<path d="M49.716 34.1119L49.6323 34.0331V33.5601L49.716 33.6389V34.1119Z" fill="#CBCBCB"/>
<path d="M49.884 34.1905L49.8003 34.1117V33.6387L49.884 33.7175V34.1905Z" fill="#CBCBCB"/>
<path d="M49.9694 34.3482L49.8857 34.2694V33.7964L49.9694 33.8752V34.3482Z" fill="#CBCBCB"/>
<path d="M50.1364 34.4273L50.0527 34.3485V33.8755L50.1364 33.9543V34.4273Z" fill="#CBCBCB"/>
<path d="M48.959 34.2697L48.8748 33.8755L48.7064 34.112L48.3696 33.9543V34.585L49.2116 35.058V34.4273L48.959 34.2697Z" fill="#F9346C"/>
<path d="M47.1052 30.718L45.5063 29.772V30.1662L47.1052 31.1122V30.718Z" fill="#CBCBCB"/>
<defs>
<linearGradient id="paint0_linear_214_3563" x1="-0.0314048" y1="113.9" x2="105.967" y2="113.9" gradientUnits="userSpaceOnUse">
<stop stop-color="#A1C1FF"/>
<stop offset="1" stop-color="white"/>
</linearGradient>
<linearGradient id="paint1_linear_214_3563" x1="17.6128" y1="92.517" x2="88.3187" y2="92.517" gradientUnits="userSpaceOnUse">
<stop offset="0.3375" stop-color="#97B5E1"/>
<stop offset="0.5932" stop-color="#E8F1FF"/>
</linearGradient>
<linearGradient id="paint2_linear_214_3563" x1="88.0453" y1="72.9535" x2="17.9621" y2="66.163" gradientUnits="userSpaceOnUse">
<stop stop-color="white"/>
<stop offset="1" stop-color="#C9D9F4"/>
</linearGradient>
<linearGradient id="paint3_linear_214_3563" x1="24.7014" y1="84.0224" x2="23.5638" y2="81.9193" gradientUnits="userSpaceOnUse">
<stop stop-color="#103DB5"/>
<stop offset="0.6426" stop-color="#6BABFD"/>
</linearGradient>
<linearGradient id="paint4_linear_214_3563" x1="28.4122" y1="86.0139" x2="27.2746" y2="83.9109" gradientUnits="userSpaceOnUse">
<stop stop-color="#103DB5"/>
<stop offset="0.6426" stop-color="#6BABFD"/>
</linearGradient>
<linearGradient id="paint5_linear_214_3563" x1="32.2547" y1="92.1625" x2="27.3537" y2="99.5019" gradientUnits="userSpaceOnUse">
<stop stop-color="#F1935C" stop-opacity="0.6"/>
<stop offset="1" stop-color="#FFE4D4" stop-opacity="0"/>
</linearGradient>
<linearGradient id="paint6_linear_214_3563" x1="3.15009" y1="11.5158" x2="15.0557" y2="1.78229" gradientUnits="userSpaceOnUse">
<stop stop-color="#A1C1FF"/>
<stop offset="1" stop-color="#B2D7FF"/>
</linearGradient>
<linearGradient id="paint7_linear_214_3563" x1="22.1902" y1="7.06637" x2="10.7893" y2="0.177469" gradientUnits="userSpaceOnUse">
<stop stop-color="white"/>
<stop offset="1" stop-color="#C9D9F4"/>
</linearGradient>
<linearGradient id="paint8_linear_214_3563" x1="100.355" y1="15.4707" x2="93.3156" y2="9.71571" gradientUnits="userSpaceOnUse">
<stop stop-color="#A1C1FF"/>
<stop offset="1" stop-color="#B2D7FF"/>
</linearGradient>
<linearGradient id="paint9_linear_214_3563" x1="89.0958" y1="12.84" x2="95.8364" y2="8.76689" gradientUnits="userSpaceOnUse">
<stop stop-color="white"/>
<stop offset="1" stop-color="#C9D9F4"/>
</linearGradient>
<linearGradient id="paint10_linear_214_3563" x1="22.3754" y1="62.7765" x2="82.1474" y2="62.7765" gradientUnits="userSpaceOnUse">
<stop offset="0.3375" stop-color="#97B5E1"/>
<stop offset="0.5932" stop-color="#E8F1FF"/>
</linearGradient>
<linearGradient id="paint11_linear_214_3563" x1="81.9171" y1="42.4632" x2="22.6806" y2="36.6756" gradientUnits="userSpaceOnUse">
<stop stop-color="white"/>
<stop offset="1" stop-color="#C9D9F4"/>
</linearGradient>
<linearGradient id="paint12_linear_214_3563" x1="44.2982" y1="57.9361" x2="34.1387" y2="81.4781" gradientUnits="userSpaceOnUse">
<stop stop-color="#97B5E1"/>
<stop offset="1" stop-color="#E8F1FF"/>
</linearGradient>
<linearGradient id="paint13_linear_214_3563" x1="45.6665" y1="59.7777" x2="26.5475" y2="71.6584" gradientUnits="userSpaceOnUse">
<stop stop-color="white"/>
<stop offset="1" stop-color="white" stop-opacity="0.2"/>
</linearGradient>
<linearGradient id="paint14_linear_214_3563" x1="-9.51251" y1="28.2745" x2="12.2701" y2="28.2745" gradientUnits="userSpaceOnUse">
<stop stop-color="#E5EDF6"/>
<stop offset="1" stop-color="#F0F5FA"/>
</linearGradient>
<linearGradient id="paint15_linear_214_3563" x1="-22.6761" y1="39.9996" x2="11.7773" y2="39.9996" gradientUnits="userSpaceOnUse">
<stop stop-color="#E5EDF6"/>
<stop offset="1" stop-color="#F0F5FA"/>
</linearGradient>
<linearGradient id="paint16_linear_214_3563" x1="-14.7699" y1="43.7287" x2="-9.34648" y2="43.7287" gradientUnits="userSpaceOnUse">
<stop stop-color="#E5EDF6"/>
<stop offset="1" stop-color="#F0F5FA"/>
</linearGradient>
<linearGradient id="paint17_linear_214_3563" x1="44.4808" y1="24.5863" x2="64.6619" y2="24.5863" gradientUnits="userSpaceOnUse">
<stop stop-color="#103DB5"/>
<stop offset="1" stop-color="#6BABFD"/>
</linearGradient>
<linearGradient id="paint18_linear_214_3563" x1="51.6449" y1="24.5493" x2="49.8907" y2="25.2202" gradientUnits="userSpaceOnUse">
<stop stop-color="#FF8000"/>
<stop offset="1" stop-color="#FFD000"/>
</linearGradient>
<linearGradient id="paint19_linear_214_3563" x1="49.9136" y1="24.7512" x2="49.532" y2="26.1695" gradientUnits="userSpaceOnUse">
<stop stop-color="#FF8000"/>
<stop offset="1" stop-color="#FFD000"/>
</linearGradient>
<linearGradient id="paint20_linear_214_3563" x1="51.3986" y1="33.2304" x2="63.9963" y2="33.2304" gradientUnits="userSpaceOnUse">
<stop stop-color="#FF8000"/>
<stop offset="1" stop-color="#FFD000"/>
</linearGradient>
<linearGradient id="paint21_linear_214_3563" x1="61.0786" y1="59.2258" x2="61.0786" y2="67.5287" gradientUnits="userSpaceOnUse">
<stop stop-color="#FF8000"/>
<stop offset="1" stop-color="#FFD000"/>
</linearGradient>
<linearGradient id="paint22_linear_214_3563" x1="53.5128" y1="63.7044" x2="53.5128" y2="67.4828" gradientUnits="userSpaceOnUse">
<stop stop-color="#FF8000"/>
<stop offset="1" stop-color="#FFD000"/>
</linearGradient>
<linearGradient id="paint23_linear_214_3563" x1="52.0232" y1="65.1161" x2="52.0232" y2="67.466" gradientUnits="userSpaceOnUse">
<stop stop-color="#FF8000"/>
<stop offset="1" stop-color="#FFD000"/>
</linearGradient>
<linearGradient id="paint24_linear_214_3563" x1="59.3263" y1="62.8844" x2="59.3263" y2="67.4545" gradientUnits="userSpaceOnUse">
<stop stop-color="#FF8000"/>
<stop offset="1" stop-color="#FFD000"/>
</linearGradient>
<linearGradient id="paint25_linear_214_3563" x1="57.6167" y1="63.6315" x2="57.6167" y2="67.4046" gradientUnits="userSpaceOnUse">
<stop stop-color="#FF8000"/>
<stop offset="1" stop-color="#FFD000"/>
</linearGradient>
<linearGradient id="paint26_linear_214_3563" x1="55.6024" y1="64.8121" x2="55.6024" y2="67.3809" gradientUnits="userSpaceOnUse">
<stop stop-color="#FF8000"/>
<stop offset="1" stop-color="#FFD000"/>
</linearGradient>
<linearGradient id="paint27_linear_214_3563" x1="-267.681" y1="-568.443" x2="-266.008" y2="-567.877" gradientUnits="userSpaceOnUse">
<stop stop-color="#2500E9"/>
<stop offset="0.524" stop-color="#9987F4"/>
<stop offset="1" stop-color="white"/>
</linearGradient>
<linearGradient id="paint28_linear_214_3563" x1="45.0211" y1="31.1201" x2="47.9602" y2="33.1444" gradientUnits="userSpaceOnUse">
<stop stop-color="#FF8000"/>
<stop offset="1" stop-color="#FFD000"/>
</linearGradient>
<linearGradient id="paint29_linear_214_3563" x1="45.0229" y1="31.118" x2="47.9622" y2="33.1432" gradientUnits="userSpaceOnUse">
<stop stop-color="#FF8000"/>
<stop offset="1" stop-color="#FFD000"/>
</linearGradient>
<linearGradient id="paint30_linear_214_3563" x1="45.0252" y1="31.1163" x2="47.9645" y2="33.1416" gradientUnits="userSpaceOnUse">
<stop stop-color="#FF8000"/>
<stop offset="1" stop-color="#FFD000"/>
</linearGradient>
<linearGradient id="paint31_linear_214_3563" x1="45.0271" y1="31.114" x2="47.9665" y2="33.1391" gradientUnits="userSpaceOnUse">
<stop stop-color="#FF8000"/>
<stop offset="1" stop-color="#FFD000"/>
</linearGradient>
<linearGradient id="paint32_linear_214_3563" x1="45.0287" y1="31.1123" x2="47.9681" y2="33.1376" gradientUnits="userSpaceOnUse">
<stop stop-color="#FF8000"/>
<stop offset="1" stop-color="#FFD000"/>
</linearGradient>
<linearGradient id="paint33_linear_214_3563" x1="45.031" y1="31.1103" x2="47.9704" y2="33.1355" gradientUnits="userSpaceOnUse">
<stop stop-color="#FF8000"/>
<stop offset="1" stop-color="#FFD000"/>
</linearGradient>
<linearGradient id="paint34_linear_214_3563" x1="45.0338" y1="31.1086" x2="47.9732" y2="33.1339" gradientUnits="userSpaceOnUse">
<stop stop-color="#FF8000"/>
<stop offset="1" stop-color="#FFD000"/>
</linearGradient>
<linearGradient id="paint35_linear_214_3563" x1="45.0347" y1="31.1065" x2="47.9742" y2="33.1317" gradientUnits="userSpaceOnUse">
<stop stop-color="#FF8000"/>
<stop offset="1" stop-color="#FFD000"/>
</linearGradient>
<linearGradient id="paint36_linear_214_3563" x1="45.0369" y1="31.1049" x2="47.9763" y2="33.1301" gradientUnits="userSpaceOnUse">
<stop stop-color="#FF8000"/>
<stop offset="1" stop-color="#FFD000"/>
</linearGradient>
<linearGradient id="paint37_linear_214_3563" x1="45.0396" y1="31.1028" x2="47.9791" y2="33.128" gradientUnits="userSpaceOnUse">
<stop stop-color="#FF8000"/>
<stop offset="1" stop-color="#FFD000"/>
</linearGradient>
<linearGradient id="paint38_linear_214_3563" x1="45.0435" y1="31.1012" x2="47.9828" y2="33.1264" gradientUnits="userSpaceOnUse">
<stop stop-color="#FF8000"/>
<stop offset="1" stop-color="#FFD000"/>
</linearGradient>
<linearGradient id="paint39_linear_214_3563" x1="45.0435" y1="31.0991" x2="47.9825" y2="33.1234" gradientUnits="userSpaceOnUse">
<stop stop-color="#FF8000"/>
<stop offset="1" stop-color="#FFD000"/>
</linearGradient>
<linearGradient id="paint40_linear_214_3563" x1="45.046" y1="31.0972" x2="47.9854" y2="33.1224" gradientUnits="userSpaceOnUse">
<stop stop-color="#FF8000"/>
<stop offset="1" stop-color="#FFD000"/>
</linearGradient>
<linearGradient id="paint41_linear_214_3563" x1="45.0483" y1="31.0956" x2="47.9877" y2="33.1207" gradientUnits="userSpaceOnUse">
<stop stop-color="#FF8000"/>
<stop offset="1" stop-color="#FFD000"/>
</linearGradient>
<linearGradient id="paint42_linear_214_3563" x1="45.0525" y1="31.0934" x2="47.9915" y2="33.1178" gradientUnits="userSpaceOnUse">
<stop stop-color="#FF8000"/>
<stop offset="1" stop-color="#FFD000"/>
</linearGradient>
<linearGradient id="paint43_linear_214_3563" x1="45.0525" y1="31.0914" x2="47.9918" y2="33.1167" gradientUnits="userSpaceOnUse">
<stop stop-color="#FF8000"/>
<stop offset="1" stop-color="#FFD000"/>
</linearGradient>
<linearGradient id="paint44_linear_214_3563" x1="45.0538" y1="31.0898" x2="47.9932" y2="33.115" gradientUnits="userSpaceOnUse">
<stop stop-color="#FF8000"/>
<stop offset="1" stop-color="#FFD000"/>
</linearGradient>
<linearGradient id="paint45_linear_214_3563" x1="45.0573" y1="31.0876" x2="47.9964" y2="33.112" gradientUnits="userSpaceOnUse">
<stop stop-color="#FF8000"/>
<stop offset="1" stop-color="#FFD000"/>
</linearGradient>
<linearGradient id="paint46_linear_214_3563" x1="45.0592" y1="31.086" x2="47.9987" y2="33.1112" gradientUnits="userSpaceOnUse">
<stop stop-color="#FF8000"/>
<stop offset="1" stop-color="#FFD000"/>
</linearGradient>
<linearGradient id="paint47_linear_214_3563" x1="45.0607" y1="31.0839" x2="48" y2="33.1091" gradientUnits="userSpaceOnUse">
<stop stop-color="#FF8000"/>
<stop offset="1" stop-color="#FFD000"/>
</linearGradient>
<linearGradient id="paint48_linear_214_3563" x1="45.0615" y1="31.0823" x2="48.0008" y2="33.1076" gradientUnits="userSpaceOnUse">
<stop stop-color="#FF8000"/>
<stop offset="1" stop-color="#FFD000"/>
</linearGradient>
<linearGradient id="paint49_linear_214_3563" x1="45.0645" y1="31.0804" x2="48.0039" y2="33.1056" gradientUnits="userSpaceOnUse">
<stop stop-color="#FF8000"/>
<stop offset="1" stop-color="#FFD000"/>
</linearGradient>
<linearGradient id="paint50_linear_214_3563" x1="45.0674" y1="31.0783" x2="48.0068" y2="33.1035" gradientUnits="userSpaceOnUse">
<stop stop-color="#FF8000"/>
<stop offset="1" stop-color="#FFD000"/>
</linearGradient>
<linearGradient id="paint51_linear_214_3563" x1="45.0673" y1="31.0763" x2="48.0067" y2="33.1015" gradientUnits="userSpaceOnUse">
<stop stop-color="#FF8000"/>
<stop offset="1" stop-color="#FFD000"/>
</linearGradient>
</defs>
</svg>
