<svg width="70" height="70" viewBox="0 0 70 70" fill="none" xmlns="http://www.w3.org/2000/svg">
<rect width="70" height="70" rx="20" fill="#34656D"/>
<path d="M50 40.9991V31.9983C50 27.7552 50 25.6337 48.5355 24.3155C47.2549 23.1629 45.2917 23.0182 41.6667 23H28.3333C24.7083 23.0182 22.7451 23.1629 21.4645 24.3155C20 25.6337 20 27.7552 20 31.9983V40.9991C20 45.2422 20 47.3637 21.4645 48.6819C22.9289 50 25.2859 50 30 50H30H40H40C44.7141 50 47.0711 50 48.5355 48.6819C50 47.3637 50 45.2422 50 40.9991Z" fill="white"/>
<path d="M29 22.2502C29 21.0074 30.0074 20 31.25 20H38.75C39.9926 20 41 21.0074 41 22.2502V23.7503C41 24.993 39.9926 26.0004 38.75 26.0004H31.25C30.0074 26.0004 29 24.993 29 23.7503V22.2502Z" fill="white"/>
<path fill-rule="evenodd" clip-rule="evenodd" d="M39.9474 32.7334C40.3714 33.1876 40.3468 33.8996 39.8926 34.3235L33.464 40.324C33.0318 40.7274 32.3611 40.7274 31.9288 40.324L29.3574 37.9238C28.9032 37.4998 28.8786 36.7879 29.3026 36.3336C29.7265 35.8794 30.4384 35.8548 30.8926 36.2788L32.6964 37.9625L38.3574 32.6786C38.8116 32.2546 39.5235 32.2791 39.9474 32.7334Z" fill="#34656D"/>
</svg>
