<svg width="150" height="182" viewBox="0 0 150 182" fill="none" xmlns="http://www.w3.org/2000/svg">
<path d="M87.909 107.661C85.3823 106.351 81.2858 106.351 78.7591 107.661L4.56177 146.148C3.29859 146.803 2.66692 147.662 2.66676 148.521C2.6666 149.38 3.29827 150.239 4.56177 150.894L61.07 180.205C63.5967 181.516 67.6932 181.516 70.2199 180.205L144.417 141.719C145.68 141.063 146.312 140.205 146.312 139.346C146.312 138.487 145.681 137.628 144.417 136.972L87.909 107.661Z" fill="#D4E4FE"/>
<path d="M87.9109 102.18C85.3842 100.869 81.2876 100.869 78.761 102.18V107.664C81.2876 106.353 85.3842 106.353 87.9109 107.664V102.18Z" fill="#D4E4FE"/>
<path d="M87.9049 102.179L144.413 131.49V136.974L87.9049 107.663V102.179Z" fill="#D4E4FE"/>
<path d="M4.56441 140.665L78.7617 102.179V107.663L4.56441 146.149V140.665Z" fill="#D4E4FE"/>
<path d="M144.417 131.493C145.681 132.149 146.312 133.008 146.312 133.867L146.312 139.35C146.312 138.491 145.68 137.633 144.417 136.977V131.493Z" fill="#D4E4FE"/>
<path d="M146.312 133.865C146.312 134.723 145.68 135.582 144.417 136.237V141.721C145.68 141.066 146.312 140.207 146.312 139.348V133.865Z" fill="#A1C1FF"/>
<path d="M2.66944 143.041C2.6696 142.182 3.30127 141.323 4.56445 140.668V146.152C3.30127 146.807 2.6696 147.666 2.66944 148.525V143.041Z" fill="#D4E4FE"/>
<path d="M4.56445 145.411C3.30127 144.755 2.6696 143.897 2.66944 143.038V148.521C2.66929 149.38 3.30096 150.239 4.56445 150.895V145.411Z" fill="#A1C1FF"/>
<path d="M144.413 136.239L70.2158 174.725V180.209L144.413 141.723V136.239Z" fill="#A1C1FF"/>
<path d="M61.0735 174.725L4.56526 145.414V150.898L61.0735 180.209V174.725Z" fill="#A1C1FF"/>
<path d="M70.2158 174.725C67.6891 176.035 63.5926 176.035 61.0659 174.725V180.209C63.5926 181.519 67.6891 181.519 70.2158 180.209V174.725Z" fill="#A1C1FF"/>
<rect width="93.8926" height="73.9654" rx="7.86205" transform="matrix(-0.887687 0.460447 0.887687 0.460447 83.3472 99.6592)" fill="#DEEFFF"/>
<path d="M87.9195 95.6009C85.3928 94.2903 81.2963 94.2903 78.7696 95.6009L4.57227 134.087C3.30908 134.743 2.67742 135.601 2.67726 136.46C2.6771 137.319 3.30877 138.178 4.57227 138.833L61.0805 168.144C63.6072 169.455 67.7037 169.455 70.2304 168.144L144.428 129.658C145.691 129.003 146.323 128.144 146.323 127.285C146.323 126.426 145.691 125.567 144.428 124.912L87.9195 95.6009Z" fill="#D4E4FE"/>
<path d="M87.9219 90.1192C85.3952 88.8086 81.2986 88.8086 78.772 90.1192V95.6031C81.2986 94.2925 85.3952 94.2925 87.9219 95.6031V90.1192Z" fill="#D4E4FE"/>
<path d="M87.9124 90.1182L144.421 119.429V124.913L87.9124 95.6021V90.1182Z" fill="#D4E4FE"/>
<path d="M4.56783 128.605L78.7651 90.1182V95.6021L4.56783 134.089V128.605Z" fill="#D4E4FE"/>
<path d="M144.428 119.431C145.691 120.086 146.323 120.945 146.323 121.804L146.323 127.288C146.323 126.429 145.691 125.57 144.428 124.915V119.431Z" fill="#D4E4FE"/>
<path d="M146.323 121.804C146.323 122.663 145.691 123.521 144.428 124.177V129.661C145.691 129.005 146.323 128.147 146.323 127.288V121.804Z" fill="#A1C1FF"/>
<path d="M2.68043 130.978C2.68059 130.12 3.31226 129.261 4.57544 128.606V134.09C3.31226 134.745 2.68059 135.604 2.68043 136.462V130.978Z" fill="#D4E4FE"/>
<path d="M4.57544 133.35C3.31226 132.695 2.68059 131.836 2.68043 130.977V136.461C2.68027 137.32 3.31194 138.179 4.57544 138.834V133.35Z" fill="#A1C1FF"/>
<path d="M144.421 124.178L70.2234 162.665V168.149L144.421 129.662V124.178Z" fill="#A1C1FF"/>
<path d="M61.0845 162.661L4.57624 133.35V138.834L61.0845 168.145V162.661Z" fill="#A1C1FF"/>
<path d="M70.2271 162.664C67.7004 163.975 63.6038 163.975 61.0771 162.664V168.148C63.6038 169.459 67.7004 169.459 70.2271 168.148V162.664Z" fill="#A1C1FF"/>
<rect width="93.8926" height="73.9654" rx="7.86205" transform="matrix(-0.887687 0.460447 0.887687 0.460447 83.3472 87.7471)" fill="#DEEFFF"/>
<path d="M77.0977 135.677L80.6419 137.266L88.6783 131.742L93.3423 140.903L92.3086 137.266L90.3887 123.106V117.456L77.0977 135.677Z" fill="#B2D7FF"/>
<path d="M93.196 138.221V141.329L91.7192 136.445L92.273 135.114L93.196 138.221Z" fill="#DA6420"/>
<path d="M52.1411 124.097V120.707L57.1622 122.864L52.1411 124.097Z" fill="#DA6420"/>
<path d="M71.9153 115.059L52.1411 123.957L77.3765 135.822L86.7927 126.358L93.1958 141.33L90.5376 117.601L77.3765 122.968L71.9153 115.059Z" fill="#DA6420"/>
<path d="M71.9153 111.948L52.1411 120.846L77.3765 132.711L86.7927 123.248L93.1958 138.22L90.3899 117.457L77.3765 119.858L71.9153 111.948Z" fill="#F1935C"/>
<path fill-rule="evenodd" clip-rule="evenodd" d="M74.8403 125.162L57.3757 115.373C57.3757 115.373 57.3757 87.3453 16.7651 32.6145H132.082C92.305 87.0732 92.305 115.373 92.305 115.373L74.8403 125.162Z" fill="url(#paint0_linear_466_21652)"/>
<path d="M72.8745 81.0869L86.3281 73.7419L99.0129 80.3524L85.9437 88.0646L72.8745 81.0869Z" fill="#BECDD0"/>
<path d="M72.8745 81.0886V95.7786L85.9437 103.124V88.0663L72.8745 81.0886Z" fill="url(#paint1_linear_466_21652)"/>
<path d="M85.9453 88.0667L99.0145 80.3545V95.4851L85.9453 103.124V88.0667Z" fill="#28565D"/>
<path d="M89.9504 83.9206V84.6927L89.5835 83.4793L89.7211 83.1484L89.9504 83.9206Z" fill="#DA6420"/>
<path d="M79.7537 80.4129V79.5706L81.0013 80.1066L79.7537 80.4129Z" fill="#28565D"/>
<path d="M84.6672 78.1655L79.7537 80.3766L86.0241 83.3247L88.3639 80.9733L89.9549 84.6935L89.2944 78.7973L86.0241 80.1309L84.6672 78.1655Z" fill="#28565D"/>
<path d="M84.6672 77.394L79.7537 79.6051L86.0241 82.5532L88.3639 80.2018L89.9549 83.922L89.2577 78.7628L86.0241 79.3595L84.6672 77.394Z" fill="#4D94A0"/>
<path d="M101.323 44.368L108.05 40.6956L114.392 44.0007L107.857 47.8568L101.323 44.368Z" fill="#A1C1FF"/>
<path d="M101.323 44.3708V51.7157L107.857 55.3881V47.8596L101.323 44.3708Z" fill="url(#paint2_linear_466_21652)"/>
<path d="M107.857 47.8607L114.392 44.0046V51.5698L107.857 55.3891V47.8607Z" fill="#A1C1FF"/>
<path d="M109.856 45.785V46.171L109.673 45.5644L109.741 45.3989L109.856 45.785Z" fill="#DA6420"/>
<path d="M104.758 44.0293V43.6082L105.381 43.8761L104.758 44.0293Z" fill="#DA6420"/>
<path d="M107.214 42.9111L104.758 44.0167L107.893 45.4907L109.063 44.315L109.858 46.175L109.528 43.227L107.893 43.8938L107.214 42.9111Z" fill="#DA6420"/>
<path d="M107.214 42.5217L104.758 43.6272L107.893 45.1013L109.063 43.9256L109.858 45.7856L109.51 43.2061L107.893 43.5044L107.214 42.5217Z" fill="#F1935C"/>
<path d="M92.8689 64.1966L99.5956 60.5242L105.938 63.8294L99.4034 67.6854L92.8689 64.1966Z" fill="#F1935C"/>
<path d="M92.8689 64.1941V71.539L99.4034 75.2114V67.6829L92.8689 64.1941Z" fill="url(#paint3_linear_466_21652)"/>
<path d="M99.4026 67.6857L105.937 63.8296V71.3948L99.4026 75.2142V67.6857Z" fill="#DA6420"/>
<path d="M101.408 65.6134V65.9994L101.225 65.3927L101.294 65.2273L101.408 65.6134Z" fill="#DA6420"/>
<path d="M96.3066 63.8579V63.4368L96.9305 63.7048L96.3066 63.8579Z" fill="#DA6420"/>
<path d="M98.7634 62.7341L96.3066 63.8397L99.4418 65.3137L100.612 64.138L101.407 65.9981L101.077 63.05L99.4418 63.7168L98.7634 62.7341Z" fill="#DA6420"/>
<path d="M98.7634 62.3503L96.3066 63.4559L99.4418 64.9299L100.612 63.7542L101.407 65.6143L101.059 63.0347L99.4418 63.333L98.7634 62.3503Z" fill="white"/>
<path d="M39.8303 43.6317L60.0103 32.6145L79.0372 42.53L59.4337 54.0981L39.8303 43.6317Z" fill="#F1935C"/>
<path d="M39.8303 43.6277V65.6622L59.4337 76.6794V54.0941L39.8303 43.6277Z" fill="url(#paint4_linear_466_21652)"/>
<path d="M59.4355 54.0986L79.039 42.5305V65.226L59.4355 76.684V54.0986Z" fill="#DA6420"/>
<path d="M65.4503 47.8823V49.0404L64.8999 47.2204L65.1063 46.7241L65.4503 47.8823Z" fill="#DA6420"/>
<path d="M50.1472 42.6138V41.3503L52.0186 42.1543L50.1472 42.6138Z" fill="#DA6420"/>
<path d="M57.5173 39.2429L50.1472 42.5595L59.5527 46.9816L63.0623 43.4544L65.4488 49.0347L64.4581 40.1905L59.5527 42.191L57.5173 39.2429Z" fill="#DA6420"/>
<path d="M57.5173 38.0874L50.1472 41.404L59.5527 45.826L63.0623 42.2989L65.4488 47.8791L64.403 40.1405L59.5527 41.0355L57.5173 38.0874Z" fill="white"/>
<path d="M75.9595 55.7549L79.3228 53.9187L82.494 55.5713L79.2267 57.4993L75.9595 55.7549Z" fill="#BECDD0"/>
<path d="M75.9595 55.7554V59.4278L79.2267 61.264V57.4998L75.9595 55.7554Z" fill="url(#paint5_linear_466_21652)"/>
<path d="M79.2261 57.5013L82.4933 55.5732V59.3559L79.2261 61.2655V57.5013Z" fill="#28565D"/>
<path d="M80.2272 56.4687V56.6617L80.1357 56.3584L80.17 56.2756L80.2272 56.4687Z" fill="#DA6420"/>
<path d="M77.6836 55.5892V55.3787L77.9955 55.5127L77.6836 55.5892Z" fill="#DA6420"/>
<path d="M78.912 55.0283L77.6836 55.5811L79.2512 56.3181L79.8361 55.7302L80.2339 56.6603L80.0688 55.1863L79.2512 55.5197L78.912 55.0283Z" fill="#DA6420"/>
<path d="M78.912 54.8354L77.6836 55.3882L79.2512 56.1252L79.8361 55.5374L80.2339 56.4674L80.0596 55.1776L79.2512 55.3268L78.912 54.8354Z" fill="#F1935C"/>
<g filter="url(#filter0_i_466_21652)">
<path d="M144.431 31.6785C145.695 32.3338 146.326 33.1929 146.326 34.0518L146.326 122.342C146.326 121.484 145.694 120.625 144.431 119.97V31.6785Z" fill="#FFE4D4" fill-opacity="0.15"/>
</g>
<path d="M145.826 34.0518V34.0517C145.826 33.6038 145.573 33.0782 144.931 32.5815V119.674C145.27 119.87 145.57 120.087 145.826 120.322V34.0518Z" stroke="white"/>
<g filter="url(#filter1_i_466_21652)">
<path d="M146.326 34.0513C146.326 34.91 145.694 35.7688 144.431 36.424V124.715C145.694 124.06 146.326 123.201 146.326 122.343V34.0513Z" fill="#FFE4D4" fill-opacity="0.15"/>
</g>
<path d="M144.931 123.812C145.573 123.316 145.826 122.79 145.826 122.343V36.072C145.57 36.3064 145.27 36.5234 144.931 36.7198V123.812Z" stroke="#FFE4D4"/>
<g filter="url(#filter2_i_466_21652)">
<path d="M4.57861 45.5994C3.31543 44.9442 2.68376 44.0855 2.6836 43.2267V131.517C2.68345 132.376 3.31512 133.235 4.57861 133.891V45.5994Z" fill="#FFE4D4" fill-opacity="0.15"/>
</g>
<path d="M4.07861 45.8953C3.74001 45.6988 3.43971 45.4818 3.1836 45.2475V131.517C3.18352 131.965 3.43665 132.491 4.07861 132.988V45.8953Z" stroke="white"/>
<g filter="url(#filter3_i_466_21652)">
<path d="M144.424 36.4243L70.2265 74.9108V163.202L144.424 124.716V36.4243Z" fill="#FFE4D4" fill-opacity="0.15"/>
</g>
<path d="M143.924 124.412V37.2469L70.7265 75.2147V162.379L143.924 124.412Z" stroke="#FFE4D4"/>
<g filter="url(#filter4_i_466_21652)">
<path d="M61.0876 74.9116L4.57942 45.6006V133.892L61.0876 163.203V74.9116Z" fill="#FFE4D4" fill-opacity="0.15"/>
</g>
<path d="M60.5876 162.38V75.2155L5.07942 46.4232V133.588L60.5876 162.38Z" stroke="#FFE4D4"/>
<g filter="url(#filter5_i_466_21652)">
<path d="M70.2302 74.9116C67.7035 76.2222 63.607 76.2222 61.0803 74.9116V163.203C63.607 164.514 67.7035 164.514 70.2302 163.203V74.9116Z" fill="#FFE4D4" fill-opacity="0.15"/>
</g>
<path d="M69.7302 162.891V75.6853C68.5101 76.1632 67.0733 76.3946 65.6553 76.3946C64.2372 76.3946 62.8005 76.1632 61.5803 75.6853V162.891C62.7197 163.414 64.1758 163.686 65.6553 163.686C67.1348 163.686 68.5909 163.414 69.7302 162.891Z" stroke="#FFE4D4"/>
<g filter="url(#filter6_i_466_21652)">
<rect width="93.8926" height="73.9654" rx="5" transform="matrix(-0.887687 0.460447 0.887687 0.460447 83.3579 0)" fill="#FFE4D4" fill-opacity="0.15"/>
</g>
<rect x="2.98023e-08" y="0.460447" width="92.8926" height="72.9654" rx="4.5" transform="matrix(-0.887687 0.460447 0.887687 0.460447 82.9492 0.248436)" stroke="#FFE4D4"/>
<defs>
<filter id="filter0_i_466_21652" x="144.431" y="31.6785" width="1.89502" height="90.6647" filterUnits="userSpaceOnUse" color-interpolation-filters="sRGB">
<feFlood flood-opacity="0" result="BackgroundImageFix"/>
<feBlend mode="normal" in="SourceGraphic" in2="BackgroundImageFix" result="shape"/>
<feColorMatrix in="SourceAlpha" type="matrix" values="0 0 0 0 0 0 0 0 0 0 0 0 0 0 0 0 0 0 127 0" result="hardAlpha"/>
<feOffset/>
<feGaussianBlur stdDeviation="9.0843"/>
<feComposite in2="hardAlpha" operator="arithmetic" k2="-1" k3="1"/>
<feColorMatrix type="matrix" values="0 0 0 0 1 0 0 0 0 1 0 0 0 0 1 0 0 0 1 0"/>
<feBlend mode="normal" in2="shape" result="effect1_innerShadow_466_21652"/>
</filter>
<filter id="filter1_i_466_21652" x="144.431" y="34.0513" width="1.89502" height="90.6641" filterUnits="userSpaceOnUse" color-interpolation-filters="sRGB">
<feFlood flood-opacity="0" result="BackgroundImageFix"/>
<feBlend mode="normal" in="SourceGraphic" in2="BackgroundImageFix" result="shape"/>
<feColorMatrix in="SourceAlpha" type="matrix" values="0 0 0 0 0 0 0 0 0 0 0 0 0 0 0 0 0 0 127 0" result="hardAlpha"/>
<feOffset/>
<feGaussianBlur stdDeviation="9.0843"/>
<feComposite in2="hardAlpha" operator="arithmetic" k2="-1" k3="1"/>
<feColorMatrix type="matrix" values="0 0 0 0 1 0 0 0 0 1 0 0 0 0 1 0 0 0 1 0"/>
<feBlend mode="normal" in2="shape" result="effect1_innerShadow_466_21652"/>
</filter>
<filter id="filter2_i_466_21652" x="2.68359" y="43.2261" width="1.89502" height="90.6647" filterUnits="userSpaceOnUse" color-interpolation-filters="sRGB">
<feFlood flood-opacity="0" result="BackgroundImageFix"/>
<feBlend mode="normal" in="SourceGraphic" in2="BackgroundImageFix" result="shape"/>
<feColorMatrix in="SourceAlpha" type="matrix" values="0 0 0 0 0 0 0 0 0 0 0 0 0 0 0 0 0 0 127 0" result="hardAlpha"/>
<feOffset/>
<feGaussianBlur stdDeviation="9.0843"/>
<feComposite in2="hardAlpha" operator="arithmetic" k2="-1" k3="1"/>
<feColorMatrix type="matrix" values="0 0 0 0 1 0 0 0 0 1 0 0 0 0 1 0 0 0 1 0"/>
<feBlend mode="normal" in2="shape" result="effect1_innerShadow_466_21652"/>
</filter>
<filter id="filter3_i_466_21652" x="70.2266" y="36.4243" width="74.1973" height="126.778" filterUnits="userSpaceOnUse" color-interpolation-filters="sRGB">
<feFlood flood-opacity="0" result="BackgroundImageFix"/>
<feBlend mode="normal" in="SourceGraphic" in2="BackgroundImageFix" result="shape"/>
<feColorMatrix in="SourceAlpha" type="matrix" values="0 0 0 0 0 0 0 0 0 0 0 0 0 0 0 0 0 0 127 0" result="hardAlpha"/>
<feOffset/>
<feGaussianBlur stdDeviation="9.0843"/>
<feComposite in2="hardAlpha" operator="arithmetic" k2="-1" k3="1"/>
<feColorMatrix type="matrix" values="0 0 0 0 1 0 0 0 0 1 0 0 0 0 1 0 0 0 1 0"/>
<feBlend mode="normal" in2="shape" result="effect1_innerShadow_466_21652"/>
</filter>
<filter id="filter4_i_466_21652" x="4.57935" y="45.6006" width="56.5083" height="117.602" filterUnits="userSpaceOnUse" color-interpolation-filters="sRGB">
<feFlood flood-opacity="0" result="BackgroundImageFix"/>
<feBlend mode="normal" in="SourceGraphic" in2="BackgroundImageFix" result="shape"/>
<feColorMatrix in="SourceAlpha" type="matrix" values="0 0 0 0 0 0 0 0 0 0 0 0 0 0 0 0 0 0 127 0" result="hardAlpha"/>
<feOffset/>
<feGaussianBlur stdDeviation="9.0843"/>
<feComposite in2="hardAlpha" operator="arithmetic" k2="-1" k3="1"/>
<feColorMatrix type="matrix" values="0 0 0 0 1 0 0 0 0 1 0 0 0 0 1 0 0 0 1 0"/>
<feBlend mode="normal" in2="shape" result="effect1_innerShadow_466_21652"/>
</filter>
<filter id="filter5_i_466_21652" x="61.0803" y="74.9116" width="9.1499" height="89.2743" filterUnits="userSpaceOnUse" color-interpolation-filters="sRGB">
<feFlood flood-opacity="0" result="BackgroundImageFix"/>
<feBlend mode="normal" in="SourceGraphic" in2="BackgroundImageFix" result="shape"/>
<feColorMatrix in="SourceAlpha" type="matrix" values="0 0 0 0 0 0 0 0 0 0 0 0 0 0 0 0 0 0 127 0" result="hardAlpha"/>
<feOffset/>
<feGaussianBlur stdDeviation="9.0843"/>
<feComposite in2="hardAlpha" operator="arithmetic" k2="-1" k3="1"/>
<feColorMatrix type="matrix" values="0 0 0 0 1 0 0 0 0 1 0 0 0 0 1 0 0 0 1 0"/>
<feBlend mode="normal" in2="shape" result="effect1_innerShadow_466_21652"/>
</filter>
<filter id="filter6_i_466_21652" x="2.6106" y="1.34863" width="143.805" height="74.5924" filterUnits="userSpaceOnUse" color-interpolation-filters="sRGB">
<feFlood flood-opacity="0" result="BackgroundImageFix"/>
<feBlend mode="normal" in="SourceGraphic" in2="BackgroundImageFix" result="shape"/>
<feColorMatrix in="SourceAlpha" type="matrix" values="0 0 0 0 0 0 0 0 0 0 0 0 0 0 0 0 0 0 127 0" result="hardAlpha"/>
<feOffset/>
<feGaussianBlur stdDeviation="9.0843"/>
<feComposite in2="hardAlpha" operator="arithmetic" k2="-1" k3="1"/>
<feColorMatrix type="matrix" values="0 0 0 0 1 0 0 0 0 1 0 0 0 0 1 0 0 0 1 0"/>
<feBlend mode="normal" in2="shape" result="effect1_innerShadow_466_21652"/>
</filter>
<linearGradient id="paint0_linear_466_21652" x1="71.7217" y1="2.79969" x2="71.7217" y2="125.764" gradientUnits="userSpaceOnUse">
<stop offset="0.36769" stop-color="white" stop-opacity="0"/>
<stop offset="0.64517" stop-color="#F1935C" stop-opacity="0.3"/>
<stop offset="1" stop-color="#F1935C" stop-opacity="0"/>
</linearGradient>
<linearGradient id="paint1_linear_466_21652" x1="79.4094" y1="81.0886" x2="79.4094" y2="103.127" gradientUnits="userSpaceOnUse">
<stop stop-color="#4D94A0"/>
<stop offset="1" stop-color="#34656D"/>
</linearGradient>
<linearGradient id="paint2_linear_466_21652" x1="104.59" y1="44.3708" x2="104.59" y2="55.3898" gradientUnits="userSpaceOnUse">
<stop stop-color="#B2D7FF"/>
<stop offset="1" stop-color="#A1C1FF"/>
</linearGradient>
<linearGradient id="paint3_linear_466_21652" x1="96.1363" y1="64.1941" x2="96.1363" y2="75.2131" gradientUnits="userSpaceOnUse">
<stop stop-color="#F1935C"/>
<stop offset="1" stop-color="#DA6420"/>
</linearGradient>
<linearGradient id="paint4_linear_466_21652" x1="49.6325" y1="43.6277" x2="49.6325" y2="76.6844" gradientUnits="userSpaceOnUse">
<stop stop-color="#F1935C"/>
<stop offset="1" stop-color="#DA6420"/>
</linearGradient>
<linearGradient id="paint5_linear_466_21652" x1="77.5932" y1="55.7554" x2="77.5932" y2="61.2649" gradientUnits="userSpaceOnUse">
<stop stop-color="#367E89"/>
<stop offset="1" stop-color="#28565D"/>
</linearGradient>
</defs>
</svg>
