<svg width="208" height="242" viewBox="0 0 208 242" fill="none" xmlns="http://www.w3.org/2000/svg">
<path d="M122.451 136.165C118.931 134.288 113.225 134.288 109.705 136.165L6.35341 191.275C4.59389 192.214 3.71402 193.443 3.71379 194.673C3.71358 195.903 4.59344 197.133 6.35341 198.072L85.0657 240.043C88.5852 241.92 94.2914 241.92 97.8109 240.043L201.163 184.933C202.922 183.995 203.802 182.765 203.802 181.535C203.803 180.305 202.923 179.075 201.163 178.137L122.451 136.165Z" fill="#D4E4FE"/>
<path d="M122.454 128.316C118.934 126.439 113.228 126.439 109.709 128.316V136.168C113.228 134.292 118.934 134.292 122.454 136.168V128.316Z" fill="#D4E4FE"/>
<path d="M122.445 128.314L201.157 170.286V178.139L122.445 136.167V128.314Z" fill="#D4E4FE"/>
<path d="M6.35703 183.425L109.709 128.314V136.167L6.35703 191.277V183.425Z" fill="#D4E4FE"/>
<path d="M201.163 170.291C202.923 171.229 203.803 172.459 203.802 173.689L203.802 181.541C203.802 180.312 202.922 179.082 201.163 178.144V170.291Z" fill="#D4E4FE"/>
<path d="M203.802 173.686C203.802 174.916 202.922 176.146 201.163 177.084V184.936C202.922 183.998 203.802 182.769 203.802 181.539V173.686Z" fill="#A1C1FF"/>
<path d="M3.71731 186.826C3.71753 185.596 4.5974 184.367 6.35693 183.428V191.281C4.5974 192.219 3.71753 193.449 3.71731 194.679V186.826Z" fill="#D4E4FE"/>
<path d="M6.35693 190.22C4.5974 189.281 3.71753 188.052 3.71731 186.822V194.674C3.71709 195.904 4.59697 197.134 6.35693 198.072V190.22Z" fill="#A1C1FF"/>
<path d="M201.157 177.086L97.8053 232.197V240.05L201.157 184.939V177.086Z" fill="#A1C1FF"/>
<path d="M85.0708 232.196L6.35854 190.224V198.077L85.0708 240.048V232.196Z" fill="#A1C1FF"/>
<path d="M97.8054 232.196C94.2859 234.072 88.5797 234.072 85.0602 232.196V240.048C88.5797 241.925 94.2859 241.925 97.8054 240.048V232.196Z" fill="#A1C1FF"/>
<rect width="131.571" height="103.647" rx="7.86205" transform="matrix(-0.882391 0.470517 0.882391 0.470517 116.097 124.706)" fill="#DEEFFF"/>
<path d="M122.466 118.895C118.946 117.018 113.24 117.018 109.721 118.895L6.36855 174.005C4.60902 174.944 3.72916 176.173 3.72893 177.403C3.72871 178.633 4.60858 179.863 6.36855 180.801L85.0808 222.773C88.6003 224.65 94.3065 224.65 97.826 222.773L201.178 167.663C202.938 166.725 203.817 165.495 203.818 164.265C203.818 163.035 202.938 161.805 201.178 160.867L122.466 118.895Z" fill="#D4E4FE"/>
<path d="M122.469 111.045C118.949 109.169 113.243 109.169 109.724 111.045V118.898C113.243 117.021 118.949 117.021 122.469 118.898V111.045Z" fill="#D4E4FE"/>
<path d="M122.455 111.044L201.167 153.016V160.869L122.455 118.897V111.044Z" fill="#D4E4FE"/>
<path d="M6.36215 166.155L109.714 111.044V118.897L6.36215 174.007V166.155Z" fill="#D4E4FE"/>
<path d="M201.178 153.018C202.938 153.957 203.818 155.187 203.818 156.417L203.818 164.269C203.817 163.039 202.938 161.809 201.178 160.871V153.018Z" fill="#D4E4FE"/>
<path d="M203.818 156.416C203.817 157.646 202.938 158.876 201.178 159.814V167.666C202.938 166.728 203.817 165.499 203.818 164.269V156.416Z" fill="#A1C1FF"/>
<path d="M3.73244 169.553C3.73266 168.324 4.61254 167.094 6.37207 166.156V174.009C4.61254 174.947 3.73266 176.176 3.73244 177.406V169.553Z" fill="#D4E4FE"/>
<path d="M6.37207 172.95C4.61254 172.011 3.73266 170.782 3.73244 169.552V177.404C3.73223 178.634 4.6121 179.864 6.37207 180.802V172.95Z" fill="#A1C1FF"/>
<path d="M201.167 159.816L97.8155 214.927V222.779L201.167 167.669V159.816Z" fill="#A1C1FF"/>
<path d="M85.0859 214.921L6.37368 172.949V180.802L85.0859 222.773V214.921Z" fill="#A1C1FF"/>
<path d="M97.8206 214.926C94.3011 216.802 88.5948 216.802 85.0753 214.926V222.778C88.5948 224.655 94.3011 224.655 97.8206 222.778V214.926Z" fill="#A1C1FF"/>
<rect width="131.571" height="103.647" rx="7.86205" transform="matrix(-0.882391 0.470517 0.882391 0.470517 116.097 107.649)" fill="#DEEFFF"/>
<path opacity="0.8" d="M98.1 159.58V200.58C98.1 201.28 97.8 201.78 97.4 201.98C97.1 202.18 96.7 202.18 96.3 201.88L41.9 170.48C40.9 169.98 40 168.38 40 167.08V125.98C40 125.28 40.3 124.78 40.7 124.58L40.8 124.48C41.1333 124.347 41.5 124.413 41.9 124.68L42.2 124.88L96.3 156.08C97.3 156.68 98.1 158.18 98.1 159.58Z" fill="#93BDF7"/>
<path d="M99.0998 159.08V200.08C99.0998 200.88 98.7998 201.48 98.3998 201.58V201.68L97.3998 201.98C97.7998 201.78 98.0998 201.28 98.0998 200.58V159.58C98.0998 158.18 97.2998 156.68 96.2998 156.08L42.1998 124.88L41.8998 124.68C41.4998 124.413 41.1331 124.347 40.7998 124.48L41.7998 124.08C42.1331 123.947 42.4998 123.98 42.8998 124.18L97.2998 155.68C98.2998 156.18 99.0998 157.78 99.0998 159.08Z" fill="url(#paint0_linear_214_6334)"/>
<path d="M64.1998 143.98C64.0665 143.98 63.9331 143.947 63.7998 143.88L44.1998 132.58C43.7998 132.28 43.5998 131.78 43.8998 131.38C44.0998 130.98 44.5998 130.88 45.0998 131.08L64.5998 142.38C64.9998 142.58 65.1998 143.18 64.8998 143.58C64.7998 143.78 64.4998 143.98 64.1998 143.98Z" fill="white"/>
<path d="M64.2 146.78C64.0667 146.78 63.9333 146.713 63.8 146.58L59.4 144.08C59 143.88 58.8 143.28 59.1 142.88C59.3 142.48 59.8 142.38 60.2 142.58L64.6 145.08C65 145.38 65.2 145.88 64.9 146.28C64.8 146.58 64.5 146.78 64.2 146.78Z" fill="white"/>
<path d="M56.5998 142.38C56.4664 142.38 56.3331 142.347 56.1998 142.28L44.1998 135.28C43.7998 135.08 43.5998 134.58 43.8998 134.18C44.0998 133.68 44.5998 133.58 45.0998 133.78L57.0998 140.78C57.4998 140.98 57.5998 141.48 57.3998 141.98C57.1998 142.18 56.8998 142.38 56.5998 142.38Z" fill="white"/>
<path d="M73.7002 169.08C73.7002 174.98 70.1002 177.68 65.7002 175.18V170.38C68.1002 171.78 70.1002 170.28 70.1002 167.08C70.1002 165.58 69.7002 164.08 69.1002 162.78L71.9002 161.38C73.0002 163.78 73.7002 166.58 73.7002 169.08Z" fill="#074E58"/>
<path d="M71.9003 161.38L69.1003 162.78C68.3003 160.98 67.1003 159.48 65.7003 158.68C63.9003 157.58 62.3003 158.18 61.6003 159.88C60.4003 158.48 59.2003 157.08 58.3003 156.18C59.5003 152.98 62.3003 151.88 65.7003 153.88C68.2003 155.28 70.4003 158.08 71.9003 161.38Z" fill="#265DCB"/>
<path d="M65.7002 170.38V175.18C61.3002 172.58 57.7002 165.78 57.7002 159.88C57.7002 158.48 57.9002 157.247 58.3002 156.18C59.2002 157.08 60.4002 158.48 61.6002 159.88C61.4002 160.48 61.3002 161.18 61.3002 161.98C61.3002 165.18 63.3002 168.98 65.7002 170.38Z" fill="#DA6420"/>
<path d="M92.4002 163.48C92.3336 163.48 92.3002 163.48 92.3002 163.48L76.1002 154.18L69.4002 159.18C69.4002 159.28 69.2002 159.28 69.2002 159.18C69.1002 159.08 69.2002 158.98 69.2002 158.98L76.0002 153.78C76.0669 153.78 76.1335 153.78 76.2002 153.78L92.5002 163.18C92.5002 163.28 92.6002 163.38 92.5002 163.38C92.5002 163.447 92.4669 163.48 92.4002 163.48Z" fill="white"/>
<path d="M56.0001 163.38C56.0001 163.38 56.0001 163.347 56.0001 163.28L43.8001 156.28C43.7001 156.18 43.6001 156.08 43.7001 156.08C43.7001 155.98 43.8001 155.98 43.9001 155.98L56.0001 162.98L59.4001 160.38C59.5001 160.38 59.6001 160.38 59.6001 160.48C59.7001 160.48 59.7001 160.58 59.6001 160.68L56.1001 163.28C56.1001 163.347 56.0668 163.38 56.0001 163.38Z" fill="white"/>
<path d="M81.9002 187.98C81.9002 187.98 81.8668 187.947 81.8002 187.88L71.0002 181.68C70.9335 181.613 70.9002 181.58 70.9002 181.58L66.9002 173.88C66.8002 173.78 66.8002 173.68 66.9002 173.68C67.0002 173.58 67.1001 173.68 67.1001 173.68L71.2002 181.38L82.0002 187.68C82.1002 187.68 82.1001 187.78 82.1001 187.88C82.0335 187.947 81.9669 187.98 81.9002 187.98Z" fill="white"/>
<path d="M79.8 185.78C79.7334 185.78 79.7 185.747 79.7 185.68L72.7 181.68C72.6 181.58 72.5 181.48 72.6 181.38C72.7 181.28 72.8001 181.18 72.9001 181.28L79.9001 185.28C80.0001 185.38 80.1 185.48 80 185.68C79.9334 185.747 79.8667 185.78 79.8 185.78Z" fill="white"/>
<path d="M79.8 184.68C79.7334 184.68 79.7 184.647 79.7 184.58L72.7 180.58C72.6 180.48 72.5 180.38 72.6 180.28C72.7 180.18 72.8001 180.08 72.9001 180.18L79.9001 184.18C80.0001 184.28 80.1 184.38 80 184.48C79.9334 184.613 79.8667 184.68 79.8 184.68Z" fill="white"/>
<path d="M79.8 183.58C79.7334 183.58 79.7 183.58 79.7 183.58L72.7 179.58C72.6 179.48 72.5 179.38 72.6 179.18C72.7 179.08 72.8001 179.08 72.9001 179.18L79.9001 183.18C80.0001 183.18 80.1 183.38 80 183.48C79.9334 183.547 79.8667 183.58 79.8 183.58Z" fill="white"/>
<path d="M79.8 182.48C79.7334 182.48 79.7 182.48 79.7 182.48L72.7 178.48C72.6 178.38 72.5 178.18 72.6 178.08C72.7 177.98 72.8001 177.98 72.9001 177.98L79.9001 182.08C80.0001 182.08 80.1 182.28 80 182.38C79.9334 182.447 79.8667 182.48 79.8 182.48Z" fill="white"/>
<path d="M55.1 161.48C55.0333 161.48 54.9667 161.48 54.9 161.48L46.1 156.38C46 156.28 46 156.18 46 155.98C46.1 155.88 46.2 155.88 46.4 155.88L55.2 160.98C55.3 161.08 55.3 161.28 55.3 161.38C55.2333 161.447 55.1666 161.48 55.1 161.48Z" fill="white"/>
<path d="M55.1 160.38C55.0333 160.38 54.9667 160.38 54.9 160.38L46.1 155.28C46 155.18 46 154.98 46 154.88C46.1 154.78 46.2 154.78 46.4 154.78L55.2 159.88C55.3 159.98 55.3 160.18 55.3 160.28C55.2333 160.347 55.1666 160.38 55.1 160.38Z" fill="white"/>
<path d="M55.1 159.38C55.0333 159.38 54.9667 159.347 54.9 159.28L46.1 154.18C46 154.18 46 153.98 46 153.88C46.1 153.78 46.2 153.68 46.4 153.78L55.2 158.88C55.3 158.98 55.3 159.08 55.3 159.18C55.2333 159.313 55.1666 159.38 55.1 159.38Z" fill="white"/>
<path d="M55.1 158.28C55.0333 158.28 54.9667 158.247 54.9 158.18L46.1 153.08C46 153.08 46 152.88 46 152.78C46.1 152.68 46.2 152.58 46.4 152.68L55.2 157.78C55.3 157.88 55.3 157.98 55.3 158.08C55.2333 158.213 55.1666 158.28 55.1 158.28Z" fill="white"/>
<path d="M90.4999 161.48C90.4999 161.48 90.4666 161.48 90.4 161.48L78.0999 154.38C77.9999 154.28 77.9999 154.18 78.0999 154.08C78.0999 153.88 78.3 153.88 78.4 153.98L90.6999 161.08C90.7999 161.08 90.7999 161.28 90.7999 161.38C90.7332 161.447 90.6333 161.48 90.4999 161.48Z" fill="white"/>
<path d="M90.4999 160.38C90.4999 160.38 90.4666 160.38 90.4 160.38L78.0999 153.28C77.9999 153.18 77.9999 153.08 78.0999 152.98C78.0999 152.78 78.3 152.78 78.4 152.88L90.6999 159.88C90.7999 159.98 90.7999 160.18 90.7999 160.28C90.7332 160.347 90.6333 160.38 90.4999 160.38Z" fill="white"/>
<path d="M90.4999 159.38C90.4999 159.38 90.4666 159.38 90.4 159.38L78.0999 152.28C77.9999 152.18 77.9999 151.98 78.0999 151.88C78.0999 151.78 78.3 151.78 78.4 151.78L90.6999 158.88C90.7999 158.98 90.7999 159.08 90.7999 159.28C90.7332 159.347 90.6333 159.38 90.4999 159.38Z" fill="white"/>
<path d="M90.4999 158.28C90.4999 158.28 90.4666 158.247 90.4 158.18L78.0999 151.08C77.9999 151.08 77.9999 150.88 78.0999 150.78C78.0999 150.68 78.3 150.68 78.4 150.68L90.6999 157.78C90.7999 157.88 90.7999 157.98 90.7999 158.08C90.7332 158.213 90.6333 158.28 90.4999 158.28Z" fill="white"/>
<path d="M120.063 124.756L123.407 54.563L187.682 92.323V160.386L181.586 164.322L120.063 124.756Z" fill="url(#paint1_linear_214_6334)"/>
<path d="M117.311 126.532V58.4691L181.585 96.2292V164.322L117.311 126.532Z" fill="url(#paint2_linear_214_6334)"/>
<path d="M120.477 63.9734V124.727L178.449 158.817V155.651L123.525 123.366V65.7489L120.477 63.9734Z" fill="#5454AE"/>
<path d="M123.525 65.7488V123.365L178.449 155.651V98.0343L123.525 65.7488Z" fill="url(#paint3_linear_214_6334)"/>
<path d="M123.407 54.5629L117.311 58.4691L181.585 96.2291L187.682 92.3229L123.407 54.5629Z" fill="url(#paint4_linear_214_6334)"/>
<path d="M123.525 123.366L120.477 124.727L178.449 158.817V155.651L123.525 123.366Z" fill="url(#paint5_linear_214_6334)"/>
<path d="M174.75 103.805L174.691 142.038L125.36 170.388L125.419 132.184L174.75 103.805Z" fill="url(#paint6_linear_214_6334)"/>
<path d="M125.42 132.184L125.36 170.388L76 141.713L76.0592 103.479L125.42 132.184Z" fill="url(#paint7_linear_214_6334)"/>
<path d="M174.751 103.805L125.42 132.184L76.0596 103.479L125.39 75.1296L174.751 103.805Z" fill="url(#paint8_linear_214_6334)"/>
<path d="M79.7583 103.509L102.574 116.766L125.36 103.657L148.206 116.944L171.022 103.805L125.36 77.2603L79.7583 103.509Z" fill="url(#paint9_linear_214_6334)"/>
<path d="M102.574 116.766L125.419 130.024L148.206 116.944L125.36 103.657L102.574 116.766Z" fill="#5454AE"/>
<path d="M125.36 77.2603V103.657L148.206 116.944L171.021 103.805L125.36 77.2603Z" fill="url(#paint10_linear_214_6334)"/>
<path d="M109.676 138.458L109.647 146.596L107.368 147.898L107.397 139.76L109.676 138.458Z" fill="#5454AE"/>
<path d="M107.397 139.76L107.368 147.898L85.6174 135.41L85.647 127.301L107.397 139.76Z" fill="#9A9ADB"/>
<path d="M109.676 138.458L107.398 139.76L85.6472 127.301L87.9258 125.999L109.676 138.458Z" fill="#B1B1E5"/>
<path d="M116.808 97.6792V25L162.854 52.0772V124.727L160.871 125.999L116.808 97.6792Z" fill="#7C7CD6"/>
<path d="M114.855 98.9221V26.2725L160.871 53.32V125.999L114.855 98.9221Z" fill="#EEEEFF"/>
<path d="M158.682 122.152V54.5926L117.045 30.09V97.6793L158.682 122.152Z" fill="white"/>
<path d="M119.619 42.0453L156.107 63.4703V64.802L119.619 43.377V42.0453Z" fill="#EEEEFF"/>
<path d="M119.619 87.5291L156.107 108.984V110.315L119.619 88.8607V87.5291Z" fill="#EEEEFF"/>
<path d="M138.381 76.4023V59.1498L119.797 48.2598V65.4826L138.381 76.4023Z" fill="#F9BB41"/>
<path d="M154.065 70.9572L142.494 64.0917C142.05 63.8254 141.695 63.2631 141.695 62.8193C141.695 62.405 142.05 62.257 142.494 62.5233L154.065 69.3888C154.479 69.6255 154.834 70.1878 154.834 70.6317C154.834 71.0756 154.479 71.1939 154.065 70.9572Z" fill="#F9BB41"/>
<path d="M154.065 74.9228L142.495 68.0574C142.051 67.791 141.696 67.2288 141.696 66.7849C141.696 66.3706 142.051 66.2226 142.495 66.4594L154.065 73.3544C154.479 73.5912 154.835 74.1534 154.835 74.5973C154.835 75.0412 154.479 75.1596 154.065 74.9228Z" fill="#C6C6ED"/>
<path d="M154.065 78.8881L142.495 72.0226C142.051 71.7563 141.696 71.194 141.696 70.7501C141.696 70.3358 142.051 70.1879 142.495 70.4246L154.065 77.3197C154.479 77.5564 154.835 78.1187 154.835 78.5626C154.835 78.9769 154.479 79.1248 154.065 78.8881Z" fill="#C6C6ED"/>
<path d="M154.065 82.8535L142.495 75.9881C142.051 75.7217 141.696 75.1595 141.696 74.7156C141.696 74.3013 142.051 74.1533 142.495 74.3901L154.065 81.2851C154.479 81.5219 154.835 82.0841 154.835 82.528C154.835 82.9423 154.479 83.0903 154.065 82.8535Z" fill="#C6C6ED"/>
<path d="M132.137 80.486L120.596 73.6206C120.152 73.3838 119.797 72.8216 119.797 72.3777C119.797 71.9338 120.152 71.8154 120.596 72.0522L132.137 78.9176C132.581 79.184 132.936 79.7462 132.936 80.1901C132.936 80.6044 132.581 80.7524 132.137 80.486Z" fill="#F9BB41"/>
<path d="M132.137 84.4516L120.596 77.5861C120.152 77.3493 119.797 76.7871 119.797 76.3432C119.797 75.8993 120.152 75.7809 120.596 76.0177L132.137 82.8831C132.581 83.1495 132.936 83.7117 132.936 84.1556C132.936 84.5699 132.581 84.7179 132.137 84.4516Z" fill="#C6C6ED"/>
<path d="M132.137 88.4169L120.596 81.5514C120.152 81.3147 119.797 80.7525 119.797 80.3086C119.797 79.8647 120.152 79.7167 120.596 79.983L132.137 86.8485C132.581 87.1148 132.936 87.6771 132.936 88.121C132.936 88.5353 132.581 88.6832 132.137 88.4169Z" fill="#C6C6ED"/>
<path d="M132.137 92.3822L120.596 85.5167C120.152 85.28 119.797 84.6881 119.797 84.2738C119.797 83.8299 120.152 83.682 120.596 83.9483L132.137 90.8138C132.581 91.0801 132.936 91.6424 132.936 92.0863C132.936 92.5006 132.581 92.6485 132.137 92.3822Z" fill="#C6C6ED"/>
<path d="M152.171 92.3821L140.6 85.5167C140.186 85.2799 139.831 84.6881 139.831 84.2738C139.831 83.8299 140.186 83.6819 140.6 83.9483L152.171 90.8137C152.585 91.0801 152.941 91.6423 152.941 92.0862C152.941 92.5005 152.585 92.6485 152.171 92.3821Z" fill="#F9BB41"/>
<path d="M152.171 96.3475L140.601 89.4821C140.186 89.2453 139.831 88.6535 139.831 88.2392C139.831 87.7953 140.186 87.6473 140.601 87.9136L152.171 94.7791C152.586 95.0454 152.941 95.6077 152.941 96.022C152.941 96.4659 152.586 96.6138 152.171 96.3475Z" fill="#C6C6ED"/>
<path d="M152.171 100.313L140.601 93.4476C140.186 93.1812 139.831 92.619 139.831 92.2047C139.831 91.7608 140.186 91.6128 140.601 91.8792L152.171 98.7446C152.586 99.011 152.941 99.5732 152.941 99.9875C152.941 100.431 152.586 100.579 152.171 100.313Z" fill="#C6C6ED"/>
<path d="M152.171 104.278L140.601 97.4128C140.186 97.1465 139.831 96.5842 139.831 96.1699C139.831 95.7261 140.186 95.5781 140.601 95.8444L152.171 102.71C152.586 102.976 152.941 103.538 152.941 103.953C152.941 104.397 152.586 104.545 152.171 104.278Z" fill="#C6C6ED"/>
<path d="M141.429 107.208L129.888 100.343C129.444 100.106 129.089 99.5437 129.089 99.0998C129.089 98.6559 129.444 98.508 129.888 98.7743L141.429 105.64C141.873 105.906 142.228 106.468 142.228 106.912C142.228 107.327 141.873 107.475 141.429 107.208Z" fill="#C6C6ED"/>
<path d="M147.91 55.5691L127.816 43.6433C127.076 43.1994 126.455 42.2229 126.455 41.483C126.455 40.7136 127.076 40.4769 127.816 40.9208L147.91 52.8466C148.649 53.2905 149.271 54.267 149.271 55.0068C149.271 55.7762 148.649 56.013 147.91 55.5691Z" fill="#F9BB41"/>
<path d="M116.808 25L114.855 26.2725L160.871 53.3201L162.854 52.0772L116.808 25Z" fill="#B1B1E5"/>
<path d="M103.314 109.812V37.1331L149.36 64.2102V136.86L147.407 138.132L103.314 109.812Z" fill="#7C7CD6"/>
<path d="M101.361 111.055V38.4055L147.407 65.4531V138.132L101.361 111.055Z" fill="#EEEEFF"/>
<path d="M145.217 134.285V66.7254L103.551 42.2228V109.812L145.217 134.285Z" fill="white"/>
<path d="M106.155 54.1784L142.613 75.6034V76.9351L106.155 55.4805V54.1784Z" fill="#EEEEFF"/>
<path d="M106.155 99.662L142.613 121.117V122.448L106.155 100.994V99.662Z" fill="#EEEEFF"/>
<path d="M124.887 88.5353V71.2829L106.332 60.3928V77.6157L124.887 88.5353Z" fill="#F9BB41"/>
<path d="M140.571 83.0903L129.03 76.2248C128.586 75.9585 128.231 75.3962 128.231 74.9524C128.231 74.5381 128.586 74.3901 129.03 74.6268L140.571 81.5219C141.015 81.7586 141.37 82.3209 141.37 82.7648C141.37 83.2087 141.015 83.327 140.571 83.0903Z" fill="#F07554"/>
<path d="M140.571 87.0555L129.03 80.19C128.586 79.9237 128.231 79.3615 128.231 78.9176C128.231 78.5033 128.586 78.3553 129.03 78.592L140.571 85.4871C141.015 85.7239 141.37 86.2861 141.37 86.73C141.37 87.1443 141.015 87.2923 140.571 87.0555Z" fill="#C6C6ED"/>
<path d="M140.571 91.021L129.03 84.1259C128.586 83.8892 128.231 83.3269 128.231 82.883C128.231 82.4687 128.586 82.3208 129.03 82.5575L140.571 89.423C141.015 89.6893 141.37 90.2516 141.37 90.6954C141.37 91.1097 141.015 91.2577 140.571 91.021Z" fill="#C6C6ED"/>
<path d="M140.571 94.9865L129.03 88.0914C128.586 87.8547 128.231 87.2924 128.231 86.8485C128.231 86.4342 128.586 86.2863 129.03 86.523L140.571 93.3885C141.015 93.6548 141.37 94.2171 141.37 94.661C141.37 95.0753 141.015 95.2232 140.571 94.9865Z" fill="#C6C6ED"/>
<path d="M118.672 92.619L107.102 85.7535C106.687 85.5168 106.332 84.9545 106.332 84.5106C106.332 84.0668 106.687 83.9188 107.102 84.1851L118.672 91.0506C119.116 91.3169 119.471 91.8792 119.471 92.3231C119.471 92.7374 119.116 92.8853 118.672 92.619Z" fill="#F9BB41"/>
<path d="M118.672 96.5843L107.102 89.7188C106.687 89.4821 106.332 88.9198 106.332 88.4759C106.332 88.032 106.687 87.8841 107.102 88.1504L118.672 95.0159C119.116 95.2822 119.471 95.8445 119.471 96.2883C119.471 96.7026 119.116 96.8506 118.672 96.5843Z" fill="#C6C6ED"/>
<path d="M118.672 100.55L107.102 93.6843C106.687 93.4475 106.332 92.8557 106.332 92.4414C106.332 91.9975 106.687 91.8495 107.102 92.1159L118.672 98.9813C119.116 99.2477 119.471 99.8099 119.471 100.254C119.471 100.668 119.116 100.816 118.672 100.55Z" fill="#C6C6ED"/>
<path d="M118.672 104.515L107.102 97.6497C106.687 97.3834 106.332 96.8211 106.332 96.4068C106.332 95.9629 106.687 95.815 107.102 96.0813L118.672 102.947C119.116 103.213 119.471 103.775 119.471 104.19C119.471 104.634 119.116 104.782 118.672 104.515Z" fill="#C6C6ED"/>
<path d="M138.677 104.515L127.136 97.6497C126.692 97.3834 126.337 96.8211 126.337 96.4068C126.337 95.9629 126.692 95.815 127.136 96.0813L138.677 102.947C139.121 103.213 139.476 103.775 139.476 104.19C139.476 104.634 139.121 104.782 138.677 104.515Z" fill="#F9BB41"/>
<path d="M138.677 108.481L127.136 101.615C126.692 101.349 126.337 100.787 126.337 100.372C126.337 99.9283 126.692 99.7804 127.136 100.047L138.677 106.912C139.121 107.179 139.476 107.741 139.476 108.155C139.476 108.599 139.121 108.747 138.677 108.481Z" fill="#C6C6ED"/>
<path d="M138.677 112.446L127.136 105.58C126.692 105.314 126.337 104.752 126.337 104.338C126.337 103.894 126.692 103.746 127.136 104.012L138.677 110.878C139.121 111.144 139.476 111.706 139.476 112.12C139.476 112.564 139.121 112.712 138.677 112.446Z" fill="#C6C6ED"/>
<path d="M138.677 116.411L127.136 109.546C126.692 109.28 126.337 108.717 126.337 108.303C126.337 107.859 126.692 107.711 127.136 107.977L138.677 114.843C139.121 115.109 139.476 115.672 139.476 116.086C139.476 116.53 139.121 116.678 138.677 116.411Z" fill="#C6C6ED"/>
<path d="M127.965 119.341L116.394 112.476C115.98 112.239 115.625 111.647 115.625 111.233C115.625 110.789 115.98 110.641 116.394 110.907L127.965 117.773C128.379 118.039 128.734 118.601 128.734 119.016C128.734 119.459 128.379 119.607 127.965 119.341Z" fill="#C6C6ED"/>
<path d="M103.314 37.1331L101.361 38.4055L147.407 65.4531L149.36 64.2102L103.314 37.1331Z" fill="#B1B1E5"/>
<path d="M145.217 66.7254L103.551 42.2228V50.3312L145.217 74.8338V66.7254Z" fill="#F07554"/>
<path d="M89.8489 139.109V66.4294L135.895 93.5066V166.156L133.912 167.429L89.8489 139.109Z" fill="#7C7CD6"/>
<path d="M87.896 140.352V67.7019L133.912 94.7495V167.429L87.896 140.352Z" fill="#EEEEFF"/>
<path d="M131.723 163.582V96.022L90.0859 71.5194V139.109L131.723 163.582Z" fill="white"/>
<path d="M92.6602 83.4748L129.148 104.9V106.231L92.6602 84.8065V83.4748Z" fill="#EEEEFF"/>
<path d="M92.6602 128.958L129.148 150.413V151.745L92.6602 130.29V128.958Z" fill="#EEEEFF"/>
<path d="M111.422 117.832V100.609L92.8379 89.6892V106.942L111.422 117.832Z" fill="#F9BB41"/>
<path d="M127.106 112.387L115.535 105.521C115.121 105.255 114.766 104.693 114.766 104.249C114.766 103.834 115.121 103.686 115.535 103.953L127.106 110.818C127.52 111.055 127.875 111.617 127.875 112.061C127.875 112.505 127.52 112.623 127.106 112.387Z" fill="#F9BB41"/>
<path d="M127.106 116.352L115.535 109.487C115.121 109.22 114.766 108.658 114.766 108.214C114.766 107.8 115.121 107.652 115.535 107.918L127.106 114.784C127.52 115.02 127.875 115.583 127.875 116.027C127.875 116.47 127.52 116.589 127.106 116.352Z" fill="#C6C6ED"/>
<path d="M127.106 120.317L115.535 113.452C115.121 113.186 114.766 112.623 114.766 112.179C114.766 111.765 115.121 111.617 115.535 111.854L127.106 118.749C127.52 118.986 127.875 119.548 127.875 119.992C127.875 120.436 127.52 120.554 127.106 120.317Z" fill="#C6C6ED"/>
<path d="M127.106 124.283L115.535 117.417C115.121 117.151 114.766 116.589 114.766 116.145C114.766 115.731 115.121 115.583 115.535 115.819L127.106 122.715C127.52 122.951 127.875 123.514 127.875 123.957C127.875 124.372 127.52 124.52 127.106 124.283Z" fill="#C6C6ED"/>
<path d="M105.208 121.915L93.6369 115.05C93.193 114.813 92.8379 114.251 92.8379 113.807C92.8379 113.363 93.193 113.245 93.6369 113.482L105.208 120.347C105.622 120.613 105.977 121.176 105.977 121.62C105.977 122.034 105.622 122.182 105.208 121.915Z" fill="#F9BB41"/>
<path d="M105.208 125.881L93.6369 119.015C93.193 118.778 92.8379 118.216 92.8379 117.772C92.8379 117.328 93.193 117.21 93.6369 117.447L105.208 124.312C105.622 124.579 105.977 125.141 105.977 125.585C105.977 125.999 105.622 126.147 105.208 125.881Z" fill="#C6C6ED"/>
<path d="M105.208 129.846L93.6369 122.981C93.193 122.744 92.8379 122.182 92.8379 121.738C92.8379 121.294 93.193 121.176 93.6369 121.412L105.208 128.278C105.622 128.544 105.977 129.106 105.977 129.55C105.977 129.965 105.622 130.112 105.208 129.846Z" fill="#C6C6ED"/>
<path d="M105.208 133.812L93.6369 126.946C93.193 126.709 92.8379 126.147 92.8379 125.703C92.8379 125.259 93.193 125.111 93.6369 125.378L105.208 132.243C105.622 132.509 105.977 133.072 105.977 133.516C105.977 133.93 105.622 134.078 105.208 133.812Z" fill="#C6C6ED"/>
<path d="M125.212 133.812L113.642 126.946C113.227 126.709 112.872 126.147 112.872 125.703C112.872 125.259 113.227 125.111 113.642 125.378L125.212 132.243C125.626 132.51 125.982 133.072 125.982 133.516C125.982 133.93 125.626 134.078 125.212 133.812Z" fill="#F9BB41"/>
<path d="M125.212 137.777L113.642 130.912C113.227 130.675 112.872 130.083 112.872 129.669C112.872 129.225 113.227 129.077 113.642 129.343L125.212 136.209C125.626 136.475 125.982 137.037 125.982 137.481C125.982 137.896 125.626 138.043 125.212 137.777Z" fill="#C6C6ED"/>
<path d="M125.212 141.743L113.642 134.877C113.227 134.64 112.872 134.049 112.872 133.634C112.872 133.19 113.227 133.042 113.642 133.309L125.212 140.174C125.626 140.441 125.982 141.003 125.982 141.417C125.982 141.861 125.626 142.009 125.212 141.743Z" fill="#C6C6ED"/>
<path d="M125.212 145.708L113.642 138.842C113.227 138.576 112.872 138.014 112.872 137.6C112.872 137.156 113.227 137.008 113.642 137.274L125.212 144.139C125.626 144.406 125.982 144.968 125.982 145.382C125.982 145.826 125.626 145.974 125.212 145.708Z" fill="#C6C6ED"/>
<path d="M114.47 148.638L102.929 141.772C102.485 141.535 102.13 140.973 102.13 140.529C102.13 140.085 102.485 139.967 102.929 140.204L114.47 147.069C114.914 147.336 115.269 147.898 115.269 148.342C115.269 148.756 114.914 148.904 114.47 148.638Z" fill="#C6C6ED"/>
<path d="M120.951 96.9985L100.857 85.0727C100.118 84.6289 99.4961 83.6523 99.4961 82.9125C99.4961 82.1431 100.118 81.9063 100.857 82.3502L120.951 94.276C121.69 94.7199 122.312 95.6965 122.312 96.4659C122.312 97.2057 121.69 97.4424 120.951 96.9985Z" fill="#F9BB41"/>
<path d="M89.8491 66.4296L87.896 67.702L133.912 94.7496L135.895 93.5067L89.8491 66.4296Z" fill="#B1B1E5"/>
<path d="M88.961 136.653C88.9215 136.692 88.8821 136.722 88.8426 136.741C88.8032 136.761 88.7637 136.791 88.7243 136.83C88.6848 136.85 88.6453 136.87 88.6059 136.889C88.5664 136.929 88.5368 136.958 88.5171 136.978C88.4973 136.998 88.4776 137.017 88.4579 137.037C88.3987 137.096 88.3494 137.156 88.3099 137.215C88.2902 137.235 88.2705 137.254 88.2508 137.274C88.2113 137.313 88.1817 137.353 88.162 137.392C88.1422 137.412 88.1324 137.442 88.1324 137.481C88.1127 137.521 88.0929 137.55 88.0732 137.57C88.0534 137.609 88.0436 137.639 88.0436 137.659C88.0239 137.698 88.014 137.738 88.014 137.777C87.9943 137.797 87.9845 137.826 87.9845 137.866C87.9845 137.905 87.9746 137.935 87.9548 137.955C87.9548 137.994 87.9548 138.034 87.9548 138.073V135.765C87.9548 135.745 87.9548 135.735 87.9548 135.735C87.9746 135.715 87.9845 135.686 87.9845 135.646C87.9845 135.607 87.9845 135.577 87.9845 135.558C87.9845 135.538 87.9845 135.528 87.9845 135.528C87.9845 135.508 87.9943 135.489 88.014 135.469C88.014 135.429 88.0239 135.39 88.0436 135.35C88.0436 135.35 88.0436 135.341 88.0436 135.321C88.0634 135.301 88.0732 135.281 88.0732 135.262C88.0929 135.222 88.1127 135.193 88.1324 135.173C88.1324 135.153 88.1324 135.143 88.1324 135.143C88.1521 135.124 88.162 135.104 88.162 135.084C88.2014 135.045 88.231 135.005 88.2508 134.966C88.2508 134.946 88.2607 134.936 88.2804 134.936C88.2804 134.916 88.2902 134.907 88.3099 134.907C88.3494 134.847 88.3987 134.788 88.4579 134.729C88.4776 134.729 88.4875 134.719 88.4875 134.699C88.4875 134.699 88.4973 134.69 88.5171 134.67C88.5565 134.65 88.5861 134.621 88.6059 134.581C88.6453 134.561 88.6848 134.542 88.7243 134.522C88.7637 134.482 88.8032 134.453 88.8426 134.433C88.8623 134.413 88.8919 134.394 88.9314 134.374C88.9511 134.374 88.961 134.364 88.961 134.344L91.0917 133.072V135.38L88.961 136.653Z" fill="#5454AE"/>
<path d="M85.2029 135.705C85.2029 136.534 85.7355 137.363 86.8305 137.984L93.3113 141.683C93.4296 141.762 93.5578 141.831 93.6959 141.89C93.7551 141.91 93.8044 141.93 93.8439 141.949C93.9425 141.989 94.0412 142.028 94.1398 142.068C94.3174 142.147 94.5048 142.216 94.7021 142.275C94.781 142.295 94.8501 142.305 94.9092 142.305C95.0276 142.344 95.1361 142.374 95.2348 142.393C95.3137 142.413 95.3926 142.433 95.4715 142.453C95.5701 142.472 95.6688 142.492 95.7674 142.512C95.8463 142.512 95.9252 142.522 96.0042 142.541C96.1028 142.541 96.2014 142.551 96.3001 142.571C96.379 142.571 96.4579 142.581 96.5368 142.601C96.6355 142.601 96.7341 142.601 96.8328 142.601C96.9117 142.601 96.9906 142.601 97.0695 142.601C97.1682 142.601 97.2668 142.601 97.3654 142.601C97.4444 142.601 97.5233 142.601 97.6022 142.601C97.7403 142.601 97.8685 142.591 97.9868 142.571C98.046 142.571 98.1052 142.571 98.1644 142.571C98.3814 142.531 98.5984 142.502 98.8154 142.482C98.8746 142.462 98.9338 142.443 98.993 142.423C99.1114 142.403 99.2199 142.383 99.3185 142.364C99.3777 142.344 99.4468 142.324 99.5257 142.305C99.6243 142.285 99.723 142.255 99.8216 142.216C99.8611 142.196 99.9104 142.186 99.9696 142.186C100.108 142.127 100.256 142.068 100.413 142.009C100.453 141.989 100.502 141.969 100.561 141.949C100.739 141.871 100.907 141.782 101.065 141.683L103.55 140.204L103.521 142.512L101.065 143.991C100.907 144.09 100.739 144.179 100.561 144.258C100.502 144.277 100.443 144.297 100.384 144.317C100.246 144.376 100.108 144.435 99.9696 144.494C99.9301 144.494 99.8906 144.504 99.8512 144.524C99.8315 144.524 99.8117 144.524 99.792 144.524C99.7131 144.563 99.6243 144.593 99.5257 144.613C99.4468 144.633 99.3777 144.652 99.3185 144.672C99.2001 144.692 99.0917 144.711 98.993 144.731C98.9338 144.751 98.8746 144.771 98.8154 144.79C98.8154 144.79 98.8056 144.79 98.7859 144.79C98.5886 144.83 98.3814 144.859 98.1644 144.879C98.1447 144.879 98.1348 144.879 98.1348 144.879C98.0756 144.879 98.0263 144.879 97.9868 144.879C97.8487 144.899 97.7206 144.909 97.6022 144.909C97.5825 144.909 97.5529 144.909 97.5134 144.909C97.4739 144.909 97.4246 144.909 97.3654 144.909C97.2668 144.909 97.1682 144.909 97.0695 144.909C97.0301 144.909 96.9906 144.909 96.9511 144.909C96.9116 144.909 96.8623 144.909 96.8031 144.909C96.7242 144.909 96.6355 144.909 96.5368 144.909C96.4974 144.909 96.4579 144.899 96.4185 144.879C96.3593 144.879 96.31 144.879 96.2705 144.879C96.1916 144.859 96.1028 144.85 96.0042 144.85C95.9647 144.85 95.9253 144.84 95.8858 144.82C95.8464 144.82 95.8069 144.82 95.7674 144.82C95.6688 144.8 95.5701 144.78 95.4715 144.761C95.432 144.761 95.3827 144.751 95.3235 144.731C95.3038 144.731 95.2742 144.721 95.2348 144.702C95.1164 144.682 95.0079 144.662 94.9092 144.642C94.8501 144.623 94.8007 144.603 94.7613 144.583C94.7416 144.583 94.7218 144.583 94.7021 144.583C94.5048 144.524 94.3075 144.455 94.1103 144.376C94.1103 144.376 94.1004 144.376 94.0806 144.376C94.0017 144.337 93.9228 144.297 93.8439 144.258C93.8044 144.238 93.7551 144.218 93.6959 144.199C93.5578 144.139 93.4198 144.07 93.2817 143.991L86.8305 140.292C85.7355 139.671 85.2029 138.842 85.2029 138.043V135.705Z" fill="url(#paint11_linear_214_6334)"/>
<path d="M103.55 140.204L101.064 141.683C98.9338 142.926 95.4715 142.926 93.3112 141.683L86.8304 137.984C84.6702 136.741 84.6702 134.729 86.8009 133.486L89.257 132.007L91.0918 133.072L88.9611 134.344C87.6294 135.143 87.6294 136.386 88.9907 137.185L94.6725 140.44C96.0337 141.21 98.2236 141.21 99.5848 140.44L101.715 139.168L103.55 140.204Z" fill="#B1B1E5"/>
<g filter="url(#filter0_i_214_6334)">
<path d="M201.168 45.3618C202.928 46.3003 203.808 47.5303 203.807 48.7603L203.807 175.187C203.807 173.958 202.927 172.728 201.168 171.79V45.3618Z" fill="#FFE4D4" fill-opacity="0.1"/>
</g>
<path d="M203.557 48.7603V48.7603C203.558 47.7429 202.882 46.6715 201.418 45.7906V171.641C202.397 172.185 203.119 172.831 203.557 173.533V48.7603Z" stroke="white" stroke-width="0.5"/>
<g filter="url(#filter1_i_214_6334)">
<path d="M203.808 48.7596C203.807 49.9893 202.928 51.219 201.168 52.1572V178.585C202.928 177.647 203.807 176.417 203.808 175.188V48.7596Z" fill="#FFE4D4" fill-opacity="0.1"/>
</g>
<path d="M201.418 178.156C202.882 177.276 203.557 176.205 203.558 175.188V50.4143C203.119 51.1158 202.397 51.7621 201.418 52.3058V178.156Z" stroke="#FFE4D4" stroke-width="0.5"/>
<g filter="url(#filter2_i_214_6334)">
<path d="M6.3623 65.2956C4.60277 64.3574 3.7229 63.1277 3.72268 61.898V188.325C3.72246 189.555 4.60234 190.785 6.3623 191.724V65.2956Z" fill="#FFE4D4" fill-opacity="0.1"/>
</g>
<path d="M6.1123 65.4442C5.13296 64.9005 4.41151 64.2542 3.97268 63.5527V188.325C3.9725 189.343 4.64779 190.414 6.1123 191.295V65.4442Z" stroke="white" stroke-width="0.5"/>
<g filter="url(#filter3_i_214_6334)">
<path d="M201.157 52.1573L97.8053 107.268V233.696L201.157 178.585V52.1573Z" fill="#FFE4D4" fill-opacity="0.1"/>
</g>
<path d="M200.907 178.435V52.574L98.0553 107.418V233.279L200.907 178.435Z" stroke="#FFE4D4" stroke-width="0.5"/>
<g filter="url(#filter4_i_214_6334)">
<path d="M85.0759 107.269L6.36367 65.2974V191.725L85.0759 233.697V107.269Z" fill="#FFE4D4" fill-opacity="0.1"/>
</g>
<path d="M84.8259 233.281V107.419L6.61367 65.7141V191.575L84.8259 233.281Z" stroke="#FFE4D4" stroke-width="0.5"/>
<g filter="url(#filter5_i_214_6334)">
<path d="M97.8105 107.269C94.291 109.146 88.5848 109.146 85.0653 107.269V233.697C88.5848 235.574 94.291 235.574 97.8105 233.697V107.269Z" fill="#FFE4D4" fill-opacity="0.1"/>
</g>
<path d="M97.5605 233.546V107.675C95.8103 108.513 93.6182 108.927 91.4379 108.927C89.2577 108.927 87.0655 108.513 85.3153 107.675V233.546C87.013 234.414 89.219 234.855 91.4379 234.855C93.6569 234.855 95.8629 234.414 97.5605 233.546Z" stroke="#FFE4D4" stroke-width="0.5"/>
<g filter="url(#filter6_i_214_6334)">
<rect width="131.571" height="103.647" rx="7.86205" transform="matrix(-0.882391 0.470517 0.882391 0.470517 116.097 0)" fill="#FFE4D4" fill-opacity="0.1"/>
</g>
<rect x="1.49012e-08" y="0.235259" width="131.071" height="103.147" rx="7.61205" transform="matrix(-0.882391 0.470517 0.882391 0.470517 115.889 0.124565)" stroke="#FFE4D4" stroke-width="0.5"/>
<defs>
<filter id="filter0_i_214_6334" x="201.168" y="45.3618" width="2.63965" height="129.826" filterUnits="userSpaceOnUse" color-interpolation-filters="sRGB">
<feFlood flood-opacity="0" result="BackgroundImageFix"/>
<feBlend mode="normal" in="SourceGraphic" in2="BackgroundImageFix" result="shape"/>
<feColorMatrix in="SourceAlpha" type="matrix" values="0 0 0 0 0 0 0 0 0 0 0 0 0 0 0 0 0 0 127 0" result="hardAlpha"/>
<feOffset/>
<feGaussianBlur stdDeviation="9.0843"/>
<feComposite in2="hardAlpha" operator="arithmetic" k2="-1" k3="1"/>
<feColorMatrix type="matrix" values="0 0 0 0 1 0 0 0 0 1 0 0 0 0 1 0 0 0 1 0"/>
<feBlend mode="normal" in2="shape" result="effect1_innerShadow_214_6334"/>
</filter>
<filter id="filter1_i_214_6334" x="201.168" y="48.7596" width="2.63965" height="129.826" filterUnits="userSpaceOnUse" color-interpolation-filters="sRGB">
<feFlood flood-opacity="0" result="BackgroundImageFix"/>
<feBlend mode="normal" in="SourceGraphic" in2="BackgroundImageFix" result="shape"/>
<feColorMatrix in="SourceAlpha" type="matrix" values="0 0 0 0 0 0 0 0 0 0 0 0 0 0 0 0 0 0 127 0" result="hardAlpha"/>
<feOffset/>
<feGaussianBlur stdDeviation="9.0843"/>
<feComposite in2="hardAlpha" operator="arithmetic" k2="-1" k3="1"/>
<feColorMatrix type="matrix" values="0 0 0 0 1 0 0 0 0 1 0 0 0 0 1 0 0 0 1 0"/>
<feBlend mode="normal" in2="shape" result="effect1_innerShadow_214_6334"/>
</filter>
<filter id="filter2_i_214_6334" x="3.72266" y="61.898" width="2.63965" height="129.826" filterUnits="userSpaceOnUse" color-interpolation-filters="sRGB">
<feFlood flood-opacity="0" result="BackgroundImageFix"/>
<feBlend mode="normal" in="SourceGraphic" in2="BackgroundImageFix" result="shape"/>
<feColorMatrix in="SourceAlpha" type="matrix" values="0 0 0 0 0 0 0 0 0 0 0 0 0 0 0 0 0 0 127 0" result="hardAlpha"/>
<feOffset/>
<feGaussianBlur stdDeviation="9.0843"/>
<feComposite in2="hardAlpha" operator="arithmetic" k2="-1" k3="1"/>
<feColorMatrix type="matrix" values="0 0 0 0 1 0 0 0 0 1 0 0 0 0 1 0 0 0 1 0"/>
<feBlend mode="normal" in2="shape" result="effect1_innerShadow_214_6334"/>
</filter>
<filter id="filter3_i_214_6334" x="97.8052" y="52.1573" width="103.352" height="181.538" filterUnits="userSpaceOnUse" color-interpolation-filters="sRGB">
<feFlood flood-opacity="0" result="BackgroundImageFix"/>
<feBlend mode="normal" in="SourceGraphic" in2="BackgroundImageFix" result="shape"/>
<feColorMatrix in="SourceAlpha" type="matrix" values="0 0 0 0 0 0 0 0 0 0 0 0 0 0 0 0 0 0 127 0" result="hardAlpha"/>
<feOffset/>
<feGaussianBlur stdDeviation="9.0843"/>
<feComposite in2="hardAlpha" operator="arithmetic" k2="-1" k3="1"/>
<feColorMatrix type="matrix" values="0 0 0 0 1 0 0 0 0 1 0 0 0 0 1 0 0 0 1 0"/>
<feBlend mode="normal" in2="shape" result="effect1_innerShadow_214_6334"/>
</filter>
<filter id="filter4_i_214_6334" x="6.36377" y="65.2974" width="78.7122" height="168.4" filterUnits="userSpaceOnUse" color-interpolation-filters="sRGB">
<feFlood flood-opacity="0" result="BackgroundImageFix"/>
<feBlend mode="normal" in="SourceGraphic" in2="BackgroundImageFix" result="shape"/>
<feColorMatrix in="SourceAlpha" type="matrix" values="0 0 0 0 0 0 0 0 0 0 0 0 0 0 0 0 0 0 127 0" result="hardAlpha"/>
<feOffset/>
<feGaussianBlur stdDeviation="9.0843"/>
<feComposite in2="hardAlpha" operator="arithmetic" k2="-1" k3="1"/>
<feColorMatrix type="matrix" values="0 0 0 0 1 0 0 0 0 1 0 0 0 0 1 0 0 0 1 0"/>
<feBlend mode="normal" in2="shape" result="effect1_innerShadow_214_6334"/>
</filter>
<filter id="filter5_i_214_6334" x="85.0654" y="107.269" width="12.7451" height="127.836" filterUnits="userSpaceOnUse" color-interpolation-filters="sRGB">
<feFlood flood-opacity="0" result="BackgroundImageFix"/>
<feBlend mode="normal" in="SourceGraphic" in2="BackgroundImageFix" result="shape"/>
<feColorMatrix in="SourceAlpha" type="matrix" values="0 0 0 0 0 0 0 0 0 0 0 0 0 0 0 0 0 0 127 0" result="hardAlpha"/>
<feOffset/>
<feGaussianBlur stdDeviation="9.0843"/>
<feComposite in2="hardAlpha" operator="arithmetic" k2="-1" k3="1"/>
<feColorMatrix type="matrix" values="0 0 0 0 1 0 0 0 0 1 0 0 0 0 1 0 0 0 1 0"/>
<feBlend mode="normal" in2="shape" result="effect1_innerShadow_214_6334"/>
</filter>
<filter id="filter6_i_214_6334" x="4.06348" y="2.16693" width="199.427" height="106.34" filterUnits="userSpaceOnUse" color-interpolation-filters="sRGB">
<feFlood flood-opacity="0" result="BackgroundImageFix"/>
<feBlend mode="normal" in="SourceGraphic" in2="BackgroundImageFix" result="shape"/>
<feColorMatrix in="SourceAlpha" type="matrix" values="0 0 0 0 0 0 0 0 0 0 0 0 0 0 0 0 0 0 127 0" result="hardAlpha"/>
<feOffset/>
<feGaussianBlur stdDeviation="9.0843"/>
<feComposite in2="hardAlpha" operator="arithmetic" k2="-1" k3="1"/>
<feColorMatrix type="matrix" values="0 0 0 0 1 0 0 0 0 1 0 0 0 0 1 0 0 0 1 0"/>
<feBlend mode="normal" in2="shape" result="effect1_innerShadow_214_6334"/>
</filter>
<linearGradient id="paint0_linear_214_6334" x1="59.4199" y1="150.271" x2="128.22" y2="168.707" gradientUnits="userSpaceOnUse">
<stop stop-color="#7BA6FB"/>
<stop offset="1" stop-color="white"/>
</linearGradient>
<linearGradient id="paint1_linear_214_6334" x1="141.659" y1="91.5404" x2="223.21" y2="109.547" gradientUnits="userSpaceOnUse">
<stop stop-color="#7BA6FB"/>
<stop offset="1" stop-color="white"/>
</linearGradient>
<linearGradient id="paint2_linear_214_6334" x1="97.7335" y1="96.2621" x2="180.178" y2="58.5503" gradientUnits="userSpaceOnUse">
<stop stop-color="#7BA6FB"/>
<stop offset="1" stop-color="white"/>
</linearGradient>
<linearGradient id="paint3_linear_214_6334" x1="153.499" y1="70.0001" x2="230.55" y2="85.2143" gradientUnits="userSpaceOnUse">
<stop stop-color="#7BA6FB"/>
<stop offset="1" stop-color="white"/>
</linearGradient>
<linearGradient id="paint4_linear_214_6334" x1="95.8768" y1="69.4391" x2="204.625" y2="110.421" gradientUnits="userSpaceOnUse">
<stop stop-color="#7BA6FB"/>
<stop offset="1" stop-color="white"/>
</linearGradient>
<linearGradient id="paint5_linear_214_6334" x1="102.82" y1="136.023" x2="193.11" y2="168.967" gradientUnits="userSpaceOnUse">
<stop stop-color="#7BA6FB"/>
<stop offset="1" stop-color="white"/>
</linearGradient>
<linearGradient id="paint6_linear_214_6334" x1="141.134" y1="126.236" x2="199.48" y2="141.748" gradientUnits="userSpaceOnUse">
<stop stop-color="#7BA6FB"/>
<stop offset="1" stop-color="white"/>
</linearGradient>
<linearGradient id="paint7_linear_214_6334" x1="91.7838" y1="126.02" x2="150.198" y2="141.484" gradientUnits="userSpaceOnUse">
<stop stop-color="#7BA6FB"/>
<stop offset="1" stop-color="white"/>
</linearGradient>
<linearGradient id="paint8_linear_214_6334" x1="46" y1="95.5" x2="197.59" y2="154.008" gradientUnits="userSpaceOnUse">
<stop stop-color="#7BA6FB"/>
<stop offset="1" stop-color="white"/>
</linearGradient>
<linearGradient id="paint9_linear_214_6334" x1="108.906" y1="90.6295" x2="155.842" y2="173.713" gradientUnits="userSpaceOnUse">
<stop stop-color="#7BA6FB"/>
<stop offset="1" stop-color="white"/>
</linearGradient>
<linearGradient id="paint10_linear_214_6334" x1="139.944" y1="90.6295" x2="194.341" y2="138.807" gradientUnits="userSpaceOnUse">
<stop stop-color="#7BA6FB"/>
<stop offset="1" stop-color="white"/>
</linearGradient>
<linearGradient id="paint11_linear_214_6334" x1="81.9998" y1="129.5" x2="103.569" y2="147.999" gradientUnits="userSpaceOnUse">
<stop stop-color="#7BA6FB"/>
<stop offset="1" stop-color="white"/>
</linearGradient>
</defs>
</svg>
