<svg width="160" height="200" viewBox="0 0 160 200" fill="none" xmlns="http://www.w3.org/2000/svg">
<path d="M94.3904 118.837C91.6774 117.39 87.2788 117.39 84.5658 118.837L4.89778 161.318C3.54146 162.042 2.86322 162.989 2.86305 163.937C2.86288 164.885 3.54112 165.834 4.89778 166.557L65.5725 198.911C68.2855 200.357 72.6841 200.357 75.3971 198.911L155.065 156.429C156.421 155.706 157.1 154.758 157.1 153.81C157.1 152.862 156.422 151.914 155.065 151.191L94.3904 118.837Z" fill="#D4E4FE"/>
<path d="M94.3926 112.786C91.6796 111.34 87.281 111.34 84.568 112.786V118.839C87.281 117.393 91.6796 117.393 94.3926 118.839V112.786Z" fill="#D4E4FE"/>
<path d="M94.3861 112.785L155.061 145.139V151.192L94.3861 118.838V112.785Z" fill="#D4E4FE"/>
<path d="M4.90056 155.267L84.5686 112.785V118.838L4.90056 161.32V155.267Z" fill="#D4E4FE"/>
<path d="M155.065 145.143C156.422 145.866 157.1 146.814 157.1 147.762L157.1 153.815C157.1 152.867 156.421 151.919 155.065 151.196V145.143Z" fill="#D4E4FE"/>
<path d="M157.1 147.76C157.1 148.708 156.421 149.656 155.065 150.379V156.432C156.421 155.709 157.1 154.761 157.1 153.813V147.76Z" fill="#A1C1FF"/>
<path d="M2.8659 157.889C2.86607 156.941 3.54431 155.993 4.90063 155.27V161.323C3.54431 162.046 2.86607 162.994 2.8659 163.942V157.889Z" fill="#D4E4FE"/>
<path d="M4.90063 160.504C3.54431 159.781 2.86607 158.833 2.8659 157.885V163.938C2.86573 164.886 3.54398 165.834 4.90063 166.558V160.504Z" fill="#A1C1FF"/>
<path d="M155.061 150.381L75.3927 192.862V198.915L155.061 156.434V150.381Z" fill="#A1C1FF"/>
<path d="M65.5764 192.861L4.9017 160.508V166.561L65.5764 198.915V192.861Z" fill="#A1C1FF"/>
<path d="M75.3931 192.861C72.6801 194.308 68.2815 194.308 65.5685 192.861V198.914C68.2815 200.361 72.6801 200.361 75.3931 198.914V192.861Z" fill="#A1C1FF"/>
<rect width="101.421" height="79.8957" rx="7.86205" transform="matrix(-0.882391 0.470517 0.882391 0.470517 89.4924 110.004)" fill="#DEEFFF"/>
<path d="M94.4021 105.524C91.6891 104.078 87.2905 104.078 84.5776 105.524L4.9095 148.006C3.55318 148.729 2.87494 149.677 2.87477 150.625C2.8746 151.573 3.55284 152.521 4.9095 153.245L65.5842 185.598C68.2972 187.045 72.6958 187.045 75.4088 185.598L155.077 143.117C156.433 142.394 157.111 141.446 157.112 140.498C157.112 139.55 156.433 138.601 155.077 137.878L94.4021 105.524Z" fill="#D4E4FE"/>
<path d="M94.4043 99.4737C91.6913 98.027 87.2927 98.027 84.5797 99.4737V105.527C87.2927 104.08 91.6913 104.08 94.4043 105.527V99.4737Z" fill="#D4E4FE"/>
<path d="M94.3939 99.4727L155.069 131.826V137.879L94.3939 105.526V99.4727Z" fill="#D4E4FE"/>
<path d="M4.90446 141.954L84.5725 99.4727V105.526L4.90446 148.007V141.954Z" fill="#D4E4FE"/>
<path d="M155.077 131.828C156.433 132.552 157.112 133.5 157.112 134.448L157.112 140.5C157.111 139.552 156.433 138.605 155.077 137.881V131.828Z" fill="#D4E4FE"/>
<path d="M157.112 134.447C157.111 135.395 156.433 136.343 155.077 137.066V143.119C156.433 142.396 157.111 141.448 157.112 140.5V134.447Z" fill="#A1C1FF"/>
<path d="M2.87762 144.574C2.87779 143.626 3.55603 142.678 4.91235 141.955V148.008C3.55603 148.731 2.87779 149.679 2.87762 150.627V144.574Z" fill="#D4E4FE"/>
<path d="M4.91235 147.192C3.55603 146.469 2.87779 145.521 2.87762 144.573V150.625C2.87745 151.574 3.5557 152.522 4.91235 153.245V147.192Z" fill="#A1C1FF"/>
<path d="M155.069 137.068L75.4006 179.55V185.603L155.069 143.122V137.068Z" fill="#A1C1FF"/>
<path d="M65.5881 179.545L4.91342 147.191V153.245L65.5881 185.598V179.545Z" fill="#A1C1FF"/>
<path d="M75.4048 179.549C72.6918 180.995 68.2932 180.995 65.5802 179.549V185.602C68.2932 187.049 72.6918 187.049 75.4048 185.602V179.549Z" fill="#A1C1FF"/>
<rect width="101.421" height="79.8957" rx="7.86205" transform="matrix(-0.882391 0.470517 0.882391 0.470517 89.4924 96.8555)" fill="#DEEFFF"/>
<path d="M80.6572 143.76L84.4684 145.515L93.1099 139.416L98.125 149.529L97.0134 145.515L94.9491 129.883V123.646L80.6572 143.76Z" fill="#B2D7FF"/>
<path d="M97.964 146.569V149.999L96.376 144.609L96.9715 143.139L97.964 146.569Z" fill="#DA6420"/>
<path d="M53.8174 130.974V127.232L59.2165 129.614L53.8174 130.974Z" fill="#DA6420"/>
<path d="M75.0805 120.996L53.8174 130.819L80.9528 143.916L91.0781 133.469L97.9633 149.997L95.1049 123.803L80.9528 129.727L75.0805 120.996Z" fill="#DA6420"/>
<path d="M75.0805 117.566L53.8174 127.389L80.9528 140.486L91.0781 130.04L97.9633 146.567L94.9461 123.647L80.9528 126.298L75.0805 117.566Z" fill="#F1935C"/>
<path fill-rule="evenodd" clip-rule="evenodd" d="M80.449 132.161L61.6693 121.355C61.6693 121.355 61.6693 90.4162 18.001 30H142.001C99.2286 90.1159 99.2286 121.355 99.2286 121.355L80.449 132.161Z" fill="url(#paint0_linear_214_4785)"/>
<path d="M88.0492 89.0059V86.1911L91.4529 69.4392L88.0892 67.4062L81.3418 71.042L81.3018 92.6416C81.3018 94.0881 81.8424 95.085 82.7033 95.3978L85.7066 97.2352L86.087 95.8474L86.6076 93.3258C87.4685 92.0748 88.0292 90.4719 88.0492 89.0059Z" fill="#28565D"/>
<path d="M88.0287 97.1769C86.1667 98.1738 84.665 97.0596 84.665 94.6748L84.7051 73.0752L91.4525 69.4395L91.4125 91.0391C91.3924 93.4238 89.8908 96.18 88.0287 97.1769Z" fill="#28565D"/>
<path d="M106.245 57.7897C106.245 63.2824 102.301 65.5108 97.4357 62.7547C92.5703 60.0181 88.626 53.3525 88.626 47.8597C88.626 42.3865 92.5703 40.1581 97.4357 42.8947C102.301 45.6509 106.245 52.3165 106.245 57.7897Z" fill="#28565D"/>
<path d="M103.756 63.3217L78.1081 77.6693L64.333 57.4576L91.0423 42.4062L103.756 63.3217Z" fill="#28565D"/>
<path d="M93.6642 65.123C93.6642 59.4739 89.5998 52.6324 84.5943 49.798C82.3318 48.5275 80.2495 48.2929 78.6677 48.9575L78.6277 48.977C78.6143 48.977 78.601 48.9836 78.5877 48.9966C78.5209 49.0227 78.4542 49.0552 78.3874 49.0943C68.917 53.6293 58.4455 55.799 47.9139 55.3885L44.9307 55.2908L69.2374 95.9489L70.5388 93.4664C75.3441 84.3965 82.3518 76.6363 90.9612 70.8699C92.6231 69.9511 93.6642 67.9769 93.6642 65.123Z" fill="#D4ECFF"/>
<path d="M72.056 86.7614C72.056 75.9323 64.2675 62.7771 54.6769 57.3625C49.8917 54.665 45.5469 54.4109 42.4235 56.1701H42.4035C42.3901 56.1701 42.3768 56.1766 42.3634 56.1897L39.5203 57.8121L40.5214 57.6166C38.4992 59.6691 37.2979 62.9334 37.2979 67.1556C37.2979 77.9848 45.0864 91.14 54.6769 96.5546C58.4411 98.6657 61.9249 99.2912 64.7881 98.607L64.3276 99.2521L66.9504 97.7469C66.9638 97.7339 66.9771 97.7274 66.9905 97.7274L67.0906 97.6688C70.1539 95.8704 72.056 92.0978 72.056 86.7614Z" fill="#D4ECFF"/>
<path d="M70.0338 87.9119C70.0338 77.0828 62.2453 63.9275 52.6347 58.513C47.9295 55.8546 43.6448 55.5613 40.5014 57.2424L40.0809 57.4965C39.9207 57.5877 39.7739 57.6855 39.6404 57.7897L40.5214 57.6138C38.4992 59.6663 37.2979 62.9306 37.2979 67.1528C37.2979 77.9819 45.0864 91.1372 54.6769 96.5518C58.4411 98.6628 61.9249 99.2884 64.7881 98.6042L64.3676 99.1906C67.8514 97.5682 70.0338 93.6392 70.0338 87.9119Z" fill="white"/>
<path d="M69.4506 88.2468C69.4506 99.0564 61.662 103.455 52.0715 98.04C42.4609 92.6254 34.6924 79.4702 34.6924 68.6606C34.6924 57.8315 42.4609 53.4529 52.0715 58.8479C61.662 64.2625 69.4506 77.4177 69.4506 88.2468Z" fill="#28565D"/>
<path d="M67.3109 87.036C67.3109 96.5359 60.4834 100.387 52.0741 95.6367C43.6449 90.8867 36.8174 79.3539 36.8174 69.854C36.8174 60.3541 43.6449 56.5033 52.0741 61.2532C60.4834 66.0032 67.3109 77.5556 67.3109 87.036Z" fill="#F1935C"/>
<path d="M52.7749 95.3396C44.3657 90.5896 37.5382 79.0372 37.5382 69.5569C37.5382 64.5723 39.4202 61.132 42.4235 59.6855C38.9998 60.917 36.8174 64.4746 36.8174 69.8501C36.8174 79.35 43.6449 90.8828 52.0741 95.6328C56.0585 97.8807 59.7025 98.213 62.4255 96.9033C59.8026 97.8416 56.4389 97.392 52.7749 95.3396Z" fill="white"/>
<path d="M49.7861 74.8945L71.9104 58.1816L79.9393 71.7865L53.9707 82.2051L49.7861 74.8945Z" fill="#D4ECFF"/>
<path d="M55.1072 80.1728C55.1072 82.0689 53.7457 82.8312 52.0639 81.8734C50.382 80.9352 49.0205 78.6286 49.0205 76.7325C49.0205 74.8365 50.382 74.0741 52.0639 75.0124C53.7457 75.9702 55.1072 78.2768 55.1072 80.1728Z" fill="#28565D"/>
<path d="M83.0436 89.2013L82.9234 89.1231C82.483 88.8885 82.1226 88.2044 82.1226 87.6375L82.1025 83.474C82.1025 82.8875 82.4629 82.6334 82.9034 82.868L83.0235 82.9462C83.464 83.2003 83.8244 83.8649 83.8244 84.4318L83.8445 88.5953C83.8445 89.1817 83.4841 89.4358 83.0436 89.2013Z" fill="white"/>
<path d="M28.7314 41.9916L39.8259 35.8633L50.2863 41.3788L39.5089 47.8136L28.7314 41.9916Z" fill="#F1935C"/>
<path d="M28.7314 41.9922V54.2489L39.508 60.3773V47.8141L28.7314 41.9922Z" fill="url(#paint1_linear_214_4785)"/>
<path d="M39.5166 47.8137L50.2932 41.3789V54.0033L39.5166 60.3768V47.8137Z" fill="#DA6420"/>
<path d="M42.8194 44.3532V44.9974L42.5168 43.9851L42.6303 43.709L42.8194 44.3532Z" fill="#DA6420"/>
<path d="M34.4075 41.4255V40.7227L35.4362 41.1699L34.4075 41.4255Z" fill="#DA6420"/>
<path d="M38.459 39.5508L34.4075 41.3956L39.578 43.8554L41.5073 41.8934L42.8192 44.9975L42.2746 40.0779L39.578 41.1906L38.459 39.5508Z" fill="#DA6420"/>
<path d="M38.459 38.9082L34.4075 40.753L39.578 43.2128L41.5073 41.2509L42.8192 44.3549L42.2443 40.0502L39.578 40.5481L38.459 38.9082Z" fill="white"/>
<path d="M100.271 82.3176L107.941 78.0801L115.174 81.8939L107.722 86.3433L100.271 82.3176Z" fill="#A1C1FF"/>
<path d="M100.271 82.3184V90.7934L107.722 95.0309V86.344L100.271 82.3184Z" fill="url(#paint2_linear_214_4785)"/>
<path d="M107.72 86.3439L115.171 81.8945V90.6238L107.72 95.0309V86.3439Z" fill="#A1C1FF"/>
<path d="M109.983 83.9513V84.3968L109.774 83.6968L109.853 83.5059L109.983 83.9513Z" fill="#DA6420"/>
<path d="M104.177 81.9254V81.4395L104.888 81.7487L104.177 81.9254Z" fill="#DA6420"/>
<path d="M106.978 80.6309L104.177 81.9065L107.752 83.6073L109.086 82.2507L109.993 84.397L109.617 80.9953L107.752 81.7648L106.978 80.6309Z" fill="#DA6420"/>
<path d="M106.978 80.1855L104.177 81.4612L107.752 83.162L109.086 81.8054L109.993 83.9517L109.596 80.9752L107.752 81.3194L106.978 80.1855Z" fill="#F1935C"/>
<path d="M68.0674 54.0367L73.3735 51.1055L78.3763 53.7436L73.2219 56.8213L68.0674 54.0367Z" fill="#A1C1FF"/>
<path d="M68.0674 54.0371V59.8995L73.2219 62.8307V56.8218L68.0674 54.0371Z" fill="url(#paint3_linear_214_4785)"/>
<path d="M73.2197 56.8219L78.3742 53.7441V59.7824L73.2197 62.8309V56.8219Z" fill="#A1C1FF"/>
<path d="M74.7976 55.1695V55.4776L74.6533 54.9934L74.7074 54.8613L74.7976 55.1695Z" fill="#DA6420"/>
<path d="M70.7783 53.7658V53.4297L71.2704 53.6436L70.7783 53.7658Z" fill="#DA6420"/>
<path d="M72.7162 52.873L70.7783 53.7554L73.2514 54.932L74.1742 53.9935L74.8017 55.4782L74.5412 53.1252L73.2514 53.6574L72.7162 52.873Z" fill="#DA6420"/>
<path d="M72.7162 52.5645L70.7783 53.4468L73.2514 54.6234L74.1742 53.685L74.8017 55.1696L74.5267 53.1107L73.2514 53.3488L72.7162 52.5645Z" fill="#F1935C"/>
<path d="M75.2317 33.677L81.8877 30L88.1634 33.3093L81.6975 37.1701L75.2317 33.677Z" fill="#BECDD0"/>
<path d="M75.2317 33.6777V41.0316L81.6975 44.7086V37.1708L75.2317 33.6777Z" fill="url(#paint4_linear_214_4785)"/>
<path d="M81.6965 37.1694L88.1624 33.3086V40.8831L81.6965 44.7072V37.1694Z" fill="#28565D"/>
<path d="M83.6828 35.0936V35.4801L83.5012 34.8727L83.5693 34.707L83.6828 35.0936Z" fill="#DA6420"/>
<path d="M78.634 33.3396V32.918L79.2513 33.1863L78.634 33.3396Z" fill="#28565D"/>
<path d="M81.0649 32.2109L78.634 33.3178L81.7363 34.7937L82.8939 33.6165L83.681 35.4789L83.3542 32.5272L81.7363 33.1948L81.0649 32.2109Z" fill="#28565D"/>
<path d="M81.0649 31.8262L78.634 32.9331L81.7363 34.4089L82.8939 33.2317L83.681 35.0941L83.3361 32.5114L81.7363 32.8101L81.0649 31.8262Z" fill="#4D94A0"/>
<path d="M33.501 98.1672L40.157 94.4902L46.4327 97.7995L39.9668 101.66L33.501 98.1672Z" fill="#BECDD0"/>
<path d="M33.501 98.168V105.522L39.9668 109.199V101.661L33.501 98.168Z" fill="url(#paint5_linear_214_4785)"/>
<path d="M39.9658 101.66L46.4317 97.7988V105.373L39.9658 109.197V101.66Z" fill="#28565D"/>
<path d="M41.9599 99.5838V99.9703L41.7783 99.3629L41.8464 99.1973L41.9599 99.5838Z" fill="#DA6420"/>
<path d="M36.9111 97.8299V97.4082L37.5284 97.6765L36.9111 97.8299Z" fill="#28565D"/>
<path d="M39.342 96.7012L36.9111 97.8081L40.0134 99.2839L41.171 98.1067L41.9581 99.9691L41.6313 97.0174L40.0134 97.6851L39.342 96.7012Z" fill="#28565D"/>
<path d="M39.342 96.3164L36.9111 97.4233L40.0134 98.8991L41.171 97.722L41.9581 99.5844L41.6132 97.0016L40.0134 97.3003L39.342 96.3164Z" fill="#4D94A0"/>
<path d="M20.3799 76.4505L28.0507 72.2129L35.2832 76.0267L27.8316 80.4761L20.3799 76.4505Z" fill="#F1935C"/>
<path d="M20.3799 76.4512V84.9263L27.8316 89.1639V80.4769L20.3799 76.4512Z" fill="url(#paint6_linear_214_4785)"/>
<path d="M27.8291 80.4768L35.2808 76.0273V84.7567L27.8291 89.1638V80.4768Z" fill="#DA6420"/>
<path d="M30.1159 78.0861V78.5316L29.9072 77.8315L29.9855 77.6406L30.1159 78.0861Z" fill="#DA6420"/>
<path d="M24.3096 76.0602V75.5742L25.0209 75.8835L24.3096 76.0602Z" fill="#DA6420"/>
<path d="M27.1111 74.7656L24.3096 76.0413L27.8848 77.7421L29.2189 76.3855L30.126 78.5318L29.7494 75.1301L27.8848 75.8995L27.1111 74.7656Z" fill="#DA6420"/>
<path d="M27.1111 74.3203L24.3096 75.596L27.8848 77.2968L29.2189 75.9402L30.126 78.0865L29.7285 75.11L27.8848 75.4542L27.1111 74.3203Z" fill="white"/>
<path d="M108.618 38.9251L116.289 34.6875L123.522 38.5013L116.07 42.9507L108.618 38.9251Z" fill="#F1935C"/>
<path d="M108.618 38.9258V47.4009L116.07 51.6385V42.9515L108.618 38.9258Z" fill="url(#paint7_linear_214_4785)"/>
<path d="M116.067 42.9514L123.519 38.502V47.2313L116.067 51.6384V42.9514Z" fill="#DA6420"/>
<path d="M118.342 40.5627V41.0081L118.134 40.3081L118.212 40.1172L118.342 40.5627Z" fill="#DA6420"/>
<path d="M112.536 38.5367V38.0508L113.247 38.36L112.536 38.5367Z" fill="#DA6420"/>
<path d="M115.338 37.2422L112.536 38.5178L116.111 40.2187L117.445 38.8621L118.353 41.0084L117.976 37.6067L116.111 38.3761L115.338 37.2422Z" fill="#DA6420"/>
<path d="M115.338 36.7969L112.536 38.0725L116.111 39.7734L117.445 38.4167L118.353 40.5631L117.955 37.5866L116.111 37.9308L115.338 36.7969Z" fill="white"/>
<path d="M52.5791 107.16L56.4145 105.041L60.0308 106.948L56.3049 109.173L52.5791 107.16Z" fill="#BECDD0"/>
<path d="M52.5791 107.16V111.398L56.3049 113.516V109.173L52.5791 107.16Z" fill="url(#paint8_linear_214_4785)"/>
<path d="M56.3057 109.174L60.0315 106.949V111.314L56.3057 113.517V109.174Z" fill="#28565D"/>
<path d="M57.4528 107.981V108.203L57.3486 107.853L57.3877 107.758L57.4528 107.981Z" fill="#DA6420"/>
<path d="M54.5479 106.964V106.721L54.9035 106.875L54.5479 106.964Z" fill="#DA6420"/>
<path d="M55.9486 106.322L54.5479 106.96L56.3355 107.811L57.0025 107.132L57.4561 108.205L57.2678 106.505L56.3355 106.889L55.9486 106.322Z" fill="#DA6420"/>
<path d="M55.9486 106.098L54.5479 106.735L56.3355 107.586L57.0025 106.908L57.4561 107.981L57.2573 106.492L56.3355 106.665L55.9486 106.098Z" fill="#F1935C"/>
<g filter="url(#filter0_i_214_4785)">
<path d="M155.081 34.9668C156.437 35.6902 157.116 36.6384 157.115 37.5865L157.115 135.042C157.115 134.094 156.437 133.146 155.081 132.423V34.9668Z" fill="#FFE4D4" fill-opacity="0.15"/>
</g>
<path d="M156.615 37.5865V37.5864C156.616 37.0522 156.316 36.4415 155.581 35.8762V132.13C155.979 132.365 156.326 132.626 156.615 132.908V37.5865Z" stroke="white"/>
<g filter="url(#filter1_i_214_4785)">
<path d="M157.115 37.5859C157.115 38.5338 156.437 39.4817 155.081 40.205V137.661C156.437 136.938 157.115 135.99 157.115 135.042V37.5859Z" fill="#FFE4D4" fill-opacity="0.15"/>
</g>
<path d="M155.581 136.752C156.316 136.186 156.615 135.576 156.615 135.042V39.7194C156.326 40.0016 155.979 40.2626 155.581 40.4976V136.752Z" stroke="#FFE4D4"/>
<g filter="url(#filter2_i_214_4785)">
<path d="M4.91626 50.3326C3.55994 49.6094 2.88169 48.6615 2.88153 47.7136V145.169C2.88136 146.117 3.5596 147.065 4.91626 147.789V50.3326Z" fill="#FFE4D4" fill-opacity="0.15"/>
</g>
<path d="M4.41626 50.6252C4.0185 50.3902 3.67121 50.1292 3.38153 49.847V145.169C3.38143 145.703 3.68121 146.314 4.41626 146.879V50.6252Z" stroke="white"/>
<g filter="url(#filter3_i_214_4785)">
<path d="M155.073 40.2051L75.4045 82.6865V180.143L155.073 137.661V40.2051Z" fill="#FFE4D4" fill-opacity="0.15"/>
</g>
<path d="M154.573 137.361V41.0383L75.9045 82.9865V179.309L154.573 137.361Z" stroke="#FFE4D4"/>
<g filter="url(#filter4_i_214_4785)">
<path d="M65.592 82.6876L4.91732 50.334V147.79L65.592 180.144V82.6876Z" fill="#FFE4D4" fill-opacity="0.15"/>
</g>
<path d="M65.092 179.31V82.9876L5.41732 51.1672V147.49L65.092 179.31Z" stroke="#FFE4D4"/>
<g filter="url(#filter5_i_214_4785)">
<path d="M75.4087 82.6875C72.6957 84.1341 68.2971 84.1341 65.5841 82.6875V180.144C68.2971 181.59 72.6957 181.59 75.4087 180.144V82.6875Z" fill="#FFE4D4" fill-opacity="0.15"/>
</g>
<path d="M74.9087 179.836V83.4728C73.5929 84.0113 72.035 84.2725 70.4964 84.2725C68.9578 84.2725 67.3999 84.0113 66.0841 83.4728V179.836C67.3161 180.424 68.8944 180.729 70.4964 180.729C72.0984 180.729 73.6767 180.424 74.9087 179.836Z" stroke="#FFE4D4"/>
<g filter="url(#filter6_i_214_4785)">
<rect width="101.421" height="79.8957" rx="7.86205" transform="matrix(-0.882391 0.470517 0.882391 0.470517 89.5042 0)" fill="#FFE4D4" fill-opacity="0.15"/>
</g>
<rect x="2.98023e-08" y="0.470517" width="100.421" height="78.8957" rx="7.36205" transform="matrix(-0.882391 0.470517 0.882391 0.470517 89.089 0.249131)" stroke="#FFE4D4"/>
<defs>
<filter id="filter0_i_214_4785" x="155.081" y="34.9668" width="2.03467" height="100.075" filterUnits="userSpaceOnUse" color-interpolation-filters="sRGB">
<feFlood flood-opacity="0" result="BackgroundImageFix"/>
<feBlend mode="normal" in="SourceGraphic" in2="BackgroundImageFix" result="shape"/>
<feColorMatrix in="SourceAlpha" type="matrix" values="0 0 0 0 0 0 0 0 0 0 0 0 0 0 0 0 0 0 127 0" result="hardAlpha"/>
<feOffset/>
<feGaussianBlur stdDeviation="9.0843"/>
<feComposite in2="hardAlpha" operator="arithmetic" k2="-1" k3="1"/>
<feColorMatrix type="matrix" values="0 0 0 0 1 0 0 0 0 1 0 0 0 0 1 0 0 0 1 0"/>
<feBlend mode="normal" in2="shape" result="effect1_innerShadow_214_4785"/>
</filter>
<filter id="filter1_i_214_4785" x="155.081" y="37.5859" width="2.03467" height="100.075" filterUnits="userSpaceOnUse" color-interpolation-filters="sRGB">
<feFlood flood-opacity="0" result="BackgroundImageFix"/>
<feBlend mode="normal" in="SourceGraphic" in2="BackgroundImageFix" result="shape"/>
<feColorMatrix in="SourceAlpha" type="matrix" values="0 0 0 0 0 0 0 0 0 0 0 0 0 0 0 0 0 0 127 0" result="hardAlpha"/>
<feOffset/>
<feGaussianBlur stdDeviation="9.0843"/>
<feComposite in2="hardAlpha" operator="arithmetic" k2="-1" k3="1"/>
<feColorMatrix type="matrix" values="0 0 0 0 1 0 0 0 0 1 0 0 0 0 1 0 0 0 1 0"/>
<feBlend mode="normal" in2="shape" result="effect1_innerShadow_214_4785"/>
</filter>
<filter id="filter2_i_214_4785" x="2.88159" y="47.7136" width="2.03467" height="100.075" filterUnits="userSpaceOnUse" color-interpolation-filters="sRGB">
<feFlood flood-opacity="0" result="BackgroundImageFix"/>
<feBlend mode="normal" in="SourceGraphic" in2="BackgroundImageFix" result="shape"/>
<feColorMatrix in="SourceAlpha" type="matrix" values="0 0 0 0 0 0 0 0 0 0 0 0 0 0 0 0 0 0 127 0" result="hardAlpha"/>
<feOffset/>
<feGaussianBlur stdDeviation="9.0843"/>
<feComposite in2="hardAlpha" operator="arithmetic" k2="-1" k3="1"/>
<feColorMatrix type="matrix" values="0 0 0 0 1 0 0 0 0 1 0 0 0 0 1 0 0 0 1 0"/>
<feBlend mode="normal" in2="shape" result="effect1_innerShadow_214_4785"/>
</filter>
<filter id="filter3_i_214_4785" x="75.4045" y="40.2051" width="79.668" height="139.938" filterUnits="userSpaceOnUse" color-interpolation-filters="sRGB">
<feFlood flood-opacity="0" result="BackgroundImageFix"/>
<feBlend mode="normal" in="SourceGraphic" in2="BackgroundImageFix" result="shape"/>
<feColorMatrix in="SourceAlpha" type="matrix" values="0 0 0 0 0 0 0 0 0 0 0 0 0 0 0 0 0 0 127 0" result="hardAlpha"/>
<feOffset/>
<feGaussianBlur stdDeviation="9.0843"/>
<feComposite in2="hardAlpha" operator="arithmetic" k2="-1" k3="1"/>
<feColorMatrix type="matrix" values="0 0 0 0 1 0 0 0 0 1 0 0 0 0 1 0 0 0 1 0"/>
<feBlend mode="normal" in2="shape" result="effect1_innerShadow_214_4785"/>
</filter>
<filter id="filter4_i_214_4785" x="4.91724" y="50.334" width="60.6748" height="129.81" filterUnits="userSpaceOnUse" color-interpolation-filters="sRGB">
<feFlood flood-opacity="0" result="BackgroundImageFix"/>
<feBlend mode="normal" in="SourceGraphic" in2="BackgroundImageFix" result="shape"/>
<feColorMatrix in="SourceAlpha" type="matrix" values="0 0 0 0 0 0 0 0 0 0 0 0 0 0 0 0 0 0 127 0" result="hardAlpha"/>
<feOffset/>
<feGaussianBlur stdDeviation="9.0843"/>
<feComposite in2="hardAlpha" operator="arithmetic" k2="-1" k3="1"/>
<feColorMatrix type="matrix" values="0 0 0 0 1 0 0 0 0 1 0 0 0 0 1 0 0 0 1 0"/>
<feBlend mode="normal" in2="shape" result="effect1_innerShadow_214_4785"/>
</filter>
<filter id="filter5_i_214_4785" x="65.5842" y="82.6875" width="9.82446" height="98.541" filterUnits="userSpaceOnUse" color-interpolation-filters="sRGB">
<feFlood flood-opacity="0" result="BackgroundImageFix"/>
<feBlend mode="normal" in="SourceGraphic" in2="BackgroundImageFix" result="shape"/>
<feColorMatrix in="SourceAlpha" type="matrix" values="0 0 0 0 0 0 0 0 0 0 0 0 0 0 0 0 0 0 127 0" result="hardAlpha"/>
<feOffset/>
<feGaussianBlur stdDeviation="9.0843"/>
<feComposite in2="hardAlpha" operator="arithmetic" k2="-1" k3="1"/>
<feColorMatrix type="matrix" values="0 0 0 0 1 0 0 0 0 1 0 0 0 0 1 0 0 0 1 0"/>
<feBlend mode="normal" in2="shape" result="effect1_innerShadow_214_4785"/>
</filter>
<filter id="filter6_i_214_4785" x="4.07544" y="2.16699" width="151.864" height="80.9785" filterUnits="userSpaceOnUse" color-interpolation-filters="sRGB">
<feFlood flood-opacity="0" result="BackgroundImageFix"/>
<feBlend mode="normal" in="SourceGraphic" in2="BackgroundImageFix" result="shape"/>
<feColorMatrix in="SourceAlpha" type="matrix" values="0 0 0 0 0 0 0 0 0 0 0 0 0 0 0 0 0 0 127 0" result="hardAlpha"/>
<feOffset/>
<feGaussianBlur stdDeviation="9.0843"/>
<feComposite in2="hardAlpha" operator="arithmetic" k2="-1" k3="1"/>
<feColorMatrix type="matrix" values="0 0 0 0 1 0 0 0 0 1 0 0 0 0 1 0 0 0 1 0"/>
<feBlend mode="normal" in2="shape" result="effect1_innerShadow_214_4785"/>
</filter>
<linearGradient id="paint0_linear_214_4785" x1="77.6139" y1="30" x2="77.1124" y2="132.826" gradientUnits="userSpaceOnUse">
<stop stop-color="white" stop-opacity="0"/>
<stop offset="1" stop-color="#F1935C" stop-opacity="0.7"/>
</linearGradient>
<linearGradient id="paint1_linear_214_4785" x1="34.12" y1="41.9922" x2="34.12" y2="60.38" gradientUnits="userSpaceOnUse">
<stop stop-color="#F1935C"/>
<stop offset="1" stop-color="#DA6420"/>
</linearGradient>
<linearGradient id="paint2_linear_214_4785" x1="103.996" y1="82.3184" x2="103.996" y2="95.0329" gradientUnits="userSpaceOnUse">
<stop stop-color="#B2D7FF"/>
<stop offset="1" stop-color="#A1C1FF"/>
</linearGradient>
<linearGradient id="paint3_linear_214_4785" x1="70.6447" y1="54.0371" x2="70.6447" y2="62.8321" gradientUnits="userSpaceOnUse">
<stop stop-color="#B2D7FF"/>
<stop offset="1" stop-color="#A1C1FF"/>
</linearGradient>
<linearGradient id="paint4_linear_214_4785" x1="78.4648" y1="33.6777" x2="78.4648" y2="44.7103" gradientUnits="userSpaceOnUse">
<stop stop-color="#4D94A0"/>
<stop offset="1" stop-color="#34656D"/>
</linearGradient>
<linearGradient id="paint5_linear_214_4785" x1="36.734" y1="98.168" x2="36.734" y2="109.201" gradientUnits="userSpaceOnUse">
<stop stop-color="#4D94A0"/>
<stop offset="1" stop-color="#34656D"/>
</linearGradient>
<linearGradient id="paint6_linear_214_4785" x1="24.1059" y1="76.4512" x2="24.1059" y2="89.1658" gradientUnits="userSpaceOnUse">
<stop stop-color="#F1935C"/>
<stop offset="1" stop-color="#DA6420"/>
</linearGradient>
<linearGradient id="paint7_linear_214_4785" x1="112.344" y1="38.9258" x2="112.344" y2="51.6404" gradientUnits="userSpaceOnUse">
<stop stop-color="#F1935C"/>
<stop offset="1" stop-color="#DA6420"/>
</linearGradient>
<linearGradient id="paint8_linear_214_4785" x1="54.4421" y1="107.16" x2="54.4421" y2="113.517" gradientUnits="userSpaceOnUse">
<stop stop-color="#367E89"/>
<stop offset="1" stop-color="#28565D"/>
</linearGradient>
</defs>
</svg>
