<svg width="150" height="182" viewBox="0 0 150 182" fill="none" xmlns="http://www.w3.org/2000/svg">
<path d="M87.909 107.662C85.3823 106.351 81.2858 106.351 78.7591 107.662L4.56178 146.148C3.2986 146.803 2.66693 147.662 2.66677 148.521C2.66662 149.38 3.29829 150.239 4.56178 150.894L61.07 180.205C63.5967 181.516 67.6933 181.516 70.2199 180.205L144.417 141.719C145.68 141.063 146.312 140.205 146.312 139.346C146.312 138.487 145.681 137.628 144.417 136.973L87.909 107.662Z" fill="#D4E4FE"/>
<path d="M87.9109 102.18C85.3842 100.869 81.2876 100.869 78.761 102.18V107.664C81.2876 106.353 85.3842 106.353 87.9109 107.664V102.18Z" fill="#D4E4FE"/>
<path d="M87.9049 102.179L144.413 131.49V136.974L87.9049 107.663V102.179Z" fill="#D4E4FE"/>
<path d="M4.56417 140.665L78.7615 102.179V107.663L4.56417 146.149V140.665Z" fill="#D4E4FE"/>
<path d="M144.417 131.493C145.681 132.149 146.312 133.008 146.312 133.867L146.312 139.35C146.312 138.491 145.68 137.633 144.417 136.977V131.493Z" fill="#D4E4FE"/>
<path d="M146.312 133.865C146.312 134.723 145.68 135.582 144.417 136.237V141.721C145.68 141.066 146.312 140.207 146.312 139.348V133.865Z" fill="#A1C1FF"/>
<path d="M2.6692 143.041C2.66935 142.182 3.30103 141.323 4.56421 140.668V146.152C3.30103 146.807 2.66935 147.666 2.6692 148.525V143.041Z" fill="#D4E4FE"/>
<path d="M4.56421 145.411C3.30103 144.755 2.66935 143.897 2.6692 143.038V148.521C2.66904 149.38 3.30071 150.239 4.56421 150.895V145.411Z" fill="#A1C1FF"/>
<path d="M144.413 136.239L70.2158 174.725V180.209L144.413 141.723V136.239Z" fill="#A1C1FF"/>
<path d="M61.0737 174.725L4.56549 145.414V150.898L61.0737 180.209V174.725Z" fill="#A1C1FF"/>
<path d="M70.2161 174.725C67.6894 176.035 63.5928 176.035 61.0661 174.725V180.209C63.5928 181.519 67.6894 181.519 70.2161 180.209V174.725Z" fill="#A1C1FF"/>
<rect width="93.8926" height="73.9654" rx="7.86205" transform="matrix(-0.887687 0.460447 0.887687 0.460447 83.3474 99.6592)" fill="#DEEFFF"/>
<path d="M87.9197 95.6009C85.3931 94.2903 81.2965 94.2903 78.7698 95.6009L4.57252 134.087C3.30934 134.743 2.67767 135.601 2.67752 136.46C2.67736 137.319 3.30903 138.178 4.57252 138.833L61.0808 168.144C63.6074 169.455 67.704 169.455 70.2307 168.144L144.428 129.658C145.691 129.003 146.323 128.144 146.323 127.285C146.323 126.426 145.691 125.567 144.428 124.912L87.9197 95.6009Z" fill="#D4E4FE"/>
<path d="M87.9219 90.1192C85.3952 88.8086 81.2986 88.8086 78.772 90.1192V95.6031C81.2986 94.2925 85.3952 94.2925 87.9219 95.6031V90.1192Z" fill="#D4E4FE"/>
<path d="M87.9119 90.1183L144.42 119.429V124.913L87.9119 95.6022V90.1183Z" fill="#D4E4FE"/>
<path d="M4.56808 128.605L78.7654 90.1183V95.6022L4.56808 134.089V128.605Z" fill="#D4E4FE"/>
<path d="M144.428 119.431C145.691 120.086 146.323 120.945 146.323 121.804L146.323 127.288C146.323 126.429 145.691 125.57 144.428 124.915V119.431Z" fill="#D4E4FE"/>
<path d="M146.323 121.804C146.323 122.663 145.691 123.521 144.428 124.177V129.66C145.691 129.005 146.323 128.147 146.323 127.288V121.804Z" fill="#A1C1FF"/>
<path d="M2.68018 130.978C2.68034 130.12 3.31201 129.261 4.5752 128.606V134.09C3.31201 134.745 2.68034 135.603 2.68018 136.462V130.978Z" fill="#D4E4FE"/>
<path d="M4.5752 133.35C3.31201 132.695 2.68034 131.836 2.68018 130.977V136.461C2.68003 137.32 3.3117 138.179 4.5752 138.834V133.35Z" fill="#A1C1FF"/>
<path d="M144.42 124.178L70.2229 162.665V168.149L144.42 129.662V124.178Z" fill="#A1C1FF"/>
<path d="M61.0845 162.661L4.57624 133.349V138.833L61.0845 168.144V162.661Z" fill="#A1C1FF"/>
<path d="M70.2268 162.664C67.7001 163.975 63.6036 163.975 61.0769 162.664V168.148C63.6036 169.459 67.7001 169.459 70.2268 168.148V162.664Z" fill="#A1C1FF"/>
<rect width="93.8926" height="73.9654" rx="7.86205" transform="matrix(-0.887687 0.460447 0.887687 0.460447 83.3474 87.7472)" fill="#DEEFFF"/>
<path d="M75.1189 130.241L78.6683 131.83L86.7164 126.306L91.3872 135.467L90.3519 131.83L88.4293 117.669V112.019L75.1189 130.241Z" fill="#B2D7FF"/>
<path d="M91.237 132.786V135.893L89.7581 131.01L90.3127 129.678L91.237 132.786Z" fill="#DA6420"/>
<path d="M50.1221 118.658V115.267L55.1505 117.425L50.1221 118.658Z" fill="#DA6420"/>
<path d="M69.925 109.618L50.1221 118.517L75.3941 130.382L84.8241 120.918L91.2365 135.891L88.5744 112.16L75.3941 117.528L69.925 109.618Z" fill="#DA6420"/>
<path d="M69.925 106.51L50.1221 115.41L75.3941 127.275L84.8241 117.811L91.2365 132.784L88.4265 112.019L75.3941 114.421L69.925 106.51Z" fill="#F1935C"/>
<path fill-rule="evenodd" clip-rule="evenodd" d="M74.9249 119.733L57.4348 109.943C57.4348 109.943 57.4348 81.9135 16.7651 27.1788H132.25C92.4149 81.6415 92.4149 109.943 92.4149 109.943L74.9249 119.733Z" fill="url(#paint0_linear_466_21752)"/>
<path d="M82.0031 80.6358V78.0857L85.1731 62.9091L82.0404 61.0674L75.7563 64.3612L75.719 83.9296C75.719 85.2401 76.2225 86.1433 77.0243 86.4266L79.8214 88.0912L80.1757 86.8339L80.6605 84.5495C81.4623 83.4161 81.9844 81.9639 82.0031 80.6358Z" fill="#28565D"/>
<path d="M81.984 88.0384C80.2498 88.9416 78.8513 87.9322 78.8513 85.7717L78.8886 66.2033L85.1727 62.9094L85.1354 82.4778C85.1167 84.6383 83.7182 87.1353 81.984 88.0384Z" fill="#28565D"/>
<path d="M98.9497 52.3551C98.9497 57.3313 95.2763 59.3501 90.745 56.8532C86.2138 54.3739 82.5403 48.3352 82.5403 43.359C82.5403 38.4004 86.2138 36.3816 90.745 38.8609C95.2763 41.3578 98.9497 47.3966 98.9497 52.3551Z" fill="#28565D"/>
<path d="M96.6317 57.3669L72.7447 70.3653L59.9155 52.0542L84.7908 38.4183L96.6317 57.3669Z" fill="#28565D"/>
<path d="M87.2325 58.9988C87.2325 53.8809 83.4472 47.6828 78.7854 45.115C76.6783 43.9639 74.739 43.7514 73.2658 44.3535L73.2285 44.3712C73.2161 44.3712 73.2037 44.3771 73.1912 44.3889C73.1291 44.4126 73.0669 44.4421 73.0048 44.4775C64.1847 48.586 54.4323 50.5517 44.6239 50.1798L41.8455 50.0912L64.483 86.9259L65.6951 84.6768C70.1704 76.4599 76.6969 69.4294 84.7152 64.2053C86.2629 63.3729 87.2325 61.5843 87.2325 58.9988Z" fill="#D4ECFF"/>
<path d="M67.1082 78.6024C67.1082 68.7916 59.8545 56.8735 50.9225 51.9681C46.4658 49.5243 42.4194 49.2941 39.5105 50.8879H39.4918C39.4794 50.8879 39.467 50.8938 39.4545 50.9056L36.8066 52.3754L37.739 52.1983C35.8556 54.0578 34.7368 57.0152 34.7368 60.8403C34.7368 70.651 41.9905 82.5692 50.9225 87.4745C54.4282 89.3871 57.6728 89.9538 60.3393 89.334L59.9104 89.9184L62.3532 88.5548C62.3656 88.543 62.378 88.5371 62.3905 88.5371L62.4837 88.484C65.3367 86.8547 67.1082 83.4369 67.1082 78.6024Z" fill="#D4ECFF"/>
<path d="M65.2248 79.6447C65.2248 69.8339 57.9711 57.9158 49.0205 53.0104C44.6384 50.602 40.6479 50.3364 37.7204 51.8593L37.3288 52.0895C37.1796 52.1722 37.0428 52.2607 36.9185 52.3552L37.739 52.1958C35.8556 54.0552 34.7368 57.0126 34.7368 60.8378C34.7368 70.6485 41.9905 82.5666 50.9225 87.472C54.4282 89.3846 57.6728 89.9513 60.3393 89.3315L59.9477 89.8627C63.1923 88.3929 65.2248 84.8334 65.2248 79.6447Z" fill="white"/>
<path d="M64.6817 79.9481C64.6817 89.7412 57.428 93.7257 48.496 88.8203C39.5454 83.915 32.3103 71.9968 32.3103 62.2038C32.3103 52.393 39.5454 48.4262 48.496 53.3139C57.428 58.2193 64.6817 70.1374 64.6817 79.9481Z" fill="#28565D"/>
<path d="M62.6888 78.8511C62.6888 87.4576 56.3302 90.9463 48.4984 86.643C40.648 82.3397 34.2893 71.8914 34.2893 63.2849C34.2893 54.6783 40.648 51.1897 48.4984 55.4929C56.3302 59.7962 62.6888 70.2622 62.6888 78.8511Z" fill="#F1935C"/>
<path d="M49.151 86.3739C41.3193 82.0706 34.9606 71.6046 34.9606 63.0158C34.9606 58.5 36.7134 55.3832 39.5105 54.0728C36.3218 55.1884 34.2893 58.4114 34.2893 63.2814C34.2893 71.888 40.648 82.3362 48.4984 86.6395C52.2092 88.676 55.6029 88.9771 58.139 87.7906C55.6962 88.6406 52.5635 88.2333 49.151 86.3739Z" fill="white"/>
<path d="M46.3677 67.8514L66.9727 52.7102L74.4502 65.0356L50.2649 74.4745L46.3677 67.8514Z" fill="#D4ECFF"/>
<path d="M51.3233 72.6333C51.3233 74.3511 50.0553 75.0418 48.4889 74.174C46.9225 73.324 45.6545 71.2343 45.6545 69.5166C45.6545 67.7988 46.9225 67.1082 48.4889 67.9582C50.0553 68.8259 51.3233 70.9156 51.3233 72.6333Z" fill="#28565D"/>
<path d="M77.3413 80.8127L77.2294 80.7419C76.8191 80.5294 76.4835 79.9096 76.4835 79.396L76.4648 75.624C76.4648 75.0928 76.8005 74.8625 77.2107 75.075L77.3226 75.1459C77.7328 75.3761 78.0685 75.9782 78.0685 76.4918L78.0871 80.2638C78.0871 80.795 77.7515 81.0253 77.3413 80.8127Z" fill="white"/>
<path d="M26.7588 38.0428L37.0914 32.4907L46.8335 37.4876L36.7962 43.3172L26.7588 38.0428Z" fill="#F1935C"/>
<path d="M26.7588 38.0432V49.1473L36.7954 54.6994V43.3177L26.7588 38.0432Z" fill="url(#paint1_linear_466_21752)"/>
<path d="M36.8035 43.3173L46.84 37.4877V48.9249L36.8035 54.699V43.3173Z" fill="#DA6420"/>
<path d="M39.8792 40.1823V40.7659L39.5974 39.8488L39.7031 39.5986L39.8792 40.1823Z" fill="#DA6420"/>
<path d="M32.0452 37.5298V36.8931L33.0033 37.2982L32.0452 37.5298Z" fill="#DA6420"/>
<path d="M35.8185 35.8314L32.0452 37.5028L36.8606 39.7312L38.6575 37.9538L39.8793 40.7659L39.3721 36.309L36.8606 37.3171L35.8185 35.8314Z" fill="#DA6420"/>
<path d="M35.8185 35.2493L32.0452 36.9206L36.8606 39.1491L38.6575 37.3716L39.8793 40.1837L39.3439 36.2839L36.8606 36.7349L35.8185 35.2493Z" fill="white"/>
<path d="M93.3853 74.5765L100.529 70.7374L107.265 74.1926L100.325 78.2235L93.3853 74.5765Z" fill="#A1C1FF"/>
<path d="M93.3853 74.5771V82.2552L100.325 86.0942V78.2242L93.3853 74.5771Z" fill="url(#paint2_linear_466_21752)"/>
<path d="M100.323 78.2242L107.263 74.1932V82.1016L100.323 86.0942V78.2242Z" fill="#A1C1FF"/>
<path d="M102.431 76.0565V76.4601L102.237 75.8259L102.309 75.653L102.431 76.0565Z" fill="#DA6420"/>
<path d="M97.0232 74.2211V73.7809L97.6857 74.061L97.0232 74.2211Z" fill="#DA6420"/>
<path d="M99.6323 73.0483L97.0232 74.204L100.353 75.7449L101.595 74.5159L102.44 76.4603L102.089 73.3785L100.353 74.0756L99.6323 73.0483Z" fill="#DA6420"/>
<path d="M99.6323 72.6449L97.0232 73.8006L100.353 75.3415L101.595 74.1124L102.44 76.0569L102.07 73.3603L100.353 73.6722L99.6323 72.6449Z" fill="#F1935C"/>
<path d="M63.3933 48.9551L68.335 46.2996L72.9943 48.6896L68.1938 51.4779L63.3933 48.9551Z" fill="#A1C1FF"/>
<path d="M63.3933 48.9554V54.2666L68.1938 56.9221V51.4782L63.3933 48.9554Z" fill="url(#paint3_linear_466_21752)"/>
<path d="M68.1921 51.4784L72.9927 48.6901V54.1605L68.1921 56.9223V51.4784Z" fill="#A1C1FF"/>
<path d="M69.6615 49.9813V50.2605L69.5271 49.8218L69.5775 49.7021L69.6615 49.9813Z" fill="#DA6420"/>
<path d="M65.9182 48.7097V48.4052L66.3765 48.5989L65.9182 48.7097Z" fill="#DA6420"/>
<path d="M67.723 47.9009L65.9182 48.7003L68.2215 49.7662L69.0809 48.916L69.6653 50.261L69.4227 48.1293L68.2215 48.6115L67.723 47.9009Z" fill="#DA6420"/>
<path d="M67.723 47.6213L65.9182 48.4207L68.2215 49.4866L69.0809 48.6365L69.6653 49.9815L69.4092 48.1162L68.2215 48.3319L67.723 47.6213Z" fill="#F1935C"/>
<path d="M70.0659 30.51L76.2649 27.1788L82.1096 30.1769L76.0878 33.6746L70.0659 30.51Z" fill="#BECDD0"/>
<path d="M70.0659 30.5107V37.1731L76.0878 40.5043V33.6754L70.0659 30.5107Z" fill="url(#paint4_linear_466_21752)"/>
<path d="M76.0867 33.674L82.1085 30.1763V37.0385L76.0867 40.5029V33.674Z" fill="#28565D"/>
<path d="M77.9364 31.7934V32.1436L77.7673 31.5933L77.8307 31.4432L77.9364 31.7934Z" fill="#DA6420"/>
<path d="M73.2346 30.2044V29.8224L73.8095 30.0655L73.2346 30.2044Z" fill="#28565D"/>
<path d="M75.4986 29.1819L73.2346 30.1847L76.1238 31.5217L77.2019 30.4553L77.935 32.1425L77.6307 29.4684L76.1238 30.0733L75.4986 29.1819Z" fill="#28565D"/>
<path d="M75.4986 28.8333L73.2346 29.836L76.1238 31.1731L77.2019 30.1066L77.935 31.7939L77.6138 29.454L76.1238 29.7246L75.4986 28.8333Z" fill="#4D94A0"/>
<path d="M31.2007 88.9355L37.3996 85.6044L43.2444 88.6024L37.2225 92.1002L31.2007 88.9355Z" fill="#BECDD0"/>
<path d="M31.2007 88.9363V95.5986L37.2225 98.9298V92.1009L31.2007 88.9363Z" fill="url(#paint5_linear_466_21752)"/>
<path d="M37.2217 92.0995L43.2435 88.6018V95.464L37.2217 98.9285V92.0995Z" fill="#28565D"/>
<path d="M39.0787 90.219V90.5691L38.9097 90.0188L38.9731 89.8688L39.0787 90.219Z" fill="#DA6420"/>
<path d="M34.3767 88.6299V88.2479L34.9516 88.491L34.3767 88.6299Z" fill="#28565D"/>
<path d="M36.6407 87.6074L34.3767 88.6102L37.2659 89.9473L38.344 88.8808L39.0771 90.5681L38.7728 87.8939L37.2659 88.4988L36.6407 87.6074Z" fill="#28565D"/>
<path d="M36.6407 87.2588L34.3767 88.2616L37.2659 89.5986L38.344 88.5322L39.0771 90.2194L38.7559 87.8796L37.2659 88.1502L36.6407 87.2588Z" fill="#4D94A0"/>
<path d="M18.9807 69.2611L26.1248 65.422L32.8607 68.8772L25.9207 72.9082L18.9807 69.2611Z" fill="#F1935C"/>
<path d="M18.9807 69.2617V76.9398L25.9207 80.7789V72.9088L18.9807 69.2617Z" fill="url(#paint6_linear_466_21752)"/>
<path d="M25.9182 72.9087L32.8582 68.8777V76.7862L25.9182 80.7788V72.9087Z" fill="#DA6420"/>
<path d="M28.0481 70.7429V71.1465L27.8538 70.5123L27.9266 70.3394L28.0481 70.7429Z" fill="#DA6420"/>
<path d="M22.6404 68.9075V68.4673L23.3029 68.7474L22.6404 68.9075Z" fill="#DA6420"/>
<path d="M25.2495 67.7346L22.6404 68.8903L25.9701 70.4312L27.2126 69.2022L28.0574 71.1466L27.7067 68.0648L25.9701 68.7619L25.2495 67.7346Z" fill="#DA6420"/>
<path d="M25.2495 67.3313L22.6404 68.487L25.9701 70.0279L27.2126 68.7988L28.0574 70.7433L27.6872 68.0467L25.9701 68.3586L25.2495 67.3313Z" fill="white"/>
<path d="M101.16 35.2646L108.304 31.4255L115.04 34.8807L108.1 38.9117L101.16 35.2646Z" fill="#F1935C"/>
<path d="M101.16 35.2653V42.9434L108.1 46.7824V38.9124L101.16 35.2653Z" fill="url(#paint7_linear_466_21752)"/>
<path d="M108.097 38.9122L115.037 34.8812V42.7897L108.097 46.7823V38.9122Z" fill="#DA6420"/>
<path d="M110.216 36.7482V37.1518L110.022 36.5176L110.095 36.3446L110.216 36.7482Z" fill="#DA6420"/>
<path d="M104.809 34.9128V34.4725L105.471 34.7527L104.809 34.9128Z" fill="#DA6420"/>
<path d="M107.418 33.74L104.809 34.8957L108.138 36.4366L109.381 35.2075L110.226 37.152L109.875 34.0702L108.138 34.7673L107.418 33.74Z" fill="#DA6420"/>
<path d="M107.418 33.3365L104.809 34.4922L108.138 36.0332L109.381 34.8041L110.226 36.7486L109.855 34.052L108.138 34.3638L107.418 33.3365Z" fill="white"/>
<path d="M48.9688 97.0825L52.5408 95.163L55.9087 96.8905L52.4387 98.906L48.9688 97.0825Z" fill="#BECDD0"/>
<path d="M48.9688 97.0829V100.922L52.4387 102.841V98.9064L48.9688 97.0829Z" fill="url(#paint8_linear_466_21752)"/>
<path d="M52.4395 98.9072L55.9094 96.8917V100.846L52.4395 102.842V98.9072Z" fill="#28565D"/>
<path d="M53.5079 97.8261V98.0278L53.4109 97.7107L53.4473 97.6243L53.5079 97.8261Z" fill="#DA6420"/>
<path d="M50.8025 96.9048V96.6847L51.1337 96.8248L50.8025 96.9048Z" fill="#DA6420"/>
<path d="M52.1071 96.3237L50.8025 96.9016L52.4674 97.672L53.0886 97.0575L53.511 98.0297L53.3356 96.4888L52.4674 96.8374L52.1071 96.3237Z" fill="#DA6420"/>
<path d="M52.1071 96.1202L50.8025 96.6981L52.4674 97.4685L53.0886 96.854L53.511 97.8263L53.3259 96.478L52.4674 96.6339L52.1071 96.1202Z" fill="#F1935C"/>
<g filter="url(#filter0_i_466_21752)">
<path d="M144.432 31.6785C145.695 32.3338 146.327 33.1929 146.327 34.0518L146.327 122.342C146.327 121.484 145.695 120.625 144.432 119.97V31.6785Z" fill="#FFE4D4" fill-opacity="0.15"/>
</g>
<path d="M145.827 34.0518V34.0517C145.827 33.6038 145.574 33.0782 144.932 32.5815V119.674C145.27 119.87 145.571 120.087 145.827 120.322V34.0518Z" stroke="white"/>
<g filter="url(#filter1_i_466_21752)">
<path d="M146.327 34.0514C146.327 34.9102 145.695 35.7689 144.432 36.4241V124.715C145.695 124.06 146.327 123.201 146.327 122.343V34.0514Z" fill="#FFE4D4" fill-opacity="0.15"/>
</g>
<path d="M144.932 123.812C145.573 123.316 145.827 122.79 145.827 122.343V36.0722C145.571 36.3065 145.27 36.5235 144.932 36.72V123.812Z" stroke="#FFE4D4"/>
<g filter="url(#filter2_i_466_21752)">
<path d="M4.57886 45.5993C3.31567 44.9441 2.684 44.0854 2.68385 43.2266V131.517C2.68369 132.376 3.31536 133.235 4.57886 133.891V45.5993Z" fill="#FFE4D4" fill-opacity="0.15"/>
</g>
<path d="M4.07886 45.8952C3.74025 45.6987 3.43995 45.4817 3.18385 45.2474V131.517C3.18377 131.965 3.4369 132.491 4.07886 132.988V45.8952Z" stroke="white"/>
<g filter="url(#filter3_i_466_21752)">
<path d="M144.424 36.4242L70.2268 74.9106V163.202L144.424 124.715V36.4242Z" fill="#FFE4D4" fill-opacity="0.15"/>
</g>
<path d="M143.924 124.412V37.2468L70.7268 75.2145V162.379L143.924 124.412Z" stroke="#FFE4D4"/>
<g filter="url(#filter4_i_466_21752)">
<path d="M61.0881 74.9116L4.5799 45.6006V133.892L61.0881 163.203V74.9116Z" fill="#FFE4D4" fill-opacity="0.15"/>
</g>
<path d="M60.5881 162.38V75.2155L5.0799 46.4232V133.588L60.5881 162.38Z" stroke="#FFE4D4"/>
<g filter="url(#filter5_i_466_21752)">
<path d="M70.2305 74.9116C67.7038 76.2222 63.6072 76.2222 61.0806 74.9116V163.203C63.6072 164.514 67.7038 164.514 70.2305 163.203V74.9116Z" fill="#FFE4D4" fill-opacity="0.15"/>
</g>
<path d="M69.7305 162.891V75.6853C68.5103 76.1632 67.0735 76.3946 65.6555 76.3946C64.2375 76.3946 62.8007 76.1632 61.5806 75.6853V162.891C62.7199 163.414 64.176 163.686 65.6555 163.686C67.135 163.686 68.5911 163.414 69.7305 162.891Z" stroke="#FFE4D4"/>
<g filter="url(#filter6_i_466_21752)">
<rect width="93.8926" height="73.9654" rx="5" transform="matrix(-0.887687 0.460447 0.887687 0.460447 83.3582 0)" fill="#FFE4D4" fill-opacity="0.15"/>
</g>
<rect x="2.98023e-08" y="0.460447" width="92.8926" height="72.9654" rx="4.5" transform="matrix(-0.887687 0.460447 0.887687 0.460447 82.9494 0.248436)" stroke="#FFE4D4"/>
<defs>
<filter id="filter0_i_466_21752" x="144.432" y="31.6785" width="1.89502" height="90.6647" filterUnits="userSpaceOnUse" color-interpolation-filters="sRGB">
<feFlood flood-opacity="0" result="BackgroundImageFix"/>
<feBlend mode="normal" in="SourceGraphic" in2="BackgroundImageFix" result="shape"/>
<feColorMatrix in="SourceAlpha" type="matrix" values="0 0 0 0 0 0 0 0 0 0 0 0 0 0 0 0 0 0 127 0" result="hardAlpha"/>
<feOffset/>
<feGaussianBlur stdDeviation="9.0843"/>
<feComposite in2="hardAlpha" operator="arithmetic" k2="-1" k3="1"/>
<feColorMatrix type="matrix" values="0 0 0 0 1 0 0 0 0 1 0 0 0 0 1 0 0 0 1 0"/>
<feBlend mode="normal" in2="shape" result="effect1_innerShadow_466_21752"/>
</filter>
<filter id="filter1_i_466_21752" x="144.432" y="34.0514" width="1.89502" height="90.6641" filterUnits="userSpaceOnUse" color-interpolation-filters="sRGB">
<feFlood flood-opacity="0" result="BackgroundImageFix"/>
<feBlend mode="normal" in="SourceGraphic" in2="BackgroundImageFix" result="shape"/>
<feColorMatrix in="SourceAlpha" type="matrix" values="0 0 0 0 0 0 0 0 0 0 0 0 0 0 0 0 0 0 127 0" result="hardAlpha"/>
<feOffset/>
<feGaussianBlur stdDeviation="9.0843"/>
<feComposite in2="hardAlpha" operator="arithmetic" k2="-1" k3="1"/>
<feColorMatrix type="matrix" values="0 0 0 0 1 0 0 0 0 1 0 0 0 0 1 0 0 0 1 0"/>
<feBlend mode="normal" in2="shape" result="effect1_innerShadow_466_21752"/>
</filter>
<filter id="filter2_i_466_21752" x="2.68384" y="43.226" width="1.89502" height="90.6647" filterUnits="userSpaceOnUse" color-interpolation-filters="sRGB">
<feFlood flood-opacity="0" result="BackgroundImageFix"/>
<feBlend mode="normal" in="SourceGraphic" in2="BackgroundImageFix" result="shape"/>
<feColorMatrix in="SourceAlpha" type="matrix" values="0 0 0 0 0 0 0 0 0 0 0 0 0 0 0 0 0 0 127 0" result="hardAlpha"/>
<feOffset/>
<feGaussianBlur stdDeviation="9.0843"/>
<feComposite in2="hardAlpha" operator="arithmetic" k2="-1" k3="1"/>
<feColorMatrix type="matrix" values="0 0 0 0 1 0 0 0 0 1 0 0 0 0 1 0 0 0 1 0"/>
<feBlend mode="normal" in2="shape" result="effect1_innerShadow_466_21752"/>
</filter>
<filter id="filter3_i_466_21752" x="70.2268" y="36.4242" width="74.1973" height="126.778" filterUnits="userSpaceOnUse" color-interpolation-filters="sRGB">
<feFlood flood-opacity="0" result="BackgroundImageFix"/>
<feBlend mode="normal" in="SourceGraphic" in2="BackgroundImageFix" result="shape"/>
<feColorMatrix in="SourceAlpha" type="matrix" values="0 0 0 0 0 0 0 0 0 0 0 0 0 0 0 0 0 0 127 0" result="hardAlpha"/>
<feOffset/>
<feGaussianBlur stdDeviation="9.0843"/>
<feComposite in2="hardAlpha" operator="arithmetic" k2="-1" k3="1"/>
<feColorMatrix type="matrix" values="0 0 0 0 1 0 0 0 0 1 0 0 0 0 1 0 0 0 1 0"/>
<feBlend mode="normal" in2="shape" result="effect1_innerShadow_466_21752"/>
</filter>
<filter id="filter4_i_466_21752" x="4.57983" y="45.6006" width="56.5083" height="117.602" filterUnits="userSpaceOnUse" color-interpolation-filters="sRGB">
<feFlood flood-opacity="0" result="BackgroundImageFix"/>
<feBlend mode="normal" in="SourceGraphic" in2="BackgroundImageFix" result="shape"/>
<feColorMatrix in="SourceAlpha" type="matrix" values="0 0 0 0 0 0 0 0 0 0 0 0 0 0 0 0 0 0 127 0" result="hardAlpha"/>
<feOffset/>
<feGaussianBlur stdDeviation="9.0843"/>
<feComposite in2="hardAlpha" operator="arithmetic" k2="-1" k3="1"/>
<feColorMatrix type="matrix" values="0 0 0 0 1 0 0 0 0 1 0 0 0 0 1 0 0 0 1 0"/>
<feBlend mode="normal" in2="shape" result="effect1_innerShadow_466_21752"/>
</filter>
<filter id="filter5_i_466_21752" x="61.0806" y="74.9116" width="9.1499" height="89.2743" filterUnits="userSpaceOnUse" color-interpolation-filters="sRGB">
<feFlood flood-opacity="0" result="BackgroundImageFix"/>
<feBlend mode="normal" in="SourceGraphic" in2="BackgroundImageFix" result="shape"/>
<feColorMatrix in="SourceAlpha" type="matrix" values="0 0 0 0 0 0 0 0 0 0 0 0 0 0 0 0 0 0 127 0" result="hardAlpha"/>
<feOffset/>
<feGaussianBlur stdDeviation="9.0843"/>
<feComposite in2="hardAlpha" operator="arithmetic" k2="-1" k3="1"/>
<feColorMatrix type="matrix" values="0 0 0 0 1 0 0 0 0 1 0 0 0 0 1 0 0 0 1 0"/>
<feBlend mode="normal" in2="shape" result="effect1_innerShadow_466_21752"/>
</filter>
<filter id="filter6_i_466_21752" x="2.61084" y="1.34863" width="143.805" height="74.5924" filterUnits="userSpaceOnUse" color-interpolation-filters="sRGB">
<feFlood flood-opacity="0" result="BackgroundImageFix"/>
<feBlend mode="normal" in="SourceGraphic" in2="BackgroundImageFix" result="shape"/>
<feColorMatrix in="SourceAlpha" type="matrix" values="0 0 0 0 0 0 0 0 0 0 0 0 0 0 0 0 0 0 127 0" result="hardAlpha"/>
<feOffset/>
<feGaussianBlur stdDeviation="9.0843"/>
<feComposite in2="hardAlpha" operator="arithmetic" k2="-1" k3="1"/>
<feColorMatrix type="matrix" values="0 0 0 0 1 0 0 0 0 1 0 0 0 0 1 0 0 0 1 0"/>
<feBlend mode="normal" in2="shape" result="effect1_innerShadow_466_21752"/>
</filter>
<linearGradient id="paint0_linear_466_21752" x1="72.2845" y1="27.1788" x2="71.8425" y2="120.335" gradientUnits="userSpaceOnUse">
<stop stop-color="white" stop-opacity="0"/>
<stop offset="1" stop-color="#F1935C" stop-opacity="0.7"/>
</linearGradient>
<linearGradient id="paint1_linear_466_21752" x1="31.7773" y1="38.0432" x2="31.7773" y2="54.7019" gradientUnits="userSpaceOnUse">
<stop stop-color="#F1935C"/>
<stop offset="1" stop-color="#DA6420"/>
</linearGradient>
<linearGradient id="paint2_linear_466_21752" x1="96.8554" y1="74.5771" x2="96.8554" y2="86.096" gradientUnits="userSpaceOnUse">
<stop stop-color="#B2D7FF"/>
<stop offset="1" stop-color="#A1C1FF"/>
</linearGradient>
<linearGradient id="paint3_linear_466_21752" x1="65.7937" y1="48.9554" x2="65.7937" y2="56.9233" gradientUnits="userSpaceOnUse">
<stop stop-color="#B2D7FF"/>
<stop offset="1" stop-color="#A1C1FF"/>
</linearGradient>
<linearGradient id="paint4_linear_466_21752" x1="73.077" y1="30.5107" x2="73.077" y2="40.5058" gradientUnits="userSpaceOnUse">
<stop stop-color="#4D94A0"/>
<stop offset="1" stop-color="#34656D"/>
</linearGradient>
<linearGradient id="paint5_linear_466_21752" x1="34.2117" y1="88.9363" x2="34.2117" y2="98.9313" gradientUnits="userSpaceOnUse">
<stop stop-color="#4D94A0"/>
<stop offset="1" stop-color="#34656D"/>
</linearGradient>
<linearGradient id="paint6_linear_466_21752" x1="22.4509" y1="69.2617" x2="22.4509" y2="80.7806" gradientUnits="userSpaceOnUse">
<stop stop-color="#F1935C"/>
<stop offset="1" stop-color="#DA6420"/>
</linearGradient>
<linearGradient id="paint7_linear_466_21752" x1="104.63" y1="35.2653" x2="104.63" y2="46.7842" gradientUnits="userSpaceOnUse">
<stop stop-color="#F1935C"/>
<stop offset="1" stop-color="#DA6420"/>
</linearGradient>
<linearGradient id="paint8_linear_466_21752" x1="50.7038" y1="97.0829" x2="50.7038" y2="102.842" gradientUnits="userSpaceOnUse">
<stop stop-color="#367E89"/>
<stop offset="1" stop-color="#28565D"/>
</linearGradient>
</defs>
</svg>
