<svg width="150" height="182" viewBox="0 0 150 182" fill="none" xmlns="http://www.w3.org/2000/svg">
<path d="M87.9072 107.662C85.3805 106.351 81.2839 106.351 78.7572 107.662L4.55947 146.148C3.29628 146.803 2.66461 147.662 2.66445 148.521C2.6643 149.38 3.29597 150.239 4.55947 150.894L61.0681 180.205C63.5947 181.516 67.6913 181.516 70.218 180.205L144.416 141.719C145.679 141.063 146.311 140.205 146.311 139.346C146.311 138.487 145.679 137.628 144.416 136.973L87.9072 107.662Z" fill="#D4E4FE"/>
<path d="M87.9092 102.18C85.3825 100.869 81.2859 100.869 78.7592 102.18V107.664C81.2859 106.353 85.3825 106.353 87.9092 107.664V102.18Z" fill="#D4E4FE"/>
<path d="M87.9048 102.179L144.413 131.49V136.974L87.9048 107.663V102.179Z" fill="#D4E4FE"/>
<path d="M4.56348 140.665L78.7612 102.179V107.663L4.56348 146.149V140.665Z" fill="#D4E4FE"/>
<path d="M144.416 131.493C145.679 132.149 146.311 133.008 146.311 133.867L146.311 139.35C146.311 138.491 145.679 137.633 144.416 136.977V131.493Z" fill="#D4E4FE"/>
<path d="M146.311 133.865C146.311 134.723 145.679 135.582 144.416 136.237V141.721C145.679 141.066 146.311 140.207 146.311 139.348V133.865Z" fill="#A1C1FF"/>
<path d="M2.66699 143.041C2.66715 142.182 3.29882 141.323 4.56201 140.668V146.152C3.29882 146.807 2.66715 147.666 2.66699 148.525V143.041Z" fill="#D4E4FE"/>
<path d="M4.56201 145.411C3.29882 144.755 2.66715 143.897 2.66699 143.038V148.521C2.66683 149.38 3.29851 150.239 4.56201 150.895V145.411Z" fill="#A1C1FF"/>
<path d="M144.413 136.239L70.2156 174.725V180.209L144.413 141.723V136.239Z" fill="#A1C1FF"/>
<path d="M61.0701 174.725L4.56149 145.414V150.898L61.0701 180.209V174.725Z" fill="#A1C1FF"/>
<path d="M70.2139 174.725C67.6872 176.035 63.5906 176.035 61.0639 174.725V180.209C63.5906 181.519 67.6872 181.519 70.2139 180.209V174.725Z" fill="#A1C1FF"/>
<rect width="93.893" height="73.9657" rx="7.86205" transform="matrix(-0.887688 0.460445 0.887688 0.460445 83.3479 99.6592)" fill="#DEEFFF"/>
<path d="M87.9179 95.6009C85.3912 94.2903 81.2947 94.2903 78.768 95.6009L4.57022 134.087C3.30703 134.743 2.67535 135.601 2.6752 136.46C2.67504 137.319 3.30671 138.178 4.57022 138.833L61.0788 168.144C63.6055 169.455 67.7021 169.455 70.2288 168.144L144.427 129.658C145.69 129.003 146.321 128.144 146.322 127.285C146.322 126.426 145.69 125.567 144.427 124.912L87.9179 95.6009Z" fill="#D4E4FE"/>
<path d="M87.9199 90.1192C85.3932 88.8086 81.2966 88.8086 78.7699 90.1192V95.6031C81.2966 94.2925 85.3932 94.2925 87.9199 95.6031V90.1192Z" fill="#D4E4FE"/>
<path d="M87.9121 90.1183L144.421 119.429V124.913L87.9121 95.6022V90.1183Z" fill="#D4E4FE"/>
<path d="M4.56738 128.605L78.7651 90.1183V95.6022L4.56738 134.089V128.605Z" fill="#D4E4FE"/>
<path d="M144.427 119.431C145.69 120.086 146.322 120.945 146.322 121.804L146.322 127.288C146.321 126.429 145.69 125.57 144.427 124.915V119.431Z" fill="#D4E4FE"/>
<path d="M146.322 121.804C146.321 122.663 145.69 123.521 144.427 124.177V129.66C145.69 129.005 146.321 128.147 146.322 127.288V121.804Z" fill="#A1C1FF"/>
<path d="M2.67798 130.978C2.67813 130.12 3.30981 129.261 4.573 128.606V134.09C3.30981 134.745 2.67813 135.603 2.67798 136.462V130.978Z" fill="#D4E4FE"/>
<path d="M4.573 133.35C3.30981 132.695 2.67813 131.836 2.67798 130.977V136.461C2.67782 137.32 3.30949 138.179 4.573 138.834V133.35Z" fill="#A1C1FF"/>
<path d="M144.421 124.178L70.2229 162.665V168.149L144.421 129.662V124.178Z" fill="#A1C1FF"/>
<path d="M61.0811 162.661L4.57248 133.349V138.833L61.0811 168.144V162.661Z" fill="#A1C1FF"/>
<path d="M70.2249 162.664C67.6982 163.975 63.6016 163.975 61.0749 162.664V168.148C63.6016 169.459 67.6982 169.459 70.2249 168.148V162.664Z" fill="#A1C1FF"/>
<rect width="93.893" height="73.9657" rx="7.86205" transform="matrix(-0.887688 0.460445 0.887688 0.460445 83.3479 87.7472)" fill="#DEEFFF"/>
<path d="M85.8894 69.683L74.4701 63.2693L85.8894 56.8828L97.3086 63.2693L85.8894 69.683Z" fill="url(#paint0_linear_466_22039)"/>
<path d="M85.8894 69.4102L74.7226 63.1329L74.4701 63.2694L85.8894 69.6832L97.3086 63.2694L97.0561 63.1329L85.8894 69.4102Z" fill="white"/>
<path d="M97.3086 100.469L85.8894 106.883V69.6832L97.3086 63.2694V100.469Z" fill="url(#paint1_linear_466_22039)"/>
<path d="M85.8894 106.883L74.4702 100.469V63.2694L85.8894 69.6832V106.883Z" fill="url(#paint2_linear_466_22039)"/>
<path d="M70.9885 88.8953L59.5692 82.4815L70.9885 76.0677L82.4077 82.4815L70.9885 88.8953Z" fill="url(#paint3_linear_466_22039)"/>
<path opacity="0.3" d="M70.9886 86.5481L63.7218 82.4815L70.9886 78.3876L78.2554 82.4815L70.9886 86.5481Z" fill="url(#paint4_linear_466_22039)"/>
<path d="M70.9885 88.6223L59.8218 82.345L59.5692 82.4814L70.9885 88.8952L82.4077 82.4814L82.1552 82.345L70.9885 88.6223Z" fill="white"/>
<path d="M82.4077 108.846L70.9885 115.26V88.8952L82.4077 82.4814V108.846Z" fill="url(#paint5_linear_466_22039)"/>
<path d="M70.9888 115.26L59.5695 108.846V82.4814L70.9888 88.8952V115.26Z" fill="url(#paint6_linear_466_22039)"/>
<path d="M70.9885 79.2907L59.5692 72.8769L70.9885 66.4905L82.4077 72.8769L70.9885 79.2907Z" fill="url(#paint7_linear_466_22039)"/>
<path d="M70.9885 79.0177L59.8218 72.7677L59.5692 72.8769L70.9885 79.2906L82.4077 72.8769L82.1552 72.7677L70.9885 79.0177Z" fill="white"/>
<path d="M82.4077 77.4075L70.9885 83.8213V79.2907L82.4077 72.877V77.4075Z" fill="url(#paint8_linear_466_22039)"/>
<path d="M70.9888 83.8213L59.5695 77.4075V72.877L70.9888 79.2907V83.8213Z" fill="url(#paint9_linear_466_22039)"/>
<path d="M56.091 100.468L44.6999 94.0547L56.091 87.6682L67.5103 94.0547L56.091 100.468Z" fill="url(#paint10_linear_466_22039)"/>
<path d="M56.091 100.223L44.9243 93.9456L44.6999 94.0547L56.091 100.468L67.5103 94.0547L67.2858 93.9456L56.091 100.223Z" fill="white"/>
<path d="M67.5103 117.254L56.091 123.64V100.469L67.5103 94.0548V117.254Z" fill="url(#paint11_linear_466_22039)"/>
<path d="M56.0911 123.64L44.6999 117.254V94.0548L56.0911 100.469V123.64Z" fill="url(#paint12_linear_466_22039)"/>
<path d="M41.1975 119.218L29.8063 112.805L41.1975 106.391L52.6167 112.805L41.1975 119.218Z" fill="url(#paint13_linear_466_22039)"/>
<path d="M41.1975 119.218L29.8063 112.805L41.1975 106.391L52.6167 112.805L41.1975 119.218Z" fill="url(#paint14_linear_466_22039)"/>
<path d="M41.1975 118.946L30.0308 112.668L29.8063 112.805L41.1975 119.218L52.6167 112.805L52.3922 112.668L41.1975 118.946Z" fill="white"/>
<path d="M52.6167 125.632L41.1975 132.046V119.218L52.6167 112.805V125.632Z" fill="url(#paint15_linear_466_22039)"/>
<path d="M52.6167 125.632L41.1975 132.046V119.218L52.6167 112.805V125.632Z" fill="url(#paint16_linear_466_22039)"/>
<path d="M41.1978 132.046L29.8066 125.632V112.805L41.1978 119.218V132.046Z" fill="url(#paint17_linear_466_22039)"/>
<path d="M26.2929 125.112L14.9017 118.698L26.2929 112.285L37.7122 118.698L26.2929 125.112Z" fill="url(#paint18_linear_466_22039)"/>
<path d="M26.2929 124.839L15.1262 118.562L14.9017 118.698L26.2929 125.112L37.7122 118.698L37.4877 118.562L26.2929 124.839Z" fill="white"/>
<path d="M37.7122 134.009L26.2929 140.423V125.112L37.7122 118.698V134.009Z" fill="url(#paint19_linear_466_22039)"/>
<path d="M26.293 140.423L14.9018 134.009V118.698L26.293 125.112V140.423Z" fill="url(#paint20_linear_466_22039)"/>
<path d="M74.4554 68.6588C74.4554 68.6588 74.6518 68.8499 74.8762 69.0955C75.0726 69.3411 75.6618 69.6959 75.9143 69.8324C76.1668 69.9961 77.3172 70.8422 77.5416 71.661C77.7941 72.4798 76.9805 72.5889 76.1388 72.4525C75.2971 72.316 74.5115 71.5518 74.287 71.2789C74.0625 71.006 73.277 70.4055 72.2669 69.887C71.2288 69.3684 71.846 68.6861 71.846 68.6861L74.4554 68.6588Z" fill="#60350E"/>
<path d="M66.8509 71.1152C66.8509 71.1152 66.6825 71.4973 66.6264 71.9613C66.5703 72.4526 66.5142 73.4897 66.4861 73.7899C66.4581 74.0901 66.43 74.8543 66.9912 75.5639C67.5523 76.2735 67.8329 76.5465 68.5624 76.2735C69.2919 76.0006 69.2638 74.7997 69.1516 74.172C69.0113 73.5716 68.8991 72.1796 68.8991 72.0432C68.9271 71.9067 68.871 71.8248 68.871 71.8248L66.8509 71.1152Z" fill="#60350E"/>
<path d="M76.98 54.5485C76.98 54.5485 76.8116 60.0343 75.521 62.9546C75.521 62.9546 74.5671 65.4928 74.4548 68.5496C74.4548 68.5496 74.6512 69.0681 74.3426 69.5048C74.062 69.9415 72.1261 70.3236 71.7894 68.9317C71.4808 67.5125 71.593 64.8924 71.9578 63.8007C72.2944 62.709 71.8175 59.7068 71.8175 59.7068C71.8175 59.7068 71.3124 60.0343 70.611 62.1904C69.9096 64.3465 69.4046 65.1653 69.1801 65.7657C68.9276 66.3662 68.7312 70.0507 68.8715 71.8247C68.8715 71.8247 67.3003 72.043 66.8514 71.3334C66.4025 70.5965 66.2622 66.8575 66.3744 65.6566C66.4866 64.4557 66.9917 60.6074 66.9356 59.4339C66.8514 58.233 66.5989 57.2777 66.8794 56.1042C67.16 54.9033 75.4088 52.2832 75.4088 52.2832L76.98 54.5485Z" fill="#333333"/>
<path d="M66.9356 59.4341C66.8514 58.2332 66.5989 57.278 66.8794 56.1044C66.9917 55.6404 68.2262 54.9854 69.7132 54.3577C72.2383 54.1393 75.4368 53.8664 75.6613 53.921C75.8577 53.9483 76.3627 54.1393 76.8116 54.3031L76.98 54.5487C76.98 54.5487 76.98 54.8762 76.9239 55.4221C76.3347 55.6131 75.2124 55.4221 75.2124 55.4221C75.044 55.8042 74.062 57.1688 72.8556 57.7693C71.6211 58.3424 68.0578 58.1514 67.8614 58.3697C67.637 58.588 67.6089 61.5902 67.637 61.9723C67.665 62.3544 67.3003 64.7562 66.9636 66.885C66.6269 68.9865 67.1319 71.5247 67.16 71.6066C67.0291 71.5338 66.9262 71.4428 66.8514 71.3337C66.4025 70.5968 66.2622 66.8577 66.3744 65.6568C66.4866 64.4559 66.9917 60.6077 66.9356 59.4341Z" fill="#222222"/>
<path d="M74.231 36.6173C74.231 36.6173 76.0547 37.0267 76.6719 37.1632C76.7561 37.1905 76.8403 37.2723 76.8964 37.3542C77.0648 37.7909 77.5137 39.1555 77.177 41.1479C76.7561 43.5769 76.8964 45.2145 76.8964 45.2145L77.7381 49.4994C77.7381 49.4994 78.8043 53.566 78.7201 53.6752C78.6079 53.7844 76.2511 55.5311 75.5216 55.2855C74.7921 55.0398 75.0446 54.6304 75.0446 54.6304C75.0446 54.6304 74.4274 57.6053 71.79 57.578C69.1527 57.5507 66.9923 57.5507 66.5433 56.5136C66.0944 55.4765 66.6836 51.1097 67.1325 49.3903C67.6095 47.6435 68.7037 44.2047 68.7037 44.2047L64.8599 40.0562L68.1426 37.5998C68.1426 37.5998 68.9282 36.1533 69.2649 35.9896C69.6016 35.7985 69.7699 35.9623 69.7699 35.9623L74.231 36.6173Z" fill="#B2D7FF"/>
<path d="M75.4912 54.3571C75.4631 54.4936 75.5753 54.712 76.0523 54.8757C76.5573 55.0395 77.8199 54.3026 78.6335 53.7567C78.2127 54.0842 76.1926 55.5034 75.5192 55.2851C75.3696 55.2487 75.2573 55.1941 75.1825 55.1213C75.3509 54.7938 75.4351 54.5209 75.4912 54.3571Z" fill="url(#paint21_linear_466_22039)"/>
<path d="M66.5687 56.1581C67.0456 57.2499 69.3183 57.2499 72.0959 57.2771C72.8254 57.2771 73.3865 57.0861 73.8354 56.7859C73.3585 57.2499 72.6851 57.5774 71.7873 57.5774C69.1499 57.5501 66.9895 57.5501 66.5406 56.513C66.4003 56.1582 66.3723 55.4758 66.4003 54.6298C66.4003 55.3121 66.4284 55.8579 66.5687 56.1581Z" fill="url(#paint22_linear_466_22039)"/>
<path d="M69.3482 35.9624C69.3482 35.9624 68.6467 36.7539 69.6287 37.8183C70.2179 38.4733 71.256 39.8925 72.1258 41.3663C72.687 42.2943 73.192 42.7856 73.4725 43.577C73.4725 43.577 73.5006 42.6491 73.5567 41.1753C73.5848 39.8107 73.6128 38.3914 73.5567 38.0366C73.4164 37.2997 70.0776 35.5803 69.3482 35.9624Z" fill="#F0F6FF"/>
<path d="M71.846 38.3369C71.846 38.3369 72.2108 38.5552 72.323 38.5279C72.4352 38.5006 72.828 38.1458 72.828 38.1458C72.828 38.1458 73.782 38.1458 73.8942 37.7364C74.0064 37.327 74.0625 36.9449 74.1467 36.7266C74.2589 36.5082 74.6798 35.5257 74.6798 35.1163C74.6798 34.7069 74.6517 33.9973 74.8481 33.6152C75.0165 33.2331 75.269 29.4122 71.4532 29.5213C67.6655 29.6305 68.8439 33.4515 68.8439 33.4515C68.8439 33.4515 68.5633 33.5606 68.7317 34.0519C68.9 34.5432 68.9561 34.5978 69.0403 34.8434C69.1245 35.089 69.1525 35.2528 69.4051 35.4438L69.4612 35.9078C69.4612 35.9078 69.2928 36.5901 69.7417 37.2724C70.2187 37.9548 71.846 38.3369 71.846 38.3369Z" fill="#FCD1C5"/>
<path d="M76.7556 37.2174C76.7556 37.2174 77.1765 37.272 78.4952 40.4925C79.2247 42.2938 80.3469 44.1497 80.5994 45.4871C80.8239 46.7971 80.6836 48.2436 80.4311 48.3255C80.1786 48.4347 75.437 50.1541 73.978 50.7C73.8938 50.7272 73.8096 50.6727 73.7816 50.5908L73.3888 48.3801L76.3067 47.2611C76.3067 47.2611 76.8679 46.6061 77.3729 46.3604C77.3729 46.3604 76.8118 45.296 76.8398 45.0231C76.8679 44.7229 76.7837 41.748 77.1204 40.5471C77.4571 39.3462 76.7556 37.2174 76.7556 37.2174Z" fill="#5180DD"/>
<path d="M75.0439 45.7059C75.0439 45.7059 75.4647 45.4603 75.5489 45.4057C75.6611 45.3784 76.1942 45.1873 76.3064 45.1601C76.3625 45.1055 76.6992 45.1328 76.8395 45.1601C76.8956 45.1601 76.9518 45.1873 76.9798 45.2419C77.092 45.4603 77.4568 46.1153 77.4007 46.3609C77.4007 46.3609 76.4467 46.9614 76.3345 47.2343L76.1661 47.2616C76.1661 47.2616 75.5208 45.897 75.0439 45.7059Z" fill="#FCD1C5"/>
<path d="M67.1325 49.3903C67.2447 48.9536 67.4131 48.4624 67.5534 47.9165L73.5015 50.3728C73.5015 50.3728 71.7339 52.5017 68.6195 52.3652C67.7498 52.3379 67.1325 52.0377 66.6836 51.7648C66.8239 50.8368 66.9922 49.9634 67.1325 49.3903Z" fill="#648FE4"/>
<path d="M64.8595 40.056C64.8595 40.056 66.4026 40.2471 67.6652 42.2121C68.9277 44.1499 69.8536 46.4152 69.8536 46.4152L69.9097 46.6608C70.022 47.3159 70.7515 47.698 71.3687 47.425C72.7155 46.8519 74.6794 45.9785 75.0442 45.7056C75.0442 45.7056 76.2226 46.3606 76.5593 47.8617C76.8118 49.0353 76.7557 49.0626 76.7557 49.0626C76.7557 49.0626 71.4809 51.437 69.4608 51.4098C67.4127 51.3825 64.8314 44.8868 64.5508 43.5495C64.2703 42.2122 63.9616 40.4381 64.8595 40.056Z" fill="#24126A"/>
<path d="M64.8595 40.056C64.8595 40.056 66.4026 40.2471 67.6652 42.2121C68.9277 44.1499 69.8536 46.4152 69.8536 46.4152L69.9097 46.6608C70.022 47.3159 70.7515 47.698 71.3687 47.425C72.7155 46.8519 74.6794 45.9785 75.0442 45.7056C75.0442 45.7056 76.2226 46.3606 76.5593 47.8617C76.8118 49.0353 76.7557 49.0626 76.7557 49.0626C76.7557 49.0626 71.4809 51.437 69.4608 51.4098C67.4127 51.3825 64.8314 44.8868 64.5508 43.5495C64.2703 42.2122 63.9616 40.4381 64.8595 40.056Z" fill="#648FE4"/>
<path d="M70.6113 47.7253C70.6113 47.7253 69.966 48.3258 69.6574 47.9982C69.3768 47.6707 69.461 47.6434 69.461 47.6434C69.461 47.6434 68.8718 47.6434 68.7876 47.2613C68.7034 46.9065 68.4229 47.0976 68.3948 46.6882C68.3948 46.2788 68.8999 46.3607 68.8999 46.3607L70.6113 47.7253Z" fill="#453C9E"/>
<path d="M71.4243 47.3977C71.4243 47.3977 71.2279 47.2339 71.0035 47.0429C70.779 46.8518 70.3862 46.0603 70.3301 45.9785C70.2459 45.9239 69.4603 45.3234 69.0675 45.3234C68.7028 45.2962 68.9833 45.7055 69.0675 45.7874C69.1517 45.842 69.5164 46.0058 69.5164 46.0058C69.5164 46.0058 69.9092 46.3333 69.9653 46.3879C69.9934 46.4151 68.8992 46.306 68.7028 46.4152C68.5344 46.5243 68.5625 46.7972 68.7028 46.8518C68.815 46.9337 68.9272 46.9337 68.9272 46.9337C68.9272 46.9337 68.7869 47.2612 69.1236 47.425C69.4603 47.5614 69.5445 47.4796 69.5445 47.4796C69.5445 47.4796 69.5725 48.0527 70.1337 47.9435L71.4243 47.3977Z" fill="#FCD1C5"/>
<path d="M74.9322 31.65C74.9322 31.65 75.4091 33.1784 74.1185 32.7417C72.7998 32.305 71.6214 31.5954 71.2286 31.8683C70.92 32.0867 70.92 32.7144 70.9481 33.0146C70.9481 33.1238 70.92 33.2239 70.8639 33.3148L70.4711 33.8607C70.4337 33.9153 70.415 33.9789 70.415 34.0517L70.3869 34.4338C70.3869 34.543 70.3027 34.6249 70.1905 34.6249H70.1063C70.0222 34.6249 69.9099 34.5703 69.9099 34.4611L69.7977 33.9153C69.7977 33.9153 69.4891 33.1511 68.8438 33.4513C68.8438 33.4513 68.4229 32.8781 68.5632 31.6773C68.7035 30.4491 69.2646 29.1936 71.7056 29.0026C74.1466 28.7843 74.9322 31.65 74.9322 31.65Z" fill="#333333"/>
<path d="M71.1727 39.7015L71.5655 39.4012C71.5655 39.4012 71.9022 39.6742 72.0144 39.9744C72.1547 40.2746 72.0144 41.2026 72.0144 41.2026L72.1266 41.3663L72.2669 41.1207L72.3792 40.029C72.3792 40.029 72.2669 39.2375 72.2389 39.2102C72.2389 39.1829 71.5374 39.2921 71.5374 39.2921C71.5374 39.2921 71.313 39.4558 71.1727 39.7015Z" fill="#C4CCD6"/>
<path d="M72.9403 38.6099C72.9403 38.6099 73.3331 38.6372 73.5015 38.7736C73.5015 38.7736 73.1087 38.8009 73.0245 38.8009C72.9684 38.8009 72.9403 38.6099 72.9403 38.6099Z" fill="#C4CCD6"/>
<path d="M72.21 38.6913L71.5366 39.2918C71.5366 39.2918 72.1258 39.5374 72.2942 40.056C72.2942 40.056 72.9956 40.1651 73.0517 39.9195C73.1359 39.6739 73.0517 39.0461 73.1359 38.7459C73.2201 38.473 72.21 38.6913 72.21 38.6913Z" fill="#39C0EA"/>
<path d="M73.024 39.9196C73.024 39.9196 73.1643 40.4381 73.2766 40.6565C73.4168 40.8748 73.5571 41.0932 73.5571 41.0932V44.1772C73.5571 44.1772 72.3787 41.8574 72.1262 41.3661C72.1262 41.3661 72.1823 40.2471 72.2946 40.056C72.3787 39.8377 73.024 39.9196 73.024 39.9196Z" fill="#39C0EA"/>
<path d="M69.9094 35.389C70.695 37.5179 72.8274 38.1456 72.8274 38.1456C72.8274 38.1456 72.4346 38.5004 72.3224 38.5277C72.2101 38.555 71.8454 38.3366 71.8454 38.3366C71.8454 38.3366 70.2181 37.9545 69.7411 37.2722C69.2922 36.5899 69.4605 35.9076 69.4605 35.9076L69.4044 35.4436C69.7411 35.5528 69.9094 35.389 69.9094 35.389Z" fill="#E2B1A6"/>
<path d="M68.1702 37.8724C68.1702 37.8724 68.4789 38.8823 68.5069 38.9368C68.563 38.9641 69.2645 38.8823 69.2645 38.8823L68.9278 39.5373C68.9278 39.5373 72.5191 43.2764 73.2766 45.3233C73.2766 45.3233 71.5651 42.7578 68.563 39.6738L68.9839 39.046L68.2544 39.2098L68.1702 37.8724Z" fill="#0F59EA"/>
<path d="M74.0901 36.9994L74.2865 37.1904L74.062 37.4088L74.7354 37.9819C74.7354 37.9819 74.9318 42.1031 74.1181 44.8324C74.1181 44.8324 75.2404 42.3214 74.9879 37.8727L74.2584 37.4088L74.4829 37.1904L74.0901 36.9994Z" fill="#0F59EA"/>
<path d="M71.8171 59.7066L72.743 58.7513C72.3221 59.3245 72.7991 62.0538 72.8552 62.6542C72.9113 63.2819 72.3502 64.5647 72.1538 66.0658C71.9574 67.5669 72.3782 69.6957 72.3782 69.6957C72.0977 69.5592 71.9013 69.3136 71.789 68.9315C71.4804 67.5123 71.5926 64.8922 71.9574 63.8005C72.2941 62.7088 71.8171 59.7066 71.8171 59.7066Z" fill="#222222"/>
<path d="M69.4604 51.41C67.4123 51.3827 64.831 44.887 64.5504 43.5497C64.4943 43.3132 64.4476 43.0766 64.4102 42.8401C64.4102 42.8674 64.9432 44.2593 65.4483 45.5148C65.9533 46.7702 68.6748 50.5639 70.0777 50.8095C71.3122 51.0279 75.8294 48.9809 76.6992 48.5988C76.7833 49.0355 76.7553 49.0628 76.7553 49.0628C76.7553 49.0628 71.4805 51.4373 69.4604 51.41Z" fill="url(#paint23_linear_466_22039)"/>
<path d="M89.3567 58.6932C89.3567 58.6932 89.5531 58.8843 89.7776 59.1299C89.974 59.3755 90.5632 59.7304 90.8157 59.8668C91.0682 60.0306 92.2185 60.8766 92.443 61.6954C92.6955 62.5142 91.8819 62.6234 91.0401 62.4869C90.1984 62.3504 89.4128 61.5862 89.1884 61.3133C88.9639 61.0404 88.1783 60.44 87.1683 59.9214C86.1302 59.4028 86.7474 58.7205 86.7474 58.7205L89.3567 58.6932Z" fill="#367E89"/>
<path d="M81.7523 61.1497C81.7523 61.1497 81.5839 61.5317 81.5278 61.9957C81.4717 62.487 81.4156 63.5241 81.3875 63.8243C81.3595 64.1245 81.3314 64.8887 81.8925 65.5983C82.4537 66.308 82.7343 66.5809 83.4637 66.308C84.1932 66.035 84.1652 64.8342 84.0529 64.2064C83.9126 63.606 83.8004 62.2141 83.8004 62.0776C83.8285 61.9411 83.7724 61.8593 83.7724 61.8593L81.7523 61.1497Z" fill="#367E89"/>
<path d="M91.8813 44.583C91.8813 44.583 91.713 50.0688 90.4224 52.9891C90.4224 52.9891 89.4684 55.5274 89.3562 58.5841C89.3562 58.5841 89.5526 59.1027 89.244 59.5394C88.9634 59.9761 87.0275 60.3582 86.6908 58.9662C86.3822 57.547 86.4944 54.9269 86.8591 53.8352C87.1958 52.7435 86.7188 49.7413 86.7188 49.7413C86.7188 49.7413 86.2138 50.0688 85.5124 52.225C84.811 54.3811 84.3059 55.1999 84.0815 55.8003C83.829 56.4007 83.6326 60.0852 83.7728 61.8592C83.7728 61.8592 82.2016 62.0776 81.7527 61.368C81.3038 60.6311 81.1635 56.892 81.2758 55.6911C81.388 54.4902 81.893 50.642 81.8369 49.4684C81.7527 48.2675 81.5002 47.3123 81.7808 46.1387C82.0614 44.9378 90.3101 42.3177 90.3101 42.3177L91.8813 44.583Z" fill="#333333"/>
<path d="M81.8369 49.4685C81.7527 48.2677 81.5002 47.3124 81.7808 46.1388C81.893 45.6749 83.1275 45.0198 84.6146 44.3921C87.1397 44.1738 90.3382 43.9008 90.5627 43.9554C90.7591 43.9827 91.2641 44.1738 91.713 44.3375L91.8813 44.5832C91.8813 44.5832 91.8813 44.9107 91.8252 45.4565C91.236 45.6476 90.1138 45.4565 90.1138 45.4565C89.9454 45.8386 88.9634 47.2032 87.757 47.8037C86.5224 48.3768 82.9592 48.1858 82.7628 48.4041C82.5383 48.6225 82.5103 51.6246 82.5383 52.0067C82.5664 52.3888 82.2017 54.7906 81.865 56.9194C81.5283 59.0209 82.0333 61.5592 82.0614 61.641C81.9304 61.5682 81.8276 61.4773 81.7527 61.3681C81.3038 60.6312 81.1635 56.8921 81.2758 55.6912C81.388 54.4904 81.893 50.6421 81.8369 49.4685Z" fill="#222222"/>
<path d="M89.1324 26.6517C89.1324 26.6517 90.9561 27.0611 91.5733 27.1976C91.6575 27.2249 91.7417 27.3068 91.7978 27.3886C91.9661 27.8253 92.415 29.19 92.0783 31.1823C91.6575 33.6114 91.7978 35.2489 91.7978 35.2489L92.6395 39.5338C92.6395 39.5338 93.7057 43.6004 93.6215 43.7096C93.5093 43.8188 91.1525 45.5655 90.423 45.3199C89.6935 45.0742 89.946 44.6649 89.946 44.6649C89.946 44.6649 89.3288 47.6398 86.6914 47.6125C84.054 47.5852 81.8936 47.5852 81.4447 46.548C80.9958 45.5109 81.585 41.1441 82.0339 39.4247C82.5109 37.678 83.6051 34.2391 83.6051 34.2391L79.7613 30.0906L83.044 27.6343C83.044 27.6343 83.8296 26.1878 84.1662 26.024C84.5029 25.833 84.6713 25.9967 84.6713 25.9967L89.1324 26.6517Z" fill="#453C9E"/>
<path d="M90.3925 44.3914C90.3645 44.5279 90.4767 44.7463 90.9537 44.91C91.4587 45.0738 92.7213 44.3369 93.5349 43.791C93.1141 44.1185 91.094 45.5377 90.4206 45.3194C90.2709 45.283 90.1587 45.2284 90.0839 45.1556C90.2522 44.8281 90.3364 44.5552 90.3925 44.3914Z" fill="url(#paint24_linear_466_22039)"/>
<path d="M81.47 46.1924C81.947 47.2842 84.2196 47.2842 86.9973 47.3114C87.7268 47.3114 88.2879 47.1204 88.7368 46.8202C88.2598 47.2842 87.5865 47.6117 86.6887 47.6117C84.0513 47.5844 81.8909 47.5844 81.442 46.5473C81.3017 46.1925 81.2736 45.5101 81.3017 44.6641C81.3017 45.3464 81.3297 45.8922 81.47 46.1924Z" fill="url(#paint25_linear_466_22039)"/>
<path d="M84.2495 25.9968C84.2495 25.9968 83.5481 26.7883 84.5301 27.8527C85.1193 28.5078 86.1574 29.927 87.0272 31.4008C87.5883 32.3287 88.0933 32.82 88.3739 33.6115C88.3739 33.6115 88.402 32.6835 88.4581 31.2097C88.4861 29.8451 88.5142 28.4259 88.4581 28.0711C88.3178 27.3342 84.979 25.6147 84.2495 25.9968Z" fill="#F0F6FF"/>
<path d="M86.7474 28.3713C86.7474 28.3713 87.1121 28.5896 87.2243 28.5623C87.3366 28.535 87.7294 28.1802 87.7294 28.1802C87.7294 28.1802 88.6833 28.1802 88.7956 27.7708C88.9078 27.3614 88.9639 26.9794 89.0481 26.761C89.1603 26.5427 89.5811 25.5601 89.5811 25.1507C89.5811 24.7414 89.5531 24.0317 89.7495 23.6497C89.9178 23.2676 90.1703 19.4466 86.3546 19.5558C82.5669 19.6649 83.7453 23.4859 83.7453 23.4859C83.7453 23.4859 83.4647 23.5951 83.633 24.0863C83.8014 24.5776 83.8575 24.6322 83.9417 24.8778C84.0259 25.1235 84.0539 25.2872 84.3064 25.4783L84.3625 25.9422C84.3625 25.9422 84.1942 26.6246 84.6431 27.3069C85.1201 27.9892 86.7474 28.3713 86.7474 28.3713Z" fill="#FCD1C5"/>
<path d="M91.657 27.2518C91.657 27.2518 92.0779 27.3064 93.3965 30.5269C94.126 32.3283 95.2483 34.1841 95.5008 35.5215C95.7253 36.8315 95.585 38.278 95.3325 38.3599C95.08 38.4691 90.3383 40.1885 88.8794 40.7344C88.7952 40.7617 88.711 40.7071 88.6829 40.6252L88.2902 38.4145L91.2081 37.2955C91.2081 37.2955 91.7692 36.6405 92.2743 36.3949C92.2743 36.3949 91.7131 35.3304 91.7412 35.0575C91.7692 34.7573 91.6851 31.7824 92.0217 30.5815C92.3584 29.3807 91.657 27.2518 91.657 27.2518Z" fill="#24126A"/>
<path d="M89.9452 35.7403C89.9452 35.7403 90.3661 35.4947 90.4503 35.4401C90.5625 35.4128 91.0956 35.2218 91.2078 35.1945C91.2639 35.1399 91.6006 35.1672 91.7409 35.1945C91.797 35.1945 91.8531 35.2218 91.8812 35.2764C91.9934 35.4947 92.3581 36.1497 92.302 36.3954C92.302 36.3954 91.3481 36.9958 91.2359 37.2687L91.0675 37.296C91.0675 37.296 90.4222 35.9314 89.9452 35.7403Z" fill="#FCD1C5"/>
<path d="M82.0339 39.4247C82.1461 38.988 82.3144 38.4968 82.4547 37.9509L88.4028 40.4073C88.4028 40.4073 86.6352 42.5361 83.5209 42.3996C82.6511 42.3723 82.0339 42.0721 81.585 41.7992C81.7253 40.8712 81.8936 39.9979 82.0339 39.4247Z" fill="#24126A"/>
<path d="M79.7608 30.0905C79.7608 30.0905 81.304 30.2815 82.5665 32.2466C83.8291 34.1843 84.755 36.4496 84.755 36.4496L84.8111 36.6953C84.9233 37.3503 85.6528 37.7324 86.2701 37.4595C87.6168 36.8863 89.5808 36.013 89.9455 35.74C89.9455 35.74 91.124 36.395 91.4606 37.8961C91.7132 39.0697 91.657 39.097 91.657 39.097C91.657 39.097 86.3823 41.4715 84.3622 41.4442C82.314 41.4169 79.7328 34.9212 79.4522 33.5839C79.1716 32.2466 78.863 30.4726 79.7608 30.0905Z" fill="#24126A"/>
<path d="M79.7608 30.0905C79.7608 30.0905 81.304 30.2815 82.5665 32.2466C83.8291 34.1843 84.755 36.4496 84.755 36.4496L84.8111 36.6953C84.9233 37.3503 85.6528 37.7324 86.2701 37.4595C87.6168 36.8863 89.5808 36.013 89.9455 35.74C89.9455 35.74 91.124 36.395 91.4606 37.8961C91.7132 39.0697 91.657 39.097 91.657 39.097C91.657 39.097 86.3823 41.4715 84.3622 41.4442C82.314 41.4169 79.7328 34.9212 79.4522 33.5839C79.1716 32.2466 78.863 30.4726 79.7608 30.0905Z" fill="#4846A5"/>
<path d="M85.5127 37.7597C85.5127 37.7597 84.8674 38.3602 84.5587 38.0327C84.2782 37.7052 84.3624 37.6779 84.3624 37.6779C84.3624 37.6779 83.7732 37.6779 83.689 37.2958C83.6048 36.941 83.3242 37.132 83.2962 36.7226C83.2962 36.3132 83.8012 36.3951 83.8012 36.3951L85.5127 37.7597Z" fill="#453C9E"/>
<path d="M86.3257 37.432C86.3257 37.432 86.1293 37.2682 85.9048 37.0772C85.6804 36.8861 85.2876 36.0946 85.2315 36.0128C85.1473 35.9582 84.3617 35.3577 83.9689 35.3577C83.6041 35.3305 83.8847 35.7398 83.9689 35.8217C84.0531 35.8763 84.4178 36.0401 84.4178 36.0401C84.4178 36.0401 84.8106 36.3676 84.8667 36.4222C84.8948 36.4495 83.8005 36.3403 83.6041 36.4495C83.4358 36.5586 83.4639 36.8315 83.6041 36.8861C83.7164 36.968 83.8286 36.968 83.8286 36.968C83.8286 36.968 83.6883 37.2955 84.025 37.4593C84.3617 37.5957 84.4459 37.5139 84.4459 37.5139C84.4459 37.5139 84.4739 38.087 85.035 37.9778L86.3257 37.432Z" fill="#FCD1C5"/>
<path d="M89.8335 21.6844C89.8335 21.6844 90.3105 23.2128 89.0199 22.7761C87.7012 22.3394 86.5228 21.6298 86.13 21.9027C85.8214 22.1211 85.8214 22.7488 85.8494 23.049C85.8494 23.1582 85.8214 23.2583 85.7653 23.3493L85.3724 23.8951C85.335 23.9497 85.3163 24.0134 85.3163 24.0861L85.2883 24.4682C85.2883 24.5774 85.2041 24.6593 85.0919 24.6593H85.0077C84.9235 24.6593 84.8113 24.6047 84.8113 24.4955L84.6991 23.9497C84.6991 23.9497 84.3905 23.1855 83.7451 23.4857C83.7451 23.4857 83.3243 22.9126 83.4646 21.7117C83.6049 20.4835 84.166 19.2281 86.607 19.037C89.0479 18.8187 89.8335 21.6844 89.8335 21.6844Z" fill="#333333"/>
<path d="M86.0741 29.7359L86.4669 29.4357C86.4669 29.4357 86.8036 29.7086 86.9158 30.0088C87.0561 30.309 86.9158 31.237 86.9158 31.237L87.028 31.4007L87.1683 31.1551L87.2805 30.0634C87.2805 30.0634 87.1683 29.2719 87.1402 29.2446C87.1402 29.2173 86.4388 29.3265 86.4388 29.3265C86.4388 29.3265 86.2144 29.4903 86.0741 29.7359Z" fill="#C4CCD6"/>
<path d="M87.8417 28.6443C87.8417 28.6443 88.2345 28.6716 88.4028 28.808C88.4028 28.808 88.01 28.8353 87.9259 28.8353C87.8697 28.8353 87.8417 28.6443 87.8417 28.6443Z" fill="#C4CCD6"/>
<path d="M87.1114 28.7259L86.438 29.3263C86.438 29.3263 87.0272 29.5719 87.1955 30.0905C87.1955 30.0905 87.897 30.1997 87.9531 29.954C88.0373 29.7084 87.9531 29.0807 88.0373 28.7805C88.1214 28.5075 87.1114 28.7259 87.1114 28.7259Z" fill="#24126A"/>
<path d="M87.9254 29.9541C87.9254 29.9541 88.0657 30.4727 88.1779 30.691C88.3182 30.9094 88.4585 31.1277 88.4585 31.1277V34.2118C88.4585 34.2118 87.2801 31.8919 87.0276 31.4006C87.0276 31.4006 87.0837 30.2816 87.1959 30.0906C87.2801 29.8722 87.9254 29.9541 87.9254 29.9541Z" fill="#24126A"/>
<path d="M84.8108 25.4235C85.5964 27.5523 87.7288 28.18 87.7288 28.18C87.7288 28.18 87.3359 28.5348 87.2237 28.5621C87.1115 28.5894 86.7468 28.3711 86.7468 28.3711C86.7468 28.3711 85.1195 27.989 84.6425 27.3067C84.1936 26.6243 84.3619 25.942 84.3619 25.942L84.3058 25.4781C84.6425 25.5872 84.8108 25.4235 84.8108 25.4235Z" fill="#E2B1A6"/>
<path d="M83.0716 27.907C83.0716 27.907 83.3802 28.9168 83.4083 28.9714C83.4644 28.9987 84.1658 28.9168 84.1658 28.9168L83.8291 29.5718C83.8291 29.5718 87.4204 33.3109 88.178 35.3579C88.178 35.3579 86.4665 32.7924 83.4644 29.7083L83.8852 29.0806L83.1558 29.2443L83.0716 27.907Z" fill="#24126A"/>
<path d="M88.9914 27.0338L89.1878 27.2249L88.9634 27.4432L89.6368 28.0163C89.6368 28.0163 89.8332 32.1375 89.0195 34.8668C89.0195 34.8668 90.1418 32.3559 89.8893 27.9072L89.1598 27.4432L89.3842 27.2249L88.9914 27.0338Z" fill="#24126A"/>
<path d="M86.7185 49.741L87.6443 48.7858C87.2235 49.3589 87.7005 52.0882 87.7566 52.6886C87.8127 53.3163 87.2515 54.5991 87.0551 56.1002C86.8587 57.6013 87.2796 59.7301 87.2796 59.7301C86.999 59.5936 86.8026 59.348 86.6904 58.9659C86.3818 57.5467 86.494 54.9266 86.8587 53.8349C87.1954 52.7432 86.7185 49.741 86.7185 49.741Z" fill="#222222"/>
<path d="M84.3618 41.4444C82.3136 41.4171 79.7324 34.9215 79.4518 33.5841C79.3957 33.3476 79.3489 33.111 79.3115 32.8745C79.3115 32.9018 79.8446 34.2937 80.3496 35.5492C80.8547 36.8046 83.5762 40.5983 84.979 40.8439C86.2136 41.0623 90.7308 39.0153 91.6005 38.6333C91.6847 39.0699 91.6566 39.0972 91.6566 39.0972C91.6566 39.0972 86.3819 41.4717 84.3618 41.4444Z" fill="url(#paint26_linear_466_22039)"/>
<path d="M59.1211 89.4958C59.1211 89.4958 59.3175 89.6869 59.542 89.9325C59.7384 90.1782 60.3276 90.533 60.5801 90.6694C60.8326 90.8332 61.9829 91.6793 62.2074 92.498C62.4599 93.3168 61.6463 93.426 60.8045 93.2895C59.9628 93.1531 59.1772 92.3889 58.9528 92.1159C58.7283 91.843 57.9427 91.2426 56.9327 90.724C55.8946 90.2055 56.5118 89.5231 56.5118 89.5231L59.1211 89.4958Z" fill="#367E89"/>
<path d="M51.5167 91.9521C51.5167 91.9521 51.3483 92.3342 51.2922 92.7982C51.2361 93.2895 51.18 94.3266 51.1519 94.6268C51.1239 94.927 51.0958 95.6912 51.6569 96.4008C52.2181 97.1104 52.4987 97.3834 53.2281 97.1104C53.9576 96.8375 53.9296 95.6366 53.8173 95.0089C53.6771 94.4085 53.5648 93.0166 53.5648 92.8801C53.5929 92.7436 53.5368 92.6617 53.5368 92.6617L51.5167 91.9521Z" fill="#367E89"/>
<path d="M61.6458 75.3856C61.6458 75.3856 61.4774 80.8715 60.1868 83.7918C60.1868 83.7918 59.2328 86.33 59.1206 89.3867C59.1206 89.3867 59.317 89.9053 59.0084 90.342C58.7278 90.7787 56.7919 91.1608 56.4552 89.7688C56.1466 88.3496 56.2588 85.7295 56.6235 84.6378C56.9602 83.5461 56.4832 80.5439 56.4832 80.5439C56.4832 80.5439 55.9782 80.8715 55.2768 83.0276C54.5754 85.1837 54.0703 86.0025 53.8459 86.6029C53.5934 87.2033 53.397 90.8878 53.5372 92.6619C53.5372 92.6619 51.966 92.8802 51.5171 92.1706C51.0682 91.4337 50.928 87.6946 51.0402 86.4937C51.1524 85.2929 51.6574 81.4446 51.6013 80.271C51.5172 79.0701 51.2646 78.1149 51.5452 76.9413C51.8258 75.7405 60.0745 73.1204 60.0745 73.1204L61.6458 75.3856Z" fill="#333333"/>
<path d="M51.6013 80.2711C51.5172 79.0703 51.2646 78.115 51.5452 76.9414C51.6574 76.4775 52.8919 75.8224 54.379 75.1947C56.9041 74.9764 60.1026 74.7035 60.3271 74.758C60.5235 74.7853 61.0285 74.9764 61.4774 75.1401L61.6458 75.3858C61.6458 75.3858 61.6457 75.7133 61.5896 76.2591C61.0004 76.4502 59.8782 76.2591 59.8782 76.2591C59.7098 76.6412 58.7278 78.0059 57.5214 78.6063C56.2868 79.1794 52.7236 78.9884 52.5272 79.2067C52.3027 79.4251 52.2747 82.4273 52.3027 82.8094C52.3308 83.1915 51.9661 85.5932 51.6294 87.722C51.2927 89.8236 51.7977 92.3618 51.8258 92.4436C51.6948 92.3709 51.592 92.2799 51.5171 92.1707C51.0682 91.4338 50.928 87.6947 51.0402 86.4939C51.1524 85.293 51.6574 81.4447 51.6013 80.2711Z" fill="#222222"/>
<path d="M58.8968 57.4545C58.8968 57.4545 60.7205 57.8639 61.3377 58.0003C61.4219 58.0276 61.5061 58.1095 61.5622 58.1914C61.7305 58.6281 62.1794 59.9927 61.8428 61.985C61.4219 64.4141 61.5622 66.0516 61.5622 66.0516L62.4039 70.3366C62.4039 70.3366 63.4701 74.4032 63.3859 74.5123C63.2737 74.6215 60.9169 76.3683 60.1874 76.1226C59.4579 75.877 59.7104 75.4676 59.7104 75.4676C59.7104 75.4676 59.0932 78.4425 56.4558 78.4152C53.8184 78.3879 51.658 78.3879 51.2091 77.3508C50.7602 76.3137 51.3494 71.9468 51.7983 70.2274C52.2753 68.4807 53.3695 65.0418 53.3695 65.0418L49.5257 60.8933L52.8084 58.437C52.8084 58.437 53.594 56.9905 53.9307 56.8267C54.2673 56.6357 54.4357 56.7995 54.4357 56.7995L58.8968 57.4545Z" fill="#509AA6"/>
<path d="M60.1567 75.1941C60.1286 75.3305 60.2409 75.5489 60.7178 75.7126C61.2229 75.8764 62.4854 75.1395 63.2991 74.5936C62.8782 74.9211 60.8581 76.3404 60.1847 76.122C60.0351 76.0856 59.9229 76.031 59.8481 75.9583C60.0164 75.6307 60.1006 75.3578 60.1567 75.1941Z" fill="url(#paint27_linear_466_22039)"/>
<path d="M51.2344 76.9952C51.7114 78.0869 53.984 78.0869 56.7617 78.1142C57.4912 78.1142 58.0523 77.9231 58.5012 77.6229C58.0243 78.0869 57.3509 78.4144 56.4531 78.4144C53.8157 78.3871 51.6553 78.3871 51.2064 77.35C51.0661 76.9952 51.038 76.3129 51.0661 75.4668C51.0661 76.1491 51.0941 76.695 51.2344 76.9952Z" fill="url(#paint28_linear_466_22039)"/>
<path d="M54.0137 56.7996C54.0137 56.7996 53.3123 57.5911 54.2942 58.6555C54.8834 59.3105 55.9216 60.7297 56.7913 62.2035C57.3525 63.1315 57.8575 63.6227 58.1381 64.4142C58.1381 64.4142 58.1661 63.4863 58.2222 62.0125C58.2503 60.6478 58.2784 59.2286 58.2222 58.8738C58.082 58.1369 54.7432 56.4175 54.0137 56.7996Z" fill="#F0F6FF"/>
<path d="M56.5118 59.1738C56.5118 59.1738 56.8765 59.3921 56.9887 59.3648C57.101 59.3375 57.4938 58.9827 57.4938 58.9827C57.4938 58.9827 58.4477 58.9827 58.56 58.5733C58.6722 58.1639 58.7283 57.7818 58.8125 57.5635C58.9247 57.3452 59.3456 56.3626 59.3456 55.9532C59.3456 55.5438 59.3175 54.8342 59.5139 54.4521C59.6822 54.07 59.9347 50.2491 56.119 50.3583C52.3313 50.4674 53.5097 54.2884 53.5097 54.2884C53.5097 54.2884 53.2291 54.3976 53.3974 54.8888C53.5658 55.3801 53.6219 55.4347 53.7061 55.6803C53.7903 55.9259 53.8183 56.0897 54.0708 56.2807L54.1269 56.7447C54.1269 56.7447 53.9586 57.427 54.4075 58.1094C54.8845 58.7917 56.5118 59.1738 56.5118 59.1738Z" fill="#FCD1C5"/>
<path d="M61.4212 58.0544C61.4212 58.0544 61.842 58.109 63.1607 61.3296C63.8902 63.1309 65.0125 64.9868 65.265 66.3241C65.4894 67.6341 65.3492 69.0807 65.0966 69.1625C64.8441 69.2717 60.1025 70.9911 58.6435 71.537C58.5593 71.5643 58.4752 71.5097 58.4471 71.4278L58.0543 69.2171L60.9722 68.0981C60.9722 68.0981 61.5334 67.4431 62.0384 67.1975C62.0384 67.1975 61.4773 66.1331 61.5053 65.8601C61.5334 65.5599 61.4492 62.585 61.7859 61.3841C62.1226 60.1833 61.4212 58.0544 61.4212 58.0544Z" fill="#28565D"/>
<path d="M59.7096 66.5431C59.7096 66.5431 60.1305 66.2974 60.2147 66.2428C60.3269 66.2156 60.86 66.0245 60.9722 65.9972C61.0283 65.9426 61.365 65.9699 61.5053 65.9972C61.5614 65.9972 61.6175 66.0245 61.6456 66.0791C61.7578 66.2974 62.1226 66.9525 62.0664 67.1981C62.0664 67.1981 61.1125 67.7985 61.0003 68.0715L60.8319 68.0987C60.8319 68.0987 60.1866 66.7341 59.7096 66.5431Z" fill="#FCD1C5"/>
<path d="M51.7983 70.2273C51.9105 69.7907 52.0788 69.2994 52.2191 68.7535L58.1672 71.2099C58.1672 71.2099 56.3997 73.3387 53.2853 73.2022C52.4155 73.1749 51.7983 72.8747 51.3494 72.6018C51.4897 71.6738 51.658 70.8005 51.7983 70.2273Z" fill="#28565D"/>
<path d="M49.525 60.8931C49.525 60.8931 51.0681 61.0841 52.3307 63.0492C53.5933 64.987 54.5192 67.2522 54.5192 67.2522L54.5753 67.4979C54.6875 68.1529 55.417 68.535 56.0342 68.2621C57.381 67.6889 59.345 66.8156 59.7097 66.5426C59.7097 66.5426 60.8881 67.1977 61.2248 68.6988C61.4773 69.8723 61.4212 69.8996 61.4212 69.8996C61.4212 69.8996 56.1465 72.2741 54.1264 72.2468C52.0782 72.2195 49.4969 65.7239 49.2164 64.3865C48.9358 63.0492 48.6272 61.2752 49.525 60.8931Z" fill="#24126A"/>
<path d="M49.525 60.8931C49.525 60.8931 51.0681 61.0841 52.3307 63.0492C53.5933 64.987 54.5192 67.2522 54.5192 67.2522L54.5753 67.4979C54.6875 68.1529 55.417 68.535 56.0342 68.2621C57.381 67.6889 59.345 66.8156 59.7097 66.5426C59.7097 66.5426 60.8881 67.1977 61.2248 68.6988C61.4773 69.8723 61.4212 69.8996 61.4212 69.8996C61.4212 69.8996 56.1465 72.2741 54.1264 72.2468C52.0782 72.2195 49.4969 65.7239 49.2164 64.3865C48.9358 63.0492 48.6272 61.2752 49.525 60.8931Z" fill="#8BCCD6"/>
<path d="M55.2769 68.5625C55.2769 68.5625 54.6315 69.1629 54.3229 68.8354C54.0423 68.5079 54.1265 68.4806 54.1265 68.4806C54.1265 68.4806 53.5373 68.4806 53.4531 68.0985C53.369 67.7437 53.0884 67.9347 53.0603 67.5254C53.0603 67.116 53.5654 67.1978 53.5654 67.1978L55.2769 68.5625Z" fill="#453C9E"/>
<path d="M56.0901 68.2346C56.0901 68.2346 55.8937 68.0708 55.6692 67.8798C55.4448 67.6887 55.052 66.8973 54.9959 66.8154C54.9117 66.7608 54.1261 66.1604 53.7333 66.1604C53.3685 66.1331 53.6491 66.5425 53.7333 66.6243C53.8175 66.6789 54.1822 66.8427 54.1822 66.8427C54.1822 66.8427 54.575 67.1702 54.6311 67.2248C54.6592 67.2521 53.5649 67.1429 53.3685 67.2521C53.2002 67.3612 53.2283 67.6342 53.3685 67.6887C53.4808 67.7706 53.593 67.7706 53.593 67.7706C53.593 67.7706 53.4527 68.0981 53.7894 68.2619C54.1261 68.3983 54.2103 68.3165 54.2103 68.3165C54.2103 68.3165 54.2383 68.8896 54.7995 68.7804L56.0901 68.2346Z" fill="#FCD1C5"/>
<path d="M59.5979 52.487C59.5979 52.487 60.0749 54.0154 58.7843 53.5787C57.4656 53.142 56.2872 52.4324 55.8944 52.7054C55.5858 52.9237 55.5858 53.5514 55.6138 53.8516C55.6138 53.9608 55.5858 54.0609 55.5297 54.1519L55.1368 54.6977C55.0994 54.7523 55.0807 54.816 55.0807 54.8888L55.0527 55.2709C55.0527 55.38 54.9685 55.4619 54.8563 55.4619H54.7721C54.6879 55.4619 54.5757 55.4073 54.5757 55.2982L54.4635 54.7523C54.4635 54.7523 54.1549 53.9881 53.5095 54.2883C53.5095 54.2883 53.0887 53.7152 53.229 52.5143C53.3693 51.2861 53.9304 50.0307 56.3714 49.8396C58.8123 49.6213 59.5979 52.487 59.5979 52.487Z" fill="#333333"/>
<path d="M55.8382 60.5385L56.231 60.2383C56.231 60.2383 56.5677 60.5112 56.6799 60.8114C56.8202 61.1116 56.6799 62.0396 56.6799 62.0396L56.7922 62.2033L56.9325 61.9577L57.0447 60.866C57.0447 60.866 56.9324 60.0745 56.9044 60.0472C56.9044 60.0199 56.203 60.1291 56.203 60.1291C56.203 60.1291 55.9785 60.2929 55.8382 60.5385Z" fill="#C4CCD6"/>
<path d="M57.6061 59.4468C57.6061 59.4468 57.9989 59.4741 58.1672 59.6105C58.1672 59.6105 57.7744 59.6378 57.6903 59.6378C57.6341 59.6378 57.6061 59.4468 57.6061 59.4468Z" fill="#C4CCD6"/>
<path d="M56.8755 59.5285L56.2022 60.1289C56.2022 60.1289 56.7914 60.3746 56.9597 60.8931C56.9597 60.8931 57.6611 61.0023 57.7172 60.7567C57.8014 60.511 57.7172 59.8833 57.8014 59.5831C57.8856 59.3101 56.8755 59.5285 56.8755 59.5285Z" fill="#F1935C"/>
<path d="M57.6898 60.7566C57.6898 60.7566 57.8301 61.2752 57.9423 61.4935C58.0826 61.7119 58.2229 61.9302 58.2229 61.9302V65.0143C58.2229 65.0143 57.0445 62.6944 56.792 62.2031C56.792 62.2031 56.8481 61.0841 56.9603 60.8931C57.0445 60.6747 57.6898 60.7566 57.6898 60.7566Z" fill="#F1935C"/>
<path d="M54.575 56.2262C55.3606 58.355 57.4929 58.9828 57.4929 58.9828C57.4929 58.9828 57.1001 59.3376 56.9879 59.3648C56.8757 59.3921 56.5109 59.1738 56.5109 59.1738C56.5109 59.1738 54.8836 58.7917 54.4066 58.1094C53.9577 57.4271 54.1261 56.7448 54.1261 56.7448L54.07 56.2808C54.4066 56.39 54.575 56.2262 54.575 56.2262Z" fill="#E2B1A6"/>
<path d="M52.836 58.7096C52.836 58.7096 53.1446 59.7194 53.1727 59.774C53.2288 59.8013 53.9302 59.7194 53.9302 59.7194L53.5935 60.3744C53.5935 60.3744 57.1848 64.1135 57.9424 66.1605C57.9424 66.1605 56.2309 63.595 53.2288 60.5109L53.6497 59.8832L52.9202 60.0469L52.836 58.7096Z" fill="#28565D"/>
<path d="M58.7558 57.8364L58.9522 58.0275L58.7278 58.2458L59.4012 58.819C59.4012 58.819 59.5976 62.9401 58.7839 65.6694C58.7839 65.6694 59.9062 63.1585 59.6537 58.7098L58.9242 58.2458L59.1486 58.0275L58.7558 57.8364Z" fill="#28565D"/>
<path d="M56.4829 80.5437L57.4087 79.5885C56.9879 80.1616 57.4649 82.8909 57.521 83.4913C57.5771 84.1191 57.016 85.4018 56.8196 86.9029C56.6232 88.404 57.044 90.5328 57.044 90.5328C56.7634 90.3964 56.567 90.1507 56.4548 89.7686C56.1462 88.3494 56.2584 85.7293 56.6231 84.6376C56.9598 83.5459 56.4829 80.5437 56.4829 80.5437Z" fill="#222222"/>
<path d="M54.126 72.2471C52.0778 72.2198 49.4965 65.7242 49.216 64.3869C49.1599 64.1503 49.1131 63.9138 49.0757 63.6772C49.0757 63.7045 49.6088 65.0965 50.1138 66.3519C50.6188 67.6074 53.3404 71.401 54.7432 71.6467C55.9777 71.865 60.4949 69.8181 61.3647 69.436C61.4489 69.8727 61.4208 69.9 61.4208 69.9C61.4208 69.9 56.1461 72.2744 54.126 72.2471Z" fill="url(#paint29_linear_466_22039)"/>
<path d="M43.7212 108.521C43.7212 108.521 43.9176 108.712 44.1421 108.958C44.3385 109.203 44.9277 109.558 45.1802 109.695C45.4327 109.858 46.583 110.704 46.8075 111.523C47.06 112.342 46.2464 112.451 45.4046 112.315C44.5629 112.178 43.7773 111.414 43.5529 111.141C43.3284 110.868 42.5428 110.268 41.5328 109.749C40.4947 109.231 41.1119 108.548 41.1119 108.548L43.7212 108.521Z" fill="#60350E"/>
<path d="M36.1168 110.977C36.1168 110.977 35.9484 111.36 35.8923 111.823C35.8362 112.315 35.7801 113.352 35.752 113.652C35.724 113.952 35.6959 114.716 36.257 115.426C36.8182 116.136 37.0988 116.409 37.8282 116.136C38.5577 115.863 38.5297 114.662 38.4174 114.034C38.2772 113.434 38.1649 112.042 38.1649 111.905C38.193 111.769 38.1369 111.687 38.1369 111.687L36.1168 110.977Z" fill="#60350E"/>
<path d="M46.2458 94.4108C46.2458 94.4108 46.0775 99.8966 44.7869 102.817C44.7869 102.817 43.8329 105.355 43.7207 108.412C43.7207 108.412 43.9171 108.93 43.6085 109.367C43.3279 109.804 41.392 110.186 41.0553 108.794C40.7467 107.375 40.8589 104.755 41.2236 103.663C41.5603 102.571 41.0833 99.5691 41.0833 99.5691C41.0833 99.5691 40.5783 99.8966 39.8769 102.053C39.1755 104.209 38.6704 105.028 38.446 105.628C38.1935 106.228 37.9971 109.913 38.1373 111.687C38.1373 111.687 36.5661 111.905 36.1172 111.196C35.6683 110.459 35.528 106.72 35.6403 105.519C35.7525 104.318 36.2575 100.47 36.2014 99.2962C36.1172 98.0953 35.8647 97.1401 36.1453 95.9665C36.4259 94.7656 44.6746 92.1455 44.6746 92.1455L46.2458 94.4108Z" fill="#333333"/>
<path d="M36.2014 99.2963C36.1172 98.0954 35.8647 97.1402 36.1453 95.9666C36.2575 95.5026 37.492 94.8476 38.9791 94.2199C41.5042 94.0015 44.7027 93.7286 44.9272 93.7832C45.1236 93.8105 45.6286 94.0015 46.0775 94.1653L46.2458 94.4109C46.2458 94.4109 46.2458 94.7384 46.1897 95.2843C45.6005 95.4753 44.4783 95.2843 44.4783 95.2843C44.3099 95.6664 43.3279 97.031 42.1215 97.6314C40.8869 98.2046 37.3237 98.0135 37.1273 98.2319C36.9028 98.4502 36.8748 101.452 36.9028 101.835C36.9309 102.217 36.5662 104.618 36.2295 106.747C35.8928 108.849 36.3978 111.387 36.4259 111.469C36.2949 111.396 36.1921 111.305 36.1172 111.196C35.6683 110.459 35.528 106.72 35.6403 105.519C35.7525 104.318 36.2575 100.47 36.2014 99.2963Z" fill="#222222"/>
<path d="M43.4969 76.4796C43.4969 76.4796 45.3206 76.889 45.9378 77.0255C46.022 77.0528 46.1062 77.1346 46.1623 77.2165C46.3306 77.6532 46.7795 79.0178 46.4428 81.0102C46.022 83.4392 46.1623 85.0768 46.1623 85.0768L47.004 89.3617C47.004 89.3617 48.0702 93.4283 47.986 93.5375C47.8738 93.6467 45.517 95.3934 44.7875 95.1478C44.058 94.9021 44.3105 94.4927 44.3105 94.4927C44.3105 94.4927 43.6933 97.4676 41.0559 97.4403C38.4185 97.413 36.2581 97.413 35.8092 96.3759C35.3603 95.3388 35.9495 90.972 36.3984 89.2526C36.8754 87.5058 37.9696 84.067 37.9696 84.067L34.1258 79.9185L37.4085 77.4622C37.4085 77.4622 38.1941 76.0156 38.5308 75.8519C38.8674 75.6608 39.0358 75.8246 39.0358 75.8246L43.4969 76.4796Z" fill="#F1935C"/>
<path d="M44.757 94.2192C44.729 94.3557 44.8412 94.574 45.3182 94.7378C45.8232 94.9015 47.0858 94.1646 47.8994 93.6188C47.4786 93.9463 45.4585 95.3655 44.7851 95.1472C44.6354 95.1108 44.5232 95.0562 44.4484 94.9834C44.6167 94.6559 44.7009 94.383 44.757 94.2192Z" fill="url(#paint30_linear_466_22039)"/>
<path d="M35.8345 96.0205C36.3115 97.1122 38.5841 97.1122 41.3618 97.1395C42.0913 97.1395 42.6524 96.9484 43.1013 96.6482C42.6243 97.1122 41.951 97.4397 41.0532 97.4397C38.4158 97.4124 36.2554 97.4124 35.8065 96.3753C35.6662 96.0205 35.6381 95.3381 35.6662 94.4921C35.6662 95.1744 35.6942 95.7202 35.8345 96.0205Z" fill="url(#paint31_linear_466_22039)"/>
<path d="M38.614 75.8247C38.614 75.8247 37.9126 76.6162 38.8946 77.6806C39.4838 78.3356 40.5219 79.7548 41.3917 81.2286C41.9528 82.1566 42.4578 82.6479 42.7384 83.4393C42.7384 83.4393 42.7665 82.5114 42.8226 81.0376C42.8506 79.673 42.8787 78.2538 42.8226 77.8989C42.6823 77.162 39.3435 75.4426 38.614 75.8247Z" fill="#F0F6FF"/>
<path d="M41.1119 78.199C41.1119 78.199 41.4766 78.4174 41.5888 78.3901C41.7011 78.3628 42.0939 78.008 42.0939 78.008C42.0939 78.008 43.0478 78.008 43.1601 77.5986C43.2723 77.1892 43.3284 76.8071 43.4126 76.5888C43.5248 76.3704 43.9456 75.3879 43.9456 74.9785C43.9456 74.5691 43.9176 73.8595 44.114 73.4774C44.2823 73.0953 44.5348 69.2743 40.7191 69.3835C36.9314 69.4927 38.1098 73.3137 38.1098 73.3137C38.1098 73.3137 37.8292 73.4228 37.9975 73.9141C38.1659 74.4054 38.222 74.4599 38.3062 74.7056C38.3904 74.9512 38.4184 75.115 38.6709 75.306L38.727 75.77C38.727 75.77 38.5587 76.4523 39.0076 77.1346C39.4846 77.8169 41.1119 78.199 41.1119 78.199Z" fill="#FCD1C5"/>
<path d="M46.0215 77.0796C46.0215 77.0796 46.4424 77.1342 47.761 80.3547C48.4905 82.156 49.6128 84.0119 49.8653 85.3492C50.0898 86.6593 49.9495 88.1058 49.697 88.1877C49.4445 88.2969 44.7028 90.0163 43.2439 90.5621C43.1597 90.5894 43.0755 90.5348 43.0475 90.453L42.6547 88.2423L45.5726 87.1233C45.5726 87.1233 46.1337 86.4682 46.6388 86.2226C46.6388 86.2226 46.0776 85.1582 46.1057 84.8853C46.1337 84.5851 46.0496 81.6102 46.3863 80.4093C46.7229 79.2084 46.0215 77.0796 46.0215 77.0796Z" fill="#DA6420"/>
<path d="M44.3097 85.5682C44.3097 85.5682 44.7306 85.3226 44.8148 85.268C44.927 85.2407 45.4601 85.0497 45.5723 85.0224C45.6284 84.9678 45.9651 84.9951 46.1054 85.0224C46.1615 85.0224 46.2176 85.0496 46.2457 85.1042C46.3579 85.3226 46.7226 85.9776 46.6665 86.2232C46.6665 86.2232 45.7126 86.8237 45.6004 87.0966L45.432 87.1239C45.432 87.1239 44.7867 85.7593 44.3097 85.5682Z" fill="#FCD1C5"/>
<path d="M36.3984 89.2525C36.5106 88.8158 36.6789 88.3245 36.8192 87.7787L42.7673 90.235C42.7673 90.235 40.9997 92.3638 37.8854 92.2274C37.0156 92.2001 36.3984 91.8999 35.9495 91.6269C36.0898 90.699 36.2581 89.8256 36.3984 89.2525Z" fill="#DA6420"/>
<path d="M34.1253 79.9182C34.1253 79.9182 35.6685 80.1093 36.931 82.0743C38.1936 84.0121 39.1195 86.2774 39.1195 86.2774L39.1756 86.523C39.2878 87.178 40.0173 87.5601 40.6346 87.2872C41.9813 86.7141 43.9453 85.8407 44.3101 85.5678C44.3101 85.5678 45.4885 86.2228 45.8251 87.7239C46.0777 88.8975 46.0215 88.9248 46.0215 88.9248C46.0215 88.9248 40.7468 91.2992 38.7267 91.2719C36.6785 91.2446 34.0973 84.749 33.8167 83.4117C33.5361 82.0743 33.2275 80.3003 34.1253 79.9182Z" fill="#24126A"/>
<path d="M34.1253 79.9182C34.1253 79.9182 35.6685 80.1093 36.931 82.0743C38.1936 84.0121 39.1195 86.2774 39.1195 86.2774L39.1756 86.523C39.2878 87.178 40.0173 87.5601 40.6346 87.2872C41.9813 86.7141 43.9453 85.8407 44.3101 85.5678C44.3101 85.5678 45.4885 86.2228 45.8251 87.7239C46.0777 88.8975 46.0215 88.9248 46.0215 88.9248C46.0215 88.9248 40.7468 91.2992 38.7267 91.2719C36.6785 91.2446 34.0973 84.749 33.8167 83.4117C33.5361 82.0743 33.2275 80.3003 34.1253 79.9182Z" fill="#F99F5D"/>
<path d="M39.877 87.5876C39.877 87.5876 39.2316 88.1881 38.923 87.8605C38.6424 87.533 38.7266 87.5057 38.7266 87.5057C38.7266 87.5057 38.1374 87.5057 38.0532 87.1236C37.9691 86.7688 37.6885 86.9599 37.6604 86.5505C37.6604 86.1411 38.1655 86.223 38.1655 86.223L39.877 87.5876Z" fill="#DA6420"/>
<path d="M40.6902 87.2597C40.6902 87.2597 40.4938 87.096 40.2693 86.9049C40.0449 86.7139 39.6521 85.9224 39.596 85.8405C39.5118 85.7859 38.7262 85.1855 38.3334 85.1855C37.9686 85.1582 38.2492 85.5676 38.3334 85.6495C38.4176 85.7041 38.7823 85.8678 38.7823 85.8678C38.7823 85.8678 39.1751 86.1953 39.2312 86.2499C39.2593 86.2772 38.165 86.168 37.9686 86.2772C37.8003 86.3864 37.8284 86.6593 37.9686 86.7139C38.0809 86.7958 38.1931 86.7958 38.1931 86.7958C38.1931 86.7958 38.0528 87.1233 38.3895 87.287C38.7262 87.4235 38.8104 87.3416 38.8104 87.3416C38.8104 87.3416 38.8384 87.9148 39.3995 87.8056L40.6902 87.2597Z" fill="#FCD1C5"/>
<path d="M44.198 71.5123C44.198 71.5123 44.675 73.0407 43.3844 72.604C42.0657 72.1673 40.8873 71.4577 40.4945 71.7306C40.1859 71.949 40.1859 72.5767 40.2139 72.8769C40.2139 72.9861 40.1859 73.0862 40.1298 73.1771L39.7369 73.723C39.6995 73.7776 39.6808 73.8412 39.6808 73.914L39.6528 74.2961C39.6528 74.4053 39.5686 74.4872 39.4564 74.4872H39.3722C39.288 74.4872 39.1758 74.4326 39.1758 74.3234L39.0636 73.7776C39.0636 73.7776 38.755 73.0134 38.1096 73.3136C38.1096 73.3136 37.6888 72.7405 37.8291 71.5396C37.9694 70.3114 38.5305 69.0559 40.9715 68.8649C43.4124 68.6466 44.198 71.5123 44.198 71.5123Z" fill="#333333"/>
<path d="M40.4386 79.5636L40.8314 79.2634C40.8314 79.2634 41.1681 79.5364 41.2803 79.8366C41.4206 80.1368 41.2803 81.0647 41.2803 81.0647L41.3925 81.2285L41.5328 80.9829L41.645 79.8912C41.645 79.8912 41.5328 79.0997 41.5047 79.0724C41.5047 79.0451 40.8033 79.1543 40.8033 79.1543C40.8033 79.1543 40.5789 79.318 40.4386 79.5636Z" fill="#C4CCD6"/>
<path d="M42.2062 78.472C42.2062 78.472 42.599 78.4993 42.7673 78.6358C42.7673 78.6358 42.3745 78.6631 42.2904 78.6631C42.2342 78.6631 42.2062 78.472 42.2062 78.472Z" fill="#C4CCD6"/>
<path d="M41.4759 78.5536L40.8025 79.1541C40.8025 79.1541 41.3917 79.3997 41.56 79.9183C41.56 79.9183 42.2615 80.0274 42.3176 79.7818C42.4018 79.5362 42.3176 78.9084 42.4018 78.6082C42.4859 78.3353 41.4759 78.5536 41.4759 78.5536Z" fill="#28565D"/>
<path d="M42.2899 79.7819C42.2899 79.7819 42.4302 80.3004 42.5424 80.5188C42.6827 80.7371 42.823 80.9555 42.823 80.9555V84.0395C42.823 84.0395 41.6446 81.7197 41.3921 81.2284C41.3921 81.2284 41.4482 80.1094 41.5604 79.9183C41.6446 79.7 42.2899 79.7819 42.2899 79.7819Z" fill="#28565D"/>
<path d="M39.1753 75.2513C39.9609 77.3802 42.0933 78.0079 42.0933 78.0079C42.0933 78.0079 41.7004 78.3627 41.5882 78.39C41.476 78.4173 41.1113 78.1989 41.1113 78.1989C41.1113 78.1989 39.484 77.8169 39.007 77.1345C38.5581 76.4522 38.7264 75.7699 38.7264 75.7699L38.6703 75.3059C39.007 75.4151 39.1753 75.2513 39.1753 75.2513Z" fill="#E2B1A6"/>
<path d="M37.4361 77.7347C37.4361 77.7347 37.7447 78.7446 37.7728 78.7992C37.8289 78.8264 38.5303 78.7446 38.5303 78.7446L38.1936 79.3996C38.1936 79.3996 41.7849 83.1387 42.5425 85.1856C42.5425 85.1856 40.831 82.6201 37.8289 79.5361L38.2498 78.9083L37.5203 79.0721L37.4361 77.7347Z" fill="#DA6420"/>
<path d="M43.3559 76.8616L43.5523 77.0526L43.3279 77.271L44.0013 77.8441C44.0013 77.8441 44.1977 81.9653 43.384 84.6945C43.384 84.6945 44.5063 82.1836 44.2538 77.7349L43.5243 77.271L43.7487 77.0526L43.3559 76.8616Z" fill="#DA6420"/>
<path d="M41.083 99.5689L42.0088 98.6136C41.588 99.1868 42.065 101.916 42.1211 102.516C42.1772 103.144 41.616 104.427 41.4196 105.928C41.2233 107.429 41.6441 109.558 41.6441 109.558C41.3635 109.422 41.1671 109.176 41.0549 108.794C40.7463 107.375 40.8585 104.754 41.2232 103.663C41.5599 102.571 41.083 99.5689 41.083 99.5689Z" fill="#222222"/>
<path d="M38.7263 91.2723C36.6781 91.245 34.0969 84.7493 33.8163 83.412C33.7602 83.1755 33.7134 82.9389 33.676 82.7024C33.676 82.7297 34.2091 84.1216 34.7141 85.3771C35.2192 86.6325 37.9407 90.4262 39.3435 90.6718C40.5781 90.8902 45.0953 88.8432 45.965 88.4611C46.0492 88.8978 46.0211 88.9251 46.0211 88.9251C46.0211 88.9251 40.7464 91.2996 38.7263 91.2723Z" fill="url(#paint32_linear_466_22039)"/>
<path d="M89.3457 146.205L83.8736 148.656L71.4662 140.139L64.2654 154.262L65.8614 148.656L68.8255 126.824V118.113L89.3457 146.205Z" fill="#B2D7FF"/>
<path d="M64.4968 150.128V154.919L66.7769 147.391L65.9218 145.337L64.4968 150.128Z" fill="#DA6420"/>
<path d="M127.883 128.348V123.121L120.13 126.447L127.883 128.348Z" fill="#DA6420"/>
<path d="M97.353 114.411L127.883 128.131L88.9215 146.423L74.3836 131.833L64.4978 154.916L68.6019 118.331L88.9215 126.606L97.353 114.411Z" fill="#DA6420"/>
<path d="M97.353 109.621L127.883 123.341L88.9215 141.633L74.3836 127.043L64.4978 150.126L68.8299 118.114L88.9215 121.816L97.353 109.621Z" fill="#F1935C"/>
<g filter="url(#filter0_i_466_22039)">
<path d="M144.431 31.6785C145.694 32.3338 146.326 33.1929 146.326 34.0518L146.326 122.342C146.326 121.484 145.694 120.625 144.431 119.97V31.6785Z" fill="#FFE4D4" fill-opacity="0.15"/>
</g>
<path d="M145.826 34.0518V34.0517C145.826 33.6038 145.573 33.0782 144.931 32.5815V119.674C145.27 119.87 145.57 120.087 145.826 120.322V34.0518Z" stroke="white"/>
<g filter="url(#filter1_i_466_22039)">
<path d="M146.326 34.0514C146.326 34.9102 145.694 35.7689 144.431 36.4241V124.715C145.694 124.06 146.326 123.201 146.326 122.343V34.0514Z" fill="#FFE4D4" fill-opacity="0.15"/>
</g>
<path d="M144.931 123.812C145.573 123.316 145.826 122.79 145.826 122.343V36.0722C145.57 36.3065 145.27 36.5235 144.931 36.72V123.812Z" stroke="#FFE4D4"/>
<g filter="url(#filter2_i_466_22039)">
<path d="M4.57715 45.5993C3.31396 44.9441 2.68228 44.0854 2.68213 43.2266V131.517C2.68197 132.376 3.31364 133.235 4.57715 133.891V45.5993Z" fill="#FFE4D4" fill-opacity="0.15"/>
</g>
<path d="M4.07715 45.8952C3.73854 45.6987 3.43823 45.4817 3.18213 45.2474V131.517C3.18204 131.965 3.43518 132.491 4.07715 132.988V45.8952Z" stroke="white"/>
<g filter="url(#filter3_i_466_22039)">
<path d="M144.425 36.4242L70.2268 74.9106V163.202L144.425 124.715V36.4242Z" fill="#FFE4D4" fill-opacity="0.15"/>
</g>
<path d="M143.925 124.412V37.2468L70.7268 75.2145V162.379L143.925 124.412Z" stroke="#FFE4D4"/>
<g filter="url(#filter4_i_466_22039)">
<path d="M61.085 74.9116L4.57638 45.6006V133.892L61.085 163.203V74.9116Z" fill="#FFE4D4" fill-opacity="0.15"/>
</g>
<path d="M60.585 162.38V75.2155L5.07638 46.4232V133.588L60.585 162.38Z" stroke="#FFE4D4"/>
<g filter="url(#filter5_i_466_22039)">
<path d="M70.229 74.9116C67.7023 76.2222 63.6057 76.2222 61.079 74.9116V163.203C63.6057 164.514 67.7023 164.514 70.229 163.203V74.9116Z" fill="#FFE4D4" fill-opacity="0.15"/>
</g>
<path d="M69.729 162.891V75.6853C68.5088 76.1632 67.0721 76.3946 65.654 76.3946C64.236 76.3946 62.7992 76.1632 61.579 75.6853V162.891C62.7184 163.414 64.1745 163.686 65.654 163.686C67.1335 163.686 68.5896 163.414 69.729 162.891Z" stroke="#FFE4D4"/>
<g filter="url(#filter6_i_466_22039)">
<rect width="93.893" height="73.9657" rx="5" transform="matrix(-0.887688 0.460445 0.887688 0.460445 83.3586 0)" fill="#FFE4D4" fill-opacity="0.15"/>
</g>
<rect x="2.98023e-08" y="0.460445" width="92.893" height="72.9657" rx="4.5" transform="matrix(-0.887688 0.460445 0.887688 0.460445 82.9499 0.248435)" stroke="#FFE4D4"/>
<defs>
<filter id="filter0_i_466_22039" x="144.431" y="31.6785" width="1.89502" height="90.6647" filterUnits="userSpaceOnUse" color-interpolation-filters="sRGB">
<feFlood flood-opacity="0" result="BackgroundImageFix"/>
<feBlend mode="normal" in="SourceGraphic" in2="BackgroundImageFix" result="shape"/>
<feColorMatrix in="SourceAlpha" type="matrix" values="0 0 0 0 0 0 0 0 0 0 0 0 0 0 0 0 0 0 127 0" result="hardAlpha"/>
<feOffset/>
<feGaussianBlur stdDeviation="9.0843"/>
<feComposite in2="hardAlpha" operator="arithmetic" k2="-1" k3="1"/>
<feColorMatrix type="matrix" values="0 0 0 0 1 0 0 0 0 1 0 0 0 0 1 0 0 0 1 0"/>
<feBlend mode="normal" in2="shape" result="effect1_innerShadow_466_22039"/>
</filter>
<filter id="filter1_i_466_22039" x="144.431" y="34.0514" width="1.89502" height="90.6641" filterUnits="userSpaceOnUse" color-interpolation-filters="sRGB">
<feFlood flood-opacity="0" result="BackgroundImageFix"/>
<feBlend mode="normal" in="SourceGraphic" in2="BackgroundImageFix" result="shape"/>
<feColorMatrix in="SourceAlpha" type="matrix" values="0 0 0 0 0 0 0 0 0 0 0 0 0 0 0 0 0 0 127 0" result="hardAlpha"/>
<feOffset/>
<feGaussianBlur stdDeviation="9.0843"/>
<feComposite in2="hardAlpha" operator="arithmetic" k2="-1" k3="1"/>
<feColorMatrix type="matrix" values="0 0 0 0 1 0 0 0 0 1 0 0 0 0 1 0 0 0 1 0"/>
<feBlend mode="normal" in2="shape" result="effect1_innerShadow_466_22039"/>
</filter>
<filter id="filter2_i_466_22039" x="2.68213" y="43.226" width="1.89502" height="90.6647" filterUnits="userSpaceOnUse" color-interpolation-filters="sRGB">
<feFlood flood-opacity="0" result="BackgroundImageFix"/>
<feBlend mode="normal" in="SourceGraphic" in2="BackgroundImageFix" result="shape"/>
<feColorMatrix in="SourceAlpha" type="matrix" values="0 0 0 0 0 0 0 0 0 0 0 0 0 0 0 0 0 0 127 0" result="hardAlpha"/>
<feOffset/>
<feGaussianBlur stdDeviation="9.0843"/>
<feComposite in2="hardAlpha" operator="arithmetic" k2="-1" k3="1"/>
<feColorMatrix type="matrix" values="0 0 0 0 1 0 0 0 0 1 0 0 0 0 1 0 0 0 1 0"/>
<feBlend mode="normal" in2="shape" result="effect1_innerShadow_466_22039"/>
</filter>
<filter id="filter3_i_466_22039" x="70.2268" y="36.4242" width="74.1978" height="126.778" filterUnits="userSpaceOnUse" color-interpolation-filters="sRGB">
<feFlood flood-opacity="0" result="BackgroundImageFix"/>
<feBlend mode="normal" in="SourceGraphic" in2="BackgroundImageFix" result="shape"/>
<feColorMatrix in="SourceAlpha" type="matrix" values="0 0 0 0 0 0 0 0 0 0 0 0 0 0 0 0 0 0 127 0" result="hardAlpha"/>
<feOffset/>
<feGaussianBlur stdDeviation="9.0843"/>
<feComposite in2="hardAlpha" operator="arithmetic" k2="-1" k3="1"/>
<feColorMatrix type="matrix" values="0 0 0 0 1 0 0 0 0 1 0 0 0 0 1 0 0 0 1 0"/>
<feBlend mode="normal" in2="shape" result="effect1_innerShadow_466_22039"/>
</filter>
<filter id="filter4_i_466_22039" x="4.57642" y="45.6006" width="56.5085" height="117.602" filterUnits="userSpaceOnUse" color-interpolation-filters="sRGB">
<feFlood flood-opacity="0" result="BackgroundImageFix"/>
<feBlend mode="normal" in="SourceGraphic" in2="BackgroundImageFix" result="shape"/>
<feColorMatrix in="SourceAlpha" type="matrix" values="0 0 0 0 0 0 0 0 0 0 0 0 0 0 0 0 0 0 127 0" result="hardAlpha"/>
<feOffset/>
<feGaussianBlur stdDeviation="9.0843"/>
<feComposite in2="hardAlpha" operator="arithmetic" k2="-1" k3="1"/>
<feColorMatrix type="matrix" values="0 0 0 0 1 0 0 0 0 1 0 0 0 0 1 0 0 0 1 0"/>
<feBlend mode="normal" in2="shape" result="effect1_innerShadow_466_22039"/>
</filter>
<filter id="filter5_i_466_22039" x="61.0791" y="74.9116" width="9.1499" height="89.2743" filterUnits="userSpaceOnUse" color-interpolation-filters="sRGB">
<feFlood flood-opacity="0" result="BackgroundImageFix"/>
<feBlend mode="normal" in="SourceGraphic" in2="BackgroundImageFix" result="shape"/>
<feColorMatrix in="SourceAlpha" type="matrix" values="0 0 0 0 0 0 0 0 0 0 0 0 0 0 0 0 0 0 127 0" result="hardAlpha"/>
<feOffset/>
<feGaussianBlur stdDeviation="9.0843"/>
<feComposite in2="hardAlpha" operator="arithmetic" k2="-1" k3="1"/>
<feColorMatrix type="matrix" values="0 0 0 0 1 0 0 0 0 1 0 0 0 0 1 0 0 0 1 0"/>
<feBlend mode="normal" in2="shape" result="effect1_innerShadow_466_22039"/>
</filter>
<filter id="filter6_i_466_22039" x="2.61084" y="1.34863" width="143.806" height="74.5924" filterUnits="userSpaceOnUse" color-interpolation-filters="sRGB">
<feFlood flood-opacity="0" result="BackgroundImageFix"/>
<feBlend mode="normal" in="SourceGraphic" in2="BackgroundImageFix" result="shape"/>
<feColorMatrix in="SourceAlpha" type="matrix" values="0 0 0 0 0 0 0 0 0 0 0 0 0 0 0 0 0 0 127 0" result="hardAlpha"/>
<feOffset/>
<feGaussianBlur stdDeviation="9.0843"/>
<feComposite in2="hardAlpha" operator="arithmetic" k2="-1" k3="1"/>
<feColorMatrix type="matrix" values="0 0 0 0 1 0 0 0 0 1 0 0 0 0 1 0 0 0 1 0"/>
<feBlend mode="normal" in2="shape" result="effect1_innerShadow_466_22039"/>
</filter>
<linearGradient id="paint0_linear_466_22039" x1="85.8868" y1="56.8923" x2="97.0679" y2="63.5507" gradientUnits="userSpaceOnUse">
<stop stop-color="#84ADFF"/>
<stop offset="1" stop-color="#C9D9F4"/>
</linearGradient>
<linearGradient id="paint1_linear_466_22039" x1="85.9011" y1="76.1436" x2="99.8128" y2="72.0307" gradientUnits="userSpaceOnUse">
<stop stop-color="#A1C1FF"/>
<stop offset="1" stop-color="#D2E2FF"/>
</linearGradient>
<linearGradient id="paint2_linear_466_22039" x1="66.9964" y1="59.0751" x2="83.8018" y2="69.0495" gradientUnits="userSpaceOnUse">
<stop stop-color="#5995FF"/>
<stop offset="1" stop-color="#BBD2FF"/>
</linearGradient>
<linearGradient id="paint3_linear_466_22039" x1="70.986" y1="76.0773" x2="82.1795" y2="82.7289" gradientUnits="userSpaceOnUse">
<stop stop-color="#84ADFF"/>
<stop offset="1" stop-color="#C9D9F4"/>
</linearGradient>
<linearGradient id="paint4_linear_466_22039" x1="70.9928" y1="78.3993" x2="78.1143" y2="82.6263" gradientUnits="userSpaceOnUse">
<stop stop-color="#5761D7"/>
<stop offset="1" stop-color="#BCBEFF"/>
</linearGradient>
<linearGradient id="paint5_linear_466_22039" x1="71.0003" y1="92.1573" x2="84.1007" y2="87.0038" gradientUnits="userSpaceOnUse">
<stop stop-color="#A1C1FF"/>
<stop offset="1" stop-color="#D2E2FF"/>
</linearGradient>
<linearGradient id="paint6_linear_466_22039" x1="52.0957" y1="79.3291" x2="66.0922" y2="90.3825" gradientUnits="userSpaceOnUse">
<stop stop-color="#5995FF"/>
<stop offset="1" stop-color="#BBD2FF"/>
</linearGradient>
<linearGradient id="paint7_linear_466_22039" x1="70.986" y1="66.5" x2="82.167" y2="73.1584" gradientUnits="userSpaceOnUse">
<stop stop-color="#84ADFF"/>
<stop offset="1" stop-color="#C9D9F4"/>
</linearGradient>
<linearGradient id="paint8_linear_466_22039" x1="71.0003" y1="76.1076" x2="77.3349" y2="68.6443" gradientUnits="userSpaceOnUse">
<stop stop-color="#A1C1FF"/>
<stop offset="1" stop-color="#D2E2FF"/>
</linearGradient>
<linearGradient id="paint9_linear_466_22039" x1="52.0957" y1="71.8244" x2="55.5419" y2="79.9756" gradientUnits="userSpaceOnUse">
<stop stop-color="#5995FF"/>
<stop offset="1" stop-color="#BBD2FF"/>
</linearGradient>
<linearGradient id="paint10_linear_466_22039" x1="56.1025" y1="87.6777" x2="67.2771" y2="94.324" gradientUnits="userSpaceOnUse">
<stop stop-color="#84ADFF"/>
<stop offset="1" stop-color="#C9D9F4"/>
</linearGradient>
<linearGradient id="paint11_linear_466_22039" x1="56.1028" y1="102.788" x2="68.8156" y2="97.2473" gradientUnits="userSpaceOnUse">
<stop stop-color="#A1C1FF"/>
<stop offset="1" stop-color="#D2E2FF"/>
</linearGradient>
<linearGradient id="paint12_linear_466_22039" x1="37.2444" y1="91.2096" x2="50.1118" y2="102.44" gradientUnits="userSpaceOnUse">
<stop stop-color="#5995FF"/>
<stop offset="1" stop-color="#BBD2FF"/>
</linearGradient>
<linearGradient id="paint13_linear_466_22039" x1="41.2067" y1="106.401" x2="52.3937" y2="113.04" gradientUnits="userSpaceOnUse">
<stop stop-color="#C0BFF6"/>
<stop offset="1" stop-color="#E9E9FD"/>
</linearGradient>
<linearGradient id="paint14_linear_466_22039" x1="41.209" y1="106.4" x2="52.3959" y2="113.04" gradientUnits="userSpaceOnUse">
<stop stop-color="#84ADFF"/>
<stop offset="1" stop-color="#C9D9F4"/>
</linearGradient>
<linearGradient id="paint15_linear_466_22039" x1="41.207" y1="119.218" x2="52.394" y2="112.578" gradientUnits="userSpaceOnUse">
<stop stop-color="#C0BFF6"/>
<stop offset="1" stop-color="#E9E9FD"/>
</linearGradient>
<linearGradient id="paint16_linear_466_22039" x1="41.2092" y1="118.484" x2="51.6487" y2="111.488" gradientUnits="userSpaceOnUse">
<stop stop-color="#A1C1FF"/>
<stop offset="1" stop-color="#D2E2FF"/>
</linearGradient>
<linearGradient id="paint17_linear_466_22039" x1="22.3511" y1="110.954" x2="30.4445" y2="121.816" gradientUnits="userSpaceOnUse">
<stop stop-color="#5995FF"/>
<stop offset="1" stop-color="#BBD2FF"/>
</linearGradient>
<linearGradient id="paint18_linear_466_22039" x1="26.3044" y1="112.294" x2="37.4914" y2="118.934" gradientUnits="userSpaceOnUse">
<stop stop-color="#84ADFF"/>
<stop offset="1" stop-color="#C9D9F4"/>
</linearGradient>
<linearGradient id="paint19_linear_466_22039" x1="26.3047" y1="125.111" x2="37.4916" y2="118.472" gradientUnits="userSpaceOnUse">
<stop stop-color="#A1C1FF"/>
<stop offset="1" stop-color="#D2E2FF"/>
</linearGradient>
<linearGradient id="paint20_linear_466_22039" x1="7.4463" y1="116.609" x2="16.842" y2="127.777" gradientUnits="userSpaceOnUse">
<stop stop-color="#5995FF"/>
<stop offset="1" stop-color="#BBD2FF"/>
</linearGradient>
<linearGradient id="paint21_linear_466_22039" x1="78.631" y1="53.7472" x2="75.1223" y2="53.9563" gradientUnits="userSpaceOnUse">
<stop stop-color="#648FE4"/>
<stop offset="1" stop-color="#78DBEB"/>
</linearGradient>
<linearGradient id="paint22_linear_466_22039" x1="73.6806" y1="54.2097" x2="66.3403" y2="54.6475" gradientUnits="userSpaceOnUse">
<stop stop-color="#5995FF"/>
<stop offset="1" stop-color="#39C0EA"/>
</linearGradient>
<linearGradient id="paint23_linear_466_22039" x1="76.3499" y1="42.1701" x2="64.4113" y2="42.8816" gradientUnits="userSpaceOnUse">
<stop stop-color="#5761D7"/>
<stop offset="1" stop-color="#1862F4"/>
</linearGradient>
<linearGradient id="paint24_linear_466_22039" x1="93.5324" y1="43.7815" x2="90.0237" y2="43.9906" gradientUnits="userSpaceOnUse">
<stop stop-color="#5761D7"/>
<stop offset="1" stop-color="#42E8E0"/>
</linearGradient>
<linearGradient id="paint25_linear_466_22039" x1="88.5819" y1="44.244" x2="81.2417" y2="44.6818" gradientUnits="userSpaceOnUse">
<stop stop-color="#5761D7"/>
<stop offset="1" stop-color="#42E8E0"/>
</linearGradient>
<linearGradient id="paint26_linear_466_22039" x1="91.2512" y1="32.2045" x2="79.3127" y2="32.916" gradientUnits="userSpaceOnUse">
<stop stop-color="#5761D7"/>
<stop offset="1" stop-color="#42E8E0"/>
</linearGradient>
<linearGradient id="paint27_linear_466_22039" x1="63.2965" y1="74.5841" x2="59.7878" y2="74.7932" gradientUnits="userSpaceOnUse">
<stop stop-color="#5761D7"/>
<stop offset="1" stop-color="#42E8E0"/>
</linearGradient>
<linearGradient id="paint28_linear_466_22039" x1="58.3463" y1="75.0468" x2="51.0061" y2="75.4845" gradientUnits="userSpaceOnUse">
<stop stop-color="#28565D"/>
<stop offset="1" stop-color="#8BCCD6"/>
</linearGradient>
<linearGradient id="paint29_linear_466_22039" x1="61.0154" y1="63.0072" x2="49.0768" y2="63.7187" gradientUnits="userSpaceOnUse">
<stop stop-color="#28565D"/>
<stop offset="1" stop-color="#8BCCD6"/>
</linearGradient>
<linearGradient id="paint30_linear_466_22039" x1="47.8969" y1="93.6092" x2="44.3882" y2="93.8184" gradientUnits="userSpaceOnUse">
<stop stop-color="#DA6420"/>
<stop offset="1" stop-color="#28565D"/>
</linearGradient>
<linearGradient id="paint31_linear_466_22039" x1="42.9464" y1="94.072" x2="35.6062" y2="94.5098" gradientUnits="userSpaceOnUse">
<stop stop-color="#28565D"/>
<stop offset="1" stop-color="#FAB380"/>
</linearGradient>
<linearGradient id="paint32_linear_466_22039" x1="45.6157" y1="82.0324" x2="33.6772" y2="82.7439" gradientUnits="userSpaceOnUse">
<stop stop-color="#FAB380"/>
<stop offset="1" stop-color="#DA6420"/>
</linearGradient>
</defs>
</svg>
