<svg width="160" height="200" viewBox="0 0 160 200" fill="none" xmlns="http://www.w3.org/2000/svg">
<path d="M94.388 118.837C91.675 117.39 87.2764 117.39 84.5634 118.837L4.89534 161.318C3.53902 162.042 2.86078 162.989 2.86061 163.937C2.86044 164.885 3.53868 165.834 4.89534 166.557L65.5701 198.911C68.283 200.357 72.6816 200.357 75.3946 198.911L155.063 156.429C156.419 155.706 157.097 154.758 157.097 153.81C157.098 152.862 156.419 151.914 155.063 151.191L94.388 118.837Z" fill="#D4E4FE"/>
<path d="M94.3901 112.786C91.6772 111.34 87.2785 111.34 84.5656 112.786V118.839C87.2785 117.393 91.6772 117.393 94.3901 118.839V112.786Z" fill="#D4E4FE"/>
<path d="M94.3853 112.785L155.06 145.139V151.192L94.3853 118.838V112.785Z" fill="#D4E4FE"/>
<path d="M4.89983 155.267L84.5679 112.785V118.838L4.89983 161.32V155.267Z" fill="#D4E4FE"/>
<path d="M155.063 145.143C156.419 145.866 157.098 146.814 157.097 147.762L157.097 153.815C157.097 152.867 156.419 151.919 155.063 151.196V145.143Z" fill="#D4E4FE"/>
<path d="M157.097 147.76C157.097 148.708 156.419 149.656 155.063 150.379V156.432C156.419 155.709 157.097 154.761 157.097 153.813V147.76Z" fill="#A1C1FF"/>
<path d="M2.86346 157.889C2.86363 156.941 3.54187 155.993 4.89819 155.27V161.323C3.54187 162.046 2.86363 162.994 2.86346 163.942V157.889Z" fill="#D4E4FE"/>
<path d="M4.89819 160.504C3.54187 159.781 2.86363 158.833 2.86346 157.885V163.938C2.86329 164.886 3.54154 165.834 4.89819 166.558V160.504Z" fill="#A1C1FF"/>
<path d="M155.06 150.381L75.392 192.862V198.915L155.06 156.434V150.381Z" fill="#A1C1FF"/>
<path d="M65.5723 192.861L4.89755 160.508V166.561L65.5723 198.915V192.861Z" fill="#A1C1FF"/>
<path d="M75.3906 192.861C72.6776 194.308 68.279 194.308 65.5661 192.861V198.914C68.279 200.361 72.6776 200.361 75.3906 198.914V192.861Z" fill="#A1C1FF"/>
<rect width="101.421" height="79.8957" rx="7.86205" transform="matrix(-0.882391 0.470517 0.882391 0.470517 89.4924 110.004)" fill="#DEEFFF"/>
<path d="M94.3997 105.524C91.6867 104.078 87.2881 104.078 84.5751 105.524L4.90706 148.006C3.55074 148.729 2.8725 149.677 2.87233 150.625C2.87216 151.573 3.5504 152.521 4.90706 153.245L65.5818 185.598C68.2948 187.045 72.6934 187.045 75.4063 185.598L155.074 143.117C156.431 142.394 157.109 141.446 157.109 140.498C157.109 139.55 156.431 138.601 155.074 137.878L94.3997 105.524Z" fill="#D4E4FE"/>
<path d="M94.4019 99.4737C91.6889 98.027 87.2903 98.027 84.5773 99.4737V105.527C87.2903 104.08 91.6889 104.08 94.4019 105.527V99.4737Z" fill="#D4E4FE"/>
<path d="M94.3932 99.4727L155.068 131.826V137.879L94.3932 105.526V99.4727Z" fill="#D4E4FE"/>
<path d="M4.90373 141.954L84.5718 99.4727V105.526L4.90373 148.007V141.954Z" fill="#D4E4FE"/>
<path d="M155.074 131.828C156.431 132.552 157.109 133.5 157.109 134.448L157.109 140.5C157.109 139.552 156.431 138.605 155.074 137.881V131.828Z" fill="#D4E4FE"/>
<path d="M157.109 134.447C157.109 135.395 156.431 136.343 155.074 137.066V143.119C156.431 142.396 157.109 141.448 157.109 140.5V134.447Z" fill="#A1C1FF"/>
<path d="M2.87518 144.574C2.87535 143.626 3.55359 142.678 4.90991 141.955V148.008C3.55359 148.731 2.87535 149.679 2.87518 150.627V144.574Z" fill="#D4E4FE"/>
<path d="M4.90991 147.192C3.55359 146.469 2.87535 145.521 2.87518 144.573V150.625C2.87501 151.574 3.55325 152.522 4.90991 153.245V147.192Z" fill="#A1C1FF"/>
<path d="M155.068 137.068L75.3998 179.55V185.603L155.068 143.122V137.068Z" fill="#A1C1FF"/>
<path d="M65.584 179.545L4.90927 147.191V153.245L65.584 185.598V179.545Z" fill="#A1C1FF"/>
<path d="M75.4023 179.549C72.6894 180.995 68.2908 180.995 65.5778 179.549V185.602C68.2908 187.049 72.6894 187.049 75.4023 185.602V179.549Z" fill="#A1C1FF"/>
<rect width="101.421" height="79.8957" rx="7.86205" transform="matrix(-0.882391 0.470517 0.882391 0.470517 89.4924 96.8555)" fill="#DEEFFF"/>
<path d="M92.2213 76.9163L79.9602 69.8367L92.2213 62.7874L104.482 69.8367L92.2213 76.9163Z" fill="url(#paint0_linear_214_5075)"/>
<path d="M92.2213 76.6152L80.2313 69.6863L79.9602 69.8369L92.2213 76.9164L104.482 69.8369L104.211 69.6863L92.2213 76.6152Z" fill="white"/>
<path d="M104.482 110.898L92.2213 117.978V76.9164L104.482 69.8369V110.898Z" fill="url(#paint1_linear_214_5075)"/>
<path d="M92.2214 117.978L79.9603 110.898V69.8369L92.2214 76.9164V117.978Z" fill="url(#paint2_linear_214_5075)"/>
<path d="M76.222 98.1227L63.9609 91.0431L76.222 83.9636L88.4832 91.0431L76.222 98.1227Z" fill="url(#paint3_linear_214_5075)"/>
<path opacity="0.3" d="M76.2219 95.532L68.4193 91.0433L76.2219 86.5244L84.0244 91.0433L76.2219 95.532Z" fill="url(#paint4_linear_214_5075)"/>
<path d="M76.222 97.8215L64.232 90.8926L63.9609 91.0432L76.222 98.1227L88.4832 91.0432L88.212 90.8926L76.222 97.8215Z" fill="white"/>
<path d="M88.4832 120.145L76.222 127.224V98.1227L88.4832 91.0432V120.145Z" fill="url(#paint5_linear_214_5075)"/>
<path d="M76.2222 127.224L63.961 120.145V91.0432L76.2222 98.1227V127.224Z" fill="url(#paint6_linear_214_5075)"/>
<path d="M76.222 87.5211L63.9609 80.4416L76.222 73.3922L88.4832 80.4416L76.222 87.5211Z" fill="url(#paint7_linear_214_5075)"/>
<path d="M76.222 87.2198L64.232 80.321L63.9609 80.4415L76.222 87.5211L88.4832 80.4415L88.212 80.321L76.222 87.2198Z" fill="white"/>
<path d="M88.4832 85.4425L76.222 92.522V87.5212L88.4832 80.4417V85.4425Z" fill="url(#paint8_linear_214_5075)"/>
<path d="M76.2222 92.522L63.961 85.4425V80.4417L76.2222 87.5212V92.522Z" fill="url(#paint9_linear_214_5075)"/>
<path d="M60.2262 110.897L47.9952 103.818L60.2262 96.7683L72.4873 103.818L60.2262 110.897Z" fill="url(#paint10_linear_214_5075)"/>
<path d="M60.2262 110.626L48.2362 103.697L47.9952 103.818L60.2262 110.897L72.4873 103.818L72.2463 103.697L60.2262 110.626Z" fill="white"/>
<path d="M72.4873 129.425L60.2262 136.474V110.897L72.4873 103.818V129.425Z" fill="url(#paint11_linear_214_5075)"/>
<path d="M60.2263 136.474L47.9953 129.425V103.818L60.2263 110.897V136.474Z" fill="url(#paint12_linear_214_5075)"/>
<path d="M44.2347 131.593L32.0037 124.514L44.2347 117.434L56.4958 124.514L44.2347 131.593Z" fill="url(#paint13_linear_214_5075)"/>
<path d="M44.2347 131.593L32.0037 124.514L44.2347 117.434L56.4958 124.514L44.2347 131.593Z" fill="url(#paint14_linear_214_5075)"/>
<path d="M44.2347 131.292L32.2447 124.363L32.0037 124.514L44.2347 131.593L56.4958 124.514L56.2548 124.363L44.2347 131.292Z" fill="white"/>
<path d="M56.4958 138.673L44.2347 145.752V131.593L56.4958 124.514V138.673Z" fill="url(#paint15_linear_214_5075)"/>
<path d="M56.4958 138.673L44.2347 145.752V131.593L56.4958 124.514V138.673Z" fill="url(#paint16_linear_214_5075)"/>
<path d="M44.2349 145.752L32.0039 138.673V124.514L44.2349 131.593V145.752Z" fill="url(#paint17_linear_214_5075)"/>
<path d="M28.2311 138.099L16.0001 131.019L28.2311 123.94L40.4922 131.019L28.2311 138.099Z" fill="url(#paint18_linear_214_5075)"/>
<path d="M28.2311 137.798L16.2411 130.869L16.0001 131.02L28.2311 138.099L40.4922 131.02L40.2512 130.869L28.2311 137.798Z" fill="white"/>
<path d="M40.4922 147.92L28.2311 155V138.099L40.4922 131.02V147.92Z" fill="url(#paint19_linear_214_5075)"/>
<path d="M28.2312 155L16.0002 147.92V131.02L28.2312 138.099V155Z" fill="url(#paint20_linear_214_5075)"/>
<path d="M79.9443 75.7856C79.9443 75.7856 80.1552 75.9965 80.3962 76.2676C80.6071 76.5388 81.2397 76.9304 81.5109 77.081C81.782 77.2618 83.0172 78.1957 83.2582 79.0995C83.5293 80.0032 82.6556 80.1237 81.7519 79.9731C80.8481 79.8225 80.0046 78.979 79.7636 78.6777C79.5226 78.3764 78.6791 77.7137 77.5945 77.1413C76.4799 76.5689 77.1427 75.8158 77.1427 75.8158L79.9443 75.7856Z" fill="#60350E"/>
<path d="M71.7794 78.4971C71.7794 78.4971 71.5986 78.9188 71.5384 79.431C71.4781 79.9732 71.4179 81.118 71.3877 81.4494C71.3576 81.7808 71.3275 82.6243 71.93 83.4075C72.5325 84.1908 72.8338 84.4921 73.617 84.1908C74.4003 83.8896 74.3702 82.564 74.2497 81.8711C74.099 81.2084 73.9786 79.672 73.9786 79.5213C74.0087 79.3707 73.9484 79.2803 73.9484 79.2803L71.7794 78.4971Z" fill="#60350E"/>
<path d="M82.6553 60.2107C82.6553 60.2107 82.4745 66.266 81.0887 69.4894C81.0887 69.4894 80.0645 72.2911 79.944 75.6652C79.944 75.6652 80.1548 76.2376 79.8235 76.7196C79.5222 77.2016 77.4435 77.6234 77.082 76.0869C76.7507 74.5204 76.8711 71.6284 77.2628 70.4233C77.6243 69.2183 77.1122 65.9045 77.1122 65.9045C77.1122 65.9045 76.5699 66.266 75.8168 68.6459C75.0636 71.0258 74.5214 71.9296 74.2804 72.5924C74.0092 73.2551 73.7983 77.3221 73.949 79.2803C73.949 79.2803 72.2619 79.5213 71.7799 78.738C71.2979 77.9246 71.1473 73.7974 71.2678 72.4719C71.3883 71.1463 71.9306 66.8986 71.8703 65.6032C71.7799 64.2777 71.5088 63.2233 71.8101 61.9279C72.1113 60.6024 80.9682 57.7103 80.9682 57.7103L82.6553 60.2107Z" fill="#333333"/>
<path d="M71.8703 65.6034C71.7799 64.2779 71.5088 63.2235 71.8101 61.9281C71.9306 61.416 73.2561 60.6929 74.8527 60.0001C77.564 59.759 80.9984 59.4578 81.2394 59.518C81.4502 59.5482 81.9925 59.7591 82.4745 59.9398L82.6553 60.2109C82.6553 60.2109 82.6553 60.5724 82.595 61.175C81.9624 61.3858 80.7574 61.175 80.7574 61.175C80.5766 61.5967 79.5222 63.103 78.2268 63.7658C76.9013 64.3984 73.0753 64.1875 72.8644 64.4285C72.6234 64.6695 72.5933 67.9833 72.6234 68.4051C72.6536 68.8269 72.2619 71.4779 71.9004 73.8277C71.5389 76.1474 72.0812 78.9491 72.1113 79.0394C71.9707 78.9591 71.8603 78.8587 71.7799 78.7382C71.2979 77.9248 71.1473 73.7976 71.2678 72.4721C71.3883 71.1465 71.9306 66.8988 71.8703 65.6034Z" fill="#222222"/>
<path d="M79.7034 40.4183C79.7034 40.4183 81.6615 40.8702 82.3243 41.0208C82.4147 41.0509 82.5051 41.1413 82.5653 41.2317C82.7461 41.7137 83.2281 43.22 82.8666 45.4191C82.4147 48.1003 82.5653 49.9078 82.5653 49.9078L83.4691 54.6376C83.4691 54.6376 84.6139 59.1263 84.5235 59.2468C84.403 59.3673 81.8724 61.2953 81.0892 61.0242C80.3059 60.7531 80.577 60.3012 80.577 60.3012C80.577 60.3012 79.9143 63.5849 77.0825 63.5548C74.2506 63.5246 71.931 63.5246 71.449 62.3799C70.967 61.2351 71.5996 56.415 72.0816 54.5171C72.5937 52.589 73.7686 48.7932 73.7686 48.7932L69.6414 44.2141L73.1661 41.5028C73.1661 41.5028 74.0096 39.9061 74.3711 39.7254C74.7327 39.5145 74.9134 39.6953 74.9134 39.6953L79.7034 40.4183Z" fill="#B2D7FF"/>
<path d="M81.0566 59.9994C81.0265 60.1501 81.147 60.3911 81.6591 60.5718C82.2014 60.7526 83.557 59.9392 84.4307 59.3367C83.9788 59.6982 81.8097 61.2647 81.0867 61.0237C80.9261 60.9835 80.8056 60.9233 80.7252 60.843C80.906 60.4814 80.9964 60.1802 81.0566 59.9994Z" fill="url(#paint21_linear_214_5075)"/>
<path d="M71.4763 61.9875C71.9884 63.1925 74.4286 63.1925 77.411 63.2226C78.1943 63.2226 78.7968 63.0117 79.2788 62.6803C78.7667 63.1925 78.0437 63.554 77.0796 63.554C74.2478 63.5239 71.9282 63.5239 71.4462 62.3791C71.2955 61.9875 71.2654 61.2343 71.2955 60.3004C71.2955 61.0536 71.3256 61.6561 71.4763 61.9875Z" fill="url(#paint22_linear_214_5075)"/>
<path d="M74.4605 39.6954C74.4605 39.6954 73.7074 40.569 74.7618 41.7439C75.3944 42.4669 76.5091 44.0335 77.443 45.6603C78.0455 46.6845 78.5877 47.2268 78.889 48.1004C78.889 48.1004 78.9191 47.0762 78.9794 45.4494C79.0095 43.9431 79.0396 42.3766 78.9794 41.9849C78.8287 41.1715 75.2438 39.2736 74.4605 39.6954Z" fill="#F0F6FF"/>
<path d="M77.1428 42.3162C77.1428 42.3162 77.5344 42.5572 77.6549 42.5271C77.7754 42.497 78.1972 42.1054 78.1972 42.1054C78.1972 42.1054 79.2214 42.1054 79.3419 41.6535C79.4624 41.2016 79.5227 40.7798 79.6131 40.5388C79.7336 40.2978 80.1855 39.2133 80.1855 38.7614C80.1855 38.3095 80.1553 37.5263 80.3662 37.1045C80.547 36.6827 80.8181 32.4652 76.721 32.5857C72.6541 32.7062 73.9193 36.9238 73.9193 36.9238C73.9193 36.9238 73.6181 37.0443 73.7988 37.5865C73.9796 38.1288 74.0398 38.189 74.1302 38.4602C74.2206 38.7313 74.2507 38.912 74.5219 39.1229L74.5821 39.6351C74.5821 39.6351 74.4014 40.3882 74.8834 41.1413C75.3955 41.8945 77.1428 42.3162 77.1428 42.3162Z" fill="#FCD1C5"/>
<path d="M82.4142 41.0807C82.4142 41.0807 82.866 41.1409 84.2819 44.6958C85.0652 46.6841 86.2702 48.7326 86.5414 50.2087C86.7824 51.6548 86.6317 53.2514 86.3606 53.3418C86.0895 53.4623 80.9982 55.3602 79.4317 55.9627C79.3413 55.9929 79.251 55.9326 79.2208 55.8422L78.7991 53.4021L81.9321 52.1669C81.9321 52.1669 82.5346 51.4439 83.0769 51.1728C83.0769 51.1728 82.4744 49.9979 82.5045 49.6966C82.5347 49.3652 82.4443 46.0815 82.8058 44.756C83.1673 43.4305 82.4142 41.0807 82.4142 41.0807Z" fill="#5180DD"/>
<path d="M80.5762 50.4503C80.5762 50.4503 81.0281 50.1792 81.1185 50.1189C81.239 50.0888 81.8114 49.8779 81.9319 49.8478C81.9921 49.7875 82.3536 49.8176 82.5043 49.8478C82.5645 49.8478 82.6248 49.8779 82.6549 49.9381C82.7754 50.1792 83.167 50.9022 83.1068 51.1733C83.1068 51.1733 82.0825 51.8361 81.962 52.1373L81.7812 52.1674C81.7812 52.1674 81.0884 50.6612 80.5762 50.4503Z" fill="#FCD1C5"/>
<path d="M72.0816 54.517C72.2022 54.035 72.3829 53.4928 72.5335 52.8903L78.9202 55.6016C78.9202 55.6016 77.0223 57.9514 73.6783 57.8007C72.7444 57.7706 72.0817 57.4392 71.5996 57.138C71.7503 56.1137 71.931 55.1497 72.0816 54.517Z" fill="#648FE4"/>
<path d="M69.641 44.2139C69.641 44.2139 71.2979 44.4247 72.6535 46.5938C74.0092 48.7327 75.0033 51.2331 75.0033 51.2331L75.0636 51.5043C75.1841 52.2273 75.9673 52.649 76.6301 52.3478C78.0761 51.7151 80.1849 50.7511 80.5765 50.4499C80.5765 50.4499 81.8418 51.1729 82.2033 52.8298C82.4745 54.1252 82.4142 54.1553 82.4142 54.1553C82.4142 54.1553 76.7506 56.7762 74.5816 56.7461C72.3824 56.716 69.6108 49.5461 69.3096 48.07C69.0083 46.5938 68.6769 44.6356 69.641 44.2139Z" fill="#24126A"/>
<path d="M69.641 44.2139C69.641 44.2139 71.2979 44.4247 72.6535 46.5938C74.0092 48.7327 75.0033 51.2331 75.0033 51.2331L75.0636 51.5043C75.1841 52.2273 75.9673 52.649 76.6301 52.3478C78.0761 51.7151 80.1849 50.7511 80.5765 50.4499C80.5765 50.4499 81.8418 51.1729 82.2033 52.8298C82.4745 54.1252 82.4142 54.1553 82.4142 54.1553C82.4142 54.1553 76.7506 56.7762 74.5816 56.7461C72.3824 56.716 69.6108 49.5461 69.3096 48.07C69.0083 46.5938 68.6769 44.6356 69.641 44.2139Z" fill="#648FE4"/>
<path d="M75.8169 52.6793C75.8169 52.6793 75.124 53.3421 74.7926 52.9806C74.4914 52.6191 74.5818 52.5889 74.5818 52.5889C74.5818 52.5889 73.9491 52.5889 73.8587 52.1672C73.7684 51.7755 73.4671 51.9864 73.437 51.5345C73.437 51.0827 73.9792 51.173 73.9792 51.173L75.8169 52.6793Z" fill="#453C9E"/>
<path d="M76.6899 52.3176C76.6899 52.3176 76.4791 52.1368 76.2381 51.926C75.9971 51.7151 75.5753 50.8414 75.515 50.7511C75.4247 50.6908 74.5811 50.0281 74.1594 50.0281C73.7678 49.9979 74.069 50.4498 74.1594 50.5402C74.2498 50.6004 74.6414 50.7812 74.6414 50.7812C74.6414 50.7812 75.0632 51.1427 75.1234 51.2029C75.1535 51.2331 73.9786 51.1126 73.7678 51.2331C73.587 51.3536 73.6171 51.6548 73.7678 51.7151C73.8883 51.8055 74.0088 51.8055 74.0088 51.8055C74.0088 51.8055 73.8581 52.167 74.2196 52.3477C74.5811 52.4983 74.6715 52.408 74.6715 52.408C74.6715 52.408 74.7016 53.0406 75.3042 52.9201L76.6899 52.3176Z" fill="#FCD1C5"/>
<path d="M80.4563 34.9353C80.4563 34.9353 80.9685 36.6223 79.5827 36.1403C78.1668 35.6583 76.9015 34.875 76.4797 35.1763C76.1484 35.4173 76.1484 36.1102 76.1785 36.4416C76.1785 36.5621 76.1484 36.6725 76.0881 36.773L75.6663 37.3755C75.6262 37.4357 75.6061 37.506 75.6061 37.5863L75.576 38.0081C75.576 38.1286 75.4856 38.219 75.3651 38.219H75.2747C75.1843 38.219 75.0638 38.1587 75.0638 38.0382L74.9433 37.4357C74.9433 37.4357 74.612 36.5922 73.9191 36.9236C73.9191 36.9236 73.4672 36.2909 73.6178 34.9654C73.7684 33.6098 74.371 32.224 76.9919 32.0131C79.6128 31.7721 80.4563 34.9353 80.4563 34.9353Z" fill="#333333"/>
<path d="M76.4197 43.8225L76.8415 43.4911C76.8415 43.4911 77.203 43.7924 77.3235 44.1237C77.4741 44.4551 77.3235 45.4794 77.3235 45.4794L77.444 45.6602L77.5946 45.389L77.7151 44.184C77.7151 44.184 77.5946 43.3104 77.5645 43.2802C77.5645 43.2501 76.8113 43.3706 76.8113 43.3706C76.8113 43.3706 76.5703 43.5514 76.4197 43.8225Z" fill="#C4CCD6"/>
<path d="M78.3177 42.6176C78.3177 42.6176 78.7394 42.6477 78.9202 42.7983C78.9202 42.7983 78.4984 42.8284 78.408 42.8284C78.3478 42.8284 78.3177 42.6176 78.3177 42.6176Z" fill="#C4CCD6"/>
<path d="M77.5335 42.7076L76.8104 43.3704C76.8104 43.3704 77.4431 43.6415 77.6238 44.2139C77.6238 44.2139 78.377 44.3344 78.4372 44.0633C78.5276 43.7921 78.4372 43.0992 78.5276 42.7679C78.618 42.4666 77.5335 42.7076 77.5335 42.7076Z" fill="#39C0EA"/>
<path d="M78.4076 44.0634C78.4076 44.0634 78.5582 44.6357 78.6787 44.8767C78.8294 45.1178 78.98 45.3588 78.98 45.3588V48.7629C78.98 48.7629 77.7147 46.2023 77.4436 45.66C77.4436 45.66 77.5038 44.4249 77.6243 44.214C77.7147 43.973 78.4076 44.0634 78.4076 44.0634Z" fill="#39C0EA"/>
<path d="M75.0632 39.0625C75.9067 41.4123 78.1963 42.1052 78.1963 42.1052C78.1963 42.1052 77.7745 42.4968 77.654 42.5269C77.5335 42.5571 77.1419 42.3161 77.1419 42.3161C77.1419 42.3161 75.3946 41.8943 74.8825 41.1412C74.4005 40.388 74.5812 39.6349 74.5812 39.6349L74.521 39.1228C74.8825 39.2433 75.0632 39.0625 75.0632 39.0625Z" fill="#E2B1A6"/>
<path d="M73.1958 41.8037C73.1958 41.8037 73.5272 42.9184 73.5574 42.9786C73.6176 43.0087 74.3708 42.9184 74.3708 42.9184L74.0092 43.6414C74.0092 43.6414 77.8653 47.7686 78.6787 50.028C78.6787 50.028 76.8411 47.1962 73.6176 43.792L74.0695 43.0991L73.2862 43.2799L73.1958 41.8037Z" fill="#0F59EA"/>
<path d="M79.5522 40.84L79.763 41.0508L79.522 41.2919L80.245 41.9245C80.245 41.9245 80.4559 46.4734 79.5823 49.486C79.5823 49.486 80.7873 46.7145 80.5162 41.804L79.7329 41.2919L79.9739 41.0508L79.5522 40.84Z" fill="#0F59EA"/>
<path d="M77.1116 65.9042L78.1057 64.8499C77.6539 65.4825 78.166 68.4951 78.2263 69.1578C78.2865 69.8507 77.684 71.2666 77.4731 72.9235C77.2622 74.5804 77.7141 76.9302 77.7141 76.9302C77.4129 76.7796 77.202 76.5085 77.0815 76.0867C76.7501 74.5202 76.8706 71.6281 77.2622 70.4231C77.6237 69.2181 77.1116 65.9042 77.1116 65.9042Z" fill="#222222"/>
<path d="M74.5812 56.7464C72.3821 56.7163 69.6105 49.5464 69.3092 48.0703C69.249 47.8092 69.1988 47.5481 69.1586 47.287C69.1586 47.3171 69.731 48.8535 70.2732 50.2393C70.8155 51.6251 73.7377 55.8125 75.244 56.0837C76.5695 56.3247 81.4197 54.0653 82.3536 53.6435C82.444 54.1255 82.4139 54.1556 82.4139 54.1556C82.4139 54.1556 76.7503 56.7766 74.5812 56.7464Z" fill="url(#paint23_linear_214_5075)"/>
<path d="M95.9443 64.7856C95.9443 64.7856 96.1552 64.9965 96.3962 65.2676C96.6071 65.5388 97.2397 65.9304 97.5109 66.081C97.782 66.2618 99.0172 67.1957 99.2582 68.0995C99.5293 69.0032 98.6556 69.1237 97.7519 68.9731C96.8481 68.8225 96.0046 67.979 95.7636 67.6777C95.5226 67.3764 94.6791 66.7137 93.5945 66.1413C92.4799 65.5689 93.1427 64.8158 93.1427 64.8158L95.9443 64.7856Z" fill="#367E89"/>
<path d="M87.7794 67.4971C87.7794 67.4971 87.5986 67.9188 87.5384 68.431C87.4781 68.9732 87.4179 70.118 87.3877 70.4494C87.3576 70.7808 87.3275 71.6243 87.93 72.4075C88.5325 73.1908 88.8338 73.4921 89.617 73.1908C90.4003 72.8896 90.3702 71.564 90.2497 70.8711C90.099 70.2084 89.9786 68.672 89.9786 68.5213C90.0087 68.3707 89.9484 68.2803 89.9484 68.2803L87.7794 67.4971Z" fill="#367E89"/>
<path d="M98.6553 49.2107C98.6553 49.2107 98.4745 55.266 97.0887 58.4894C97.0887 58.4894 96.0645 61.2911 95.944 64.6652C95.944 64.6652 96.1548 65.2376 95.8235 65.7196C95.5222 66.2016 93.4435 66.6234 93.082 65.0869C92.7507 63.5204 92.8711 60.6284 93.2628 59.4233C93.6243 58.2183 93.1122 54.9045 93.1122 54.9045C93.1122 54.9045 92.5699 55.266 91.8168 57.6459C91.0636 60.0258 90.5214 60.9296 90.2804 61.5924C90.0092 62.2551 89.7983 66.3221 89.949 68.2803C89.949 68.2803 88.2619 68.5213 87.7799 67.738C87.2979 66.9246 87.1473 62.7974 87.2678 61.4719C87.3883 60.1463 87.9306 55.8986 87.8703 54.6032C87.7799 53.2777 87.5088 52.2233 87.8101 50.9279C88.1113 49.6024 96.9682 46.7103 96.9682 46.7103L98.6553 49.2107Z" fill="#333333"/>
<path d="M87.8703 54.6034C87.7799 53.2779 87.5088 52.2235 87.8101 50.9281C87.9306 50.416 89.2561 49.6929 90.8527 49.0001C93.564 48.759 96.9984 48.4578 97.2394 48.518C97.4502 48.5482 97.9925 48.7591 98.4745 48.9398L98.6553 49.2109C98.6553 49.2109 98.6553 49.5724 98.595 50.175C97.9624 50.3858 96.7574 50.175 96.7574 50.175C96.5766 50.5967 95.5222 52.103 94.2268 52.7658C92.9013 53.3984 89.0753 53.1875 88.8644 53.4285C88.6234 53.6695 88.5933 56.9833 88.6234 57.4051C88.6536 57.8269 88.2619 60.4779 87.9004 62.8277C87.5389 65.1474 88.0812 67.9491 88.1113 68.0394C87.9707 67.9591 87.8603 67.8587 87.7799 67.7382C87.2979 66.9248 87.1473 62.7976 87.2678 61.4721C87.3883 60.1465 87.9306 55.8988 87.8703 54.6034Z" fill="#222222"/>
<path d="M95.7034 29.4183C95.7034 29.4183 97.6615 29.8702 98.3243 30.0208C98.4147 30.0509 98.5051 30.1413 98.5653 30.2317C98.7461 30.7137 99.2281 32.22 98.8666 34.4191C98.4147 37.1003 98.5653 38.9078 98.5653 38.9078L99.4691 43.6376C99.4691 43.6376 100.614 48.1263 100.523 48.2468C100.403 48.3673 97.8724 50.2953 97.0892 50.0242C96.3059 49.7531 96.577 49.3012 96.577 49.3012C96.577 49.3012 95.9143 52.5849 93.0825 52.5548C90.2506 52.5246 87.931 52.5246 87.449 51.3799C86.967 50.2351 87.5996 45.415 88.0816 43.5171C88.5937 41.589 89.7686 37.7932 89.7686 37.7932L85.6414 33.2141L89.1661 30.5028C89.1661 30.5028 90.0096 28.9061 90.3711 28.7254C90.7327 28.5145 90.9134 28.6953 90.9134 28.6953L95.7034 29.4183Z" fill="#453C9E"/>
<path d="M97.0566 48.9993C97.0265 49.1499 97.147 49.3909 97.6591 49.5717C98.2014 49.7525 99.557 48.9391 100.431 48.3365C99.9788 48.6981 97.8097 50.2646 97.0867 50.0236C96.9261 49.9834 96.8056 49.9232 96.7252 49.8428C96.906 49.4813 96.9964 49.1801 97.0566 48.9993Z" fill="url(#paint24_linear_214_5075)"/>
<path d="M87.4763 50.9873C87.9884 52.1924 90.4286 52.1924 93.411 52.2225C94.1943 52.2225 94.7968 52.0116 95.2788 51.6802C94.7667 52.1924 94.0437 52.5539 93.0796 52.5539C90.2478 52.5237 87.9282 52.5237 87.4462 51.379C87.2955 50.9873 87.2654 50.2342 87.2955 49.3003C87.2955 50.0534 87.3256 50.6559 87.4763 50.9873Z" fill="url(#paint25_linear_214_5075)"/>
<path d="M90.4605 28.6954C90.4605 28.6954 89.7074 29.569 90.7618 30.7439C91.3944 31.4669 92.5091 33.0335 93.443 34.6603C94.0455 35.6845 94.5877 36.2268 94.889 37.1004C94.889 37.1004 94.9191 36.0762 94.9794 34.4494C95.0095 32.9431 95.0396 31.3766 94.9794 30.9849C94.8287 30.1715 91.2438 28.2736 90.4605 28.6954Z" fill="#F0F6FF"/>
<path d="M93.1428 31.3162C93.1428 31.3162 93.5344 31.5572 93.6549 31.5271C93.7754 31.497 94.1972 31.1054 94.1972 31.1054C94.1972 31.1054 95.2214 31.1054 95.3419 30.6535C95.4624 30.2016 95.5227 29.7798 95.6131 29.5388C95.7336 29.2978 96.1855 28.2133 96.1855 27.7614C96.1855 27.3095 96.1553 26.5263 96.3662 26.1045C96.547 25.6827 96.8181 21.4652 92.721 21.5857C88.6541 21.7062 89.9193 25.9238 89.9193 25.9238C89.9193 25.9238 89.6181 26.0443 89.7988 26.5865C89.9796 27.1288 90.0398 27.189 90.1302 27.4602C90.2206 27.7313 90.2507 27.912 90.5219 28.1229L90.5821 28.6351C90.5821 28.6351 90.4014 29.3882 90.8834 30.1413C91.3955 30.8945 93.1428 31.3162 93.1428 31.3162Z" fill="#FCD1C5"/>
<path d="M98.4142 30.0806C98.4142 30.0806 98.866 30.1408 100.282 33.6956C101.065 35.6839 102.27 37.7325 102.541 39.2086C102.782 40.6547 102.632 42.2513 102.361 42.3417C102.089 42.4622 96.9982 44.3601 95.4317 44.9626C95.3413 44.9927 95.251 44.9325 95.2208 44.8421L94.7991 42.4019L97.9321 41.1668C97.9321 41.1668 98.5346 40.4438 99.0769 40.1726C99.0769 40.1726 98.4744 38.9977 98.5045 38.6965C98.5347 38.3651 98.4443 35.0814 98.8058 33.7559C99.1673 32.4304 98.4142 30.0806 98.4142 30.0806Z" fill="#24126A"/>
<path d="M96.5762 39.4503C96.5762 39.4503 97.0281 39.1792 97.1185 39.1189C97.239 39.0888 97.8114 38.8779 97.9319 38.8478C97.9921 38.7875 98.3536 38.8176 98.5043 38.8478C98.5645 38.8478 98.6248 38.8779 98.6549 38.9381C98.7754 39.1792 99.167 39.9022 99.1068 40.1733C99.1068 40.1733 98.0825 40.8361 97.962 41.1373L97.7812 41.1674C97.7812 41.1674 97.0884 39.6612 96.5762 39.4503Z" fill="#FCD1C5"/>
<path d="M88.0816 43.517C88.2022 43.035 88.3829 42.4928 88.5335 41.8903L94.9202 44.6016C94.9202 44.6016 93.0223 46.9514 89.6783 46.8007C88.7444 46.7706 88.0817 46.4392 87.5996 46.138C87.7503 45.1137 87.931 44.1497 88.0816 43.517Z" fill="#24126A"/>
<path d="M85.641 33.2139C85.641 33.2139 87.2979 33.4247 88.6535 35.5938C90.0092 37.7327 91.0033 40.2331 91.0033 40.2331L91.0636 40.5043C91.1841 41.2273 91.9673 41.649 92.6301 41.3478C94.0761 40.7151 96.1849 39.7511 96.5765 39.4499C96.5765 39.4499 97.8418 40.1729 98.2033 41.8298C98.4745 43.1252 98.4142 43.1553 98.4142 43.1553C98.4142 43.1553 92.7506 45.7762 90.5816 45.7461C88.3824 45.716 85.6108 38.5461 85.3096 37.07C85.0083 35.5938 84.6769 33.6356 85.641 33.2139Z" fill="#24126A"/>
<path d="M85.641 33.2139C85.641 33.2139 87.2979 33.4247 88.6535 35.5938C90.0092 37.7327 91.0033 40.2331 91.0033 40.2331L91.0636 40.5043C91.1841 41.2273 91.9673 41.649 92.6301 41.3478C94.0761 40.7151 96.1849 39.7511 96.5765 39.4499C96.5765 39.4499 97.8418 40.1729 98.2033 41.8298C98.4745 43.1252 98.4142 43.1553 98.4142 43.1553C98.4142 43.1553 92.7506 45.7762 90.5816 45.7461C88.3824 45.716 85.6108 38.5461 85.3096 37.07C85.0083 35.5938 84.6769 33.6356 85.641 33.2139Z" fill="#4846A5"/>
<path d="M91.8169 41.6793C91.8169 41.6793 91.124 42.3421 90.7926 41.9806C90.4914 41.6191 90.5818 41.5889 90.5818 41.5889C90.5818 41.5889 89.9491 41.5889 89.8587 41.1672C89.7684 40.7755 89.4671 40.9864 89.437 40.5345C89.437 40.0827 89.9792 40.173 89.9792 40.173L91.8169 41.6793Z" fill="#453C9E"/>
<path d="M92.6899 41.3175C92.6899 41.3175 92.4791 41.1367 92.2381 40.9258C91.9971 40.715 91.5753 39.8413 91.515 39.7509C91.4247 39.6907 90.5811 39.0279 90.1594 39.0279C89.7678 38.9978 90.069 39.4497 90.1594 39.5401C90.2498 39.6003 90.6414 39.7811 90.6414 39.7811C90.6414 39.7811 91.0632 40.1426 91.1234 40.2028C91.1535 40.233 89.9786 40.1125 89.7678 40.233C89.587 40.3535 89.6171 40.6547 89.7678 40.715C89.8883 40.8053 90.0088 40.8053 90.0088 40.8053C90.0088 40.8053 89.8581 41.1668 90.2196 41.3476C90.5811 41.4982 90.6715 41.4078 90.6715 41.4078C90.6715 41.4078 90.7016 42.0405 91.3042 41.92L92.6899 41.3175Z" fill="#FCD1C5"/>
<path d="M96.4563 23.9353C96.4563 23.9353 96.9685 25.6223 95.5827 25.1403C94.1668 24.6583 92.9015 23.875 92.4797 24.1763C92.1484 24.4173 92.1484 25.1102 92.1785 25.4416C92.1785 25.5621 92.1484 25.6725 92.0881 25.773L91.6663 26.3755C91.6262 26.4357 91.6061 26.506 91.6061 26.5863L91.576 27.0081C91.576 27.1286 91.4856 27.219 91.3651 27.219H91.2747C91.1843 27.219 91.0638 27.1587 91.0638 27.0382L90.9433 26.4357C90.9433 26.4357 90.612 25.5922 89.9191 25.9236C89.9191 25.9236 89.4672 25.2909 89.6178 23.9654C89.7684 22.6098 90.371 21.224 92.9919 21.0131C95.6128 20.7721 96.4563 23.9353 96.4563 23.9353Z" fill="#333333"/>
<path d="M92.4197 32.8225L92.8415 32.4911C92.8415 32.4911 93.203 32.7924 93.3235 33.1237C93.4741 33.4551 93.3235 34.4794 93.3235 34.4794L93.444 34.6602L93.5946 34.389L93.7151 33.184C93.7151 33.184 93.5946 32.3104 93.5645 32.2802C93.5645 32.2501 92.8113 32.3706 92.8113 32.3706C92.8113 32.3706 92.5703 32.5514 92.4197 32.8225Z" fill="#C4CCD6"/>
<path d="M94.3177 31.6176C94.3177 31.6176 94.7394 31.6477 94.9202 31.7983C94.9202 31.7983 94.4984 31.8284 94.408 31.8284C94.3478 31.8284 94.3177 31.6176 94.3177 31.6176Z" fill="#C4CCD6"/>
<path d="M93.5335 31.7076L92.8104 32.3704C92.8104 32.3704 93.4431 32.6415 93.6238 33.2139C93.6238 33.2139 94.377 33.3344 94.4372 33.0633C94.5276 32.7921 94.4372 32.0992 94.5276 31.7679C94.618 31.4666 93.5335 31.7076 93.5335 31.7076Z" fill="#24126A"/>
<path d="M94.4076 33.0634C94.4076 33.0634 94.5582 33.6357 94.6787 33.8767C94.8294 34.1178 94.98 34.3588 94.98 34.3588V37.7629C94.98 37.7629 93.7147 35.2023 93.4436 34.66C93.4436 34.66 93.5038 33.4249 93.6243 33.214C93.7147 32.973 94.4076 33.0634 94.4076 33.0634Z" fill="#24126A"/>
<path d="M91.0632 28.0625C91.9067 30.4123 94.1963 31.1052 94.1963 31.1052C94.1963 31.1052 93.7745 31.4968 93.654 31.5269C93.5335 31.5571 93.1419 31.3161 93.1419 31.3161C93.1419 31.3161 91.3946 30.8943 90.8825 30.1412C90.4005 29.388 90.5812 28.6349 90.5812 28.6349L90.521 28.1228C90.8825 28.2433 91.0632 28.0625 91.0632 28.0625Z" fill="#E2B1A6"/>
<path d="M89.1958 30.8037C89.1958 30.8037 89.5272 31.9184 89.5574 31.9786C89.6176 32.0087 90.3708 31.9184 90.3708 31.9184L90.0092 32.6414C90.0092 32.6414 93.8653 36.7686 94.6787 39.028C94.6787 39.028 92.8411 36.1962 89.6176 32.792L90.0695 32.0991L89.2862 32.2799L89.1958 30.8037Z" fill="#24126A"/>
<path d="M95.5522 29.84L95.763 30.0508L95.522 30.2919L96.245 30.9245C96.245 30.9245 96.4559 35.4734 95.5823 38.486C95.5823 38.486 96.7873 35.7145 96.5162 30.804L95.7329 30.2919L95.9739 30.0508L95.5522 29.84Z" fill="#24126A"/>
<path d="M93.1116 54.9042L94.1057 53.8499C93.6539 54.4825 94.166 57.4951 94.2263 58.1578C94.2865 58.8507 93.684 60.2666 93.4731 61.9235C93.2622 63.5804 93.7141 65.9302 93.7141 65.9302C93.4129 65.7796 93.202 65.5085 93.0815 65.0867C92.7501 63.5202 92.8706 60.6281 93.2622 59.4231C93.6237 58.2181 93.1116 54.9042 93.1116 54.9042Z" fill="#222222"/>
<path d="M90.5812 45.7464C88.3821 45.7163 85.6105 38.5464 85.3092 37.0703C85.249 36.8092 85.1988 36.5481 85.1586 36.287C85.1586 36.3171 85.731 37.8535 86.2732 39.2393C86.8155 40.6251 89.7377 44.8125 91.244 45.0837C92.5695 45.3247 97.4197 43.0653 98.3536 42.6435C98.444 43.1255 98.4139 43.1556 98.4139 43.1556C98.4139 43.1556 92.7503 45.7766 90.5812 45.7464Z" fill="url(#paint26_linear_214_5075)"/>
<path d="M63.4795 98.7856C63.4795 98.7856 63.6904 98.9965 63.9314 99.2676C64.1423 99.5388 64.7749 99.9304 65.046 100.081C65.3172 100.262 66.5523 101.196 66.7933 102.099C67.0644 103.003 66.1908 103.124 65.287 102.973C64.3833 102.822 63.5397 101.979 63.2987 101.678C63.0577 101.376 62.2142 100.714 61.1297 100.141C60.0151 99.5689 60.6778 98.8158 60.6778 98.8158L63.4795 98.7856Z" fill="#367E89"/>
<path d="M55.3145 101.497C55.3145 101.497 55.1338 101.919 55.0735 102.431C55.0133 102.973 54.953 104.118 54.9229 104.449C54.8928 104.781 54.8626 105.624 55.4652 106.408C56.0677 107.191 56.3689 107.492 57.1522 107.191C57.9355 106.89 57.9053 105.564 57.7848 104.871C57.6342 104.208 57.5137 102.672 57.5137 102.521C57.5438 102.371 57.4836 102.28 57.4836 102.28L55.3145 101.497Z" fill="#367E89"/>
<path d="M66.1904 83.2109C66.1904 83.2109 66.0097 89.2661 64.6239 92.4896C64.6239 92.4896 63.5996 95.2912 63.4791 98.6653C63.4791 98.6653 63.69 99.2377 63.3586 99.7197C63.0574 100.202 60.9787 100.623 60.6172 99.0871C60.2858 97.5205 60.4063 94.6285 60.7979 93.4235C61.1594 92.2184 60.6473 88.9046 60.6473 88.9046C60.6473 88.9046 60.1051 89.2661 59.3519 91.646C58.5988 94.026 58.0565 94.9297 57.8155 95.5925C57.5444 96.2553 57.3335 100.322 57.4841 102.28C57.4841 102.28 55.7971 102.521 55.3151 101.738C54.8331 100.925 54.6824 96.7975 54.803 95.472C54.9235 94.1465 55.4657 89.8988 55.4055 88.6034C55.3151 87.2778 55.044 86.2234 55.3452 84.928C55.6465 83.6025 64.5034 80.7104 64.5034 80.7104L66.1904 83.2109Z" fill="#333333"/>
<path d="M55.4055 88.6034C55.3151 87.2779 55.044 86.2235 55.3452 84.9281C55.4657 84.416 56.7912 83.6929 58.3879 83.0001C61.0992 82.759 64.5335 82.4578 64.7745 82.518C64.9854 82.5482 65.5277 82.7591 66.0097 82.9398L66.1904 83.2109C66.1904 83.2109 66.1904 83.5724 66.1302 84.175C65.4975 84.3858 64.2925 84.175 64.2925 84.175C64.1118 84.5967 63.0574 86.103 61.762 86.7658C60.4364 87.3984 56.6105 87.1875 56.3996 87.4285C56.1586 87.6695 56.1285 90.9833 56.1586 91.4051C56.1887 91.8269 55.7971 94.4779 55.4356 96.8277C55.0741 99.1474 55.6163 101.949 55.6465 102.039C55.5059 101.959 55.3954 101.859 55.3151 101.738C54.8331 100.925 54.6824 96.7976 54.803 95.4721C54.9235 94.1465 55.4657 89.8988 55.4055 88.6034Z" fill="#222222"/>
<path d="M63.2385 63.4183C63.2385 63.4183 65.1967 63.8702 65.8595 64.0208C65.9498 64.0509 66.0402 64.1413 66.1005 64.2317C66.2812 64.7137 66.7632 66.22 66.4017 68.4191C65.9498 71.1003 66.1005 72.9078 66.1005 72.9078L67.0042 77.6376C67.0042 77.6376 68.149 82.1263 68.0586 82.2468C67.9381 82.3673 65.4076 84.2953 64.6243 84.0242C63.841 83.7531 64.1122 83.3012 64.1122 83.3012C64.1122 83.3012 63.4494 86.5849 60.6176 86.5548C57.7858 86.5246 55.4661 86.5246 54.9841 85.3799C54.5021 84.2351 55.1347 79.415 55.6167 77.5171C56.1289 75.589 57.3038 71.7932 57.3038 71.7932L53.1766 67.2141L56.7013 64.5028C56.7013 64.5028 57.5448 62.9061 57.9063 62.7254C58.2678 62.5145 58.4486 62.6953 58.4486 62.6953L63.2385 63.4183Z" fill="#509AA6"/>
<path d="M64.5918 82.9992C64.5616 83.1498 64.6821 83.3908 65.1943 83.5716C65.7365 83.7523 67.0922 82.9389 67.9658 82.3364C67.5139 82.6979 65.3449 84.2645 64.6219 84.0235C64.4612 83.9833 64.3407 83.923 64.2604 83.8427C64.4411 83.4812 64.5315 83.1799 64.5918 82.9992Z" fill="url(#paint27_linear_214_5075)"/>
<path d="M55.0114 84.9873C55.5236 86.1924 57.9637 86.1924 60.9462 86.2225C61.7294 86.2225 62.332 86.0116 62.814 85.6802C62.3018 86.1924 61.5788 86.5539 60.6148 86.5539C57.783 86.5237 55.4633 86.5237 54.9813 85.379C54.8307 84.9873 54.8006 84.2342 54.8307 83.3003C54.8307 84.0534 54.8608 84.6559 55.0114 84.9873Z" fill="url(#paint28_linear_214_5075)"/>
<path d="M57.9957 62.6954C57.9957 62.6954 57.2425 63.569 58.2969 64.7439C58.9296 65.4669 60.0442 67.0335 60.9781 68.6603C61.5806 69.6845 62.1229 70.2268 62.4242 71.1004C62.4242 71.1004 62.4543 70.0762 62.5145 68.4494C62.5447 66.9431 62.5748 65.3766 62.5145 64.9849C62.3639 64.1715 58.779 62.2736 57.9957 62.6954Z" fill="#F0F6FF"/>
<path d="M60.6779 65.3161C60.6779 65.3161 61.0696 65.5571 61.1901 65.527C61.3106 65.4969 61.7323 65.1052 61.7323 65.1052C61.7323 65.1052 62.7566 65.1052 62.8771 64.6534C62.9976 64.2015 63.0578 63.7797 63.1482 63.5387C63.2687 63.2977 63.7206 62.2132 63.7206 61.7613C63.7206 61.3094 63.6905 60.5261 63.9014 60.1044C64.0821 59.6826 64.3533 55.465 60.2562 55.5855C56.1892 55.706 57.4545 59.9236 57.4545 59.9236C57.4545 59.9236 57.1532 60.0441 57.334 60.5864C57.5147 61.1287 57.575 61.1889 57.6654 61.46C57.7558 61.7312 57.7859 61.9119 58.057 62.1228L58.1173 62.6349C58.1173 62.6349 57.9365 63.3881 58.4185 64.1412C58.9307 64.8944 60.6779 65.3161 60.6779 65.3161Z" fill="#FCD1C5"/>
<path d="M65.9493 64.0806C65.9493 64.0806 66.4012 64.1408 67.8171 67.6956C68.6004 69.6839 69.8054 71.7325 70.0765 73.2086C70.3175 74.6547 70.1669 76.2513 69.8958 76.3417C69.6246 76.4622 64.5334 78.3601 62.9669 78.9626C62.8765 78.9927 62.7861 78.9325 62.756 78.8421L62.3342 76.4019L65.4673 75.1668C65.4673 75.1668 66.0698 74.4438 66.6121 74.1726C66.6121 74.1726 66.0096 72.9977 66.0397 72.6965C66.0698 72.3651 65.9794 69.0814 66.3409 67.7559C66.7025 66.4304 65.9493 64.0806 65.9493 64.0806Z" fill="#28565D"/>
<path d="M64.1114 73.4503C64.1114 73.4503 64.5633 73.1792 64.6536 73.1189C64.7741 73.0888 65.3465 72.8779 65.467 72.8478C65.5273 72.7875 65.8888 72.8176 66.0394 72.8478C66.0997 72.8478 66.1599 72.8779 66.1901 72.9381C66.3106 73.1792 66.7022 73.9022 66.6419 74.1733C66.6419 74.1733 65.6177 74.8361 65.4972 75.1373L65.3164 75.1674C65.3164 75.1674 64.6235 73.6612 64.1114 73.4503Z" fill="#FCD1C5"/>
<path d="M55.6168 77.517C55.7373 77.035 55.9181 76.4928 56.0687 75.8903L62.4553 78.6016C62.4553 78.6016 60.5574 80.9514 57.2135 80.8007C56.2796 80.7706 55.6168 80.4392 55.1348 80.138C55.2854 79.1137 55.4662 78.1497 55.6168 77.517Z" fill="#28565D"/>
<path d="M53.1761 67.2139C53.1761 67.2139 54.833 67.4247 56.1887 69.5938C57.5443 71.7327 58.5385 74.2331 58.5385 74.2331L58.5987 74.5043C58.7192 75.2273 59.5025 75.649 60.1653 75.3478C61.6113 74.7151 63.7201 73.7511 64.1117 73.4499C64.1117 73.4499 65.377 74.1729 65.7385 75.8298C66.0096 77.1252 65.9494 77.1553 65.9494 77.1553C65.9494 77.1553 60.2858 79.7762 58.1167 79.7461C55.9175 79.716 53.146 72.5461 52.8447 71.07C52.5435 69.5938 52.2121 67.6356 53.1761 67.2139Z" fill="#24126A"/>
<path d="M53.1761 67.2139C53.1761 67.2139 54.833 67.4247 56.1887 69.5938C57.5443 71.7327 58.5385 74.2331 58.5385 74.2331L58.5987 74.5043C58.7192 75.2273 59.5025 75.649 60.1653 75.3478C61.6113 74.7151 63.7201 73.7511 64.1117 73.4499C64.1117 73.4499 65.377 74.1729 65.7385 75.8298C66.0096 77.1252 65.9494 77.1553 65.9494 77.1553C65.9494 77.1553 60.2858 79.7762 58.1167 79.7461C55.9175 79.716 53.146 72.5461 52.8447 71.07C52.5435 69.5938 52.2121 67.6356 53.1761 67.2139Z" fill="#8BCCD6"/>
<path d="M59.3521 75.6793C59.3521 75.6793 58.6592 76.3421 58.3278 75.9806C58.0265 75.6191 58.1169 75.5889 58.1169 75.5889C58.1169 75.5889 57.4843 75.5889 57.3939 75.1672C57.3035 74.7755 57.0022 74.9864 56.9721 74.5345C56.9721 74.0827 57.5144 74.173 57.5144 74.173L59.3521 75.6793Z" fill="#453C9E"/>
<path d="M60.2251 75.3175C60.2251 75.3175 60.0142 75.1367 59.7732 74.9258C59.5322 74.715 59.1104 73.8413 59.0502 73.7509C58.9598 73.6907 58.1163 73.0279 57.6945 73.0279C57.3029 72.9978 57.6042 73.4497 57.6945 73.5401C57.7849 73.6003 58.1765 73.7811 58.1765 73.7811C58.1765 73.7811 58.5983 74.1426 58.6586 74.2028C58.6887 74.233 57.5138 74.1125 57.3029 74.233C57.1222 74.3535 57.1523 74.6547 57.3029 74.715C57.4234 74.8053 57.5439 74.8053 57.5439 74.8053C57.5439 74.8053 57.3933 75.1668 57.7548 75.3476C58.1163 75.4982 58.2067 75.4078 58.2067 75.4078C58.2067 75.4078 58.2368 76.0405 58.8393 75.92L60.2251 75.3175Z" fill="#FCD1C5"/>
<path d="M63.9915 57.9353C63.9915 57.9353 64.5036 59.6223 63.1178 59.1403C61.7019 58.6583 60.4367 57.875 60.0149 58.1763C59.6835 58.4173 59.6835 59.1102 59.7136 59.4416C59.7136 59.5621 59.6835 59.6725 59.6233 59.773L59.2015 60.3755C59.1613 60.4357 59.1412 60.506 59.1412 60.5863L59.1111 61.0081C59.1111 61.1286 59.0208 61.219 58.9002 61.219H58.8099C58.7195 61.219 58.599 61.1587 58.599 61.0382L58.4785 60.4357C58.4785 60.4357 58.1471 59.5922 57.4542 59.9236C57.4542 59.9236 57.0023 59.2909 57.153 57.9654C57.3036 56.6098 57.9061 55.224 60.527 55.0131C63.148 54.7721 63.9915 57.9353 63.9915 57.9353Z" fill="#333333"/>
<path d="M59.9548 66.8225L60.3766 66.4911C60.3766 66.4911 60.7381 66.7924 60.8586 67.1237C61.0092 67.4551 60.8586 68.4794 60.8586 68.4794L60.9791 68.6602L61.1298 68.389L61.2502 67.184C61.2502 67.184 61.1297 66.3104 61.0996 66.2802C61.0996 66.2501 60.3465 66.3706 60.3465 66.3706C60.3465 66.3706 60.1055 66.5514 59.9548 66.8225Z" fill="#C4CCD6"/>
<path d="M61.8528 65.6174C61.8528 65.6174 62.2746 65.6476 62.4553 65.7982C62.4553 65.7982 62.0336 65.8283 61.9432 65.8283C61.8829 65.8283 61.8528 65.6174 61.8528 65.6174Z" fill="#C4CCD6"/>
<path d="M61.0686 65.7076L60.3456 66.3704C60.3456 66.3704 60.9782 66.6415 61.159 67.2139C61.159 67.2139 61.9121 67.3344 61.9724 67.0633C62.0628 66.7921 61.9724 66.0992 62.0628 65.7679C62.1531 65.4666 61.0686 65.7076 61.0686 65.7076Z" fill="#F1935C"/>
<path d="M61.9427 67.0632C61.9427 67.0632 62.0934 67.6356 62.2139 67.8766C62.3645 68.1176 62.5151 68.3586 62.5151 68.3586V71.7628C62.5151 71.7628 61.2499 69.2022 60.9787 68.6599C60.9787 68.6599 61.039 67.4247 61.1595 67.2139C61.2499 66.9729 61.9427 67.0632 61.9427 67.0632Z" fill="#F1935C"/>
<path d="M58.5984 62.0625C59.4419 64.4123 61.7314 65.1052 61.7314 65.1052C61.7314 65.1052 61.3097 65.4968 61.1892 65.5269C61.0687 65.5571 60.677 65.3161 60.677 65.3161C60.677 65.3161 58.9298 64.8943 58.4176 64.1412C57.9356 63.388 58.1164 62.6349 58.1164 62.6349L58.0561 62.1228C58.4176 62.2433 58.5984 62.0625 58.5984 62.0625Z" fill="#E2B1A6"/>
<path d="M56.731 64.8037C56.731 64.8037 57.0624 65.9184 57.0925 65.9786C57.1528 66.0087 57.9059 65.9184 57.9059 65.9184L57.5444 66.6414C57.5444 66.6414 61.4005 70.7686 62.2139 73.028C62.2139 73.028 60.3762 70.1962 57.1528 66.792L57.6047 66.0991L56.8214 66.2799L56.731 64.8037Z" fill="#28565D"/>
<path d="M63.0873 63.84L63.2982 64.0508L63.0572 64.2919L63.7802 64.9245C63.7802 64.9245 63.9911 69.4734 63.1174 72.486C63.1174 72.486 64.3225 69.7145 64.0513 64.804L63.2681 64.2919L63.5091 64.0508L63.0873 63.84Z" fill="#28565D"/>
<path d="M60.6468 88.9042L61.6409 87.8499C61.189 88.4825 61.7012 91.4951 61.7614 92.1578C61.8217 92.8507 61.2192 94.2666 61.0083 95.9235C60.7974 97.5804 61.2493 99.9302 61.2493 99.9302C60.948 99.7796 60.7371 99.5085 60.6166 99.0867C60.2853 97.5202 60.4058 94.6281 60.7974 93.4231C61.1589 92.2181 60.6468 88.9042 60.6468 88.9042Z" fill="#222222"/>
<path d="M58.1164 79.7464C55.9172 79.7163 53.1457 72.5464 52.8444 71.0703C52.7841 70.8092 52.7339 70.5481 52.6938 70.287C52.6938 70.3171 53.2661 71.8535 53.8084 73.2393C54.3507 74.6251 57.2728 78.8125 58.7791 79.0837C60.1047 79.3247 64.9549 77.0653 65.8888 76.6435C65.9792 77.1255 65.949 77.1556 65.949 77.1556C65.949 77.1556 60.2854 79.7766 58.1164 79.7464Z" fill="url(#paint29_linear_214_5075)"/>
<path d="M46.9443 119.786C46.9443 119.786 47.1552 119.997 47.3962 120.268C47.6071 120.539 48.2397 120.93 48.5109 121.081C48.782 121.262 50.0172 122.196 50.2582 123.099C50.5293 124.003 49.6556 124.124 48.7519 123.973C47.8481 123.822 47.0046 122.979 46.7636 122.678C46.5226 122.376 45.6791 121.714 44.5945 121.141C43.4799 120.569 44.1427 119.816 44.1427 119.816L46.9443 119.786Z" fill="#60350E"/>
<path d="M38.7794 122.497C38.7794 122.497 38.5986 122.919 38.5384 123.431C38.4781 123.973 38.4179 125.118 38.3877 125.449C38.3576 125.781 38.3275 126.624 38.93 127.408C39.5325 128.191 39.8338 128.492 40.617 128.191C41.4003 127.89 41.3702 126.564 41.2497 125.871C41.099 125.208 40.9786 123.672 40.9786 123.521C41.0087 123.371 40.9484 123.28 40.9484 123.28L38.7794 122.497Z" fill="#60350E"/>
<path d="M49.6553 104.211C49.6553 104.211 49.4745 110.266 48.0887 113.49C48.0887 113.49 47.0645 116.291 46.944 119.665C46.944 119.665 47.1548 120.238 46.8235 120.72C46.5222 121.202 44.4435 121.623 44.082 120.087C43.7507 118.521 43.8711 115.628 44.2628 114.423C44.6243 113.218 44.1122 109.905 44.1122 109.905C44.1122 109.905 43.5699 110.266 42.8168 112.646C42.0636 115.026 41.5214 115.93 41.2804 116.592C41.0092 117.255 40.7983 121.322 40.949 123.28C40.949 123.28 39.2619 123.521 38.7799 122.738C38.2979 121.925 38.1473 117.798 38.2678 116.472C38.3883 115.146 38.9306 110.899 38.8703 109.603C38.7799 108.278 38.5088 107.223 38.8101 105.928C39.1113 104.603 47.9682 101.71 47.9682 101.71L49.6553 104.211Z" fill="#333333"/>
<path d="M38.8703 109.603C38.7799 108.278 38.5088 107.223 38.8101 105.928C38.9306 105.416 40.2561 104.693 41.8527 104C44.564 103.759 47.9984 103.458 48.2394 103.518C48.4502 103.548 48.9925 103.759 49.4745 103.94L49.6553 104.211C49.6553 104.211 49.6553 104.572 49.595 105.175C48.9624 105.386 47.7574 105.175 47.7574 105.175C47.5766 105.597 46.5222 107.103 45.2268 107.766C43.9013 108.398 40.0753 108.188 39.8644 108.429C39.6234 108.67 39.5933 111.983 39.6234 112.405C39.6536 112.827 39.2619 115.478 38.9004 117.828C38.5389 120.147 39.0812 122.949 39.1113 123.039C38.9707 122.959 38.8603 122.859 38.7799 122.738C38.2979 121.925 38.1473 117.798 38.2678 116.472C38.3883 115.147 38.9306 110.899 38.8703 109.603Z" fill="#222222"/>
<path d="M46.7034 84.4184C46.7034 84.4184 48.6615 84.8703 49.3243 85.0209C49.4147 85.051 49.5051 85.1414 49.5653 85.2318C49.7461 85.7138 50.2281 87.2201 49.8666 89.4193C49.4147 92.1004 49.5653 93.908 49.5653 93.908L50.4691 98.6377C50.4691 98.6377 51.6139 103.126 51.5235 103.247C51.403 103.367 48.8724 105.295 48.0892 105.024C47.3059 104.753 47.577 104.301 47.577 104.301C47.577 104.301 46.9143 107.585 44.0825 107.555C41.2506 107.525 38.931 107.525 38.449 106.38C37.967 105.235 38.5996 100.415 39.0816 98.5172C39.5937 96.5892 40.7686 92.7933 40.7686 92.7933L36.6414 88.2142L40.1661 85.5029C40.1661 85.5029 41.0096 83.9063 41.3711 83.7255C41.7327 83.5146 41.9134 83.6954 41.9134 83.6954L46.7034 84.4184Z" fill="#F1935C"/>
<path d="M48.0566 103.999C48.0265 104.15 48.147 104.391 48.6591 104.572C49.2014 104.752 50.557 103.939 51.4307 103.336C50.9788 103.698 48.8097 105.264 48.0867 105.023C47.9261 104.983 47.8056 104.923 47.7252 104.843C47.906 104.481 47.9964 104.18 48.0566 103.999Z" fill="url(#paint30_linear_214_5075)"/>
<path d="M38.4763 105.987C38.9884 107.192 41.4286 107.192 44.411 107.222C45.1943 107.222 45.7968 107.012 46.2788 106.68C45.7667 107.192 45.0437 107.554 44.0796 107.554C41.2478 107.524 38.9282 107.524 38.4462 106.379C38.2955 105.987 38.2654 105.234 38.2955 104.3C38.2955 105.053 38.3256 105.656 38.4763 105.987Z" fill="url(#paint31_linear_214_5075)"/>
<path d="M41.4605 83.6954C41.4605 83.6954 40.7074 84.569 41.7618 85.7439C42.3944 86.4669 43.5091 88.0335 44.443 89.6603C45.0455 90.6845 45.5877 91.2268 45.889 92.1004C45.889 92.1004 45.9191 91.0762 45.9794 89.4494C46.0095 87.9431 46.0396 86.3766 45.9794 85.9849C45.8287 85.1715 42.2438 83.2736 41.4605 83.6954Z" fill="#F0F6FF"/>
<path d="M44.1428 86.3162C44.1428 86.3162 44.5344 86.5572 44.6549 86.5271C44.7754 86.497 45.1972 86.1054 45.1972 86.1054C45.1972 86.1054 46.2214 86.1054 46.3419 85.6535C46.4624 85.2016 46.5227 84.7798 46.6131 84.5388C46.7336 84.2978 47.1855 83.2133 47.1855 82.7614C47.1855 82.3095 47.1553 81.5263 47.3662 81.1045C47.547 80.6827 47.8181 76.4652 43.721 76.5857C39.6541 76.7062 40.9193 80.9238 40.9193 80.9238C40.9193 80.9238 40.6181 81.0443 40.7988 81.5865C40.9796 82.1288 41.0398 82.189 41.1302 82.4602C41.2206 82.7313 41.2507 82.912 41.5219 83.1229L41.5821 83.6351C41.5821 83.6351 41.4014 84.3882 41.8834 85.1413C42.3955 85.8945 44.1428 86.3162 44.1428 86.3162Z" fill="#FCD1C5"/>
<path d="M49.4142 85.0806C49.4142 85.0806 49.866 85.1408 51.2819 88.6956C52.0652 90.6839 53.2702 92.7325 53.5414 94.2086C53.7824 95.6547 53.6317 97.2513 53.3606 97.3417C53.0895 97.4622 47.9982 99.3601 46.4317 99.9626C46.3413 99.9927 46.251 99.9325 46.2208 99.8421L45.7991 97.4019L48.9321 96.1668C48.9321 96.1668 49.5346 95.4438 50.0769 95.1726C50.0769 95.1726 49.4744 93.9977 49.5045 93.6965C49.5347 93.3651 49.4443 90.0814 49.8058 88.7559C50.1673 87.4304 49.4142 85.0806 49.4142 85.0806Z" fill="#DA6420"/>
<path d="M47.5762 94.4503C47.5762 94.4503 48.0281 94.1792 48.1185 94.1189C48.239 94.0888 48.8114 93.8779 48.9319 93.8478C48.9921 93.7875 49.3536 93.8176 49.5043 93.8478C49.5645 93.8478 49.6248 93.8779 49.6549 93.9381C49.7754 94.1792 50.167 94.9022 50.1068 95.1733C50.1068 95.1733 49.0825 95.8361 48.962 96.1373L48.7812 96.1674C48.7812 96.1674 48.0884 94.6612 47.5762 94.4503Z" fill="#FCD1C5"/>
<path d="M39.0816 98.5169C39.2022 98.0349 39.3829 97.4926 39.5335 96.8901L45.9202 99.6014C45.9202 99.6014 44.0223 101.951 40.6783 101.801C39.7444 101.77 39.0817 101.439 38.5996 101.138C38.7503 100.114 38.931 99.1496 39.0816 98.5169Z" fill="#DA6420"/>
<path d="M36.641 88.2139C36.641 88.2139 38.2979 88.4247 39.6535 90.5938C41.0092 92.7327 42.0033 95.2331 42.0033 95.2331L42.0636 95.5043C42.1841 96.2273 42.9673 96.649 43.6301 96.3478C45.0761 95.7151 47.1849 94.7511 47.5765 94.4499C47.5765 94.4499 48.8418 95.1729 49.2033 96.8298C49.4745 98.1252 49.4142 98.1553 49.4142 98.1553C49.4142 98.1553 43.7506 100.776 41.5816 100.746C39.3824 100.716 36.6108 93.5461 36.3096 92.07C36.0083 90.5938 35.6769 88.6356 36.641 88.2139Z" fill="#24126A"/>
<path d="M36.641 88.2139C36.641 88.2139 38.2979 88.4247 39.6535 90.5938C41.0092 92.7327 42.0033 95.2331 42.0033 95.2331L42.0636 95.5043C42.1841 96.2273 42.9673 96.649 43.6301 96.3478C45.0761 95.7151 47.1849 94.7511 47.5765 94.4499C47.5765 94.4499 48.8418 95.1729 49.2033 96.8298C49.4745 98.1252 49.4142 98.1553 49.4142 98.1553C49.4142 98.1553 43.7506 100.776 41.5816 100.746C39.3824 100.716 36.6108 93.5461 36.3096 92.07C36.0083 90.5938 35.6769 88.6356 36.641 88.2139Z" fill="#F99F5D"/>
<path d="M42.8169 96.6792C42.8169 96.6792 42.124 97.3419 41.7926 96.9804C41.4914 96.6189 41.5818 96.5888 41.5818 96.5888C41.5818 96.5888 40.9491 96.5888 40.8587 96.167C40.7684 95.7754 40.4671 95.9863 40.437 95.5344C40.437 95.0825 40.9792 95.1729 40.9792 95.1729L42.8169 96.6792Z" fill="#DA6420"/>
<path d="M43.6899 96.3176C43.6899 96.3176 43.4791 96.1368 43.2381 95.926C42.9971 95.7151 42.5753 94.8414 42.515 94.7511C42.4247 94.6908 41.5811 94.0281 41.1594 94.0281C40.7678 93.9979 41.069 94.4498 41.1594 94.5402C41.2498 94.6004 41.6414 94.7812 41.6414 94.7812C41.6414 94.7812 42.0632 95.1427 42.1234 95.2029C42.1535 95.2331 40.9786 95.1126 40.7678 95.2331C40.587 95.3536 40.6171 95.6548 40.7678 95.7151C40.8883 95.8055 41.0088 95.8055 41.0088 95.8055C41.0088 95.8055 40.8581 96.167 41.2196 96.3477C41.5811 96.4983 41.6715 96.408 41.6715 96.408C41.6715 96.408 41.7016 97.0406 42.3042 96.9201L43.6899 96.3176Z" fill="#FCD1C5"/>
<path d="M47.4563 78.9353C47.4563 78.9353 47.9685 80.6223 46.5827 80.1403C45.1668 79.6583 43.9015 78.875 43.4797 79.1763C43.1484 79.4173 43.1484 80.1102 43.1785 80.4416C43.1785 80.5621 43.1484 80.6725 43.0881 80.773L42.6663 81.3755C42.6262 81.4357 42.6061 81.506 42.6061 81.5863L42.576 82.0081C42.576 82.1286 42.4856 82.219 42.3651 82.219H42.2747C42.1843 82.219 42.0638 82.1587 42.0638 82.0382L41.9433 81.4357C41.9433 81.4357 41.612 80.5922 40.9191 80.9236C40.9191 80.9236 40.4672 80.2909 40.6178 78.9654C40.7684 77.6098 41.371 76.224 43.9919 76.0131C46.6128 75.7721 47.4563 78.9353 47.4563 78.9353Z" fill="#333333"/>
<path d="M43.4197 87.8225L43.8415 87.4911C43.8415 87.4911 44.203 87.7924 44.3235 88.1237C44.4741 88.4551 44.3235 89.4794 44.3235 89.4794L44.444 89.6602L44.5946 89.389L44.7151 88.184C44.7151 88.184 44.5946 87.3104 44.5645 87.2802C44.5645 87.2501 43.8113 87.3706 43.8113 87.3706C43.8113 87.3706 43.5703 87.5514 43.4197 87.8225Z" fill="#C4CCD6"/>
<path d="M45.3177 86.6174C45.3177 86.6174 45.7394 86.6476 45.9202 86.7982C45.9202 86.7982 45.4984 86.8283 45.408 86.8283C45.3478 86.8283 45.3177 86.6174 45.3177 86.6174Z" fill="#C4CCD6"/>
<path d="M44.5335 86.7075L43.8104 87.3702C43.8104 87.3702 44.4431 87.6414 44.6238 88.2138C44.6238 88.2138 45.377 88.3343 45.4372 88.0631C45.5276 87.792 45.4372 87.0991 45.5276 86.7677C45.618 86.4665 44.5335 86.7075 44.5335 86.7075Z" fill="#28565D"/>
<path d="M45.4076 88.0632C45.4076 88.0632 45.5582 88.6356 45.6787 88.8766C45.8294 89.1176 45.98 89.3586 45.98 89.3586V92.7628C45.98 92.7628 44.7147 90.2022 44.4436 89.6599C44.4436 89.6599 44.5038 88.4247 44.6243 88.2139C44.7147 87.9729 45.4076 88.0632 45.4076 88.0632Z" fill="#28565D"/>
<path d="M42.0632 83.0625C42.9067 85.4123 45.1963 86.1052 45.1963 86.1052C45.1963 86.1052 44.7745 86.4968 44.654 86.5269C44.5335 86.5571 44.1419 86.3161 44.1419 86.3161C44.1419 86.3161 42.3946 85.8943 41.8825 85.1412C41.4005 84.388 41.5812 83.6349 41.5812 83.6349L41.521 83.1228C41.8825 83.2433 42.0632 83.0625 42.0632 83.0625Z" fill="#E2B1A6"/>
<path d="M40.1958 85.8037C40.1958 85.8037 40.5272 86.9184 40.5574 86.9786C40.6176 87.0087 41.3708 86.9184 41.3708 86.9184L41.0092 87.6414C41.0092 87.6414 44.8653 91.7686 45.6787 94.028C45.6787 94.028 43.8411 91.1962 40.6176 87.792L41.0695 87.0991L40.2862 87.2799L40.1958 85.8037Z" fill="#DA6420"/>
<path d="M46.5522 84.8401L46.763 85.051L46.522 85.292L47.245 85.9246C47.245 85.9246 47.4559 90.4736 46.5823 93.4861C46.5823 93.4861 47.7873 90.7146 47.5162 85.8041L46.7329 85.292L46.9739 85.051L46.5522 84.8401Z" fill="#DA6420"/>
<path d="M44.1116 109.904L45.1057 108.85C44.6539 109.482 45.166 112.495 45.2263 113.158C45.2865 113.851 44.684 115.267 44.4731 116.924C44.2622 118.58 44.7141 120.93 44.7141 120.93C44.4129 120.78 44.202 120.508 44.0815 120.087C43.7501 118.52 43.8706 115.628 44.2622 114.423C44.6237 113.218 44.1116 109.904 44.1116 109.904Z" fill="#222222"/>
<path d="M41.5812 100.747C39.3821 100.716 36.6105 93.5465 36.3092 92.0704C36.249 91.8093 36.1988 91.5482 36.1586 91.2871C36.1586 91.3172 36.731 92.8536 37.2732 94.2394C37.8155 95.6252 40.7377 99.8127 42.244 100.084C43.5695 100.325 48.4197 98.0654 49.3536 97.6436C49.444 98.1256 49.4139 98.1557 49.4139 98.1557C49.4139 98.1557 43.7503 100.777 41.5812 100.747Z" fill="url(#paint32_linear_214_5075)"/>
<path d="M95.9326 161.381L90.0571 164.086L76.7349 154.685L69.0033 170.275L70.717 164.086L73.8995 139.988V130.373L95.9326 161.381Z" fill="#B2D7FF"/>
<path d="M69.2516 165.712V171L71.6997 162.69L70.7817 160.424L69.2516 165.712Z" fill="#DA6420"/>
<path d="M137.311 141.671V135.902L128.987 139.573L137.311 141.671Z" fill="#DA6420"/>
<path d="M104.53 126.287L137.311 141.431L95.477 161.622L79.8673 145.517L69.2527 170.996L73.6593 130.614L95.477 139.748L104.53 126.287Z" fill="#DA6420"/>
<path d="M104.53 121L137.311 136.143L95.477 156.335L79.8673 140.23L69.2527 165.709L73.9042 130.374L95.477 134.461L104.53 121Z" fill="#F1935C"/>
<g filter="url(#filter0_i_214_5075)">
<path d="M155.079 34.9668C156.435 35.6902 157.114 36.6384 157.114 37.5865L157.114 135.042C157.113 134.094 156.435 133.146 155.079 132.423V34.9668Z" fill="#FFE4D4" fill-opacity="0.15"/>
</g>
<path d="M156.614 37.5865V37.5864C156.614 37.0522 156.314 36.4415 155.579 35.8762V132.13C155.977 132.365 156.324 132.626 156.614 132.908V37.5865Z" stroke="white"/>
<g filter="url(#filter1_i_214_5075)">
<path d="M157.114 37.5859C157.113 38.5338 156.435 39.4817 155.079 40.205V137.661C156.435 136.938 157.113 135.99 157.114 135.042V37.5859Z" fill="#FFE4D4" fill-opacity="0.15"/>
</g>
<path d="M155.579 136.752C156.314 136.186 156.613 135.576 156.614 135.042V39.7194C156.324 40.0016 155.977 40.2626 155.579 40.4976V136.752Z" stroke="#FFE4D4"/>
<g filter="url(#filter2_i_214_5075)">
<path d="M4.91431 50.3326C3.55799 49.6094 2.87974 48.6615 2.87957 47.7136V145.169C2.8794 146.117 3.55765 147.065 4.91431 147.789V50.3326Z" fill="#FFE4D4" fill-opacity="0.15"/>
</g>
<path d="M4.41431 50.6252C4.01654 50.3902 3.66926 50.1292 3.37957 49.847V145.169C3.37948 145.703 3.67926 146.314 4.41431 146.879V50.6252Z" stroke="white"/>
<g filter="url(#filter3_i_214_5075)">
<path d="M155.072 40.2051L75.4042 82.6865V180.143L155.072 137.661V40.2051Z" fill="#FFE4D4" fill-opacity="0.15"/>
</g>
<path d="M154.572 137.361V41.0383L75.9042 82.9865V179.309L154.572 137.361Z" stroke="#FFE4D4"/>
<g filter="url(#filter4_i_214_5075)">
<path d="M65.5884 82.6876L4.91366 50.334V147.79L65.5884 180.144V82.6876Z" fill="#FFE4D4" fill-opacity="0.15"/>
</g>
<path d="M65.0884 179.31V82.9876L5.41366 51.1672V147.49L65.0884 179.31Z" stroke="#FFE4D4"/>
<g filter="url(#filter5_i_214_5075)">
<path d="M75.4067 82.6875C72.6938 84.1341 68.2952 84.1341 65.5822 82.6875V180.144C68.2952 181.59 72.6938 181.59 75.4067 180.144V82.6875Z" fill="#FFE4D4" fill-opacity="0.15"/>
</g>
<path d="M74.9067 179.836V83.4728C73.5909 84.0113 72.0331 84.2725 70.4945 84.2725C68.9558 84.2725 67.398 84.0113 66.0822 83.4728V179.836C67.3142 180.424 68.8925 180.729 70.4945 180.729C72.0965 180.729 73.6747 180.424 74.9067 179.836Z" stroke="#FFE4D4"/>
<g filter="url(#filter6_i_214_5075)">
<rect width="101.421" height="79.8957" rx="7.86205" transform="matrix(-0.882391 0.470517 0.882391 0.470517 89.5042 0)" fill="#FFE4D4" fill-opacity="0.15"/>
</g>
<rect x="2.98023e-08" y="0.470517" width="100.421" height="78.8957" rx="7.36205" transform="matrix(-0.882391 0.470517 0.882391 0.470517 89.089 0.249131)" stroke="#FFE4D4"/>
<defs>
<filter id="filter0_i_214_5075" x="155.079" y="34.9668" width="2.03467" height="100.075" filterUnits="userSpaceOnUse" color-interpolation-filters="sRGB">
<feFlood flood-opacity="0" result="BackgroundImageFix"/>
<feBlend mode="normal" in="SourceGraphic" in2="BackgroundImageFix" result="shape"/>
<feColorMatrix in="SourceAlpha" type="matrix" values="0 0 0 0 0 0 0 0 0 0 0 0 0 0 0 0 0 0 127 0" result="hardAlpha"/>
<feOffset/>
<feGaussianBlur stdDeviation="9.0843"/>
<feComposite in2="hardAlpha" operator="arithmetic" k2="-1" k3="1"/>
<feColorMatrix type="matrix" values="0 0 0 0 1 0 0 0 0 1 0 0 0 0 1 0 0 0 1 0"/>
<feBlend mode="normal" in2="shape" result="effect1_innerShadow_214_5075"/>
</filter>
<filter id="filter1_i_214_5075" x="155.079" y="37.5859" width="2.03467" height="100.075" filterUnits="userSpaceOnUse" color-interpolation-filters="sRGB">
<feFlood flood-opacity="0" result="BackgroundImageFix"/>
<feBlend mode="normal" in="SourceGraphic" in2="BackgroundImageFix" result="shape"/>
<feColorMatrix in="SourceAlpha" type="matrix" values="0 0 0 0 0 0 0 0 0 0 0 0 0 0 0 0 0 0 127 0" result="hardAlpha"/>
<feOffset/>
<feGaussianBlur stdDeviation="9.0843"/>
<feComposite in2="hardAlpha" operator="arithmetic" k2="-1" k3="1"/>
<feColorMatrix type="matrix" values="0 0 0 0 1 0 0 0 0 1 0 0 0 0 1 0 0 0 1 0"/>
<feBlend mode="normal" in2="shape" result="effect1_innerShadow_214_5075"/>
</filter>
<filter id="filter2_i_214_5075" x="2.87964" y="47.7136" width="2.03467" height="100.075" filterUnits="userSpaceOnUse" color-interpolation-filters="sRGB">
<feFlood flood-opacity="0" result="BackgroundImageFix"/>
<feBlend mode="normal" in="SourceGraphic" in2="BackgroundImageFix" result="shape"/>
<feColorMatrix in="SourceAlpha" type="matrix" values="0 0 0 0 0 0 0 0 0 0 0 0 0 0 0 0 0 0 127 0" result="hardAlpha"/>
<feOffset/>
<feGaussianBlur stdDeviation="9.0843"/>
<feComposite in2="hardAlpha" operator="arithmetic" k2="-1" k3="1"/>
<feColorMatrix type="matrix" values="0 0 0 0 1 0 0 0 0 1 0 0 0 0 1 0 0 0 1 0"/>
<feBlend mode="normal" in2="shape" result="effect1_innerShadow_214_5075"/>
</filter>
<filter id="filter3_i_214_5075" x="75.4043" y="40.2051" width="79.668" height="139.938" filterUnits="userSpaceOnUse" color-interpolation-filters="sRGB">
<feFlood flood-opacity="0" result="BackgroundImageFix"/>
<feBlend mode="normal" in="SourceGraphic" in2="BackgroundImageFix" result="shape"/>
<feColorMatrix in="SourceAlpha" type="matrix" values="0 0 0 0 0 0 0 0 0 0 0 0 0 0 0 0 0 0 127 0" result="hardAlpha"/>
<feOffset/>
<feGaussianBlur stdDeviation="9.0843"/>
<feComposite in2="hardAlpha" operator="arithmetic" k2="-1" k3="1"/>
<feColorMatrix type="matrix" values="0 0 0 0 1 0 0 0 0 1 0 0 0 0 1 0 0 0 1 0"/>
<feBlend mode="normal" in2="shape" result="effect1_innerShadow_214_5075"/>
</filter>
<filter id="filter4_i_214_5075" x="4.91357" y="50.334" width="60.6748" height="129.81" filterUnits="userSpaceOnUse" color-interpolation-filters="sRGB">
<feFlood flood-opacity="0" result="BackgroundImageFix"/>
<feBlend mode="normal" in="SourceGraphic" in2="BackgroundImageFix" result="shape"/>
<feColorMatrix in="SourceAlpha" type="matrix" values="0 0 0 0 0 0 0 0 0 0 0 0 0 0 0 0 0 0 127 0" result="hardAlpha"/>
<feOffset/>
<feGaussianBlur stdDeviation="9.0843"/>
<feComposite in2="hardAlpha" operator="arithmetic" k2="-1" k3="1"/>
<feColorMatrix type="matrix" values="0 0 0 0 1 0 0 0 0 1 0 0 0 0 1 0 0 0 1 0"/>
<feBlend mode="normal" in2="shape" result="effect1_innerShadow_214_5075"/>
</filter>
<filter id="filter5_i_214_5075" x="65.5823" y="82.6875" width="9.82446" height="98.541" filterUnits="userSpaceOnUse" color-interpolation-filters="sRGB">
<feFlood flood-opacity="0" result="BackgroundImageFix"/>
<feBlend mode="normal" in="SourceGraphic" in2="BackgroundImageFix" result="shape"/>
<feColorMatrix in="SourceAlpha" type="matrix" values="0 0 0 0 0 0 0 0 0 0 0 0 0 0 0 0 0 0 127 0" result="hardAlpha"/>
<feOffset/>
<feGaussianBlur stdDeviation="9.0843"/>
<feComposite in2="hardAlpha" operator="arithmetic" k2="-1" k3="1"/>
<feColorMatrix type="matrix" values="0 0 0 0 1 0 0 0 0 1 0 0 0 0 1 0 0 0 1 0"/>
<feBlend mode="normal" in2="shape" result="effect1_innerShadow_214_5075"/>
</filter>
<filter id="filter6_i_214_5075" x="4.07544" y="2.16699" width="151.864" height="80.9785" filterUnits="userSpaceOnUse" color-interpolation-filters="sRGB">
<feFlood flood-opacity="0" result="BackgroundImageFix"/>
<feBlend mode="normal" in="SourceGraphic" in2="BackgroundImageFix" result="shape"/>
<feColorMatrix in="SourceAlpha" type="matrix" values="0 0 0 0 0 0 0 0 0 0 0 0 0 0 0 0 0 0 127 0" result="hardAlpha"/>
<feOffset/>
<feGaussianBlur stdDeviation="9.0843"/>
<feComposite in2="hardAlpha" operator="arithmetic" k2="-1" k3="1"/>
<feColorMatrix type="matrix" values="0 0 0 0 1 0 0 0 0 1 0 0 0 0 1 0 0 0 1 0"/>
<feBlend mode="normal" in2="shape" result="effect1_innerShadow_214_5075"/>
</filter>
<linearGradient id="paint0_linear_214_5075" x1="92.2186" y1="62.7979" x2="104.395" y2="69.8516" gradientUnits="userSpaceOnUse">
<stop stop-color="#84ADFF"/>
<stop offset="1" stop-color="#C9D9F4"/>
</linearGradient>
<linearGradient id="paint1_linear_214_5075" x1="92.2339" y1="84.0475" x2="107.236" y2="79.733" gradientUnits="userSpaceOnUse">
<stop stop-color="#A1C1FF"/>
<stop offset="1" stop-color="#D2E2FF"/>
</linearGradient>
<linearGradient id="paint2_linear_214_5075" x1="71.9355" y1="65.2072" x2="90.2362" y2="75.7732" gradientUnits="userSpaceOnUse">
<stop stop-color="#5995FF"/>
<stop offset="1" stop-color="#BBD2FF"/>
</linearGradient>
<linearGradient id="paint3_linear_214_5075" x1="76.2193" y1="83.9742" x2="88.4091" y2="91.0204" gradientUnits="userSpaceOnUse">
<stop stop-color="#84ADFF"/>
<stop offset="1" stop-color="#C9D9F4"/>
</linearGradient>
<linearGradient id="paint4_linear_214_5075" x1="76.2264" y1="86.5374" x2="83.9816" y2="91.015" gradientUnits="userSpaceOnUse">
<stop stop-color="#5761D7"/>
<stop offset="1" stop-color="#BCBEFF"/>
</linearGradient>
<linearGradient id="paint5_linear_214_5075" x1="76.2347" y1="101.723" x2="90.403" y2="96.3017" gradientUnits="userSpaceOnUse">
<stop stop-color="#A1C1FF"/>
<stop offset="1" stop-color="#D2E2FF"/>
</linearGradient>
<linearGradient id="paint6_linear_214_5075" x1="55.9362" y1="87.5637" x2="71.2814" y2="99.352" gradientUnits="userSpaceOnUse">
<stop stop-color="#5995FF"/>
<stop offset="1" stop-color="#BBD2FF"/>
</linearGradient>
<linearGradient id="paint7_linear_214_5075" x1="76.2193" y1="73.4027" x2="88.3961" y2="80.4564" gradientUnits="userSpaceOnUse">
<stop stop-color="#84ADFF"/>
<stop offset="1" stop-color="#C9D9F4"/>
</linearGradient>
<linearGradient id="paint8_linear_214_5075" x1="76.2347" y1="84.0076" x2="83.2557" y2="75.9611" gradientUnits="userSpaceOnUse">
<stop stop-color="#A1C1FF"/>
<stop offset="1" stop-color="#D2E2FF"/>
</linearGradient>
<linearGradient id="paint9_linear_214_5075" x1="55.9362" y1="79.2799" x2="59.8133" y2="88.2003" gradientUnits="userSpaceOnUse">
<stop stop-color="#5995FF"/>
<stop offset="1" stop-color="#BBD2FF"/>
</linearGradient>
<linearGradient id="paint10_linear_214_5075" x1="60.2385" y1="96.7788" x2="72.4078" y2="103.82" gradientUnits="userSpaceOnUse">
<stop stop-color="#84ADFF"/>
<stop offset="1" stop-color="#C9D9F4"/>
</linearGradient>
<linearGradient id="paint11_linear_214_5075" x1="60.2388" y1="113.458" x2="74.0071" y2="107.62" gradientUnits="userSpaceOnUse">
<stop stop-color="#A1C1FF"/>
<stop offset="1" stop-color="#D2E2FF"/>
</linearGradient>
<linearGradient id="paint12_linear_214_5075" x1="39.9902" y1="100.677" x2="54.135" y2="112.687" gradientUnits="userSpaceOnUse">
<stop stop-color="#5995FF"/>
<stop offset="1" stop-color="#BBD2FF"/>
</linearGradient>
<linearGradient id="paint13_linear_214_5075" x1="44.2447" y1="117.445" x2="56.427" y2="124.479" gradientUnits="userSpaceOnUse">
<stop stop-color="#C0BFF6"/>
<stop offset="1" stop-color="#E9E9FD"/>
</linearGradient>
<linearGradient id="paint14_linear_214_5075" x1="44.2471" y1="117.445" x2="56.4294" y2="124.478" gradientUnits="userSpaceOnUse">
<stop stop-color="#84ADFF"/>
<stop offset="1" stop-color="#C9D9F4"/>
</linearGradient>
<linearGradient id="paint15_linear_214_5075" x1="44.245" y1="131.593" x2="56.4273" y2="124.56" gradientUnits="userSpaceOnUse">
<stop stop-color="#C0BFF6"/>
<stop offset="1" stop-color="#E9E9FD"/>
</linearGradient>
<linearGradient id="paint16_linear_214_5075" x1="44.2474" y1="130.783" x2="55.6464" y2="123.353" gradientUnits="userSpaceOnUse">
<stop stop-color="#A1C1FF"/>
<stop offset="1" stop-color="#D2E2FF"/>
</linearGradient>
<linearGradient id="paint17_linear_214_5075" x1="23.9987" y1="122.471" x2="32.9999" y2="134.222" gradientUnits="userSpaceOnUse">
<stop stop-color="#5995FF"/>
<stop offset="1" stop-color="#BBD2FF"/>
</linearGradient>
<linearGradient id="paint18_linear_214_5075" x1="28.2434" y1="123.95" x2="40.4257" y2="130.984" gradientUnits="userSpaceOnUse">
<stop stop-color="#84ADFF"/>
<stop offset="1" stop-color="#C9D9F4"/>
</linearGradient>
<linearGradient id="paint19_linear_214_5075" x1="28.2437" y1="138.098" x2="40.4259" y2="131.065" gradientUnits="userSpaceOnUse">
<stop stop-color="#A1C1FF"/>
<stop offset="1" stop-color="#D2E2FF"/>
</linearGradient>
<linearGradient id="paint20_linear_214_5075" x1="7.99504" y1="128.713" x2="18.4113" y2="140.757" gradientUnits="userSpaceOnUse">
<stop stop-color="#5995FF"/>
<stop offset="1" stop-color="#BBD2FF"/>
</linearGradient>
<linearGradient id="paint21_linear_214_5075" x1="84.428" y1="59.3261" x2="80.6599" y2="59.5446" gradientUnits="userSpaceOnUse">
<stop stop-color="#648FE4"/>
<stop offset="1" stop-color="#78DBEB"/>
</linearGradient>
<linearGradient id="paint22_linear_214_5075" x1="79.1125" y1="59.8368" x2="71.2296" y2="60.2941" gradientUnits="userSpaceOnUse">
<stop stop-color="#5995FF"/>
<stop offset="1" stop-color="#39C0EA"/>
</linearGradient>
<linearGradient id="paint23_linear_214_5075" x1="81.9786" y1="46.5474" x2="69.1574" y2="47.2907" gradientUnits="userSpaceOnUse">
<stop stop-color="#5761D7"/>
<stop offset="1" stop-color="#1862F4"/>
</linearGradient>
<linearGradient id="paint24_linear_214_5075" x1="100.428" y1="48.326" x2="96.6599" y2="48.5445" gradientUnits="userSpaceOnUse">
<stop stop-color="#5761D7"/>
<stop offset="1" stop-color="#42E8E0"/>
</linearGradient>
<linearGradient id="paint25_linear_214_5075" x1="95.1125" y1="48.8367" x2="87.2296" y2="49.294" gradientUnits="userSpaceOnUse">
<stop stop-color="#5761D7"/>
<stop offset="1" stop-color="#42E8E0"/>
</linearGradient>
<linearGradient id="paint26_linear_214_5075" x1="97.9786" y1="35.5474" x2="85.1574" y2="36.2907" gradientUnits="userSpaceOnUse">
<stop stop-color="#5761D7"/>
<stop offset="1" stop-color="#42E8E0"/>
</linearGradient>
<linearGradient id="paint27_linear_214_5075" x1="67.9631" y1="82.3259" x2="64.195" y2="82.5444" gradientUnits="userSpaceOnUse">
<stop stop-color="#5761D7"/>
<stop offset="1" stop-color="#42E8E0"/>
</linearGradient>
<linearGradient id="paint28_linear_214_5075" x1="62.6477" y1="82.8367" x2="54.7647" y2="83.294" gradientUnits="userSpaceOnUse">
<stop stop-color="#28565D"/>
<stop offset="1" stop-color="#8BCCD6"/>
</linearGradient>
<linearGradient id="paint29_linear_214_5075" x1="65.5137" y1="69.5474" x2="52.6926" y2="70.2907" gradientUnits="userSpaceOnUse">
<stop stop-color="#28565D"/>
<stop offset="1" stop-color="#8BCCD6"/>
</linearGradient>
<linearGradient id="paint30_linear_214_5075" x1="51.428" y1="103.326" x2="47.6599" y2="103.544" gradientUnits="userSpaceOnUse">
<stop stop-color="#DA6420"/>
<stop offset="1" stop-color="#28565D"/>
</linearGradient>
<linearGradient id="paint31_linear_214_5075" x1="46.1125" y1="103.837" x2="38.2296" y2="104.294" gradientUnits="userSpaceOnUse">
<stop stop-color="#28565D"/>
<stop offset="1" stop-color="#FAB380"/>
</linearGradient>
<linearGradient id="paint32_linear_214_5075" x1="48.9786" y1="90.5475" x2="36.1574" y2="91.2908" gradientUnits="userSpaceOnUse">
<stop stop-color="#FAB380"/>
<stop offset="1" stop-color="#DA6420"/>
</linearGradient>
</defs>
</svg>
