<svg width="208" height="245" viewBox="0 0 208 245" fill="none" xmlns="http://www.w3.org/2000/svg">
<path d="M142.212 63.6964C142.391 63.8961 142.559 64.1115 142.717 64.3428C142.937 64.6581 143.137 64.9997 143.316 65.3676C143.442 65.6303 143.547 65.8931 143.631 66.1559C143.736 66.4397 143.815 66.7182 143.868 66.9915C143.962 67.4802 143.994 67.9374 143.962 68.3789C143.946 68.6942 143.883 68.9938 143.773 69.246C143.721 69.3932 143.652 69.5246 143.568 69.6402C143.363 69.9397 143.095 70.1289 142.78 70.192L138.665 72.1785L134.897 64.7684C134.897 64.7684 139.642 62.2774 140.368 62.5297C140.368 62.5297 140.373 62.5349 140.383 62.5454C140.699 62.5927 141.046 62.7504 141.392 62.9869C141.676 63.1761 141.96 63.4283 142.212 63.6964Z" fill="#FFE4D4"/>
<path fill-rule="evenodd" clip-rule="evenodd" d="M139.153 52.5654L139.5 47.0788L144.325 50.4055L143.994 55.6398C145.271 56.8538 146.422 58.3043 147.431 59.8809L150.915 58.2097L153.154 63.0814L149.827 64.6896C150.505 66.4711 150.962 68.3158 151.183 70.1131L155.298 72.9353L154.935 78.7845L150.852 75.9781C150.631 76.7507 150.316 77.4444 149.953 78.0435L152.886 83.8139L148.266 85.6743L145.649 80.5345C144.656 80.5503 143.568 80.3138 142.449 79.8093L142.117 85.0279L137.293 81.7012L130.703 73.897L128.464 69.0253L126.32 59.1714L126.682 53.3222L131.696 56.7592C131.901 56.0025 132.201 55.3245 132.563 54.7412L129.678 49.0654L134.203 47L136.836 52.1871C137.577 52.1713 138.349 52.2974 139.153 52.5654ZM139.169 57.311C139.159 57.3005 139.148 57.3005 139.138 57.311C137.782 57.0588 136.599 57.5002 135.827 58.6196C135.322 59.3764 134.991 60.417 134.897 61.631C134.818 62.6558 134.897 63.7436 135.133 64.8788C135.207 65.2677 135.296 65.6566 135.401 66.0455C135.653 66.9441 136 67.8428 136.426 68.7257C136.71 69.3248 137.02 69.8924 137.356 70.4284C137.64 70.8857 137.939 71.3113 138.239 71.7213C139.075 72.7934 139.989 73.692 140.967 74.3542C141.503 74.7221 142.023 75.0006 142.527 75.1898C142.811 75.2949 143.084 75.3738 143.347 75.4263C144.735 75.6943 145.933 75.2529 146.705 74.1177C146.895 73.8497 146.012 72.0681 146.012 72.0681L145.665 71.3429L144.735 65.6986C144.735 65.6986 139.926 57.4529 139.169 57.311Z" fill="#FFE4D4"/>
<path d="M148.834 65.0995L153.154 63.0657L150.931 58.194L146.611 60.2436L148.834 65.0995Z" fill="#F1935C"/>
<path d="M140.036 52.4709L144.309 50.4055L139.485 47.0946L135.18 49.1442L140.036 52.4709Z" fill="#F1935C"/>
<path d="M129.883 49.0653L134.203 47.0157L136.3 51.1622L135.622 55.7817L132.831 55.5925L129.883 49.0653Z" fill="#FFE4D4"/>
<path d="M122.363 55.3718L127.155 53.0226C127.155 53.0226 129.158 56.9011 129.079 57.1218C129 57.3426 126.84 60.5904 126.84 60.5904L122.363 55.3718Z" fill="#FFE4D4"/>
<path d="M137.813 87.0774L142.133 85.0278L142.307 82.7102L140.557 81.4489L137.577 81.4332L137.813 87.0774Z" fill="#FFE4D4"/>
<path d="M148.55 85.895L152.87 83.8454L150.537 79.084L146.359 77.0344L144.262 80.1088L148.55 85.895Z" fill="#FFE4D4"/>
<path fill-rule="evenodd" clip-rule="evenodd" d="M145.633 80.0931L148.566 85.8635L143.946 87.7239L141.329 82.5842C140.336 82.5999 139.264 82.3477 138.129 81.8431L137.798 87.0775L132.973 83.7351L133.336 78.2169C132.201 76.9872 131.176 75.584 130.293 74.0547L126.383 75.9308L124.144 71.0591L128.086 69.1672C127.581 67.6852 127.219 66.1559 127.045 64.6738L122 61.2211L122.363 55.3718L127.376 58.8088C127.581 58.0521 127.881 57.3741 128.243 56.775L125.374 51.115L129.883 49.0496L132.516 54.2367C133.257 54.2209 134.03 54.347 134.834 54.6151L135.18 49.1285L140.005 52.4551L139.674 57.6895C140.951 58.9034 142.102 60.3382 143.111 61.9305L146.595 60.2593L148.834 65.1311L145.507 66.7392C146.185 68.5208 146.658 70.3654 146.863 72.1627L150.978 74.9691L150.615 80.8183L146.532 78.0277C146.311 78.8003 146.012 79.494 145.633 80.0931ZM142.386 76.1516C142.575 75.8835 142.748 75.5682 142.874 75.2371C142.874 75.2214 142.89 75.2214 142.89 75.2056C143.111 74.6065 143.268 73.9128 143.332 73.156C143.395 72.1312 143.332 71.0276 143.095 69.8924C142.969 69.2303 142.78 68.5681 142.559 67.8901C142.349 67.27 142.097 66.6551 141.802 66.0455C141.377 65.1784 140.904 64.3585 140.383 63.6175C140.005 63.071 139.605 62.5664 139.185 62.104C138.57 61.4418 137.924 60.8742 137.262 60.417C136.426 59.8494 135.606 59.4868 134.849 59.3607C134.839 59.3501 134.828 59.3449 134.818 59.3449C133.462 59.0926 132.28 59.5499 131.507 60.6692C131.002 61.4103 130.671 62.4508 130.577 63.6648C130.498 64.6896 130.577 65.7932 130.813 66.9284C130.887 67.3173 130.976 67.7062 131.081 68.0951C131.334 68.978 131.68 69.8767 132.106 70.7753C132.39 71.3744 132.7 71.942 133.036 72.4781C133.32 72.9353 133.62 73.361 133.919 73.7709C134.755 74.843 135.669 75.7417 136.647 76.4038C137.183 76.7612 137.703 77.0345 138.208 77.2237C138.491 77.3393 138.765 77.4181 139.027 77.4602C140.415 77.7282 141.613 77.3025 142.386 76.1516Z" fill="#F1935C"/>
<path d="M150.962 74.9691L155.345 72.8249L154.935 78.8003L150.631 80.8498L150.962 74.9691Z" fill="#F1935C"/>
<path d="M137.072 65.0364C136.726 64.7999 136.379 64.6422 136.063 64.5792C136.063 64.5792 136.058 64.5792 136.048 64.5792C135.48 64.4688 134.976 64.658 134.645 65.131C134.44 65.4621 134.298 65.8878 134.266 66.408C134.219 66.8337 134.266 67.3067 134.361 67.7797C134.392 67.9479 134.429 68.1108 134.471 68.2684C134.576 68.6573 134.718 69.0357 134.897 69.4036C135.023 69.6559 135.154 69.8976 135.291 70.1289C135.417 70.318 135.543 70.502 135.669 70.6807C136.016 71.1221 136.41 71.5005 136.82 71.7843C137.051 71.942 137.272 72.0628 137.482 72.1469C137.598 72.189 137.714 72.2205 137.829 72.2415C138.413 72.3519 138.917 72.1627 139.248 71.6897C139.332 71.5741 139.401 71.4427 139.453 71.2955C139.453 71.2955 139.458 71.2903 139.469 71.2798C139.564 71.0275 139.627 70.7437 139.642 70.4126C139.674 69.987 139.642 69.514 139.548 69.041C139.495 68.7572 139.422 68.4734 139.327 68.1896C139.232 67.9268 139.122 67.6693 138.996 67.4171C138.828 67.0492 138.628 66.7023 138.397 66.3765C138.239 66.1558 138.071 65.9456 137.892 65.7459C137.64 65.4621 137.356 65.2256 137.072 65.0364Z" fill="#F1935C"/>
<path d="M165.341 91.3029C165.425 91.387 165.504 91.4816 165.578 91.5867C165.683 91.7339 165.772 91.8968 165.846 92.0754C165.909 92.1911 165.961 92.3067 166.003 92.4223C166.045 92.5589 166.077 92.6903 166.098 92.8165C166.145 93.0372 166.161 93.2579 166.145 93.4471C166.135 93.6048 166.109 93.7414 166.066 93.857C166.035 93.9306 166.003 93.9937 165.972 94.0462C165.877 94.1723 165.751 94.2669 165.609 94.2985L163.702 95.2129L161.967 91.7917C161.967 91.7917 164.159 90.6407 164.49 90.7669C164.648 90.7879 164.805 90.8562 164.963 90.9718C165.099 91.0664 165.226 91.1768 165.341 91.3029Z" fill="#FFE4D4"/>
<path fill-rule="evenodd" clip-rule="evenodd" d="M163.938 86.1631L164.096 83.6248L166.319 85.1699L166.161 87.5821C166.744 88.1497 167.28 88.8118 167.753 89.5371L169.362 88.7645L170.386 91.0191L168.857 91.7601C169.172 92.5799 169.377 93.4313 169.488 94.2512L171.38 95.5597L171.206 98.2557L169.33 96.9629C169.225 97.3203 169.088 97.6409 168.92 97.9247L170.26 100.573L168.132 101.441L166.934 99.0598C166.476 99.0756 165.972 98.9652 165.452 98.7287L165.294 101.141L163.071 99.5959L160.028 96.0012L159.003 93.7466L158.01 89.206L158.183 86.51L160.485 88.1024C160.59 87.745 160.727 87.4349 160.895 87.1722L159.571 84.555L161.652 83.5933L162.866 85.9897C163.197 85.9897 163.56 86.037 163.938 86.1631ZM163.938 88.3546C163.938 88.3546 163.933 88.3546 163.922 88.3546C163.292 88.2285 162.756 88.4335 162.393 88.9537C162.157 89.3006 162.015 89.7893 161.967 90.3412C161.936 90.8141 161.967 91.3187 162.078 91.8389C162.109 92.0176 162.151 92.1963 162.204 92.375C162.314 92.8007 162.472 93.2106 162.677 93.6205C162.803 93.8938 162.945 94.1566 163.102 94.4088C163.229 94.619 163.365 94.8135 163.512 94.9922C163.891 95.4967 164.316 95.9066 164.774 96.2219C165.015 96.3901 165.252 96.5162 165.483 96.6003C165.62 96.6529 165.746 96.6897 165.862 96.7107C166.508 96.8368 167.06 96.6318 167.422 96.0958C167.501 95.9854 167.091 95.1498 167.091 95.1498L166.934 94.8187L166.508 92.2173C166.508 92.2173 164.285 88.4177 163.938 88.3546Z" fill="#FFE4D4"/>
<path d="M168.4 91.9493L170.386 91.0033L169.362 88.7645L167.375 89.7105L168.4 91.9493Z" fill="#F1935C"/>
<path d="M164.348 86.1158L166.319 85.1699L164.08 83.6406L162.094 84.5865L164.348 86.1158Z" fill="#F1935C"/>
<path d="M159.65 84.5392L161.652 83.609L162.614 85.5167L162.298 87.6451L161.021 87.5663L159.65 84.5392Z" fill="#FFE4D4"/>
<path d="M156.181 87.4559L158.404 86.3839C158.404 86.3839 159.319 88.1654 159.287 88.26C159.24 88.3704 158.247 89.8682 158.247 89.8682L156.181 87.4559Z" fill="#FFE4D4"/>
<path d="M163.307 102.087L165.31 101.141L165.389 100.069L164.569 99.4855H163.197L163.307 102.087Z" fill="#FFE4D4"/>
<path d="M168.274 101.535L170.26 100.589L169.188 98.3976L167.249 97.4517L166.287 98.8706L168.274 101.535Z" fill="#FFE4D4"/>
<path fill-rule="evenodd" clip-rule="evenodd" d="M166.918 98.8549L168.274 101.519L166.145 102.386L164.931 100.006C164.474 100.022 163.985 99.9112 163.465 99.6747L163.307 102.087L161.084 100.542L161.242 98.0035C160.722 97.4359 160.249 96.7738 159.839 96.08L158.042 96.9472L157.017 94.6926L158.83 93.8255C158.593 93.1318 158.42 92.4381 158.341 91.7444L156.023 90.152L156.181 87.456L158.499 89.0484C158.593 88.691 158.725 88.3757 158.893 88.1024L157.569 85.4852L159.65 84.5392L160.864 86.9357C161.21 86.9199 161.573 86.983 161.936 87.1091L162.093 84.5708L164.332 86.1159L164.175 88.5281C164.758 89.0799 165.294 89.7578 165.751 90.4831L167.359 89.7105L168.4 91.9493L166.855 92.6903C167.17 93.5259 167.391 94.3773 167.485 95.1971L169.377 96.5057L169.22 99.2017L167.328 97.9089C167.233 98.2663 167.097 98.5816 166.918 98.8549ZM165.42 97.0418C165.515 96.9156 165.588 96.7738 165.641 96.6161C165.651 96.6161 165.657 96.6108 165.657 96.6003C165.751 96.3323 165.83 96.017 165.861 95.6544C165.893 95.1814 165.861 94.6769 165.751 94.1566C165.688 93.8518 165.604 93.547 165.499 93.2421C165.404 92.9478 165.289 92.664 165.152 92.3908C164.963 91.9809 164.742 91.6025 164.49 91.2556C164.322 91.0034 164.138 90.7721 163.938 90.5619C163.67 90.2623 163.37 89.9943 163.055 89.7894C162.677 89.5213 162.298 89.3637 161.951 89.3006C161.941 89.2901 161.936 89.2849 161.936 89.2849C161.305 89.1745 160.753 89.3794 160.406 89.8997C160.17 90.2466 160.012 90.7196 159.981 91.2871C159.933 91.7601 159.981 92.2646 160.075 92.7849C160.117 92.9636 160.165 93.1423 160.217 93.321C160.333 93.7414 160.485 94.1566 160.674 94.5665C160.811 94.8398 160.958 95.1025 161.116 95.3548C161.242 95.5545 161.379 95.749 161.526 95.9381C161.904 96.4427 162.33 96.8526 162.771 97.1521C163.024 97.3203 163.265 97.4517 163.497 97.5463C163.623 97.5883 163.749 97.6199 163.875 97.6409C164.521 97.767 165.073 97.5778 165.42 97.0418Z" fill="#F1935C"/>
<path d="M169.377 96.5057L171.395 95.5125L171.222 98.2715L169.22 99.2175L169.377 96.5057Z" fill="#F1935C"/>
<path d="M162.976 91.9178C162.808 91.8022 162.65 91.7339 162.503 91.7128C162.503 91.7023 162.503 91.7023 162.503 91.7128C162.235 91.6498 161.999 91.7444 161.857 91.9651C161.747 92.107 161.683 92.312 161.668 92.5484C161.657 92.7481 161.673 92.9584 161.715 93.1791C161.736 93.2527 161.757 93.3315 161.778 93.4156C161.82 93.5838 161.883 93.7572 161.967 93.9359C162.02 94.0515 162.083 94.1618 162.156 94.267C162.209 94.351 162.267 94.4351 162.33 94.5192C162.488 94.7242 162.661 94.8976 162.85 95.0237C162.955 95.0973 163.06 95.1551 163.165 95.1972C163.218 95.2182 163.271 95.2339 163.323 95.2445C163.591 95.2918 163.828 95.2129 163.97 94.9764C164.012 94.9239 164.043 94.8661 164.064 94.803C164.064 94.803 164.069 94.803 164.08 94.803C164.122 94.6874 164.148 94.5507 164.159 94.3931C164.175 94.2039 164.159 93.9832 164.111 93.7624C164.09 93.6363 164.054 93.5049 164.001 93.3683C163.959 93.2527 163.912 93.1318 163.859 93.0057C163.775 92.8375 163.686 92.6798 163.591 92.5327C163.518 92.4276 163.439 92.333 163.355 92.2489C163.229 92.1123 163.102 92.0019 162.976 91.9178Z" fill="#F1935C"/>
<path d="M166.934 68.2686C167.039 68.3842 167.138 68.5103 167.233 68.6469C167.37 68.8361 167.491 69.0411 167.596 69.2618C167.669 69.4195 167.732 69.5719 167.785 69.719C167.837 69.8977 167.885 70.0711 167.927 70.2393C167.974 70.5231 168.006 70.7911 167.974 71.0591C167.964 71.2483 167.927 71.4218 167.864 71.5794C167.832 71.674 167.79 71.7529 167.738 71.8159C167.627 71.9893 167.454 72.0997 167.265 72.147L164.805 73.3295L162.551 68.8992C162.551 68.8992 165.388 67.4172 165.83 67.5591C166.019 67.6064 166.224 67.6852 166.445 67.8271C166.613 67.9532 166.776 68.1004 166.934 68.2686Z" fill="#FFE4D4"/>
<path fill-rule="evenodd" clip-rule="evenodd" d="M165.105 61.5995L165.31 58.3044L168.195 60.3067L167.99 63.4441C168.762 64.1694 169.456 65.0207 170.055 65.9825L172.136 64.9734L173.477 67.8902L171.49 68.8519C171.884 69.924 172.168 71.0276 172.31 72.0997L174.769 73.7867L174.549 77.2868L172.105 75.6156C171.963 76.0728 171.79 76.4985 171.569 76.8453L173.319 80.3139L170.56 81.4175L168.983 78.3431C168.4 78.3589 167.738 78.2012 167.076 77.9017L166.871 81.0233L163.985 79.0368L160.044 74.37L158.704 71.4376L157.411 65.5568L157.632 62.0409L160.627 64.1063C160.753 63.6491 160.927 63.2392 161.147 62.8923L159.429 59.5026L162.125 58.2571L163.702 61.363C164.159 61.363 164.616 61.4418 165.105 61.5995ZM165.105 64.4374C165.105 64.4269 165.099 64.4269 165.089 64.4374C164.269 64.2797 163.575 64.5478 163.102 65.2257C162.803 65.6672 162.614 66.2978 162.551 67.023C162.503 67.6379 162.551 68.2843 162.693 68.9623C162.735 69.1935 162.787 69.4247 162.85 69.656C163.008 70.192 163.213 70.7438 163.465 71.2641C163.633 71.6215 163.817 71.9631 164.017 72.2889C164.185 72.5622 164.364 72.8197 164.553 73.0615C165.042 73.7079 165.593 74.2439 166.177 74.6381C166.503 74.8588 166.818 75.027 167.123 75.1426C167.291 75.2057 167.454 75.2529 167.612 75.2845C168.447 75.4421 169.157 75.1741 169.63 74.4962C169.74 74.3385 169.204 73.2664 169.204 73.2664L168.999 72.8407L168.447 69.451C168.447 69.451 165.562 64.5162 165.105 64.4374Z" fill="#FFE4D4"/>
<path d="M170.891 69.1041L173.476 67.8744L172.152 64.9576L169.566 66.1874L170.891 69.1041Z" fill="#F1935C"/>
<path d="M165.625 61.5364L168.195 60.2909L165.294 58.3201L162.708 59.5499L165.625 61.5364Z" fill="#F1935C"/>
<path d="M159.539 59.4868L162.125 58.2728L163.386 60.7481L162.992 63.5229L161.321 63.4126L159.539 59.4868Z" fill="#FFE4D4"/>
<path d="M155.046 63.2707L157.915 61.8676C157.915 61.8676 159.114 64.1852 159.066 64.3271C159.019 64.4532 157.726 66.3924 157.726 66.3924L155.046 63.2707Z" fill="#FFE4D4"/>
<path d="M164.301 82.2531L166.886 81.0391L166.997 79.6359L165.94 78.8949L164.159 78.8792L164.301 82.2531Z" fill="#FFE4D4"/>
<path d="M170.733 81.5436L173.319 80.3296L171.916 77.4602L169.409 76.2462L168.147 78.0751L170.733 81.5436Z" fill="#FFE4D4"/>
<path fill-rule="evenodd" clip-rule="evenodd" d="M168.983 78.0751L170.733 81.5279L167.974 82.6473L166.398 79.5571C165.814 79.5729 165.152 79.431 164.49 79.1315L164.285 82.2531L161.4 80.2508L161.605 76.9557C160.927 76.2147 160.312 75.3791 159.792 74.4647L157.458 75.5841L156.118 72.6673L158.467 71.5322C158.168 70.6493 157.947 69.7349 157.852 68.8362L154.825 66.7708L155.046 63.2707L158.041 65.3361C158.168 64.8789 158.341 64.469 158.562 64.1221L156.843 60.7166L159.539 59.4869L161.116 62.5928C161.573 62.577 162.03 62.6559 162.519 62.8135L162.724 59.5342L165.609 61.5207L165.404 64.6582C166.177 65.3834 166.87 66.2505 167.47 67.1965L169.551 66.1875L170.891 69.12L168.904 70.0817C169.298 71.1538 169.582 72.2574 169.708 73.3295L172.184 75.0165L171.963 78.5166L169.519 76.8296C169.377 77.3026 169.204 77.7125 168.983 78.0751ZM167.044 75.726C167.149 75.5578 167.244 75.3686 167.328 75.1584C167.328 75.1584 167.328 75.1531 167.328 75.1426C167.47 74.7958 167.564 74.3701 167.596 73.9129C167.643 73.3138 167.596 72.6516 167.454 71.9736C167.38 71.5742 167.275 71.1748 167.139 70.7754C167.012 70.397 166.86 70.0292 166.681 69.6718C166.429 69.1515 166.145 68.6628 165.83 68.2055C165.609 67.8797 165.373 67.5802 165.12 67.3069C164.758 66.9127 164.364 66.5659 163.954 66.2978C163.465 65.951 162.976 65.746 162.519 65.6514C162.519 65.6514 162.514 65.6514 162.503 65.6514C161.683 65.5095 160.99 65.7776 160.517 66.4397C160.217 66.897 160.028 67.5118 159.965 68.2371C159.918 68.8519 159.965 69.5141 160.107 70.1921C160.149 70.4233 160.201 70.6545 160.265 70.8858C160.422 71.4218 160.627 71.9579 160.879 72.4939C161.048 72.8513 161.231 73.1929 161.431 73.5187C161.599 73.792 161.778 74.0495 161.967 74.2913C162.456 74.9219 163.008 75.4579 163.591 75.8679C163.917 76.0886 164.232 76.2515 164.537 76.3566C164.705 76.4197 164.868 76.467 165.026 76.4985C165.861 76.6562 166.571 76.4039 167.044 75.726Z" fill="#F1935C"/>
<path d="M172.168 75.0007L174.801 73.7236L174.549 77.3025L171.963 78.5323L172.168 75.0007Z" fill="#F1935C"/>
<path d="M163.859 69.0569C163.638 68.915 163.433 68.8204 163.244 68.7889C162.897 68.7258 162.598 68.8362 162.409 69.12C162.267 69.3091 162.188 69.5772 162.172 69.8767C162.141 70.1448 162.172 70.4128 162.219 70.7123C162.24 70.8069 162.267 70.9015 162.298 70.9961C162.361 71.2274 162.445 71.4533 162.551 71.6741C162.624 71.8317 162.703 71.9789 162.787 72.1155C162.861 72.2311 162.934 72.3362 163.008 72.4308C163.228 72.7146 163.449 72.9354 163.701 73.1088C163.838 73.1929 163.969 73.2612 164.096 73.3137C164.169 73.3453 164.237 73.3663 164.301 73.3768C164.663 73.4399 164.963 73.3295 165.152 73.0457C165.204 72.9721 165.247 72.8933 165.278 72.8092C165.278 72.8092 165.278 72.804 165.278 72.7935C165.341 72.6463 165.378 72.4729 165.388 72.2732C165.42 72.0209 165.388 71.7371 165.341 71.4533C165.299 71.2852 165.252 71.117 165.199 70.9488C165.147 70.7912 165.084 70.6335 165.01 70.4758C164.905 70.2551 164.784 70.0502 164.647 69.861C164.553 69.7243 164.453 69.5982 164.348 69.4826C164.19 69.3144 164.027 69.1725 163.859 69.0569Z" fill="#F1935C"/>
<path d="M122.451 139.351C118.931 137.474 113.225 137.474 109.705 139.351L6.35341 194.461C4.59389 195.4 3.71402 196.629 3.71379 197.859C3.71358 199.089 4.59344 200.319 6.35341 201.257L85.0657 243.229C88.5852 245.106 94.2914 245.106 97.8109 243.229L201.163 188.119C202.922 187.181 203.802 185.951 203.802 184.721C203.803 183.491 202.923 182.261 201.163 181.323L122.451 139.351Z" fill="#D4E4FE"/>
<path d="M122.454 131.501C118.934 129.625 113.228 129.625 109.709 131.501V139.354C113.228 137.477 118.934 137.477 122.454 139.354V131.501Z" fill="#D4E4FE"/>
<path d="M122.445 131.5L201.157 173.472V181.325L122.445 139.353V131.5Z" fill="#D4E4FE"/>
<path d="M6.35703 186.611L109.709 131.5V139.353L6.35703 194.463V186.611Z" fill="#D4E4FE"/>
<path d="M201.163 173.477C202.923 174.415 203.803 175.645 203.802 176.875L203.802 184.727C203.802 183.497 202.922 182.268 201.163 181.33V173.477Z" fill="#D4E4FE"/>
<path d="M203.802 176.872C203.802 178.102 202.922 179.332 201.163 180.27V188.122C202.922 187.184 203.802 185.955 203.802 184.725V176.872Z" fill="#A1C1FF"/>
<path d="M3.71755 190.012C3.71777 188.782 4.59765 187.553 6.35718 186.614V194.467C4.59765 195.405 3.71777 196.635 3.71755 197.865V190.012Z" fill="#D4E4FE"/>
<path d="M6.35718 193.406C4.59765 192.467 3.71777 191.238 3.71755 190.008V197.86C3.71733 199.09 4.59721 200.32 6.35718 201.258V193.406Z" fill="#A1C1FF"/>
<path d="M201.157 180.272L97.8053 235.383V243.235L201.157 188.125V180.272Z" fill="#A1C1FF"/>
<path d="M85.0708 235.382L6.35854 193.41V201.263L85.0708 243.234V235.382Z" fill="#A1C1FF"/>
<path d="M97.8054 235.382C94.2859 237.258 88.5797 237.258 85.0602 235.382V243.234C88.5797 245.111 94.2859 245.111 97.8054 243.234V235.382Z" fill="#A1C1FF"/>
<rect width="131.571" height="103.647" rx="7.86205" transform="matrix(-0.882391 0.470517 0.882391 0.470517 116.097 127.892)" fill="#DEEFFF"/>
<path d="M122.466 122.081C118.946 120.204 113.24 120.204 109.721 122.081L6.36855 177.191C4.60902 178.13 3.72916 179.359 3.72893 180.589C3.72871 181.819 4.60858 183.049 6.36855 183.987L85.0808 225.959C88.6003 227.836 94.3065 227.836 97.826 225.959L201.178 170.849C202.938 169.911 203.817 168.681 203.818 167.451C203.818 166.221 202.938 164.991 201.178 164.053L122.466 122.081Z" fill="#D4E4FE"/>
<path d="M122.469 114.231C118.949 112.355 113.243 112.355 109.724 114.231V122.084C113.243 120.207 118.949 120.207 122.469 122.084V114.231Z" fill="#D4E4FE"/>
<path d="M122.455 114.23L201.167 156.202V164.055L122.455 122.083V114.23Z" fill="#D4E4FE"/>
<path d="M6.36215 169.34L109.714 114.23V122.083L6.36215 177.193V169.34Z" fill="#D4E4FE"/>
<path d="M201.178 156.204C202.938 157.143 203.818 158.373 203.818 159.603L203.818 167.455C203.817 166.225 202.938 164.995 201.178 164.057V156.204Z" fill="#D4E4FE"/>
<path d="M203.818 159.602C203.817 160.832 202.938 162.061 201.178 163V170.852C202.938 169.914 203.817 168.684 203.818 167.455V159.602Z" fill="#A1C1FF"/>
<path d="M3.73269 172.739C3.73291 171.51 4.61278 170.28 6.37231 169.342V177.194C4.61278 178.133 3.73291 179.362 3.73269 180.592V172.739Z" fill="#D4E4FE"/>
<path d="M6.37231 176.136C4.61278 175.197 3.73291 173.968 3.73269 172.738V180.59C3.73247 181.82 4.61235 183.05 6.37231 183.988V176.136Z" fill="#A1C1FF"/>
<path d="M201.167 163.002L97.8155 218.113V225.965L201.167 170.855V163.002Z" fill="#A1C1FF"/>
<path d="M85.0859 218.107L6.37368 176.135V183.987L85.0859 225.959V218.107Z" fill="#A1C1FF"/>
<path d="M97.8206 218.112C94.3011 219.988 88.5948 219.988 85.0753 218.112V225.964C88.5948 227.841 94.3011 227.841 97.8206 225.964V218.112Z" fill="#A1C1FF"/>
<rect width="131.571" height="103.647" rx="7.86205" transform="matrix(-0.882391 0.470517 0.882391 0.470517 116.097 110.835)" fill="#DEEFFF"/>
<path d="M97.3684 126.582V151.437L113.994 141.828V116.759L97.3684 126.582Z" fill="#28565D"/>
<path d="M80.9336 116.759V141.614L97.3685 151.437V126.368L80.9336 116.759Z" fill="#509AA6"/>
<path d="M80.9336 116.759L97.3685 107.151L113.994 116.759L97.5825 126.582L80.9336 116.759Z" fill="#78DBEB"/>
<g style="mix-blend-mode:multiply">
<path d="M112.209 164.97L131.974 153.411L152 164.97L132.236 176.767L112.209 164.97Z" fill="#D9E4ED"/>
</g>
<path d="M131.998 111.408V173.556L148.647 163.971V101.585L131.998 111.408Z" fill="#28565D"/>
<path d="M115.587 101.585V163.757L131.998 173.556V111.194L115.587 101.585Z" fill="#509AA6"/>
<path d="M115.587 101.585L131.998 92L148.647 101.585L132.212 111.408L115.587 101.585Z" fill="#78DBEB"/>
<g style="mix-blend-mode:multiply">
<path d="M63 164.233L83.0263 152.531L103.314 164.233L83.2879 176.196L63 164.233Z" fill="#D9E4ED"/>
</g>
<path d="M83.0259 158.834V172.843L99.6748 163.234V149.035L83.0259 158.834Z" fill="#28565D"/>
<path d="M66.5911 149.035V163.02L83.0259 172.843V158.62L66.5911 149.035Z" fill="#509AA6"/>
<path d="M66.5913 149.035L83.0262 139.426L99.6751 149.035L83.2402 158.834L66.5913 149.035Z" fill="#78DBEB"/>
<g style="mix-blend-mode:multiply">
<path d="M87.521 178.598L107.547 166.896L127.835 178.598L107.809 190.562L87.521 178.598Z" fill="#D9E4ED"/>
</g>
<path d="M107.571 148.321V186.614L124.22 177.005V138.498L107.571 148.321Z" fill="#28565D"/>
<path d="M91.1599 138.498V176.791L107.571 186.614V148.107L91.1599 138.498Z" fill="#509AA6"/>
<path d="M91.1599 138.498L107.571 128.913L124.22 138.498L107.785 148.321L91.1599 138.498Z" fill="#78DBEB"/>
<g style="mix-blend-mode:multiply">
<path d="M92.1239 215.204C92.1239 215.204 76.6817 212.786 79.5393 209.433C82.3695 206.081 95.696 200.393 95.696 200.393L92.1239 215.204Z" fill="#D9E4ED"/>
</g>
<path d="M86.1614 211.852C86.4636 207.62 89.4037 202.757 93.0032 200.668C94.6793 199.707 96.2181 199.514 97.4271 199.954L97.537 200.009C97.7568 200.1 97.9675 200.219 98.169 200.366C98.169 200.366 98.169 200.375 98.169 200.393L103.967 203.663L96.7401 209.461L92.2613 215.451L86.1614 211.852Z" fill="#F1935C"/>
<path d="M99.1306 204.158C100.642 203.279 102.071 203.031 103.197 203.334C104.791 203.773 105.863 205.257 106 207.565L104.901 208.225L103.225 209.159L95.0364 213.857L93.9373 214.489L92.2612 215.451C92.536 211.22 95.5036 206.274 99.1306 204.158Z" fill="#FEE0CE"/>
<path d="M99.5977 202.702C97.482 203.416 95.6135 205.065 94.1572 207.07C93.8092 207.547 93.4886 208.032 93.1955 208.527C92.3162 210.038 91.6843 211.659 91.3271 213.17L87.7825 211.055C88.0298 209.461 88.6892 207.757 89.6784 206.136C89.6967 206.1 89.7242 206.054 89.7609 205.999C90.0723 205.486 90.4111 205.01 90.7775 204.57C91.6843 203.416 92.7559 202.454 93.8275 201.85C95.2288 201.053 96.3829 200.833 96.3829 200.833L99.5977 202.702Z" fill="#31393A"/>
<path d="M94.1573 207.07C93.8093 207.547 93.4887 208.032 93.1956 208.527L89.7609 205.999L86.7384 203.746L78.9074 197.948L78.4678 197.618L79.4844 196.244L82.397 198.388L87.7551 202.344L90.7776 204.57L94.1573 207.07Z" fill="#85CEE8"/>
<path d="M80.0614 193.607L84.705 197.783L87.8375 200.586C88.8816 201.52 86.3262 205.01 85.1172 204.295L76.1596 198.882C76.1046 198.846 76.0405 198.809 75.9672 198.772C75.3078 198.278 74.9506 197.453 75.0055 196.629C75.0238 196.464 75.0513 196.309 75.088 196.162C75.1979 195.612 75.4177 195.09 75.72 194.651C76.1596 194.019 76.7916 193.497 77.506 193.194L77.5609 193.167C78.4127 192.837 79.3744 193.002 80.0614 193.607Z" fill="#A1C1FF"/>
<path d="M84.705 197.783L87.8375 200.586C88.8816 201.52 86.3262 205.01 85.1172 204.295L76.1596 198.882C76.1046 198.846 76.0405 198.809 75.9672 198.772C75.3078 198.278 74.9506 197.453 75.0055 196.629C75.0238 196.464 75.0513 196.309 75.088 196.162C79.7591 199.047 82.8641 198.662 84.705 197.783Z" fill="#598DED"/>
<path d="M48.0705 160.531L64.0933 132.992L56.0695 128.262L40.0466 155.801L48.0705 160.531Z" fill="#A1C1FF"/>
<path d="M32.0229 142.031L40.0468 155.801L47.8477 160.333L40.0468 146.761L32.0229 142.031Z" fill="#EAF4FE"/>
<path d="M24.0238 174.3L40.0467 146.761L32.0229 142.031L16 169.57L24.0238 174.3Z" fill="#A1C1FF"/>
<path d="M52.8005 126.405L67.3871 134.825L66.1488 119L52.8005 126.405Z" fill="#A1C1FF"/>
<g filter="url(#filter0_i_214_6527)">
<path d="M201.168 45.3618C202.928 46.3003 203.808 47.5303 203.807 48.7603L203.807 175.187C203.807 173.958 202.927 172.728 201.168 171.79V45.3618Z" fill="#FFE4D4" fill-opacity="0.1"/>
</g>
<path d="M203.557 48.7603V48.7603C203.558 47.7429 202.882 46.6715 201.418 45.7906V171.641C202.397 172.185 203.119 172.831 203.557 173.533V48.7603Z" stroke="white" stroke-width="0.5"/>
<g filter="url(#filter1_i_214_6527)">
<path d="M203.808 48.7596C203.807 49.9893 202.928 51.219 201.168 52.1572V178.585C202.928 177.647 203.807 176.417 203.808 175.188V48.7596Z" fill="#FFE4D4" fill-opacity="0.1"/>
</g>
<path d="M201.418 178.156C202.882 177.276 203.557 176.205 203.558 175.188V50.4143C203.119 51.1158 202.397 51.7621 201.418 52.3058V178.156Z" stroke="#FFE4D4" stroke-width="0.5"/>
<g filter="url(#filter2_i_214_6527)">
<path d="M6.3623 65.2956C4.60277 64.3574 3.7229 63.1277 3.72268 61.898V188.325C3.72246 189.555 4.60234 190.785 6.3623 191.724V65.2956Z" fill="#FFE4D4" fill-opacity="0.1"/>
</g>
<path d="M6.1123 65.4442C5.13296 64.9005 4.41151 64.2542 3.97268 63.5527V188.325C3.9725 189.343 4.64779 190.414 6.1123 191.295V65.4442Z" stroke="white" stroke-width="0.5"/>
<g filter="url(#filter3_i_214_6527)">
<path d="M201.157 52.1573L97.8053 107.268V233.696L201.157 178.585V52.1573Z" fill="#FFE4D4" fill-opacity="0.1"/>
</g>
<path d="M200.907 178.435V52.574L98.0553 107.418V233.279L200.907 178.435Z" stroke="#FFE4D4" stroke-width="0.5"/>
<g filter="url(#filter4_i_214_6527)">
<path d="M85.0759 107.269L6.36367 65.2974V191.725L85.0759 233.697V107.269Z" fill="#FFE4D4" fill-opacity="0.1"/>
</g>
<path d="M84.8259 233.281V107.419L6.61367 65.7141V191.575L84.8259 233.281Z" stroke="#FFE4D4" stroke-width="0.5"/>
<g filter="url(#filter5_i_214_6527)">
<path d="M97.8105 107.269C94.291 109.146 88.5848 109.146 85.0653 107.269V233.697C88.5848 235.574 94.291 235.574 97.8105 233.697V107.269Z" fill="#FFE4D4" fill-opacity="0.1"/>
</g>
<path d="M97.5605 233.546V107.675C95.8103 108.513 93.6182 108.927 91.4379 108.927C89.2577 108.927 87.0655 108.513 85.3153 107.675V233.546C87.013 234.414 89.219 234.855 91.4379 234.855C93.6569 234.855 95.8629 234.414 97.5605 233.546Z" stroke="#FFE4D4" stroke-width="0.5"/>
<g filter="url(#filter6_i_214_6527)">
<rect width="131.571" height="103.647" rx="7.86205" transform="matrix(-0.882391 0.470517 0.882391 0.470517 116.097 0)" fill="#FFE4D4" fill-opacity="0.1"/>
</g>
<rect x="1.49012e-08" y="0.235259" width="131.071" height="103.147" rx="7.61205" transform="matrix(-0.882391 0.470517 0.882391 0.470517 115.889 0.124565)" stroke="#FFE4D4" stroke-width="0.5"/>
<defs>
<filter id="filter0_i_214_6527" x="201.168" y="45.3618" width="2.63965" height="129.826" filterUnits="userSpaceOnUse" color-interpolation-filters="sRGB">
<feFlood flood-opacity="0" result="BackgroundImageFix"/>
<feBlend mode="normal" in="SourceGraphic" in2="BackgroundImageFix" result="shape"/>
<feColorMatrix in="SourceAlpha" type="matrix" values="0 0 0 0 0 0 0 0 0 0 0 0 0 0 0 0 0 0 127 0" result="hardAlpha"/>
<feOffset/>
<feGaussianBlur stdDeviation="9.0843"/>
<feComposite in2="hardAlpha" operator="arithmetic" k2="-1" k3="1"/>
<feColorMatrix type="matrix" values="0 0 0 0 1 0 0 0 0 1 0 0 0 0 1 0 0 0 1 0"/>
<feBlend mode="normal" in2="shape" result="effect1_innerShadow_214_6527"/>
</filter>
<filter id="filter1_i_214_6527" x="201.168" y="48.7596" width="2.63965" height="129.826" filterUnits="userSpaceOnUse" color-interpolation-filters="sRGB">
<feFlood flood-opacity="0" result="BackgroundImageFix"/>
<feBlend mode="normal" in="SourceGraphic" in2="BackgroundImageFix" result="shape"/>
<feColorMatrix in="SourceAlpha" type="matrix" values="0 0 0 0 0 0 0 0 0 0 0 0 0 0 0 0 0 0 127 0" result="hardAlpha"/>
<feOffset/>
<feGaussianBlur stdDeviation="9.0843"/>
<feComposite in2="hardAlpha" operator="arithmetic" k2="-1" k3="1"/>
<feColorMatrix type="matrix" values="0 0 0 0 1 0 0 0 0 1 0 0 0 0 1 0 0 0 1 0"/>
<feBlend mode="normal" in2="shape" result="effect1_innerShadow_214_6527"/>
</filter>
<filter id="filter2_i_214_6527" x="3.72266" y="61.898" width="2.63965" height="129.826" filterUnits="userSpaceOnUse" color-interpolation-filters="sRGB">
<feFlood flood-opacity="0" result="BackgroundImageFix"/>
<feBlend mode="normal" in="SourceGraphic" in2="BackgroundImageFix" result="shape"/>
<feColorMatrix in="SourceAlpha" type="matrix" values="0 0 0 0 0 0 0 0 0 0 0 0 0 0 0 0 0 0 127 0" result="hardAlpha"/>
<feOffset/>
<feGaussianBlur stdDeviation="9.0843"/>
<feComposite in2="hardAlpha" operator="arithmetic" k2="-1" k3="1"/>
<feColorMatrix type="matrix" values="0 0 0 0 1 0 0 0 0 1 0 0 0 0 1 0 0 0 1 0"/>
<feBlend mode="normal" in2="shape" result="effect1_innerShadow_214_6527"/>
</filter>
<filter id="filter3_i_214_6527" x="97.8052" y="52.1573" width="103.352" height="181.538" filterUnits="userSpaceOnUse" color-interpolation-filters="sRGB">
<feFlood flood-opacity="0" result="BackgroundImageFix"/>
<feBlend mode="normal" in="SourceGraphic" in2="BackgroundImageFix" result="shape"/>
<feColorMatrix in="SourceAlpha" type="matrix" values="0 0 0 0 0 0 0 0 0 0 0 0 0 0 0 0 0 0 127 0" result="hardAlpha"/>
<feOffset/>
<feGaussianBlur stdDeviation="9.0843"/>
<feComposite in2="hardAlpha" operator="arithmetic" k2="-1" k3="1"/>
<feColorMatrix type="matrix" values="0 0 0 0 1 0 0 0 0 1 0 0 0 0 1 0 0 0 1 0"/>
<feBlend mode="normal" in2="shape" result="effect1_innerShadow_214_6527"/>
</filter>
<filter id="filter4_i_214_6527" x="6.36377" y="65.2974" width="78.7122" height="168.4" filterUnits="userSpaceOnUse" color-interpolation-filters="sRGB">
<feFlood flood-opacity="0" result="BackgroundImageFix"/>
<feBlend mode="normal" in="SourceGraphic" in2="BackgroundImageFix" result="shape"/>
<feColorMatrix in="SourceAlpha" type="matrix" values="0 0 0 0 0 0 0 0 0 0 0 0 0 0 0 0 0 0 127 0" result="hardAlpha"/>
<feOffset/>
<feGaussianBlur stdDeviation="9.0843"/>
<feComposite in2="hardAlpha" operator="arithmetic" k2="-1" k3="1"/>
<feColorMatrix type="matrix" values="0 0 0 0 1 0 0 0 0 1 0 0 0 0 1 0 0 0 1 0"/>
<feBlend mode="normal" in2="shape" result="effect1_innerShadow_214_6527"/>
</filter>
<filter id="filter5_i_214_6527" x="85.0654" y="107.269" width="12.7451" height="127.836" filterUnits="userSpaceOnUse" color-interpolation-filters="sRGB">
<feFlood flood-opacity="0" result="BackgroundImageFix"/>
<feBlend mode="normal" in="SourceGraphic" in2="BackgroundImageFix" result="shape"/>
<feColorMatrix in="SourceAlpha" type="matrix" values="0 0 0 0 0 0 0 0 0 0 0 0 0 0 0 0 0 0 127 0" result="hardAlpha"/>
<feOffset/>
<feGaussianBlur stdDeviation="9.0843"/>
<feComposite in2="hardAlpha" operator="arithmetic" k2="-1" k3="1"/>
<feColorMatrix type="matrix" values="0 0 0 0 1 0 0 0 0 1 0 0 0 0 1 0 0 0 1 0"/>
<feBlend mode="normal" in2="shape" result="effect1_innerShadow_214_6527"/>
</filter>
<filter id="filter6_i_214_6527" x="4.06348" y="2.16693" width="199.427" height="106.34" filterUnits="userSpaceOnUse" color-interpolation-filters="sRGB">
<feFlood flood-opacity="0" result="BackgroundImageFix"/>
<feBlend mode="normal" in="SourceGraphic" in2="BackgroundImageFix" result="shape"/>
<feColorMatrix in="SourceAlpha" type="matrix" values="0 0 0 0 0 0 0 0 0 0 0 0 0 0 0 0 0 0 127 0" result="hardAlpha"/>
<feOffset/>
<feGaussianBlur stdDeviation="9.0843"/>
<feComposite in2="hardAlpha" operator="arithmetic" k2="-1" k3="1"/>
<feColorMatrix type="matrix" values="0 0 0 0 1 0 0 0 0 1 0 0 0 0 1 0 0 0 1 0"/>
<feBlend mode="normal" in2="shape" result="effect1_innerShadow_214_6527"/>
</filter>
</defs>
</svg>
