<svg width="302" height="324" viewBox="0 0 302 324" fill="none" xmlns="http://www.w3.org/2000/svg">
<path d="M180.212 63.6964C180.391 63.8961 180.559 64.1115 180.716 64.3428C180.937 64.6581 181.137 64.9997 181.316 65.3676C181.442 65.6303 181.547 65.8931 181.631 66.1559C181.736 66.4397 181.815 66.7182 181.867 66.9915C181.962 67.4802 181.994 67.9374 181.962 68.3789C181.946 68.6942 181.883 68.9938 181.773 69.246C181.72 69.3932 181.652 69.5246 181.568 69.6402C181.363 69.9397 181.095 70.1289 180.78 70.192L176.665 72.1785L172.896 64.7684C172.896 64.7684 177.642 62.2774 178.367 62.5297C178.367 62.5297 178.373 62.5349 178.383 62.5454C178.698 62.5927 179.045 62.7504 179.392 62.9869C179.676 63.1761 179.96 63.4283 180.212 63.6964Z" fill="#FFE4D4"/>
<path fill-rule="evenodd" clip-rule="evenodd" d="M177.153 52.5654L177.5 47.0788L182.325 50.4055L181.994 55.6398C183.271 56.8538 184.422 58.3043 185.431 59.8809L188.915 58.2097L191.154 63.0814L187.827 64.6896C188.505 66.4711 188.962 68.3158 189.183 70.1131L193.298 72.9353L192.935 78.7845L188.852 75.9781C188.631 76.7507 188.316 77.4444 187.953 78.0435L190.886 83.8139L186.266 85.6743L183.649 80.5345C182.656 80.5503 181.568 80.3138 180.449 79.8093L180.117 85.0279L175.293 81.7012L168.703 73.897L166.464 69.0253L164.32 59.1714L164.682 53.3222L169.696 56.7592C169.901 56.0025 170.201 55.3245 170.563 54.7412L167.678 49.0654L172.203 47L174.836 52.1871C175.577 52.1713 176.349 52.2974 177.153 52.5654ZM177.169 57.311C177.159 57.3005 177.148 57.3005 177.138 57.311C175.782 57.0588 174.599 57.5002 173.827 58.6196C173.322 59.3764 172.991 60.417 172.897 61.631C172.818 62.6558 172.897 63.7436 173.133 64.8788C173.207 65.2677 173.296 65.6566 173.401 66.0455C173.653 66.9441 174 67.8428 174.426 68.7257C174.71 69.3248 175.02 69.8924 175.356 70.4284C175.64 70.8857 175.939 71.3113 176.239 71.7213C177.075 72.7934 177.989 73.692 178.967 74.3542C179.503 74.7221 180.023 75.0006 180.527 75.1898C180.811 75.2949 181.084 75.3738 181.347 75.4263C182.735 75.6943 183.933 75.2529 184.705 74.1177C184.895 73.8497 184.012 72.0681 184.012 72.0681L183.665 71.3429L182.735 65.6986C182.735 65.6986 177.926 57.4529 177.169 57.311Z" fill="#FFE4D4"/>
<path d="M186.834 65.0995L191.154 63.0657L188.931 58.194L184.611 60.2436L186.834 65.0995Z" fill="#F1935C"/>
<path d="M178.037 52.4709L182.309 50.4055L177.485 47.0946L173.181 49.1442L178.037 52.4709Z" fill="#F1935C"/>
<path d="M167.883 49.0653L172.203 47.0157L174.3 51.1622L173.622 55.7817L170.832 55.5925L167.883 49.0653Z" fill="#FFE4D4"/>
<path d="M160.363 55.3718L165.156 53.0226C165.156 53.0226 167.158 56.9011 167.079 57.1218C167 57.3426 164.84 60.5904 164.84 60.5904L160.363 55.3718Z" fill="#FFE4D4"/>
<path d="M175.813 87.0774L180.133 85.0278L180.306 82.7102L178.556 81.4489L175.577 81.4332L175.813 87.0774Z" fill="#FFE4D4"/>
<path d="M186.55 85.895L190.87 83.8454L188.537 79.084L184.359 77.0344L182.262 80.1088L186.55 85.895Z" fill="#FFE4D4"/>
<path fill-rule="evenodd" clip-rule="evenodd" d="M183.633 80.0931L186.566 85.8635L181.946 87.7239L179.329 82.5842C178.336 82.5999 177.264 82.3477 176.129 81.8431L175.798 87.0775L170.973 83.7351L171.336 78.2169C170.201 76.9872 169.176 75.584 168.293 74.0547L164.383 75.9308L162.144 71.0591L166.086 69.1672C165.581 67.6852 165.219 66.1559 165.045 64.6738L160 61.2211L160.363 55.3718L165.376 58.8088C165.581 58.0521 165.881 57.3741 166.243 56.775L163.374 51.115L167.883 49.0496L170.516 54.2367C171.257 54.2209 172.03 54.347 172.834 54.6151L173.18 49.1285L178.005 52.4551L177.674 57.6895C178.951 58.9034 180.102 60.3382 181.111 61.9305L184.595 60.2593L186.834 65.1311L183.507 66.7392C184.185 68.5208 184.658 70.3654 184.863 72.1627L188.978 74.9691L188.615 80.8183L184.532 78.0277C184.311 78.8003 184.012 79.494 183.633 80.0931ZM180.386 76.1516C180.575 75.8835 180.748 75.5682 180.874 75.2371C180.874 75.2214 180.89 75.2214 180.89 75.2056C181.111 74.6065 181.268 73.9128 181.332 73.156C181.395 72.1312 181.332 71.0276 181.095 69.8924C180.969 69.2303 180.78 68.5681 180.559 67.8901C180.349 67.27 180.097 66.6551 179.802 66.0455C179.377 65.1784 178.904 64.3585 178.383 63.6175C178.005 63.071 177.605 62.5664 177.185 62.104C176.57 61.4418 175.924 60.8742 175.262 60.417C174.426 59.8494 173.606 59.4868 172.849 59.3607C172.839 59.3501 172.828 59.3449 172.818 59.3449C171.462 59.0926 170.28 59.5499 169.507 60.6692C169.002 61.4103 168.671 62.4508 168.577 63.6648C168.498 64.6896 168.577 65.7932 168.813 66.9284C168.887 67.3173 168.976 67.7062 169.081 68.0951C169.334 68.978 169.68 69.8767 170.106 70.7753C170.39 71.3744 170.7 71.942 171.036 72.4781C171.32 72.9353 171.62 73.361 171.919 73.7709C172.755 74.843 173.669 75.7417 174.647 76.4038C175.183 76.7612 175.703 77.0345 176.208 77.2237C176.491 77.3393 176.765 77.4181 177.027 77.4602C178.415 77.7282 179.613 77.3025 180.386 76.1516Z" fill="#F1935C"/>
<path d="M188.962 74.9691L193.345 72.8249L192.935 78.8003L188.631 80.8498L188.962 74.9691Z" fill="#F1935C"/>
<path d="M175.072 65.0364C174.726 64.7999 174.379 64.6422 174.063 64.5792C174.063 64.5792 174.058 64.5792 174.048 64.5792C173.48 64.4688 172.976 64.658 172.645 65.131C172.44 65.4621 172.298 65.8878 172.266 66.408C172.219 66.8337 172.266 67.3067 172.361 67.7797C172.392 67.9479 172.429 68.1108 172.471 68.2684C172.576 68.6573 172.718 69.0357 172.897 69.4036C173.023 69.6559 173.154 69.8976 173.291 70.1289C173.417 70.318 173.543 70.502 173.669 70.6807C174.016 71.1221 174.41 71.5005 174.82 71.7843C175.051 71.942 175.272 72.0628 175.482 72.1469C175.598 72.189 175.714 72.2205 175.829 72.2415C176.413 72.3519 176.917 72.1627 177.248 71.6897C177.332 71.5741 177.401 71.4427 177.453 71.2955C177.453 71.2955 177.458 71.2903 177.469 71.2798C177.564 71.0275 177.627 70.7437 177.642 70.4126C177.674 69.987 177.642 69.514 177.548 69.041C177.495 68.7572 177.422 68.4734 177.327 68.1896C177.232 67.9268 177.122 67.6693 176.996 67.4171C176.828 67.0492 176.628 66.7023 176.397 66.3765C176.239 66.1558 176.071 65.9456 175.892 65.7459C175.64 65.4621 175.356 65.2256 175.072 65.0364Z" fill="#F1935C"/>
<path d="M203.341 91.3029C203.425 91.387 203.504 91.4816 203.578 91.5867C203.683 91.7339 203.772 91.8968 203.846 92.0754C203.909 92.1911 203.961 92.3067 204.003 92.4223C204.045 92.5589 204.077 92.6903 204.098 92.8165C204.145 93.0372 204.161 93.2579 204.145 93.4471C204.135 93.6048 204.109 93.7414 204.066 93.857C204.035 93.9306 204.003 93.9937 203.972 94.0462C203.877 94.1723 203.751 94.2669 203.609 94.2985L201.702 95.2129L199.967 91.7917C199.967 91.7917 202.159 90.6407 202.49 90.7669C202.648 90.7879 202.805 90.8562 202.963 90.9718C203.099 91.0664 203.226 91.1768 203.341 91.3029Z" fill="#FFE4D4"/>
<path fill-rule="evenodd" clip-rule="evenodd" d="M201.938 86.1631L202.095 83.6248L204.319 85.1699L204.161 87.5821C204.744 88.1497 205.28 88.8118 205.753 89.5371L207.361 88.7645L208.386 91.0191L206.857 91.7601C207.172 92.5799 207.377 93.4313 207.488 94.2512L209.379 95.5597L209.206 98.2557L207.33 96.9629C207.225 97.3203 207.088 97.6409 206.92 97.9247L208.26 100.573L206.132 101.441L204.933 99.0598C204.476 99.0756 203.972 98.9652 203.451 98.7287L203.294 101.141L201.071 99.5959L198.028 96.0012L197.003 93.7466L196.01 89.206L196.183 86.51L198.485 88.1024C198.59 87.745 198.727 87.4349 198.895 87.1722L197.571 84.555L199.652 83.5933L200.866 85.9897C201.197 85.9897 201.559 86.037 201.938 86.1631ZM201.938 88.3546C201.938 88.3546 201.933 88.3546 201.922 88.3546C201.291 88.2285 200.755 88.4335 200.393 88.9537C200.156 89.3006 200.014 89.7893 199.967 90.3412C199.936 90.8141 199.967 91.3187 200.077 91.8389C200.109 92.0176 200.151 92.1963 200.204 92.375C200.314 92.8007 200.472 93.2106 200.677 93.6205C200.803 93.8938 200.945 94.1566 201.102 94.4088C201.228 94.619 201.365 94.8135 201.512 94.9922C201.891 95.4967 202.316 95.9066 202.773 96.2219C203.015 96.3901 203.252 96.5162 203.483 96.6003C203.62 96.6529 203.746 96.6897 203.861 96.7107C204.508 96.8368 205.06 96.6318 205.422 96.0958C205.501 95.9854 205.091 95.1498 205.091 95.1498L204.933 94.8187L204.508 92.2173C204.508 92.2173 202.285 88.4177 201.938 88.3546Z" fill="#FFE4D4"/>
<path d="M206.4 91.9493L208.386 91.0033L207.362 88.7645L205.375 89.7105L206.4 91.9493Z" fill="#F1935C"/>
<path d="M202.348 86.1158L204.319 85.1699L202.08 83.6406L200.093 84.5865L202.348 86.1158Z" fill="#F1935C"/>
<path d="M197.649 84.5392L199.652 83.609L200.613 85.5167L200.298 87.6451L199.021 87.5663L197.649 84.5392Z" fill="#FFE4D4"/>
<path d="M194.181 87.4559L196.404 86.3839C196.404 86.3839 197.319 88.1654 197.287 88.26C197.24 88.3704 196.247 89.8682 196.247 89.8682L194.181 87.4559Z" fill="#FFE4D4"/>
<path d="M201.307 102.087L203.309 101.141L203.388 100.069L202.568 99.4855H201.197L201.307 102.087Z" fill="#FFE4D4"/>
<path d="M206.274 101.535L208.26 100.589L207.188 98.3976L205.249 97.4517L204.287 98.8706L206.274 101.535Z" fill="#FFE4D4"/>
<path fill-rule="evenodd" clip-rule="evenodd" d="M204.918 98.8549L206.274 101.519L204.145 102.386L202.931 100.006C202.474 100.022 201.985 99.9112 201.465 99.6747L201.307 102.087L199.084 100.542L199.242 98.0035C198.722 97.4359 198.249 96.7738 197.839 96.08L196.042 96.9472L195.017 94.6926L196.83 93.8255C196.593 93.1318 196.42 92.4381 196.341 91.7444L194.023 90.152L194.181 87.456L196.499 89.0484C196.593 88.691 196.725 88.3757 196.893 88.1024L195.569 85.4852L197.65 84.5392L198.864 86.9357C199.21 86.9199 199.573 86.983 199.936 87.1091L200.093 84.5708L202.332 86.1159L202.175 88.5281C202.758 89.0799 203.294 89.7578 203.751 90.4831L205.359 89.7105L206.4 91.9493L204.855 92.6903C205.17 93.5259 205.391 94.3773 205.485 95.1971L207.377 96.5057L207.22 99.2017L205.328 97.9089C205.233 98.2663 205.097 98.5816 204.918 98.8549ZM203.42 97.0418C203.515 96.9156 203.588 96.7738 203.641 96.6161C203.651 96.6161 203.657 96.6108 203.657 96.6003C203.751 96.3323 203.83 96.017 203.861 95.6544C203.893 95.1814 203.861 94.6769 203.751 94.1566C203.688 93.8518 203.604 93.547 203.499 93.2421C203.404 92.9478 203.289 92.664 203.152 92.3908C202.963 91.9809 202.742 91.6025 202.49 91.2556C202.322 91.0034 202.138 90.7721 201.938 90.5619C201.67 90.2623 201.37 89.9943 201.055 89.7894C200.677 89.5213 200.298 89.3637 199.951 89.3006C199.941 89.2901 199.936 89.2849 199.936 89.2849C199.305 89.1745 198.753 89.3794 198.406 89.8997C198.17 90.2466 198.012 90.7196 197.981 91.2871C197.933 91.7601 197.981 92.2646 198.075 92.7849C198.117 92.9636 198.165 93.1423 198.217 93.321C198.333 93.7414 198.485 94.1566 198.674 94.5665C198.811 94.8398 198.958 95.1025 199.116 95.3548C199.242 95.5545 199.379 95.749 199.526 95.9381C199.904 96.4427 200.33 96.8526 200.771 97.1521C201.024 97.3203 201.265 97.4517 201.497 97.5463C201.623 97.5883 201.749 97.6199 201.875 97.6409C202.521 97.767 203.073 97.5778 203.42 97.0418Z" fill="#F1935C"/>
<path d="M207.377 96.5057L209.395 95.5125L209.222 98.2715L207.22 99.2175L207.377 96.5057Z" fill="#F1935C"/>
<path d="M200.976 91.9178C200.808 91.8022 200.65 91.7339 200.503 91.7128C200.503 91.7023 200.503 91.7023 200.503 91.7128C200.235 91.6498 199.999 91.7444 199.857 91.9651C199.747 92.107 199.683 92.312 199.668 92.5484C199.657 92.7481 199.673 92.9584 199.715 93.1791C199.736 93.2527 199.757 93.3315 199.778 93.4156C199.82 93.5838 199.883 93.7572 199.967 93.9359C200.02 94.0515 200.083 94.1618 200.156 94.267C200.209 94.351 200.267 94.4351 200.33 94.5192C200.488 94.7242 200.661 94.8976 200.85 95.0237C200.955 95.0973 201.06 95.1551 201.165 95.1972C201.218 95.2182 201.271 95.2339 201.323 95.2445C201.591 95.2918 201.828 95.2129 201.97 94.9764C202.012 94.9239 202.043 94.8661 202.064 94.803C202.064 94.803 202.069 94.803 202.08 94.803C202.122 94.6874 202.148 94.5507 202.159 94.3931C202.175 94.2039 202.159 93.9832 202.111 93.7624C202.09 93.6363 202.054 93.5049 202.001 93.3683C201.959 93.2527 201.912 93.1318 201.859 93.0057C201.775 92.8375 201.686 92.6798 201.591 92.5327C201.518 92.4276 201.439 92.333 201.355 92.2489C201.229 92.1123 201.102 92.0019 200.976 91.9178Z" fill="#F1935C"/>
<path d="M204.934 68.2686C205.039 68.3842 205.139 68.5103 205.233 68.6469C205.37 68.8361 205.491 69.0411 205.596 69.2618C205.67 69.4195 205.733 69.5719 205.785 69.719C205.838 69.8977 205.885 70.0711 205.927 70.2393C205.974 70.5231 206.006 70.7911 205.974 71.0591C205.964 71.2483 205.927 71.4218 205.864 71.5794C205.832 71.674 205.79 71.7529 205.738 71.8159C205.627 71.9893 205.454 72.0997 205.265 72.147L202.805 73.3295L200.551 68.8992C200.551 68.8992 203.389 67.4172 203.83 67.5591C204.019 67.6064 204.224 67.6852 204.445 67.8271C204.613 67.9532 204.776 68.1004 204.934 68.2686Z" fill="#FFE4D4"/>
<path fill-rule="evenodd" clip-rule="evenodd" d="M203.104 61.5995L203.309 58.3044L206.195 60.3067L205.99 63.4441C206.762 64.1694 207.456 65.0207 208.055 65.9825L210.136 64.9734L211.476 67.8902L209.49 68.8519C209.884 69.924 210.168 71.0276 210.31 72.0997L212.769 73.7867L212.548 77.2868L210.105 75.6156C209.963 76.0728 209.789 76.4985 209.569 76.8453L211.319 80.3139L208.56 81.4175L206.983 78.3431C206.4 78.3589 205.737 78.2012 205.075 77.9017L204.87 81.0233L201.985 79.0368L198.044 74.37L196.703 71.4376L195.411 65.5568L195.631 62.0409L198.627 64.1063C198.753 63.6491 198.926 63.2392 199.147 62.8923L197.429 59.5026L200.125 58.2571L201.701 61.363C202.159 61.363 202.616 61.4418 203.104 61.5995ZM203.104 64.4374C203.104 64.4269 203.099 64.4269 203.089 64.4374C202.269 64.2797 201.575 64.5478 201.102 65.2257C200.803 65.6672 200.613 66.2978 200.55 67.023C200.503 67.6379 200.55 68.2843 200.692 68.9623C200.734 69.1935 200.787 69.4247 200.85 69.656C201.008 70.192 201.213 70.7438 201.465 71.2641C201.633 71.6215 201.817 71.9631 202.017 72.2889C202.185 72.5622 202.363 72.8197 202.553 73.0615C203.041 73.7079 203.593 74.2439 204.177 74.6381C204.502 74.8588 204.818 75.027 205.123 75.1426C205.291 75.2057 205.454 75.2529 205.611 75.2845C206.447 75.4421 207.156 75.1741 207.629 74.4962C207.74 74.3385 207.204 73.2664 207.204 73.2664L206.999 72.8407L206.447 69.451C206.447 69.451 203.562 64.5162 203.104 64.4374Z" fill="#FFE4D4"/>
<path d="M208.891 69.1041L211.476 67.8744L210.152 64.9576L207.566 66.1874L208.891 69.1041Z" fill="#F1935C"/>
<path d="M203.625 61.5364L206.195 60.2909L203.294 58.3201L200.708 59.5499L203.625 61.5364Z" fill="#F1935C"/>
<path d="M197.539 59.4868L200.125 58.2728L201.386 60.7481L200.992 63.5229L199.321 63.4126L197.539 59.4868Z" fill="#FFE4D4"/>
<path d="M193.046 63.2707L195.915 61.8676C195.915 61.8676 197.114 64.1852 197.066 64.3271C197.019 64.4532 195.726 66.3924 195.726 66.3924L193.046 63.2707Z" fill="#FFE4D4"/>
<path d="M202.301 82.2531L204.886 81.0391L204.997 79.6359L203.94 78.8949L202.159 78.8792L202.301 82.2531Z" fill="#FFE4D4"/>
<path d="M208.733 81.5436L211.319 80.3296L209.916 77.4602L207.409 76.2462L206.147 78.0751L208.733 81.5436Z" fill="#FFE4D4"/>
<path fill-rule="evenodd" clip-rule="evenodd" d="M206.983 78.0751L208.733 81.5279L205.974 82.6473L204.398 79.5571C203.814 79.5729 203.152 79.431 202.49 79.1315L202.285 82.2531L199.4 80.2508L199.605 76.9557C198.927 76.2147 198.312 75.3791 197.792 74.4647L195.458 75.5841L194.118 72.6673L196.467 71.5322C196.168 70.6493 195.947 69.7349 195.852 68.8362L192.825 66.7708L193.046 63.2707L196.041 65.3361C196.168 64.8789 196.341 64.469 196.562 64.1221L194.843 60.7166L197.539 59.4869L199.116 62.5928C199.573 62.577 200.03 62.6559 200.519 62.8135L200.724 59.5342L203.609 61.5207L203.404 64.6582C204.177 65.3834 204.87 66.2505 205.47 67.1965L207.551 66.1875L208.891 69.12L206.904 70.0817C207.298 71.1538 207.582 72.2574 207.708 73.3295L210.184 75.0165L209.963 78.5166L207.519 76.8296C207.377 77.3026 207.204 77.7125 206.983 78.0751ZM205.044 75.726C205.149 75.5578 205.244 75.3686 205.328 75.1584C205.328 75.1584 205.328 75.1531 205.328 75.1426C205.47 74.7958 205.564 74.3701 205.596 73.9129C205.643 73.3138 205.596 72.6516 205.454 71.9736C205.38 71.5742 205.275 71.1748 205.139 70.7754C205.012 70.397 204.86 70.0292 204.681 69.6718C204.429 69.1515 204.145 68.6628 203.83 68.2055C203.609 67.8797 203.373 67.5802 203.12 67.3069C202.758 66.9127 202.364 66.5659 201.954 66.2978C201.465 65.951 200.976 65.746 200.519 65.6514C200.519 65.6514 200.514 65.6514 200.503 65.6514C199.683 65.5095 198.99 65.7776 198.517 66.4397C198.217 66.897 198.028 67.5118 197.965 68.2371C197.918 68.8519 197.965 69.5141 198.107 70.1921C198.149 70.4233 198.201 70.6545 198.265 70.8858C198.422 71.4218 198.627 71.9579 198.879 72.4939C199.048 72.8513 199.231 73.1929 199.431 73.5187C199.599 73.792 199.778 74.0495 199.967 74.2913C200.456 74.9219 201.008 75.4579 201.591 75.8679C201.917 76.0886 202.232 76.2515 202.537 76.3566C202.705 76.4197 202.868 76.467 203.026 76.4985C203.861 76.6562 204.571 76.4039 205.044 75.726Z" fill="#F1935C"/>
<path d="M210.168 75.0007L212.801 73.7236L212.549 77.3025L209.963 78.5323L210.168 75.0007Z" fill="#F1935C"/>
<path d="M201.859 69.0569C201.639 68.915 201.434 68.8204 201.244 68.7889C200.898 68.7258 200.598 68.8362 200.409 69.12C200.267 69.3091 200.188 69.5772 200.172 69.8767C200.141 70.1448 200.172 70.4128 200.22 70.7123C200.241 70.8069 200.267 70.9015 200.298 70.9961C200.362 71.2274 200.446 71.4533 200.551 71.6741C200.624 71.8317 200.703 71.9789 200.787 72.1155C200.861 72.2311 200.934 72.3362 201.008 72.4308C201.229 72.7146 201.449 72.9354 201.702 73.1088C201.838 73.1929 201.97 73.2612 202.096 73.3137C202.169 73.3453 202.238 73.3663 202.301 73.3768C202.663 73.4399 202.963 73.3295 203.152 73.0457C203.205 72.9721 203.247 72.8933 203.278 72.8092C203.278 72.8092 203.278 72.804 203.278 72.7935C203.341 72.6463 203.378 72.4729 203.389 72.2732C203.42 72.0209 203.389 71.7371 203.341 71.4533C203.299 71.2852 203.252 71.117 203.199 70.9488C203.147 70.7912 203.084 70.6335 203.01 70.4758C202.905 70.2551 202.784 70.0502 202.648 69.861C202.553 69.7243 202.453 69.5982 202.348 69.4826C202.19 69.3144 202.027 69.1725 201.859 69.0569Z" fill="#F1935C"/>
<g filter="url(#filter0_f_260_46915)">
<ellipse cx="81.9411" cy="46.1798" rx="81.9411" ry="46.1798" transform="matrix(-0.879433 0.476023 0.524366 0.851493 198.51 114.919)" fill="#F1935C"/>
</g>
<path d="M160.451 139.351C156.931 137.474 151.225 137.474 147.706 139.351L44.3537 194.461C42.5941 195.4 41.7143 196.629 41.714 197.859C41.7138 199.089 42.5937 200.319 44.3537 201.257L123.066 243.229C126.585 245.106 132.292 245.106 135.811 243.229L239.163 188.119C240.923 187.181 241.803 185.951 241.803 184.721C241.803 183.491 240.923 182.261 239.163 181.323L160.451 139.351Z" fill="#D4E4FE"/>
<path d="M160.454 131.501C156.935 129.625 151.228 129.625 147.709 131.501V139.354C151.228 137.477 156.935 137.477 160.454 139.354V131.501Z" fill="#D4E4FE"/>
<path d="M160.445 131.5L239.158 173.472V181.325L160.445 139.353V131.5Z" fill="#D4E4FE"/>
<path d="M44.357 186.611L147.709 131.5V139.353L44.357 194.463V186.611Z" fill="#D4E4FE"/>
<path d="M239.163 173.477C240.923 174.415 241.803 175.645 241.803 176.875L241.803 184.727C241.803 183.497 240.923 182.268 239.163 181.33V173.477Z" fill="#D4E4FE"/>
<path d="M241.803 176.872C241.803 178.102 240.923 179.332 239.163 180.27V188.122C240.923 187.184 241.803 185.955 241.803 184.725V176.872Z" fill="#A1C1FF"/>
<path d="M41.7178 190.012C41.718 188.782 42.5979 187.553 44.3574 186.614V194.467C42.5979 195.405 41.718 196.635 41.7178 197.865V190.012Z" fill="#D4E4FE"/>
<path d="M44.3574 193.406C42.5979 192.467 41.718 191.238 41.7178 190.008V197.86C41.7176 199.09 42.5975 200.32 44.3574 201.258V193.406Z" fill="#A1C1FF"/>
<path d="M239.158 180.272L135.806 235.383V243.235L239.158 188.125V180.272Z" fill="#A1C1FF"/>
<path d="M123.071 235.382L44.3585 193.41V201.263L123.071 243.234V235.382Z" fill="#A1C1FF"/>
<path d="M135.806 235.382C132.286 237.258 126.58 237.258 123.06 235.382V243.234C126.58 245.111 132.286 245.111 135.806 243.234V235.382Z" fill="#A1C1FF"/>
<rect width="131.571" height="103.647" rx="7.86205" transform="matrix(-0.882391 0.470517 0.882391 0.470517 154.097 127.892)" fill="#DEEFFF"/>
<path d="M160.466 122.081C156.946 120.204 151.24 120.204 147.721 122.081L44.3688 177.191C42.6093 178.13 41.7294 179.359 41.7292 180.589C41.729 181.819 42.6088 183.049 44.3688 183.987L123.081 225.959C126.601 227.836 132.307 227.836 135.826 225.959L239.178 170.849C240.938 169.911 241.818 168.681 241.818 167.451C241.818 166.221 240.938 164.991 239.178 164.053L160.466 122.081Z" fill="#D4E4FE"/>
<path d="M160.469 114.231C156.95 112.355 151.243 112.355 147.724 114.231V122.084C151.243 120.207 156.95 120.207 160.469 122.084V114.231Z" fill="#D4E4FE"/>
<path d="M160.455 114.23L239.167 156.202V164.055L160.455 122.083V114.23Z" fill="#D4E4FE"/>
<path d="M44.3624 169.34L147.714 114.23V122.083L44.3624 177.193V169.34Z" fill="#D4E4FE"/>
<path d="M239.178 156.204C240.938 157.143 241.818 158.373 241.818 159.603L241.818 167.455C241.818 166.225 240.938 164.995 239.178 164.057V156.204Z" fill="#D4E4FE"/>
<path d="M241.818 159.602C241.818 160.832 240.938 162.061 239.178 163V170.852C240.938 169.914 241.818 168.684 241.818 167.455V159.602Z" fill="#A1C1FF"/>
<path d="M41.7329 172.739C41.7332 171.51 42.613 170.28 44.3726 169.342V177.194C42.613 178.133 41.7332 179.362 41.7329 180.592V172.739Z" fill="#D4E4FE"/>
<path d="M44.3726 176.136C42.613 175.197 41.7332 173.968 41.7329 172.738V180.59C41.7327 181.82 42.6126 183.05 44.3726 183.988V176.136Z" fill="#A1C1FF"/>
<path d="M239.167 163.002L135.816 218.113V225.965L239.167 170.855V163.002Z" fill="#A1C1FF"/>
<path d="M123.086 218.107L44.3737 176.135V183.987L123.086 225.959V218.107Z" fill="#A1C1FF"/>
<path d="M135.821 218.112C132.301 219.988 126.595 219.988 123.076 218.112V225.964C126.595 227.841 132.301 227.841 135.821 225.964V218.112Z" fill="#A1C1FF"/>
<rect width="131.571" height="103.647" rx="7.86205" transform="matrix(-0.882391 0.470517 0.882391 0.470517 154.097 110.835)" fill="#DEEFFF"/>
<path d="M135.368 126.582V151.437L151.993 141.828V116.759L135.368 126.582Z" fill="#28565D"/>
<path d="M118.934 116.759V141.614L135.368 151.437V126.368L118.934 116.759Z" fill="#509AA6"/>
<path d="M118.934 116.759L135.368 107.151L151.994 116.759L135.583 126.582L118.934 116.759Z" fill="#78DBEB"/>
<g style="mix-blend-mode:multiply">
<path d="M150.209 164.97L169.974 153.411L190 164.97L170.236 176.767L150.209 164.97Z" fill="#D9E4ED"/>
</g>
<path d="M169.998 111.408V173.556L186.646 163.971V101.585L169.998 111.408Z" fill="#28565D"/>
<path d="M153.587 101.585V163.757L169.998 173.556V111.194L153.587 101.585Z" fill="#509AA6"/>
<path d="M153.587 101.585L169.998 92L186.647 101.585L170.212 111.408L153.587 101.585Z" fill="#78DBEB"/>
<g style="mix-blend-mode:multiply">
<path d="M101 164.233L121.026 152.531L141.314 164.233L121.288 176.196L101 164.233Z" fill="#D9E4ED"/>
</g>
<path d="M121.025 158.834V172.843L137.674 163.234V149.035L121.025 158.834Z" fill="#28565D"/>
<path d="M104.591 149.035V163.02L121.026 172.843V158.62L104.591 149.035Z" fill="#509AA6"/>
<path d="M104.591 149.035L121.026 139.426L137.675 149.035L121.24 158.834L104.591 149.035Z" fill="#78DBEB"/>
<g style="mix-blend-mode:multiply">
<path d="M125.521 178.598L145.547 166.896L165.835 178.598L145.809 190.562L125.521 178.598Z" fill="#D9E4ED"/>
</g>
<path d="M145.571 148.321V186.614L162.22 177.005V138.498L145.571 148.321Z" fill="#28565D"/>
<path d="M129.16 138.498V176.791L145.571 186.614V148.107L129.16 138.498Z" fill="#509AA6"/>
<path d="M129.16 138.498L145.571 128.913L162.22 138.498L145.785 148.321L129.16 138.498Z" fill="#78DBEB"/>
<g style="mix-blend-mode:multiply">
<path d="M130.124 215.204C130.124 215.204 114.682 212.786 117.539 209.433C120.369 206.081 133.696 200.393 133.696 200.393L130.124 215.204Z" fill="#D9E4ED"/>
</g>
<path d="M124.161 211.852C124.463 207.62 127.403 202.757 131.003 200.668C132.679 199.707 134.218 199.514 135.427 199.954L135.537 200.009C135.757 200.1 135.967 200.219 136.169 200.366C136.169 200.366 136.169 200.375 136.169 200.393L141.966 203.663L134.74 209.461L130.261 215.451L124.161 211.852Z" fill="#F1935C"/>
<path d="M137.131 204.158C138.642 203.279 140.071 203.031 141.197 203.334C142.791 203.773 143.863 205.257 144 207.565L142.901 208.225L141.225 209.159L133.036 213.857L131.937 214.489L130.261 215.451C130.536 211.22 133.504 206.274 137.131 204.158Z" fill="#FEE0CE"/>
<path d="M137.597 202.702C135.482 203.416 133.613 205.065 132.157 207.07C131.809 207.547 131.488 208.032 131.195 208.527C130.316 210.038 129.684 211.659 129.327 213.17L125.782 211.055C126.03 209.461 126.689 207.757 127.678 206.136C127.696 206.1 127.724 206.054 127.761 205.999C128.072 205.486 128.411 205.01 128.777 204.57C129.684 203.416 130.756 202.454 131.827 201.85C133.229 201.053 134.383 200.833 134.383 200.833L137.597 202.702Z" fill="#31393A"/>
<path d="M132.157 207.07C131.809 207.547 131.489 208.032 131.196 208.527L127.761 205.999L124.738 203.746L116.907 197.948L116.468 197.618L117.484 196.244L120.397 198.388L125.755 202.344L128.778 204.57L132.157 207.07Z" fill="#85CEE8"/>
<path d="M118.061 193.607L122.705 197.783L125.837 200.586C126.882 201.52 124.326 205.01 123.117 204.295L114.16 198.882C114.105 198.846 114.041 198.809 113.967 198.772C113.308 198.278 112.951 197.453 113.006 196.629C113.024 196.464 113.051 196.309 113.088 196.162C113.198 195.612 113.418 195.09 113.72 194.651C114.16 194.019 114.792 193.497 115.506 193.194L115.561 193.167C116.413 192.837 117.374 193.002 118.061 193.607Z" fill="#A1C1FF"/>
<path d="M122.705 197.783L125.837 200.586C126.882 201.52 124.326 205.01 123.117 204.295L114.16 198.882C114.105 198.846 114.041 198.809 113.967 198.772C113.308 198.278 112.951 197.453 113.006 196.629C113.024 196.464 113.051 196.309 113.088 196.162C117.759 199.047 120.864 198.662 122.705 197.783Z" fill="#598DED"/>
<path d="M86.0707 160.531L102.094 132.992L94.0697 128.262L78.0469 155.801L86.0707 160.531Z" fill="#A1C1FF"/>
<path d="M70.0229 142.031L78.0468 155.801L85.8477 160.333L78.0468 146.761L70.0229 142.031Z" fill="#EAF4FE"/>
<path d="M62.0238 174.3L78.0467 146.761L70.0229 142.031L54 169.57L62.0238 174.3Z" fill="#A1C1FF"/>
<path d="M90.8008 126.405L105.387 134.825L104.149 119L90.8008 126.405Z" fill="#A1C1FF"/>
<g filter="url(#filter1_i_260_46915)">
<path d="M239.168 45.3618C240.927 46.3003 241.807 47.5303 241.807 48.7603L241.807 175.187C241.807 173.958 240.927 172.728 239.168 171.79V45.3618Z" fill="#FFE4D4" fill-opacity="0.1"/>
</g>
<path d="M241.557 48.7603V48.7603C241.557 47.7429 240.882 46.6715 239.418 45.7906V171.641C240.397 172.185 241.118 172.831 241.557 173.533V48.7603Z" stroke="white" stroke-width="0.5"/>
<g filter="url(#filter2_i_260_46915)">
<path d="M241.807 48.7596C241.807 49.9893 240.927 51.219 239.168 52.1572V178.585C240.927 177.647 241.807 176.417 241.807 175.188V48.7596Z" fill="#FFE4D4" fill-opacity="0.1"/>
</g>
<path d="M239.418 178.156C240.882 177.276 241.557 176.205 241.557 175.188V50.4143C241.118 51.1158 240.397 51.7621 239.418 52.3058V178.156Z" stroke="#FFE4D4" stroke-width="0.5"/>
<g filter="url(#filter3_i_260_46915)">
<path d="M44.3618 65.2956C42.6023 64.3574 41.7224 63.1277 41.7222 61.898V188.325C41.722 189.555 42.6018 190.785 44.3618 191.724V65.2956Z" fill="#FFE4D4" fill-opacity="0.1"/>
</g>
<path d="M44.1118 65.4442C43.1325 64.9005 42.411 64.2542 41.9722 63.5527V188.325C41.972 189.343 42.6473 190.414 44.1118 191.295V65.4442Z" stroke="white" stroke-width="0.5"/>
<g filter="url(#filter4_i_260_46915)">
<path d="M239.157 52.1573L135.805 107.268V233.696L239.157 178.585V52.1573Z" fill="#FFE4D4" fill-opacity="0.1"/>
</g>
<path d="M238.907 178.435V52.574L136.055 107.418V233.279L238.907 178.435Z" stroke="#FFE4D4" stroke-width="0.5"/>
<g filter="url(#filter5_i_260_46915)">
<path d="M123.076 107.269L44.3634 65.2974V191.725L123.076 233.697V107.269Z" fill="#FFE4D4" fill-opacity="0.1"/>
</g>
<path d="M122.826 233.281V107.419L44.6134 65.7141V191.575L122.826 233.281Z" stroke="#FFE4D4" stroke-width="0.5"/>
<g filter="url(#filter6_i_260_46915)">
<path d="M135.81 107.269C132.291 109.146 126.584 109.146 123.065 107.269V233.697C126.584 235.574 132.291 235.574 135.81 233.697V107.269Z" fill="#FFE4D4" fill-opacity="0.1"/>
</g>
<path d="M135.56 233.546V107.675C133.81 108.513 131.618 108.927 129.437 108.927C127.257 108.927 125.065 108.513 123.315 107.675V233.546C125.013 234.414 127.218 234.855 129.437 234.855C131.656 234.855 133.862 234.414 135.56 233.546Z" stroke="#FFE4D4" stroke-width="0.5"/>
<g filter="url(#filter7_i_260_46915)">
<rect width="131.571" height="103.647" rx="7.86205" transform="matrix(-0.882391 0.470517 0.882391 0.470517 154.097 0)" fill="#FFE4D4" fill-opacity="0.1"/>
</g>
<rect x="1.49012e-08" y="0.235259" width="131.071" height="103.147" rx="7.61205" transform="matrix(-0.882391 0.470517 0.882391 0.470517 153.89 0.124565)" stroke="#FFE4D4" stroke-width="0.5"/>
<defs>
<filter id="filter0_f_260_46915" x="0.130302" y="63.3691" width="301.067" height="259.755" filterUnits="userSpaceOnUse" color-interpolation-filters="sRGB">
<feFlood flood-opacity="0" result="BackgroundImageFix"/>
<feBlend mode="normal" in="SourceGraphic" in2="BackgroundImageFix" result="shape"/>
<feGaussianBlur stdDeviation="37.2456" result="effect1_foregroundBlur_260_46915"/>
</filter>
<filter id="filter1_i_260_46915" x="239.167" y="45.3618" width="2.63965" height="129.826" filterUnits="userSpaceOnUse" color-interpolation-filters="sRGB">
<feFlood flood-opacity="0" result="BackgroundImageFix"/>
<feBlend mode="normal" in="SourceGraphic" in2="BackgroundImageFix" result="shape"/>
<feColorMatrix in="SourceAlpha" type="matrix" values="0 0 0 0 0 0 0 0 0 0 0 0 0 0 0 0 0 0 127 0" result="hardAlpha"/>
<feOffset/>
<feGaussianBlur stdDeviation="9.0843"/>
<feComposite in2="hardAlpha" operator="arithmetic" k2="-1" k3="1"/>
<feColorMatrix type="matrix" values="0 0 0 0 1 0 0 0 0 1 0 0 0 0 1 0 0 0 1 0"/>
<feBlend mode="normal" in2="shape" result="effect1_innerShadow_260_46915"/>
</filter>
<filter id="filter2_i_260_46915" x="239.167" y="48.7596" width="2.63965" height="129.826" filterUnits="userSpaceOnUse" color-interpolation-filters="sRGB">
<feFlood flood-opacity="0" result="BackgroundImageFix"/>
<feBlend mode="normal" in="SourceGraphic" in2="BackgroundImageFix" result="shape"/>
<feColorMatrix in="SourceAlpha" type="matrix" values="0 0 0 0 0 0 0 0 0 0 0 0 0 0 0 0 0 0 127 0" result="hardAlpha"/>
<feOffset/>
<feGaussianBlur stdDeviation="9.0843"/>
<feComposite in2="hardAlpha" operator="arithmetic" k2="-1" k3="1"/>
<feColorMatrix type="matrix" values="0 0 0 0 1 0 0 0 0 1 0 0 0 0 1 0 0 0 1 0"/>
<feBlend mode="normal" in2="shape" result="effect1_innerShadow_260_46915"/>
</filter>
<filter id="filter3_i_260_46915" x="41.7222" y="61.898" width="2.63965" height="129.826" filterUnits="userSpaceOnUse" color-interpolation-filters="sRGB">
<feFlood flood-opacity="0" result="BackgroundImageFix"/>
<feBlend mode="normal" in="SourceGraphic" in2="BackgroundImageFix" result="shape"/>
<feColorMatrix in="SourceAlpha" type="matrix" values="0 0 0 0 0 0 0 0 0 0 0 0 0 0 0 0 0 0 127 0" result="hardAlpha"/>
<feOffset/>
<feGaussianBlur stdDeviation="9.0843"/>
<feComposite in2="hardAlpha" operator="arithmetic" k2="-1" k3="1"/>
<feColorMatrix type="matrix" values="0 0 0 0 1 0 0 0 0 1 0 0 0 0 1 0 0 0 1 0"/>
<feBlend mode="normal" in2="shape" result="effect1_innerShadow_260_46915"/>
</filter>
<filter id="filter4_i_260_46915" x="135.805" y="52.1573" width="103.352" height="181.538" filterUnits="userSpaceOnUse" color-interpolation-filters="sRGB">
<feFlood flood-opacity="0" result="BackgroundImageFix"/>
<feBlend mode="normal" in="SourceGraphic" in2="BackgroundImageFix" result="shape"/>
<feColorMatrix in="SourceAlpha" type="matrix" values="0 0 0 0 0 0 0 0 0 0 0 0 0 0 0 0 0 0 127 0" result="hardAlpha"/>
<feOffset/>
<feGaussianBlur stdDeviation="9.0843"/>
<feComposite in2="hardAlpha" operator="arithmetic" k2="-1" k3="1"/>
<feColorMatrix type="matrix" values="0 0 0 0 1 0 0 0 0 1 0 0 0 0 1 0 0 0 1 0"/>
<feBlend mode="normal" in2="shape" result="effect1_innerShadow_260_46915"/>
</filter>
<filter id="filter5_i_260_46915" x="44.3633" y="65.2974" width="78.7124" height="168.4" filterUnits="userSpaceOnUse" color-interpolation-filters="sRGB">
<feFlood flood-opacity="0" result="BackgroundImageFix"/>
<feBlend mode="normal" in="SourceGraphic" in2="BackgroundImageFix" result="shape"/>
<feColorMatrix in="SourceAlpha" type="matrix" values="0 0 0 0 0 0 0 0 0 0 0 0 0 0 0 0 0 0 127 0" result="hardAlpha"/>
<feOffset/>
<feGaussianBlur stdDeviation="9.0843"/>
<feComposite in2="hardAlpha" operator="arithmetic" k2="-1" k3="1"/>
<feColorMatrix type="matrix" values="0 0 0 0 1 0 0 0 0 1 0 0 0 0 1 0 0 0 1 0"/>
<feBlend mode="normal" in2="shape" result="effect1_innerShadow_260_46915"/>
</filter>
<filter id="filter6_i_260_46915" x="123.065" y="107.269" width="12.7451" height="127.836" filterUnits="userSpaceOnUse" color-interpolation-filters="sRGB">
<feFlood flood-opacity="0" result="BackgroundImageFix"/>
<feBlend mode="normal" in="SourceGraphic" in2="BackgroundImageFix" result="shape"/>
<feColorMatrix in="SourceAlpha" type="matrix" values="0 0 0 0 0 0 0 0 0 0 0 0 0 0 0 0 0 0 127 0" result="hardAlpha"/>
<feOffset/>
<feGaussianBlur stdDeviation="9.0843"/>
<feComposite in2="hardAlpha" operator="arithmetic" k2="-1" k3="1"/>
<feColorMatrix type="matrix" values="0 0 0 0 1 0 0 0 0 1 0 0 0 0 1 0 0 0 1 0"/>
<feBlend mode="normal" in2="shape" result="effect1_innerShadow_260_46915"/>
</filter>
<filter id="filter7_i_260_46915" x="42.064" y="2.16693" width="199.427" height="106.34" filterUnits="userSpaceOnUse" color-interpolation-filters="sRGB">
<feFlood flood-opacity="0" result="BackgroundImageFix"/>
<feBlend mode="normal" in="SourceGraphic" in2="BackgroundImageFix" result="shape"/>
<feColorMatrix in="SourceAlpha" type="matrix" values="0 0 0 0 0 0 0 0 0 0 0 0 0 0 0 0 0 0 127 0" result="hardAlpha"/>
<feOffset/>
<feGaussianBlur stdDeviation="9.0843"/>
<feComposite in2="hardAlpha" operator="arithmetic" k2="-1" k3="1"/>
<feColorMatrix type="matrix" values="0 0 0 0 1 0 0 0 0 1 0 0 0 0 1 0 0 0 1 0"/>
<feBlend mode="normal" in2="shape" result="effect1_innerShadow_260_46915"/>
</filter>
</defs>
</svg>
