<svg width="150" height="180" viewBox="0 0 150 180" fill="none" xmlns="http://www.w3.org/2000/svg">
<path fill-rule="evenodd" clip-rule="evenodd" d="M72.0097 93.7279C73.6611 92.7704 76.3388 92.7704 77.9902 93.7279L144.023 132.023L149.97 128.574V136.211C150.119 136.932 149.717 137.685 148.761 138.239L77.9902 179.282C76.3388 180.239 73.6611 180.239 72.0097 179.282L1.23866 138.239C0.138611 137.601 -0.228724 136.699 0.136647 135.885V128.451L6.13637 131.93L72.0097 93.7279Z" fill="#A1C1FF"/>
<path d="M72.0099 86.1936C73.6612 85.2356 76.339 85.2356 77.9903 86.1936L148.761 127.236C150.413 128.194 150.413 129.747 148.761 130.705L77.9903 171.747C76.339 172.705 73.6612 172.705 72.0099 171.747L1.23866 130.705C-0.412883 129.747 -0.412888 128.194 1.23865 127.236L72.0099 86.1936Z" fill="#DFECFE"/>
<path d="M116.117 124.472C121.76 127.89 121.76 133.24 116.262 136.658L85.5887 154.937C79.946 158.355 70.8309 158.355 65.0435 154.937L34.2257 136.658C28.583 133.24 28.583 127.89 34.2257 124.472L64.8988 106.194C70.5415 102.776 79.6566 102.776 85.2993 106.194L116.117 124.472Z" fill="#BCD0F1"/>
<path d="M120.465 112.436H30.0371V130.566C30.0371 132.795 31.484 135.024 34.3776 136.658L65.1954 154.937C70.8381 158.355 80.098 158.355 85.7407 154.937L116.414 136.658C119.163 135.024 120.61 132.795 120.61 130.566V112.436H120.465Z" fill="url(#paint0_linear_461_20299)"/>
<path d="M116.117 106.342C121.76 109.76 121.76 115.11 116.262 118.528L85.5887 136.806C79.946 140.224 70.8309 140.224 65.0435 136.806L34.2257 118.528C28.583 115.11 28.583 109.76 34.2257 106.342L64.8988 88.0635C70.5415 84.6455 79.6566 84.6455 85.2993 88.0635L116.117 106.342Z" fill="#FFE4D4"/>
<path d="M75.0267 85.5386V86.2816C78.7885 86.2816 82.261 87.1733 84.8653 88.6593L115.683 106.938C118.143 108.424 119.59 110.356 119.59 112.436C119.59 114.517 118.287 116.449 115.683 117.786L85.1547 136.213C82.5503 137.848 79.0779 138.591 75.3161 138.591C71.5543 138.591 68.0819 137.7 65.4776 136.213L34.6597 117.935C32.2001 116.449 30.7533 114.517 30.7533 112.436C30.7533 110.356 32.0554 108.424 34.6597 106.938L65.3329 88.6593C67.9372 87.0247 71.4096 86.2816 75.1714 86.2816V85.5386M75.0267 85.5386C71.2649 85.5386 67.6478 86.4302 64.7541 88.0649L34.2257 106.344C28.583 109.761 28.583 115.111 34.2257 118.529L65.0435 136.808C67.9372 138.443 71.5543 139.334 75.3161 139.334C79.0779 139.334 82.695 138.443 85.5887 136.808L116.262 118.529C121.905 115.111 121.905 109.761 116.117 106.344L85.2993 88.0649C82.5503 86.4302 78.7885 85.5386 75.0267 85.5386Z" fill="url(#paint1_linear_461_20299)"/>
<g opacity="0.5">
<path d="M75.1766 92.3748C78.0703 92.3748 80.6747 92.9693 82.7003 94.3067L105.994 108.127C108.02 109.316 109.033 110.802 109.033 112.437C109.033 114.071 108.02 115.557 105.994 116.746L82.845 130.567C80.8194 131.756 78.215 132.499 75.3213 132.499C72.4276 132.499 69.8234 131.904 67.7978 130.567L44.5035 116.746C42.478 115.557 41.4652 114.071 41.4652 112.437C41.4652 110.802 42.478 109.316 44.5035 108.127L67.6531 94.3067C69.6787 93.1179 72.283 92.3748 75.1766 92.3748ZM75.1766 92.0776C72.4276 92.0776 69.534 92.6721 67.5084 94.0095L44.3588 107.83C40.0183 110.356 40.163 114.517 44.3588 117.044L67.6531 130.864C69.8233 132.201 72.5723 132.796 75.466 132.796C78.215 132.796 81.1087 132.201 83.279 130.864L106.429 117.044C110.624 114.517 110.624 110.356 106.429 107.83L83.1343 94.0095C80.6747 92.6721 77.9257 92.0776 75.1766 92.0776Z" fill="url(#paint2_linear_461_20299)"/>
</g>
<path d="M88.6287 140.67C87.9053 141.116 87.4712 142.007 87.4712 142.899V147.06C87.4712 147.803 88.05 148.249 88.7734 147.803L112.068 133.982C112.791 133.537 113.225 132.645 113.225 131.753V127.592C113.225 126.849 112.646 126.403 111.923 126.849L88.6287 140.67Z" fill="#509AA6"/>
<path d="M87.6105 146.911L110.905 133.09C111.628 132.645 112.062 131.753 112.062 130.861V126.7C112.641 126.403 113.22 126.7 113.22 127.443V131.604C113.22 132.347 112.641 133.388 112.062 133.833L88.768 147.654C88.0445 148.1 87.4658 147.802 87.6105 146.911C87.4658 146.911 87.4658 146.911 87.6105 146.911Z" fill="#F1935C"/>
<path d="M39.4335 134.281L40.4463 133.686C40.5909 133.538 40.7357 133.241 40.7357 132.943C40.7357 132.2 40.1569 131.309 39.5782 130.863C39.2888 130.714 38.9994 130.714 38.7101 130.714L37.6973 131.309L39.4335 134.281Z" fill="url(#paint3_linear_461_20299)"/>
<path d="M39.3061 134.267C39.7219 134.022 39.7046 133.188 39.2673 132.405C38.83 131.622 38.1384 131.186 37.7225 131.431C37.3066 131.676 37.324 132.509 37.7613 133.292C38.1986 134.076 38.8902 134.512 39.3061 134.267Z" fill="#D9641F"/>
<path d="M39.0222 133.75C39.2994 133.587 39.2986 133.05 39.0203 132.552C38.742 132.054 38.2917 131.782 38.0144 131.945C37.7372 132.109 37.738 132.645 38.0163 133.144C38.2946 133.642 38.7449 133.913 39.0222 133.75Z" fill="#509AA6"/>
<path d="M44.2074 137.104L45.2202 136.509C45.3649 136.361 45.5095 136.063 45.5095 135.766C45.5095 135.023 44.9308 134.132 44.3521 133.686C44.0627 133.537 43.7733 133.537 43.484 133.537L42.4712 134.132L44.2074 137.104Z" fill="url(#paint4_linear_461_20299)"/>
<path d="M44.086 137.072C44.5019 136.827 44.4846 135.994 44.0473 135.21C43.61 134.427 42.9183 133.991 42.5025 134.236C42.0866 134.481 42.104 135.315 42.5413 136.098C42.9786 136.881 43.6702 137.317 44.086 137.072Z" fill="#D9641F"/>
<path d="M43.8022 136.554C44.0795 136.391 44.0786 135.854 43.8004 135.356C43.5221 134.857 43.0717 134.586 42.7945 134.749C42.5172 134.913 42.5181 135.449 42.7964 135.947C43.0746 136.446 43.525 136.717 43.8022 136.554Z" fill="#EBC3AA"/>
<path d="M119.065 90.9951H30.2898V108.699C30.2898 110.876 31.7125 113.052 34.5578 114.648L64.7185 132.497C70.2669 135.835 79.372 135.835 84.9204 132.497L115.081 114.648C117.784 113.052 119.207 110.876 119.207 108.699V90.9951H119.065Z" fill="url(#paint5_linear_461_20299)"/>
<path d="M102.854 86.9315C106.695 89.2533 106.837 93.0262 102.854 95.2029L81.7983 107.683C77.9571 110.004 71.5551 110.004 67.7139 107.683L46.516 95.2029C42.6748 92.8811 42.5326 89.2533 46.516 86.9315L67.5716 74.4518C71.4128 72.13 77.8148 72.13 81.656 74.4518L102.854 86.9315Z" fill="url(#paint6_linear_461_20299)"/>
<path d="M122.343 84.0297C128.887 87.9478 129.029 94.1876 122.485 98.1057L86.7759 119.292C80.2317 123.21 69.5616 123.21 62.8751 119.292L27.0237 98.1057C20.4794 94.1876 20.3372 87.9478 27.0237 84.0297L62.7328 62.8433C69.2771 58.9253 79.9471 58.9253 86.6337 62.8433L122.343 84.0297Z" stroke="#28565D" stroke-width="0.5" stroke-miterlimit="10"/>
<path d="M102.854 89.8333C106.695 92.1551 106.837 95.9281 102.854 98.1048L81.7983 110.584C77.9571 112.906 71.5551 112.906 67.7139 110.584L46.516 98.1048C42.6748 95.783 42.5326 92.1551 46.516 89.8333L67.5716 77.3537C71.4128 75.0319 77.8148 75.0319 81.656 77.3537L102.854 89.8333Z" fill="#9DF0FC"/>
<path d="M114.944 85.1899L84.6407 67.3411C79.0922 64.0035 69.9871 64.0035 64.581 67.3411L34.4203 85.1899C28.8719 88.5275 28.8719 93.7516 34.4203 97.0892L64.7233 114.793C70.2717 118.131 79.3768 118.131 84.9252 114.793L115.086 96.9441C120.492 93.7516 120.492 88.3824 114.944 85.1899ZM102.851 95.2027L81.7953 107.682C77.9541 110.004 71.5521 110.004 67.7109 107.682L46.5131 95.2027C42.6718 92.8809 42.5296 89.2531 46.5131 86.9313L67.5686 74.4516C71.4098 72.1298 77.8118 72.1298 81.6531 74.4516L102.851 86.9313C106.692 89.2531 106.692 92.8809 102.851 95.2027Z" fill="#A6C4FE"/>
<path d="M74.5401 64.8735V65.5991C78.2391 65.5991 81.6535 66.4698 84.2143 67.9209L114.517 85.7698C116.936 87.2209 118.358 89.1074 118.358 91.1389C118.358 93.1705 117.078 95.057 114.517 96.363L84.3566 114.212C81.7957 115.808 78.3813 116.534 74.6824 116.534C70.9834 116.534 67.569 115.663 65.0082 114.212L34.8476 96.363C32.429 94.9118 31.0064 93.0254 31.0064 90.9938C31.0064 88.9622 32.2868 87.0758 34.8476 85.6246L65.0082 67.7758C67.569 66.1795 70.9834 65.454 74.6824 65.454V64.8735M74.5401 64.8735C70.8412 64.8735 67.2845 65.7442 64.4391 67.3404L34.2785 85.1893C28.7301 88.5269 28.7301 93.7509 34.2785 97.0885L64.7237 114.792C67.569 116.389 71.1257 117.259 74.8247 117.259C78.5236 117.259 82.0803 116.389 84.9256 114.792L115.086 96.9434C120.635 93.6058 120.635 88.3818 114.944 85.0442L84.6411 67.3404C81.7958 65.5991 78.2391 64.8735 74.5401 64.8735Z" fill="url(#paint7_linear_461_20299)"/>
<path fill-rule="evenodd" clip-rule="evenodd" d="M74.4963 2.19639C73.6078 1.58665 72.6921 0.98055 71.6718 0.617614C70.0797 0.143426 68.3716 -0.100284 66.7106 0.038927C65.4102 0.195876 64.2409 0.586305 63.0769 1.18046L62.8726 1.2869C61.9843 1.74769 61.1842 2.3128 60.3866 2.91333C60.2626 3.00737 60.1386 3.10142 60.0145 3.19536C59.9446 3.24731 59.8741 3.29873 59.8035 3.35015C59.5484 3.53612 59.2922 3.72294 59.0618 3.93754V4.14959H58.8501C58.4509 4.45897 58.0888 4.79443 57.7334 5.15269L57.5732 5.31587L57.2519 5.64062C57.1495 5.74442 57.0472 5.84833 56.9447 5.95202C56.0486 6.84242 55.1966 7.77099 54.4058 8.75671L54.1925 9.02676C54.0046 9.26319 53.8181 9.50037 53.6342 9.73999L53.4515 9.98099C52.4028 11.3524 51.4739 12.8252 50.6856 14.3615C50.5838 14.5623 50.4818 14.7629 50.3784 14.9629C50.0053 15.6826 49.6475 16.4 49.3562 17.1576C49.275 17.3808 49.1935 17.6039 49.1114 17.8269C48.43 19.4044 48.0553 21.113 47.8015 22.8101C47.6124 24.6077 47.5509 26.6452 47.9955 28.4077L48.0594 28.6415C48.1063 28.815 48.1542 28.9883 48.203 29.1612C48.5596 30.3483 48.969 31.6442 49.7366 32.6331C51.3308 34.4265 53.2021 35.6502 55.2961 36.7904L55.373 36.8322C55.6909 37.0052 56.0089 37.1781 56.3225 37.3593C57.4382 38.0156 58.5767 38.5532 59.7759 39.0415L60.0145 39.138L60.3551 39.2771C61.9934 39.9097 63.7426 40.2297 65.4947 40.2221C65.7098 40.2201 65.9248 40.2181 66.1399 40.2178C67.1261 40.218 68.0538 40.2036 69.0053 39.9267L69.2239 39.8602C69.9234 39.6512 70.6073 39.4112 71.2886 39.149C71.7958 38.9531 72.3054 38.7744 72.823 38.6079V38.8199L72.9548 38.9594C73.0458 39.044 73.0948 39.0895 73.1405 39.1381C73.194 39.1946 73.243 39.255 73.3493 39.3861L73.5705 39.6614C73.6046 39.7035 73.6391 39.7454 73.6736 39.7872C73.8857 40.0443 74.0981 40.3015 74.1991 40.6223L74.1039 40.8166C73.9192 41.0647 73.7892 41.2901 73.6698 41.5766C73.6097 42.1831 73.6 42.8005 73.7144 43.4018C73.8585 43.8475 74.0546 44.2649 74.3545 44.6269C74.924 45.2443 75.3774 45.9145 75.8315 46.6183L75.9986 46.8778C76.7905 48.1043 77.5792 49.3322 78.334 50.582L78.3456 50.6013C78.5726 50.9777 78.7986 51.3524 79.0477 51.7148C79.4047 52.2084 79.7306 52.7112 80.0424 53.2345L80.0451 53.239C80.4571 53.9343 80.8686 54.6285 81.3077 55.307L81.4501 55.5255C81.6439 55.8239 81.838 56.1221 82.0323 56.4201C82.1296 56.5688 82.2289 56.7171 82.3284 56.8657C82.7469 57.4908 83.1692 58.1217 83.463 58.8111C83.5741 59.1196 83.6839 59.4142 83.8319 59.7069C84.0604 59.9809 84.2988 60.2005 84.5749 60.4263C85.9233 61.4299 87.325 62.3225 88.9584 62.7787C89.7236 62.9741 90.4137 63.0546 91.202 62.9605C91.6873 62.8198 92.1128 62.6198 92.5417 62.3559C93.2718 61.8482 93.9523 61.3648 94.4819 60.64C94.9271 59.9546 95.1965 59.2323 95.3701 58.4346C95.4275 57.9822 95.4116 57.5766 95.32 57.1304C95.1693 56.6069 94.9244 56.1808 94.6137 55.7368C93.5387 54.2541 92.5222 52.8006 91.7511 51.1321C91.7389 51.1056 91.7268 51.0792 91.7146 51.0528C91.4649 50.5108 91.2218 49.9831 90.8712 49.4953C90.6065 49.1454 90.3637 48.7906 90.1313 48.4187L89.9979 48.2032C89.6086 47.5757 89.224 46.9454 88.8401 46.3145C88.5994 45.917 88.3579 45.5202 88.1094 45.1275C87.6524 44.4106 87.1987 43.6919 86.754 42.9672L86.637 42.7759C86.1416 41.9668 85.6541 41.1653 85.2939 40.2843C85.0075 39.5761 84.6931 38.9955 84.1965 38.4156C84.0264 38.2461 83.9081 38.128 83.7778 38.0249C83.4792 37.7884 83.1184 37.6306 81.9304 37.1111L81.7148 37.0175C81.4031 36.8806 81.0914 36.7466 80.7761 36.6186L80.4445 36.4873C80.2161 36.3954 79.9876 36.3039 79.7585 36.214L79.5248 36.1228C79.2668 36.0193 79.0181 35.9306 78.7508 35.8512L78.645 36.0632L78.7704 36.2594L78.9621 36.4943L79.1704 36.7533C79.3068 36.9203 79.4421 37.0883 79.5762 37.2572L79.7602 37.4909C79.8157 37.5613 79.8715 37.6317 79.9272 37.7021C80.3957 38.2938 80.8663 38.8881 81.2847 39.5156C81.4227 39.7648 81.4978 39.9459 81.5344 40.228C81.5174 40.5841 81.4288 40.867 81.2884 41.1935C81.0356 41.6829 80.7496 42.0601 80.3387 42.4248V42.2127L80.1269 41.9477C79.5221 41.2427 78.9431 40.5198 78.4208 39.7509C78.313 39.5913 78.2046 39.4322 78.0933 39.2751C78.0013 39.1454 77.9102 39.015 77.8202 38.8839L77.6856 38.6874C77.512 38.4472 77.3955 38.2457 77.2689 37.9717L77.3329 37.6391L77.4806 37.3355L77.6021 37.0833L77.732 36.8518C77.8209 36.6929 77.9133 36.5358 78.0098 36.3813C78.1484 36.2279 78.2107 36.159 78.2673 36.0859C78.3135 36.0264 78.3561 35.9642 78.4333 35.8512L78.3869 35.4734L78.3274 35.109C78.4469 34.94 78.5068 34.8554 78.5713 34.7744C78.6359 34.6932 78.705 34.6156 78.8435 34.46C80.8678 32.2497 82.5408 29.8852 83.8302 27.1717L83.9377 26.9451C85.2113 24.2995 86.1023 21.508 86.5666 18.6054L86.6238 18.2311C86.8031 17.0693 86.8314 15.9362 86.7633 14.7635L86.7495 14.5468C86.7411 14.3977 86.7324 14.2487 86.7234 14.0999C86.6183 12.8191 86.2 11.5543 85.6314 10.4051C85.0041 9.29256 84.2686 8.20983 83.2869 7.38612L83.0909 7.22432C81.9024 6.23288 80.6319 5.50703 79.2484 4.82052L78.9625 4.67971L78.7106 4.55545C78.6163 4.50901 78.5221 4.46247 78.4278 4.41603C78.3716 4.38825 78.3152 4.36047 78.259 4.33269L78.0495 4.22911C77.5318 3.97401 77.0379 3.6993 76.5477 3.39416C76.2289 3.19218 75.9121 2.99412 75.5822 2.81101C75.5437 2.79055 75.5053 2.77009 75.467 2.74973C75.1376 2.57447 74.8097 2.40006 74.4963 2.19639ZM76.487 7.39397C76.8248 7.49925 77.1141 7.6181 77.4153 7.8046C78.2159 8.53639 78.7593 9.39339 79.2353 10.3654C79.8229 11.6158 80.113 12.9561 80.2328 14.328C80.3357 16.2819 80.1571 18.0698 79.5977 19.9474L79.5194 20.211C78.6976 22.9513 77.6859 25.6378 75.8927 27.8993C75.6516 28.1814 75.4064 28.4573 75.1526 28.728C75.0475 28.8393 74.992 28.8979 74.9401 28.9595C74.8819 29.0283 74.8282 29.1008 74.7144 29.254H74.7143L74.5166 29.4897H74.3049V29.7017H74.0932L73.9874 30.0198L73.9871 30.02C73.9149 30.0928 73.8757 30.1325 73.8348 30.1703C73.7861 30.2154 73.7352 30.2579 73.6237 30.3509L73.6235 30.3511C73.3788 30.5573 73.1392 30.7632 72.9086 30.9852C71.6266 32.2127 69.9997 33.0731 68.3742 33.7601C67.6849 34.0226 66.9795 34.2082 66.2599 34.3668L65.9755 34.4335C64.4404 34.7458 62.732 34.6724 61.1909 34.4104C60.785 34.3313 60.3864 34.2323 59.988 34.1216L59.7623 34.0611C59.4137 33.956 59.1633 33.8332 58.8787 33.6047C58.5952 33.2529 58.401 32.8985 58.2084 32.4915L58.0975 32.261C58.0257 32.1106 57.9547 31.96 57.8843 31.809C57.8107 31.6512 57.7347 31.4944 57.6579 31.3381C57.1615 30.2393 56.9625 28.973 56.9033 27.7771C56.8556 26.0179 57.0804 24.3383 57.6803 22.6797L57.7915 22.386L57.9061 22.0625C58.4036 20.6975 59.0889 19.4077 59.8028 18.1449L59.9496 17.8827C60.3372 17.2115 60.7847 16.5961 61.2587 15.9835C61.3931 15.809 61.5259 15.6333 61.6585 15.4574C63.5869 12.9237 65.9491 10.7979 68.6801 9.16342C68.9639 9.00428 69.251 8.85521 69.5414 8.70868L69.8842 8.52769C71.8731 7.5284 74.2637 6.88292 76.487 7.39397Z" fill="#4DACC1"/>
<path d="M78.6421 35.8516C82.7592 37.1972 82.7592 37.1972 84.0209 38.2371C84.504 38.7264 84.8667 39.2617 85.134 39.8962C85.1859 40.0245 85.2377 40.1527 85.2912 40.2847C85.6513 41.1657 86.1388 41.9672 86.6342 42.7763C86.6728 42.8395 86.7115 42.9026 86.7513 42.9676C87.1959 43.6922 87.6497 44.411 88.1066 45.1278C88.3552 45.5206 88.5965 45.9174 88.8373 46.315C89.2212 46.9457 89.6059 47.5761 89.9951 48.2035C90.0391 48.2747 90.0832 48.3458 90.1286 48.4191C90.3609 48.791 90.6038 49.1458 90.8684 49.4958C91.2361 50.0072 91.4855 50.5626 91.7484 51.1325C92.5194 52.801 93.5359 54.2545 94.611 55.7372C94.9216 56.1812 95.1665 56.6073 95.3173 57.1308C95.4087 57.577 95.4247 57.9826 95.3672 58.435C95.1936 59.2327 94.9242 59.955 94.4791 60.6404C93.9495 61.3652 93.2691 61.8486 92.5389 62.3562C92.1101 62.6201 91.6845 62.8202 91.1992 62.961C90.411 63.0549 89.7208 62.9745 88.9557 62.7791C87.3223 62.3228 85.9205 61.4303 84.5721 60.4267C84.2961 60.2008 84.0577 59.9813 83.829 59.7073C83.6811 59.4145 83.5714 59.12 83.4602 58.8115C83.0966 57.9582 82.5359 57.1944 82.0295 56.4205C81.8351 56.1225 81.6411 55.8243 81.4473 55.5259C81.3768 55.4177 81.3768 55.4177 81.3049 55.3073C80.8648 54.6273 80.4526 53.9315 80.0396 53.2349C79.7279 52.7116 79.4019 52.2087 79.0449 51.7152C78.7916 51.3466 78.5621 50.9654 78.3312 50.5825C77.5764 49.3326 76.7877 48.1047 75.9958 46.8782C75.9131 46.7497 75.9131 46.7497 75.8287 46.6187C75.3746 45.9149 74.9211 45.2447 74.3517 44.6273C74.0517 44.2653 73.8558 43.8479 73.7116 43.4022C73.5971 42.7999 73.6108 42.1846 73.6669 41.5769C73.7636 41.2775 73.8807 41.0355 74.0391 40.7652C74.1169 40.6947 74.1169 40.6947 74.1962 40.6227C74.3955 40.6441 74.3955 40.6441 74.6196 40.7287C74.7983 40.8881 74.7983 40.8881 74.9749 41.0916C75.0408 41.1653 75.1068 41.2391 75.1747 41.3152C75.3102 41.4701 75.4453 41.6252 75.58 41.7807C75.9909 42.239 76.3861 42.5688 76.9292 42.8597C77.3584 43.0373 77.784 43.0797 78.2452 43.0878C78.7317 43.0826 79.1355 43.0149 79.5887 42.8384C79.6606 42.807 79.7324 42.7756 79.8065 42.7432C79.873 42.7162 79.9395 42.6891 80.008 42.6613C80.2122 42.5636 80.3732 42.4641 80.5475 42.3191C80.9444 41.8458 81.2639 41.3064 81.4564 40.7176C81.5126 40.4916 81.5126 40.4916 81.5069 40.1522C81.231 39.2257 80.48 38.4371 79.8992 37.6805C79.8248 37.5831 79.7504 37.4856 79.6738 37.3852C79.2592 36.8418 79.2592 36.8418 78.8295 36.3103C78.7677 36.2289 78.7059 36.1475 78.6421 36.0636C78.6421 35.9936 78.6421 35.9237 78.6421 35.8516Z" fill="#FAC29A"/>
<path d="M75.1562 7.33078C75.6862 7.30088 76.1906 7.29621 76.7043 7.44337C77.0489 7.57463 77.3185 7.74035 77.6041 7.9735C78.3701 8.70274 78.8835 9.60757 79.3305 10.5587C79.9428 11.9506 80.2165 13.4554 80.2641 14.9712C80.2924 16.7087 80.0996 18.2778 79.6021 19.9478C79.5763 20.0347 79.5505 20.1218 79.5239 20.2114C78.702 22.9517 77.6904 25.6382 75.8972 27.8997C75.6561 28.1818 75.4109 28.4577 75.1571 28.7284C74.9345 28.9639 74.9345 28.9639 74.7187 29.2544C74.6209 29.3711 74.6209 29.3711 74.5211 29.4901C74.4512 29.4901 74.3814 29.4901 74.3094 29.4901C74.3094 29.5601 74.3094 29.63 74.3094 29.7021C74.2395 29.7021 74.1696 29.7021 74.0977 29.7021C74.0627 29.8071 74.0278 29.9121 73.9918 30.0202C73.8334 30.1801 73.8334 30.1801 73.6279 30.3516C73.3832 30.5578 73.1437 30.7637 72.913 30.9856C71.631 32.2131 70.0041 33.0735 68.3786 33.7605C67.6893 34.023 66.9839 34.2087 66.2644 34.3673C66.1705 34.3893 66.0766 34.4113 65.9798 34.434C64.4448 34.7462 62.7364 34.6728 61.1953 34.4108C60.7895 34.3317 60.3908 34.2327 59.9925 34.122C59.9179 34.1021 59.8435 34.0822 59.7668 34.0615C59.4181 33.9564 59.1678 33.8336 58.8831 33.6052C58.5995 33.2534 58.4056 32.8988 58.2128 32.4919C58.1765 32.4171 58.1403 32.3424 58.1031 32.2653C57.4796 30.9649 57.4796 30.9649 57.3726 30.5504C57.4075 30.4454 57.4424 30.3404 57.4784 30.2323C57.5242 30.3504 57.5701 30.4684 57.6173 30.5901C57.7295 30.8027 57.7295 30.8027 57.9018 30.9745C58.7108 31.2616 59.6414 31.2272 60.4887 31.2263C60.6823 31.2264 60.6823 31.2264 60.88 31.2265C61.9325 31.2138 62.9084 31.0655 63.9267 30.8101C64.1606 30.7595 64.3905 30.7327 64.6286 30.709C64.7492 30.6916 64.8698 30.6743 64.9941 30.6564C64.9941 30.5864 64.9941 30.5164 64.9941 30.4443C65.2058 30.409 65.4175 30.3736 65.6293 30.3383C65.6293 30.2683 65.6293 30.1983 65.6293 30.1262C65.8259 30.0497 66.0229 29.9741 66.2218 29.9034C67.1495 29.5559 67.9151 29.0275 68.6991 28.4298C68.7817 28.3689 68.8644 28.3079 68.9496 28.2451C69.3511 27.953 69.3511 27.953 69.7146 27.6168C69.7883 27.547 69.7883 27.547 69.8635 27.4756C69.9333 27.4756 70.0032 27.4756 70.0752 27.4756C70.1462 27.3345 70.2167 27.1931 70.2869 27.0515C70.4622 26.8709 70.4622 26.8709 70.6574 26.7069C70.7217 26.6517 70.7862 26.5964 70.8526 26.5396C70.9104 26.4986 70.9683 26.4576 71.0279 26.4154C71.0977 26.4154 71.1676 26.4154 71.2396 26.4154C71.2694 26.3384 71.2994 26.2615 71.3301 26.1822C71.4711 25.8367 71.6503 25.6433 71.9077 25.3749C72.3091 24.9387 72.6798 24.5168 72.9333 23.9768C72.9798 23.819 73.022 23.6599 73.059 23.4997C73.0874 23.3772 73.1157 23.2547 73.145 23.1286C73.2148 23.1286 73.2847 23.1286 73.3567 23.1286C73.3567 23.0236 73.3567 22.9186 73.3567 22.8105C73.4222 22.7514 73.4877 22.6924 73.5552 22.6315C73.6294 22.5506 73.7036 22.4697 73.7801 22.3864C73.8384 22.1803 73.8958 21.9735 73.9401 21.7639C74.0447 21.3071 74.2355 20.875 74.409 20.4406C74.6967 19.6925 74.8805 18.9371 75.0562 18.1569C75.1594 17.7 75.2806 17.2491 75.4089 16.7985C75.5124 16.4102 75.5795 16.0257 75.6326 15.6273C75.65 15.5135 75.6675 15.3998 75.6855 15.2827C75.7204 15.2477 75.7553 15.2127 75.7913 15.1767C75.7958 14.9467 75.7924 14.7166 75.7859 14.4866C75.7831 14.3802 75.7831 14.3802 75.7801 14.2717C75.7736 14.0388 75.766 13.8059 75.7583 13.573C75.7558 13.4939 75.7532 13.4148 75.7507 13.3334C75.6928 11.5356 75.6039 9.73639 75.2621 7.96693C75.2263 7.75498 75.1909 7.54293 75.1562 7.33078Z" fill="#C8FBFD"/>
<path d="M73.6698 41.8945C73.7047 41.8945 73.7397 41.8945 73.7756 41.8945C73.8084 42.1016 73.836 42.3094 73.8617 42.5174C73.9591 43.1674 74.0789 43.76 74.4108 44.3331C74.6914 44.6734 75.0184 44.8894 75.3941 45.1142C76.0233 45.4523 76.6691 45.6963 77.3747 45.8175C77.7027 45.8119 78.022 45.7811 78.3482 45.7479C78.9178 45.6975 79.4628 45.6792 80.0211 45.8175C80.2742 45.9771 80.4304 46.1361 80.6163 46.3702C80.841 46.7128 81.0427 47.0629 81.2343 47.4251C81.4698 47.8598 81.7369 48.2727 82.0024 48.6895C82.2098 49.016 82.413 49.3449 82.6154 49.6746C82.9082 50.1493 83.2087 50.6169 83.521 51.079C84.4571 52.4681 85.356 53.8824 86.1942 55.3329C86.5176 55.8901 86.859 56.434 87.206 56.9767C87.7277 57.7927 88.214 58.6249 88.6817 59.4731C89.0514 60.1358 89.4423 60.7707 89.9839 61.3072C90.0453 61.3563 90.1068 61.4055 90.1699 61.4562C90.2646 61.5333 90.2646 61.5333 90.361 61.612C90.4072 61.648 90.4532 61.6841 90.5007 61.7213C90.2286 62.0269 89.9859 62.2434 89.6274 62.4435C89.2312 62.5693 88.9393 62.6021 88.5294 62.5958C88.117 62.5527 87.7845 62.3978 87.4177 62.2117C87.3024 62.1549 87.3024 62.1549 87.1847 62.0971C86.0616 61.5294 84.9601 60.8241 84.042 59.9586C83.7475 59.6057 83.6177 59.2404 83.4631 58.811C83.0995 57.9577 82.5387 57.1939 82.0323 56.42C81.838 56.122 81.644 55.8238 81.4501 55.5254C81.4031 55.4533 81.3561 55.3812 81.3078 55.3069C80.8676 54.6268 80.4554 53.9311 80.0425 53.2344C79.7307 52.7111 79.4047 52.2083 79.0478 51.7147C78.7944 51.3462 78.5649 50.9649 78.3341 50.582C77.5792 49.3321 76.7905 48.1042 75.9986 46.8777C75.9435 46.7921 75.8884 46.7064 75.8316 46.6182C75.3774 45.9144 74.924 45.2442 74.3546 44.6268C74.053 44.2628 73.8574 43.8434 73.7125 43.3954C73.6566 43.0955 73.6598 42.8091 73.6632 42.5042C73.6646 42.3328 73.6646 42.3328 73.6661 42.1579C73.6674 42.0711 73.6685 41.9841 73.6698 41.8945Z" fill="#5F3324"/>
<path d="M78.538 8.17875C78.796 8.13899 78.796 8.13899 79.1731 8.17875C79.7435 8.44837 80.1875 8.85413 80.6154 9.31195C81.4117 10.2414 82.0142 11.2774 82.4546 12.4198C83.0994 14.3758 83.1981 16.3074 83.1039 18.3551C83.0393 19.3287 82.8048 20.2785 82.5605 21.2199C82.5401 21.3024 82.5198 21.3849 82.4987 21.4698C82.0395 23.313 81.2838 25.1132 80.339 26.7584C80.266 26.8853 80.194 27.0129 80.1227 27.1408C79.5191 28.2236 78.807 29.1796 78.0087 30.126C77.9424 30.2051 77.876 30.2843 77.8078 30.3658C77.631 30.5717 77.4502 30.7733 77.2677 30.9742C77.2015 31.0483 77.2015 31.0483 77.134 31.1239C75.656 32.7772 74.0579 34.2557 72.0609 35.2617C70.3262 36.1 68.4159 36.6226 66.4937 36.7912C65.2649 36.8667 64.0119 36.8551 62.7875 36.7228C62.5227 36.6926 62.5227 36.6926 62.1304 36.6996C61.9846 36.5631 61.8441 36.4209 61.707 36.2755C61.3935 36.0582 61.073 35.8546 60.7515 35.6497C60.4331 35.4247 60.1744 35.1804 59.9075 34.8972C60.0123 34.8622 60.1171 34.8272 60.225 34.7911C60.445 34.8315 60.6633 34.8815 60.8801 34.9369C62.5999 35.3743 64.5047 35.3393 66.2603 35.1227C67.4867 34.9359 68.6716 34.434 69.752 33.8369C69.8511 33.783 69.9502 33.7292 70.0522 33.6737C70.2527 33.5644 70.453 33.4549 70.653 33.3448C70.9496 33.1825 71.2445 33.0245 71.5515 32.8827C71.6214 32.8827 71.6913 32.8827 71.7632 32.8827C71.7632 32.8127 71.7632 32.7427 71.7632 32.6706C71.936 32.5697 72.1094 32.4695 72.2851 32.3736C72.8892 32.0231 73.3946 31.5793 73.8803 31.0802C74.0091 30.9617 74.1393 30.8447 74.2707 30.7291C74.3322 30.6748 74.3937 30.6205 74.4571 30.5646C74.5113 30.5249 74.5655 30.485 74.6213 30.4441C74.6912 30.4441 74.7611 30.4441 74.833 30.4441C74.868 30.3391 74.9029 30.2342 74.9389 30.126C75.0088 30.126 75.0786 30.126 75.1506 30.126C75.1833 30.0583 75.2161 29.9904 75.2499 29.9205C75.2869 29.8484 75.3241 29.7762 75.3623 29.7019C75.4671 29.6669 75.5719 29.6319 75.6799 29.5959C75.6908 29.5347 75.7017 29.4734 75.7129 29.4103C75.749 29.2922 75.749 29.2922 75.7857 29.1718C75.9308 29.052 76.0762 28.9327 76.2241 28.8164C77.5469 27.6416 78.5662 25.8862 79.3706 24.3272C79.6637 23.7301 79.907 23.1129 80.1454 22.4923C80.2374 22.2661 80.3415 22.0479 80.4462 21.8274C80.6972 21.2675 80.8184 20.6927 80.9396 20.0934C80.962 19.9875 80.9845 19.8818 81.0076 19.7728C81.3814 17.9867 81.4849 16.0611 81.1644 14.2553C81.1053 13.9957 81.0412 13.7372 80.9726 13.48C80.9539 13.4068 80.9352 13.3335 80.9159 13.258C80.5235 11.7375 79.9194 10.3509 79.0672 9.02695C78.8978 8.80737 78.7197 8.60041 78.538 8.3908C78.538 8.32082 78.538 8.25084 78.538 8.17875Z" fill="#9DD1D7"/>
<path d="M78.6457 35.8516C82.7627 37.1972 82.7627 37.1972 84.0244 38.2371C84.5074 38.7264 84.8703 39.2617 85.1376 39.8962C85.1895 40.0245 85.2413 40.1527 85.2947 40.2847C85.6549 41.1657 86.1424 41.9672 86.6378 42.7763C86.6764 42.8395 86.715 42.9026 86.7548 42.9676C87.1994 43.6922 87.6532 44.411 88.1102 45.1278C88.3588 45.5206 88.6001 45.9174 88.8408 46.315C89.2248 46.9457 89.6093 47.5761 89.9987 48.2035C90.0427 48.2747 90.0867 48.3458 90.1322 48.4191C90.3645 48.791 90.6073 49.1458 90.872 49.4958C91.256 50.0329 91.5373 50.6193 91.8247 51.212C91.8732 51.3105 91.9217 51.409 91.9717 51.5105C92.0159 51.6042 92.0602 51.6978 92.1058 51.7943C92.146 51.8786 92.1863 51.963 92.2277 52.0498C92.2518 52.1275 92.276 52.2053 92.301 52.2855C92.2715 52.5136 92.2715 52.5136 92.1952 52.7096C92.0042 52.9594 91.7996 53.1927 91.5919 53.4286C91.5465 53.5062 91.501 53.5839 91.4542 53.6638C91.5325 53.9543 91.7071 54.1449 91.8838 54.3891C91.9669 54.4974 92.05 54.6058 92.1357 54.7175C92.4265 55.0971 92.7085 55.4688 92.9361 55.8904C92.9361 55.9603 92.9361 56.0303 92.9361 56.1024C93.0013 56.1161 93.0663 56.1298 93.1334 56.1439C93.208 56.1652 93.2827 56.1865 93.3596 56.2084C93.4898 56.3857 93.4898 56.3857 93.5912 56.606C93.6254 56.6776 93.6597 56.7493 93.6949 56.8231C93.908 57.3882 93.9166 57.9471 93.9136 58.5451C93.8906 58.8362 93.8449 59.0438 93.7301 59.3097C93.6514 59.454 93.6514 59.454 93.5713 59.6013C93.3006 59.3563 93.1446 59.1089 92.9758 58.7861C92.7519 58.3645 92.5234 57.9463 92.2876 57.5312C91.5283 56.1936 90.8012 54.8394 90.1509 53.4452C90.1159 53.3701 90.0808 53.2952 90.0447 53.218C89.9022 52.9118 89.7612 52.6053 89.6241 52.2966C89.3415 51.6855 88.9748 51.2137 88.5403 50.7014C88.2457 50.3364 87.982 49.9591 87.7228 49.5686C87.6804 49.5053 87.6381 49.442 87.5945 49.3768C87.3694 49.034 87.1624 48.6864 86.9665 48.3261C86.6752 47.7935 86.3443 47.2911 86.0092 46.7854C85.5881 46.1429 85.1743 45.5043 84.8226 44.8203C84.7111 44.6063 84.592 44.3964 84.4702 44.1882C84.4346 44.1265 84.3992 44.0648 84.3624 44.0012C84.2619 43.8268 84.1597 43.6531 84.0576 43.4796C84.0183 43.3765 83.9789 43.2734 83.9385 43.1673C84.0075 42.8957 84.0075 42.8957 84.1502 42.6372C84.194 42.5473 84.2378 42.4574 84.2829 42.3647C84.3287 42.2753 84.3744 42.1859 84.4214 42.0938C84.61 41.7249 84.7699 41.4039 84.8142 40.9868C84.8297 40.53 84.8321 40.1261 84.6857 39.6896C84.4333 39.1675 84.1421 38.6956 83.7268 38.2901C83.587 38.2901 83.4473 38.2901 83.3033 38.2901C83.3339 38.3608 83.3644 38.4315 83.396 38.5043C83.6025 39.0179 83.7606 39.4895 83.7797 40.0461C83.7582 40.5512 83.644 40.9689 83.4361 41.4283C83.0554 42.1588 82.5936 42.7839 82.0004 43.357C81.4202 43.8344 80.7463 44.2609 80.0354 44.5086C79.1457 44.7588 78.1839 44.7274 77.2696 44.6517C76.5963 44.5248 76.041 44.2736 75.4635 43.9095C75.2276 43.7476 75.0528 43.5987 74.8684 43.3794C74.7291 43.1673 74.7291 43.1673 74.6232 42.8492C74.6107 42.675 74.6047 42.5003 74.6033 42.3257C74.6018 42.2351 74.6004 42.1445 74.5989 42.0512C74.6232 41.789 74.6232 41.789 74.7039 41.5368C74.7471 41.48 74.7904 41.4233 74.8349 41.3649C74.9325 41.364 74.9325 41.364 75.0321 41.3632C75.2584 41.4709 75.2584 41.4709 75.4746 41.6714C75.5496 41.7539 75.6244 41.8365 75.7017 41.9215C76.085 42.3188 76.4518 42.6033 76.9371 42.8625C77.3661 43.0381 77.7884 43.0797 78.2488 43.0878C78.7353 43.0826 79.139 43.0149 79.5922 42.8384C79.6641 42.807 79.736 42.7756 79.8101 42.7432C79.8766 42.7162 79.9431 42.6891 80.0115 42.6613C80.2158 42.5636 80.3768 42.4641 80.5511 42.3191C80.948 41.8458 81.2675 41.3064 81.46 40.7176C81.5161 40.4916 81.5161 40.4916 81.5104 40.1522C81.2345 39.2257 80.4836 38.4371 79.9027 37.6805C79.8283 37.5831 79.754 37.4856 79.6774 37.3852C79.2627 36.8418 79.2627 36.8418 78.8331 36.3103C78.7713 36.2289 78.7094 36.1475 78.6457 36.0636C78.6457 35.9936 78.6457 35.9237 78.6457 35.8516Z" fill="#AC7C6C"/>
<path d="M76.3136 7.43652C76.5915 7.46303 76.5915 7.46303 76.9488 7.54255C77.4647 7.81217 77.8319 8.18856 78.2099 8.62889C78.9205 9.56859 79.4757 10.6487 79.7891 11.7848C79.875 12.1365 79.9492 12.4885 80.0186 12.8438C80.0406 12.9522 80.0625 13.0605 80.0851 13.1723C80.3755 14.8464 80.3751 16.6941 80.0186 18.3571C79.8963 18.8931 79.752 19.4208 79.5951 19.9475C79.5693 20.0345 79.5435 20.1215 79.5169 20.2111C78.6951 22.9514 77.6834 25.6379 75.8902 27.8994C75.6491 28.1816 75.4039 28.4574 75.1501 28.7281C74.9276 28.9637 74.9276 28.9637 74.7117 29.2541C74.6139 29.3709 74.6139 29.3709 74.5141 29.4898C74.4442 29.4898 74.3744 29.4898 74.3024 29.4898C74.3024 29.5598 74.3024 29.6298 74.3024 29.7019C74.2325 29.7019 74.1627 29.7019 74.0907 29.7019C74.0557 29.8068 74.0208 29.9118 73.9848 30.0199C73.8265 30.1798 73.8265 30.1798 73.6209 30.3513C73.3763 30.5575 73.1367 30.7634 72.9061 30.9853C71.624 32.2129 69.9972 33.0733 68.3716 33.7602C67.6823 34.0227 66.9769 34.2084 66.2574 34.367C66.1635 34.389 66.0696 34.411 65.9729 34.4337C64.4382 34.7459 62.7297 34.6727 61.1889 34.4111C60.7804 34.3307 60.3795 34.2281 59.9789 34.1152C59.9036 34.0943 59.8282 34.0734 59.7505 34.052C59.5517 33.9913 59.3579 33.9146 59.1651 33.8369C58.9026 33.6074 58.9026 33.6074 58.7417 33.4128C58.8465 33.3778 58.9513 33.3428 59.0593 33.3067C59.2613 33.3565 59.4634 33.4068 59.6643 33.4612C61.1955 33.8256 63.0194 33.7266 64.565 33.4988C66.36 33.1591 67.9845 32.4006 69.5125 31.4182C69.8205 31.2173 70.1234 31.0136 70.4139 30.7874C70.4745 30.7441 70.535 30.7007 70.5975 30.6561C70.6673 30.6561 70.7372 30.6561 70.8092 30.6561C70.8554 30.5626 70.8554 30.5626 70.9026 30.4673C71.0209 30.232 71.0209 30.232 71.212 30.0432C71.2843 29.983 71.3566 29.9228 71.4311 29.8609C71.6725 29.6571 71.8984 29.4582 72.1191 29.2313C72.1759 29.1767 72.2326 29.122 72.2911 29.0657C72.361 29.0657 72.4309 29.0657 72.5029 29.0657C72.5465 28.9776 72.5465 28.9776 72.5909 28.8876C72.7506 28.57 72.9662 28.3556 73.2108 28.0982C73.7022 27.5697 74.1132 27.0142 74.5141 26.4151C74.5958 26.2993 74.6779 26.1837 74.7601 26.0684C74.8239 25.9783 74.8239 25.9783 74.8891 25.8863C75.0103 25.7153 75.1319 25.5444 75.2534 25.3735C75.4165 25.1161 75.5291 24.9019 75.6405 24.6238C75.6879 24.5152 75.7355 24.4065 75.7844 24.2946C75.8542 24.2946 75.9241 24.2946 75.9961 24.2946C76.0085 24.2268 76.0209 24.159 76.0337 24.0891C76.1314 23.6246 76.348 23.2334 76.5584 22.8102C76.9483 22.0075 77.2429 21.2335 77.478 20.3716C77.5297 20.2122 77.5825 20.0531 77.6368 19.8945C77.7673 19.5043 77.8956 19.1136 78.0205 18.7217C78.0558 18.6121 78.0909 18.5026 78.1273 18.3899C78.57 16.6976 78.4099 14.7281 78.2058 13.0094C78.0023 11.4631 77.6005 9.97138 76.8429 8.6028C76.7814 8.46667 76.7217 8.32979 76.6642 8.19195C76.556 7.93378 76.4425 7.68473 76.3136 7.43652Z" fill="#9AD5DE"/>
<path d="M82.6648 44.439C82.8045 44.439 82.9442 44.439 83.0882 44.439C83.2702 44.6929 83.2702 44.6929 83.4587 45.0552C83.5327 45.1928 83.6071 45.3302 83.6819 45.4673C83.7223 45.5413 83.7626 45.6153 83.8042 45.6916C84.0353 46.1009 84.2903 46.495 84.5437 46.8908C84.941 47.5124 85.3262 48.1389 85.6988 48.7756C86.1583 49.5595 86.62 50.2825 87.2124 50.9728C87.567 51.3865 87.9016 51.8089 88.1692 52.2848C88.2284 52.5073 88.2284 52.5073 88.2619 52.7289C88.329 53.1533 88.4931 53.4663 88.7091 53.8312C88.914 54.1661 89.1228 54.4983 89.3336 54.8295C89.7258 55.4517 90.1072 56.0801 90.4848 56.7114C90.5406 56.8044 90.5963 56.8973 90.6538 56.9931C90.9581 57.5014 91.2569 58.0122 91.55 58.5271C91.8004 58.9622 92.0755 59.3283 92.4034 59.7066C92.4034 59.7766 92.4034 59.8466 92.4034 59.9187C92.469 59.9514 92.5345 59.9843 92.6019 60.0181C92.6761 60.0552 92.7503 60.0925 92.8269 60.1307C92.8967 60.2357 92.9666 60.3407 93.0386 60.4488C92.9687 60.4838 92.8988 60.5188 92.8269 60.5548C92.7835 60.6353 92.7401 60.7159 92.6954 60.7988C92.5093 61.085 92.5093 61.085 92.2108 61.3148C91.1502 61.9639 91.1502 61.9639 90.5709 62.0922C90.442 62.1097 90.3132 62.1272 90.1805 62.1452C90.2233 62.0818 90.2662 62.0184 90.3104 61.9531C90.3374 61.8765 90.3643 61.8 90.3922 61.7211C90.2445 61.553 90.2445 61.553 90.0085 61.403C89.2341 60.7647 88.8086 59.8755 88.3186 59.0138C88.113 58.654 87.9003 58.2988 87.6863 57.944C87.6486 57.8811 87.611 57.8181 87.5721 57.7533C87.1204 56.9995 86.6614 56.2502 86.203 55.5005C86.0501 55.2503 85.8977 54.9997 85.7454 54.7491C85.6948 54.666 85.6442 54.5828 85.5921 54.4972C85.4972 54.3412 85.4024 54.1853 85.3077 54.0292C84.6502 52.9492 83.9602 51.8906 83.2669 50.8336C82.7624 50.0646 82.263 49.2934 81.7849 48.5077C81.3704 47.8274 80.905 47.193 80.4161 46.5646C80.2801 46.3888 80.1488 46.2094 80.0184 46.0293C80.0184 45.9594 80.0184 45.8894 80.0184 45.8173C79.8088 45.7471 79.8088 45.7471 79.595 45.7113C79.6784 45.697 79.7617 45.6825 79.8476 45.6678C80.7971 45.4798 81.5216 45.1512 82.3472 44.651C82.452 44.581 82.5568 44.5111 82.6648 44.439Z" fill="#AB7767"/>
<path d="M79.8078 8.49658C80.6481 8.90902 81.3737 9.41561 82.0308 10.087C82.7957 10.964 83.3042 12.0842 83.7245 13.1617C84.1396 14.3667 84.4585 15.592 84.4655 16.8726C84.4696 17.0278 84.4696 17.0278 84.4737 17.1861C84.4788 17.5063 84.4744 17.8247 84.4655 18.1449C84.4625 18.2592 84.4594 18.3734 84.4564 18.4912C84.3316 21.0992 83.3096 23.7422 82.2425 26.0968C81.211 28.2747 79.8717 30.3442 78.2287 32.1083C77.9979 32.3638 77.7884 32.6297 77.5783 32.9024C77.1978 33.3837 76.7874 33.7668 76.3146 34.1547C76.2198 34.2376 76.1249 34.3207 76.0272 34.4061C74.3701 35.8392 72.3139 36.9214 70.242 37.6336C69.9017 37.7292 69.5542 37.7825 69.2024 37.8126C69.0693 37.7951 68.9361 37.7776 68.7989 37.7596C68.7226 37.6533 68.6464 37.5469 68.5677 37.4374C68.4376 37.2587 68.4376 37.2587 68.2696 37.1234C67.9502 37.0575 67.6519 37.0977 67.3302 37.1367C67.1485 37.152 66.9669 37.167 66.7852 37.1819C66.6956 37.1901 66.6059 37.1984 66.5136 37.207C65.1862 37.324 63.9363 37.1728 62.6593 36.8054C62.6244 36.7354 62.5895 36.6654 62.5535 36.5933C62.6169 36.601 62.6804 36.6086 62.7457 36.6165C65.0815 36.8562 67.464 36.7379 69.7295 36.0881C71.6994 35.4735 73.3514 34.4986 74.9385 33.2005C76.9495 31.4731 78.8601 29.3816 80.0961 27.0208C80.2227 26.7691 80.3474 26.5173 80.4699 26.2637C80.5881 26.0213 80.7099 25.7805 80.8362 25.5423C81.7789 23.7501 82.3797 21.8239 82.7718 19.8413C82.7915 19.7458 82.8112 19.6502 82.8315 19.5519C82.9983 18.6684 83.0213 17.795 83.0165 16.8991C83.0163 16.7868 83.0163 16.7868 83.0161 16.6723C83.012 15.5782 82.9666 14.5383 82.6659 13.4798C82.6377 13.3732 82.6094 13.2666 82.5803 13.1567C82.2166 11.9324 81.6301 10.7627 80.8465 9.75563C80.6786 9.54645 80.5089 9.33874 80.3371 9.13273C80.2382 9.01377 80.1395 8.89471 80.0406 8.77575C79.9638 8.68361 79.887 8.59147 79.8078 8.49658Z" fill="#0A4A59"/>
<path d="M78.0096 7.96631C78.2056 7.9767 78.2056 7.9767 78.433 8.07233C78.7893 8.46622 79.0837 8.90813 79.3857 9.34464C79.4428 9.42448 79.5 9.50431 79.559 9.58648C80.3582 10.7971 80.8828 12.3846 81.1852 13.7977C81.363 14.7444 81.4346 15.6647 81.43 16.6273C81.4295 16.7567 81.4291 16.8861 81.4287 17.0195C81.4158 18.0589 81.3152 19.042 81.0794 20.0532C81.0635 20.124 81.0476 20.1949 81.0313 20.2678C80.8538 21.0468 80.6249 21.7809 80.2746 22.5005C80.1325 22.7978 80.0052 23.0992 79.8792 23.4037C79.1001 25.2633 77.9925 26.8579 76.6996 28.3961C76.6183 28.4936 76.6183 28.4936 76.5353 28.5931C76.3966 28.755 76.2509 28.9107 76.1042 29.0654C75.9994 29.1004 75.8946 29.1353 75.7866 29.1714C75.7503 29.3125 75.7152 29.454 75.6807 29.5955C75.5269 29.7574 75.5269 29.7574 75.3367 29.907C75.1026 30.0971 74.8891 30.2824 74.6751 30.4967C74.3575 30.8149 74.0325 31.1315 73.6695 31.3979C73.5996 31.3979 73.5298 31.3979 73.4578 31.3979C73.4229 31.5029 73.3879 31.6079 73.3519 31.716C73.1478 31.8926 72.9467 32.0537 72.73 32.2131C72.6726 32.2571 72.6152 32.3012 72.5559 32.3465C72.4025 32.4609 72.2424 32.5662 72.0817 32.6702C71.9769 32.6702 71.8721 32.6702 71.7641 32.6702C71.7641 32.7402 71.7641 32.8102 71.7641 32.8823C71.5371 33.0215 71.3127 33.1457 71.0761 33.2666C71.0047 33.3037 70.9334 33.3407 70.8598 33.379C70.7085 33.4574 70.557 33.5353 70.4054 33.6128C70.1858 33.7256 69.9676 33.8406 69.7496 33.9562C68.503 34.6094 67.2543 35.1214 65.8404 35.2714C64.1123 35.418 62.3369 35.4459 60.6493 35.0028C60.3637 34.9038 60.0839 34.7958 59.8025 34.6847C59.8624 34.3596 59.8624 34.3596 60.0142 34.0486C60.3413 34.0523 60.3413 34.0523 60.7486 34.1612C60.8947 34.1967 61.041 34.2318 61.1873 34.2664C61.2588 34.2842 61.3305 34.3019 61.4042 34.3202C62.6588 34.615 64.1737 34.5909 65.4463 34.4201C65.8631 34.3467 66.273 34.2582 66.6831 34.1546C66.7919 34.1282 66.7919 34.1282 66.9028 34.1012C68.0779 33.8094 69.1172 33.3586 70.1763 32.7763C70.2885 32.7161 70.4006 32.656 70.5162 32.594C71.4887 32.052 72.4349 31.3916 73.2131 30.5895C73.3342 30.4648 73.3342 30.4648 73.4578 30.3377C73.5277 30.3377 73.5975 30.3377 73.6695 30.3377C73.7044 30.2327 73.7394 30.1277 73.7754 30.0196C73.9276 29.8406 73.9276 29.8406 74.0929 29.7015C74.1628 29.7015 74.2327 29.7015 74.3046 29.7015C74.3046 29.6315 74.3046 29.5616 74.3046 29.4895C74.3745 29.4895 74.4444 29.4895 74.5163 29.4895C74.5513 29.3845 74.5862 29.2795 74.6222 29.1714C74.6921 29.1714 74.7619 29.1714 74.8339 29.1714C74.906 29.0308 74.9762 28.8893 75.0456 28.7473C75.1717 28.598 75.3023 28.4524 75.436 28.3099C75.8846 27.8134 76.267 27.2922 76.6334 26.7328C76.7096 26.618 76.7096 26.618 76.7873 26.5008C78.3121 24.0841 79.3489 21.147 79.915 18.3568C79.9481 18.1943 79.9481 18.1943 79.982 18.0283C80.2949 16.1402 80.2222 14.1792 79.8091 12.3134C79.5574 11.2221 79.1076 10.2013 78.5388 9.23861C78.3463 8.96486 78.1488 8.70732 77.9302 8.45424C77.8646 8.37016 77.8646 8.37016 77.7979 8.28438C77.7979 8.21441 77.7979 8.14443 77.7979 8.07233C77.8677 8.03735 77.9376 8.00236 78.0096 7.96631Z" fill="#6EA1AC"/>
<path d="M78.6457 35.8516C79.2923 36.0619 79.9303 36.2885 80.5643 36.5342C80.6447 36.5645 80.7251 36.5949 80.8079 36.6263C81.3163 36.8231 81.7861 37.0392 82.2448 37.3359C82.2448 37.4059 82.2448 37.4759 82.2448 37.548C82.3057 37.5757 82.3665 37.6034 82.4292 37.632C82.6682 37.76 82.6682 37.76 82.8873 38.0172C82.9591 38.1182 83.0309 38.2192 83.1049 38.3232C83.1772 38.4234 83.2495 38.5236 83.324 38.6269C83.5011 38.9044 83.6279 39.1433 83.7268 39.4564C83.7787 39.8502 83.7692 40.2281 83.7268 40.6227C83.5561 41.2741 83.2398 41.8547 82.8522 42.4019C82.31 43.0951 81.726 43.6209 80.968 44.062C80.45 44.356 79.972 44.557 79.3867 44.6517C78.5601 44.7288 77.6996 44.7328 76.883 44.5787C76.2804 44.3923 75.7605 44.1134 75.2414 43.757C75.03 43.5772 74.8814 43.3992 74.7291 43.1673C74.6264 42.8587 74.6058 42.6476 74.6033 42.3257C74.6018 42.2351 74.6004 42.1445 74.5989 42.0512C74.6232 41.789 74.6232 41.789 74.7039 41.5368C74.7471 41.48 74.7904 41.4233 74.8349 41.3649C74.9325 41.364 74.9325 41.364 75.0321 41.3632C75.2584 41.4709 75.2584 41.4709 75.4746 41.6714C75.5496 41.7539 75.6244 41.8365 75.7017 41.9215C76.085 42.3188 76.4518 42.6033 76.9371 42.8625C77.3661 43.0381 77.7884 43.0797 78.2488 43.0878C78.7353 43.0826 79.139 43.0149 79.5922 42.8384C79.6641 42.807 79.736 42.7756 79.8101 42.7432C79.8766 42.7162 79.9431 42.6891 80.0115 42.6613C80.2158 42.5636 80.3768 42.4641 80.5511 42.3191C80.948 41.8458 81.2675 41.3064 81.46 40.7176C81.5161 40.4916 81.5161 40.4916 81.5104 40.1522C81.2345 39.2257 80.4836 38.4371 79.9027 37.6805C79.8283 37.5831 79.754 37.4856 79.6774 37.3852C79.2627 36.8418 79.2627 36.8418 78.8331 36.3103C78.7713 36.2289 78.7094 36.1475 78.6457 36.0636C78.6457 35.9936 78.6457 35.9237 78.6457 35.8516Z" fill="#5A3326"/>
<path d="M83.518 38.1836C83.7189 38.2511 83.7189 38.2511 83.9414 38.3956C84.1374 38.6296 84.1374 38.6296 84.3252 38.9058C84.4188 39.0414 84.4188 39.0414 84.5145 39.1797C84.6774 39.4477 84.7978 39.6877 84.8941 39.986C84.9534 40.4166 84.9438 40.8268 84.8941 41.2583C84.6689 42.0569 84.2643 42.7309 83.788 43.4037C83.7338 43.4655 83.6797 43.5273 83.6239 43.5909C83.554 43.5909 83.4841 43.5909 83.4122 43.5909C83.3367 43.7656 83.2667 43.9427 83.2004 44.121C83.1306 44.226 83.0607 44.3309 82.9887 44.4391C82.8001 44.5408 82.6104 44.6408 82.4165 44.7319C82.2089 44.8312 82.0043 44.9362 81.8011 45.0442C81.0197 45.4555 80.2741 45.8092 79.3897 45.9234C78.4559 45.9995 77.5366 46.0084 76.6308 45.7445C76.4196 45.6674 76.2099 45.5859 76.0023 45.4993C75.9056 45.461 75.8088 45.4226 75.7091 45.3829C75.3446 45.2215 75.034 45.0453 74.7288 44.7878C74.3756 44.4206 74.1433 44.0426 73.9514 43.571C73.7438 42.9165 73.6217 42.2643 73.6735 41.5764C73.7684 41.2814 73.8861 41.039 74.0419 40.7721C74.095 40.7226 74.148 40.6732 74.2028 40.6222C74.2727 40.625 74.3427 40.6279 74.4149 40.6309C74.6262 40.7282 74.6262 40.7282 74.7833 40.8777C74.9073 41.0399 75.0314 41.2021 75.1555 41.3644C75.0507 41.3644 74.9459 41.3644 74.8379 41.3644C74.7175 41.6685 74.7116 41.9807 74.7056 42.3053C74.7118 42.6336 74.7396 42.875 74.8312 43.1933C75.0923 43.5419 75.3546 43.7482 75.7253 43.9735C76.2332 44.2439 76.7049 44.4373 77.2726 44.5451C78.1544 44.6253 79.1091 44.6562 79.9719 44.4325C80.7185 44.1481 81.4085 43.7499 82.0157 43.2306C82.6035 42.6619 83.0693 42.0974 83.408 41.3528C83.577 40.915 83.6485 40.508 83.6636 40.039C83.6512 39.5513 83.5524 39.1432 83.3757 38.6901C83.3063 38.5017 83.3063 38.5017 83.3063 38.2896C83.3762 38.2546 83.446 38.2196 83.518 38.1836Z" fill="#D0A791"/>
<path d="M67.3098 0.121127C68.9311 0.0734689 70.4247 0.177639 71.967 0.726215C72.8632 1.11257 73.685 1.64605 74.4878 2.19689C74.8376 2.42432 75.2056 2.61527 75.5735 2.81152C75.9035 2.99463 76.2204 3.19268 76.5391 3.39466C77.0293 3.6998 77.5232 3.97462 78.0409 4.22961C78.1092 4.26322 78.1774 4.29694 78.2478 4.33161C78.3197 4.36692 78.3915 4.40233 78.4656 4.4388C79.0613 4.73228 79.6533 5.03276 80.2441 5.3362C80.3491 5.38921 80.4541 5.44212 80.5624 5.49662C81.3943 5.92602 81.3943 5.92602 81.7248 6.25608C81.7885 6.33083 81.8522 6.40557 81.9178 6.48265C81.5802 6.35298 81.268 6.2072 80.9519 6.03205C79.5354 5.31627 77.8456 4.88793 76.2745 4.7133C75.1183 4.63389 73.9937 4.63601 72.8473 4.81275C72.7709 4.82431 72.6944 4.83587 72.6156 4.84785C71.3255 5.06668 70.1086 5.50446 68.9042 6.00554C68.7809 6.05569 68.6575 6.10584 68.5302 6.15758C67.786 6.46389 67.786 6.46389 67.0779 6.84378C66.9307 6.92743 66.9307 6.92743 66.7806 7.01278C66.7107 6.97779 66.6408 6.9428 66.5688 6.90676C68.5862 5.62873 70.5618 4.71288 72.9202 4.26937C73.3223 4.19759 73.6755 4.15009 74.0846 4.15009C74.0846 4.08012 74.0846 4.01014 74.0846 3.93804C74.002 3.91111 73.9194 3.88418 73.8344 3.8564C73.3066 3.67765 72.8515 3.40283 72.371 3.12292C72.2717 3.06567 72.1723 3.00831 72.0698 2.94914C71.4746 2.60382 70.8909 2.24662 70.3143 1.87096C69.7204 1.49548 69.0926 1.178 68.4714 0.850879C68.362 0.793053 68.362 0.793053 68.2505 0.73406C68.1055 0.657531 67.9605 0.581405 67.8152 0.505703C67.6451 0.41592 67.4772 0.32195 67.3098 0.227153C67.3098 0.192164 67.3098 0.157176 67.3098 0.121127Z" fill="#074251"/>
<path d="M92.2976 52.3916C92.6085 52.7649 92.8645 53.1463 93.1114 53.5645C93.4023 54.0499 93.7131 54.506 94.0574 54.9561C94.5503 55.6024 95.003 56.2435 95.3012 57.0037C95.3887 57.4947 95.4226 57.9381 95.3674 58.4351C95.1951 59.2327 94.924 59.9556 94.4791 60.6405C93.9495 61.3653 93.2692 61.8486 92.539 62.3563C92.1102 62.6202 91.6847 62.8203 91.1993 62.9611C90.3998 63.0564 89.723 62.9579 88.9429 62.756C88.8622 62.7296 88.7816 62.7032 88.6985 62.6761C88.6985 62.6411 88.6985 62.6061 88.6985 62.57C88.8401 62.5206 88.9841 62.478 89.1285 62.4375C89.3381 62.3757 89.5475 62.3139 89.757 62.252C89.8834 62.2148 90.0097 62.1776 90.1399 62.1394C90.9073 61.9046 91.6092 61.6283 92.2789 61.1752C92.5042 60.984 92.6332 60.8263 92.7739 60.5688C92.8263 60.4595 92.8787 60.3501 92.9327 60.2375C93.0375 60.2025 93.1423 60.1675 93.2503 60.1315C93.289 59.92 93.3245 59.7079 93.3561 59.4953C93.426 59.4953 93.4958 59.4953 93.5678 59.4953C93.7193 59.1919 93.7754 58.9076 93.8039 58.5709C93.8214 57.9214 93.7526 57.3626 93.5522 56.7449C93.4594 56.5005 93.4594 56.5005 93.2503 56.2085C93.1455 56.1735 93.0407 56.1385 92.9327 56.1025C92.77 55.8709 92.6216 55.642 92.4762 55.4001C92.2068 54.9614 91.9458 54.5556 91.5896 54.1808C91.5088 54.0802 91.4281 53.9797 91.3449 53.876C91.4684 53.5118 91.7192 53.2069 91.9403 52.8952C92.0072 52.8006 92.074 52.7061 92.1429 52.6086C92.2194 52.5012 92.2194 52.5012 92.2976 52.3916Z" fill="#D6AA91"/>
<path d="M78.4351 35.6382C79.2961 36.7109 80.1487 37.7926 80.9491 38.9117C80.9921 38.9715 81.035 39.0313 81.0792 39.0929C81.4871 39.6696 81.4871 39.6696 81.6107 39.9852C81.6423 40.3175 81.5894 40.6177 81.5049 40.9395C81.2892 41.4239 81.0508 41.8954 80.7035 42.2987C80.6536 42.3401 80.6036 42.3813 80.5522 42.4238C80.4823 42.4238 80.4124 42.4238 80.3404 42.4238C80.2445 42.2797 80.1494 42.1351 80.0572 41.9886C79.8928 41.753 79.7075 41.5488 79.5135 41.3371C79.1567 40.9402 78.8392 40.5356 78.543 40.0917C78.3713 39.8358 78.1943 39.5874 78.0129 39.3387C77.9021 39.181 77.7914 39.0233 77.6808 38.8654C77.6256 38.7915 77.5702 38.7177 77.5133 38.6417C77.3603 38.4177 77.2469 38.2296 77.1648 37.9707C77.2015 37.6158 77.319 37.3316 77.4824 37.0165C77.668 36.7026 77.668 36.7026 77.8594 36.4466C77.9547 36.3175 77.9547 36.3175 78.0518 36.1857C78.1084 36.11 78.165 36.0343 78.2233 35.9563C78.2932 35.8513 78.3631 35.7463 78.4351 35.6382Z" fill="#C4F8FB"/>
<path d="M49.959 31.9282C50.0899 32.0035 50.0899 32.0035 50.2236 32.0803C50.5564 32.2712 50.8896 32.4615 51.2227 32.6517C51.3653 32.7332 51.5077 32.8148 51.6501 32.8966C51.858 33.016 52.0662 33.1349 52.2746 33.2535C52.3445 33.2936 52.4146 33.3338 52.4867 33.3752C52.8468 33.5788 53.2078 33.7682 53.5849 33.9386C54.6856 34.439 54.6856 34.439 55.1129 34.8576C55.2689 35.0527 55.4205 35.2515 55.5669 35.454C55.787 35.7534 56.0245 36.003 56.2904 36.262C56.9317 36.8908 56.9317 36.8908 57.1571 37.2295C57.1047 37.3345 57.1047 37.3345 57.0513 37.4415C54.4937 36.3023 52.3114 34.3443 50.2765 32.4583C50.2147 32.4016 50.1529 32.3449 50.0892 32.2865C50.0462 32.2382 50.0032 32.19 49.959 32.1403C49.959 32.0703 49.959 32.0003 49.959 31.9282Z" fill="#75D6EF"/>
<path d="M67.9557 0.014075C67.8924 0.0599946 67.8291 0.105914 67.7639 0.153233C67.5319 0.319958 67.5319 0.319958 67.3735 0.517696C67.3211 0.561431 67.2687 0.605167 67.2147 0.650228C66.9964 0.630348 66.9964 0.630348 66.7913 0.544202C66.6865 0.439237 66.6865 0.439237 66.5796 0.332151C66.4016 0.398979 66.2257 0.471002 66.0503 0.544202C65.881 0.580092 65.7111 0.612949 65.5409 0.643601C65.0449 0.738929 64.6042 0.861367 64.1449 1.07433C64.1449 1.17929 64.1449 1.28426 64.1449 1.39241C63.9002 1.47192 63.9002 1.47192 63.6156 1.49843C63.5108 1.46344 63.4061 1.42845 63.2981 1.39241C63.2282 1.46238 63.1584 1.53236 63.0864 1.60446C62.9521 1.65365 62.9521 1.65365 62.8152 1.70386C62.73 1.74103 62.6448 1.7782 62.5571 1.81651C62.5047 1.97396 62.5047 1.97396 62.4512 2.13458C62.2395 2.2053 62.0278 2.27592 61.8161 2.34663C61.5689 2.55858 61.5689 2.55858 61.3927 2.77074C61.4626 2.77074 61.5324 2.77074 61.6044 2.77074C61.552 2.92818 61.552 2.92818 61.4985 3.08881C61.3785 3.07567 61.2584 3.06252 61.1346 3.04905C60.8989 3.02923 60.8989 3.02923 60.6517 3.08881C60.3569 3.30267 60.1075 3.54091 59.8478 3.79621C59.6282 4.00901 59.4149 4.18289 59.1632 4.35444C59.0091 4.46269 59.0091 4.46269 58.8522 4.57317C58.8172 4.64315 58.7823 4.71312 58.7463 4.78522C58.6764 4.78522 58.6066 4.78522 58.5346 4.78522C58.4997 4.8552 58.4647 4.92517 58.4287 4.99727C58.317 5.0999 58.2018 5.19882 58.0847 5.29541C57.556 5.74199 57.0985 6.22388 56.6644 6.76206C56.6178 6.80946 56.5713 6.85685 56.5234 6.90573C56.4535 6.90573 56.3836 6.90573 56.3116 6.90573C56.2811 6.97136 56.2506 7.03688 56.219 7.10453C56.1797 7.17885 56.1404 7.25317 56.0999 7.32983C55.875 7.46236 55.875 7.46236 55.6765 7.54188C55.6765 7.43692 55.6765 7.33195 55.6765 7.22381C55.8199 7.04908 55.8199 7.04908 56.014 6.86597C56.0765 6.80607 56.1392 6.74627 56.2037 6.68456C56.2743 6.61755 56.3448 6.55065 56.4175 6.48163C56.6979 6.20267 56.9763 5.92171 57.254 5.64C57.3611 5.53185 57.4682 5.4236 57.5753 5.31535C57.6282 5.26149 57.6811 5.20763 57.7355 5.15217C58.091 4.79391 58.4531 4.45845 58.8522 4.14907C58.922 4.14907 58.9919 4.14907 59.0639 4.14907C59.0639 4.07909 59.0639 4.00911 59.0639 3.93702C59.3582 3.66305 59.6942 3.43446 60.0166 3.19484C60.1406 3.1009 60.2647 3.00685 60.3888 2.91281C61.1863 2.31228 61.9865 1.74716 62.8747 1.28638C62.9759 1.23369 62.9759 1.23369 63.0791 1.17994C64.6164 0.395173 66.224 -0.0278474 67.9557 0.014075Z" fill="#77CADF"/>
<path d="M53.2391 10.6162C53.309 10.6512 53.3789 10.6862 53.4508 10.7222C53.4028 10.7638 53.3548 10.8054 53.3053 10.8482C53.1183 11.0332 53.1183 11.0332 53.0406 11.2921C52.9216 11.5704 52.9216 11.5704 52.6504 11.862C52.5226 11.9801 52.5226 11.9801 52.3923 12.1006C52.3574 12.1356 52.3224 12.1705 52.2864 12.2066C52.2755 12.3443 52.2646 12.4822 52.2534 12.6241C52.2269 12.8584 52.2269 12.8584 52.1806 13.0548C51.9888 13.1674 51.9888 13.1674 51.7572 13.2668C51.585 13.5047 51.4658 13.7444 51.3337 14.009C51.3337 14.079 51.3337 14.149 51.3337 14.2211C51.2639 14.2211 51.194 14.2211 51.122 14.2211C51.122 14.396 51.122 14.571 51.122 14.7512C51.0522 14.7512 50.9823 14.7512 50.9103 14.7512C50.7947 14.9562 50.7947 14.9562 50.6986 15.1753C50.6637 15.2103 50.6287 15.2453 50.5927 15.2813C50.5715 15.5275 50.559 15.7734 50.5477 16.0202C50.5176 16.1268 50.5176 16.1268 50.4869 16.2356C50.2706 16.3051 50.2706 16.3051 50.0635 16.3416C50.0635 16.4116 50.0635 16.4815 50.0635 16.5536C50.1333 16.5886 50.2032 16.6236 50.2752 16.6597C50.1901 16.7296 50.1049 16.7996 50.0171 16.8717C49.9277 16.9767 49.8381 17.0816 49.7459 17.1898C49.681 17.4733 49.6647 17.7471 49.6401 18.038C49.5702 18.038 49.5003 18.038 49.4283 18.038C49.3058 18.3534 49.3058 18.3534 49.2166 18.6741C49.3214 18.684 49.3214 18.684 49.4283 18.6941C49.4982 18.7225 49.5681 18.7509 49.6401 18.7802C49.6665 19.0518 49.6665 19.0518 49.6401 19.3103C49.3255 19.191 49.0754 19.0746 48.7932 18.8862C48.8602 17.759 49.6213 16.5648 50.0965 15.5596C50.5752 14.5589 51.0807 13.5818 51.6513 12.6307C51.6919 12.5624 51.7327 12.4942 51.7746 12.4239C52.4993 11.219 52.4993 11.219 52.9369 10.8328C53.0366 10.7614 53.1363 10.6899 53.2391 10.6162Z" fill="#4897A8"/>
<path d="M74.2032 40.623C74.3082 40.6274 74.3082 40.6274 74.4153 40.6317C74.6266 40.7291 74.6266 40.7291 74.7837 40.8786C74.9698 41.1219 74.9698 41.1219 75.1559 41.3652C75.0511 41.3652 74.9463 41.3652 74.8383 41.3652C74.718 41.6694 74.7121 41.9816 74.706 42.3062C74.7088 42.6777 74.7401 42.8682 74.8847 43.2207C74.9392 43.3081 74.9938 43.3956 75.0501 43.4857C75.085 43.5557 75.1199 43.6257 75.1559 43.6978C75.086 43.6978 75.0162 43.6978 74.9442 43.6978C74.9093 43.8027 74.8743 43.9077 74.8383 44.0159C74.9431 44.0508 75.0479 44.0858 75.1559 44.1219C75.1427 44.387 75.1427 44.387 75.0501 44.652C74.8929 44.7045 74.8929 44.7045 74.7325 44.758C74.4347 44.4828 74.2569 44.2314 74.0787 43.868C73.8216 43.2282 73.6854 42.5958 73.6492 41.9069C73.6739 41.5773 73.6739 41.5773 73.7715 41.2741C74.0064 40.8065 74.0064 40.8065 74.2032 40.623Z" fill="#BB9485"/>
<path d="M63.7219 10.4053C63.7917 10.4403 63.8616 10.4753 63.9336 10.5113C63.7961 10.6196 63.7961 10.6196 63.6557 10.7299C63.3438 10.9895 63.0872 11.2735 62.8316 11.5881C62.6633 11.7836 62.6633 11.7836 62.4235 12.0152C62.0568 12.3935 61.7439 12.8018 61.4261 13.2215C61.3647 13.3016 61.3032 13.3816 61.2399 13.4641C60.9104 13.8886 60.9104 13.8886 60.6464 14.3543C60.6133 14.4157 60.5803 14.4771 60.5462 14.5403C60.4764 14.5403 60.4065 14.5403 60.3345 14.5403C60.2915 14.6489 60.2915 14.6489 60.2477 14.7597C60.0907 15.1502 59.8557 15.4642 59.6068 15.7993C59.2485 16.2839 58.9339 16.77 58.6408 17.2969C58.5687 17.4041 58.4968 17.5112 58.4226 17.6216C58.2093 17.9302 58.2093 17.9302 58.0521 18.2777C58.0018 18.3739 57.9516 18.4701 57.8998 18.5692C57.7426 18.6742 57.7426 18.6742 57.5823 18.7813C58.0528 17.5559 58.5963 16.3487 59.4066 15.3118C59.5767 15.0921 59.7183 14.8727 59.8582 14.633C60.1196 14.1989 60.4495 13.8385 60.7926 13.4676C60.976 13.2782 60.976 13.2782 61.0755 13.0559C61.1803 13.0559 61.2851 13.0559 61.3931 13.0559C61.4308 12.9152 61.4656 12.7737 61.4989 12.6318C61.6676 12.4123 61.6676 12.4123 61.8694 12.1945C62.1399 11.9053 62.1399 11.9053 62.3458 11.5716C62.4265 11.5256 62.5073 11.4797 62.5905 11.4324C62.907 11.2334 63.071 11.0173 63.2984 10.7233C63.5234 10.5246 63.5234 10.5246 63.7219 10.4053Z" fill="#3B93AB"/>
<path d="M92.9358 56.2075C93.0755 56.2075 93.2152 56.2075 93.3592 56.2075C93.4894 56.3744 93.4894 56.3744 93.5908 56.5985C93.625 56.6711 93.6593 56.7436 93.6946 56.8184C93.8678 57.2853 93.9074 57.7327 93.915 58.2286C93.9191 58.3912 93.9191 58.3912 93.9232 58.557C93.9118 58.6564 93.9003 58.7557 93.8885 58.8582C93.728 59.1095 93.728 59.1095 93.5709 59.2823C93.3881 58.4352 93.2087 57.5879 93.0416 56.7376C93.0064 56.5609 92.9711 56.3843 92.9358 56.2075Z" fill="#8F6451"/>
<path d="M70.8116 4.14861C70.8466 4.25358 70.8815 4.35854 70.9175 4.46669C71.1864 4.45704 71.1864 4.45704 71.4468 4.36066C71.4817 4.29069 71.5166 4.22071 71.5526 4.14861C71.8238 4.24138 71.8238 4.24138 72.0819 4.36066C72.0819 4.29069 72.0819 4.22071 72.0819 4.14861C72.3929 4.13536 72.3929 4.13536 72.717 4.14861C72.7694 4.25358 72.7694 4.25358 72.8229 4.36066C72.7215 4.38388 72.6201 4.4071 72.5157 4.43106C71.5543 4.65817 70.6321 4.94507 69.7051 5.28626C69.4373 5.38232 69.1834 5.46757 68.9062 5.52694C68.9062 5.45697 68.9062 5.38699 68.9062 5.31489C69.2013 5.19466 69.5019 5.10316 69.8056 5.00721C69.9369 4.94953 69.9369 4.94953 70.0707 4.89079C70.1056 4.78582 70.1405 4.68086 70.1765 4.57271C70.3075 4.576 70.3075 4.576 70.4411 4.57929C70.5285 4.57717 70.6158 4.57494 70.7058 4.57271C70.8016 4.36575 70.8016 4.36575 70.8116 4.14861Z" fill="#70CBDF"/>
<path d="M73.6704 41.8945C73.7053 41.8945 73.7402 41.8945 73.7762 41.8945C73.809 42.1016 73.8366 42.3094 73.8623 42.5174C73.9595 43.1662 74.0778 43.762 74.4113 44.3331C74.7336 44.7038 75.0873 44.9338 75.5162 45.1681C75.6058 45.2074 75.6953 45.2468 75.7875 45.2873C75.6128 45.4623 75.4381 45.6372 75.2582 45.8175C75.2058 45.7343 75.1534 45.6513 75.0994 45.5657C74.8902 45.2464 74.6511 44.9623 74.4048 44.6711C74.1444 44.3451 73.9245 44.0487 73.7762 43.6572C73.6139 43.0803 73.6434 42.4883 73.6704 41.8945Z" fill="#684941"/>
<path d="M82.2471 37.3359C82.4525 37.4166 82.6576 37.4987 82.8623 37.5811C82.9765 37.6267 83.0907 37.6721 83.2084 37.719C83.5173 37.8661 83.5173 37.8661 83.7171 38.0429C83.7559 38.0896 83.7948 38.1361 83.8349 38.1841C83.6602 38.2191 83.4856 38.2541 83.3056 38.2902C83.3406 38.3951 83.3755 38.5001 83.4115 38.6082C83.3416 38.6082 83.2717 38.6082 83.1998 38.6082C83.0245 38.4032 83.0245 38.4032 82.8293 38.1377C82.7087 37.9743 82.5857 37.8126 82.4588 37.654C82.3889 37.619 82.3191 37.584 82.2471 37.548C82.2471 37.478 82.2471 37.408 82.2471 37.3359Z" fill="#A68376"/>
<path d="M68.4877 0.862793C68.888 0.970366 69.1989 1.11259 69.533 1.35316C69.6421 1.43625 69.7514 1.51936 69.8638 1.60497C69.759 1.65745 69.759 1.65745 69.6521 1.711C69.423 1.65922 69.423 1.65922 69.1625 1.57184C69.076 1.54382 68.9894 1.5158 68.9003 1.48693C68.834 1.45591 68.7677 1.42489 68.6994 1.39292C68.6994 1.32294 68.6994 1.25297 68.6994 1.18087C68.6295 1.18087 68.5597 1.18087 68.4877 1.18087C68.4877 1.0759 68.4877 0.970939 68.4877 0.862793ZM68.4877 1.28689C68.5576 1.35687 68.6274 1.42685 68.6994 1.49895C68.5946 1.46396 68.4898 1.42897 68.3818 1.39292C68.4168 1.35793 68.4517 1.32294 68.4877 1.28689Z" fill="#75CCE1"/>
<path d="M81.0815 39.2441C81.2564 39.4034 81.3933 39.5528 81.5182 39.7543C81.5488 39.8309 81.5793 39.9074 81.6108 39.9863C81.6084 40.2364 81.6084 40.2364 81.5711 40.4899C81.5594 40.5747 81.5476 40.6594 81.5356 40.7467C81.5255 40.8107 81.5153 40.8746 81.505 40.9405C81.3877 40.7274 81.2985 40.5444 81.2531 40.3044C81.2468 40.2344 81.2403 40.1644 81.2338 40.0923C81.2033 39.8009 81.1638 39.5264 81.0815 39.2441Z" fill="#C2DAD4"/>
<path d="M57.1546 37.2295C57.4457 37.488 57.4457 37.488 57.6839 37.7596C57.614 37.8296 57.5442 37.8996 57.4722 37.9717C57.1481 37.7861 57.1481 37.7861 56.8371 37.5476C56.8021 37.4776 56.7672 37.4076 56.7312 37.3355C56.9099 37.2494 56.9099 37.2494 57.1546 37.2295Z" fill="#1C5D65"/>
<path d="M49.6443 19.311C49.9911 19.3511 50.3139 19.3914 50.6433 19.5098C50.6979 19.5492 50.7525 19.5886 50.8087 19.6291C50.8087 19.7341 50.8087 19.839 50.8087 19.9472C50.4075 19.7936 50.0232 19.6201 49.6443 19.4171C49.6443 19.3821 49.6443 19.3471 49.6443 19.311Z" fill="#39869C"/>
<path d="M73.348 3.7251C73.8509 3.81787 73.8509 3.81787 74.089 3.93715C74.089 4.00713 74.089 4.0771 74.089 4.1492C73.8096 4.1492 73.5301 4.1492 73.2422 4.1492C73.2771 4.00925 73.3121 3.86929 73.348 3.7251Z" fill="#6DC8E0"/>
<path d="M59.6989 39.0312C59.9333 39.0599 59.9333 39.0599 60.2216 39.1173C60.3163 39.1356 60.4112 39.1537 60.5089 39.1725C60.6319 39.2076 60.6319 39.2076 60.7574 39.2433C60.8273 39.3133 60.8972 39.3833 60.9691 39.4554C60.7992 39.4433 60.6294 39.4297 60.4598 39.4156C60.3651 39.4082 60.2706 39.4009 60.1731 39.3932C60.0432 39.3715 60.0432 39.3715 59.9106 39.3493C59.8058 39.2793 59.701 39.2094 59.593 39.1373C59.6279 39.1023 59.6629 39.0673 59.6989 39.0312Z" fill="#DFEDEF"/>
<path d="M72.7189 3.2998C72.9835 3.39258 72.9835 3.39258 73.2482 3.51186C73.2482 3.58183 73.2482 3.65181 73.2482 3.72391C72.9306 3.79017 72.9306 3.79017 72.613 3.82993C72.648 3.65499 72.6829 3.48005 72.7189 3.2998Z" fill="#6CD1E8"/>
<path d="M73.6787 7.31592C73.8888 7.31666 74.0988 7.32302 74.3088 7.33002C74.3088 7.36501 74.3088 7.4 74.3088 7.43604C73.9714 7.55532 73.9714 7.55532 73.5678 7.6481C73.2568 7.60834 73.2568 7.60834 73.0386 7.54207C73.2506 7.40053 73.4239 7.33246 73.6787 7.31592Z" fill="#BEECF0"/>
<path d="M73.458 3.61851C73.7623 3.59201 73.7623 3.59201 74.0931 3.61851C74.2387 3.83056 74.2387 3.83056 74.3048 4.04261C74.2001 4.0951 74.2001 4.0951 74.0931 4.14864C74.0931 4.07866 74.0931 4.00869 74.0931 3.93659C73.8828 3.86195 73.671 3.79123 73.458 3.72454C73.458 3.68955 73.458 3.65456 73.458 3.61851Z" fill="#0C556D"/>
<path d="M57.0529 25.0371C57.0878 25.0371 57.1227 25.0371 57.1587 25.0371C57.2034 25.2653 57.2034 25.2653 57.2381 25.5607C57.2507 25.6578 57.2632 25.755 57.2761 25.8551C57.2723 25.935 57.2685 26.015 57.2646 26.0974C57.1598 26.1324 57.055 26.1673 56.947 26.2034C56.9618 26.0089 56.9774 25.8146 56.9934 25.6202C57.002 25.512 57.0105 25.4037 57.0194 25.2922C57.0304 25.208 57.0414 25.1238 57.0529 25.0371Z" fill="#BFEFF1"/>
<path opacity="0.5" fill-rule="evenodd" clip-rule="evenodd" d="M77.4159 7.80468C77.1147 7.61819 76.8254 7.49933 76.4876 7.39405C74.2644 6.883 71.8737 7.52849 69.8848 8.52778L69.5421 8.70876C69.2516 8.85529 68.9645 9.00436 68.6807 9.16351C65.9498 10.798 63.5875 12.9238 61.6591 15.4575C61.5265 15.6334 61.3938 15.8091 61.2593 15.9836C60.7853 16.5962 60.3378 17.2116 59.9502 17.8828L59.8034 18.145C59.0895 19.4078 58.4042 20.6976 57.9067 22.0626L57.7921 22.386L57.6809 22.6797C57.081 24.3384 56.8562 26.0179 56.9039 27.7772C56.9631 28.9731 57.1621 30.2394 57.6586 31.3382C57.7353 31.4945 57.8113 31.6513 57.885 31.8091C57.9553 31.96 58.0263 32.1107 58.0981 32.261L58.209 32.4915C58.4017 32.8986 58.5958 33.253 58.8793 33.6048C59.1639 33.8333 59.4143 33.9561 59.7629 34.0611L59.9886 34.1217C60.387 34.2324 60.7856 34.3314 61.1915 34.4105C62.7326 34.6725 64.441 34.7459 65.9761 34.4336L66.2605 34.3669C66.9801 34.2083 67.6855 34.0227 68.3748 33.7601C70.0003 33.0732 71.6272 32.2128 72.9092 30.9852C73.1399 30.7633 73.3794 30.5574 73.6241 30.3512C73.7357 30.2581 73.7867 30.2155 73.8354 30.1704C73.8763 30.1326 73.9157 30.0929 73.988 30.0199L74.0938 29.7018H74.3055V29.4898H74.5172L74.7149 29.2541C74.8288 29.1009 74.8825 29.0284 74.9407 28.9596C74.9926 28.898 75.0481 28.8394 75.1532 28.7281C75.4071 28.4574 75.6522 28.1815 75.8934 27.8994C77.6865 25.6378 78.6982 22.9514 79.5201 20.211L79.5983 19.9475C80.1577 18.0699 80.3363 16.2819 80.2334 14.3281C80.1136 12.9561 79.8235 11.6159 79.2359 10.3655C78.7599 9.39348 78.2166 8.53647 77.4159 7.80468Z" fill="#E8FEFD"/>
<path d="M110.162 31.1831L83.3744 11.662C78.4399 8.11268 70.5447 8.11268 65.6102 11.662L38.9637 31.1831C36.567 32.9578 35.2981 35.2648 35.2981 37.7493L43.3668 90.2536C43.3668 92.0282 44.3537 93.9803 46.3275 95.4001L67.725 107.67C71.5316 110.51 77.876 110.51 81.6826 107.67L102.798 95.4001C104.772 93.9803 105.618 92.2057 105.618 90.2536L113.827 37.7493C113.827 35.4423 112.7 32.9578 110.162 31.1831Z" fill="url(#paint8_linear_461_20299)"/>
<path d="M48.7884 75.9039C49.0241 75.9039 49.2152 75.709 49.2152 75.4685C49.2152 75.2281 49.0241 75.0332 48.7884 75.0332C48.5527 75.0332 48.3616 75.2281 48.3616 75.4685C48.3616 75.709 48.5527 75.9039 48.7884 75.9039Z" fill="#DA6420"/>
<path d="M88.7613 78.9512C88.997 78.9512 89.1881 78.7563 89.1881 78.5159C89.1881 78.2755 88.997 78.0806 88.7613 78.0806C88.5256 78.0806 88.3345 78.2755 88.3345 78.5159C88.3345 78.7563 88.5256 78.9512 88.7613 78.9512Z" fill="#DA6420"/>
<path d="M97.5877 73.8721C97.8234 73.8721 98.0145 73.6772 98.0145 73.4368C98.0145 73.1964 97.8234 73.0015 97.5877 73.0015C97.352 73.0015 97.1609 73.1964 97.1609 73.4368C97.1609 73.6772 97.352 73.8721 97.5877 73.8721Z" fill="#DA6420"/>
<path d="M61.7344 92.0103C61.9701 92.0103 62.1612 91.8154 62.1612 91.575C62.1612 91.3346 61.9701 91.1396 61.7344 91.1396C61.4987 91.1396 61.3076 91.3346 61.3076 91.575C61.3076 91.8154 61.4987 92.0103 61.7344 92.0103Z" fill="#DA6420"/>
<path d="M90.0442 59.5059C90.2799 59.5059 90.471 59.311 90.471 59.0706C90.471 58.8302 90.2799 58.6353 90.0442 58.6353C89.8085 58.6353 89.6174 58.8302 89.6174 59.0706C89.6174 59.311 89.8085 59.5059 90.0442 59.5059Z" fill="white"/>
<path d="M53.482 59.9415C53.7177 59.9415 53.9088 59.7466 53.9088 59.5061C53.9088 59.2657 53.7177 59.0708 53.482 59.0708C53.2463 59.0708 53.0552 59.2657 53.0552 59.5061C53.0552 59.7466 53.2463 59.9415 53.482 59.9415Z" fill="white"/>
<path d="M66.8538 50.3633C67.0895 50.3633 67.2806 50.1684 67.2806 49.928C67.2806 49.6876 67.0895 49.4927 66.8538 49.4927C66.6181 49.4927 66.427 49.6876 66.427 49.928C66.427 50.1684 66.6181 50.3633 66.8538 50.3633Z" fill="#DA6420"/>
<path opacity="0.4" d="M46.7955 71.9849H47.3646C47.5069 71.9849 47.6491 72.13 47.6491 72.2751V89.5435C47.6491 89.6886 47.5069 89.8337 47.3646 89.8337H46.7955C46.6533 89.8337 46.511 89.6886 46.511 89.5435V72.2751C46.6533 72.13 46.6533 71.9849 46.7955 71.9849Z" fill="url(#paint9_linear_461_20299)"/>
<path opacity="0.4" d="M101.997 66.0356H102.566C102.709 66.0356 102.851 66.1808 102.851 66.3259V83.5943C102.851 83.7394 102.709 83.8845 102.566 83.8845H101.997C101.855 83.8845 101.713 83.7394 101.713 83.5943V66.3259C101.713 66.1808 101.855 66.0356 101.997 66.0356Z" fill="url(#paint10_linear_461_20299)"/>
<path opacity="0.4" d="M63.4425 77.644H64.0116C64.1538 77.644 64.2961 77.7892 64.2961 77.9343V95.2027C64.2961 95.3478 64.1538 95.4929 64.0116 95.4929H63.4425C63.3002 95.4929 63.158 95.3478 63.158 95.2027V77.9343C63.158 77.7892 63.3002 77.644 63.4425 77.644Z" fill="url(#paint11_linear_461_20299)"/>
<path opacity="0.4" d="M63.4425 54.2812H64.0116C64.1538 54.2812 64.2961 54.4264 64.2961 54.5715V71.8399C64.2961 71.985 64.1538 72.1301 64.0116 72.1301H63.4425C63.3002 72.1301 63.158 71.985 63.158 71.8399V54.5715C63.158 54.4264 63.3002 54.2812 63.4425 54.2812Z" fill="url(#paint12_linear_461_20299)"/>
<defs>
<linearGradient id="paint0_linear_461_20299" x1="30.0361" y1="134.925" x2="120.406" y2="134.925" gradientUnits="userSpaceOnUse">
<stop offset="0.3375" stop-color="#A1C1FF"/>
<stop offset="0.5932" stop-color="#E8F1FF"/>
</linearGradient>
<linearGradient id="paint1_linear_461_20299" x1="120.052" y1="116.625" x2="30.3377" y2="108.697" gradientUnits="userSpaceOnUse">
<stop stop-color="#FFE4D4"/>
<stop offset="1" stop-color="#F1935C"/>
</linearGradient>
<linearGradient id="paint2_linear_461_20299" x1="109.178" y1="115.611" x2="41.2311" y2="109.606" gradientUnits="userSpaceOnUse">
<stop stop-color="white"/>
<stop offset="1" stop-color="#C9D9F4"/>
</linearGradient>
<linearGradient id="paint3_linear_461_20299" x1="40.3543" y1="133.743" x2="38.6832" y2="130.925" gradientUnits="userSpaceOnUse">
<stop stop-color="#F1935C"/>
<stop offset="0.6426" stop-color="#EBC3AA"/>
</linearGradient>
<linearGradient id="paint4_linear_461_20299" x1="45.0992" y1="136.533" x2="43.4281" y2="133.715" gradientUnits="userSpaceOnUse">
<stop stop-color="#DA6420"/>
<stop offset="0.6426" stop-color="#FFE4D4"/>
</linearGradient>
<linearGradient id="paint5_linear_461_20299" x1="30.2473" y1="113.025" x2="119.107" y2="113.025" gradientUnits="userSpaceOnUse">
<stop offset="0.389" stop-color="#648FE4"/>
<stop offset="0.5932" stop-color="#A1C1FF"/>
</linearGradient>
<linearGradient id="paint6_linear_461_20299" x1="43.6021" y1="91.0724" x2="105.768" y2="91.0724" gradientUnits="userSpaceOnUse">
<stop offset="0.389" stop-color="#648FE4"/>
<stop offset="0.5932" stop-color="#CFDFFF"/>
</linearGradient>
<linearGradient id="paint7_linear_461_20299" x1="118.771" y1="95.1538" x2="30.5656" y2="87.3038" gradientUnits="userSpaceOnUse">
<stop stop-color="white"/>
<stop offset="1" stop-color="#4D9DF9"/>
</linearGradient>
<linearGradient id="paint8_linear_461_20299" x1="74.6333" y1="109.69" x2="74.6333" y2="9.10045" gradientUnits="userSpaceOnUse">
<stop stop-color="#9DF0FC"/>
<stop offset="0.0001" stop-color="#0CFFFC" stop-opacity="0.6"/>
<stop offset="1" stop-color="white" stop-opacity="0"/>
</linearGradient>
<linearGradient id="paint9_linear_461_20299" x1="47.1162" y1="73.9034" x2="47.1162" y2="88.3109" gradientUnits="userSpaceOnUse">
<stop offset="0.2578" stop-color="#DA5A10"/>
<stop offset="1" stop-color="#FFE4D4"/>
</linearGradient>
<linearGradient id="paint10_linear_461_20299" x1="102.318" y1="67.9542" x2="102.318" y2="82.3617" gradientUnits="userSpaceOnUse">
<stop offset="0.2578" stop-color="#DA5A10"/>
<stop offset="1" stop-color="#FFE4D4"/>
</linearGradient>
<linearGradient id="paint11_linear_461_20299" x1="63.7632" y1="79.5626" x2="63.7632" y2="93.9701" gradientUnits="userSpaceOnUse">
<stop offset="0.2578" stop-color="#DA5A10"/>
<stop offset="1" stop-color="#FFE4D4"/>
</linearGradient>
<linearGradient id="paint12_linear_461_20299" x1="63.7632" y1="56.1998" x2="63.7632" y2="70.6074" gradientUnits="userSpaceOnUse">
<stop offset="0.2578" stop-color="#DA5A10"/>
<stop offset="1" stop-color="#FFE4D4"/>
</linearGradient>
</defs>
</svg>
