<svg width="24" height="24" viewBox="0 0 24 24" fill="none" xmlns="http://www.w3.org/2000/svg">
<path d="M11.9866 19.4323C8.06953 19.4323 4.14273 17.0972 0.314459 12.4918C0.0710429 12.1989 0.0710429 11.7742 0.314459 11.4813C4.14273 6.87613 8.06953 4.54102 11.9866 4.54102C15.9034 4.54102 19.8304 6.87613 23.6587 11.4813C23.9024 11.7742 23.9024 12.1989 23.6587 12.4918C19.8304 17.097 15.9034 19.4323 11.9866 19.4323ZM1.95857 11.9865C5.32952 15.8791 8.70099 17.8517 11.9866 17.8517C15.2724 17.8517 18.6437 15.8794 22.0146 11.9865C18.6437 8.094 15.2724 6.12164 11.9866 6.12164C8.70099 6.12164 5.32952 8.094 1.95857 11.9865Z" fill="#9F9F9F"/>
<path d="M11.9866 15.6746C14.0235 15.6746 15.6747 14.0234 15.6747 11.9865C15.6747 9.94957 14.0235 8.29834 11.9866 8.29834C9.94969 8.29834 8.29846 9.94957 8.29846 11.9865C8.29846 14.0234 9.94969 15.6746 11.9866 15.6746Z" fill="#9F9F9F"/>
</svg>
